<?xml version="1.0" encoding="utf-8"?>
<!-- Generator: Adobe Illustrator 22.1.0, SVG Export Plug-In . SVG Version: 6.00 Build 0)  -->
<svg version="1.1" id="Calque_1" xmlns="http://www.w3.org/2000/svg" xmlns:xlink="http://www.w3.org/1999/xlink" x="0px" y="0px"
	 viewBox="0 0 15 15" style="enable-background:new 0 0 15 15;" xml:space="preserve">
<style type="text/css">
	.st0{fill:none;stroke:#FFFFFF;stroke-width:0.75;stroke-miterlimit:10;}
	.st1{fill:#FFFFFF;}
</style>
<g>
	<circle class="st0" cx="7.5" cy="7.5" r="6.7"/>
	<g id="Dwv8rQ.tif">
		<g>
			<path class="st1" d="M5.2,6.2c0.4,0,0.8,0,1.1,0c0,0,0-0.1,0-0.1c0-0.4,0-0.8,0-1.2c0-1,0.7-1.8,1.7-2c0.4-0.1,1.3,0,1.7,0.1
				c0,0.4,0,1,0,1.4c-0.3,0-1,0-1.1,0C8.2,4.4,8.1,4.5,8,4.9c0,0.4,0,0.9,0,1.3c0.3,0,1.4,0,1.7,0c0,0.5,0,1-0.1,1.6
				c-0.5,0-1.1,0-1.6,0c0,1.5,0,2.9,0,4.4c-0.6,0-1.1,0-1.7,0c0-1.4,0-2.9,0-4.3c-0.4,0-0.8,0-1.1,0C5.2,7.2,5.2,6.7,5.2,6.2z"/>
		</g>
	</g>
</g>
</svg>
