<?xml version="1.0" encoding="utf-8"?>
<!-- Generator: Adobe Illustrator 22.1.0, SVG Export Plug-In . SVG Version: 6.00 Build 0)  -->
<svg version="1.1" id="Calque_1" xmlns="http://www.w3.org/2000/svg" xmlns:xlink="http://www.w3.org/1999/xlink" x="0px" y="0px"
	 viewBox="0 0 80 78" style="enable-background:new 0 0 80 78;" xml:space="preserve">
<style type="text/css">
	.st0{fill:#FFFFFF;}
</style>
<g>
	<path class="st0" d="M70.8,5.5c2,0,3.7,1.7,3.7,3.7v59.7c0,2-1.7,3.7-3.7,3.7H9.2c-2,0-3.7-1.7-3.7-3.7V9.2c0-2,1.7-3.7,3.7-3.7
		H70.8 M70.8,0H9.2C4.1,0,0,4.1,0,9.2v59.7c0,5,4.1,9.2,9.2,9.2h61.7c5,0,9.2-4.1,9.2-9.2V9.2C80,4.1,75.9,0,70.8,0L70.8,0z"/>
</g>
<g>
	<g>
		<path class="st0" d="M40,24.9l16.8,27.2H23.2L40,24.9 M40,14.4L13.3,57.7h53.4L40,14.4L40,14.4z"/>
	</g>
</g>
</svg>
