<?xml version="1.0" encoding="utf-8"?>
<!-- Generator: Adobe Illustrator 22.1.0, SVG Export Plug-In . SVG Version: 6.00 Build 0)  -->
<svg version="1.1" id="Calque_1" xmlns="http://www.w3.org/2000/svg" xmlns:xlink="http://www.w3.org/1999/xlink" x="0px" y="0px"
	 viewBox="0 0 517.8 169.7" style="enable-background:new 0 0 517.8 169.7;" xml:space="preserve">
<style type="text/css">
	.st0{fill:#424243;}
	.st1{font-family:'darloune';}
	.st2{font-size:29px;}
	.st3{font-size:24px;}
</style>
<g>
	<g id="lTY6fX.tif">
		<g>
			<path class="st0" d="M76.1,81.7c-2.7,2.8-4.9,5.3-7.3,7.7c-1.3,1.3-2.7,2.5-4.2,3.6c-6.5,4.4-12.8,2.5-15.4-4.9
				c-3.4-9.4-2.5-18.9-0.8-28.4c0.2-1.2,1.1-2.6,2.1-3.2c1.4-0.9,6.1-2.7,6-1.2c-1.7,8.5-1.4,12.5-1.7,18c-0.3,1.5,0,5.2,1.1,10.2
				c0.7,3.1,2.8,2.8,5.7,1.5c1.1-0.5,2.2-1.1,3-1.9c6.3-5.6,12.4-11.2,15.7-19.3c1.6-3.9,4.3-7.6,7.1-10.9c3.9-4.4,6.8-3.8,9.5,1.4
				c1.7,3.3,3.3,6.8,1.8,10.6c-0.4,1-1.4,2.3-2.2,2.4c-0.9,0.1-2.2-0.8-2.8-1.7c-1-1.6-1.6-3.5-2.5-5.6c-3.7,3.5-5.2,7.9-6.3,12.4
				c-0.7,2.8-1.2,5.8-1.2,8.7c-0.1,4,2.6,6.3,6.4,5.1c3.8-1.3,7.9-2.9,10.9-5.5c5.9-5.1,11.2-11,16.7-16.6c0.5-0.5,0.6-1.6,0.7-2.4
				c0.7-7.7,1.4-15.4,2.1-23.2c0.1-1.6,0.7-7.8,1.1-9.4c0.3-1.4,7.3,5.8,7.1,8.1c-0.5,5.2-0.8,7.9-1.5,13.1c-0.9,7.2-2,14.5-2.4,22
				c2.7-4.1,5.3-8.2,8.1-12.2c2-2.9,8.2-10.5,10.6-13.2c1.6-1.8,2.3,8.3,0.5,10.4c-3.9,4.9-5.6,7.9-10.2,14.2c-0.6,0.9-1.2,1.8-2,3
				c3.3,3.4,6.6,6.8,9.9,10c2.4,2.3,5.3,2.4,7.8,0.5c3.7-2.9,9.6-9,13-12.2c1.4-1.4,1.3,1.8,1.5,3.4c1.2-5.5,2.6-11.9,3.9-17.1
				c0.1-0.5,1.4-4.9,2.2-7.1c0.7-1.8,6.2,5,5.1,8.3c-1.3,3.7-2.6,7.2-3.2,11.9c-0.3,2.5-0.3,5.3,0.2,6.8c0.8,2,1.5,2.9,3.7,2.4
				c7.3-1.7,13.8-9.5,14.2-16.9c0.2-3.1,0.7-8.7,1.2-11.8c0.4-2.4,7.4,4.5,7.2,6.7c-0.8,11.2-1.6,19.1-2.6,30.3
				c-0.2,1.9-1.1,6.5-1.3,8.4c0.3,0.3,6.9-4.9,10.8-6.9c1.8-0.6-5.7,15.3-7.8,18.4c-1.3,0.9-3.5,2.6-4.7,3.3
				c-2.2,11.8-8.2,30.5-13.7,41c-2.2,4.2-5.4,8.2-9,11.4c-5.3,4.7-14.3,4.5-16.7-5.7c-3.8-15.9,1.4-36,18.1-46.3
				c4.3-2.6,8.4-5.4,12.6-8.3c0.9-0.6,2-1.7,2.1-2.7c0.7-6.6,1.2-13.2,1.9-20.6c-3,2.1-5.1,3.7-7.3,5.3c-0.4,0.3-0.9,0.6-1.4,0.9
				c-9.2,5.4-14.8,2.4-15.3-8.3c0-0.4-0.1-0.9-0.1-1.7c-2.3,2.8-4.2,5.6-6.5,7.9c-2.4,2.5-4.9,5-7.7,7c-4.8,3.5-8.6,3.3-13-0.7
				c-3-2.7-5.4-6-8.1-9c-0.6-0.7-1.3-1.4-2-2.3c-2.6,2.6-3.7,2.9-4,7.3c-0.1,2.5-0.4,8.2-0.5,10.4c-0.1,1.3-6.9-4.3-6.8-5.4
				c0.1-4.7,0.7-9.3,1.2-14c0.1-1.6,0.3-3.2,0.5-5.4c-3.5,3.7-6.4,7-9.6,10c-3,2.8-6.1,5.7-9.6,7.9c-2.4,1.5-5.4,2.5-8.2,2.9
				c-7.2,1.1-11.7-2.3-13.2-9.4C76.4,84.2,76.3,83.2,76.1,81.7z M185.2,115c-10.2,5-19.3,16.6-22.3,26.6c-0.9,3.2-0.8,6.9-0.2,10.2
				c0.7,3.8,4.7,4.5,7.2,1.5c1.5-1.8,3-3.9,3.8-6.1C176.9,138.5,183.8,124.6,185.2,115z"/>
			<path class="st0" d="M374,77.4c2.5-4,4.7-8.1,7.4-11.9c1.5-2.2,3.4-4.3,5.6-5.8c4.2-2.8,8.7-1.2,10.1,3.7
				c1.1,3.6,1.1,7.5,1.9,11.2c0.7,2.8,1.2,6.7,3.1,8c2.7,1.7,5.8-1.2,7.8-3.4c4.8-5.2,9.2-10.8,13.9-16.1c2.7-3.1,5.4-6.3,8.7-8.7
				c3.3-2.4,6.4-1.7,8.9,1.6c4.9,6.6,11.6,7.5,19,6.5c1-0.1,1.9-1.4,2.7-2.3c0.7-0.8,0.7-2.2,1.5-2.8c1-0.8,2.5-1.4,3.7-1.2
				c0.8,0.1,1.9,1.5,2.1,2.5c0.3,1.7,0.1,3.5-0.2,5.2c-0.9,4.5-2,8.9-2.5,13.6c1.1-1.8,2.1-3.6,3.3-5.3c2.3-3.4,4.5-7,7.1-10.2
				c2-2.5,4.9-3.7,8.2-2.9c3.4,0.8,4.5,3.7,5.1,6.6c0.7,3.4,0.9,6.9,1.3,10.4c0.1,1,0.2,2,0.4,2.9c1.1,4.9,3.5,6.1,7.3,2.9
				c4.6-3.9,8.5-8.7,12.9-12.9c1.3-1.2,2.9-2.1,4.4-3.1c-0.1,1.9,0.5,4.2-0.3,5.7c-4,7.6-9.2,14.4-16.4,19.2
				c-6.3,4.2-12.2,2.1-14.2-5.2c-1.3-4.5-1.6-9.2-2.5-13.8c-0.2-1-0.9-1.8-1.4-2.7c-0.9,0.6-2,0.9-2.6,1.7c-2.2,3.3-4.1,6.7-6.3,10
				c-2.4,3.5-4.9,7-7.7,10.2c-1.9,2.2-3.8,1.9-5-0.8c-0.8-1.7-1.3-3.7-1.4-5.6c-0.2-4.8,0-9.5,0-14c-4-0.4-8.5-0.8-13.1-1.2
				c0.9,7.6-2,14.5-7.5,20.5c-4.1,4.5-9.4,6.1-15.3,6.2c-3.7,0-7.2-3.7-8-8.3c-0.2-1.3-0.3-2.6-0.4-4.3c-2.1,1.8-3.9,3.5-5.9,5.1
				c-1.5,1.1-3,2.2-4.7,2.9c-5,2-9.4,0.3-11.1-4.8c-1.4-4.2-1.7-8.7-2.7-13.1c-0.4-1.7-1.1-3.4-1.7-5.1c-1.4,1.2-3.1,2.3-4.1,3.7
				c-3.5,5.1-6.6,10.5-10.2,15.6c-1.2,1.7-3.5,2.5-5.2,3.8c-1.2-2.1-2.6-4.1-3.3-6.4c-0.6-1.9-0.3-4.1-0.4-6.8
				c-1.2,1.4-2.1,2.6-3.1,3.6c-2.6,2.5-5,5.2-7.9,7.3c-6.8,5-13.1,2.8-15.2-5.3c-0.9-3.7-1.2-7.5-1.9-11.3c-0.3-1.6-0.8-3.1-1.4-5.6
				c-1.7,1.7-3,2.7-3.8,4c-2.4,3.7-4.4,7.5-6.9,11.2c-1.8,2.7-3.9,5.3-6.1,7.7c-2.2,2.4-4.5,2-5.3-1.1c-0.9-3.5-1.1-7.3-1.2-10.9
				c-0.1-2.9,0.5-5.8,0.8-8.2c-4.7-0.4-9.3-0.8-14.1-1.2c0.9,7.2-1.7,13.9-6.7,19.8c-4.1,4.8-9.5,6.8-15.7,6.9
				c-4.4,0-8.4-4.5-8.5-9.9c-0.1-2.7,0.2-5.5,0.9-8.1c1.9-7.2,5.6-13.5,10.3-19.2c1.6-1.9,3.6-3.5,5.8-4.8c3.5-2.1,6.4-1.3,8.9,1.9
				c4.3,5.5,12.8,8.3,19.3,6.3c0.9-0.3,1.6-1.3,2.1-2.1c0.6-0.9,0.7-2.2,1.5-2.8c1-0.8,2.5-1.4,3.7-1.3c0.8,0.1,1.9,1.5,2,2.5
				c0.2,2,0.1,4.1-0.3,6.1c-0.8,4.3-1.9,8.5-2.3,13c1.2-2,2.3-4,3.6-5.9c2.2-3.3,4.2-6.6,6.7-9.7c2-2.5,4.9-3.8,8.2-3.1
				c3.4,0.8,4.7,3.5,5.2,6.5c0.7,4.3,1.1,8.7,1.8,13c0.9,5.4,3.3,6.6,7.5,3.3c6.7-5.2,13.3-10.7,15.1-19.8c0.9-4.6,2.9-6.3,5.4-5.8
				c2.3,0.4,3.2,3.2,2.2,7.6c-1,4.7-2.1,9.3-3.2,14C373.7,77.3,373.9,77.3,374,77.4z M287.2,60.6c-2.8,4.7-5.5,8.5-7.5,12.7
				c-1.3,2.8-2.2,5.9-2.5,9c-0.5,4.8,2.4,6.7,6.5,4.1c2.9-1.9,5.3-4.7,7.6-7.5c2.9-3.6,3.4-8.1,2-12.1
				C292.5,64.5,289.6,63,287.2,60.6z M433.9,61.4c-2.9,4.8-5.6,8.6-7.6,12.8c-1.3,2.8-2.1,5.9-2.4,9c-0.5,4.9,2.5,6.8,6.7,3.9
				c2.9-2,5.2-4.8,7.4-7.6c2.6-3.4,3.3-7.6,2-11.5C439.1,65.7,436.3,64,433.9,61.4z"/>
			<path class="st0" d="M60.5,46.1c-1.4,2.6-4.7,3.2-7.7,1.6c-2.9-1.5-2-3.8-1-5.9c0.6-1.3,1.5-3,2.6-3.6c1.6-0.8,4.4-0.7,5.4,0.7
				C61.3,41.2,61.2,44.9,60.5,46.1z"/>
		</g>
	</g>
	<g id="lTY6fX.tif_3_">
		<g>
			<path class="st0" d="M237,35.4c0.8-3.5,2.9-5.2,5.7-5.5c2.7-0.3,6.5,2,7.5,4.8c0.9,2.3,1.1,6.4-0.9,8.5c-2,2.2-5.1,3.6-10,2.4
				c-8.9-2.3-12-9.1-13-17.6c-1.7-15.6,9.3-25.1,20.2-26.2c17.2-1.7,32.9,5.8,37.6,24.2c3.8,14.9-1.1,25.9-7.5,34.8
				s-22,23.7-38.9,33c-9.5,5.3-19.3,10-24.9,11.6c1.7-4,3-6.6,5.5-12.2c3.5-7.9,10.2-13.1,21.2-18.3c11-5.2,17.6-9.6,23.4-16.5
				c6.2-7.3,9-16.7,8.1-23.3c-1.1-7.8-3.3-12.9-8.9-16.1c-7.4-4.3-14.2-4-20.3-0.2C237.7,21.4,234.9,29.3,237,35.4z M246.6,37.5
				c0-2.7-1.7-4.4-4.5-4.4c-2.5,0-4.2,2.1-4.3,3.8c1.5,2.3,4,4.3,5.5,4.1C244.8,40.8,246.5,39.6,246.6,37.5z"/>
		</g>
	</g>
	<path class="st0" d="M26.9,78c2-21.2,13-71.6,15-77.7c0.4-1.3,5.3,12.9,4.1,17c-3.1,10.9-11.5,62.8-14.5,78.5
		c-8.3,2.8-8.3,1.4-9.9-4.1c-4.2-14.8-9.3-31.1-13.2-46C5.1,33.6,3,25.1,0,13C-0.5,10.8,6-2.4,6.7,0.4C12,22.5,26.1,75,26.9,78.4
		C27.3,78.5,26.5,77.9,26.9,78z"/>
</g>
<text transform="matrix(1 0 0 1 246.8611 127.5426)" class="st0 st1 st2">Enseignante</text>
<text transform="matrix(1 0 0 1 336.4255 149.1393)" class="st0 st1 st3">piano &amp; chant</text>
</svg>
