<?xml version="1.0" encoding="utf-8"?>
<!-- Generator: Adobe Illustrator 22.1.0, SVG Export Plug-In . SVG Version: 6.00 Build 0)  -->
<svg version="1.1" id="Calque_1" xmlns="http://www.w3.org/2000/svg" xmlns:xlink="http://www.w3.org/1999/xlink" x="0px" y="0px"
	 viewBox="0 0 65 76" style="enable-background:new 0 0 65 76;" xml:space="preserve">
<style type="text/css">
	.st0{fill:#FFFFFF;}
	.st1{fill:#424243;}
</style>
<g>
	<g>
		<path class="st0" d="M32.5,1C14.7,1,0.3,17.6,0.3,38s14.4,37,32.2,37c17.8,0,32.2-16.6,32.2-37S50.3,1,32.5,1z M32.5,72
			C16.3,72,3.1,56.8,3.1,38c0-18.8,13.2-34,29.4-34c16.2,0,29.4,15.3,29.4,34C61.9,56.8,48.7,72,32.5,72z"/>
	</g>
	<g>
		<path class="st1" d="M25.5,46.2C25.5,46.2,25.6,46.2,25.5,46.2C25.6,46.2,25.6,46.2,25.5,46.2z M25.5,46.2
			C25.5,46.2,25.6,46.2,25.5,46.2C25.6,46.2,25.6,46.2,25.5,46.2z M25.5,46.2C25.5,46.2,25.6,46.2,25.5,46.2
			C25.6,46.2,25.6,46.2,25.5,46.2z M25.5,46.1L25.5,46.1C25.5,46.1,25.5,46.1,25.5,46.1C25.5,46.1,25.5,46.1,25.5,46.1z"/>
		<path class="st0" d="M32.5,6.7c-15,0-27.1,14-27.1,31.3c0,17.3,12.2,31.3,27.1,31.3s27.2-14,27.2-31.3
			C59.6,20.7,47.5,6.7,32.5,6.7z M23.4,51.4c-1.7-5.8-3.6-12.2-5.1-18c-1.2-4.7-2.1-8-3.2-12.8c-0.2-0.9,2.3-6,2.6-4.9
			c2,8.4,7.3,28.2,7.9,30.3h0c0.8-8.3,5.1-28,5.8-30.4c0.2-0.5,2.1,5,1.6,6.6c-1.2,4.2-4.5,24.5-5.7,30.7C24,54.1,24,53.6,23.4,51.4
			z M37.5,58.5c-3.7,2.1-7.6,5.8-9.8,6.4c0.7-1.6,0.8-1.8,1.8-4c1.3-3.1,3.6-5.3,8-7.3c4.3-2,7.6-4.4,9.8-7.1
			c2.4-2.9,3.5-6.5,3.2-9.1c-0.4-3.1-1.3-5.1-3.5-6.3c-2.9-1.7-5.5-1.6-7.9-0.1c-1.7,1-2.8,4.1-1.9,6.5c0.3-1.4,1.1-2,2.2-2.2
			c1.1-0.1,2.5,0.8,2.9,1.9c0.3,0.9,0.4,2.5-0.3,3.3c-0.8,0.8-2,1.4-3.9,0.9c-3.5-0.9-4.7-3.6-5.1-6.9c-0.7-6.1,3.6-10.7,7.9-11.2
			c6.7-0.7,12.9,3.2,14.7,10.4c1.5,5.8-0.4,10.1-2.9,13.6C50.2,50.9,44.1,54.8,37.5,58.5z"/>
		<path class="st0" d="M40.9,38.4c0,0.8-0.7,1.3-1.3,1.4c-0.6,0.1-1.5-0.7-2.1-1.6c0-0.7,0.7-1.5,1.7-1.5
			C40.2,36.6,40.9,37.3,40.9,38.4z"/>
	</g>
	<g>
		<path class="st0" d="M25.5,46.1C25.5,46.1,25.5,46.1,25.5,46.1L25.5,46.1C25.5,46.1,25.5,46.1,25.5,46.1z"/>
	</g>
</g>
</svg>
