<?xml version="1.0" encoding="utf-8"?>
<!-- Generator: Adobe Illustrator 25.2.0, SVG Export Plug-In . SVG Version: 6.00 Build 0)  -->
<svg version="1.1" id="Layer_1" xmlns="http://www.w3.org/2000/svg" xmlns:xlink="http://www.w3.org/1999/xlink" x="0px" y="0px"
	 viewBox="0 0 307.28 418.23" style="enable-background:new 0 0 307.28 418.23;" xml:space="preserve">
<style type="text/css">
	.st0{fill:#F9CDE1;}
	.st1{fill:#EEC494;}
	.st2{fill:#FFFFFF;stroke:#000000;stroke-miterlimit:10;}
	.st3{fill:#EC008C;}
	.st4{opacity:0.15;}
	.st5{fill:#A97C50;}
	.st6{fill:#8B5E3C;}
	.st7{fill:#5ABA47;}
	.st8{fill:#755534;}
	.st9{opacity:0.29;}
	.st10{fill:#0088A0;}
	.st11{opacity:0.42;}
	.st12{opacity:0.64;fill:#010101;}
	.st13{opacity:0.85;}
	.st14{fill:#114722;}
	.st15{fill:none;stroke:#000000;stroke-miterlimit:10;}
	.st16{fill:#8B5E3C;stroke:#8B5E3C;stroke-width:4;stroke-miterlimit:10;}
	.st17{fill:none;stroke:#8B5E3C;stroke-width:4;stroke-miterlimit:10;}
	.st18{fill:#2383B6;stroke:#2383B6;stroke-miterlimit:10;}
	.st19{fill:#69A1C2;stroke:#69A1C2;stroke-miterlimit:10;}
	.st20{fill:#075384;stroke:#075384;stroke-miterlimit:10;}
	.st21{fill:#74C0EB;stroke:#74C0EB;stroke-miterlimit:10;}
	.st22{fill:#BEE1EB;stroke:#BEE1EB;stroke-miterlimit:10;}
</style>
<path class="st0" d="M145.58,45.37c0,0-11.73,27.37,11.73,43s51.48,5.86,51.48,5.86s22.81-11.73,28.67-31.28
	c0,0-31.93,11.08-44.96-1.3s-11.08-31.93-18.9-40.4s-33.23-32.58-68.42-14.99S75.86,49.93,75.86,49.93s3.26,28.67,25.41,40.4
	l14.33-1.95L145.58,45.37z"/>
<path class="st1" d="M84.69,100.35c-10.29,6.63-19.67,14.7-27.9,23.93c-0.21,0.24-0.42,0.48-0.63,0.72
	c-3.99,4.54-7.71,9.36-11.12,14.42c-0.03,0.04-0.06,0.09-0.09,0.13c-0.03,0.05-0.06,0.09-0.09,0.14
	c-11.69,17.44-19.8,37.8-23.16,59.87l-1.4,12.73c-0.17,2.57-0.28,5.17-0.33,7.78c-0.01,0.75-0.02,1.5-0.02,2.25
	c0,0.49,0,0.97,0.01,1.46v0.36c0.06,5.75,0.43,11.43,1.11,17c-2.58-0.17-4.52-0.82-5.15-2.25c-1.76-3.95-1.15-7.9-0.56-10.06
	c-0.66,1.16-2.12,2.78-5.31,4.19c-5.86,2.61,4.56-20.2,4.56-20.2l0.67-0.06c-3.41-16.18,2.16-40.82,16.04-64.85
	c14.81-25.66,34.98-43.45,51.32-47.16c0.59-0.14,1.16-0.25,1.74-0.34C84.48,100.38,84.59,100.37,84.69,100.35z"/>
<path class="st1" d="M162.29,79.95c-0.04,0.05-0.09,0.1-0.14,0.15c-0.11,0.11-0.21,0.22-0.32,0.33c-0.03,0.03-0.06,0.06-0.09,0.09
	c-0.81,0.82-1.66,1.6-2.55,2.33c-6.97,5.88-15.97,9.42-25.81,9.42c-2.24,0-4.44-0.18-6.58-0.54c-0.07-0.01-0.14-0.02-0.21-0.03
	c-3.95-0.68-7.7-1.93-11.17-3.68h-0.01c-0.73-0.35-1.45-0.74-2.15-1.15c-0.13-0.07-0.25-0.15-0.37-0.23
	c-0.06-0.02-0.11-0.05-0.16-0.09c-0.58-0.34-1.16-0.71-1.72-1.1c-2.97-1.99-5.65-4.38-7.98-7.07c-0.04-0.05-0.08-0.09-0.11-0.14
	c-6.02-7.01-9.65-16.12-9.65-26.08c0,0,0-0.13,0.01-0.37c0.01-2.19,0.2-4.33,0.56-6.42c0-0.02,0-0.04,0.01-0.05
	c0.79-4.58,2.35-8.9,4.55-12.8l47.83,13.07c0,0,2.47,34.15,15.71,34.37C162.06,79.96,162.17,79.96,162.29,79.95z"/>
<path class="st2" d="M272.54,159.45c-0.64-3.48-1.43-6.86-2.39-10.07C271.15,152.54,271.94,155.93,272.54,159.45z"/>
<path class="st1" d="M139.22,378.59c-0.27-0.2-0.53-0.39-0.8-0.6c-0.9-0.72-1.78-1.53-2.66-2.44c-0.01-0.01-0.02-0.03-0.03-0.04
	c-4.25-4.4-8.22-10.87-11.66-17.86c2.26,3.99,4.95,8.14,8.14,12.39c0,0.01,0,0.02,0.01,0.03c1.15,1.52,2.35,3.05,3.63,4.6
	c0.04-0.34,0.1-0.64,0.1-0.64c0.59,0.71,1.15,1.81,1.74,2.81c0,0.01,0.01,0.01,0.01,0.01C138.2,377.43,138.71,378.01,139.22,378.59z
	"/>
<path class="st1" d="M156.68,399.18l-10.12,9.16c-0.09,0.05-0.19,0.09-0.28,0.13c0.09-0.16,0.18-0.33,0.28-0.49l9.1-8.24l0.09-0.08
	l0.7-0.63C156.52,399.09,156.6,399.13,156.68,399.18z"/>
<path class="st2" d="M265.29,138.48c0-0.01-0.01-0.01-0.01-0.01c-0.01-0.03-0.01-0.04-0.01-0.05
	C265.28,138.43,265.29,138.45,265.29,138.48z"/>
<path class="st3" d="M84.27,156.93c-0.04,0.11-0.08,0.21-0.12,0.33c0.02-0.09,0.05-0.18,0.09-0.26
	C84.25,156.98,84.26,156.95,84.27,156.93z"/>
<path class="st3" d="M94.42,169.85c-0.01,0.01-0.01,0.01-0.02,0.01c-0.23,0.09-0.48,0.19-0.77,0.29c0.17-0.09,0.33-0.19,0.49-0.3
	H94.42z"/>
<path class="st3" d="M241.97,220.79c0.89-1.58,0.51-3.66-1.07-4.8c-11.33-8.17-22.89-20.92-32.43-36.75
	c-2.23-3.71-4.26-7.44-6.08-11.16c-1.78-3.61-3.37-7.22-4.75-10.77c-0.01-0.02-0.01-0.03-0.02-0.05c-0.25-1.04-0.47-2.07-0.69-3.08
	c-0.79-3.71-1.38-7.34-1.79-10.86c-0.01-0.05-0.01-0.11-0.02-0.16c-0.03,0.01-0.05,0.02-0.08,0.02v-0.19
	c0.02-0.01,0.04-0.01,0.06-0.02c0.01,0,0.03-0.01,0.04-0.01c0.01,0.06,0.01,0.13,0.02,0.19c0.01,0.05,0.01,0.1,0.02,0.16
	c0.41,3.41,0.99,6.92,1.75,10.51c0.22,1.01,0.44,2.04,0.69,3.08c0.03,0.07,0.06,0.16,0.09,0.24c1.17,2.99,2.49,6.01,3.94,9.05
	c0.24,0.51,0.49,1.02,0.74,1.53c1.82,3.72,3.85,7.45,6.08,11.16c10.73,17.81,24.02,31.71,36.66,39.6
	C244.86,218.66,243.52,219.58,241.97,220.79z"/>
<path class="st3" d="M244.36,226.4c-0.01,0.02-0.03,0.05-0.04,0.08c-0.07,0.09-0.14,0.21-0.25,0.37c-0.04,0.07-0.09,0.14-0.14,0.24
	c-0.03,0.05-0.07,0.1-0.11,0.16v0.01c-0.34,0.28-0.81,0.63-1.4,0.94c-0.07,0.04-0.15,0.08-0.24,0.12c-1.24,0.6-2.92,0.95-4.83,0.16
	c-0.66-0.27-0.89-0.71-0.82-1.26c0.06,0.38,0.32,0.69,0.82,0.9c1.91,0.79,3.59,0.44,4.83-0.16c0.09-0.04,0.17-0.08,0.24-0.12
	C243.49,227.28,244.18,226.58,244.36,226.4z"/>
<path class="st3" d="M274.97,202.23c-0.02,0.48-0.03,0.96-0.05,1.43c-0.01,0.24-0.02,0.47-0.03,0.7c-0.08,1.86-0.18,3.63-0.28,5.27
	c-0.02,0.35-0.04,0.68-0.06,1.01c-0.17,2.53-0.34,4.77-0.51,6.62c-0.02,0.25-0.04,0.48-0.06,0.71c-0.07,0.73-0.13,1.39-0.19,1.99
	c-0.02,0.16-0.04,0.32-0.05,0.48c-0.06,0.54-0.11,1.01-0.15,1.4c-0.02,0.12-0.03,0.23-0.04,0.33c-0.02,0.18-0.04,0.35-0.05,0.48
	c-0.01,0.04-0.01,0.08-0.02,0.12c-0.01,0.06-0.01,0.12-0.02,0.17c-0.01-0.03-0.02-0.05-0.03-0.08
	C273.43,222.86,274.5,214.32,274.97,202.23z"/>
<path class="st3" d="M275.21,231.35c0,4.1-1.52,8.34-5.92,12.07c-1.12,0.95-2.44,1.87-3.96,2.74c-4.22,2.41-7.75,3.56-10.68,3.83
	c-2.64,0.25-4.81-0.22-6.58-1.11c-5.94-2.99-7.45-10.78-7.59-12.78c-0.01-0.12-0.01-0.24,0-0.36c0.01,0.09,0.01,0.19,0.03,0.3
	c0.07,0.71,0.27,1.86,0.67,3.2c0.04,0.13,0.08,0.27,0.13,0.42c0.07,0.25,0.16,0.5,0.26,0.76c0.05,0.14,0.1,0.29,0.16,0.43
	c0.08,0.22,0.17,0.44,0.27,0.67c0.09,0.23,0.2,0.46,0.31,0.69c0.1,0.23,0.22,0.46,0.34,0.68c0.11,0.21,0.22,0.41,0.34,0.61
	c0.15,0.28,0.32,0.55,0.5,0.82c0.15,0.22,0.3,0.43,0.46,0.65c0.14,0.2,0.3,0.39,0.46,0.58c0.16,0.2,0.32,0.39,0.51,0.57
	c0.15,0.17,0.31,0.34,0.48,0.49c0.49,0.49,1.04,0.93,1.64,1.32c0.18,0.11,0.36,0.23,0.56,0.34c0.15,0.08,0.3,0.17,0.46,0.25
	c0.03,0.01,0.06,0.03,0.1,0.04c0.05,0.03,0.11,0.06,0.16,0.08c0.18,0.09,0.36,0.17,0.55,0.24c0.14,0.06,0.29,0.12,0.44,0.16
	c0.33,0.13,0.67,0.23,1.02,0.3c0.11,0.04,0.21,0.07,0.32,0.08c0.03,0.02,0.07,0.02,0.1,0.02c0.1,0.03,0.19,0.05,0.29,0.06
	c0.01,0.01,0.02,0.01,0.03,0c0.36,0.08,0.74,0.13,1.13,0.15c0.08,0.01,0.17,0.02,0.25,0.02c0.27,0.02,0.55,0.03,0.83,0.03
	c0.42,0,0.85-0.02,1.29-0.06c0.23-0.02,0.47-0.04,0.71-0.08c0.32-0.04,0.65-0.09,0.98-0.16c0.16-0.02,0.32-0.06,0.49-0.1
	c0.23-0.04,0.46-0.09,0.69-0.16c0.23-0.05,0.47-0.12,0.71-0.19c0.22-0.06,0.43-0.12,0.65-0.2c0.64-0.2,1.31-0.44,1.99-0.72
	c0.18-0.07,0.37-0.15,0.55-0.23c1.26-0.53,2.58-1.2,3.99-2c1.52-0.87,2.84-1.79,3.96-2.74c0.12-0.1,0.23-0.2,0.34-0.3
	C273.65,239.22,275.12,235.23,275.21,231.35z"/>
<path class="st3" d="M202.39,168.08c-1.78-3.61-3.37-7.22-4.75-10.77c-0.01-0.02-0.01-0.03-0.02-0.05
	c-0.25-1.04-0.47-2.07-0.69-3.08c-0.79-3.71-1.38-7.34-1.79-10.86c0.01,0,0.03-0.01,0.04-0.01c0.88-0.27,1.56-0.48,2.01-0.63
	c0.15,3.91,0.51,7.97,1.1,12.15c0.15,1.03,0.3,2.07,0.48,3.12c0.03,0.08,0.05,0.17,0.08,0.25c0.83,2.63,1.76,5.3,2.8,7.99
	C201.89,166.82,202.14,167.45,202.39,168.08z"/>
<path class="st3" d="M241.97,222.63c-0.36,0.21-2.63,1.55-4.81,3.17c0.82-1.22,2.36-2.64,3.86-3.88
	C241.34,222.17,241.65,222.4,241.97,222.63z"/>
<path class="st3" d="M265.33,138.58c-0.01-0.02-0.01-0.03-0.02-0.05c-0.01-0.02-0.01-0.04-0.02-0.05c0.86,1.41,1.71,2.84,2.54,4.31
	c0,0.01,0.01,0.02,0.01,0.03c0.81,1.94,1.53,3.99,2.17,6.11c-0.74-2.29-1.6-4.46-2.58-6.48
	C267.91,143.26,265.86,139.54,265.33,138.58z"/>
<path class="st3" d="M275.21,231.35c0,4.1-1.52,8.34-5.92,12.07c0.12-0.22,0.24-0.44,0.34-0.66
	C273.65,239.22,275.12,235.23,275.21,231.35z"/>
<path class="st3" d="M274.97,202.23c-0.02,0.48-0.03,0.96-0.05,1.43c-0.01,0.24-0.02,0.47-0.03,0.7c-0.08,1.86-0.18,3.63-0.28,5.27
	c-0.02,0.35-0.04,0.68-0.06,1.01c-0.17,2.53-0.34,4.77-0.51,6.62c-0.02,0.25-0.04,0.48-0.06,0.71c-0.07,0.73-0.13,1.39-0.19,1.99
	c-0.02,0.16-0.04,0.32-0.05,0.48c-0.06,0.54-0.11,1.01-0.15,1.4c-0.02,0.12-0.03,0.23-0.04,0.33c-0.02,0.18-0.04,0.35-0.05,0.48
	c-0.01,0.04-0.01,0.08-0.02,0.12c-0.01,0.06-0.01,0.12-0.02,0.17c-0.01-0.03-0.02-0.05-0.03-0.08
	C273.43,222.86,274.5,214.32,274.97,202.23z"/>
<path class="st1" d="M284.74,191.92c-1.41-13.25-6.05-28.58-13.86-43.83c-0.99-1.92-2-3.8-3.04-5.63c0.81,1.94,1.53,3.99,2.17,6.11
	c0.05,0.15,0.1,0.3,0.14,0.45c1,3.16,1.79,6.55,2.39,10.07c0.03,0.15,0.06,0.3,0.08,0.45c1.19,6.58,1.88,13.5,2.22,20.25
	c0.03,0.51,0.05,1.02,0.07,1.53c0.06,1.01,0.09,2,0.12,2.99c0.02,0.42,0.03,0.84,0.04,1.26c0.03,0.93,0.05,1.85,0.06,2.77
	c0.04,2.85,0.03,5.63-0.01,8.29c0,0.38-0.01,0.75-0.02,1.13c0,0.13,0,0.27-0.01,0.4l-0.03,1.32c-0.01,0.42-0.02,0.84-0.04,1.26v0.08
	c-0.01,0.35-0.02,0.7-0.04,1.05c0,0.12,0,0.24-0.01,0.36c-0.02,0.48-0.03,0.96-0.05,1.43c-0.01,0.24-0.02,0.47-0.03,0.7
	c-0.08,1.86-0.18,3.63-0.28,5.27c-0.02,0.35-0.04,0.68-0.06,1.01c-0.17,2.53-0.34,4.77-0.51,6.62c-0.02,0.25-0.04,0.48-0.06,0.71
	c-0.07,0.73-0.13,1.39-0.19,1.99c-0.02,0.16-0.04,0.32-0.05,0.48c-0.06,0.54-0.11,1.01-0.15,1.4c-0.02,0.12-0.03,0.23-0.04,0.33
	c-0.02,0.18-0.04,0.35-0.05,0.48c-0.01,0.04-0.01,0.08-0.02,0.12c-0.01,0.06-0.01,0.12-0.02,0.17v0.01
	c0.95,2.29,1.64,4.83,1.73,7.47c0.01,0.21,0.02,0.41,0.02,0.61v0.32c0,4.1-1.52,8.34-5.92,12.07c-1.12,0.95-2.44,1.87-3.96,2.74
	c-20.73,11.86-24.63-6.8-24.85-10.06c-0.01-0.12-0.01-0.24,0-0.36v-0.07c-0.02-0.3-0.01-0.63,0.06-0.97
	c0.03-0.19,0.05-0.37,0.1-0.56c0.03-0.13,0.06-0.27,0.1-0.4c0.04-0.12,0.07-0.24,0.11-0.37c0.49-1.6,1.37-3.36,2.14-4.71
	c0.06-0.11,0.12-0.21,0.18-0.32c0.03-0.04,0.05-0.08,0.07-0.12c0.15-0.25,0.29-0.48,0.42-0.69c0.01-0.03,0.03-0.05,0.04-0.09
	c0.04-0.06,0.08-0.12,0.12-0.18c-0.34,0.28-0.81,0.63-1.4,0.94c-0.07,0.04-0.15,0.08-0.24,0.12c-1.24,0.6-2.92,0.95-4.83,0.16
	c-0.66-0.27-0.89-0.71-0.82-1.26c0,0,0,0,0-0.01c-0.07-0.5,0.18-1.1,0.63-1.77c0.82-1.22,2.36-2.64,3.86-3.88
	c0.32-0.26,0.64-0.52,0.95-0.77c0.89-1.58,0.51-3.66-1.07-4.8c-11.33-8.17-22.89-20.92-32.43-36.75c-2.23-3.71-4.26-7.44-6.08-11.16
	c-1.78-3.61-3.37-7.22-4.75-10.77c-0.01-0.02-0.01-0.03-0.02-0.05c-0.25-1.04-0.47-2.07-0.69-3.08c-0.79-3.71-1.38-7.34-1.79-10.86
	c-0.01-0.05-0.01-0.11-0.02-0.16c-0.03,0.01-0.05,0.02-0.08,0.02v-0.19c0-0.15,0-0.3,0.01-0.46c-0.02-0.13-0.04-0.27-0.05-0.4
	c-2.42-22.67,2.78-40.65,14.98-45.48c0.64-0.25,1.31-0.47,1.98-0.65c0.31,0.01,0.63,0.03,0.96,0.06c1.32,0.1,2.67,0.3,4.06,0.61
	c0.01,0,0.01,0,0.02,0.01c0.01,0,0.01,0,0.02,0c0.18,0.03,0.36,0.08,0.54,0.13c-0.18-0.11-0.37-0.21-0.55-0.31
	c-6.11-3.51-12.51-6.51-19.14-8.96c-0.04-0.02-0.09-0.03-0.13-0.05c-0.87-0.32-1.74-0.63-2.61-0.93c-0.06-0.03-0.13-0.05-0.19-0.06
	c-1.76-0.61-3.53-1.18-5.33-1.71c-2.64-0.69-5.21-1.3-7.65-1.82c-0.03-0.01-0.06-0.02-0.08-0.02c-0.44-0.09-0.88-0.19-1.31-0.28
	c-2.85-0.58-5.5-1.06-7.85-1.44c-0.26-0.04-0.52-0.08-0.77-0.12c-3.29-0.52-5.92-0.84-7.55-1.02c-0.64-0.06-1.27-0.11-1.91-0.14
	c-0.07,0.05-0.14,0.11-0.21,0.16c-0.18,0.14-0.36,0.27-0.54,0.41c-0.81,0.82-1.66,1.6-2.55,2.33c-6.97,5.88-15.97,9.42-25.81,9.42
	c-2.24,0-4.44-0.18-6.58-0.54c-0.07-0.01-0.14-0.02-0.21-0.03c-3.95-0.68-7.7-1.93-11.17-3.68h-0.01c-0.73-0.35-1.45-0.74-2.15-1.15
	c-0.13-0.07-0.25-0.15-0.37-0.23c-0.06-0.02-0.11-0.05-0.16-0.09c-0.58-0.34-1.16-0.71-1.72-1.1c-2.5,0.87-3.8,2.42-5.75,3.71
	c-0.12,0.08-0.25,0.16-0.38,0.23c-0.01,0.01-0.03,0.02-0.04,0.03c-0.41,0.25-0.85,0.49-1.34,0.7c-0.03,0.01-0.07,0.03-0.1,0.04
	c-5.38,2.33-10.6,5.04-15.61,8.09c-1.03,0.63-2.06,1.27-3.07,1.93c-0.11,0.07-0.23,0.15-0.34,0.23c0.1-0.03,0.21-0.04,0.31-0.06
	c-10.29,6.63-19.67,14.7-27.9,23.93c-0.21,0.24-0.42,0.48-0.63,0.72c-3.99,4.54-7.71,9.36-11.12,14.42
	c-0.03,0.04-0.06,0.09-0.09,0.13c-0.03,0.05-0.06,0.09-0.09,0.14c-11.69,17.44-19.8,37.8-23.16,59.87l-1.4,12.73
	c-0.17,2.57-0.28,5.17-0.33,7.78c-0.01,0.75-0.02,1.5-0.02,2.25c0,0.49,0,0.97,0.01,1.46c0.06,5.75,0.43,11.43,1.11,17
	c1.9,15.79,6.23,30.77,12.57,44.5c0,0,1.1,0.53,3.1,1.52c0.25,0.13,0.51,0.25,0.78,0.37c0.43,0.19,0.88,0.39,1.37,0.59
	c-1.07-0.36-2.07-0.72-2.97-1.1c0.24,0.14,0.5,0.3,0.78,0.48c-0.04-0.02-0.07-0.04-0.1-0.05c-0.96-0.44-1.87-0.88-2.73-1.33
	c-0.15-0.08-0.23-0.12-0.23-0.12c14.59,55.16,49.98,97.36,93.7,110.07c-7.9,2.43-13.24,6.75-12.57,10.69
	c0.81,4.78,10.2,7.18,20.97,5.35c3.99-0.67,7.61-1.83,10.54-3.28c0.09-0.16,0.18-0.33,0.28-0.49l9.1-8.24
	c-0.65,0.41-1.27,0.82-1.86,1.24c0.04-0.41,0.04-0.8-0.03-1.2c-0.01-0.04-0.01-0.08-0.03-0.12c0.42,0.01,0.85,0.01,1.27,0.01
	c0.25,0,0.49,0,0.74-0.01l0.7-0.63c-0.15-0.09-0.3-0.18-0.45-0.28c-0.23-0.15-0.45-0.3-0.67-0.46c-0.39-0.28-0.75-0.7-1.11-1.18
	c-1.01-0.81-2-1.72-2.99-2.74c-0.01-0.01-0.02-0.03-0.03-0.04c-4.78-4.94-9.23-12.21-13.1-20.07c2.54,4.48,5.56,9.15,9.15,13.92
	c0,0.01,0,0.02,0.01,0.03c1.29,1.71,2.64,3.43,4.08,5.17c0.05-0.38,0.11-0.72,0.11-0.72c0.66,0.8,1.29,2.03,1.96,3.16
	c0,0.01,0.01,0.01,0.01,0.01c0.55,0.65,1.12,1.3,1.7,1.95c0,0,0.01,0,0.02,0.01c0.06,0.05,0.13,0.09,0.19,0.14
	c0.22,0.16,0.44,0.31,0.67,0.46c0.22,0.15,0.45,0.29,0.68,0.43l-0.23,0.21c0.07,0.06,0.15,0.1,0.23,0.15l-10.12,9.16
	c-0.09,0.05-0.19,0.09-0.28,0.13c-1.18,2.2-1.49,4.3-0.7,6.02c2.29,4.97,12.84,4.99,23.58,0.05c10.73-4.94,17.57-12.97,15.29-17.94
	c-0.26-0.56-0.62-1.05-1.07-1.46c34.93-10.43,64.49-39.71,82.26-79.37c2.37-5.27,4.52-10.73,6.46-16.35
	c2.99-8.73,5.45-17.86,7.32-27.31c5.41-15.51,8.36-32.28,8.36-49.79C287.78,211.89,286.73,201.71,284.74,191.92z M37.52,287.53
	c-0.27-0.12-0.53-0.24-0.78-0.37c1.78,0.82,3.72,1.63,5.81,2.45C40.75,288.94,39.07,288.26,37.52,287.53z M71.34,139.12
	c-0.4,4.36-10.38,3.65-13.05,3.38c-0.23-0.02-0.4-0.04-0.52-0.05c0.02-0.05,0.03-0.09,0.04-0.14c0.55-2.64,2.88-12.34,7.15-11.41
	c4.27,0.94,2.54,4.1,2.01,4.94l0.04-0.04C67.01,135.8,71.8,134.09,71.34,139.12z M87.58,153.23l-0.36-0.06
	c0.04-0.03,0.08-0.05,0.12-0.07c0.11-0.07,0.21-0.13,0.31-0.19c0.01,0.01,0.03,0.01,0.04,0.01
	C87.65,153.03,87.62,153.13,87.58,153.23z M94.4,169.86c-0.23,0.09-0.48,0.19-0.77,0.29c0.17-0.09,0.33-0.19,0.49-0.3h0.3
	C94.41,169.86,94.41,169.86,94.4,169.86z M124.68,336.87c-0.57-2.7-0.82-4.64-0.68-5.52c0.01-0.07,0.02-0.13,0.05-0.19
	c0.03,0.03,0.07,0.05,0.1,0.08c0.02,0.02,0.05,0.03,0.07,0.06c0.31-0.22,1.08-0.69,2.26-1.38c-1.28,0.84-2.01,1.36-2.11,1.49
	c0,0,0,2.7,0.75,7.38C124.96,338.12,124.81,337.47,124.68,336.87z M125.13,338.82c2.06,8.61,6.75,22.78,12.95,35.4
	C129.6,359.29,126.36,346.45,125.13,338.82z M243.7,302.66c0.01,0.02,0.02,0.04,0.03,0.07c0.6,1.35,2.65,6.39,0.46,7.34
	c-2.19,0.94-2.43-1.01-2.46-1.55l-0.01,0.02c0,0-1.58,2.29-2.98-0.09c-1.21-2.06,3.45-4.92,4.72-5.65
	C243.57,302.73,243.65,302.69,243.7,302.66z M235.32,296.44c0-0.01,0-0.01,0-0.02c0.12-0.44,0.3-0.85,0.53-1.21
	c0.64-1.04,1.69-1.72,2.88-1.72c1.98,0,3.57,1.87,3.57,4.17s-1.59,4.17-3.57,4.17c-1.97,0-3.57-1.87-3.57-4.17
	C235.16,297.24,235.21,296.83,235.32,296.44z M246.61,317.43l-0.09,0.14c-0.67,1.05-1.89,1.62-3.13,1.45l-2.27-0.29v-0.01
	l-2.59-0.35v0.04l-2.85-0.42c-1.31-0.17-2.38-1.12-2.7-2.4c-0.07-0.27-0.1-0.53-0.1-0.79c0-1.81,1.53-3.34,3.44-3.21
	c1.37,0.1,2.93,0.24,4.5,0.42l1.28,0.07l-0.01,0.08c0.82,0.11,1.63,0.23,2.4,0.37C246.74,312.92,247.85,315.51,246.61,317.43z
	 M252.99,304.33c-2.2,0-3.98-2.08-3.98-4.64c0-2.57,1.78-4.65,3.98-4.65c2.2,0,3.99,2.08,3.99,4.65
	C256.98,302.25,255.19,304.33,252.99,304.33z"/>
<path class="st1" d="M71.34,139.12c-0.4,4.36-10.38,3.65-13.05,3.38c-0.23-0.02-0.4-0.04-0.52-0.05c0.02-0.05,0.03-0.09,0.04-0.14
	c0.55-2.64,2.88-12.34,7.15-11.41c4.27,0.94,2.54,4.1,2.01,4.94l0.04-0.04C67.01,135.8,71.8,134.09,71.34,139.12z"/>
<path class="st1" d="M84.69,100.35c-10.29,6.63-19.67,14.7-27.9,23.93c-0.21,0.24-0.42,0.48-0.63,0.72
	c-3.99,4.54-7.71,9.36-11.12,14.42c-0.03,0.04-0.06,0.09-0.09,0.13c-0.02-0.01-0.04-0.02-0.06-0.03c0.03-0.04,0.06-0.09,0.09-0.13
	c0.12-0.17,0.24-0.35,0.35-0.52c0.01-0.01,0.01-0.02,0.02-0.03c3.33-4.91,6.96-9.6,10.84-14.01c0.21-0.24,0.42-0.48,0.63-0.72
	c4.93-5.53,10.27-10.64,15.98-15.28c3.71-3.02,7.58-5.83,11.58-8.42C84.48,100.38,84.59,100.37,84.69,100.35z"/>
<path class="st1" d="M84.24,157c0.01-0.02,0.02-0.05,0.03-0.07c-0.04,0.11-0.08,0.21-0.12,0.33C84.17,157.17,84.2,157.08,84.24,157z
	"/>
<path class="st1" d="M87.69,152.92c-0.04,0.11-0.07,0.21-0.11,0.31l-0.36-0.06c0.04-0.03,0.08-0.05,0.12-0.07
	C87.47,153.03,87.59,152.97,87.69,152.92z"/>
<path class="st1" d="M94.42,169.85c-0.01,0.01-0.01,0.01-0.02,0.01c-0.23,0.09-0.48,0.19-0.77,0.29c0.17-0.09,0.33-0.19,0.49-0.3
	H94.42z"/>
<path class="st1" d="M161.74,80.52c-0.81,0.82-1.66,1.6-2.55,2.33c-6.97,5.88-15.97,9.42-25.81,9.42c-2.24,0-4.44-0.18-6.58-0.54
	c-0.07-0.01-0.14-0.02-0.21-0.03c-3.95-0.68-7.7-1.93-11.17-3.68h-0.01c-0.73-0.35-1.45-0.74-2.15-1.15
	c-0.13-0.07-0.25-0.15-0.37-0.23c-0.06-0.02-0.11-0.05-0.16-0.09c-0.58-0.34-1.16-0.71-1.72-1.1c0.01,0,0.03-0.01,0.04-0.01
	c0.24,0.15,0.95,0.58,2.01,1.14c1.15,0.61,2.73,1.37,4.58,2.11c0.01,0.01,0.02,0.01,0.04,0.01c2.57,1.04,5.69,2.02,8.94,2.47
	l0.21,0.03c1.56,0.27,3.15,0.42,4.77,0.5c0.12,0.01,0.24,0.01,0.36,0.01c0.48,0.02,0.96,0.03,1.45,0.03
	c9.34,0,17.93-3.19,24.74-8.55c0.03-0.02,0.05-0.04,0.07-0.05c0.34-0.27,0.67-0.54,1-0.82C160.05,81.76,160.89,81.15,161.74,80.52z"
	/>
<path class="st1" d="M195.16,143.15c-0.01,0.01-0.03,0.01-0.04,0.01c-0.03,0.01-0.05,0.02-0.08,0.02v-0.19c0-0.15,0-0.3,0.01-0.46
	c0.01,0.15,0.03,0.29,0.05,0.44c0.01,0,0.03-0.01,0.04-0.01C195.15,143.02,195.15,143.09,195.16,143.15z"/>
<g class="st4">
	<path class="st5" d="M159.19,82.49c-6.97,5.88-15.97,9.42-25.81,9.42c-2.24,0-4.44-0.18-6.58-0.54
		C135.03,92.46,146.35,91.28,159.19,82.49z"/>
	<path class="st6" d="M159.19,82.49c-2.14,1.94-4.53,3.62-7.06,5.05c-2.55,1.39-5.26,2.51-8.06,3.33c-2.8,0.82-5.71,1.27-8.62,1.44
		c-2.92,0.17-5.85,0.02-8.74-0.45l0.15-0.99c2.8,0.37,5.64,0.45,8.47,0.24c2.83-0.22,5.62-0.78,8.36-1.52
		c2.74-0.76,5.42-1.75,7.99-2.98c1.29-0.61,2.58-1.23,3.81-1.94C156.72,84,158.05,83.21,159.19,82.49z M159.19,82.49
		c-0.62,0.4-1.22,0.84-1.78,1.25c-0.55,0.41-1.18,0.78-1.78,1.16c-1.2,0.78-2.47,1.47-3.73,2.15c-2.55,1.33-5.23,2.42-7.99,3.28
		c-5.52,1.72-11.41,2.25-17.17,1.53l0.15-0.99c2.81,0.48,5.68,0.66,8.53,0.52c2.85-0.13,5.69-0.59,8.46-1.28
		c2.77-0.72,5.46-1.74,8.03-3.02C154.48,85.84,156.9,84.26,159.19,82.49z"/>
</g>
<path class="st1" d="M267.43,142.45c0.98,2.02,1.84,4.19,2.58,6.48c-0.64-2.12-1.36-4.17-2.17-6.11c0-0.01-0.01-0.02-0.01-0.03
	c-0.83-1.47-1.68-2.9-2.54-4.31c0.01,0.01,0.01,0.03,0.02,0.05c0.01,0.02,0.01,0.03,0.02,0.05
	C265.86,139.54,267.91,143.26,267.43,142.45z M273.43,222.86c0.01,0.03,0.02,0.05,0.03,0.08c0.01-0.05,0.01-0.11,0.02-0.17
	c0.01-0.04,0.01-0.08,0.02-0.12c0.01-0.13,0.03-0.3,0.05-0.48c0.01-0.1,0.02-0.21,0.04-0.33c0.04-0.39,0.09-0.86,0.15-1.4
	c0.01-0.16,0.03-0.32,0.05-0.48c0.06-0.6,0.12-1.26,0.19-1.99c0.02-0.23,0.04-0.46,0.06-0.71c0.17-1.85,0.34-4.09,0.51-6.62
	c0.02-0.33,0.04-0.66,0.06-1.01c0.1-1.64,0.2-3.41,0.28-5.27c0.01-0.23,0.02-0.46,0.03-0.7c0.02-0.47,0.03-0.95,0.05-1.43
	C274.5,214.32,273.43,222.86,273.43,222.86z M269.63,242.76c-0.1,0.22-0.22,0.44-0.34,0.66c4.4-3.73,5.92-7.97,5.92-12.07
	C275.12,235.23,273.65,239.22,269.63,242.76z M245.13,218.48c-7.94-4.95-16.11-12.26-23.77-21.43c0,0,0-0.01-0.01-0.02
	c-4.54-5.44-8.89-11.53-12.88-18.15c-2.23-3.71-4.26-7.44-6.08-11.16c-0.25-0.51-0.5-1.02-0.74-1.53c-1.04-2.69-1.97-5.36-2.8-7.99
	c-0.03-0.08-0.05-0.17-0.08-0.25c-0.18-1.05-0.33-2.09-0.48-3.12c-0.59-4.18-0.95-8.24-1.1-12.15c-0.45,0.15-1.13,0.36-2.01,0.63
	c-0.01-0.06-0.01-0.11-0.02-0.16c-0.01-0.06-0.01-0.13-0.02-0.19c-0.01,0-0.03,0.01-0.04,0.01c0,0.06,0.01,0.12,0.02,0.19
	c0.01,0.05,0.01,0.11,0.02,0.16c0.41,3.52,1,7.15,1.79,10.86c0.22,1.01,0.44,2.04,0.69,3.08c0.01,0.02,0.01,0.03,0.02,0.05
	c1.38,3.55,2.97,7.16,4.75,10.77c1.82,3.72,3.85,7.45,6.08,11.16c4.05,6.73,8.47,12.9,13.08,18.39
	c6.24,7.45,12.83,13.66,19.35,18.36c1.58,1.14,1.96,3.22,1.07,4.8C243.52,219.58,244.86,218.66,245.13,218.48z"/>
<path class="st1" d="M275.19,230.42c-0.02-0.2-0.03-0.4-0.05-0.6c-0.02-0.24-0.05-0.48-0.08-0.71c-0.27-2.07-0.87-4.07-1.63-5.89
	c0,0,0.01-0.09,0.03-0.27v-0.01c-0.01-0.03-0.02-0.05-0.03-0.08c0,0,1.07-8.54,1.54-20.63c0.01-0.12,0.01-0.24,0.01-0.36
	c0.02-0.35,0.03-0.7,0.04-1.05v-0.08c0.02-0.42,0.03-0.84,0.04-1.26l0.03-1.32c0.01-0.13,0.01-0.27,0.01-0.4
	c0.01-0.38,0.02-0.75,0.02-1.13c0.04-2.66,0.05-5.44,0.01-8.29c-0.01-0.92-0.03-1.84-0.06-2.77c-0.01-0.42-0.02-0.84-0.04-1.26
	c-0.03-0.99-0.07-1.99-0.12-2.99c-0.02-0.51-0.04-1.02-0.07-1.53c-0.03-0.51-0.06-1.02-0.09-1.53c-0.04-0.75-0.09-1.5-0.16-2.26
	c-0.08-1.3-0.19-2.6-0.32-3.9c-0.06-0.69-0.13-1.37-0.21-2.06c-0.07-0.68-0.15-1.36-0.23-2.05c-0.08-0.68-0.17-1.36-0.26-2.04
	c-0.09-0.68-0.19-1.36-0.29-2.03c-0.1-0.66-0.2-1.32-0.3-1.98c-0.12-0.68-0.24-1.36-0.36-2.04c-0.02-0.15-0.05-0.3-0.08-0.45
	c-0.64-3.48-1.43-6.86-2.39-10.07c-0.04-0.15-0.09-0.3-0.14-0.45c-0.74-2.29-1.6-4.46-2.58-6.48c0.48,0.81-1.57-2.91-2.1-3.87
	c-0.01-0.02-0.01-0.03-0.02-0.05c-0.01-0.02-0.01-0.04-0.02-0.05c0.86,1.41,1.71,2.84,2.54,4.31c-0.83-2.01-1.75-3.92-2.77-5.69
	c0.02,0.03,0.03,0.05,0.06,0.07c-0.21-0.35-1.92-3-2.42-3.78c-0.01-0.02-0.01-0.03-0.02-0.05c-0.01-0.02-0.04-0.04-0.04-0.06
	c-0.02-0.04-0.04-0.07-0.05-0.09c-0.01,0-0.02-0.01-0.03-0.02c-4.15-5.81-8.54-11.07-13.03-15.69c-1.04-1.07-2.08-2.1-3.13-3.1
	c-0.08-0.07-0.15-0.15-0.23-0.22c-0.77-0.73-1.54-1.44-2.32-2.12c-2.77-2.47-5.56-4.69-8.33-6.62c-0.11-0.07-0.21-0.15-0.32-0.22
	c-0.7-0.5-1.41-0.97-2.11-1.42c-0.11-0.07-0.21-0.14-0.32-0.21c-0.18-0.11-0.36-0.23-0.54-0.34c-0.11-0.07-0.22-0.13-0.32-0.2
	c-2.41-1.48-4.79-2.74-7.13-3.77c-0.13-0.05-0.25-0.11-0.37-0.16c-0.08-0.04-0.17-0.07-0.25-0.11c0,0,0,0-0.01,0
	c-1.52-0.64-3.01-1.18-4.48-1.62h-0.01c-0.59-0.18-1.18-0.34-1.76-0.48h-0.01c-0.11-0.04-0.22-0.06-0.33-0.08
	c-0.18-0.05-0.36-0.1-0.54-0.13c-0.01,0-0.01,0-0.02,0c-0.01-0.01-0.01-0.01-0.02-0.01c-1.39-0.31-2.74-0.51-4.06-0.61
	c-0.33-0.03-0.65-0.05-0.96-0.06c-0.67,0.18-1.34,0.4-1.98,0.65c-12.2,4.83-17.4,22.81-14.98,45.48c0.01,0.13,0.03,0.27,0.05,0.4
	c0.01,0.15,0.03,0.29,0.05,0.44c0.01,0,0.03-0.01,0.04-0.01c0.01,0.06,0.01,0.13,0.02,0.19c0.01,0.05,0.01,0.1,0.02,0.16
	c0.88-0.27,1.56-0.48,2.01-0.63c0.15,3.91,0.51,7.97,1.1,12.15c0.15,1.03,0.3,2.07,0.48,3.12c0.03,0.08,0.05,0.17,0.08,0.25
	c0.83,2.63,1.76,5.3,2.8,7.99c0.24,0.51,0.49,1.02,0.74,1.53c1.82,3.72,3.85,7.45,6.08,11.16c3.99,6.62,8.34,12.71,12.88,18.15
	c0.01,0.01,0.01,0.02,0.01,0.02c7.66,9.17,15.83,16.48,23.77,21.43c-0.27,0.18-1.61,1.1-3.16,2.31c-0.21,0.4-0.51,0.77-0.89,1.08
	c-0.02,0.02-0.04,0.03-0.06,0.05c0.32,0.25,0.63,0.48,0.95,0.71c-0.36,0.21-2.63,1.55-4.81,3.17c-0.35,0.51-0.57,0.99-0.63,1.41
	c0,0.01,0,0.01,0,0.01c0.06,0.38,0.32,0.69,0.82,0.9c1.91,0.79,3.59,0.44,4.83-0.16c0.09-0.04,0.17-0.08,0.24-0.12
	c1.07-0.56,1.76-1.26,1.94-1.44c-0.01,0.02-0.03,0.05-0.04,0.08c-0.07,0.09-0.14,0.21-0.25,0.37c-0.04,0.07-0.09,0.14-0.14,0.24
	c-0.03,0.05-0.07,0.1-0.11,0.16c0.28-0.22,0.46-0.41,0.54-0.49c-0.01,0.02-0.03,0.05-0.04,0.08c-0.07,0.09-0.14,0.21-0.25,0.37
	c-0.04,0.07-0.09,0.14-0.14,0.24c-0.07,0.1-0.15,0.23-0.23,0.35c-0.01,0.04-0.03,0.06-0.04,0.09c-0.13,0.21-0.27,0.44-0.42,0.69
	c-0.02,0.04-0.04,0.08-0.07,0.12c-0.06,0.11-0.12,0.21-0.18,0.32c-0.77,1.35-1.65,3.11-2.14,4.71c-0.04,0.13-0.07,0.25-0.11,0.37
	c-0.04,0.13-0.07,0.27-0.1,0.4c-0.05,0.19-0.07,0.37-0.1,0.56c-0.04,0.21-0.06,0.42-0.06,0.61v0.07c0.01,0.09,0.02,0.19,0.03,0.3
	c0.07,0.71,0.27,1.86,0.67,3.2c0.04,0.14,0.08,0.28,0.13,0.42c0.07,0.25,0.16,0.5,0.26,0.76c0.05,0.14,0.1,0.29,0.16,0.43
	c0.08,0.22,0.17,0.45,0.27,0.67c0.1,0.23,0.2,0.46,0.31,0.69c0.1,0.23,0.22,0.46,0.34,0.68c0.11,0.2,0.22,0.41,0.34,0.61
	c0.15,0.28,0.32,0.55,0.5,0.82c0.15,0.22,0.3,0.44,0.46,0.65c0.15,0.2,0.3,0.39,0.46,0.58c0.16,0.2,0.33,0.39,0.51,0.57
	c0.15,0.17,0.31,0.33,0.48,0.49c0.49,0.49,1.04,0.93,1.64,1.32c0.18,0.11,0.36,0.23,0.56,0.34c0.15,0.08,0.3,0.17,0.46,0.25
	c0.03,0.01,0.06,0.03,0.1,0.04c0.05,0.03,0.11,0.06,0.16,0.08c0.18,0.09,0.36,0.17,0.55,0.24c0.14,0.06,0.29,0.11,0.44,0.16
	c0.33,0.13,0.67,0.23,1.02,0.3c0.1,0.03,0.21,0.06,0.32,0.08c0.03,0.02,0.07,0.02,0.1,0.02c0.1,0.03,0.19,0.05,0.29,0.06
	c0.01,0.01,0.02,0.01,0.03,0c0.36,0.08,0.74,0.13,1.13,0.15c0.08,0.01,0.16,0.02,0.25,0.02c0.27,0.02,0.55,0.03,0.83,0.03
	c0.41,0,0.85-0.02,1.29-0.06c0.23-0.02,0.47-0.05,0.71-0.08c0.32-0.04,0.65-0.09,0.98-0.16c0.16-0.03,0.33-0.06,0.49-0.1
	c0.23-0.04,0.46-0.09,0.69-0.16c0.23-0.06,0.47-0.12,0.71-0.19c0.21-0.06,0.43-0.13,0.65-0.2c0.64-0.2,1.31-0.44,1.99-0.72
	c0.18-0.07,0.36-0.15,0.55-0.23c1.26-0.53,2.58-1.2,3.99-2c1.52-0.87,2.84-1.79,3.96-2.74c0.12-0.1,0.23-0.2,0.34-0.3
	c4.02-3.54,5.49-7.53,5.58-11.41v-0.32C275.21,230.83,275.2,230.63,275.19,230.42z M232.04,138.78c-0.01,0.04-0.02,0.07-0.01,0.08
	c0,0.02,0,0.04-0.01,0.05c-0.01,0.04-0.06,0.06-0.14,0.07c-0.12,0.02-0.26,0.01-0.41-0.04c-0.06-0.02-0.11-0.04-0.14-0.07
	c-0.03-0.03-0.03-0.09,0-0.19l0.02-0.05c-0.14,0.07-0.3,0.07-0.5,0.01l-0.09-0.03c-0.79-0.32-1.05-0.93-0.78-1.84
	c0.11-0.37,0.3-0.78,0.59-1.24c0.33-0.55,0.62-0.95,0.86-1.19c0.24-0.25,0.47-0.39,0.67-0.42c0.17-0.03,0.33-0.01,0.51,0.04
	l0.14,0.05c0.38,0.16,0.62,0.39,0.72,0.67c0.11,0.29,0.12,0.56,0.05,0.82c-0.08,0.27-0.2,0.47-0.36,0.59
	c-0.04,0.02-0.09,0.02-0.17,0c-0.03-0.01-0.09-0.04-0.17-0.07c-0.08-0.04-0.17-0.1-0.29-0.18c-0.11-0.08-0.18-0.14-0.2-0.18
	c0-0.02,0-0.04,0.01-0.07c0.01-0.03,0.05-0.11,0.11-0.24c0.08-0.14,0.13-0.25,0.16-0.33c0.02-0.08,0.02-0.14-0.01-0.17
	c-0.05-0.01-0.17,0.11-0.37,0.37c-0.21,0.26-0.42,0.57-0.66,0.94c-0.33,0.54-0.55,0.96-0.64,1.27c-0.09,0.3-0.05,0.48,0.12,0.53
	c0.1,0.03,0.23-0.01,0.39-0.11c0.16-0.11,0.31-0.25,0.47-0.42l-0.33-0.05l-0.1-0.03c-0.11-0.04-0.17-0.07-0.17-0.1
	c-0.01-0.03,0-0.08,0.02-0.14c0.04-0.13,0.09-0.25,0.16-0.36c0.05-0.09,0.1-0.12,0.15-0.11l0.16,0.03c0.17,0.03,0.34,0.08,0.52,0.13
	c0.28,0.08,0.45,0.16,0.51,0.23c0.02,0.04,0.01,0.1-0.01,0.19c-0.05,0.15-0.19,0.44-0.44,0.87
	C232.18,138.47,232.06,138.7,232.04,138.78z M235.63,139.53c-0.09,0.13-0.21,0.22-0.34,0.27c-0.13,0.04-0.24,0.05-0.33,0.02
	c-0.22-0.06-0.55-0.6-0.97-1.6c-0.24,0.5-0.39,0.85-0.47,1.04c-0.03,0.1-0.18,0.11-0.43,0.03c-0.16-0.05-0.3-0.11-0.42-0.19
	c-0.11-0.08-0.16-0.15-0.15-0.21c0.08-0.26,0.58-1.38,1.51-3.38l0.39-0.85c0.05-0.06,0.17-0.07,0.38-0.04
	c0.2,0.03,0.35,0.06,0.46,0.1c0.71,0.21,1.17,0.55,1.39,1.04c0.15,0.32,0.17,0.68,0.05,1.08c-0.03,0.11-0.07,0.21-0.12,0.33
	c-0.31,0.61-0.79,0.99-1.45,1.16c0.39,0.61,0.57,1,0.52,1.17L235.63,139.53z M238.07,140.73l-0.22-0.06
	c-0.22-0.05-0.42-0.1-0.6-0.15l-0.33-0.1c-0.79-0.23-1.16-0.43-1.11-0.6c0.06-0.19,0.34-0.85,0.84-1.97c0.33-0.74,0.66-1.48,1-2.21
	c0.05-0.09,0.23-0.09,0.51,0c0.29,0.08,0.45,0.17,0.49,0.27c0.01,0.03,0,0.09-0.03,0.2c-0.12,0.41-0.54,1.39-1.25,2.93
	c-0.08,0.17-0.15,0.33-0.21,0.48l1.21,0.33c0.11,0.04,0.17,0.13,0.18,0.25c0.01,0.12,0,0.22-0.02,0.29
	C238.45,140.67,238.29,140.78,238.07,140.73z M241.54,139.97c-0.46,0.2-0.9,0.23-1.33,0.11c-0.07-0.03-0.15-0.05-0.22-0.08
	c-0.24,0.5-0.39,0.85-0.47,1.04c-0.04,0.09-0.18,0.1-0.43,0.03c-0.17-0.05-0.31-0.12-0.43-0.21c-0.11-0.07-0.15-0.14-0.13-0.22
	c0.06-0.2,0.35-0.85,0.86-1.97c0.22-0.5,0.44-0.96,0.63-1.38c0.2-0.42,0.33-0.7,0.4-0.85c0.05-0.06,0.17-0.07,0.38-0.04
	c0.2,0.03,0.35,0.06,0.45,0.09c0.71,0.21,1.18,0.56,1.4,1.05c0.15,0.31,0.16,0.67,0.04,1.07
	C242.5,139.26,242.11,139.71,241.54,139.97z M245.39,142.94c-0.18-0.05-0.33-0.11-0.45-0.17c-0.13-0.07-0.19-0.12-0.19-0.16
	c0.03-0.16,0.1-0.75,0.2-1.79c-0.48,0.89-0.75,1.42-0.83,1.6c-0.04,0.08-0.3,0.06-0.77-0.08c-0.47-0.14-0.7-0.27-0.71-0.38
	c0.02-0.47,0.11-1.31,0.25-2.51c0.11-1.05,0.22-1.72,0.3-2.02c0.02-0.06,0.04-0.11,0.07-0.13c0.05-0.04,0.15-0.05,0.31-0.04
	c0.12,0.01,0.23,0.03,0.34,0.06c0.03,0.01,0.09,0.04,0.18,0.07c0.08,0.03,0.13,0.09,0.13,0.17c-0.08,0.8-0.23,1.95-0.44,3.46
	c0.15-0.32,0.42-0.87,0.81-1.65c0.48-0.95,0.73-1.44,0.76-1.49c0.04-0.04,0.12-0.06,0.24-0.05c0.09,0.01,0.17,0.02,0.25,0.05
	c0.05,0.01,0.12,0.04,0.22,0.08c0.09,0.04,0.15,0.12,0.2,0.23c-0.02,0.15-0.09,0.69-0.23,1.62c-0.16,1.08-0.25,1.68-0.27,1.8
	c0.68-1.56,1.17-2.61,1.44-3.17c0.06-0.08,0.18-0.08,0.39-0.02c0.11,0.03,0.22,0.08,0.34,0.14c0.13,0.07,0.2,0.13,0.22,0.19
	c0,0.03-0.01,0.07-0.02,0.13c-0.1,0.33-0.55,1.25-1.34,2.77c-0.33,0.62-0.55,1.06-0.65,1.29
	C246.06,143.07,245.81,143.07,245.39,142.94z M247.36,143.53c-0.17-0.05-0.31-0.12-0.42-0.2c-0.12-0.08-0.17-0.15-0.15-0.21
	c0.08-0.26,0.58-1.38,1.51-3.38l0.39-0.85c0.05-0.06,0.17-0.07,0.37-0.04c0.21,0.03,0.36,0.07,0.47,0.1
	c0.7,0.21,1.17,0.56,1.39,1.05c0.15,0.31,0.16,0.67,0.04,1.08c-0.03,0.1-0.07,0.21-0.11,0.32c-0.31,0.61-0.79,1-1.45,1.16
	c0.39,0.61,0.56,1,0.51,1.17l-0.02,0.04c-0.09,0.13-0.2,0.21-0.33,0.26c-0.14,0.04-0.25,0.05-0.34,0.03
	c-0.21-0.07-0.54-0.6-0.96-1.61c-0.24,0.51-0.4,0.86-0.47,1.04C247.75,143.59,247.61,143.6,247.36,143.53z"/>
<path class="st1" d="M233.52,135.5c-0.08,0.27-0.2,0.47-0.36,0.59c-0.04,0.02-0.09,0.02-0.17,0c-0.03-0.01-0.09-0.04-0.17-0.07
	c-0.08-0.04-0.17-0.1-0.29-0.18c-0.11-0.08-0.18-0.14-0.2-0.18c0-0.02,0-0.04,0.01-0.07c0.01-0.03,0.05-0.11,0.11-0.24
	c0.08-0.14,0.13-0.25,0.16-0.33c0.02-0.08,0.02-0.14-0.01-0.17c-0.05-0.01-0.17,0.11-0.37,0.37c-0.21,0.26-0.42,0.57-0.66,0.94
	c-0.33,0.54-0.55,0.96-0.64,1.27c-0.09,0.3-0.05,0.48,0.12,0.53c0.1,0.03,0.23-0.01,0.39-0.11c0.16-0.11,0.31-0.25,0.47-0.42
	l-0.33-0.05l-0.1-0.03c-0.11-0.04-0.17-0.07-0.17-0.1c-0.01-0.03,0-0.08,0.02-0.14c0.04-0.13,0.09-0.25,0.16-0.36
	c0.05-0.09,0.1-0.12,0.15-0.11l0.16,0.03c0.17,0.03,0.34,0.08,0.52,0.13c0.28,0.08,0.45,0.16,0.51,0.23
	c0.02,0.04,0.01,0.1-0.01,0.19c-0.05,0.15-0.19,0.44-0.44,0.87c-0.2,0.38-0.32,0.61-0.34,0.69c-0.01,0.04-0.02,0.07-0.01,0.08
	c0,0.02,0,0.04-0.01,0.05c-0.01,0.04-0.06,0.06-0.14,0.07c-0.12,0.02-0.26,0.01-0.41-0.04c-0.06-0.02-0.11-0.04-0.14-0.07
	c-0.03-0.03-0.03-0.09,0-0.19l0.02-0.05c-0.14,0.07-0.3,0.07-0.5,0.01l-0.09-0.03c-0.79-0.32-1.05-0.93-0.78-1.84
	c0.11-0.37,0.3-0.78,0.59-1.24c0.33-0.55,0.62-0.95,0.86-1.19c0.24-0.25,0.47-0.39,0.67-0.42c0.17-0.03,0.33-0.01,0.51,0.04
	l0.14,0.05c0.38,0.16,0.62,0.39,0.72,0.67C233.58,134.97,233.59,135.24,233.52,135.5z"/>
<path class="st1" d="M236.7,136.84c-0.03,0.11-0.07,0.21-0.12,0.33c-0.31,0.61-0.79,0.99-1.45,1.16c0.39,0.61,0.57,1,0.52,1.17
	l-0.02,0.03c-0.09,0.13-0.21,0.22-0.34,0.27c-0.13,0.04-0.24,0.05-0.33,0.02c-0.22-0.06-0.55-0.6-0.97-1.6
	c-0.24,0.5-0.39,0.85-0.47,1.04c-0.03,0.1-0.18,0.11-0.43,0.03c-0.16-0.05-0.3-0.11-0.42-0.19c-0.11-0.08-0.16-0.15-0.15-0.21
	c0.08-0.26,0.58-1.38,1.51-3.38l0.39-0.85c0.05-0.06,0.17-0.07,0.38-0.04c0.2,0.03,0.35,0.06,0.46,0.1
	c0.71,0.21,1.17,0.55,1.39,1.04C236.8,136.08,236.82,136.44,236.7,136.84z"/>
<path class="st1" d="M237.37,139.04c-0.08,0.17-0.15,0.33-0.21,0.48l1.21,0.33c0.11,0.04,0.17,0.13,0.18,0.25
	c0.01,0.12,0,0.22-0.02,0.29c-0.08,0.28-0.24,0.39-0.46,0.34l-0.22-0.06c-0.22-0.05-0.42-0.1-0.6-0.15l-0.33-0.1
	c-0.79-0.23-1.16-0.43-1.11-0.6c0.06-0.19,0.34-0.85,0.84-1.97c0.33-0.74,0.66-1.48,1-2.21c0.05-0.09,0.23-0.09,0.51,0
	c0.29,0.08,0.45,0.17,0.49,0.27c0.01,0.03,0,0.09-0.03,0.2C238.5,136.52,238.08,137.5,237.37,139.04z"/>
<path class="st1" d="M241.97,222.63c-0.36,0.21-2.63,1.55-4.81,3.17c0.82-1.22,2.36-2.64,3.86-3.88
	C241.34,222.17,241.65,222.4,241.97,222.63z"/>
<path class="st1" d="M242.69,138.61c-0.19,0.65-0.58,1.1-1.15,1.36c-0.46,0.2-0.9,0.23-1.33,0.11c-0.07-0.03-0.15-0.05-0.22-0.08
	c-0.24,0.5-0.39,0.85-0.47,1.04c-0.04,0.09-0.18,0.1-0.43,0.03c-0.17-0.05-0.31-0.12-0.43-0.21c-0.11-0.07-0.15-0.14-0.13-0.22
	c0.06-0.2,0.35-0.85,0.86-1.97c0.22-0.5,0.44-0.96,0.63-1.38c0.2-0.42,0.33-0.7,0.4-0.85c0.05-0.06,0.17-0.07,0.38-0.04
	c0.2,0.03,0.35,0.06,0.45,0.09c0.71,0.21,1.18,0.56,1.4,1.05C242.8,137.85,242.81,138.21,242.69,138.61z"/>
<path class="st1" d="M244.36,226.4c-0.01,0.02-0.03,0.05-0.04,0.08c-0.07,0.09-0.14,0.21-0.25,0.37c-0.04,0.07-0.09,0.14-0.14,0.24
	c-0.03,0.05-0.07,0.1-0.11,0.16v0.01c-0.34,0.28-0.81,0.63-1.4,0.94c-0.07,0.04-0.15,0.08-0.24,0.12c-1.24,0.6-2.92,0.95-4.83,0.16
	c-0.66-0.27-0.89-0.71-0.82-1.26c0.06,0.38,0.32,0.69,0.82,0.9c1.91,0.79,3.59,0.44,4.83-0.16c0.09-0.04,0.17-0.08,0.24-0.12
	C243.49,227.28,244.18,226.58,244.36,226.4z"/>
<path class="st1" d="M248.15,138.75c0,0.03-0.01,0.07-0.02,0.13c-0.1,0.33-0.55,1.25-1.34,2.77c-0.33,0.62-0.55,1.06-0.65,1.29
	c-0.08,0.13-0.33,0.13-0.75,0c-0.18-0.05-0.33-0.11-0.45-0.17c-0.13-0.07-0.19-0.12-0.19-0.16c0.03-0.16,0.1-0.75,0.2-1.79
	c-0.48,0.89-0.75,1.42-0.83,1.6c-0.04,0.08-0.3,0.06-0.77-0.08c-0.47-0.14-0.7-0.27-0.71-0.38c0.02-0.47,0.11-1.31,0.25-2.51
	c0.11-1.05,0.22-1.72,0.3-2.02c0.02-0.06,0.04-0.11,0.07-0.13c0.05-0.04,0.15-0.05,0.31-0.04c0.12,0.01,0.23,0.03,0.34,0.06
	c0.03,0.01,0.09,0.04,0.18,0.07c0.08,0.03,0.13,0.09,0.13,0.17c-0.08,0.8-0.23,1.95-0.44,3.46c0.15-0.32,0.42-0.87,0.81-1.65
	c0.48-0.95,0.73-1.44,0.76-1.49c0.04-0.04,0.12-0.06,0.24-0.05c0.09,0.01,0.17,0.02,0.25,0.05c0.05,0.01,0.12,0.04,0.22,0.08
	c0.09,0.04,0.15,0.12,0.2,0.23c-0.02,0.15-0.09,0.69-0.23,1.62c-0.16,1.08-0.25,1.68-0.27,1.8c0.68-1.56,1.17-2.61,1.44-3.17
	c0.06-0.08,0.18-0.08,0.39-0.02c0.11,0.03,0.22,0.08,0.34,0.14C248.06,138.63,248.13,138.69,248.15,138.75z"/>
<path class="st1" d="M250.96,141.08c-0.03,0.1-0.07,0.21-0.11,0.32c-0.31,0.61-0.79,1-1.45,1.16c0.39,0.61,0.56,1,0.51,1.17
	l-0.02,0.04c-0.09,0.13-0.2,0.21-0.33,0.26c-0.14,0.04-0.25,0.05-0.34,0.03c-0.21-0.07-0.54-0.6-0.96-1.61
	c-0.24,0.51-0.4,0.86-0.47,1.04c-0.04,0.1-0.18,0.11-0.43,0.04c-0.17-0.05-0.31-0.12-0.42-0.2c-0.12-0.08-0.17-0.15-0.15-0.21
	c0.08-0.26,0.58-1.38,1.51-3.38l0.39-0.85c0.05-0.06,0.17-0.07,0.37-0.04c0.21,0.03,0.36,0.07,0.47,0.1
	c0.7,0.21,1.17,0.56,1.39,1.05C251.07,140.31,251.08,140.67,250.96,141.08z"/>
<path class="st1" d="M269.63,242.76c-0.1,0.22-0.22,0.44-0.34,0.66c-1.12,0.95-2.44,1.87-3.96,2.74c-4.22,2.41-7.75,3.56-10.68,3.83
	c-2.64,0.25-4.81-0.22-6.58-1.11c-5.94-2.99-7.45-10.78-7.59-12.78c-0.01-0.12-0.01-0.24,0-0.36c0.01,0.09,0.01,0.19,0.03,0.3
	c0.07,0.71,0.27,1.86,0.67,3.2c0.04,0.13,0.08,0.27,0.13,0.42c0.07,0.25,0.16,0.5,0.26,0.76c0.05,0.14,0.1,0.29,0.16,0.43
	c0.08,0.22,0.17,0.44,0.27,0.67c0.09,0.23,0.2,0.46,0.31,0.69c0.1,0.23,0.22,0.46,0.34,0.68c0.11,0.21,0.22,0.41,0.34,0.61
	c0.15,0.28,0.32,0.55,0.5,0.82c0.15,0.22,0.3,0.43,0.46,0.65c0.14,0.2,0.3,0.39,0.46,0.58c0.16,0.2,0.32,0.39,0.51,0.57
	c0.15,0.17,0.31,0.34,0.48,0.49c0.49,0.49,1.04,0.93,1.64,1.32c0.18,0.11,0.36,0.23,0.56,0.34c0.15,0.08,0.3,0.17,0.46,0.25
	c0.03,0.01,0.06,0.03,0.1,0.04c0.05,0.03,0.11,0.06,0.16,0.08c0.18,0.09,0.36,0.17,0.55,0.24c0.14,0.06,0.29,0.12,0.44,0.16
	c0.33,0.13,0.67,0.23,1.02,0.3c0.11,0.04,0.21,0.07,0.32,0.08c0.03,0.02,0.07,0.02,0.1,0.02c0.1,0.03,0.19,0.05,0.29,0.06
	c0.01,0.01,0.02,0.01,0.03,0c0.36,0.08,0.74,0.13,1.13,0.15c0.08,0.01,0.17,0.02,0.25,0.02c0.27,0.02,0.55,0.03,0.83,0.03
	c0.42,0,0.85-0.02,1.29-0.06c0.23-0.02,0.47-0.04,0.71-0.08c0.32-0.04,0.65-0.09,0.98-0.16c0.16-0.02,0.32-0.06,0.49-0.1
	c0.23-0.04,0.46-0.09,0.69-0.16c0.23-0.05,0.47-0.12,0.71-0.19c0.22-0.06,0.43-0.12,0.65-0.2c0.64-0.2,1.31-0.44,1.99-0.72
	c0.18-0.07,0.37-0.15,0.55-0.23c1.26-0.53,2.58-1.2,3.99-2c1.52-0.87,2.84-1.79,3.96-2.74
	C269.41,242.96,269.52,242.86,269.63,242.76z"/>
<circle class="st7" cx="108.11" cy="50.58" r="1.63"/>
<circle class="st7" cx="129.29" cy="51.89" r="1.63"/>
<path class="st8" d="M113.65,54.17c1.63,0,2.61-1.63,5.54,0.65L113.65,54.17z"/>
<g class="st9">
	<path class="st6" d="M243.61,247c-5.55-8.43-10.33-17.36-14.55-26.55c-1.09-2.28-2.08-4.61-3.05-6.94
		c-1.01-2.32-1.91-4.68-2.83-7.04c-0.95-2.35-1.76-4.75-2.57-7.14l-1.23-3.59l-1.12-3.63c-2.89-9.7-5.3-19.58-6.61-29.64
		c-1.36-10.04-1.86-20.19-1.21-30.26c0.6,10.08,1.75,20.04,3.52,29.89l1.44,7.37l1.72,7.31c1.23,4.85,2.48,9.69,4,14.46l1.07,3.6
		l1.19,3.56l1.19,3.56c0.4,1.19,0.86,2.35,1.27,3.53c0.84,2.36,1.67,4.72,2.6,7.05c0.91,2.33,1.79,4.68,2.76,6.99
		C234.99,228.81,239.14,237.96,243.61,247z"/>
</g>
<g>
	<path class="st6" d="M55.01,157.12c2.72-7.11,6.02-14,9.77-20.64c3.73-6.65,7.93-13.05,12.53-19.15
		c4.64-6.06,9.61-11.9,15.17-17.15C98,94.89,104,90.12,110.4,86.01c-5.95,4.75-11.54,9.86-16.82,15.27l-3.88,4.13l-3.72,4.28
		c-1.25,1.41-2.4,2.92-3.61,4.37c-1.22,1.45-2.33,2.97-3.47,4.48c-4.58,6.01-8.81,12.29-12.78,18.73
		C62.18,143.72,58.44,150.32,55.01,157.12z"/>
</g>
<g>
	<path class="st6" d="M212.04,164.61c-3.81,2.39-7.91,4.3-12.13,5.91c-4.21,1.61-8.58,2.84-13.01,3.74
		c-4.44,0.86-8.94,1.41-13.47,1.47c-4.52,0.04-9.04-0.34-13.44-1.27c4.5,0.09,8.94,0.04,13.36-0.29c1.1-0.12,2.21-0.23,3.31-0.32
		c1.1-0.1,2.2-0.29,3.29-0.43c1.1-0.13,2.19-0.32,3.28-0.51c1.09-0.17,2.18-0.37,3.26-0.61c4.35-0.84,8.64-1.96,12.89-3.25
		C203.66,167.74,207.86,166.25,212.04,164.61z"/>
</g>
<g>
	<path class="st6" d="M160.37,80.1c4.4,6.21,8.3,12.78,11.75,19.58c3.47,6.8,6.45,13.84,8.98,21.05c2.46,7.23,4.57,14.6,5.85,22.14
		c1.33,7.52,1.97,15.16,1.84,22.77c-0.65-7.59-1.8-15.07-3.37-22.46l-1.28-5.52l-1.5-5.47c-0.48-1.83-1.09-3.62-1.63-5.42
		c-0.53-1.81-1.18-3.59-1.8-5.37c-2.46-7.14-5.34-14.15-8.49-21.03C167.53,93.49,164.11,86.72,160.37,80.1z"/>
</g>
<g class="st9">
	<path class="st6" d="M20.72,248.89c0.99-10.04,2.89-20,5.38-29.79c0.59-2.46,1.28-4.89,1.99-7.32c0.67-2.44,1.46-4.84,2.23-7.25
		c0.74-2.42,1.62-4.79,2.49-7.17l1.3-3.57l1.41-3.53c3.85-9.36,8.19-18.56,13.5-27.2c5.26-8.66,11.25-16.87,18.09-24.29
		c-5.87,8.21-11.24,16.68-16.06,25.45l-3.51,6.63l-3.26,6.76c-2.09,4.54-4.17,9.1-5.98,13.76l-1.43,3.47l-1.32,3.52l-1.32,3.52
		c-0.43,1.17-0.81,2.37-1.24,3.55c-0.83,2.36-1.68,4.72-2.41,7.12c-0.76,2.39-1.55,4.77-2.25,7.17
		C25.45,229.33,22.93,239.05,20.72,248.89z"/>
</g>
<g class="st9">
	<path class="st6" d="M125.25,155.2c-0.09-3.36,0.33-6.7,1.01-9.98c0.67-3.29,1.66-6.51,2.92-9.63c1.27-3.11,2.78-6.14,4.68-8.93
		c1.87-2.8,4.05-5.41,6.62-7.58c-1.6,2.96-3.15,5.82-4.59,8.74c-1.43,2.92-2.71,5.89-3.93,8.89c-1.22,3-2.34,6.05-3.45,9.13
		L125.25,155.2z"/>
</g>
<g class="st9">
	<path class="st6" d="M102.24,116.92c1.23,3.13,1.98,6.41,2.46,9.73c0.5,3.32,0.67,6.68,0.55,10.04c-0.13,3.36-0.51,6.72-1.35,10
		c-0.8,3.27-1.96,6.47-3.63,9.38c0.49-3.33,0.97-6.55,1.32-9.78c0.34-3.23,0.53-6.46,0.65-9.7c0.12-3.24,0.13-6.49,0.12-9.76
		L102.24,116.92z"/>
</g>
<g class="st9">
	<path class="st6" d="M45.79,140.8c1.36-3.56,3.48-6.8,5.98-9.68c1.26-1.44,2.66-2.76,4.17-3.94c1.49-1.2,3.18-2.15,4.9-2.94
		c-1.53,1.13-3.02,2.26-4.4,3.53c-1.37,1.27-2.7,2.58-3.92,4c-1.24,1.4-2.4,2.86-3.53,4.37C47.89,137.66,46.81,139.19,45.79,140.8z"
		/>
</g>
<path class="st10" d="M113.65,61.33c0,0,3.58-1.95,6.19,0.65L113.65,61.33z"/>
<g class="st9">
	<path class="st6" d="M89.78,131.98c0.99,1.6,1.52,3.42,1.81,5.25c0.27,1.84,0.28,3.7,0.06,5.53c-0.22,1.83-0.66,3.62-1.3,5.34
		c-0.65,1.71-1.48,3.36-2.66,4.83c-0.01-1.88,0.18-3.64,0.36-5.38l0.62-5.14c0.21-1.7,0.4-3.39,0.57-5.1
		C89.42,135.58,89.55,133.85,89.78,131.98z"/>
</g>
<g class="st9">
	<path class="st6" d="M83.53,162.28c0.52,0.35,0.77,0.55,0.95,0.71c0.16,0.16,0.23,0.26,0.2,0.3c-0.03,0.05-0.14,0.04-0.36-0.02
		c-0.23-0.07-0.53-0.19-1.09-0.48c-0.51-0.37-0.76-0.58-0.94-0.74c-0.17-0.15-0.23-0.24-0.21-0.28c0.02-0.04,0.13-0.03,0.35,0.04
		C82.66,161.9,82.96,162.02,83.53,162.28z"/>
</g>
<g class="st11">
	<path class="st5" d="M151.34,393.38l0.01,0.01l0-0.01c0.49-0.06,0.82,0.01,1.11,0.11c0.28,0.11,0.5,0.26,0.68,0.47
		c0.17,0.2,0.29,0.45,0.35,0.74c0.05,0.31,0.07,0.64-0.08,1.12c-0.49,0.07-0.82,0.01-1.11-0.09c-0.28-0.11-0.51-0.27-0.68-0.47
		c-0.17-0.2-0.3-0.45-0.36-0.75c-0.05-0.3-0.07-0.64,0.07-1.1l0-0.01L151.34,393.38z"/>
</g>
<g class="st11">
	<path class="st5" d="M156,398.75c-0.38,0.2-0.61,0.26-0.8,0.28c-0.18,0.02-0.31-0.02-0.38-0.1c-0.07-0.08-0.1-0.21-0.06-0.38
		c0.05-0.19,0.13-0.4,0.37-0.76c0.39-0.2,0.61-0.25,0.8-0.28c0.18-0.02,0.3,0.02,0.37,0.1c0.07,0.08,0.09,0.2,0.05,0.38
		C156.32,398.17,156.23,398.39,156,398.75z"/>
</g>
<g class="st4">
	<path class="st6" d="M141.83,88.3c-1.96,0.57-3.95,1.01-5.96,1.34c-2.01,0.35-4.05,0.55-6.09,0.64c-4.08,0.17-8.24-0.17-12.14-1.4
		l0.04,0.01c-0.06,0-0.12-0.03-0.16-0.06l0.08,0.05c-0.73-0.28-1.46-0.54-2.18-0.84c0.77,0.15,1.52,0.33,2.26,0.5l0.08,0.05
		c-0.01-0.03-0.06-0.05-0.08-0.04l0.04,0.01c1,0.17,1.99,0.34,2.99,0.45c1,0.11,2,0.18,3.01,0.25c2.01,0.12,4.02,0.13,6.03,0.07
		c2.01-0.06,4.02-0.21,6.04-0.37C137.79,88.75,139.8,88.51,141.83,88.3z"/>
</g>
<g class="st4">
	<path class="st6" d="M115.41,88.02c-0.91,0.1-1.73-0.14-2.49-0.5c-0.37-0.2-0.74-0.41-1.06-0.7c-0.32-0.28-0.63-0.61-0.81-1.03
		c0.88,0.2,1.59,0.49,2.32,0.84c0.35,0.19,0.71,0.37,1.05,0.6C114.75,87.45,115.09,87.69,115.41,88.02z"/>
</g>
<g class="st11">
	<path class="st5" d="M79.12,342.72l2.41,0.31l2.23,0.32c0.74,0.12,1.49,0.24,2.25,0.41c0.77,0.18,1.55,0.35,2.39,0.7
		c-0.76,0.48-1.58,0.73-2.42,0.87c-0.84,0.12-1.69,0.13-2.53,0c-0.84-0.14-1.67-0.4-2.43-0.81
		C80.27,344.08,79.54,343.53,79.12,342.72z"/>
</g>
<g class="st11">
	<path class="st5" d="M134.21,346.2c1.33,0.37,2.58,0.7,3.82,1c1.24,0.29,2.47,0.49,3.7,0.62c1.23,0.14,2.45,0.16,3.7,0.08
		c1.26-0.04,2.49-0.34,3.87-0.54c-0.99,0.94-2.22,1.71-3.58,2.07c-1.35,0.4-2.79,0.55-4.19,0.38c-1.4-0.15-2.76-0.55-4.01-1.15
		C136.27,348.05,135.1,347.26,134.21,346.2z"/>
</g>
<path class="st12" d="M71.34,139.12c-0.4,4.36-10.38,3.65-13.05,3.38c-0.23-0.02-0.4-0.04-0.52-0.05c0.02-0.05,0.03-0.09,0.04-0.14
	c0.55-2.64,2.88-12.34,7.15-11.41c4.27,0.94,2.54,4.1,2.01,4.94l0.04-0.04C67.01,135.8,71.8,134.09,71.34,139.12z"/>
<g class="st13">
	<path d="M233.47,134.68c-0.1-0.28-0.34-0.51-0.72-0.67l-0.14-0.05c-0.18-0.05-0.34-0.07-0.51-0.04c-0.2,0.03-0.43,0.17-0.67,0.42
		c-0.24,0.24-0.53,0.64-0.86,1.19c-0.29,0.46-0.48,0.87-0.59,1.24c-0.27,0.91-0.01,1.52,0.78,1.84l0.09,0.03
		c0.2,0.06,0.36,0.06,0.5-0.01l-0.02,0.05c-0.03,0.1-0.03,0.16,0,0.19c0.03,0.03,0.08,0.05,0.14,0.07c0.15,0.05,0.29,0.06,0.41,0.04
		c0.08-0.01,0.13-0.03,0.14-0.07c0.01-0.01,0.01-0.03,0.01-0.05c-0.01-0.01,0-0.04,0.01-0.08c0.02-0.08,0.14-0.31,0.34-0.69
		c0.25-0.43,0.39-0.72,0.44-0.87c0.02-0.09,0.03-0.15,0.01-0.19c-0.06-0.07-0.23-0.15-0.51-0.23c-0.18-0.05-0.35-0.1-0.52-0.13
		l-0.16-0.03c-0.05-0.01-0.1,0.02-0.15,0.11c-0.07,0.11-0.12,0.23-0.16,0.36c-0.02,0.06-0.03,0.11-0.02,0.14
		c0,0.03,0.06,0.06,0.17,0.1l0.1,0.03l0.33,0.05c-0.16,0.17-0.31,0.31-0.47,0.42c-0.16,0.1-0.29,0.14-0.39,0.11
		c-0.17-0.05-0.21-0.23-0.12-0.53c0.09-0.31,0.31-0.73,0.64-1.27c0.24-0.37,0.45-0.68,0.66-0.94c0.2-0.26,0.32-0.38,0.37-0.37
		c0.03,0.03,0.03,0.09,0.01,0.17c-0.03,0.08-0.08,0.19-0.16,0.33c-0.06,0.13-0.1,0.21-0.11,0.24c-0.01,0.03-0.01,0.05-0.01,0.07
		c0.02,0.04,0.09,0.1,0.2,0.18c0.12,0.08,0.21,0.14,0.29,0.18c0.08,0.03,0.14,0.06,0.17,0.07c0.08,0.02,0.13,0.02,0.17,0
		c0.16-0.12,0.28-0.32,0.36-0.59C233.59,135.24,233.58,134.97,233.47,134.68z"/>
	<path d="M236.65,135.76c-0.22-0.49-0.68-0.83-1.39-1.04c-0.11-0.04-0.26-0.07-0.46-0.1c-0.21-0.03-0.33-0.02-0.38,0.04l-0.39,0.85
		c-0.93,2-1.43,3.12-1.51,3.38c-0.01,0.06,0.04,0.13,0.15,0.21c0.12,0.08,0.26,0.14,0.42,0.19c0.25,0.08,0.4,0.07,0.43-0.03
		c0.08-0.19,0.23-0.54,0.47-1.04c0.42,1,0.75,1.54,0.97,1.6c0.09,0.03,0.2,0.02,0.33-0.02c0.13-0.05,0.25-0.14,0.34-0.27l0.02-0.03
		c0.05-0.17-0.13-0.56-0.52-1.17c0.66-0.17,1.14-0.55,1.45-1.16c0.05-0.12,0.09-0.22,0.12-0.33
		C236.82,136.44,236.8,136.08,236.65,135.76z M235.75,136.5c-0.11,0.37-0.34,0.66-0.69,0.86c-0.18,0.12-0.37,0.14-0.56,0.09
		c-0.04-0.02-0.09-0.03-0.13-0.06c0.31-0.66,0.57-1.25,0.79-1.76l0.13,0.04c0.22,0.06,0.37,0.18,0.45,0.36
		C235.8,136.16,235.81,136.31,235.75,136.5z"/>
	<path d="M238.62,136.11c0.03-0.11,0.04-0.17,0.03-0.2c-0.04-0.1-0.2-0.19-0.49-0.27c-0.28-0.09-0.46-0.09-0.51,0
		c-0.34,0.73-0.67,1.47-1,2.21c-0.5,1.12-0.78,1.78-0.84,1.97c-0.05,0.17,0.32,0.37,1.11,0.6l0.33,0.1c0.18,0.05,0.38,0.1,0.6,0.15
		l0.22,0.06c0.22,0.05,0.38-0.06,0.46-0.34c0.02-0.07,0.03-0.17,0.02-0.29c-0.01-0.12-0.07-0.21-0.18-0.25l-1.21-0.33
		c0.06-0.15,0.13-0.31,0.21-0.48C238.08,137.5,238.5,136.52,238.62,136.11z"/>
	<path d="M242.65,137.54c-0.22-0.49-0.69-0.84-1.4-1.05c-0.1-0.03-0.25-0.06-0.45-0.09c-0.21-0.03-0.33-0.02-0.38,0.04
		c-0.07,0.15-0.2,0.43-0.4,0.85c-0.19,0.42-0.41,0.88-0.63,1.38c-0.51,1.12-0.8,1.77-0.86,1.97c-0.02,0.08,0.02,0.15,0.13,0.22
		c0.12,0.09,0.26,0.16,0.43,0.21c0.25,0.07,0.39,0.06,0.43-0.03c0.08-0.19,0.23-0.54,0.47-1.04c0.07,0.03,0.15,0.05,0.22,0.08
		c0.43,0.12,0.87,0.09,1.33-0.11c0.57-0.26,0.96-0.71,1.15-1.36C242.81,138.21,242.8,137.85,242.65,137.54z M241.75,138.28
		c-0.12,0.38-0.35,0.67-0.69,0.86c-0.19,0.12-0.37,0.14-0.56,0.09c-0.04-0.02-0.09-0.03-0.14-0.06c0.31-0.66,0.58-1.25,0.8-1.76
		l0.13,0.03c0.21,0.07,0.37,0.19,0.45,0.37C241.8,137.94,241.8,138.09,241.75,138.28z"/>
	<path d="M247.93,138.56c-0.12-0.06-0.23-0.11-0.34-0.14c-0.21-0.06-0.33-0.06-0.39,0.02c-0.27,0.56-0.76,1.61-1.44,3.17
		c0.02-0.12,0.11-0.72,0.27-1.8c0.14-0.93,0.21-1.47,0.23-1.62c-0.05-0.11-0.11-0.19-0.2-0.23c-0.1-0.04-0.17-0.07-0.22-0.08
		c-0.08-0.03-0.16-0.04-0.25-0.05c-0.12-0.01-0.2,0.01-0.24,0.05c-0.03,0.05-0.28,0.54-0.76,1.49c-0.39,0.78-0.66,1.33-0.81,1.65
		c0.21-1.51,0.36-2.66,0.44-3.46c0-0.08-0.05-0.14-0.13-0.17c-0.09-0.03-0.15-0.06-0.18-0.07c-0.11-0.03-0.22-0.05-0.34-0.06
		c-0.16-0.01-0.26,0-0.31,0.04c-0.03,0.02-0.05,0.07-0.07,0.13c-0.08,0.3-0.19,0.97-0.3,2.02c-0.14,1.2-0.23,2.04-0.25,2.51
		c0.01,0.11,0.24,0.24,0.71,0.38c0.47,0.14,0.73,0.16,0.77,0.08c0.08-0.18,0.35-0.71,0.83-1.6c-0.1,1.04-0.17,1.63-0.2,1.79
		c0,0.04,0.06,0.09,0.19,0.16c0.12,0.06,0.27,0.12,0.45,0.17c0.42,0.13,0.67,0.13,0.75,0c0.1-0.23,0.32-0.67,0.65-1.29
		c0.79-1.52,1.24-2.44,1.34-2.77c0.01-0.06,0.02-0.1,0.02-0.13C248.13,138.69,248.06,138.63,247.93,138.56z"/>
	<path d="M250.92,140c-0.22-0.49-0.69-0.84-1.39-1.05c-0.11-0.03-0.26-0.07-0.47-0.1c-0.2-0.03-0.32-0.02-0.37,0.04l-0.39,0.85
		c-0.93,2-1.43,3.12-1.51,3.38c-0.02,0.06,0.03,0.13,0.15,0.21c0.11,0.08,0.25,0.15,0.42,0.2c0.25,0.07,0.39,0.06,0.43-0.04
		c0.07-0.18,0.23-0.53,0.47-1.04c0.42,1.01,0.75,1.54,0.96,1.61c0.09,0.02,0.2,0.01,0.34-0.03c0.13-0.05,0.24-0.13,0.33-0.26
		l0.02-0.04c0.05-0.17-0.12-0.56-0.51-1.17c0.66-0.16,1.14-0.55,1.45-1.16c0.04-0.11,0.08-0.22,0.11-0.32
		C251.08,140.67,251.07,140.31,250.92,140z M250.02,140.73c-0.11,0.38-0.34,0.67-0.69,0.87c-0.19,0.11-0.37,0.14-0.56,0.08
		c-0.05-0.01-0.09-0.03-0.13-0.05c0.31-0.67,0.57-1.25,0.78-1.76l0.14,0.03c0.22,0.06,0.37,0.18,0.45,0.36
		C250.07,140.39,250.08,140.55,250.02,140.73z"/>
</g>
<path class="st1" d="M84.27,156.93c-0.04,0.11-0.08,0.21-0.12,0.33c0.02-0.09,0.05-0.18,0.09-0.26
	C84.25,156.98,84.26,156.95,84.27,156.93z"/>
<path class="st1" d="M94.42,169.85c-0.01,0.01-0.01,0.01-0.02,0.01c-0.23,0.09-0.48,0.19-0.77,0.29c0.17-0.09,0.33-0.19,0.49-0.3
	H94.42z"/>
<g>
	<path class="st10" d="M105.26,89.16c0.1,0.4,0.1,0.5,0.06,0.55c-0.06,0.02-0.15-0.03-0.44-0.32c-0.16-0.37-0.13-0.49-0.06-0.55
		C104.9,88.81,105.03,88.84,105.26,89.16z"/>
</g>
<g>
	<path class="st14" d="M111.85,319.52c0,0,0,2.4,0.67,6.57c-0.14-0.6-0.28-1.17-0.39-1.71c-0.51-2.4-0.73-4.13-0.61-4.91
		c0.01-0.06,0.02-0.12,0.04-0.17c0.03,0.03,0.06,0.04,0.09,0.07c0.02,0.02,0.04,0.03,0.06,0.05c0.28-0.2,0.96-0.61,2.01-1.23
		C112.59,318.94,111.94,319.4,111.85,319.52z"/>
	<path class="st14" d="M32,279.21c0.04,0.03,0.08,0.05,0.13,0.08c0.04,0.03,0.09,0.05,0.13,0.07c0.14,0.07,0.29,0.14,0.43,0.21
		c0.34,0.17,0.69,0.33,1.05,0.5C33.02,279.7,32.44,279.42,32,279.21z M132.23,370.07c-0.01-0.01-0.01-0.02-0.01-0.03
		c-3.19-4.24-5.88-8.4-8.14-12.39c3.44,7,7.4,13.47,11.66,17.87C134.44,373.92,133.26,372.09,132.23,370.07z M124.06,357.62
		c-4.63-9.43-8.31-19.82-10.46-27.44v-0.01c-0.42-1.47-0.77-2.82-1.07-4.06c0.25,1.52,0.58,3.27,1.04,5.23v0.04
		C115.15,338.15,118.2,347.31,124.06,357.62z M113.74,318.19c-0.28,0.16-0.53,0.31-0.76,0.44c-0.2,0.12-0.38,0.23-0.54,0.33
		c-0.08,0.05-0.16,0.1-0.23,0.14c-0.12,0.07-0.21,0.13-0.29,0.19c-0.04,0.03-0.08,0.05-0.11,0.07c-0.03,0.02-0.06,0.04-0.09,0.06
		c-0.05,0.04-0.09,0.07-0.11,0.09h-0.01c-0.03-0.01-0.04-0.04-0.07-0.05c-0.13,0.78,0.1,2.51,0.6,4.91c0.12,0.54,0.25,1.12,0.4,1.71
		c-0.67-4.16-0.67-6.57-0.67-6.57c0.07-0.08,0.45-0.36,1.13-0.82C113.21,318.54,113.46,318.37,113.74,318.19z M137.71,376.85
		c0,0,0,0,0-0.01c-0.6-1-1.16-2.1-1.75-2.81c0,0-0.05,0.3-0.1,0.64c0,0,0,0,0,0.01c-0.05,0.4-0.11,0.84-0.12,0.84l0.03,0.03
		c0.88,0.91,1.76,1.72,2.66,2.44C138.19,377.64,137.94,377.26,137.71,376.85z M140.41,379.7l-0.62,0.56l-0.08,0.07l-8.1,7.34
		c-0.09,0.14-0.17,0.29-0.25,0.43c0.08-0.03,0.17-0.07,0.25-0.11l9.01-8.16C140.55,379.79,140.47,379.75,140.41,379.7z"/>
	<path class="st15" d="M111.6,319.52C111.6,319.52,111.77,319.13,111.6,319.52"/>
	<g>
		<path class="st6" d="M85.2,175.71c-0.01,0.01-0.01,0.01-0.02,0.01c-0.2,0.08-0.42,0.17-0.68,0.26c0.15-0.08,0.29-0.17,0.43-0.27
			H85.2z"/>
		<path class="st14" d="M79.9,176.92L79.9,176.92z"/>
		<path class="st14" d="M33.82,280.11c-0.04-0.02-0.06-0.04-0.09-0.04c-0.85-0.39-1.66-0.78-2.43-1.18
			c0.15,0.06,0.38,0.18,0.69,0.33c0.36,0.16,0.73,0.32,1.13,0.47C33.34,279.81,33.57,279.95,33.82,280.11z"/>
		<path class="st14" d="M113.73,318.19c-1.14,0.75-1.79,1.21-1.88,1.33c-0.04-0.04-0.09-0.07-0.13-0.1
			C112,319.22,112.68,318.8,113.73,318.19z"/>
	</g>
	<path class="st14" d="M33.82,280.11c-0.04-0.02-0.06-0.04-0.09-0.04c-0.72-0.36-1.3-0.65-1.74-0.85c-0.31-0.15-0.54-0.27-0.69-0.33
		c-0.13-0.07-0.2-0.11-0.2-0.11c0-0.2,0.72,0.12,2.03,0.91C33.34,279.81,33.57,279.95,33.82,280.11z"/>
	<path class="st14" d="M21.12,241.22c0,0-23.78,82.35-20.88,104.39c2.9,22.04,5.8,24.94,4.06,33.06c0,0,20.88-39.44,20.3-70.17
		c-0.58-30.74,2.32-64.95,2.32-64.95L21.12,241.22z"/>
	<path class="st14" d="M32.66,249.82c0.17,6.59,0.58,19.07,1.53,33.23v0.01c0.58,8.58,1.36,17.79,2.4,26.67
		c2.54,21.65-5.23,48.69-9.97,62.61c-1.94,5.72-3.38,9.22-3.38,9.22c0.92-8.05-2.08-10.73-6.91-30.99c-0.12-0.5-0.24-1-0.36-1.52
		c-4.51-19.41,7.58-89.17,10.13-103.39c0.2-1.14,0.35-1.92,0.42-2.29L32.66,249.82z"/>
	<path class="st14" d="M272.73,384.1c-0.66-7.3-3.57-9.65-10.64-23.99v-0.01c-0.94-1.9-1.95-4.01-3.04-6.37
		c-4.93-10.7-7.72-39.82-9.26-64.82v-0.01c-0.84-13.53-1.3-25.86-1.53-33.4c2.43-0.42,4.88-0.86,7.36-1.31
		c2.55,10.88,8.48,35.08,15.7,56.87C280.98,340.24,272.73,384.1,272.73,384.1z"/>
	<path class="st14" d="M279.33,247.84c0,0,1.7,85.7,11,105.89c9.3,20.19,12.93,22.1,13.67,30.37c0,0,8.25-43.85-1.41-73.04
		c-9.66-29.18-17.04-62.72-17.04-62.72L279.33,247.84z"/>
	<path class="st14" d="M262.09,360.1c-0.76,15.76-3.05,27.91-3.05,27.91c-0.6-6.67-3.07-9.2-8.89-20.53v-0.01
		c-1.4-2.71-2.98-5.93-4.78-9.83c-4.31-9.37-6.99-32.83-8.63-55.3c-1.31-18.15-1.95-35.66-2.21-44.54c2.33-0.37,4.69-0.76,7.07-1.16
		c1.45,6.24,4.37,18.44,8.19,32.27c2.33,8.42,4.98,17.43,7.84,26.06C262.21,328.79,262.77,345.91,262.09,360.1z"/>
	<path class="st14" d="M203.74,362.58c-0.86,14.61-2.93,25.58-2.93,25.58c-0.74-8.27-4.37-10.18-13.67-30.37
		c-7.02-15.24-9.71-67.83-10.61-92.68c1.53-0.13,3.08-0.27,4.64-0.42c1.32-0.12,2.64-0.25,3.98-0.38c3,12.37,8.17,32.45,14.25,50.81
		C204.23,329.71,204.59,347.97,203.74,362.58z"/>
	<path class="st14" d="M113.6,330.17v0.01c-0.01,0.38-0.02,0.77-0.03,1.16v0.04c-0.8,28.53-14.15,60.6-14.15,60.6
		c0.98-8.24-2.17-10.86-7.09-32.54c-0.32-1.44-0.56-3.15-0.71-5.1c-0.58-7.36,0.01-18.04,1.18-29.73v-0.01
		c2.06-20.48,5.9-44.04,8.37-58.22h0.01c2.76,0.2,5.6,0.38,8.54,0.52c0.35,12.32,1.21,32.63,3.26,51.73
		c0.01,0.02,0.01,0.04,0.01,0.06c0.06,0.51,0.11,1.03,0.17,1.54C113.52,323.45,113.65,326.78,113.6,330.17z"/>
	<path class="st14" d="M91.62,354.34c-2.61,20.74-7.77,38.32-7.77,38.32c0.22-3.26-0.04-5.65-0.68-8.71
		c-0.98-4.64-2.87-10.82-5.4-23.92c-2.04-10.54-0.7-35.63,1.21-58.68v-0.02c1.21-14.47,2.64-28.13,3.62-36.89
		c1.93,0.27,3.93,0.53,5.98,0.76c0.51,12.12,1.68,35.04,3.94,56.18c0.11,1.06,0.21,2.14,0.28,3.23
		C93.5,334.22,92.84,344.63,91.62,354.34z"/>
	<path class="st14" d="M62.66,260.75c0.29,12.04,1.14,35.23,3.52,56.58c0.83,7.42,0.44,15.46-0.61,23.38
		c-3.29,24.74-13.13,48.37-13.13,48.37c0.99-8.24-2.17-10.86-7.09-32.54c-0.91-4.03-1.1-10.21-0.81-17.61
		c0-0.02,0.01-0.03,0.01-0.05c0.33-8.45,1.31-18.48,2.56-28.69v-0.01c2.45-19.87,5.95-40.43,7.92-51.42
		c2.04,0.58,4.19,1.16,6.46,1.71L62.66,260.75z"/>
	<path class="st14" d="M250.15,367.47c0.03,10.71-0.66,18.14-0.66,18.14c-1.51-8.16-5.3-9.73-16.45-28.96
		c-8.96-15.46-16.99-73.5-19.8-95.69c2.55-0.34,5.13-0.7,7.74-1.09c3.16,9.34,8.97,25.89,15.76,42.47
		c1.46,3.58,2.98,7.17,4.52,10.68C248.56,329.67,250.11,351.99,250.15,367.47z"/>
	<path class="st14" d="M217.01,386.19c-1.36-7.33-4.55-9.34-13.27-23.61c-0.99-1.62-2.05-3.39-3.18-5.35
		c-8.57-14.77-16.28-68.45-19.39-92.54c1.32-0.12,2.64-0.25,3.98-0.38c1.49-0.15,2.99-0.31,4.51-0.47
		c4.12,11.99,11.24,31.8,19.12,49.76C221.13,341.76,217.01,386.19,217.01,386.19z"/>
	<path class="st14" d="M145.68,388.51c-1.51-8.17-5.31-9.73-16.45-28.96c-8.58-14.79-16.3-68.62-19.41-92.65
		c2.87,0.14,5.82,0.25,8.87,0.31h0.01c4.15,12.07,11.09,31.26,18.74,48.71C149.8,344.08,145.68,388.51,145.68,388.51z"/>
	<path class="st14" d="M166.4,391.94c-0.51-8.29-4.09-10.3-12.81-30.75c-6.7-15.69-7.82-69.82-7.98-94.15
		c2.75-0.09,5.55-0.21,8.42-0.36c2.61,12.35,7.31,33.17,13.02,52.21C175.89,348.34,166.4,391.94,166.4,391.94z"/>
	<path class="st14" d="M61.49,260.47c0.07,17.32,0.63,55.92,4.08,80.24c1.03,7.25,2.31,13.23,3.92,17
		c8.73,20.45,12.3,22.46,12.81,30.75c0,0,0.36-1.64,0.87-4.51c2.12-11.89,6.91-44.81-0.21-68.54c-1.39-4.64-2.72-9.36-3.98-14.06
		v-0.01v-0.01c-4.02-15.08-7.27-29.73-9.23-39.04c-2.48-0.49-4.85-1-7.09-1.54L61.49,260.47z"/>
	<path class="st14" d="M47.21,315.38c0.2,7.56-0.9,15.65-2.67,23.55c-5.3,23.75-16.65,45.84-17.11,46.73
		c0.95-4.63,0.4-7.56-0.81-13.32c-0.9-4.32-2.19-10.24-3.5-19.67c-1.73-12.47,4.95-44.32,11.07-69.61
		c2.93-12.1,5.73-22.7,7.42-28.96c2.13,0.89,4.46,1.77,7.02,2.64c-0.66,10.45-1.82,32.26-1.52,53.44
		C47.13,311.92,47.17,313.65,47.21,315.38z"/>
</g>
<circle class="st6" cx="69.99" cy="151.25" r="28.02"/>
<circle class="st6" cx="93.78" cy="248.99" r="1.52"/>
<circle class="st6" cx="161.22" cy="158.74" r="30.17"/>
<line class="st16" x1="88.24" y1="159.4" x2="141.67" y2="163.96"/>
<path class="st17" d="M285.56,248.34c-2.08,0.43-4.14,0.86-6.19,1.27c-8.17,1.66-16.08,3.18-23.75,4.58
	c-2.48,0.45-4.93,0.89-7.36,1.31c-2.24,0.39-4.46,0.77-6.66,1.14c-2.38,0.4-4.74,0.79-7.07,1.16c-4.61,0.74-9.13,1.43-13.55,2.07
	c-2.61,0.39-5.19,0.75-7.74,1.09c-8.19,1.13-16.05,2.08-23.58,2.88c-1.52,0.16-3.02,0.32-4.51,0.47c-1.34,0.13-2.66,0.26-3.98,0.38
	c-1.56,0.15-3.11,0.29-4.64,0.42c-7.88,0.7-15.37,1.21-22.5,1.57c-2.87,0.15-5.67,0.27-8.42,0.36c-9.67,0.34-18.62,0.38-26.91,0.17
	h-0.01c-3.05-0.06-6-0.17-8.87-0.31c-0.03,0-0.07,0-0.1,0c-2.94-0.14-5.78-0.32-8.54-0.52h-0.01c-4.42-0.32-8.62-0.72-12.59-1.18
	c-2.05-0.23-4.05-0.49-5.98-0.76c-4.6-0.64-8.88-1.36-12.85-2.15c-2.48-0.49-4.85-1-7.09-1.54c-0.4-0.09-0.78-0.18-1.17-0.28
	c-2.27-0.55-4.42-1.13-6.46-1.71c-2.27-0.66-4.4-1.34-6.4-2.02c-2.56-0.87-4.89-1.75-7.02-2.64c-3.5-1.45-6.46-2.9-8.95-4.28
	c-2.4-1.32-4.37-2.58-5.94-3.7c-0.22-0.15-0.42-0.3-0.62-0.46c-3.6-2.64-4.97-4.44-4.97-4.44"/>
<path class="st1" d="M247.04,247.93c0,0-6.98,10.18-4.37,18.32c2.61,8.14,4.89-3.26,4.89-3.26s5.54,20.52,21.83,20.2
	c16.29-0.33,16.29-40.4,16.29-40.4L247.04,247.93z"/>
<g class="st9">
	<path class="st6" d="M281.11,271.14c0.08,1.37-0.46,2.78-1.22,3.96c-0.79,1.18-1.78,2.22-2.9,3.09c-2.24,1.73-4.88,2.89-7.65,3.45
		c-2.77,0.56-5.74,0.48-8.45-0.5c-2.71-0.96-5.07-2.94-6.17-5.44c2.12,1.71,4.4,2.75,6.79,3.16c2.39,0.42,4.84,0.31,7.24-0.17
		c2.4-0.48,4.76-1.3,6.94-2.47C277.85,275.04,279.95,273.59,281.11,271.14z"/>
</g>
<ellipse transform="matrix(0.8042 -0.5944 0.5944 0.8042 16.8358 103.3981)" class="st18" cx="165.34" cy="26.15" rx="10.14" ry="2.17"/>
<ellipse transform="matrix(0.9485 -0.3168 0.3168 0.9485 0.8245 49.6963)" class="st19" cx="153.25" cy="22.31" rx="2.17" ry="10.14"/>
<ellipse transform="matrix(1 -8.185447e-03 8.185447e-03 1 -0.2622 1.195)" class="st18" cx="145.86" cy="32.63" rx="10.14" ry="2.17"/>
<ellipse transform="matrix(0.3012 -0.9536 0.9536 0.3012 66.3325 176.2074)" class="st20" cx="153.39" cy="42.84" rx="10.14" ry="2.17"/>
<ellipse transform="matrix(0.5811 -0.8138 0.8138 0.5811 37.6869 150.8974)" class="st21" cx="165.43" cy="38.84" rx="2.17" ry="10.14"/>
<circle class="st22" cx="156.66" cy="32.34" r="2.28"/>
</svg>
