<?xml version="1.0" encoding="utf-8"?>
<!-- Generator: Adobe Illustrator 25.2.0, SVG Export Plug-In . SVG Version: 6.00 Build 0)  -->
<svg version="1.1" id="Layer_1" xmlns="http://www.w3.org/2000/svg" xmlns:xlink="http://www.w3.org/1999/xlink" x="0px" y="0px"
	 viewBox="0 0 549.92 543.06" style="enable-background:new 0 0 549.92 543.06;" xml:space="preserve">
<style type="text/css">
	.st0{fill:#86B19A;}
</style>
<path class="st0" d="M271.35,0c-1.07,0.76-2.13,1.51-3.79,2.69c2.34,0.22,3.85,0.37,5.95,0.57c-1.3,1.11-1.98,1.7-2.67,2.29
	c1.02,0.58,1.99,1.13,3.81,2.17c-9.43,2.35-17.98,4.47-26.54,6.6c0.11,0.49,0.23,0.98,0.34,1.46c1.93,0.13,3.85,0.27,6.41,0.44
	c-2.17,2.42-2.32,7.53-6.55,5.03c-3.9-2.31-6.07-0.89-9.8,1.96c2.72,0.72,4.84,2.04,6.44,1.57c8.97-2.63,17.86-5.55,26.68-8.66
	c4.92-1.73,9.59-1.21,14.36-0.77c0,0.46,0,0.91,0,1.37c-2.29,0.16-4.58,0.33-7,0.5c-0.91,2.67-1.81,5.33-2.73,8.04
	c4.09-0.63,7.7-1.18,12.67-1.94c-3.32-0.3-5.31-0.48-8.2-0.74c3.48-2.98,6.26-5.36,9.65-8.28c5.03,0,11.22,0,16.94,0
	c1.28,1.84,2.42,3.49,4.51,6.49c-4.13-0.82-7.25-1.67-10.42-1.98c-2.29-0.22-4.65,0.28-7.72,0.52c1.75,2.24,2.61,3.35,3.61,4.63
	c-2.99,1.1-5.5,2.41-8.17,2.89c-2.6,0.47-5.35,0.15-8.03,0.08c-11.31-0.29-14.42,1.94-16.46,12.77c3.4-1.6,6.37-2.75,9.09-4.34
	c2.17-1.27,7.45,1.8,5.88-4.78c2.06,1.13,3.63,1.99,5.2,2.86c1.32-3.44,7.94-5.21,12.6-3.23c-1.32,1.09-2.54,2.1-4.08,3.37
	c3.56,0,6.68,0,9.81,0c-7.77,2.53-14.81,7.26-22.81,5.54c-0.15,1.74,0.12,3.22-0.37,3.54c-2.96,1.9-5.96,3.84-9.19,5.17
	c-4.33,1.78-8.88,3.03-13.34,4.5c0.15,0.43,0.31,0.85,0.46,1.28c9.11-1.54,9.11-1.54,10.94,0.02c-1.61,1.25-3.2,2.5-4.72,3.68
	c1.09,0.66,1.99,1.2,3.53,2.13c-3.61,0.72-6.44,1.29-9.26,1.85c0.02,0.24,0.05,0.49,0.07,0.73c1.86,0,3.72,0,6.68,0
	c-3.42,3.77-6.13,6.76-9.68,10.69c1.97-0.82,2.77-1.16,4.87-2.03c-1.63,2.43-2.47,3.93-3.55,5.24c-1.96,2.36-5.48,4.43-5.8,6.95
	c-0.6,4.7-3.37,5.38-6.83,6.36c-2.18,0.62-4.67,1.4-6.19,2.93c-9.87,9.98-24.98,14.57-30.25,29.29c-0.03,0.08-0.3,0.07-0.69,0.16
	c-0.25-0.76-0.52-1.55-0.86-2.59c-2.76,3.63-5.34,7.03-7.93,10.44c-0.24-0.15-0.48-0.29-0.73-0.44c0.92-2.54,1.85-5.08,3.03-8.33
	c-2.09,1.65-3.56,2.81-5.03,3.97c-0.52,8.34-8.41,11.19-12.35,17.11c-0.31-1.87,0.27-3.29,0.59-4.77c1.38-6.49,8.53-11.8,4-19.54
	c-0.25-0.42,0.35-1.34,0.5-1.85c-2.32,1-4.48,1.92-6.64,2.85c3-5.25,6.82-8.78,13.74-6.08c0.09,1.53,0.19,3.24,0.39,6.76
	c4.69-3.95,8.37-7.06,12.06-10.17c-0.29-0.39-0.58-0.79-0.87-1.18c-1.78,0.23-3.56,0.46-5.89,0.76c2.07-3.75,3.82-6.92,5.58-10.09
	c-0.27-0.16-0.53-0.32-0.8-0.47c-3.71,4.03-7.41,8.06-11.68,12.7c-0.38-2.95-0.6-4.63-0.82-6.4c-8.17,3.63-12.45,8.62-13.19,15.28
	c0.62-0.47,1.14-0.87,1.66-1.27c-0.36,4.58-3.84,7.32-7.26,5.9c-4.02-1.67-4.55,0.73-5.56,2.69c-1.09,2.11-1.46,4.59-1.84,5.84
	c-2.8,0.52-4.69,0.88-6.67,1.25c0-0.48-0.17-1.04,0.03-1.39c3.33-5.71,9.45-9.8,9.66-17.42c0.03-1.05,2.97-2.01,4.56-3.02
	c0.56,1.04,1.12,2.08,1.84,3.41c0.88-1.53,1.72-2.94,2.5-4.38c4.97-9.11,7.7-19.76,17.88-25.26c0.76,0.41,1.76,0.96,2.77,1.51
	c2.16-3.92-0.04-4.81-2.71-4.87c3.92-7.49,10.99-13.13,10.5-22.35c-2.13,2.01-3.39,4.52-5.05,6.72c-2.67,3.54-5.27,7.26-8.5,10.25
	c-10.05,9.33-21.56,16.44-34.44,21.31c-5.11,1.93-8.59,5.46-9.41,11.46c4.93-1.49,9.39-3.73,14-5.61c1.88-0.77,4.08-0.77,6.14-1.11
	c0.17,0.61,0.34,1.22,0.51,1.84c-1.11,0.87-2.19,1.79-3.34,2.61c-7.28,5.2-14.54,10.42-21.87,15.55c-4.02,2.81-8.15,5.47-12.62,8.46
	c2.33,9.38,1.44,12.66-4.73,15.79c0.92-2.44,1.91-5.08,2.91-7.72c-0.32-0.14-0.63-0.27-0.95-0.41c-2.15,2.89-4.3,5.79-6.44,8.68
	c-0.56-0.33-1.12-0.66-1.68-0.99c1.39-2.8,2.64-5.68,4.2-8.39c1.53-2.65,3.38-5.13,5.09-7.68c-0.4-0.27-0.81-0.54-1.21-0.82
	c-2.94,1.87-5.87,3.74-8.29,5.28c-1.15-6,1.74-10.55,4.81-15.27c-3.68,2.29-6.8,4.93-9.5,7.94c-5.15,5.74-5.06,5.83-11.14,1.01
	c-3.28,2.77-6.56,5.53-9.99,8.43c-0.31-1.49-0.55-2.64-0.82-3.98c-2.17,0.81-3.99,1.48-6.39,2.37c0.36-1.62,0.61-2.75,1.02-4.62
	c-3.29,0.27-6.15,0.5-10.28,0.84c4.21-3.67,7.65-6.68,11.97-10.44c-0.41,2.18-0.57,3.03-0.83,4.43c1.06-0.54,1.79-0.67,2.1-1.11
	c1.16-1.62,2.53-3.24,3.1-5.08c0.22-0.71-1.68-2.99-2.28-2.87c-1.92,0.38-4.02,1.19-5.43,2.5c-3.17,2.92-5.89,6.33-8.96,9.36
	c-1.91,1.89-4.13,3.47-7.19,6c-0.77-8.05,4-12.08,7.28-17.88c-8.86,3.73-14.57,10.01-19.47,16.96c-2.47-2.16-4.33-3.79-6.75-5.91
	c-0.11,0.02-1.34,0.25-3.29,0.62c4.34-6.13,8.26-11.67,12.17-17.2c-0.3-0.22-0.6-0.44-0.9-0.67c-5.49,5.98-10.99,11.95-16.48,17.93
	c-0.38-0.27-0.76-0.54-1.14-0.81c1.1-2.22,2.2-4.43,3.3-6.65c-0.23-0.21-0.46-0.42-0.7-0.63c-2.52,2.08-5.05,4.16-8.3,6.84
	c0.41-2.22,0.62-3.33,0.93-5.01c-1.88,1.37-3.11,2.6-4.59,3.26c-3.06,1.38-6.25,2.35-8.98-0.8c-1-1.15-2.02-2.29-3.04-3.43
	c-1.33,1.36-3.1,2.49-3.89,4.11c-2.35,4.85-4.32,9.89-6.52,15.05c3.76,4.64,2.95,6.94-3.79,8.71c0.35-1.49,0.65-2.82,1.06-4.55
	c-0.83,0.42-1.29,0.54-1.59,0.83C0.9,151.73,1.41,160,0.01,167.62c-0.09,0.51,0.71,1.18,1.2,1.95c1.63-2.77,3.02-5.13,5.04-8.57
	c0.66,4.41,1.1,7.3,1.52,10.05c-1.83,0.8-3.24,1.42-5.68,2.49c2.16,1.39,3.7,2.39,5.29,3.41c-1.19,1.84-1.95,3.02-2.96,4.57
	c4.15,1.98,7.96,3.9,11.86,5.64c3.46,1.55,6.92,3.2,10.54,4.28c5.4,1.61,7.8-0.39,7.92-6.01c0.03-1.54,0.17-3.08,0.32-5.6
	c2.91,2.7,5.03,4.67,6.97,6.47c0.85-1.37,1.63-2.62,2.39-3.84c2.05,3.67,3.07,7.93,5.72,9.58c2.99,1.87,7.44,1.39,11.92,2.02
	c-0.47-4.36-0.81-7.58-1.14-10.64c5.17-0.55,5.01,3.2,5.78,6.41c0.46,1.93,1.07,4.58,2.48,5.39c4.03,2.31,8.6,3.66,12.78,5.75
	c3.62,1.81,7.88,3.39,10.28,6.35c3.01,3.73,6.34,3.54,10.11,3.5c3.32-0.03,6.65,0,9.97-0.09c2.71-0.08,5.42-0.3,9.12-0.51
	c1.79,2.41,4.28,2.17,7.28-1.04c1.09-1.17,3.52-1.57,5.31-1.52c3.77,0.12,4.81-1.27,3.75-5.03c-1.35-4.75,0.4-8.93,2.23-13
	c6.73,2.65,2.29,7.86,3.37,12.09c5.78-7.77,6.95-15.04,3.57-20.72c-0.91,2.18-1.78,4.25-2.67,6.36c-4.48-3.54-4.8,3.87-8.65,2.91
	c0-8.22-0.03-16.49,0.05-24.75c0.01-0.87,0.63-1.74,1.02-2.59c0.64-1.38,1.35-2.74,1.99-4.12c0.38-0.84,0.68-1.71,1.02-2.57
	c0.36,0.08,0.73,0.17,1.09,0.25c0,5.66,0,11.31,0,17.95c1.7-2.8,2.81-4.64,3.93-6.49c0.3,0.11,0.61,0.22,0.91,0.33
	c0,2.22,0,4.44,0,8.05c2.23-2.53,3.59-4.07,5.43-6.16c4.5-0.06,5.06,0.72,4.08,5.78c-0.78,4.04-1.23,8.16-1.58,12.26
	c-0.48,5.57-0.66,11.17-1.1,16.75c-0.27,3.48,1.13,5.65,5.07,6.88c0.49-3.63,0.79-7.04,1.43-10.39c1.5-7.81,1.63-7.95,3.52-8.33
	c1.58,4.46-2.6,9.59,1.23,14.48c0.91-2.07,1.48-3.37,2.05-4.66c0.42,0.01,0.84,0.03,1.27,0.04c0.19,2.82,0.29,5.66,0.57,8.47
	c0.49,4.8,2.47,6.07,8.76,5.68c3.84-0.24,2.82-3.22,3.19-5.57c0.48-3.07,1.32-6.08,2.14-9.7c4.83,5.11-3.06,11.85,3.71,15.3
	c2.3-3.18,4.25-5.88,6.75-9.33c1.96,4.13,3.45,7.26,5.47,11.51c1.64-5.56,2.98-10.13,4.33-14.7c0.55,0.15,1.11,0.3,1.66,0.44
	c-0.37,2.86-0.76,5.72-1.11,8.58c-0.62,5.12,0.33,6.06,5.6,5.57c0.25-1.07,0.5-2.14,0.86-3.67c1.2,1.65,1.96,2.73,2.76,3.78
	c2.76,3.65,6.63,2.47,10.1,1.98c3.6-0.5,2.31-3.71,2.64-6.03c0.65-4.66,1.77-9.14,6.05-12.8c1.11,7.61-3.79,16.86,8.16,19.83
	c1.14-3.44,2.33-7.03,3.52-10.62c0.24-0.02,0.49-0.03,0.73-0.05c0.34,2.9,0.68,5.79,1.03,8.69c0.35,0,0.71,0.01,1.06,0.01
	c0.99-4.08,1.97-8.16,2.96-12.24c2.02,3.78,1.57,8.56,6.85,10.29c0.64-3.84,1.19-7.12,1.75-10.4c0.5-0.1,1-0.2,1.5-0.3
	c1.36,3.05,2.73,6.09,4.24,9.49c0.92-2.39,1.76-4.56,2.88-7.47c1.16,2.03,1.9,3.33,2.47,4.31c1.59-0.57,2.85-1.02,4.54-1.63
	c0.41,7.52,1.09,14.3,1.09,21.08c0,27.43-0.26,54.87-0.33,82.3c-0.03,12.64,0.43,25.29,0.19,37.92
	c-1.19,61.65,2.73,123.28,0.78,184.93c-0.1,3.28,1.32,4.93,4.22,4.27c0-7.84-0.01-15.28,0-22.72c0.13-77.03,0.37-154.06,0.29-231.09
	c-0.01-11.36,4.36-22.92-1.07-34.12c-0.13-0.27-0.02-0.66-0.02-0.99c0-10.65-0.12-21.3,0.1-31.94c0.05-2.34,0.62-5.8,2.17-6.76
	c4.21-2.6,4.94-6.8,6.64-10.65c0.45-1.03,1.1-1.98,1.65-2.97c0.37,0.1,0.75,0.21,1.12,0.31c0.17,2.98,0.33,5.96,0.5,8.94
	c0.4,0.1,0.79,0.21,1.19,0.31c1.42-2.91,2.83-5.82,4.56-9.38c-0.14,3.74-0.33,6.95,4.49,6.66c1.41-2.7,2.9-5.56,4.52-8.67
	c0.71,0.96,1.16,1.57,1.92,2.6c6.79-6.95,8.18-15.88,9.91-24.66c0.7-1.6,1.4-3.19,2.1-4.79c1.03-1.59,2.72-3.09,2.96-4.8
	c0.49-3.42-0.01-6.97,0.34-10.43c0.12-1.19,1.57-2.24,2.41-3.35c0.25,0.2,0.51,0.4,0.76,0.6c0.46-2.76,0.93-5.51,1.39-8.27
	c0.89,0.14,1.79,0.29,2.68,0.43c-0.33,2.64-0.63,5.29-1.01,7.92c-0.39,2.74-1.06,5.46-1.24,8.21c-0.36,5.36,0.05,10.83-0.81,16.09
	c-1.41,8.58-3.59,17.03-5.73,26.85c3.08-0.14,5.88,0.32,8.16-0.55c2.28-0.87,4.04-3.09,6.01-4.71c0.12,2.65,0.25,5.39,0.37,8.05
	c9.55,0.58,19.04-0.53,27.34,2.12c8.22,2.62,16.5,2.2,24.56,4.1c3.39,0.8,5.14-0.35,6.61-3.3c2.23-4.48,4.83-8.77,7.28-13.14
	c0.46,0.21,0.92,0.42,1.38,0.64c-0.7,2.08-1.11,4.34-2.17,6.22c-2.31,4.07-0.68,6.54,2.69,9.17c1.02-2.5,1.79-4.38,3.1-7.59
	c0.6,3.2,0.94,5.03,1.38,7.37c1.99,0,3.96-0.13,5.9,0.03c3.73,0.29,5.5-1.8,6.26-5.02c1.52-6.37,2.83-12.79,4.42-19.14
	c0.64-2.56,1.79-4.99,2.7-7.48c0.44,0.12,0.87,0.24,1.31,0.35c-1.28,8.42-2.57,16.85-3.94,25.84c1.5-1.03,2.42-1.66,3.3-2.26
	c0.61,1.49,1.16,2.84,1.88,4.59c0.82-2.02,1.4-3.45,2.08-5.13c0.76,1.06,1.31,1.82,2.04,2.84c1.03-4.15,2-8.07,2.97-11.98
	c0.42,0.05,0.84,0.1,1.26,0.16c0,4.69,0,9.38,0,14.94c1.94-0.84,3.28-1.06,4-1.86c0.44-0.48,0.28-2.1-0.22-2.75
	c-2.42-3.15-1.6-9.95,1.95-12.25c0.62,4.67,1.23,9.19,2.01,15.01c1.06-12.12,2-22.87,2.95-33.61c0.61,0.05,1.23,0.1,1.84,0.16
	c-0.44,10.09-0.93,20.18-1.29,30.27c-0.08,2.15-0.89,4.86,2.75,5.31c3.49,0.44,5.24-1.24,6.11-4.37c2.33-8.38,4.63-16.78,7.12-25.12
	c0.59-1.97,1.88-3.73,2.84-5.59c0.58,0.21,1.15,0.43,1.73,0.64c-1.18,5.73-1.82,11.64-3.68,17.14c-2.2,6.51,1.14,12.24,8.03,12.29
	c0.83,0.01,1.68,0.12,2.49-0.02c9.22-1.52,18.71-2.18,27.57-4.87c9.71-2.95,18.78-7.97,28.27-11.74
	c9.56-3.81,15.72-10.48,18.57-20.3 M216.25,68.96c-0.15,1.88-0.29,3.76-0.47,6.14c6.78-2.53,6.74-9.02,9.69-13.52
	c-0.46-0.4-0.92-0.8-1.38-1.2c-2.19,2.46-4.39,4.91-6.58,7.37c2.06-2.81,3.82-7.67,6.25-8.02c6.4-0.94,7.72-7.6,12.87-9.56
	c-2-0.19-4-0.38-6.71-0.63c5.04-2.43,9.35-4.51,12.32-5.94c2.54,1.33,4.24,3.03,5.59,2.79c6.92-1.25,10.58-6.74,15.34-12.09
	c-2.69-0.23-4.42-0.37-7.28-0.61c4.12-1.92,7.26-3.38,10.75-5c-4.53-1.86-8.06-2.34-10.91,1.85c-0.8,1.18-2.82,1.6-4.33,2.23
	c-3.56,1.48-7.15,2.88-10.45,4.2c0.25-3.17,0.25-3.17,9.05-8.65c-0.26-0.41-0.52-0.82-0.78-1.23c-5.65,3.57-11.31,7.13-17.01,10.73
	c1.19,1.59,1.95,2.6,3.42,4.56c-3.45-0.71-5.78-1.2-8.06-1.67c-0.67-3,0.04-4.29,3.06-5.12c2.99-0.82,5.62-2.97,8.41-4.53
	c-5.6,0.39-10.88,1.2-15.7,3.13c-4.62,1.85-8.87,4.71-13.1,7.41c-4.26,2.72-8.28,5.8-12.41,8.73c4.96-0.67,9.47-2.11,13.96-3.62
	c4.44-1.49,8.86-3.07,13.73-4.76c0,2.57,0,4.53,0,6.44c1.45,0.49,2.63,0.88,5.15,1.72c-3.19,3.23-5.33,7.19-8.41,8.15
	c-6.63,2.07-7.73,7.54-9.79,12.86C213.72,70.39,214.98,69.67,216.25,68.96z M257.62,64.35c-0.07-0.03-0.49-0.36-0.92-0.37
	c-6.19-0.17-12.65,5.57-18.54-0.89c-3.73,1.79-8.56,2.66-10.98,5.54c-5.71,6.8-10.49,14.29-19.31,17.65
	c-0.75,0.28-1.04,1.78-1.74,3.07c2.43,0.34,4.28,0.6,6.19,0.87c-0.45,1.33-0.79,2.32-1.41,4.13c2.55-1.35,4.29-2.27,6.03-3.19
	c0.43,0.49,0.85,0.98,1.28,1.48c-3.78,3.59-7.57,7.17-11.35,10.76c0.27,0.32,0.54,0.65,0.81,0.97c5.42-4.16,10.84-8.33,16.26-12.49
	c0.29,0.29,0.59,0.59,0.88,0.88c-4.04,4.85-8.08,9.71-12.11,14.56c7.39-2.38,11.83-7.77,15.75-13.79c0.73-1.11,2.22-1.86,3.51-2.43
	c1.45-0.64,3.08-0.89,5.68-1.6c-2.24-1.59-3.21-2.27-4.18-2.96c0.32-0.47,0.64-0.94,0.96-1.41c1.9,1.32,3.81,2.64,6.18,4.28
	c-1.44-6.7,2.69-10.09,7.15-13.23c0.67-0.47,2.07-0.19,2.46-0.74C252.71,71.92,255.03,68.27,257.62,64.35z M159.18,75.65
	c-0.22-0.4-0.44-0.79-0.66-1.19c-9.72,5.95-19.44,11.9-29.17,17.86c0.34,0.56,0.68,1.13,1.02,1.69c6.5-4.04,13-8.08,19.49-12.12
	c0.33,0.42,0.66,0.84,0.98,1.26c-2.78,2.31-5.56,4.61-8.34,6.92c0.32,0.41,0.63,0.81,0.95,1.22c8.29-5.57,16.57-11.13,24.86-16.7
	c-0.14-0.28-0.29-0.56-0.43-0.84c-3.92,1.77-7.85,3.55-11.77,5.32c-0.12-0.24-0.24-0.48-0.36-0.72
	C156.9,77.44,158.04,76.55,159.18,75.65z M168.21,68.73c0.24,0.42,0.49,0.84,0.73,1.25c0.71-0.25,1.42-0.52,2.14-0.73
	c5.02-1.47,9.03-7.72,15.36-3.27c0.35,0.24,1.34-0.12,1.85-0.47c2.43-1.71,5.01-3.29,7.1-5.36c1.2-1.2,1.56-3.24,2.3-4.9
	c-0.49-0.25-0.98-0.49-1.47-0.74c-3.06,3.23-6.12,6.47-9.18,9.7c-0.21-0.14-0.43-0.28-0.64-0.42c1.02-2.53,2.04-5.05,3.06-7.58
	c-0.42-0.37-0.84-0.74-1.25-1.1C181.53,59.65,174.87,64.19,168.21,68.73z M91.38,105.07c0.26,0.73,0.52,1.47,0.79,2.2
	c7.86-2.23,17.01,4.67,24.39-4.13c-3.84,0.48-7.23,0.91-11.38,1.44c1.81-2.3,3.31-4.19,4.33-5.49
	C103.58,101.04,97.48,103.05,91.38,105.07z M97.76,95.73c5.17-3.78,9.74-7.13,14.99-10.98c-2.38,0.24-4.26,0.42-6.42,0.64
	c0.35-2.21,0.72-4.58,1.28-8.16c-3.79,5.01-6.79,8.98-9.8,12.95c0.18,0.18,0.35,0.36,0.53,0.55c0.97-0.5,1.94-1,4.07-2.09
	C100.44,91.64,99.24,93.48,97.76,95.73z M204.58,39.85c-0.27-0.58-0.53-1.16-0.8-1.74c-9.71,3.55-19.42,7.09-29.13,10.64
	c0.16,0.43,0.32,0.86,0.48,1.28C184.91,46.51,195.17,44.33,204.58,39.85z M147.88,59.36c-6.21-3.11-10.87-0.71-15.36,2.14
	c-0.65,0.41-0.67,1.81-0.98,2.74c1-0.04,2.24,0.29,2.95-0.19c1.69-1.14,3.13-2.65,5.42-4.68c-0.71,2.36-1.14,3.77-1.87,6.18
	C141.68,63.25,144.42,61.53,147.88,59.36z M147.29,68.4c0.18,0.4,0.35,0.79,0.53,1.19c6-2.37,12-4.74,18-7.11
	C156.69,57.93,154.16,67.99,147.29,68.4z M26.41,107.47c-7.69,2.37-11.18,6.98-13.54,12.68c0.34,0.32,0.68,0.65,1.02,0.97
	C17.76,116.88,21.65,112.65,26.41,107.47z M196.08,69.24c2.82-3.86,5.33-7.31,8.56-11.74C195.92,60.66,192.99,64.77,196.08,69.24z
	 M167.18,44.02c-9.04-1.09-15.13,1.16-18.27,6.3C154.74,48.31,160.52,46.32,167.18,44.02z M80.27,123.05
	c0.41,0.08,0.81,0.16,1.22,0.24c2-3.65,4-7.3,5.85-10.67c-1.14-1.07-1.97-1.84-3.5-3.27C82.55,114.31,81.41,118.68,80.27,123.05z
	 M77.72,107.18c0.71,0.36,1.41,0.73,2.12,1.09c1.71-2.49,3.48-4.94,5.09-7.49c0.3-0.48,0.13-1.9-0.13-1.98
	c-0.73-0.25-2.12-0.34-2.37,0.06C80.73,101.54,79.26,104.38,77.72,107.18z M182.79,81.15c-3.3,1.82-6.24,3.43-9.17,5.04
	c5.75-0.01,9.97-2.16,11.67-7.86c-1.71,0-3.31,0-6.01,0C180.95,79.67,181.71,80.28,182.79,81.15z M177.77,73.99
	c0.14,0.32,0.27,0.64,0.41,0.96c3.55-1.44,7.1-2.89,10.39-4.23c-0.61-1.1-1.16-2.11-1.85-3.36
	C183.73,69.58,180.75,71.79,177.77,73.99z M237.16,57.87c-5.07-0.54-8.8,0.63-8.35,6.71C231.69,62.27,234.42,60.07,237.16,57.87z
	 M76.67,96.15c2.33-1.74,4.66-3.48,7-5.22c-0.21-0.31-0.41-0.62-0.62-0.92c-2.91,0.8-5.83,1.61-8.64,2.39
	C75.18,93.68,75.79,94.69,76.67,96.15z M179.57,36.85c-3.5,2.27-6.39,4.14-9.27,6.01C177.04,42.91,178.47,41.99,179.57,36.85z
	 M118.08,89.89c2.23-2.36,4.09-4.33,6.45-6.83C116.33,84.44,115.8,85.01,118.08,89.89z M240.55,26.81
	c-0.01-0.58-0.03-1.16-0.04-1.74c-5.3,0.3-10.6,0.59-15.91,0.89c0,0.28,0,0.56,0.01,0.85C229.92,26.81,235.24,26.81,240.55,26.81z
	 M247.99,50.3c-4.21,1.41-7.13,2.38-10.61,3.54C242.7,56.42,242.7,56.42,247.99,50.3z M49.4,100.05c0.41,0.57,0.83,1.14,1.24,1.71
	c2.88-2.23,5.75-4.46,8.63-6.69c-0.33-0.45-0.65-0.89-0.98-1.34C55.32,95.84,52.36,97.95,49.4,100.05z"/>
<path class="st0" d="M181.6,118.47c2.16-0.92,4.31-1.85,6.64-2.84c-0.15,0.51-0.75,1.43-0.5,1.85c4.53,7.74-2.63,13.05-4,19.54
	c-0.31,1.48-0.9,2.9-0.59,4.77c3.95-5.92,11.83-8.78,12.35-17.11c1.47-1.16,2.94-2.32,5.03-3.97c-1.18,3.24-2.11,5.78-3.03,8.33
	c0.24,0.15,0.48,0.29,0.73,0.44c2.59-3.41,5.18-6.81,7.93-10.44c0.35,1.04,0.61,1.83,0.86,2.59c0.39-0.09,0.66-0.08,0.69-0.16
	c5.26-14.72,20.37-19.31,30.25-29.29c1.52-1.53,4.01-2.32,6.19-2.93c3.45-0.97,6.22-1.66,6.83-6.36c0.32-2.52,3.84-4.58,5.8-6.95
	c1.08-1.3,1.92-2.8,3.55-5.24c-2.09,0.87-2.9,1.21-4.87,2.03c3.56-3.93,6.27-6.92,9.68-10.69c-2.96,0-4.82,0-6.68,0
	c-0.02-0.24-0.05-0.49-0.07-0.73c2.83-0.56,5.66-1.13,9.26-1.85c-1.54-0.93-2.44-1.47-3.53-2.13c1.51-1.18,3.11-2.43,4.72-3.68
	c-1.83-1.56-1.83-1.56-10.94-0.02c-0.15-0.43-0.31-0.85-0.46-1.28c4.46-1.48,9.01-2.72,13.34-4.5c3.23-1.33,6.23-3.27,9.19-5.17
	c0.49-0.31,0.22-1.8,0.37-3.54c8,1.72,15.04-3.01,22.81-5.54c-3.13,0-6.25,0-9.81,0c1.54-1.27,2.76-2.28,4.08-3.37
	c-4.65-1.98-11.28-0.21-12.6,3.23c-1.57-0.86-3.13-1.72-5.2-2.86c1.58,6.58-3.7,3.51-5.88,4.78c-2.72,1.59-5.69,2.74-9.09,4.34
	c2.03-10.83,5.15-13.06,16.46-12.77c2.68,0.07,5.43,0.39,8.03-0.08c2.67-0.48,5.18-1.79,8.17-2.89c-1-1.29-1.86-2.39-3.61-4.63
	c3.07-0.24,5.43-0.74,7.72-0.52c3.17,0.31,6.29,1.17,10.42,1.98c-2.09-3-3.23-4.65-4.51-6.49c-5.72,0-11.91,0-16.94,0
	c-3.4,2.91-6.17,5.29-9.65,8.28c2.89,0.26,4.88,0.44,8.2,0.74c-4.97,0.76-8.58,1.31-12.67,1.94c0.92-2.71,1.83-5.37,2.73-8.04
	c2.42-0.17,4.71-0.34,7-0.5c0-0.46,0-0.91,0-1.37c-4.77-0.44-9.44-0.97-14.36,0.77c-8.82,3.11-17.71,6.03-26.68,8.66
	c-1.6,0.47-3.72-0.85-6.44-1.57c3.73-2.85,5.9-4.26,9.8-1.96c4.22,2.5,4.38-2.61,6.55-5.03c-2.56-0.18-4.48-0.31-6.41-0.44
	c-0.11-0.49-0.23-0.98-0.34-1.46c8.55-2.13,17.1-4.26,26.54-6.6c-1.82-1.04-2.79-1.59-3.81-2.17c0.7-0.6,1.38-1.18,2.67-2.29
	c-2.1-0.2-3.61-0.34-5.95-0.57c1.66-1.18,2.73-1.93,3.79-2.69c2,0,3.99,0,5.99,0c0.67,0.33,1.32,0.91,2.02,0.97
	c14.25,1.21,28.63,1.93,41.11,9.67c-0.11,0.51-0.22,1.01-0.33,1.52c1.2-0.37,2.4-0.74,3.66-1.13c1.91,4.84,5.74,6.19,10.3,6.33
	c0,0-0.13-0.04-0.13-0.04c-3.92,3-7.83,6-11.75,9c0.14,0.43,0.28,0.87,0.43,1.3c3.07,0.18,6.14,0.37,10.53,0.63
	c-6.79,2.58-12.27,4.66-17.97,6.83c7.14,5.32,9.34,5.34,13.9,0.25c-1.15-0.24-2.2-0.47-3.9-0.83c2.7-1.44,4.87-2.61,7.05-3.75
	c5.4-2.82,10.61-6.15,17.29-3.93c1.37,0.45,3.33-0.85,5.01-1.35c1.03-0.31,2.21-1.17,3.05-0.9c5.87,1.85,12.53,2.15,15.81,7.21
	c4.64-0.45,8.61-0.83,12.68-1.22c-0.94-1.01-1.93-2.07-3.73-4c3.57,1.53,5.85,2.82,8.3,3.46c2.52,0.66,5.21,0.65,7.82,0.98
	c4.78,0.6,9.47,5.97,9.66,11.01c0.22,5.78,2.61,7.81,8.53,7.16c-1.82-2.45-7.05-2.04-5.89-7.84c4.06,2.35,7.67,4.44,11.49,6.66
	c-0.78,1.75-1.4,3.14-2.01,4.5c1.92,1.35,3.49,2.46,5.46,3.86c0.66-3.36,1.22-6.2,1.77-8.96c10.08-2.73,15.91,3.53,21.49,10.07
	c0.76,0.89,1.12,3.39,0.57,3.88c-1.04,0.91-3.04,1.47-4.39,1.15c-4.25-1.02-6.2,1.11-6.96,4.68c-0.43,2.03-0.08,4.22-0.08,6.77
	c-1.67-1.06-3.2-1.94-4.63-2.96c-4.31-3.05-6.96-2.54-10,2.03c-1.28,1.93-2.6,3.84-3.79,5.82c-1.04,1.74-1.92,3.57-2.87,5.37
	c0.41,0.23,0.82,0.46,1.23,0.68c2.86-3.58,5.71-7.17,8.86-11.11c1.58,2.94,3.04,5.65,4.64,8.62c1.24-1.99,2.33-3.73,3.69-5.92
	c1.98,3.41,7.35,3.97,5.65,9.19c0,0,0.2-0.16,0.2-0.16c-0.96-0.41-2.65-0.69-2.76-1.27c-0.86-4.6-2.63-1.37-4.29-0.94
	c0.79,1.94,1.44,3.53,2.41,5.9c-2.28-0.46-4.56-0.24-5.18-1.15c-3.51-5.11-4.54-0.89-6.02,1.42c-0.86,1.33-1.47,2.82-2.19,4.24
	l0.17,0.16c-1.53-0.94-3.06-1.89-5.43-3.34c0,4.92,0,8.76,0,12.59c-0.27,0.03-0.53,0.06-0.8,0.09c-1.84-5.44-3.69-10.88-5.29-15.63
	c-2.46,2.07-4.53,3.82-6.73,5.67c0.23,5.13-6.56,4.21-8.67,8.36c2.85,0.87,5.58,1.7,8.23,2.52c0.76-3.13,1.32-5.42,1.96-8.1
	c1.68,1.31,2.95,2.3,4.41,3.43c-5.88,3.8-0.4,7.25,0.3,11.05c-1.13,0-1.98,0-3.45,0c1.59,4.13,3.05,7.92,4.62,11.98
	c0.9-1.23,1.42-1.93,1.94-2.64c0.33,0.17,0.66,0.33,0.99,0.5c-1.11,2.96-2.23,5.93-3.62,9.64c3.07-1.08,4.88-1.72,6.93-2.44
	c0.37,1.49,0.64,2.59,1.05,4.28c0.68-1.23,0.98-1.8,1.3-2.36c0.87-1.53,1.58-3.22,2.76-4.47c0.26-0.27,3.18,1.12,3.13,1.53
	c-0.24,1.95-0.62,4.24-1.84,5.63c-1.35,1.54-3.67,2.23-5.57,3.29c0.57,0.69,1.15,1.38,1.72,2.07c1.54,0.15,3.09,0.3,4.6,0.45
	c0.68-2.05,1.25-3.77,1.92-5.78c0.73,1.67,1.31,3,1.9,4.32c-1.16-13.3,6.33-23.31,11.22-34.21c0.48,0.07,0.95,0.14,1.43,0.21
	c0,3.39,0,6.78,0,10.18c0.26-0.01,0.51-0.02,0.77-0.03c2-4.27,4-8.54,6-12.8c0.42,0.12,0.85,0.24,1.27,0.37
	c-2.22,10.47-3.43,20.87,1.89,30.88c2.01-3.46,4.07-7.01,6.14-10.56c1.87-3.2,3.75-6.38,5.63-9.57
	c-1.55,13.45-1.64,16.06,0.77,19.14c0.93-8.05,1.82-15.66,2.71-23.33c2.34,0.82,4.18,1.47,7.29,2.56
	c-9.46-10.01-9.46-10.01-7.84-13.66c2.01,1.44,4.34,2.64,6.03,4.45c1.42,1.52,2.1,3.74,3.11,5.66c1.13-1.78,2.25-3.58,3.42-5.33
	c0.13-0.19,0.56-0.18,0.98-0.31c3.66,4.6,7.34,9.23,11.28,14.18c1.21-1.55,2.12-2.73,3.15-4.06c1.37,2.04,2.44,3.63,3.51,5.22
	c0.23-0.14,0.46-0.29,0.68-0.43c-0.2-1.68-0.4-3.37-0.67-5.57c1.88,0.53,3.28,0.92,4.67,1.31c0.49,1.39,1.15,2.74,1.44,4.17
	c1,4.9,3.67,6.15,8.13,4.03c0.68-0.32,1.5-0.35,2.77-0.62c-3.52-5.24-6.79-10.1-10.83-16.1c4.16,2.54,7,4.27,9.84,6
	c0.42-0.54,0.84-1.08,1.26-1.62c-2.61-3.58-5.23-7.16-8.1-11.09c-0.39,1.37-0.61,2.14-0.9,3.14c-1.44-0.91-2.8-1.76-5.64-3.55
	c0,3.91,0,6.8,0,9.69c-1.41-2.43-2.81-4.87-4.58-7.93c3.99-1.22,7.22-2.2,10.45-3.19c0.1-0.35,0.19-0.7,0.29-1.05
	c-1.88-0.19-3.77-0.38-5.59-0.56c2.12-3.33,4.41-2.48,6.74-0.06c5.06,5.25,10.11,10.51,15.2,15.73c0.8,0.82,1.82,1.43,2.74,2.14
	c0.18-0.2,0.36-0.39,0.53-0.59c-0.9-1.61-1.8-3.21-2.71-4.82c0.35-0.28,0.71-0.56,1.06-0.84c4.11,4.43,8.21,8.86,12.18,13.15
	c1.77,1.02,4.25,1.64,5.24,3.2c2.79,4.39,4.96,9.17,7.37,13.8c0,1.33,0,2.66,0,3.99c-3.92,9.65-1.55,19.3,0,28.95
	c0,1.33,0,2.66,0,3.99c-2.85,9.82-9.01,16.49-18.57,20.3c-9.48,3.78-18.55,8.8-28.27,11.74c-8.87,2.69-18.36,3.35-27.57,4.87
	c-0.81,0.13-1.66,0.02-2.49,0.02c-6.9-0.06-10.23-5.79-8.03-12.29c1.86-5.5,2.5-11.41,3.68-17.14c-0.58-0.21-1.15-0.43-1.73-0.64
	c-0.97,1.86-2.26,3.62-2.84,5.59c-2.49,8.34-4.78,16.74-7.12,25.12c-0.87,3.13-2.62,4.8-6.11,4.37c-3.64-0.46-2.82-3.16-2.75-5.31
	c0.36-10.09,0.85-20.18,1.29-30.27c-0.61-0.05-1.23-0.1-1.84-0.16c-0.94,10.75-1.88,21.49-2.95,33.61
	c-0.78-5.83-1.38-10.34-2.01-15.01c-3.56,2.31-4.37,9.1-1.95,12.25c0.5,0.65,0.66,2.27,0.22,2.75c-0.72,0.79-2.06,1.02-4,1.86
	c0-5.55,0-10.24,0-14.94c-0.42-0.05-0.84-0.1-1.26-0.16c-0.97,3.92-1.94,7.84-2.97,11.98c-0.74-1.02-1.28-1.79-2.04-2.84
	c-0.68,1.68-1.26,3.11-2.08,5.13c-0.72-1.75-1.27-3.1-1.88-4.59c-0.88,0.6-1.8,1.24-3.3,2.26c1.37-8.99,2.65-17.42,3.94-25.84
	c-0.44-0.12-0.87-0.24-1.31-0.35c-0.92,2.49-2.06,4.92-2.7,7.48c-1.59,6.35-2.9,12.77-4.42,19.14c-0.77,3.22-2.54,5.31-6.26,5.02
	c-1.95-0.15-3.92-0.03-5.9-0.03c-0.44-2.34-0.78-4.17-1.38-7.37c-1.31,3.21-2.08,5.09-3.1,7.59c-3.37-2.64-4.99-5.11-2.69-9.17
	c1.07-1.88,1.47-4.13,2.17-6.22c-0.46-0.21-0.92-0.42-1.38-0.64c-2.44,4.37-5.05,8.66-7.28,13.14c-1.47,2.95-3.22,4.11-6.61,3.3
	c-8.06-1.9-16.34-1.48-24.56-4.1c-8.3-2.65-17.79-1.55-27.34-2.12c-0.12-2.66-0.25-5.4-0.37-8.05c-1.97,1.62-3.74,3.84-6.01,4.71
	c-2.28,0.88-5.08,0.41-8.16,0.55c2.14-9.82,4.32-18.27,5.73-26.85c0.87-5.26,0.45-10.73,0.81-16.09c0.19-2.75,0.85-5.47,1.24-8.21
	c0.38-2.63,0.68-5.28,1.01-7.92c-0.89-0.14-1.79-0.29-2.68-0.43c-0.46,2.76-0.93,5.51-1.39,8.27c-0.25-0.2-0.51-0.4-0.76-0.6
	c-0.84,1.11-2.29,2.17-2.41,3.35c-0.35,3.45,0.15,7.01-0.34,10.43c-0.24,1.71-1.93,3.2-2.96,4.8c-1.3,0.06-3.03-0.41-3.82,0.26
	c-3.7,3.12-2.46,7.09-1.54,12.29c1.43-3.39,2.34-5.58,3.26-7.76c-1.73,8.79-3.12,17.71-9.91,24.66c-0.76-1.03-1.21-1.64-1.92-2.6
	c-1.62,3.11-3.11,5.96-4.52,8.67c-4.82,0.29-4.63-2.92-4.49-6.66c-1.73,3.56-3.15,6.47-4.56,9.38c-0.4-0.1-0.79-0.21-1.19-0.31
	c-0.17-2.98-0.33-5.96-0.5-8.94c-0.37-0.1-0.75-0.21-1.12-0.31c-0.56,0.99-1.2,1.93-1.65,2.97c-1.69,3.85-2.42,8.05-6.64,10.65
	c-1.55,0.96-2.12,4.42-2.17,6.76c-0.22,10.64-0.1,21.29-0.1,31.94c0,0.33-0.11,0.72,0.02,0.99c5.43,11.2,1.06,22.76,1.07,34.12
	c0.08,77.03-0.16,154.06-0.29,231.09c-0.01,7.44,0,14.88,0,22.72c-2.9,0.66-4.32-0.99-4.22-4.27c1.95-61.65-1.97-123.28-0.78-184.93
	c0.24-12.64-0.22-25.28-0.19-37.92c0.07-27.43,0.33-54.87,0.33-82.3c0-6.78-0.68-13.57-1.09-21.08c-1.69,0.61-2.95,1.06-4.54,1.63
	c-0.57-0.99-1.31-2.28-2.47-4.31c-1.12,2.91-1.96,5.08-2.88,7.47c-1.52-3.39-2.88-6.44-4.24-9.49c-0.5,0.1-1,0.2-1.5,0.3
	c-0.55,3.28-1.1,6.56-1.75,10.4c-5.28-1.74-4.83-6.51-6.85-10.29c-0.99,4.08-1.97,8.16-2.96,12.24c-0.35,0-0.71-0.01-1.06-0.01
	c-0.34-2.9-0.68-5.79-1.03-8.69c-0.24,0.02-0.49,0.03-0.73,0.05c-1.19,3.59-2.38,7.19-3.52,10.62c-11.95-2.96-7.05-12.21-8.16-19.83
	c-4.28,3.66-5.39,8.15-6.05,12.8c-0.33,2.32,0.96,5.53-2.64,6.03c-3.47,0.48-7.34,1.67-10.1-1.98c-0.8-1.05-1.56-2.13-2.76-3.78
	c-0.36,1.52-0.6,2.59-0.86,3.67c-5.27,0.49-6.22-0.45-5.6-5.57c0.35-2.86,0.74-5.72,1.11-8.58c-0.55-0.15-1.11-0.3-1.66-0.44
	c-1.34,4.57-2.69,9.14-4.33,14.7c-2.02-4.25-3.51-7.38-5.47-11.51c-2.5,3.45-4.45,6.15-6.75,9.33c-6.78-3.45,1.11-10.19-3.71-15.3
	c-0.82,3.62-1.66,6.63-2.14,9.7c-0.37,2.35,0.65,5.33-3.19,5.57c-6.29,0.39-8.26-0.88-8.76-5.68c-0.29-2.81-0.39-5.65-0.57-8.47
	c-0.42-0.01-0.84-0.03-1.27-0.04c-0.57,1.3-1.14,2.59-2.05,4.66c-3.83-4.89,0.35-10.02-1.23-14.48c-1.89,0.38-2.02,0.52-3.52,8.33
	c-0.64,3.35-0.95,6.76-1.43,10.39c-3.94-1.23-5.34-3.4-5.07-6.88c0.43-5.58,0.62-11.17,1.1-16.75c0.35-4.1,0.8-8.22,1.58-12.26
	c0.98-5.06,0.42-5.85-4.08-5.78c-1.84,2.09-3.2,3.63-5.43,6.16c0-3.61,0-5.83,0-8.05c-0.3-0.11-0.61-0.22-0.91-0.33
	c-1.12,1.84-2.24,3.69-3.93,6.49c0-6.64,0-12.3,0-17.95c-0.36-0.08-0.73-0.17-1.09-0.25c-0.34,0.86-0.63,1.73-1.02,2.57
	c-0.64,1.39-1.35,2.74-1.99,4.12c-0.39,0.85-1.01,1.72-1.02,2.59c-0.08,8.27-0.05,16.53-0.05,24.75c3.85,0.96,4.17-6.45,8.65-2.91
	c0.88-2.11,1.76-4.18,2.67-6.36c3.38,5.69,2.21,12.95-3.57,20.72c-1.08-4.23,3.35-9.44-3.37-12.09c-1.83,4.07-3.58,8.26-2.23,13
	c1.07,3.76,0.02,5.15-3.75,5.03c-1.79-0.05-4.22,0.35-5.31,1.52c-3,3.21-5.49,3.44-7.28,1.04c-3.7,0.21-6.41,0.44-9.12,0.51
	c-3.32,0.09-6.65,0.06-9.97,0.09c-3.77,0.04-7.1,0.23-10.11-3.5c-2.39-2.96-6.65-4.55-10.28-6.35c-4.18-2.08-8.75-3.43-12.78-5.75
	c-1.41-0.81-2.02-3.46-2.48-5.39c-0.77-3.21-0.61-6.96-5.78-6.41c0.33,3.06,0.67,6.28,1.14,10.64c-4.48-0.63-8.93-0.16-11.92-2.02
	c-2.65-1.65-3.67-5.91-5.72-9.58c-0.77,1.23-1.54,2.47-2.39,3.84c-1.94-1.8-4.07-3.78-6.97-6.47c-0.15,2.52-0.29,4.06-0.32,5.6
	c-0.11,5.62-2.51,7.62-7.92,6.01c-3.62-1.08-7.08-2.73-10.54-4.28c-3.9-1.74-7.71-3.66-11.86-5.64c1-1.55,1.77-2.73,2.96-4.57
	c-1.59-1.02-3.14-2.02-5.29-3.41c2.44-1.07,3.85-1.69,5.68-2.49c-0.42-2.76-0.85-5.64-1.52-10.05c-2.02,3.44-3.41,5.8-5.04,8.57
	c-0.5-0.77-1.3-1.44-1.2-1.95c1.41-7.61,0.89-15.89,7.25-21.84c0.31-0.29,0.77-0.41,1.59-0.83c-0.4,1.73-0.71,3.06-1.06,4.55
	c6.74-1.77,7.54-4.08,3.79-8.71c2.2-5.16,4.17-10.2,6.52-15.05c0.79-1.62,2.57-2.76,3.89-4.11c1.01,1.14,2.04,2.28,3.04,3.43
	c2.73,3.15,5.92,2.18,8.98,0.8c1.48-0.67,2.7-1.89,4.59-3.26c-0.31,1.67-0.52,2.79-0.93,5.01c3.25-2.68,5.78-4.76,8.3-6.84
	c0.23,0.21,0.46,0.42,0.7,0.63c-1.1,2.22-2.2,4.43-3.3,6.65c0.38,0.27,0.76,0.54,1.14,0.81c5.49-5.98,10.99-11.95,16.48-17.93
	c0.3,0.22,0.6,0.44,0.9,0.67c-3.91,5.53-7.83,11.06-12.17,17.2c1.95-0.36,3.18-0.6,3.29-0.62c2.42,2.12,4.28,3.75,6.75,5.91
	c4.9-6.95,10.61-13.22,19.47-16.96c-3.27,5.8-8.05,9.83-7.28,17.88c3.06-2.53,5.28-4.11,7.19-6c3.07-3.04,5.79-6.44,8.96-9.36
	c1.42-1.31,3.51-2.11,5.43-2.5c0.6-0.12,2.5,2.16,2.28,2.87c-0.57,1.84-1.93,3.46-3.1,5.08c-0.31,0.43-1.04,0.57-2.1,1.11
	c0.26-1.4,0.42-2.25,0.83-4.43c-4.32,3.77-7.76,6.77-11.97,10.44c4.13-0.34,6.99-0.57,10.28-0.84c-0.41,1.87-0.66,3-1.02,4.62
	c2.4-0.89,4.22-1.57,6.39-2.37c0.28,1.33,0.52,2.49,0.82,3.98c3.43-2.9,6.71-5.67,9.99-8.43c6.08,4.82,5.98,4.73,11.14-1.01
	c2.7-3.01,5.82-5.64,9.5-7.94c-3.07,4.72-5.97,9.28-4.81,15.27c2.41-1.54,5.35-3.41,8.29-5.28c0.4,0.27,0.81,0.54,1.21,0.82
	c-1.71,2.55-3.56,5.03-5.09,7.68c-1.56,2.7-2.81,5.58-4.2,8.39c0.56,0.33,1.12,0.66,1.68,0.99c2.15-2.89,4.3-5.79,6.44-8.68
	c0.32,0.14,0.63,0.27,0.95,0.41c-0.99,2.64-1.99,5.27-2.91,7.72c6.16-3.13,7.05-6.41,4.73-15.79c4.47-2.99,8.6-5.65,12.62-8.46
	c7.33-5.13,14.59-10.35,21.87-15.55c1.15-0.82,2.23-1.74,3.34-2.61c-0.17-0.61-0.34-1.22-0.51-1.84c-2.06,0.35-4.26,0.34-6.14,1.11
	c-4.61,1.88-9.06,4.12-14,5.61c0.83-6.01,4.31-9.53,9.41-11.46c12.88-4.87,24.38-11.97,34.44-21.31c3.23-3,5.82-6.71,8.5-10.25
	c1.66-2.2,2.92-4.7,5.05-6.72c0.49,9.22-6.58,14.86-10.5,22.35c2.67,0.05,4.87,0.95,2.71,4.87c-1-0.55-2.01-1.09-2.77-1.51
	c-10.18,5.5-12.92,16.15-17.88,25.26c-0.78,1.44-1.62,2.85-2.5,4.38c-0.72-1.33-1.28-2.37-1.84-3.41c-1.59,1-4.53,1.97-4.56,3.02
	c-0.21,7.61-6.33,11.71-9.66,17.42c-0.2,0.34-0.03,0.9-0.03,1.39c1.98-0.37,3.87-0.72,6.67-1.25c0.37-1.25,0.75-3.73,1.84-5.84
	c1.01-1.96,1.54-4.35,5.56-2.69c3.43,1.42,6.91-1.32,7.26-5.9L181.6,118.47z M264.66,76.38c1.49-3.92,2.97-7.85,4.46-11.77
	c-3.03-1.22-7.63,7.26-7.03,13.76c1.03-0.83,1.85-1.48,2.66-2.14c-0.12,2.48,0.49,3.21,2.66,1.31c0.66-0.58,1.82-0.57,3.78-1.12
	c1.09-2.88,2.62-6.93,4.15-10.98c-0.27-0.13-0.55-0.26-0.82-0.39C271.23,68.83,267.95,72.59,264.66,76.38z M401.23,62.98
	c-0.96-1.78-2.77-3.6-2.68-5.33c0.16-3.31,1.39-6.57,2.18-9.85c0.47-0.05,0.95-0.11,1.42-0.16c0.25,2.72,0.5,5.45,0.77,8.36
	c3.99-2.12,4.85-5.42,4.01-9.27c-0.94-4.33-3.99-4.43-7.58-3.27c0,0.78,0,1.6,0,2.31c-1.91,0.17-3.54,0.32-6.56,0.6
	c2.74,1.67,4.06,2.48,5.37,3.27c-0.53,1.58-0.99,2.93-1.36,4.03c-0.69-1.33-1.4-2.68-2.23-4.27c-1.86,4.77-2.49,9.43-5.1,12.26
	c-3.1,3.35-2.36,5.68-1,9.57c1.42-1.81,2.27-2.89,3.89-4.96c-0.97,2.88-1.53,4.56-2.01,5.99c3.31-1.98,6.59-3.74,9.59-5.87
	c0.81-0.58,0.8-2.31,1.17-3.52c1.15-0.57,2.67-1.93,3.4-1.6c5.82,2.7,4.92-3.08,8.31-5.16C404.7,55.81,401.94,57.7,401.23,62.98z
	 M329.08,94.62c4.61-1.36,9.29-2.55,13.83-4.13c4.38-1.52,5.68-4.15,4.77-6.34c-2.42,1.21-5.11,3.76-7.24,3.36
	c-3.87-0.73-2.56-4.33-1.72-7.45c1.49,1.73,2.84,3.29,4.37,5.07c5.86-7.42,11.48-14.53,17.09-21.64c-0.26-0.24-0.52-0.48-0.78-0.71
	c-1.55,1.12-3.11,2.25-4.86,3.51c-0.81-1.64-1.54-3.1-2.87-5.8c-1.8,5.73-3.21,10.23-4.7,14.97c-0.91-1.2-1.58-2.09-2.49-3.28
	c-0.62,1.87-1.16,3.48-1.79,5.36c-1.41-1.22-2.73-2.37-4.59-3.98c0,1.93,0,3.26,0,4.57c-1.98,0-3.55,0-5.72,0
	c4.61,5.26,1.22,8.6-2.4,11.28c-2.53,1.87-2.7,3.24-0.77,5.36c-7.98,1.44-11.04,4.71-10.87,13.19
	C321.92,103.5,325.5,99.06,329.08,94.62z M368.66,88.13c-0.99,1.08-1.97,2.15-3.35,3.66c0.52-4.89,0.96-9.09,1.41-13.28
	c-0.37-0.03-0.74-0.05-1.11-0.08c-1.28,4.02-2.56,8.04-3.93,12.36c-1.24-0.64-2.3-1.18-2.14-1.1c-1.06,2.93-1.94,5.75-3.21,8.37
	c-0.18,0.36-2.37-0.26-5.04-0.61c0.66,9.59,1.21,19.03,2.08,28.45c0.11,1.25,1.79,2.35,2.75,3.52c0.52-0.25,1.03-0.5,1.55-0.75
	c0,4.96,0,9.91,0,14.87c0.49,0.01,0.97,0.01,1.46,0.02c0.81-13.32,1.62-26.64,2.4-39.44c1.33,1.98,3.19,4.78,4.47,6.69
	c2.21-1.42,4.07-2.62,5.95-3.83c-0.16-1.36-0.34-2.79-0.54-4.46c2.58-0.89,4.96-1.72,8.64-2.99c-2.1,5.42-3.78,9.74-5.22,13.46
	c-2.07-0.65-3.51-1.49-4.87-1.38c-0.78,0.06-1.43,1.67-2.42,2.95c-0.73-0.14-2.27-0.44-3.72-0.73c-3.85,6.99,1.43,11.89,3.01,18.57
	c2.16-3.98,3.83-7.06,5.5-10.14c0.39,0.1,0.78,0.19,1.18,0.29c0,6.16,0,12.32,0,18.48c0.2,0.05,0.41,0.09,0.61,0.14
	c3.42-7.97,6.83-15.94,10.25-23.91c-0.63-0.32-1.26-0.63-1.89-0.95c-1.63,2.95-3.26,5.9-4.89,8.85c-0.21-0.05-0.42-0.1-0.63-0.15
	c2.49-10.09,4.98-20.17,7.65-30.99c3.83,7.39,2.97,14.34,0.84,22.03c7.34-4.16,2.89-12.51,8.64-16.62
	c-2.28-0.56-3.55-0.87-4.82-1.18c2-1.43,4.29-2.71,5.97-2.15c3.31,1.09,3.56-0.4,3.81-2.58c-2.36-1.06-5.35-1.45-6.25-3.04
	c-1.39-2.45-2.29-4.13-5.45-3.46c-3.38,0.72-6.22,1.64-6.27,5.93c-0.01,1.24-0.9,2.46-1.38,3.7c-0.45-0.07-0.89-0.14-1.34-0.22
	c0.28-4.21,0.63-8.41,0.83-12.62c0.13-2.8,0.23-5.69-3.47-6.74c-0.67,2.11-1.29,4.04-1.91,5.98c-0.92-2.2-1.46-4.63-0.57-6.3
	c5.12-9.48,10.59-18.78,15.89-28.16c0.15-0.26-0.19-0.8-0.42-1.69c-2.18,2.34-4.1,4.4-6.79,7.3c1.02-2.96,1.66-4.81,2.3-6.66
	c-0.46-0.23-0.92-0.46-1.38-0.69c-0.86,1.35-1.68,2.73-2.6,4.03c-1.68,2.37-2.93,5.69-5.24,6.84c-6.75,3.37-10.46,8.77-12.79,15.55
	c-0.21,0.61-0.73,1.31-1.28,1.55c-1.02,0.45-4.65,3.52-4.66,4.33c-0.03,2.52-0.01,5.03-0.01,7.55c2.63-1.8,4.91-3.75,5.82-6.21
	c1.34-3.62,3.13-5.25,7.2-4.01C369.06,80.3,368.86,84.22,368.66,88.13C368.66,88.14,368.66,88.13,368.66,88.13z M295.92,96.14
	c0.46,0.99,1.49,2.11,1.3,2.95c-1.57,6.72-3.37,13.39-5.39,21.19c-1.77-2.66-2.65-3.98-3.63-5.47c-4.17,9.64-4.17,9.64-6.26,9.4
	c0.33-3.28,5.2-6.52,0.1-9.9c-0.65,1.29-1.27,2.52-1.89,3.75c-0.66-0.26-1.32-0.52-1.98-0.79c1.93-6.09,3.85-12.19,5.75-18.2
	c-14.23,1.31-11.28,14.41-15.88,23.08c-3.53-7.56-8.61-14.27-2.22-20.54c2.88-0.23,5.03,0.13,6.65-0.63
	c6.12-2.86,12.19-5.89,18.06-9.24c4.35-2.48,6.49-6.56,6.83-11.84c-3.68,1.2-7.03,2.09-10.21,3.39c-2.8,1.14-5.41,2.75-8.1,4.15
	c0.22,0.54,0.44,1.07,0.66,1.61c2.13-0.29,4.26-0.59,6.39-0.88c0.18,0.41,0.36,0.81,0.53,1.22c-3.85,2.01-7.71,4.03-11.56,6.04
	c-0.24-0.35-0.48-0.69-0.72-1.04c0.77-1.34,1.54-2.68,2.95-5.13c-2.33,0.91-3.96,1.07-4.84,1.97c-4.27,4.39-8.4,8.92-12.44,13.53
	c-0.93,1.06-1.65,2.56-1.88,3.96c-1.07,6.47-1.82,13-2.97,19.45c-0.26,1.44-1.68,2.67-2.16,3.38c-0.18-3.29-0.05-6.61-0.64-9.79
	c-0.39-2.06-1.43-4.98-2.94-5.58c-1.46-0.57-3.9,1.34-5.85,2.14c1.51-7.33,6.58-12.99,12.54-18.13c-0.44,1.87-1.3,3.56-1.94,5.32
	c-0.53,1.46-0.8,3.02-1.18,4.54c0.71,0.21,1.42,0.42,2.12,0.64c2.77-7.49,5.54-14.97,8.3-22.46c-0.38-0.29-0.76-0.59-1.14-0.88
	c-3.94,7.42-15,5.87-17.47,15.32c-0.93-0.87-1.64-1.53-2.4-2.24c1.12-1.43,2.12-2.71,3.43-4.38c-6.23,0.58-8.97,6.06-7.82,14.77
	c2.09-1.68,4.03-3.25,5.97-4.81c0.48,0.31,0.96,0.62,1.44,0.92c-4.7,11.2-9.4,22.4-14.09,33.6c-1.32-0.63-2.24-1.07-3.85-1.83
	c0.64,2.11,1.04,3.44,1.65,5.43c9.59-3.57,6.29-15.45,13.67-20.54c0.76,4.19,1.42,7.85,2.08,11.5c0.38-0.02,0.76-0.04,1.14-0.05
	c0.28-4.67,0.56-9.35,0.83-14.02c0.51,0.05,1.02,0.1,1.53,0.15c-0.38,7.32-0.77,14.65-1.15,21.97c0.34,0.06,0.68,0.12,1.02,0.18
	c0.86-1.26,1.73-2.51,2.69-3.91c1.1,1.7,2.1,3.23,2.64,4.06c9.72-3.91,8.87-13.55,12.86-20.73c-0.07,2.67-1.08,5.26-1.04,7.83
	c0.05,2.98,1.03,5.95,1.77,9.76c1.26-2.18,2.56-4.43,3.99-6.91c0.13,1.71,0.24,3.25,0.25,3.42c2.92-3.39,6.27-7.29,9.62-11.19
	c0.77,0.64,1.53,1.28,2.3,1.93c0,2.59,0,5.18,0,7.78c0.53,0.27,1.05,0.53,1.58,0.8c1.73-3.76,3.45-7.53,5.18-11.29
	c0.42,0.17,0.83,0.34,1.25,0.52c-0.29,1.32-0.58,2.63-0.99,4.45c1.49-1.19,2.5-2,3.51-2.8c-1.94,3.96,0.88,9.95-5.39,11.8
	c1.97,3.56,4.16,1.66,6.38,0.79c1.85-0.72,4.39-0.56,5.61-1.8c1.58-1.61,2.16-4.21,3.36-6.8c0.37,1.39,0.61,2.31,0.9,3.42
	c1.73-2.2,3.34-4.24,4.96-6.29c0.18,0.13,0.36,0.26,0.54,0.38c-1.24,3.08-2.49,6.15-4,9.91c5.37-2.08,9.77-7.13,15.27-1.28
	c0.84-1.98,1.44-3.38,2.06-4.83c-6.08-1.9-6.42-2.67-4.24-8.99c1.4,0.32,2.86,0.66,4.67,1.08c0-2.7,0-4.94,0-7.31
	c-1.92,0-3.66,0-5.15,0c-0.69,2.38-1.28,4.42-1.87,6.46c-0.46-0.07-0.92-0.14-1.37-0.21c-0.81-2.1-1.62-4.2-2.42-6.3
	c-0.16,0.37-0.33,0.75-0.49,1.12c-1.9-0.55-3.79-1.11-5.62-1.64c2.42-3.01,4.1-5.1,5.77-7.18c-0.36-0.33-0.72-0.66-1.08-0.99
	c-1.65,0.99-3.3,1.99-5.02,3.03c0.04-0.84,0.08-1.62,0.15-3c-1.7,1.24-2.87,2.08-4.88,3.54c2.25-4.89,4.02-8.73,5.78-12.57
	c-0.26-0.16-0.53-0.32-0.79-0.48c-1.05,0.85-2.09,1.71-3.14,2.56c-0.17-0.17-0.35-0.33-0.52-0.5c2.36-3.06,4.71-6.12,7.11-9.23
	c-3.8-2.93-7.04-1.88-10.11,0.52c-1.56,1.22-2.95,2.64-4.39,4.02c-3.34,4.64-6.67,9.29-10.01,13.93c2.53,0.09,5.15-0.29,5.76-1.61
	C293.53,104.63,294.57,100.31,295.92,96.14z M393.53,111.9c-0.92,11.54-1.72,21.55-2.52,31.56c0.65,0.04,1.3,0.08,1.95,0.12
	c0.11-2.59,0.23-5.19,0.38-8.69c0.93,2.95,1.57,4.97,2.56,8.13c1.15-19.68,1.32-18.11,7.38-20.88c0,3.7,0,7.19,0,11.46
	c4.68-8.25,5.31-15.45,2.83-22.28c-1.59-4.38-5.01-3.79-8.15-3.17c-0.59,0.12-0.72,3.35-0.76,5.16c-0.03,1.3,0.44,2.62,0.91,5.11
	C396.4,115.99,395.39,114.55,393.53,111.9z M490.44,136.14c2.56-3.42-4.2-9.34,3.66-11.56c-4.01-3.33-7.27-6.04-10.22-8.49
	c-1.73,1.38-3.22,2.47-4.61,3.69c-1.28,1.12-3.04,2.16-3.53,3.59c-0.74,2.19-0.57,4.68-0.82,7.4c3.7,0,6.88-0.67,9.55,0.21
	C486.71,131.72,488.37,134.26,490.44,136.14z M146.09,134.87c1.98-2.12,4.48-4.8,6.41-6.87c0.84,2.43,1.61,4.63,2.82,8.13
	c3.96-7.95,7.22-14.49,10.47-21.03c0.26-0.53,0.46-1.09,1.12-2.66c-2.18,1.8-3.48,2.88-5.71,4.72c1-2.03,1.49-3.03,1.98-4.03
	c-4.46,3.32-8.51,6.95-11.53,11.31c-3.05,4.41-10.99,2.09-11.87,7.94C142.02,133.27,143.72,133.94,146.09,134.87z M397.07,88.19
	c0.19,0.48,0.37,0.97,0.56,1.45c2.84-1.96,6.64-3.34,8.32-6.03c2.76-4.41,4.14-9.68,6.11-14.59c-7.06,1.23-11.62,5.5-12.6,13.65
	c-2.85-5.19,2.51-8.9,2.06-14.83c-3.32,5.77-5.99,10.41-8.05,13.98C395.02,84.57,396.04,86.38,397.07,88.19z M169.91,190.79
	c2.07-0.48,3.1-0.73,4.42-1.04c0.4,8.04-5.94,15.78-0.11,24.69c0.93-11.22,8.16-20.43,4.15-31.19c-1.35,0.32-2.49,0.59-3.63,0.86
	c-0.24-2.11-0.44-3.8-0.63-5.48c-0.51-0.04-1.02-0.09-1.52-0.13C171.76,182.28,170.94,186.05,169.91,190.79z M297.45,76.15
	c1.6,1.3,2.8,2.46,4.17,3.35c3.28,2.15,5.27,0.95,5.75-3c0.25-2.09,1.19-4.1,1.8-6.1c-1.85,0.38-4.15,0.85-6.57,1.35
	c0.41-4.62,0.79-8.92,1.31-14.75c-4.14,6.13-7.48,11.09-11.34,16.81c3.05-0.44,5.09-0.74,7.94-1.15
	C299.15,74.2,298.34,75.13,297.45,76.15z M220.05,146.19c0.76,0.3,1.53,0.61,2.29,0.91c3.84-8.39,7.96-16.67,11.34-25.24
	c1-2.55-0.1-5.93-0.24-8.92c-0.62-0.03-1.23-0.06-1.85-0.09C227.75,123.96,223.9,135.08,220.05,146.19z M290.09,56.9
	c1.85,7.64-3.15,11.24-7.63,14.79c-3.22,2.55-4.25,3.86-3.24,8.29c7.36-5.36,13.98-11.12,16.94-20.53
	C294.4,58.72,292.65,57.98,290.09,56.9z M448.61,133.49c-1.71-5.79-6.5-10.39-3.23-16.83c-0.59,0.02-1.18,0.04-1.77,0.06
	c-1.21,2.34-2.43,4.67-4,7.7c-0.84-2.72-1.44-4.66-2.18-7.05C436.26,130.32,438.57,133.93,448.61,133.49z M319.57,53.83
	c-7.49,0.38-3.11,8.22-7.77,9.78c-0.32-0.74-0.66-1.53-1.09-2.52c-2.24,1.85-4.3,3.55-6.36,5.25c0.16,0.43,0.32,0.87,0.48,1.3
	c2.66-0.32,5.32-0.63,8.17-0.97c-0.48,1.15-0.83,1.99-1.77,4.26c3.94-3.82,9.98-3,9.87-9.54C316.73,60.31,318,57.38,319.57,53.83z
	 M327.82,136.22c0.53-1.31,1.09-2.62,1.6-3.95c0.87-2.26,1.09-5.79,2.68-6.59c6.09-3.04,2.7-8.82,4.75-12.9
	C328.64,118.44,327.77,127.11,327.82,136.22z M319.54,87.24c-3.44,6.3-6.59,12.07-9.74,17.84c0.44,0.25,0.88,0.49,1.32,0.74
	c4.37-5.01,8.74-10.02,13.24-15.18C322.9,89.6,321.59,88.68,319.54,87.24z M285.61,195.47c0.78-2.22,1.46-4.48,2.38-6.64
	c0.6-1.4,2.03-2.57,2.25-3.98c0.57-3.75,0.78-7.56,0.9-11.35c0.04-1.3-0.62-2.62-0.97-3.94c-0.51,0.11-1.01,0.22-1.52,0.32
	c-0.25,3.58,0.81,8.17-1.01,10.54C283.79,185.4,286.26,190.47,285.61,195.47z M132.06,165.79c-4.14,7.65-2.23,14.62-0.13,21.6
	C132.41,180.41,135.41,173.42,132.06,165.79z M269.67,86.28c7.51-4.29,9.55-10.9,6.37-18.81C273.91,73.74,271.98,79.45,269.67,86.28
	z M214.63,191.03c-3.05,3.14-3.02,16.75,0,21.25C214.63,204.86,214.63,198.37,214.63,191.03z M257.87,185.39c0,6.74,0,12.84,0,19.39
	C262.49,200.96,262.38,193.52,257.87,185.39z M195.96,206.64c0-6.5,0-12.82,0-19.56C192.5,190.08,192.69,204.37,195.96,206.64z
	 M222.88,114.65c-1.36,5.57-5.08,10.81-1.45,16.1c1.96-4.56,3.97-9.23,6-13.95C225.97,116.11,224.55,115.44,222.88,114.65z
	 M182.36,92.4c-3.38,3.05-6.76,6.11-10.6,9.57C178.94,103.49,180.38,102.22,182.36,92.4z M228.44,111.59c7.23-0.59,9.2-4,7.53-12.92
	C233.36,103.15,230.98,107.23,228.44,111.59z M373.86,204.8c3.61-3.71,5.1-10.23,3.24-13.71
	C372.81,194.7,371.36,199.28,373.86,204.8z M291.86,6c-2.99-1.17-5.6-3.19-7.56-2.69c-2.37,0.61-4.19,3.35-6.25,5.17
	c0.31,0.3,0.62,0.59,0.93,0.89C282.7,8.4,286.42,7.42,291.86,6z M311.55,44.5c-7.58-1.41-12.54-0.88-14.88,1.59
	C300.05,48.57,306.18,47.91,311.55,44.5z M297.52,180.59c-0.87-0.13-1.73-0.27-2.6-0.4c-0.52,5.39-1.03,10.79-1.55,16.18
	c0.71,0.09,1.42,0.18,2.14,0.27C296.18,191.29,296.85,185.94,297.52,180.59z M201.93,133.68c10.4-6.51,10.63-6.89,7.79-11.55
	C207.08,126.04,204.51,129.86,201.93,133.68z M457.02,188.23c0.69,0.13,1.39,0.26,2.08,0.39c0.66-4.27,1.32-8.55,2.15-13.93
	C454.85,178.95,457.91,184,457.02,188.23z M475.9,116.2c-5.57-0.32-7.17,3.54-3.94,10.27C473.37,122.8,474.62,119.53,475.9,116.2z
	 M326.82,101.78c5.59,1.26,11.32-2.89,11.45-8.11C334.41,96.4,330.82,98.94,326.82,101.78z M381.01,77.93
	c1.44,2.4,2.64,4.4,4.46,7.43c1.24-3.88,2.09-6.54,3.24-10.17C385.49,76.34,383.43,77.07,381.01,77.93z M384.26,135.39
	c0.4-0.02,0.8-0.05,1.2-0.07c0-4.45,0-8.89,0-13.34c-0.67,0.04-1.34,0.08-2.02,0.12C383.72,126.53,383.99,130.96,384.26,135.39z
	 M326.24,43.09c-0.13-0.43-0.27-0.87-0.4-1.3c-9.8,0.1-9.8,0.1-10.39,4.59C319.29,45.21,322.76,44.15,326.24,43.09z M212.73,175.78
	c-4.49,5.29-4.05,7.48,1.02,10.51C213.39,182.58,213.06,179.18,212.73,175.78z M306.75,183.75c3.89-5.9,3.76-9.04,0-12.33
	C306.75,175.29,306.75,178.92,306.75,183.75z M237.95,187.73c-3.45,4.53-3.63,8.51,0,13.16
	C237.95,196.09,237.95,191.84,237.95,187.73z M158.75,176.51c-0.48,5.36-0.9,10.08-1.32,14.81
	C160.94,185.95,161.45,178.58,158.75,176.51z M309.63,8.21c-4.76-0.54-9.01-1.03-13.26-1.51C303.05,11.16,307.83,11.67,309.63,8.21z
	 M314.71,160.49c0.45,0.03,0.9,0.06,1.35,0.08c0.46-3.46,0.91-6.92,1.48-11.19C310.53,152.74,314.33,156.87,314.71,160.49z
	 M282.34,106.86c5.07-1.39,9.79-7.45,10.45-12.81C289.24,98.4,286.2,102.13,282.34,106.86z M432.64,140.33
	c5.91-5.62,1.49-8.8-0.92-12.27C432,131.81,432.28,135.58,432.64,140.33z M338.58,164.8c-0.33,5.45-0.61,10.06-0.92,15.2
	C340.53,177.53,340.91,170.12,338.58,164.8z M338.89,43.35c-4.12,1.07-7.89,2.05-12.63,3.29C330.78,49.55,337.39,47.15,338.89,43.35
	z M342.98,113.48c0.95,4.2,1.7,7.53,2.59,11.45C348.91,118.37,348.57,116.66,342.98,113.48z M283.82,47.11
	c2.92,1.33,5.5,2.51,8.6,3.93c-0.02,0.01,1.08-0.58,3.01-1.63C290.68,48.06,288.36,41.89,283.82,47.11z M191,168.24
	c-3.63,4.39-3.52,11.53-0.72,12.03C190.52,176.24,190.76,172.24,191,168.24z M335.6,131.79c5.28-3.94,5.72-6.68,2.83-12.23
	C337.55,123.4,336.71,126.98,335.6,131.79z M457.01,133.23c1.45-2.6,2.62-4.52,3.58-6.54c0.28-0.6,0.19-1.58-0.12-2.18
	c-0.21-0.4-1.17-0.7-1.69-0.59C456.98,124.34,455.45,130.58,457.01,133.23z M336.21,181.06c-0.69-0.13-1.39-0.25-2.08-0.38
	c-0.67,3.76-1.34,7.52-2.01,11.28c0.62,0.11,1.25,0.23,1.87,0.34C334.73,188.55,335.47,184.8,336.21,181.06z M335.17,31.08
	c7.27,3.35,10.25,2.74,10.59-1.95C342.41,29.75,339.14,30.35,335.17,31.08z M252.74,209.31c0.29,0,0.57,0,0.86,0.01
	c0-4.47,0-8.94,0-13.42c-0.29,0-0.57-0.01-0.86-0.01C252.74,200.36,252.74,204.84,252.74,209.31z M300.9,176.14
	c-0.62-0.05-1.23-0.1-1.85-0.15c0,4.08,0,8.16,0,12.24c0.27,0.03,0.54,0.06,0.82,0.08C300.21,184.25,300.56,180.19,300.9,176.14z
	 M429.86,62.84c0.25-0.67,0.5-1.33,0.74-2c-3.69-1.73-7.38-3.46-11.07-5.19c-0.27,0.57-0.54,1.13-0.81,1.7
	C422.44,59.18,426.15,61.01,429.86,62.84z M269.42,209.43c0.67-0.07,1.33-0.14,2-0.21c-0.95-3.4,1.57-7.1-0.54-10.4
	c-0.48,0.03-0.97,0.07-1.45,0.1C269.42,202.43,269.42,205.93,269.42,209.43z M365.97,36.12c-0.1-0.81-0.2-1.62-0.3-2.44
	c-3.24,0.45-6.47,0.9-9.71,1.35c0.06,0.61,0.12,1.23,0.18,1.84C359.42,36.63,362.69,36.37,365.97,36.12z"/>
<path class="st0" d="M549.92,133.77c-2.41-4.63-4.59-9.41-7.37-13.8c-0.99-1.56-3.47-2.17-5.24-3.2
	c-3.97-4.29-8.08-8.72-12.18-13.15c-0.35,0.28-0.71,0.56-1.06,0.84c0.9,1.61,1.8,3.21,2.71,4.82c-0.18,0.2-0.36,0.39-0.53,0.59
	c-0.92-0.71-1.94-1.31-2.74-2.14c-5.09-5.22-10.14-10.48-15.2-15.73c-2.33-2.42-4.62-3.27-6.74,0.06c1.83,0.18,3.71,0.37,5.59,0.56
	c-0.1,0.35-0.19,0.7-0.29,1.05c-3.23,0.99-6.46,1.97-10.45,3.19c1.77,3.06,3.18,5.5,4.58,7.93c0.67,1.98,1.35,3.97,2.02,5.95
	c-1.4-0.39-2.79-0.78-4.67-1.31c0.26,2.2,0.47,3.88,0.67,5.57c-0.23,0.14-0.46,0.29-0.68,0.43c-1.07-1.59-2.14-3.18-3.51-5.22
	c-1.03,1.32-1.94,2.5-3.15,4.06c-3.94-4.95-7.62-9.58-11.28-14.18c-0.42,0.12-0.85,0.11-0.98,0.31c-1.17,1.76-2.29,3.55-3.42,5.33
	c-1.01-1.91-1.68-4.13-3.11-5.66c-1.69-1.81-4.02-3.01-6.03-4.45c-1.62,3.65-1.62,3.65,7.84,13.66c-3.11-1.09-4.95-1.74-7.29-2.56
	c-0.89,7.67-1.77,15.28-2.71,23.33c-2.41-3.08-2.32-5.69-0.77-19.14c-1.88,3.19-3.76,6.38-5.63,9.57
	c-2.07,3.55-4.13,7.11-6.14,10.56c-5.32-10.01-4.11-20.41-1.89-30.88c-0.42-0.12-0.85-0.24-1.27-0.37c-2,4.27-4,8.54-6,12.8
	c-0.26,0.01-0.51,0.02-0.77,0.03c0-3.39,0-6.78,0-10.18c-0.48-0.07-0.95-0.14-1.43-0.21c-4.9,10.9-12.39,20.91-11.22,34.21
	c-0.58-1.33-1.16-2.65-1.9-4.32c-0.67,2.01-1.24,3.73-1.92,5.78c-1.52-0.15-3.06-0.3-4.6-0.45c-0.57-0.69-1.15-1.38-1.72-2.07
	c1.9-1.06,4.22-1.75,5.57-3.29c1.22-1.39,1.6-3.68,1.84-5.63c0.05-0.41-2.88-1.8-3.13-1.53c-1.17,1.25-1.88,2.94-2.76,4.47
	c-0.32,0.56-0.62,1.13-1.3,2.36c-0.42-1.69-0.69-2.79-1.05-4.28c-2.04,0.72-3.86,1.36-6.93,2.44c1.4-3.72,2.51-6.68,3.62-9.64
	c-0.33-0.17-0.66-0.33-0.99-0.5c-0.52,0.71-1.04,1.41-1.94,2.64c-1.57-4.06-3.03-7.85-4.62-11.98c1.47,0,2.32,0,3.45,0
	c-0.7-3.8-6.17-7.25-0.3-11.05c-1.46-1.13-2.73-2.12-4.41-3.43c-0.65,2.68-1.21,4.97-1.96,8.1c-2.65-0.81-5.39-1.65-8.23-2.52
	c2.11-4.15,8.9-3.22,8.67-8.36c2.19-1.85,4.27-3.6,6.73-5.67c1.61,4.75,3.45,10.19,5.29,15.63c0.27-0.03,0.53-0.06,0.8-0.09
	c0-3.84,0-7.67,0-12.59c2.36,1.46,3.89,2.4,5.43,3.35c-1.26,0.12-2.53,0.23-3.6,0.33c0.69,4.84,1.35,9.51,2.01,14.19
	c0.11,0,0.22-0.01,0.34-0.01c0.36-4.89,0.72-9.78,1.09-14.67c0.72-1.42,1.33-2.91,2.19-4.24c1.48-2.3,2.52-6.52,6.02-1.42
	c0.63,0.91,2.9,0.69,5.18,1.15c-0.97-2.38-1.62-3.96-2.41-5.9c1.66-0.43,3.43-3.66,4.29,0.94c0.11,0.57,1.8,0.85,2.76,1.27
	c-0.48,0.96-0.96,1.92-1.44,2.88c-2.22,3.02-4.54,5.98-6.65,9.08c-2.56,3.79-2.1,5.29,1.06,7.16c2.47-3.93,4.93-7.84,7.71-12.27
	c-0.46-0.86-1.3-2.42-2.13-3.98c1.68,0.89,3.35,1.78,5.21,2.76c0-2.19,0-4.07,0-6.42c-1.55,0.37-2.76,0.67-3.97,0.96
	c1.71-5.22-3.67-5.78-5.65-9.19c-1.36,2.18-2.45,3.93-3.69,5.92c-1.6-2.97-3.05-5.67-4.64-8.62c-3.14,3.95-6,7.53-8.86,11.11
	c-0.41-0.23-0.82-0.46-1.23-0.68c0.95-1.79,1.83-3.63,2.87-5.37c1.19-1.99,2.51-3.9,3.79-5.82c3.04-4.57,5.69-5.08,10-2.03
	c1.43,1.01,2.96,1.89,4.63,2.96c0-2.55-0.36-4.75,0.08-6.77c0.76-3.57,2.71-5.7,6.96-4.68c1.35,0.32,3.35-0.24,4.39-1.15
	c0.56-0.49,0.2-2.99-0.57-3.88c-5.58-6.54-11.41-12.8-21.49-10.07c-0.54,2.76-1.1,5.6-1.77,8.96c-1.97-1.39-3.55-2.5-5.46-3.86
	c0.61-1.37,1.23-2.75,2.01-4.5c-3.82-2.21-7.43-4.3-11.49-6.66c-1.16,5.8,4.08,5.39,5.89,7.84c-5.92,0.65-8.31-1.38-8.53-7.16
	c-0.19-5.04-4.88-10.41-9.66-11.01c-2.61-0.33-5.3-0.32-7.82-0.98c-2.45-0.64-4.73-1.94-8.3-3.46c1.79,1.92,2.78,2.99,3.73,4
	c-4.07,0.39-8.04,0.78-12.68,1.22c-3.28-5.06-9.94-5.36-15.81-7.21c-0.84-0.26-2.02,0.59-3.05,0.9c-1.68,0.51-3.64,1.81-5.01,1.35
	c-6.68-2.22-11.89,1.11-17.29,3.93c-2.18,1.14-4.35,2.31-7.05,3.75c1.7,0.36,2.76,0.59,3.9,0.83c-4.56,5.09-6.76,5.08-13.9-0.25
	c5.7-2.16,11.18-4.25,17.97-6.83c-4.38-0.26-7.45-0.45-10.53-0.63c-0.14-0.43-0.28-0.87-0.43-1.3c3.92-3,7.83-6,11.74-9.01
	c6.97,1.36,13.95,2.73,21.21,4.16c-0.41-9.08-7.66-5.67-12.14-6.93c0.25-0.93,0.87-2.16,0.6-2.41c-2.04-1.87-12.69-2.21-15.78-0.46
	c2.14,1.95,4.2,3.82,6.26,5.68c-4.55-0.14-8.39-1.49-10.3-6.33c-1.26,0.39-2.46,0.76-3.66,1.13c0.11-0.51,0.22-1.01,0.33-1.52
	c-12.48-7.73-26.85-8.46-41.11-9.67c-0.7-0.06-1.35-0.63-2.02-0.97 M453.46,119.32c4.74-4.19,9.84-7.33,8.11-14.18
	c0.68,0.85,1.37,1.71,2.35,2.94c0.13-7.85-4.06-14.95-8.47-14.86c1.34,2.69,2.67,5.35,3.99,8.01c-0.5,0.38-1.01,0.76-1.51,1.14
	c-1.95-2.01-4.12-3.85-5.78-6.08c-1.12-1.5-1.51-3.53-2.23-5.32c-1.07,1.51-2.19,3-3.18,4.56c-0.31,0.5-0.26,1.23-0.48,2.44
	c1.45-1.71,2.46-2.9,4.21-4.97C451.53,102.28,452.46,110.51,453.46,119.32z M485.26,77.21c-0.43,7.23,5.04,5.98,8.31,8.03
	c0.34-0.48,0.67-0.97,1.01-1.45C491.48,81.6,488.37,79.4,485.26,77.21z M359.13,23.02c3.55,1,7.1,2.01,11.18,3.16
	C367.01,20.97,365.14,20.27,359.13,23.02z M479.75,81.88c-0.32,0.37-0.64,0.74-0.96,1.12c4.33,3.97,8.67,7.95,13,11.92
	c0.41-0.47,0.82-0.93,1.23-1.4C488.59,89.64,484.17,85.76,479.75,81.88z"/>
<path class="st0" d="M549.92,166.71c-1.55-9.65-3.92-19.3,0-28.95C549.92,147.41,549.92,157.06,549.92,166.71z"/>
<path class="st0" d="M257.62,64.35c-2.59,3.92-4.91,7.57-7.42,11.09c-0.39,0.55-1.79,0.27-2.46,0.74
	c-4.46,3.13-8.59,6.52-7.15,13.23c-2.37-1.64-4.27-2.96-6.18-4.28c-0.32,0.47-0.64,0.94-0.96,1.41c0.97,0.69,1.94,1.37,4.18,2.96
	c-2.6,0.71-4.23,0.96-5.68,1.6c-1.29,0.57-2.78,1.32-3.51,2.43c-3.93,6.01-8.36,11.4-15.75,13.79c4.04-4.85,8.08-9.71,12.11-14.56
	c-0.29-0.29-0.59-0.59-0.88-0.88c-5.42,4.16-10.84,8.33-16.26,12.49c-0.27-0.32-0.54-0.65-0.81-0.97
	c3.78-3.59,7.57-7.17,11.35-10.76c-0.43-0.49-0.85-0.98-1.28-1.48c-1.74,0.92-3.48,1.84-6.03,3.19c0.62-1.81,0.96-2.8,1.41-4.13
	c-1.91-0.27-3.76-0.53-6.19-0.87c0.7-1.3,0.99-2.79,1.74-3.07c8.83-3.36,13.6-10.85,19.31-17.65c2.43-2.89,7.25-3.76,10.98-5.54
	c5.89,6.47,12.36,0.72,18.54,0.89C257.13,63.99,257.55,64.32,257.62,64.35z"/>
<path class="st0" d="M216.25,68.96c-1.27,0.71-2.53,1.43-3.8,2.14c2.06-5.32,3.15-10.79,9.79-12.86c3.08-0.96,5.22-4.91,8.41-8.15
	c-2.52-0.84-3.69-1.23-5.15-1.72c0-1.9,0-3.87,0-6.44c-4.87,1.69-9.29,3.26-13.73,4.76c-4.49,1.51-9,2.94-13.96,3.62
	c4.13-2.92,8.15-6,12.41-8.73c4.23-2.7,8.48-5.56,13.1-7.41c4.82-1.93,10.1-2.73,15.7-3.13c-2.79,1.56-5.42,3.71-8.41,4.53
	c-3.02,0.83-3.73,2.12-3.06,5.12c2.28,0.47,4.61,0.95,8.06,1.67c-1.47-1.96-2.22-2.97-3.42-4.56c5.7-3.6,11.36-7.16,17.01-10.73
	c0.26,0.41,0.52,0.82,0.78,1.23c-8.8,5.48-8.8,5.48-9.05,8.65c3.3-1.32,6.89-2.72,10.45-4.2c1.51-0.63,3.53-1.05,4.33-2.23
	c2.85-4.2,6.38-3.72,10.91-1.85c-3.49,1.62-6.63,3.09-10.75,5c2.87,0.24,4.59,0.39,7.28,0.61c-4.76,5.35-8.42,10.84-15.34,12.09
	c-1.35,0.24-3.05-1.46-5.59-2.79c-2.97,1.43-7.28,3.51-12.32,5.94c2.71,0.25,4.71,0.44,6.71,0.63c-5.15,1.95-6.47,8.62-12.87,9.56
	c-2.42,0.36-4.19,5.22-6.25,8.02C217.09,68.15,216.67,68.55,216.25,68.96z"/>
<path class="st0" d="M181.77,118.31c-0.52,0.4-1.04,0.79-1.66,1.27c0.74-6.66,5.02-11.65,13.19-15.28c0.23,1.77,0.44,3.45,0.82,6.4
	c4.27-4.64,7.98-8.67,11.68-12.7c0.27,0.16,0.53,0.32,0.8,0.47c-1.75,3.17-3.5,6.34-5.58,10.09c2.32-0.3,4.1-0.53,5.89-0.76
	c0.29,0.39,0.58,0.79,0.87,1.18c-3.69,3.11-7.37,6.22-12.06,10.17c-0.2-3.51-0.3-5.23-0.39-6.76c-6.92-2.7-10.73,0.82-13.74,6.08
	C181.6,118.47,181.77,118.31,181.77,118.31z"/>
<path class="st0" d="M159.18,75.65c-1.14,0.9-2.29,1.8-3.43,2.7c0.12,0.24,0.24,0.48,0.36,0.72c3.92-1.77,7.85-3.55,11.77-5.32
	c0.14,0.28,0.29,0.56,0.43,0.84c-8.29,5.57-16.57,11.13-24.86,16.7c-0.32-0.41-0.63-0.81-0.95-1.22c2.78-2.31,5.56-4.61,8.34-6.92
	c-0.33-0.42-0.66-0.84-0.98-1.26c-6.5,4.04-13,8.08-19.49,12.12c-0.34-0.56-0.68-1.13-1.02-1.69c9.72-5.95,19.44-11.9,29.17-17.86
	C158.74,74.85,158.96,75.25,159.18,75.65z"/>
<path class="st0" d="M168.21,68.73c6.66-4.54,13.32-9.08,19.98-13.63c0.42,0.37,0.84,0.74,1.25,1.1c-1.02,2.53-2.04,5.05-3.06,7.58
	c0.21,0.14,0.43,0.28,0.64,0.42c3.06-3.23,6.12-6.47,9.18-9.7c0.49,0.25,0.98,0.49,1.47,0.74c-0.74,1.66-1.1,3.7-2.3,4.9
	c-2.08,2.07-4.67,3.65-7.1,5.36c-0.5,0.35-1.5,0.72-1.85,0.47c-6.33-4.45-10.33,1.79-15.36,3.27c-0.72,0.21-1.43,0.49-2.14,0.73
	C168.69,69.57,168.45,69.15,168.21,68.73z"/>
<path class="st0" d="M91.38,105.07c6.1-2.01,12.21-4.03,18.12-5.98c-1.02,1.3-2.51,3.19-4.33,5.49c4.15-0.52,7.54-0.95,11.38-1.44
	c-7.38,8.79-16.53,1.9-24.39,4.13C91.9,106.53,91.64,105.8,91.38,105.07z"/>
<path class="st0" d="M97.76,95.73c1.48-2.26,2.68-4.09,4.65-7.1c-2.13,1.1-3.1,1.59-4.07,2.09c-0.18-0.18-0.35-0.36-0.53-0.55
	c3-3.97,6.01-7.94,9.8-12.95c-0.56,3.59-0.93,5.95-1.28,8.16c2.16-0.21,4.05-0.4,6.42-0.64C107.5,88.6,102.93,91.95,97.76,95.73z"/>
<path class="st0" d="M204.58,39.85c-9.41,4.48-19.68,6.66-29.44,10.18c-0.16-0.43-0.32-0.86-0.48-1.28
	c9.71-3.55,19.42-7.09,29.13-10.64C204.05,38.69,204.32,39.27,204.58,39.85z"/>
<path class="st0" d="M147.88,59.36c-3.46,2.17-6.2,3.9-9.84,6.19c0.73-2.4,1.15-3.82,1.87-6.18c-2.3,2.03-3.73,3.55-5.42,4.68
	c-0.71,0.47-1.95,0.15-2.95,0.19c0.31-0.94,0.33-2.33,0.98-2.74C137.01,58.64,141.67,56.24,147.88,59.36z"/>
<path class="st0" d="M216.25,68.96c0.42-0.41,0.83-0.81,1.25-1.22c2.19-2.46,4.39-4.91,6.58-7.37c0.46,0.4,0.92,0.8,1.38,1.2
	c-2.94,4.5-2.9,10.98-9.69,13.52C215.96,72.72,216.11,70.84,216.25,68.96z"/>
<path class="st0" d="M147.29,68.4c6.87-0.41,9.4-10.47,18.53-5.92c-6,2.37-12,4.74-18,7.11C147.64,69.19,147.46,68.8,147.29,68.4z"
	/>
<path class="st0" d="M26.41,107.47c-4.76,5.18-8.64,9.42-12.53,13.65c-0.34-0.32-0.68-0.65-1.02-0.97
	C15.22,114.45,18.72,109.84,26.41,107.47z"/>
<path class="st0" d="M196.08,69.24c-3.09-4.47-0.16-8.58,8.56-11.74C201.41,61.93,198.89,65.38,196.08,69.24z"/>
<path class="st0" d="M167.18,44.02c-6.66,2.3-12.44,4.29-18.27,6.3C152.06,45.19,158.14,42.93,167.18,44.02z"/>
<path class="st0" d="M316.12,177.79c-0.92,2.18-1.84,4.37-3.26,7.76c-0.91-5.2-2.16-9.17,1.54-12.29c0.79-0.66,2.52-0.2,3.82-0.26
	C317.53,174.6,316.82,176.19,316.12,177.79z"/>
<path class="st0" d="M80.27,123.05c1.14-4.37,2.28-8.74,3.57-13.69c1.53,1.43,2.36,2.2,3.5,3.27c-1.85,3.37-3.85,7.02-5.85,10.67
	C81.08,123.21,80.68,123.13,80.27,123.05z"/>
<path class="st0" d="M77.72,107.18c1.54-2.79,3.01-5.63,4.7-8.33c0.25-0.4,1.64-0.3,2.37-0.06c0.26,0.09,0.44,1.5,0.13,1.98
	c-1.6,2.55-3.37,5.01-5.09,7.49C79.13,107.9,78.43,107.54,77.72,107.18z"/>
<path class="st0" d="M182.79,81.15c-1.08-0.87-1.84-1.48-3.51-2.82c2.7,0,4.3,0,6.01,0c-1.7,5.7-5.92,7.85-11.67,7.86
	C176.56,84.58,179.49,82.96,182.79,81.15z"/>
<path class="st0" d="M177.77,73.99c2.98-2.21,5.96-4.42,8.95-6.63c0.69,1.25,1.24,2.25,1.85,3.36c-3.29,1.34-6.84,2.78-10.39,4.23
	C178.04,74.63,177.9,74.31,177.77,73.99z"/>
<path class="st0" d="M237.16,57.87c-2.74,2.2-5.47,4.4-8.35,6.71C228.36,58.5,232.09,57.33,237.16,57.87z"/>
<path class="st0" d="M76.67,96.15c-0.88-1.46-1.49-2.47-2.27-3.76c2.82-0.78,5.73-1.58,8.64-2.39c0.21,0.31,0.41,0.62,0.62,0.92
	C81.34,92.67,79,94.41,76.67,96.15z"/>
<path class="st0" d="M179.57,36.85c-1.11,5.14-2.53,6.07-9.27,6.01C173.18,40.98,176.07,39.12,179.57,36.85z"/>
<path class="st0" d="M118.08,89.89c-2.29-4.87-1.75-5.45,6.45-6.83C122.17,85.56,120.32,87.52,118.08,89.89z"/>
<path class="st0" d="M240.55,26.81c-5.32,0-10.63,0-15.95,0c0-0.28,0-0.56-0.01-0.85c5.3-0.3,10.6-0.59,15.91-0.89
	C240.52,25.65,240.54,26.23,240.55,26.81z"/>
<path class="st0" d="M247.99,50.3c-5.29,6.13-5.29,6.13-10.61,3.54C240.86,52.68,243.77,51.71,247.99,50.3z"/>
<path class="st0" d="M49.4,100.05c2.96-2.11,5.92-4.21,8.88-6.32c0.33,0.45,0.65,0.89,0.98,1.34c-2.88,2.23-5.75,4.46-8.63,6.69
	C50.22,101.19,49.81,100.62,49.4,100.05z"/>
<path class="st0" d="M295.93,96.21c1.47-1.33,2.86-2.76,4.41-3.98c3.07-2.4,6.31-3.45,10.11-0.52c-2.4,3.11-4.75,6.17-7.11,9.23
	c0.17,0.17,0.35,0.33,0.52,0.5c1.05-0.85,2.09-1.71,3.14-2.56c0.26,0.16,0.53,0.32,0.79,0.48c-1.77,3.84-3.53,7.67-5.78,12.57
	c2.01-1.46,3.18-2.31,4.88-3.54c-0.07,1.38-0.11,2.17-0.15,3c1.72-1.04,3.37-2.03,5.02-3.03c0.36,0.33,0.72,0.66,1.08,0.99
	c-1.68,2.08-3.35,4.17-5.77,7.18c1.83,0.53,3.72,1.09,5.62,1.64c0.16-0.37,0.33-0.75,0.49-1.12c0.81,2.1,1.62,4.2,2.42,6.3
	c0.46,0.07,0.92,0.14,1.37,0.21c0.59-2.04,1.18-4.09,1.87-6.46c1.49,0,3.23,0,5.15,0c0,2.37,0,4.61,0,7.31
	c-1.82-0.42-3.27-0.76-4.67-1.08c-2.18,6.33-1.85,7.1,4.24,8.99c-0.62,1.45-1.21,2.85-2.06,4.83c-5.5-5.85-9.9-0.8-15.27,1.28
	c1.52-3.76,2.76-6.84,4-9.91c-0.18-0.13-0.36-0.26-0.54-0.38c-1.61,2.05-3.23,4.1-4.96,6.29c-0.29-1.11-0.54-2.03-0.9-3.42
	c-1.2,2.59-1.77,5.19-3.36,6.8c-1.21,1.23-3.76,1.07-5.61,1.8c-2.23,0.87-4.41,2.77-6.38-0.79c6.27-1.85,3.45-7.84,5.39-11.8
	c-1.01,0.81-2.03,1.62-3.51,2.8c0.4-1.82,0.7-3.13,0.99-4.45c-0.42-0.17-0.83-0.34-1.25-0.52c-1.73,3.76-3.45,7.53-5.18,11.29
	c-0.53-0.27-1.05-0.53-1.58-0.8c0-2.59,0-5.18,0-7.78c-0.77-0.64-1.53-1.28-2.3-1.93c-3.35,3.9-6.7,7.8-9.62,11.19
	c-0.01-0.17-0.13-1.71-0.25-3.42c-1.43,2.48-2.73,4.73-3.99,6.91c-0.74-3.81-1.72-6.78-1.77-9.76c-0.04-2.57,0.97-5.17,1.04-7.83
	c-4,7.18-3.14,16.81-12.86,20.73c-0.54-0.83-1.53-2.36-2.64-4.06c-0.96,1.4-1.83,2.65-2.69,3.91c-0.34-0.06-0.68-0.12-1.02-0.18
	c0.38-7.32,0.77-14.65,1.15-21.97c-0.51-0.05-1.02-0.1-1.53-0.15c-0.28,4.67-0.56,9.35-0.83,14.02c-0.38,0.02-0.76,0.04-1.14,0.05
	c-0.66-3.65-1.32-7.3-2.08-11.5c-7.38,5.08-4.08,16.96-13.67,20.54c-0.6-1.99-1.01-3.32-1.65-5.43c1.6,0.76,2.53,1.2,3.85,1.83
	c4.7-11.2,9.4-22.4,14.09-33.6c-0.48-0.31-0.96-0.62-1.44-0.92c-1.94,1.56-3.88,3.12-5.97,4.81c-1.15-8.7,1.6-14.19,7.82-14.77
	c-1.31,1.67-2.31,2.95-3.43,4.38c0.76,0.71,1.47,1.37,2.4,2.24c2.48-9.45,13.53-7.9,17.47-15.32c0.38,0.29,0.76,0.59,1.14,0.88
	c-2.77,7.49-5.54,14.97-8.3,22.46c-0.71-0.21-1.42-0.42-2.12-0.64c0.38-1.52,0.65-3.07,1.18-4.54c0.64-1.76,1.5-3.44,1.94-5.32
	c-5.95,5.14-11.03,10.8-12.54,18.13c1.95-0.8,4.39-2.72,5.85-2.14c1.51,0.59,2.55,3.51,2.94,5.58c0.6,3.18,0.46,6.5,0.64,9.79
	c0.48-0.71,1.9-1.94,2.16-3.38c1.15-6.45,1.9-12.98,2.97-19.45c0.23-1.4,0.94-2.89,1.88-3.96c4.04-4.61,8.17-9.14,12.44-13.53
	c0.88-0.9,2.51-1.06,4.84-1.97c-1.41,2.45-2.18,3.79-2.95,5.13c0.24,0.35,0.48,0.69,0.72,1.04c3.85-2.01,7.71-4.03,11.56-6.04
	c-0.18-0.41-0.36-0.81-0.53-1.22c-2.13,0.29-4.26,0.59-6.39,0.88c-0.22-0.54-0.44-1.07-0.66-1.61c2.69-1.4,5.3-3.01,8.1-4.15
	c3.18-1.3,6.54-2.19,10.21-3.39c-0.34,5.28-2.48,9.36-6.83,11.84c-5.87,3.34-11.93,6.38-18.06,9.24c-1.63,0.76-3.77,0.4-6.65,0.63
	c-6.38,6.26-1.3,12.98,2.22,20.54c4.6-8.66,1.65-21.77,15.88-23.08c-1.9,6.01-3.83,12.11-5.75,18.2c0.66,0.26,1.32,0.52,1.98,0.79
	c0.62-1.23,1.24-2.46,1.89-3.75c5.1,3.38,0.23,6.62-0.1,9.9c2.08,0.24,2.08,0.24,6.25-9.4c0.99,1.49,1.87,2.81,3.63,5.47
	c2.02-7.8,3.82-14.47,5.39-21.19c0.2-0.84-0.83-1.96-1.3-2.95L295.93,96.21z"/>
<path class="st0" d="M368.66,88.14c0.2-3.92,0.4-7.84,0.6-11.7c-4.07-1.23-5.86,0.39-7.2,4.01c-0.91,2.46-3.2,4.41-5.82,6.21
	c0-2.52-0.02-5.03,0.01-7.55c0.01-0.81,3.64-3.88,4.66-4.33c0.56-0.25,1.07-0.95,1.28-1.55c2.33-6.78,6.04-12.18,12.79-15.55
	c2.31-1.16,3.56-4.47,5.24-6.84c0.92-1.3,1.74-2.68,2.6-4.03c0.46,0.23,0.92,0.46,1.38,0.69c-0.64,1.85-1.28,3.71-2.3,6.66
	c2.69-2.89,4.61-4.95,6.79-7.3c0.24,0.89,0.57,1.43,0.42,1.69c-5.31,9.38-10.77,18.68-15.89,28.16c-0.9,1.66-0.35,4.1,0.57,6.3
	c0.62-1.93,1.24-3.87,1.91-5.98c3.69,1.05,3.6,3.94,3.47,6.74c-0.2,4.21-0.55,8.41-0.83,12.62c0.45,0.07,0.89,0.14,1.34,0.22
	c0.48-1.23,1.37-2.46,1.38-3.7c0.05-4.29,2.89-5.21,6.27-5.93c3.16-0.67,4.06,1.01,5.45,3.46c0.9,1.58,3.89,1.97,6.25,3.04
	c-0.25,2.18-0.5,3.67-3.81,2.58c-1.68-0.55-3.97,0.73-5.97,2.15c1.27,0.31,2.53,0.62,4.82,1.18c-5.75,4.11-1.3,12.46-8.64,16.62
	c2.14-7.69,2.99-14.64-0.84-22.03c-2.67,10.81-5.16,20.9-7.65,30.99c0.21,0.05,0.42,0.1,0.63,0.15c1.63-2.95,3.26-5.9,4.89-8.85
	c0.63,0.32,1.26,0.63,1.89,0.95c-3.42,7.97-6.83,15.94-10.25,23.91c-0.2-0.05-0.41-0.09-0.61-0.14c0-6.16,0-12.32,0-18.48
	c-0.39-0.1-0.78-0.19-1.18-0.29c-1.67,3.08-3.34,6.16-5.5,10.14c-1.58-6.67-6.86-11.58-3.01-18.57c1.45,0.28,2.99,0.59,3.72,0.73
	c0.99-1.28,1.64-2.89,2.42-2.95c1.36-0.11,2.8,0.73,4.87,1.38c1.44-3.72,3.11-8.03,5.22-13.46c-3.69,1.28-6.07,2.1-8.64,2.99
	c0.2,1.67,0.37,3.11,0.54,4.46c-1.88,1.21-3.74,2.41-5.95,3.83c-1.28-1.91-3.15-4.71-4.47-6.69c-0.78,12.81-1.59,26.13-2.4,39.44
	c-0.49-0.01-0.97-0.01-1.46-0.02c0-4.96,0-9.91,0-14.87c-0.52,0.25-1.03,0.5-1.55,0.75c-0.95-1.17-2.63-2.27-2.75-3.52
	c-0.86-9.42-1.42-18.86-2.08-28.45c2.67,0.35,4.86,0.97,5.04,0.61c1.28-2.62,2.15-5.43,3.21-8.37c-0.16-0.08,0.91,0.47,2.14,1.1
	c1.37-4.32,2.65-8.34,3.93-12.36c0.37,0.03,0.74,0.05,1.11,0.08c-0.44,4.2-0.89,8.39-1.41,13.28
	C366.68,90.29,367.67,89.21,368.66,88.14c-1.19,5.54-2.38,11.09-3.57,16.64C368.96,99.74,372.2,94.57,368.66,88.14z"/>
<path class="st0" d="M393.53,111.9c1.86,2.65,2.87,4.09,4.58,6.52c-0.47-2.5-0.94-3.81-0.91-5.11c0.04-1.8,0.17-5.04,0.76-5.16
	c3.14-0.62,6.56-1.22,8.15,3.17c2.48,6.83,1.85,14.03-2.83,22.28c0-4.26,0-7.76,0-11.46c-6.05,2.77-6.23,1.2-7.38,20.88
	c-0.99-3.16-1.63-5.19-2.56-8.13c-0.15,3.5-0.27,6.09-0.38,8.69c-0.65-0.04-1.3-0.08-1.95-0.12
	C391.81,133.45,392.61,123.44,393.53,111.9z"/>
<path class="st0" d="M329.2,94.75c-1.92-2.11-1.75-3.48,0.78-5.35c3.62-2.68,7-6.02,2.4-11.28c2.17,0,3.74,0,5.72,0
	c0-1.32,0-2.64,0-4.57c1.86,1.61,3.19,2.76,4.59,3.98c0.63-1.88,1.17-3.49,1.79-5.36c0.9,1.19,1.58,2.08,2.49,3.28
	c1.49-4.74,2.9-9.24,4.7-14.97c1.34,2.7,2.06,4.16,2.87,5.8c1.75-1.27,3.31-2.39,4.86-3.51c0.26,0.24,0.52,0.48,0.78,0.71
	c-5.61,7.11-11.23,14.22-17.09,21.64c-1.53-1.78-2.88-3.34-4.37-5.07c-0.84,3.13-2.15,6.73,1.72,7.45c2.13,0.4,4.82-2.15,7.24-3.36
	c0.91,2.19-0.39,4.82-4.77,6.34c-4.54,1.58-9.21,2.77-13.83,4.13L329.2,94.75z"/>
<path class="st0" d="M401.1,62.86c-0.37,1.2-0.36,2.94-1.17,3.52c-3,2.14-6.27,3.89-9.59,5.87c0.48-1.42,1.04-3.11,2.01-5.99
	c-1.62,2.07-2.47,3.15-3.89,4.96c-1.36-3.89-2.09-6.22,1-9.57c2.61-2.83,3.23-7.48,5.1-12.26c0.83,1.58,1.53,2.94,2.23,4.27
	c0.37-1.11,0.83-2.46,1.36-4.03c-1.31-0.8-2.63-1.6-5.37-3.27c3.02-0.27,4.65-0.42,6.56-0.6c0-0.71,0-1.53,0-2.31
	c3.59-1.16,6.64-1.05,7.58,3.27c0.84,3.85-0.02,7.15-4.01,9.27c-0.27-2.91-0.52-5.63-0.77-8.36c-0.47,0.05-0.95,0.11-1.42,0.16
	c-0.79,3.28-2.02,6.54-2.18,9.85c-0.08,1.73,1.73,3.55,2.68,5.33L401.1,62.86z"/>
<path class="st0" d="M490.44,136.14c-2.07-1.88-3.73-4.42-5.98-5.16c-2.67-0.88-5.85-0.21-9.55-0.21c0.25-2.72,0.08-5.22,0.82-7.4
	c0.49-1.44,2.25-2.48,3.53-3.59c1.39-1.21,2.88-2.31,4.61-3.69c2.95,2.45,6.21,5.16,10.22,8.49
	C486.24,126.8,493,132.72,490.44,136.14z"/>
<path class="st0" d="M503.01,110.75c-0.67-1.98-1.35-3.97-2.02-5.95c0-2.89,0-5.77,0-9.69c2.84,1.79,4.2,2.64,5.64,3.55
	c0.28-1,0.5-1.77,0.9-3.14c2.87,3.93,5.48,7.51,8.1,11.09c-0.42,0.54-0.84,1.08-1.26,1.62c-2.84-1.73-5.67-3.46-9.84-6
	c4.04,6,7.3,10.86,10.83,16.1c-1.28,0.27-2.1,0.3-2.77,0.62c-4.45,2.11-7.13,0.87-8.13-4.03
	C504.16,113.49,503.5,112.14,503.01,110.75z"/>
<path class="st0" d="M146.09,134.87c-2.36-0.93-4.07-1.6-6.31-2.47c0.88-5.85,8.81-3.53,11.87-7.94c3.01-4.35,7.07-7.99,11.53-11.31
	c-0.49,1-0.98,2-1.98,4.03c2.23-1.85,3.53-2.92,5.71-4.72c-0.66,1.57-0.86,2.13-1.12,2.66c-3.25,6.54-6.51,13.07-10.47,21.03
	c-1.21-3.5-1.98-5.7-2.82-8.13C150.57,130.07,148.06,132.75,146.09,134.87z"/>
<path class="st0" d="M397.07,88.19c-1.03-1.81-2.06-3.62-3.61-6.37c2.05-3.57,4.72-8.2,8.05-13.98c0.45,5.93-4.9,9.64-2.06,14.83
	c0.98-8.15,5.54-12.42,12.6-13.65c-1.96,4.91-3.35,10.17-6.11,14.59c-1.68,2.69-5.47,4.06-8.32,6.03
	C397.44,89.16,397.26,88.67,397.07,88.19z"/>
<path class="st0" d="M169.91,190.79c1.03-4.74,1.85-8.51,2.67-12.28c0.51,0.04,1.02,0.09,1.52,0.13c0.2,1.69,0.39,3.37,0.63,5.48
	c1.14-0.27,2.28-0.54,3.63-0.86c4.01,10.75-3.22,19.97-4.15,31.19c-5.83-8.91,0.52-16.65,0.11-24.69
	C173.02,190.06,171.98,190.3,169.91,190.79z"/>
<path class="st0" d="M297.45,76.15c0.9-1.02,1.71-1.95,3.05-3.49c-2.85,0.41-4.89,0.71-7.94,1.15c3.86-5.72,7.2-10.68,11.34-16.81
	c-0.52,5.83-0.9,10.13-1.31,14.75c2.42-0.5,4.72-0.97,6.57-1.35c-0.61,2-1.55,4.01-1.8,6.1c-0.48,3.95-2.47,5.14-5.75,3
	C300.25,78.61,299.05,77.46,297.45,76.15z"/>
<path class="st0" d="M220.05,146.19c3.85-11.11,7.7-22.22,11.55-33.34c0.62,0.03,1.23,0.06,1.85,0.09c0.14,3,1.24,6.38,0.24,8.92
	c-3.38,8.57-7.5,16.85-11.34,25.24C221.58,146.8,220.82,146.49,220.05,146.19z"/>
<path class="st0" d="M290.09,56.9c2.56,1.08,4.32,1.81,6.07,2.55c-2.96,9.42-9.57,15.18-16.94,20.53c-1.01-4.43,0.02-5.74,3.24-8.29
	C286.93,68.14,291.93,64.55,290.09,56.9z"/>
<path class="st0" d="M448.61,133.49c-10.05,0.44-12.35-3.17-11.18-16.12c0.74,2.39,1.34,4.32,2.18,7.05c1.57-3.03,2.79-5.36,4-7.7
	c0.59-0.02,1.18-0.04,1.77-0.06C442.11,123.1,446.91,127.7,448.61,133.49z"/>
<path class="st0" d="M319.57,53.83c-1.57,3.55-2.84,6.48,1.53,7.58c0.11,6.54-5.93,5.71-9.87,9.54c0.95-2.27,1.29-3.11,1.77-4.26
	c-2.85,0.34-5.51,0.65-8.17,0.97c-0.16-0.43-0.32-0.87-0.48-1.3c2.06-1.7,4.12-3.41,6.36-5.25c0.43,0.99,0.77,1.77,1.09,2.52
	C316.46,62.05,312.08,54.2,319.57,53.83z"/>
<path class="st0" d="M327.82,136.22c-0.05-9.12,0.82-17.78,9.03-23.43c-2.05,4.08,1.33,9.86-4.75,12.9
	c-1.59,0.79-1.81,4.32-2.68,6.59C328.91,133.6,328.36,134.91,327.82,136.22z"/>
<path class="st0" d="M319.54,87.24c2.05,1.44,3.36,2.37,4.81,3.39c-4.5,5.16-8.87,10.17-13.24,15.18c-0.44-0.25-0.88-0.49-1.32-0.74
	C312.96,99.3,316.11,93.53,319.54,87.24z"/>
<path class="st0" d="M285.61,195.47c0.66-4.99-1.82-10.06,2.02-15.05c1.82-2.37,0.77-6.95,1.01-10.54c0.51-0.11,1.01-0.22,1.52-0.32
	c0.34,1.31,1.01,2.64,0.97,3.94c-0.12,3.79-0.33,7.6-0.9,11.35c-0.21,1.4-1.65,2.58-2.25,3.98
	C287.06,190.98,286.39,193.25,285.61,195.47z"/>
<path class="st0" d="M132.06,165.79c3.35,7.63,0.34,14.62-0.13,21.6C129.83,180.41,127.93,173.44,132.06,165.79z"/>
<path class="st0" d="M269.67,86.28c2.31-6.83,4.25-12.55,6.37-18.81C279.21,75.38,277.17,81.99,269.67,86.28z"/>
<path class="st0" d="M214.63,191.03c0,7.34,0,13.83,0,21.25C211.61,207.77,211.58,194.16,214.63,191.03z"/>
<path class="st0" d="M257.87,185.39c4.51,8.14,4.62,15.57,0,19.39C257.87,198.23,257.87,192.13,257.87,185.39z"/>
<path class="st0" d="M195.96,206.64c-3.26-2.27-3.45-16.56,0-19.56C195.96,193.83,195.96,200.14,195.96,206.64z"/>
<path class="st0" d="M222.88,114.65c1.67,0.79,3.09,1.47,4.54,2.15c-2.03,4.71-4.03,9.39-6,13.95
	C217.8,125.46,221.52,120.22,222.88,114.65z"/>
<path class="st0" d="M329.08,94.62c-3.58,4.44-7.16,8.89-10.74,13.33c-0.17-8.48,2.89-11.75,10.86-13.19
	C329.2,94.75,329.08,94.62,329.08,94.62z"/>
<path class="st0" d="M182.36,92.4c-1.97,9.83-3.42,11.09-10.6,9.57C175.6,98.5,178.98,95.45,182.36,92.4z"/>
<path class="st0" d="M228.44,111.59c2.54-4.36,4.92-8.44,7.53-12.92C237.64,107.59,235.67,110.99,228.44,111.59z"/>
<path class="st0" d="M373.86,204.8c-2.51-5.52-1.05-10.1,3.24-13.71C378.96,194.57,377.47,201.1,373.86,204.8z"/>
<path class="st0" d="M264.68,76.36c3.28-3.77,6.56-7.53,9.84-11.3c0.27,0.13,0.55,0.26,0.82,0.39c-1.53,4.05-3.06,8.09-4.15,10.98
	c-1.96,0.55-3.12,0.54-3.78,1.12c-2.17,1.91-2.77,1.17-2.66-1.31L264.68,76.36z"/>
<path class="st0" d="M291.86,6c-5.44,1.43-9.16,2.4-12.88,3.38c-0.31-0.3-0.62-0.59-0.93-0.89c2.06-1.82,3.88-4.56,6.25-5.17
	C286.26,2.81,288.86,4.83,291.86,6z"/>
<path class="st0" d="M311.55,44.5c-5.37,3.41-11.5,4.07-14.88,1.59C299.01,43.62,303.97,43.09,311.55,44.5z"/>
<path class="st0" d="M401.23,62.98c0.71-5.28,3.48-7.17,11.58-6.88c-3.4,2.08-2.49,7.86-8.31,5.16c-0.73-0.34-2.25,1.02-3.4,1.6
	C401.1,62.86,401.23,62.98,401.23,62.98z"/>
<path class="st0" d="M264.75,76.24c-0.82,0.66-1.63,1.31-2.66,2.14c-0.6-6.5,4-14.98,7.03-13.76c-1.49,3.93-2.97,7.85-4.45,11.76
	C264.68,76.36,264.75,76.24,264.75,76.24z"/>
<path class="st0" d="M297.52,180.59c-0.67,5.35-1.34,10.7-2.02,16.05c-0.71-0.09-1.42-0.18-2.14-0.27
	c0.52-5.39,1.03-10.79,1.55-16.18C295.79,180.32,296.66,180.45,297.52,180.59z"/>
<path class="st0" d="M201.93,133.68c2.58-3.82,5.15-7.64,7.79-11.55C212.56,126.79,212.33,127.18,201.93,133.68z"/>
<path class="st0" d="M295.92,96.14c-1.35,4.17-2.38,8.48-4.21,12.43c-0.61,1.32-3.24,1.7-5.76,1.61c3.34-4.64,6.67-9.29,10-13.96
	C295.93,96.21,295.92,96.14,295.92,96.14z"/>
<path class="st0" d="M457.02,188.23c0.88-4.23-2.18-9.28,4.23-13.54c-0.83,5.39-1.49,9.66-2.15,13.93
	C458.41,188.49,457.72,188.36,457.02,188.23z"/>
<path class="st0" d="M475.9,116.2c-1.28,3.33-2.53,6.6-3.94,10.27C468.74,119.74,470.33,115.88,475.9,116.2z"/>
<path class="st0" d="M326.82,101.78c4-2.83,7.6-5.38,11.45-8.11C338.14,98.89,332.41,103.04,326.82,101.78z"/>
<path class="st0" d="M381.01,77.93c2.42-0.86,4.48-1.6,7.7-2.74c-1.16,3.63-2.01,6.29-3.24,10.17
	C383.65,82.33,382.45,80.33,381.01,77.93z"/>
<path class="st0" d="M384.26,135.39c-0.27-4.43-0.54-8.86-0.81-13.29c0.67-0.04,1.34-0.08,2.02-0.12c0,4.45,0,8.89,0,13.34
	C385.06,135.34,384.66,135.36,384.26,135.39z"/>
<path class="st0" d="M326.24,43.09c-3.48,1.06-6.95,2.12-10.79,3.29c0.59-4.48,0.59-4.48,10.39-4.59
	C325.97,42.22,326.1,42.66,326.24,43.09z"/>
<path class="st0" d="M212.73,175.78c0.33,3.4,0.66,6.8,1.02,10.51C208.68,183.25,208.24,181.07,212.73,175.78z"/>
<path class="st0" d="M306.75,183.75c0-4.83,0-8.47,0-12.33C310.51,174.71,310.63,177.85,306.75,183.75z"/>
<path class="st0" d="M237.95,187.73c0,4.11,0,8.36,0,13.16C234.33,196.24,234.5,192.26,237.95,187.73z"/>
<path class="st0" d="M158.75,176.51c2.7,2.07,2.2,9.44-1.32,14.81C157.85,186.59,158.27,181.87,158.75,176.51z"/>
<path class="st0" d="M309.63,8.21c-1.8,3.46-6.58,2.95-13.26-1.51C300.62,7.18,304.87,7.66,309.63,8.21z"/>
<path class="st0" d="M314.71,160.49c-0.37-3.62-4.17-7.75,2.83-11.1c-0.56,4.27-1.02,7.73-1.48,11.19
	C315.61,160.54,315.16,160.51,314.71,160.49z"/>
<path class="st0" d="M282.34,106.86c3.86-4.73,6.9-8.46,10.45-12.81C292.12,99.41,287.41,105.47,282.34,106.86z"/>
<path class="st0" d="M432.64,140.33c-0.36-4.75-0.64-8.51-0.92-12.27C434.13,131.53,438.55,134.7,432.64,140.33z"/>
<path class="st0" d="M338.58,164.8c2.33,5.32,1.94,12.73-0.92,15.2C337.97,174.87,338.25,170.25,338.58,164.8z"/>
<path class="st0" d="M338.89,43.35c-1.5,3.8-8.11,6.2-12.63,3.29C331,45.4,334.77,44.42,338.89,43.35z"/>
<path class="st0" d="M342.98,113.48c5.59,3.18,5.94,4.9,2.59,11.45C344.68,121.01,343.93,117.68,342.98,113.48z"/>
<path class="st0" d="M283.82,47.11c4.54-5.23,6.86,0.95,11.61,2.3c-1.93,1.04-3.02,1.63-3.01,1.63
	C289.32,49.62,286.74,48.44,283.82,47.11z"/>
<path class="st0" d="M191,168.24c-0.24,4-0.48,8-0.72,12.03C187.48,179.77,187.37,172.63,191,168.24z"/>
<path class="st0" d="M335.6,131.79c1.11-4.81,1.95-8.4,2.83-12.23C341.32,125.12,340.88,127.85,335.6,131.79z"/>
<path class="st0" d="M457.01,133.23c-1.56-2.65-0.03-8.9,1.76-9.3c0.52-0.12,1.49,0.19,1.69,0.59c0.31,0.6,0.41,1.59,0.12,2.18
	C459.63,128.71,458.46,130.63,457.01,133.23z"/>
<path class="st0" d="M336.21,181.06c-0.74,3.75-1.48,7.49-2.22,11.24c-0.62-0.11-1.25-0.23-1.87-0.34
	c0.67-3.76,1.34-7.52,2.01-11.28C334.82,180.81,335.51,180.93,336.21,181.06z"/>
<path class="st0" d="M335.17,31.08c3.97-0.73,7.24-1.33,10.59-1.95C345.42,33.82,342.44,34.43,335.17,31.08z"/>
<path class="st0" d="M252.74,209.31c0-4.47,0-8.94,0-13.42c0.29,0,0.57,0.01,0.86,0.01c0,4.47,0,8.94,0,13.42
	C253.31,209.31,253.02,209.31,252.74,209.31z"/>
<path class="st0" d="M300.9,176.14c-0.35,4.06-0.69,8.11-1.04,12.17c-0.27-0.03-0.54-0.06-0.82-0.08c0-4.08,0-8.16,0-12.24
	C299.67,176.04,300.29,176.09,300.9,176.14z"/>
<path class="st0" d="M429.86,62.84c-3.71-1.83-7.42-3.66-11.14-5.49c0.27-0.57,0.54-1.13,0.81-1.7c3.69,1.73,7.38,3.46,11.07,5.19
	C430.36,61.5,430.11,62.17,429.86,62.84z"/>
<path class="st0" d="M269.42,209.43c0-3.5,0-7,0-10.5c0.48-0.03,0.97-0.07,1.45-0.1c2.11,3.3-0.41,7,0.54,10.4
	C270.75,209.29,270.09,209.36,269.42,209.43z"/>
<path class="st0" d="M439.63,88.36c0.48-0.96,0.96-1.92,1.44-2.88c0,0-0.2,0.16-0.2,0.16c1.21-0.29,2.42-0.58,3.97-0.96
	c0,2.36,0,4.24,0,6.42C442.98,90.13,441.31,89.24,439.63,88.36L439.63,88.36z"/>
<path class="st0" d="M365.97,36.12c-3.28,0.25-6.55,0.5-9.83,0.76c-0.06-0.61-0.12-1.23-0.18-1.84c3.24-0.45,6.47-0.9,9.71-1.35
	C365.77,34.5,365.87,35.31,365.97,36.12z"/>
<path class="st0" d="M453.46,119.32c-1-8.81-1.93-17.04-2.98-26.32c-1.75,2.07-2.76,3.25-4.21,4.97c0.22-1.21,0.17-1.94,0.48-2.44
	c0.98-1.57,2.11-3.05,3.18-4.56c0.72,1.79,1.11,3.83,2.23,5.32c1.66,2.23,3.83,4.07,5.78,6.08c0.5-0.38,1.01-0.76,1.51-1.14
	c-1.33-2.66-2.65-5.32-3.99-8.01c4.4-0.09,8.6,7,8.47,14.86c-0.98-1.23-1.67-2.08-2.35-2.94
	C463.3,111.99,458.2,115.14,453.46,119.32z"/>
<path class="st0" d="M334.1,17.36c-2.06-1.87-4.11-3.74-6.26-5.68c3.09-1.75,13.74-1.41,15.78,0.46c0.27,0.25-0.35,1.47-0.6,2.41
	c4.48,1.27,11.73-2.15,12.14,6.93c-7.27-1.43-14.24-2.8-21.21-4.16C333.96,17.32,334.1,17.36,334.1,17.36z"/>
<path class="st0" d="M439.63,88.35c0.84,1.56,1.67,3.12,2.13,3.98c-2.78,4.42-5.24,8.33-7.71,12.27c-3.16-1.87-3.63-3.37-1.06-7.16
	C435.09,94.33,437.41,91.38,439.63,88.35C439.63,88.36,439.63,88.35,439.63,88.35z"/>
<path class="st0" d="M485.26,77.21c3.11,2.19,6.22,4.39,9.32,6.58c-0.34,0.48-0.67,0.97-1.01,1.45
	C490.3,83.19,484.83,84.44,485.26,77.21z"/>
<path class="st0" d="M359.13,23.02c6-2.75,7.88-2.05,11.18,3.16C366.24,25.03,362.68,24.02,359.13,23.02z"/>
<path class="st0" d="M479.75,81.88c4.42,3.88,8.85,7.76,13.27,11.64c-0.41,0.47-0.82,0.93-1.23,1.4c-4.33-3.97-8.67-7.95-13-11.92
	C479.11,82.62,479.43,82.25,479.75,81.88z"/>
<path class="st0" d="M423.03,93.68c-0.36,4.89-0.72,9.78-1.09,14.67c-0.11,0-0.22,0.01-0.34,0.01c-0.66-4.68-1.33-9.35-2.01-14.19
	c1.08-0.1,2.34-0.21,3.6-0.33C423.2,93.85,423.03,93.68,423.03,93.68z"/>
<path class="st0" d="M368.66,88.14c3.54,6.43,0.3,11.59-3.57,16.64C366.28,99.23,367.47,93.68,368.66,88.14
	C368.66,88.13,368.66,88.14,368.66,88.14z"/>
</svg>
