<?xml version="1.0" encoding="utf-8"?>
<!-- Generator: Adobe Illustrator 22.1.0, SVG Export Plug-In . SVG Version: 6.00 Build 0)  -->
<svg version="1.1" id="Calque_1" xmlns="http://www.w3.org/2000/svg" xmlns:xlink="http://www.w3.org/1999/xlink" x="0px" y="0px"
	 viewBox="0 0 262.3 335.5" style="enable-background:new 0 0 262.3 335.5;" xml:space="preserve">
<style type="text/css">
	.st0{fill:#0C650C;}
</style>
<g>
	<path class="st0" d="M141.6,221.8c-0.5,10.9,1.1,21.6,3.3,32.2c3.2,15.5,4.1,31.4,6.9,46.9c0.9,5.1,2.2,10.1,3.6,15
		c0.8,2.7,1.9,5.4,4.4,7.1c1.5,1.1,2,2.6,2.5,4.2c1.1,3.3,0.6,4.7-2.7,5.6c-7.6,2-15.1,3.9-23.1,1.8c-10.6-2.8-21.7-3.6-32.5-5.7
		c-5.4-1-11.3,0-16.9,0.2c-3.5,0.1-7,0.3-10.5,0.2c-3.2-0.1-4.1-1.6-3.2-4.6c3.5-12.6,6.5-25.4,12.5-37.2
		c6.3-12.5,7.7-26.4,10.9-39.8c4-16.7,5-33.9,7.4-50.9c0.4-3.1-0.4-4.1-3.3-4.5c-8.5-1.3-16.5-3.9-22.9-10.1
		c-0.8-0.8-1.6-0.8-2.7-0.5c-8.4,1.8-16.6,0.1-24.7-1.8c-7-1.7-11.6-7.1-14.6-13.5c-1.1-2.3-2.2-3.9-4.8-4.5c-1.1-0.2-2.2-0.9-3-1.7
		c-13.2-13.6-18.6-30.2-6-47.5c1.3-1.8,1.3-3,0.5-4.8c-4.4-9.7-3.2-25.5,7.5-33c3.3-2.3,6.2-5.1,10-6.5c3.4-1.2,4.9-3.6,5.8-6.8
		c1.5-5.5,3.7-10.7,7.4-15.2c5.4-6.5,11.9-11.2,20.7-11.3c2,0,3-0.9,3.7-2.6c0.5-1.2,1.2-2.4,1.7-3.6c3.6-10.2,11.5-15.7,21.3-18.7
		c7-2.1,13.9-0.8,20.3,2.7c2.3,1.3,3.9,1.4,6.3,0.2c13.8-7.2,25.9-4.5,35.1,7.9c1.4,1.9,2.9,2.9,5.3,2.8c3.2-0.1,6.3,0.2,9.5,0.4
		c6.9,0.5,13,3.1,16,9.4c3.3,6.9,8.3,11.1,15.5,13.2c4,1.2,7.4,3.7,10.9,5.9s6,5.3,7.7,9c3.3,7.5,5.4,15.4,5.8,23.6
		c0.1,2,0.5,3.5,1.8,5.3c7.6,10.4,12.8,21.7,12.2,35.1c-0.2,5.7-2.9,10.5-4.6,15.7c-0.6,1.7-1.1,3.2-0.9,5.2
		c0.8,7.3-0.1,14.3-3.8,20.8c-1.5,2.6-3.4,5-4.8,7.6c-4,7.5-10.2,10-18.3,8.7c-1.6-0.3-3.3-0.2-5-0.6c-2.8-0.6-4.7,0-5.8,3
		c-1.1,2.8-3.5,4.3-6.4,5.1c-17.1,5.2-33.8,4.8-50.2-2.7c-2.4-1.1-3.4-1.3-3.7,1.8C142.8,200.9,142.1,211.3,141.6,221.8z M88.8,44.8
		C85,51,80.7,56.9,77.7,63.5c-0.2,0.4-0.8,0.7-0.4,1.2s0.9,0.3,1.3,0c2-1.6,4.2-2.7,5.2-5.5c1.6-4.7,3.8-9.2,5.8-13.8
		c0.3-0.4,0.6-1,0.1-1.3C89.2,43.8,89,44.3,88.8,44.8z M57,162c-2.3,1.8-2.6,4.9-4.8,6.8c-1.3,1.1-2.3,1.7-2.2-0.8
		c0-0.5,0.2-1.3,0-1.4c-4.3-2.7-1.6-5.4,0-8.1c1.1-1.9,2-3.8,2.9-5.8c0.2-0.4-0.1-0.9-0.2-1.4c-0.3,0.1-0.7,0.1-0.8,0.3
		c-1.3,2.6-4.6,3.3-5.9,5.8c-1.7,3-3.5,4.4-6.8,2.2c-0.3-0.2-0.6-0.8-1.2-0.4c-0.7,0.5-0.1,0.9,0.1,1.2c3.2,7.9,7.6,14.5,16.8,16
		c3.8,0.6,7.6,0.9,11.4,1.4c7.9,0.9,8.4,0.6,11.4-6.6c0.3-0.8,1.3-1.7,0-2.5c-1.6-1-2,0.4-2.6,1.3c-1.1,1.5-2.1,3-3.2,4.5
		c-0.4,0.6-1.2,0.9-1.8,0.6c-1-0.5-0.6-1.4-0.3-2.1c0.2-0.6,0.5-1.2,0.8-1.8c8.9-14.1,14.8-29.7,23.3-44c5-8.5,9.1-17.4,13.1-26.3
		c0.3-0.8,0.7-1.5,0.9-2.3c0.1-0.4-0.2-0.9-0.3-1.4c-0.4,0.3-0.8,0.5-1.1,0.9c-0.5,0.7-0.9,1.4-1.3,2.1
		C95.1,119.4,83.8,138,75.1,158c-1.4,3.2-2.9,6.4-5,9.2c-0.7,1-2,2.1-2.6,0.4c-1.1-2.8-2-1.1-3-0.1c-0.7,0.7-1.4,1.5-2.1,2.1
		c-0.7,0.5-1.5,0.9-2.2,0.2c-0.8-0.7-0.3-1.6,0.2-2.2c1.2-1.6,2.4-3.1,3.6-4.7c3.8-5.4,8.9-10.1,11.4-16.3
		C82,130.1,89.7,114,97.4,98c0.7-1.4,2.6-3.7,1.4-4.3c-1.7-0.7-2.3,2.2-3.1,3.5c-7.1,11.3-11.9,23.8-17.3,35.9
		C74,143,68.7,152.4,63,161.6c-0.6,1-1.3,1.8-2.4,2.4c-3.2,1.7-3.2,1.8-3.5-2.1c0.4,0.3,0.7,0.2,0.8-0.3c0-0.1-0.1-0.4-0.2-0.4
		C57.1,161.2,57,161.6,57,162z M149.4,171.2c-1.5,2-2.9,4-4.5,5.9c-0.7,0.9-1.8,1.6-3,0.7c-1.1-0.8-0.4-1.9,0.1-2.6
		c5.1-6.8,7.5-14.8,10.4-22.6c2.5-6.9,6.2-13.5,9.4-20.2c0.2-0.4,0.6-0.9,0.1-1.2s-0.8,0-1,0.6c-3.4,4.7-6.4,9.8-8.3,15.2
		c-3,8.8-8.1,16.4-12.3,24.4c-0.9,1.8-2,3.5-3.7,4.6c-1.2,0.8-2.5,0.8-2.2-1c0.2-1.3,0-2.8-1-2.9c-1.1-0.1-1.4,1.6-2.1,2.6
		c-0.7,1-1.1,2.1-1.8,3c-2.5,3.3-3.5,8.1-8.3,9.4c-0.3,0.1-0.4,0.8-0.6,1.3c0.4,0.2,0.9,0.5,1.3,0.5c3.1-0.6,6.2-1.3,8.1-4.3
		c5.3-8.2,5.9-6.5,13.1-2.9c0.4,0.2,0.9,0.5,1.3,0.7c16,8.9,32.8,9.9,50.3,5.3c2.9-0.8,5.3-2.1,6.3-5.1c1.2-3.5,3.7-4.3,7.1-3.9
		c4,0.4,8,0.6,12,0.9c2.5,0.2,4.7-0.6,6.2-2.6c5.5-7.3,11.2-14.6,11.3-24.5c0-1.3,0.7-3.5-0.1-3.6c-1.6-0.2-1.9,1.9-2.5,3.2
		c-0.3,0.8-0.3,1.6-0.6,2.4c-2.2,6.6-4.6,13.2-8.1,19.3c-0.5,0.9-1.1,1.9-2.2,1.6c-1.4-0.4-1.2-1.7-1-2.9c0.2-1.1,1.2-3.1,0.5-3.1
		c-4.1,0.1-2.2-5.4-5.7-5.6c-0.1-2.5-1-1.5-1.6-0.3c-1.3,2.7-2.9,5.3-4.7,7.6c-0.7,1-1.4,2.2-3.2,1.2c-1.9-1-6.3,0.4-7.2,2
		c-1.8,3-3.4,6.1-6.2,8.4c-1,0.8-2.9,1.8-3.2,0.1c-0.3-2.3-1.5-2.3-2.8-1.9c-2.9,0.8-3.4,0-2.1-2.5c0.4-0.7,0.7-1.5,1-2.3
		c0.3-0.7,0.3-1.6-0.2-1.8c-0.6-0.3-1.1,0.4-1.5,1c-2,3.5-4.4,6.6-7,9.7c-0.7,0.8-1.6,1.5-2.5,0.8c-1-0.7-0.7-1.8-0.3-2.7
		c0.3-0.6,0.6-1.2,1-1.7c0.5-0.9,1.7-1.6-0.2-2.6c-1.4-0.6-2.1-1.2-3,0.5c-0.7,1.5-1.7,2.9-2.7,4.1c-0.6,0.7-1.5,1.4-2.6,0.6
		c-0.8-0.6-0.6-1.5-0.2-2.2c0.8-1.8,1.7-3.6,2.5-5.4c0.4-1,1.9-2.4,0.7-3c-1.4-0.7-1.9,1.2-2.5,2.2c-2.2,3.6-2.2,3.6-6.8,4.5
		c-0.4,0.1-0.7,0.6-1.1,1c-0.8,1-1.5,2.8-3,2c-1.7-0.9-0.1-2.3,0.3-3.4c0.4-0.9-0.2-1.6-0.3-2.4c0-0.6,0.1-1.6-0.1-1.7
		c-0.7-0.2-1.1,0.5-1.5,1c-0.7,0.8-1.4,1.6-2.5,1.2c-1.5-0.6-0.3-1.6-0.3-2.5c0-0.4,0.2-1-0.4-1.2c-0.6-0.2-0.9,0.4-1.1,0.7
		c-0.5,0.7-0.9,1.4-1.4,2.1c-0.7,0.9-1.5,2.4-2.7,1.7c-1.4-0.8-0.3-2,0.2-3c0.6-1.2,1.2-2.4,1.8-3.5c0.7-1.3,2.9-3,1.1-3.9
		C149.6,167.4,150.5,170.5,149.4,171.2z M101.1,325.1c0-0.3,0-0.6,0-0.9c0.8,0,1.7-0.2,2.5,0c10.8,2.8,22,3.4,32.9,6
		c6.7,1.6,13.1,1.1,19.6-0.9c1.8-0.5,1.6-0.9,0.6-2.2c-2.1-3-4.3-6-5.2-9.6c-2.4-8.7-4.4-17.4-5.6-26.3c-1.7-13.7-3-27.4-6.1-40.9
		c-1.7-7.5-2.6-15.1-2.6-22.8c0-13.2,1.2-26.3,2.6-39.3c0.2-1.9,0.4-3.6-1.9-4.5c-2.4-0.9-3,1.1-3.7,2.3c-2.3,4-5.9,5.6-10,6.8
		c-2.3,0.6-5.1,0.1-6.5,2.9c-0.3,0.7-0.9,0.4-1.3-0.4c-1.5-2.9-4.5-1.7-6.6-1.6c-2,0-1.5,2.9-1.7,4.6c-2.1,14.6-2.7,29.5-6,44
		c-3.9,17.5-6.5,35.4-14.3,51.8c-3.2,6.8-6.2,13.6-7.5,21c-0.4,2.4,0,5-1.4,7.3c-1.4,2.2-0.5,2.8,1.8,2.8
		C87.5,325,94.3,325.1,101.1,325.1z M104.8,13.5c-7.7,1.4-15.7,5.4-20.6,14.8C81.8,33,81.7,38.7,78.8,43c-2.5,3.7-2.3,8.2-4.3,11.9
		c-0.2,0.4-0.4,0.5,0,0.8c0.5,0.3,1,0.3,1.3-0.1c0.5-0.6,1.1-1.3,1.3-2.1c2-6.8,6.6-12.2,9.6-18.5c0.4-0.9,1.5-2.4,1.8-2.1
		c2.9,2.7,2.8-0.8,3.4-1.8c1.8-3,3.3-6.1,4.9-9.2c0.6-1.2,1.2-2.8,2.6-2.8c2,0.1,0.6,1.7,0.7,2.7c0,0.2,0.2,0.4,0.2,0.4
		c5.1-0.6,1.4,2.9,2.1,4.2c0.9,1.8,0.3,3.5,0.8,5.2c1.4-1,1.7-2.7,2.7-4.1c0.1-0.1,0.1-0.3,0.3-0.4c2.2-1.6,2-6.6,4.8-5.6
		c1.8,0.7-0.6,5-1.2,7.7c-0.4,1.8-3.1,3.7,0.9,5.1c1.5,0.5,1.3,1.4,1.8,0.5c1.2-2.5,2.3-5.1,3.5-7.7c0.4-0.9,0.8-2.3,1.9-1.8
		c0.9,0.4,0.4,1.8,0.2,2.8c-0.3,1.3-1,2.5-1,3.8c0,1-1.7,2.2-0.2,2.9c1.2,0.5,1.5-1,1.9-1.8c1.3-2.5,2.5-5.1,3.8-7.5
		c0.8-1.5,1.8-4.4,3.2-3.7c2.2,1.1,0.6,3.6-0.4,5.2c-4.8,8.4-7.2,18.1-14,25.4c-1.1,1.1-1,2.1-0.4,2.2c4.1,0.5,1.7,2.9,1.1,4.3
		c-1.9,4.6-4.2,9-6.3,13.5c-0.3,0.7-1.1,1.5,0.1,2.1c0.8,0.4,1-0.6,1.4-1.1c2.5-3.4,4.6-6.9,6.7-10.5c4.3-7.7,6.1-16.4,9.9-24.3
		c2.6-5.4,4.5-11.1,6.7-16.6c0.3-0.9,0.6-2.2,1.9-1.8c1.1,0.3,0.9,1.6,0.9,2.5c-0.1,2.7-1.1,5.2-2.1,7.6c-0.3,0.7-0.4,1.5,0.2,1.8
		c0.6,0.3,1.2-0.3,1.5-0.9c1.4-3,2.8-6,4.2-9c0.8-1.8,1.7-3.6,2.6-5.4c0.4-0.8,0.9-1.5,1.8-1.4c0.2,0,0.3,1.2,0.3,1.8
		c0.1,0.6,0,1.7,0.6,1.3c1.1-0.7,1.3-2.2,1.6-3.5c0.4-1.3-0.8-1.2-1.4-1.3c-5.8-1.2-11.1,0.6-15.2,4.4c-2.2,2.1-3.3,2.1-5.3,0.5
		C117.9,14.8,112.6,13.7,104.8,13.5z M145,148.3c0,0.5-1.3,1-0.4,1.5c0.7,0.4,1.2-0.1,1.6-0.7c0.6-1,1.2-2,1.7-3
		c7.6-14,15.8-27.7,24.3-41.2c10.7-16.9,18.5-35.2,25.3-54c0.3-0.9,1-2.5,0-2.6c-3.4-0.4-2.7-3.2-3.6-5.2c-0.4-0.9-0.9-2.3-1.6-2.4
		c-1.4-0.2-1.5,1.5-2,2.4c-4.1,8-7.9,16.1-12.1,24c-9.5,18.1-19.2,36.1-28.7,54.2c-0.5,1-2.3,2.3-0.7,3.3c1.1,0.6,1.5-1.4,2-2.3
		c6.3-10.6,12.2-21.4,18.7-31.8c5.1-8.1,9.2-16.5,12.5-25.4c1.4-3.7,3.3-7.3,4.9-10.9c0.2-0.5,0.6-0.9,1.1-0.9
		c1.1-0.1,0.8,0.9,0.8,1.4c0.1,2.7-0.7,5.3-1.5,7.8c-4.6,13.6-11.3,26.2-16.6,39.5c-0.7,1.7-1.8,3.9-3.5,3.9c-2.3,0-2.7,1.5-3.5,2.9
		c-5.2,8.9-10.5,17.7-15.3,26.9C146.5,139.4,141.4,142.7,145,148.3z M177,42.4c0.2,2-0.3,3.4-0.7,4.9c-1.5,4.4-3.4,8.7-5.2,12.9
		c-1.9,4.7-5.1,8.6-7.7,12.8c-2.7,4.5-4.1,9.8-6.6,14.5c-0.5,0.9-1,2-1.8,2.3c-2.9,1.3-3.9,3.9-5,6.5c-1.7,3.8-3.4,7.6-5,11.4
		c-4.1,10.2-8.2,20.4-13,30.2c-2.5,5.1-4.9,10.3-8.8,14.4c-2.1,2.1-3.5,3.8-2.2,6.7c0.2,0.5-0.4,1.4,0.3,1.7
		c0.7,0.2,1.1-0.6,1.4-1.2c2.5-4.7,4.7-9.6,7.4-14.1c5.4-9.1,11.4-17.8,14-28.3c0.2-0.9,0.9-2.5,1.7-2.1c3.5,1.9,3.3-1.4,4.1-2.8
		c8.2-14.1,14.1-29.3,20.3-44.4c2.3-5.5,2.6-12.6,9.6-15.4c0.7-0.3,0.9-2,1.3-3.1c1.7-4.5,3-9.2,5.4-13.4c1.6-2.7,1.1-3.7-1.2-4.9
		c-1.2-0.6-2.3-1.3-3.6-1.8c-1.6-0.7-2.8-0.7-3.2,1.5C177.8,34.7,174.7,38.5,177,42.4z M229,86.2c0-5.1-1.5-9.7-2.4-14.5
		c-2.1-10.5-8.9-16.7-18.3-20.7c-2.3-1-3.4-1.4-3.5,1.9c0,5.2-1.2,10.2-2.7,15.2c-0.2,0.5-1.2,1-0.3,1.6c0.7,0.5,1.3-0.1,1.5-0.7
		c1.4-3.6,5.2-5.5,6.4-9.3c0.5-1.4,3.1-2,4.4-1.5c2,0.7,0.9,2.6,0,3.7c-3.5,4.4-3.3,10-4.8,15c-0.3,0.9-0.7,2.2,0.4,2.6
		c1.4,0.5,2-0.8,2.3-1.9c1-3.9,1.9-7.8,2.8-11.7c0.3-1.5,0.8-4.1,1.6-3.9c1.8,0.5,1.1,2.7,1.3,4.3c0,0.3,0,0.7,0,1
		c-0.8,9.3-3,18.4-5.5,27.4c-0.3,1-0.6,2.1-1.6,2.3c-3.3,0.7-2.5,4-4,5.8c-0.3,0.3-0.4,0.5-0.1,0.7c0.4,0.4,1,0.4,1.3,0
		c0.6-0.6,1-1.3,1.5-1.9c0.7-0.9,1.6-1.3,2.6-0.6c1,0.7,0.9,1.6,0.5,2.7c-0.8,2.4-2.1,4.5-3.5,6.6c-1.2,1.9-1.4,2.6,0.5,4.8
		c2,2.2,1.7,1.1,2.1-0.3c1.8-6.8,4.9-13.2,4.9-20.6c0-7.3,2.5-14.4,4.5-21.4c0.2-0.7-0.1-1.9,1.2-1.6c1,0.2,0.7,1.3,0.6,2.1
		c-1.1,7.2,0,14.6-1.6,21.8c-0.1,0.5-0.5,1.3,0.3,1.6c0.6,0.2,0.8-0.5,1.1-0.8c0.8-1.1,0.8-2.5,2-3.4c0.5,1.5,1.3,2.4,3.1,2.2
		c0.7-0.1,0.1,3.1,2,1.2c0.7-0.7,2.2-2.2,0.7-3.4C227.9,90.5,229.3,88.1,229,86.2z M148.8,41.3c-0.2,0.6-0.4,1.2-0.7,1.8
		c-6.1,10.4-10.3,21.8-16.5,32.2c-3.1,5.1-6.2,10.2-8.6,15.7c-0.3,0.6-1.4,1.3-0.1,1.9c0.6,0.3,1.2-0.3,1.6-0.9s0.7-1.1,1-1.7
		c6.8-11.9,14.9-23,20.1-35.9c3.9-9.7,8.3-19.2,12.5-28.7c0.9-2,0.6-3.3-0.8-4.8c-2-2-4-4-6.5-5.3s-3.7-1.1-4,2.1
		c-0.3,2.4-1.4,4.8-2.4,7c-2,4.9-4,9.8-6.4,14.6c-0.9,1.8-0.2,1.6,1,2c2.1,0.7,2.2-1,2.7-2c2.5-4.5,4.9-9.1,7.3-13.6
		c0.4-0.8,0.8-2.1,2-1.6c0.8,0.4,0.4,1.5,0.2,2.3c-0.8,4-2.7,7.5-4.2,11.2c-0.3,0.8-1.6,2.1,0.7,2.2
		C148.6,39.8,148.9,40.5,148.8,41.3z M242.9,124c0.1-9.1-2.6-17.2-7.2-24.8c-1.2-1.9-1.9-2.5-3.2,0c-3.3,6.7-7,13.2-8.7,20.6
		c-0.2,0.7-1.3,1.4-0.1,2c0.7,0.3,1.3-0.3,1.5-0.9c1.8-5.1,6.8-8.5,7.4-14.1c0.1-0.8,0.6-1.5,0.9-2.3c0.2-0.4,0.6-1,1.1-0.8
		c0.3,0.1,0.4,0.8,0.4,1.3c-0.3,3,0.2,5.9-0.6,8.9c-2,7.7-4.3,15.3-7.9,22.5c-1.9,3.7-3.4,7.6-5.1,11.3c-0.5,1-0.8,1.8,0.5,2.4
		c1.5,0.7,1.5-0.8,1.8-1.5c0.9-1.8,1.7-3.6,2.5-5.4c2.6-6.1,6.5-11.6,8.1-18.1c0.5-2,0.6-3.9,1-5.9c0.2-0.8,0.7-1.6,1.6-1.6
		c1,0,1.2,1,1.4,1.8c0.6,2.5,0,5-0.5,7.4c-1.2,5.2-2.5,10.3-3.6,15.5c-0.2,0.9-0.6,2.1,0.7,2.5c1,0.3,1.4-0.8,1.7-1.4
		C239.5,137.1,243.4,131.2,242.9,124z M157.9,167c0.8,0,1.1-0.6,1.4-1.2c1-1.9,1.9-3.9,2.9-5.8c4.1-7.2,6.6-15.4,13.2-21.1
		c7.5-15.4,16.3-30.1,24.6-45c2.5-4.4,3.2-9.4,4.8-14.1c0.1-0.4-0.1-0.9-0.2-1.3c-0.4,0.3-0.8,0.6-1.1,1c-0.5,0.7-0.8,1.4-1.3,2.1
		c-4.4,6.5-6.4,14.2-10,21.1c-0.8,1.6-1.4,4.2-2.8,4.5c-3.9,0.8-4.5,4.2-6.1,6.7c-2.4,3.8-4.4,7.8-6.7,11.6
		c-6.4,10.7-11.2,22.2-18.7,32.3c-0.2,0.3-1,0.6-0.3,1.1c3,2.2,0.8,4.4,0,6.6C157.4,166.1,156.8,166.7,157.9,167z M78.6,176.4
		c0.3,0.4,0.8,0.8,1.2,1.3c2.2,2.9,5.1,4.7,8.3,6.2c7.8,3.8,16.2,4.7,24.7,5.4c5.4,0.5,8.5-4.1,6.3-9.2c-0.3-0.6-0.4-1.3-1.2-1.1
		c-2.8,0.8-3-0.9-3-3c0-0.5,0.4-1.4-0.4-1.6c-0.8-0.2-0.9,0.9-1.1,1.4c-1.3,2.5-2.5,5.1-3.8,7.6c-0.4,0.8-1.6,2.2-2.1,1.5
		c-2.6-3.9-3.9-1.5-5.5,0.7c-0.6,0.8-1.4,1.9-2.4,1.4c-1.5-0.6-0.7-2-0.4-3c0.3-1.1,0.8-2.2,1.3-3.2c2.5-5.2,5.1-10.5,7.6-15.7
		c0.4-0.9,1.5-2.1,0.6-2.6c-1.3-0.7-1.7,1.1-2.2,2c-1.9,3.7-3.7,7.4-5.6,11.1c-0.9,1.8-2.5,4.1-4.3,3.2c-2-0.9-0.3-3.2,0.4-4.8
		c0.1-0.2,0.1-0.3,0.2-0.5c0.4-0.8,0.4-1.7-0.5-2.1c-0.7-0.3-1.1,0.4-1.5,0.9c-2.4,2.7-5.6,4.6-7.5,7.7c-0.5,0.8-1.6,1.3-2.6,0.5
		c-0.9-0.7-0.2-1.5,0.1-2.2c0.3-0.6,0.8-1.1,1.1-1.6c0.3-0.4,0.4-0.9-0.1-1.2c-0.2-0.1-0.6,0-0.9,0.2c-0.7,0.5-1.4,1.8-2.4,0.7
		c-0.9-0.9,0.2-1.8,0.4-2.7c0.3-1.1,0.9-2.2,1.1-3.3c0.2-1.3,0.9-3.7,0.4-3.7c-1.7-0.1-1.7,1.9-2.4,3.1
		C81,171.9,79.9,174.1,78.6,176.4z M61.1,103.4c-0.1-0.5-0.1-0.9-0.3-1.1c-0.5-0.3-0.9-0.1-1.2,0.4c-0.6,1-1.2,2-1.8,3
		c-7,11.3-13.2,23-18.3,35.3c-1.2,2.9-2.9,5.6-4.5,8.3c-0.5,0.9-2,1.3-2-0.2c0-3.6-0.4-3.9-2.2-0.7c-0.4,0.6-1,1.4-2,0.9
		c-0.9-0.5-0.8-1.4-0.5-2.2c0.7-1.9,1.5-3.7,2.2-5.5c0.4-1.1,1.4-2.2-1.3-2.2c-3,0-3.7-2.2-2.6-5s2.2-5.5,3.2-8.4
		c0.3-0.8,1.5-2,0.3-2.6c-1.3-0.7-1.4,1-1.8,1.7c-2.3,3.7-4.3,7.5-7.6,10.4c-1.5,1.3-1,2.7-0.5,4.1c2.2,5.8,5,11.2,9.1,15.9
		c1.7,1.8,3.7,2.7,6,3.2c1.6,0.4,1.3-0.6,1.9-1.6c1.8-2.8,0.1-6.1,1.6-8.8c7.4-13.9,12.9-28.7,20.9-42.3
		C60.4,105.1,60.7,104.2,61.1,103.4z M90.8,79.1c-0.3-1.2-1.5-1.7-1.1-2.9c0.2-0.9,0.8-2.5,0-2.6c-1.3-0.2-1.4,1.5-2,2.5
		c-12,19.6-22.5,39.9-32.4,60.7c-0.3,0.6-1.5,1.3-0.8,1.9c1.2,1,1.7-0.5,2.1-1.2c3.2-5.5,6.3-11,9.4-16.4
		c7.5-12.9,15.9-25.3,23-38.5C89.7,81.3,90.3,80.1,90.8,79.1z M169.2,27.8c-1.8,0-3.7,0-5.5,0c-2.1,0-2.9,0.8-2.8,3
		c0.2,3.3-0.4,6.6-1.2,9.8c-0.1,0.4-0.7,0.8-0.1,1.2c0.4,0.3,0.8,0.2,1.2-0.3c1.7-2,5.3-2.4,5.1-6.1c0-0.6,0.4-1.4,1.2-1.4
		c1.3,0.1,0.9,1.2,0.8,1.9c-0.5,5.2-2.4,10-3.9,14.9c-0.2,0.7-1.4,1.5-0.4,2.1c1.2,0.7,1.7-0.6,2.1-1.4c2.7-5.3,5.5-10.6,8.1-16
		C177.2,28.3,177.1,28.3,169.2,27.8z M145.6,92.2c-0.7,0.1-1.1,0.7-1.4,1.3c-1.7,2.9-3.3,5.8-4.9,8.7c-7.4,13.2-14.6,26.5-21.3,40.1
		c-0.2,0.5-1.3,0.8-0.5,1.6c0.6,0.5,1.3,0.1,1.7-0.5c1.7-2.9,4.7-4.6,6.2-7.7c5.1-10.3,10.5-20.4,15.7-30.6c1.8-3.5,3.4-7.2,4.7-11
		C146.1,93.4,146.1,92.7,145.6,92.2z M108.6,139.8c1.1-0.5,1.3-1.6,1.8-2.4c8.9-16.2,15.8-33.3,23.2-50.2c0.3-0.6,0.8-1.4,0.1-1.8
		c-0.7-0.5-1.1,0.4-1.4,0.9c-4.3,6.9-7.9,14.2-12.8,20.7c-0.5,0.6-0.6,1.3,0.2,1.5c1.9,0.6,1.1,1.6,0.4,2.6
		c-3.1,5.1-4.7,11-7.4,16.3c-1.7,3.4-3.2,6.9-4.7,10.4C107.9,138.4,107.5,139.4,108.6,139.8z M195.6,147.8c-0.5,2.9-1.6,5.5-2.9,8
		c-0.3,0.6-0.7,1.2,0.1,1.7c0.3,0.2,0.9-0.2,1.4-0.3c1.1-0.2,1.6-0.8,2-1.9c4.3-11.8,10.3-22.9,13.5-35.1c0.2-0.7,0.8-1.8-0.1-2.1
		c-0.8-0.2-1.2,0.9-1.6,1.7c-3.6,7.1-7.4,14.1-10.9,21.2C196.1,143.1,193.7,145.1,195.6,147.8z M150.2,68.4c0.1-0.5-0.1-1.1-0.6-1.2
		s-0.8,0.5-0.9,1c-1.5,3.9-2.4,8.3-5.4,11.1c-4.3,4-5.2,9.5-7.7,14.3c-0.2,0.3-0.9,0.7-0.2,1.2c0.5,0.3,1,0.3,1.3-0.1
		c0.5-0.4,0.9-1,1.3-1.5c5.9-6.8,8.8-15.1,11.7-23.4C150,69.4,150.1,68.9,150.2,68.4z M19.5,132.9c0.6-0.7,1.1-1.1,1.5-1.7
		c2.7-4.7,5.4-9.5,8.1-14.2c0.5-0.9,1.8-1.9,0.4-2.9c-1.5-1.1-2.7-0.4-3.8,0.9c-3.9,4.8-5.6,10.4-6.3,16.4
		C19.3,131.9,19.4,132.3,19.5,132.9z M24.8,94.9c0,0.3,0,1.2,0,2c0.1,0.8,0.2,1.5,0.4,2.3c1.1-0.2,0.9-1.2,1.2-1.9
		c2.6-5.7,4.1-11.8,7.1-17.4c0.2-0.4,0.5-0.9,0.2-1.3c-0.6-0.8-1.2-0.1-1.6,0.3C27.1,82.9,24.6,88,24.8,94.9z M200,116.4
		c0-1.1-0.7-1.3-1.2-0.9c-0.7,0.4-1.2,1.1-1.6,1.8c-4.1,7.4-8.2,14.8-12.2,22.2c-0.3,0.6-1.4,1.6-0.4,2.1c1.3,0.7,1.5-0.9,1.9-1.6
		c4.2-7.3,8.4-14.7,12.6-22C199.5,117.5,199.8,116.9,200,116.4z M100.1,149c-0.1-0.3-0.3-0.9-0.4-1.6c-0.3,0.5-0.7,1-1,1.6
		c-3,6.4-5.9,12.9-8.9,19.3c-0.2,0.5-1.1,1-0.2,1.5c0.3,0.1,1-0.2,1.2-0.5C95.1,163.2,98.6,156.7,100.1,149z M200.3,59.7
		c-0.3-1.2-0.5-2.2-0.7-3.3c-1.3,0.6-1,1.9-1.3,2.9c-1.8,5.5-3,11.1-5.6,16.3c-0.4,0.8-1,1.6-0.1,2.1c0.9,0.6,1.3-0.5,1.8-1.1
		C198.8,71.9,198.3,65.3,200.3,59.7z M28.3,109.7c1-0.4,1.4-1,1.8-1.8c1.7-3.4,3.4-6.7,5.9-9.6c0.6-0.7,1.6-2,0.8-2.6
		c-1.2-1-1.4,1-2.2,1.4c-1.2,0.7-2.9,0.4-3.2,2.4c-0.3,1.8-1.2,2.9-3.5,2.4c-1-0.2-2.5,0.8-2.1,2C26.3,105.9,27.4,107.8,28.3,109.7z
		 M64.8,142.3c0.6,2.1-1.6,3.5-1.6,5.5c0,1-1.2,2.4-0.1,2.9c0.9,0.4,1.4-1.2,1.7-2c1.3-2.7,2.5-5.4,3.5-8.1c0.6-1.8,2.4-3.2,1.9-5.3
		c-2.1,0.7-3.5,2.4-4.9,4C64.8,140.1,63.7,140.9,64.8,142.3z M49.3,78.9c0.9-0.3,1.1-1.2,1.5-1.9c2.5-5,4.9-10.1,7.2-15.2
		c0.3-0.6,1.4-1.4,0.4-2.1s-1.4,0.5-1.8,1.1c-4.1,5-4.9,11.5-7.9,17c-0.1,0.2-0.3,0.6-0.2,0.7C48.6,78.8,49,78.8,49.3,78.9z"/>
	<path class="st0" d="M114,235c2.3-0.1,1.7-2.4,2.7-3.4c0.4-0.4,0.6-1.4,1.4-1c0.6,0.3,0.6,1,0.3,1.7c-2.1,6.3-5.4,12.1-7.8,18.3
		c-0.6,1.5-1.2,3.1-1.9,4.6c-0.3,0.6-0.5,1.4,0.2,1.7c0.7,0.3,1.1-0.4,1.4-1c1.9-3.5,3.7-7,5.6-10.6c0.5-0.9,0.9-1.8,1.5-2.6
		c0.2-0.3,0.8-0.4,1.3-0.5c0.1,0.5,0.5,1,0.4,1.4c-0.6,1.6-1.2,3.1-1.9,4.6c-2,4-4.1,8-6,12c-0.6,1.2-4.1,3.2,0.6,4.2
		c1.3,0.3-0.1,2.3-0.6,3.4c-4.8,10-10.6,19.5-15.2,29.7c-0.7,1.5-1.4,3-2.1,4.5c-0.4,0.8-1.4,1.3-2.1,1c-1.2-0.5,0-1.3,0.2-2
		c2.3-6.4,5.4-12.5,8.6-18.5c0.5-1,1.1-2,1.7-3.1c0.4-0.7,1.2-1.4,0.5-2.2c-0.8-0.8-1.8-0.6-2.7,0.2c-0.7,0.6-1.1,2-2.3,1
		c-1.1-0.8,0-1.9,0.2-2.7c3.1-10.9,8.7-20.8,12.6-31.3c0.6-1.5,2-2.7,1.5-4.6L112,240c1.7-1.3,2.9-2.8,2-5.1V235z M107.9,258.9
		c0.6,0,0.9-0.3,0.9-0.8c0-0.2-0.4-0.5-0.6-0.5c-0.6-0.1-0.9,0.3-0.9,0.8C107.3,258.6,107.7,258.8,107.9,258.9z"/>
	<path class="st0" d="M102,314.4c-0.6-7.1,3.6-11.5,8.6-15.4c0.6-0.5,2.2-0.5,1.9,0.1c-1.6,2.8,1.3,5.7-0.6,8.5
		c-1.2,1.6-1.6,3.8-2.6,5.6c-0.6,1.1,0.5,4.3-3,2.3c-1.1-0.6-1.3,1.9-2.1,2.9c-0.5,0.6-0.7,1.7-1.8,1.2c-0.7-0.3-0.5-1.1-0.5-1.7
		C102,316.7,102,315.6,102,314.4z"/>
	<path class="st0" d="M109.1,223.7c0.6-1.7,0.8-3.4,1.7-4.8c1.5-2.2,0.7-4.5,0.9-6.8c0.2-2.7,4-3.7,3-7.3c-0.3-0.9,3.2-2.9,4.9-4.4
		c0.4-0.4,0.7-1.3,1.5-0.7c0.7,0.5,0.3,1.2,0,1.8c-2.4,5.4-4.9,10.8-7.4,16.2c-0.9,2.1-1.8,4.2-2.7,6.4c-0.2,0.6-0.3,1.5-1.1,1.4
		C108.6,225.4,109.5,224.3,109.1,223.7z"/>
	<path class="st0" d="M112.1,239.9c-1.9,0-2.6-0.8-2-2.6c1.3-3.4,2.5-6.8,3.9-10.2c2.7-6.4,5.5-12.7,8.3-19.1
		c0.3-0.6,0.5-1.9,1.5-1.6c1.5,0.5,0.5,1.6,0.2,2.4c-3.1,7.5-6.2,15-9.3,22.4c-0.5,1.2-1.4,2.2-0.8,3.7l0.1-0.1
		c-1.8,1.3-2.8,2.8-2,5.1L112.1,239.9z"/>
	<path class="st0" d="M100.3,303.1c-0.9-0.1-1.3-0.5-0.8-1.2c4-5.1,5.2-11.5,7.8-17.2c1.1-2.4,2.3-4.8,3.4-7.1
		c0.3-0.5,0.5-1.4,1.3-1.1c0.7,0.2,0.7,0.9,0.4,1.6c-3.3,7.9-6.7,15.8-10,23.7C102.1,302.8,101.3,303.3,100.3,303.1z"/>
	<path class="st0" d="M118.5,306.6c-2.3,4.9-2.9,10.8-6,15.8c-0.2,0.3-0.8,0.4-1.3,0.6c-0.1-0.5-0.4-1-0.3-1.4
		c1.5-5.4,2.7-10.9,5.2-16c0.3-0.6,0.7-1.2,1.5-1C118.3,304.8,118.5,305.5,118.5,306.6z"/>
	<path class="st0" d="M98.8,311.6c0.4,0.5,0.1,0.8-0.1,1.3c-0.2,0.4-0.3,0.9-0.5,1.3c0.1-0.2,0.3-0.5,0.3-0.7c0-0.6-0.2-1.2,0.4-1.7
		L98.8,311.6z"/>
	<path class="st0" d="M98.9,311.8c0.2-0.2,0.5-0.3,0.7-0.5c0,0.2-0.1,0.4-0.1,0.6c-0.2-0.1-0.4-0.2-0.7-0.3L98.9,311.8z"/>
</g>
</svg>
