<svg id="Calque_1" data-name="Calque 1" xmlns="http://www.w3.org/2000/svg" viewBox="0 0 245.65 91.24"><defs><style>.cls-1{fill:#7a918e;}.cls-2{fill:#792b50;}</style></defs><title>Logo</title><path class="cls-1" d="M21.75,24.52l-1.11-3a24.89,24.89,0,0,0,7-3.28,19.56,19.56,0,0,0,5.16-4.9,9.29,9.29,0,0,0,1.88-5.29,3.87,3.87,0,0,0-1.25-3A4.86,4.86,0,0,0,30,3.9a13.51,13.51,0,0,0-5.45,1.3A25.87,25.87,0,0,0,18.7,8.84a35.48,35.48,0,0,0-5.55,5.61A40.48,40.48,0,0,0,8.36,22a38,38,0,0,0-2.93,8,35.48,35.48,0,0,0-1,8.4q0,7.38,3.39,11.71a11.15,11.15,0,0,0,9.29,4.32,16.92,16.92,0,0,0,7.36-1.69A39,39,0,0,0,32.69,47l.63-.52.48.87a36.83,36.83,0,0,1-9.44,7,21.64,21.64,0,0,1-9.56,2.33A14.51,14.51,0,0,1,7.07,54.6a13.78,13.78,0,0,1-5.21-5.8A19.38,19.38,0,0,1,0,40a29,29,0,0,1,1.07-7.59,39.13,39.13,0,0,1,3.18-8,54.48,54.48,0,0,1,5-7.84A45.12,45.12,0,0,1,16,9.37a32.74,32.74,0,0,1,7.45-4.92,16,16,0,0,1,6.69-1.74,6.3,6.3,0,0,1,4.49,1.6,5.74,5.74,0,0,1,1.67,4.33,12.24,12.24,0,0,1-2,6.34,22,22,0,0,1-5.37,5.89A21,21,0,0,1,21.75,24.52Z"/><path class="cls-1" d="M59.12,32.26,55.4,46.72a16.13,16.13,0,0,0-.59,3.71,3.93,3.93,0,0,0,.52,2.06,1.47,1.47,0,0,0,1.26.87c.76,0,2-.94,3.79-2.81l.55.56-.43.51A38.06,38.06,0,0,1,57.28,55a3.28,3.28,0,0,1-2,1,2.62,2.62,0,0,1-2.2-1.32,5.16,5.16,0,0,1-.93-3.06,37.14,37.14,0,0,1,1-5.73l.32-1.5a30.16,30.16,0,0,1-3.91,6.52q-4.11,5.21-7.86,5.21a4.3,4.3,0,0,1-3.56-1.62,6.63,6.63,0,0,1-1.3-4.34A16.69,16.69,0,0,1,39,42.38a21.28,21.28,0,0,1,5.26-6.7A9.63,9.63,0,0,1,50.31,33,5.27,5.27,0,0,1,55,35.3l.43-1.5Zm-4.55,5.06A4.58,4.58,0,0,0,53,35a4.26,4.26,0,0,0-2.59-.85,5.89,5.89,0,0,0-3.68,1.6,15.88,15.88,0,0,0-3.55,4.44,25.25,25.25,0,0,0-2.11,5,15.38,15.38,0,0,0-.85,4.5A5.41,5.41,0,0,0,41,52.8,2.48,2.48,0,0,0,43.16,54,6,6,0,0,0,47,52.3a20.62,20.62,0,0,0,3.91-4.86,18.84,18.84,0,0,0,1.86-3.63q.87-2.49,1.5-5.06Z"/><path class="cls-1" d="M78,0,67.57,45.5,67.22,47a15.7,15.7,0,0,0-.52,3.67,3.76,3.76,0,0,0,.46,2,1.29,1.29,0,0,0,1.12.77q1.23,0,3.91-2.93l.64.56-.4.43a38.77,38.77,0,0,1-3.32,3.58,3.18,3.18,0,0,1-2,.92A2.51,2.51,0,0,1,65,54.68a5.18,5.18,0,0,1-.89-3A20.83,20.83,0,0,1,64.69,48L73.81,2Z"/><path class="cls-1" d="M89.61,0,79.22,45.5,78.87,47a16.23,16.23,0,0,0-.51,3.67,3.89,3.89,0,0,0,.45,2,1.32,1.32,0,0,0,1.13.77c.81,0,2.12-1,3.91-2.93l.63.56-.4.43a38.77,38.77,0,0,1-3.32,3.58,3.18,3.18,0,0,1-2,.92,2.5,2.5,0,0,1-2.07-1.32,5.18,5.18,0,0,1-.89-3A20.81,20.81,0,0,1,76.34,48L85.47,2Z"/><path class="cls-1" d="M94.35,32.5l-3.47,13A20.34,20.34,0,0,0,90,50.63a4.2,4.2,0,0,0,.43,2.06,1.31,1.31,0,0,0,1.15.79c.81,0,2.12-1,3.91-2.93l.63.56-.39.43a38.77,38.77,0,0,1-3.32,3.58,3.18,3.18,0,0,1-2,.92,2.46,2.46,0,0,1-2.07-1.24,5.23,5.23,0,0,1-.85-3.1A23.19,23.19,0,0,1,88,48L90.5,34.17ZM95.5,17a2.3,2.3,0,0,1,1.66.64,2.26,2.26,0,0,1,.63,1.66,2.3,2.3,0,0,1-2.25,2.33h0a2.43,2.43,0,0,1-2.33-2.33,2.12,2.12,0,0,1,.67-1.62A2.23,2.23,0,0,1,95.5,17Z"/><path class="cls-1" d="M120.19,32.26l-6,24.06a46.63,46.63,0,0,1-1.6,5.69,17.8,17.8,0,0,1-1.67,3.32,13.31,13.31,0,0,1-4.53,4.36,11.46,11.46,0,0,1-5.74,1.52,8.11,8.11,0,0,1-4.94-1.58l2-2.61a7.49,7.49,0,0,0,5.1,2.45,6.28,6.28,0,0,0,3.28-1,6.76,6.76,0,0,0,2.45-2.53,28.27,28.27,0,0,0,2.13-6.6l3-13q-5.31,9.87-10.74,9.87a4.37,4.37,0,0,1-3.58-1.68A6.53,6.53,0,0,1,98,50.2a16.85,16.85,0,0,1,2.09-7.75,21.59,21.59,0,0,1,5.28-6.69,9.7,9.7,0,0,1,6.18-2.67,6,6,0,0,1,4.66,2.1l.35-1.39Zm-4.43,4.9c-1-2-2.38-3-4.06-3s-3.51,1-5.22,2.92a21.6,21.6,0,0,0-3.57,6.14,18,18,0,0,0-1.49,6.62,5,5,0,0,0,.85,3.1,2.82,2.82,0,0,0,2.39,1.13,5.5,5.5,0,0,0,3.5-1.74,21.58,21.58,0,0,0,3.81-4.9,30.05,30.05,0,0,0,3.36-8.53Z"/><path class="cls-1" d="M122.6,44.39a24.36,24.36,0,0,0,4.54-7.66,5.58,5.58,0,0,1-3.2-5.1,4.13,4.13,0,0,1,.75-2.57,2.28,2.28,0,0,1,3.83.08,4.94,4.94,0,0,1,.75,2.83,10,10,0,0,1-.43,2.72,7.45,7.45,0,0,0,1.94.28,5.82,5.82,0,0,0,4-1.42h1.9l-.28.55a75.75,75.75,0,0,0-4.68,10.25,24.79,24.79,0,0,0-1.83,7.53,2.37,2.37,0,0,0,.47,1.52,1.45,1.45,0,0,0,1.15.61c1.08,0,2.81-1.15,5.21-3.44l.63.71a28.77,28.77,0,0,1-3.44,3A6.44,6.44,0,0,1,130,56a3,3,0,0,1-2.42-1,4.08,4.08,0,0,1-.89-2.81,17.59,17.59,0,0,1,2.29-7.5,42.26,42.26,0,0,1,2.13-3.87q1.31-2.16,3.28-5.18l.39-.55a8.79,8.79,0,0,1-2.5,1.68,7.2,7.2,0,0,1-2.75.49A6.05,6.05,0,0,1,128,37a24.3,24.3,0,0,1-4.74,8Zm5.41-10a13.14,13.14,0,0,0,.16-1.66,4.33,4.33,0,0,0-.46-2.18,1.34,1.34,0,0,0-1.16-.79.86.86,0,0,0-.69.38,1.37,1.37,0,0,0-.3.93c0,1.21.82,2.31,2.45,3.29Z"/><path class="cls-1" d="M162.38,32.26l-3.72,14.46a16.13,16.13,0,0,0-.59,3.71,3.93,3.93,0,0,0,.52,2.06,1.47,1.47,0,0,0,1.26.87c.76,0,2-.94,3.79-2.81l.55.56-.43.51A38.06,38.06,0,0,1,160.54,55a3.29,3.29,0,0,1-1.95,1,2.62,2.62,0,0,1-2.2-1.32,5.16,5.16,0,0,1-.93-3.06,37.14,37.14,0,0,1,1-5.73l.32-1.5a30.16,30.16,0,0,1-3.91,6.52q-4.11,5.21-7.86,5.21a4.3,4.3,0,0,1-3.56-1.62,6.63,6.63,0,0,1-1.3-4.34,16.69,16.69,0,0,1,2.11-7.78,21.28,21.28,0,0,1,5.26-6.7,9.65,9.65,0,0,1,6.1-2.63,5.27,5.27,0,0,1,4.66,2.29l.43-1.5Zm-4.55,5.06a4.53,4.53,0,0,0-1.6-2.35,4.14,4.14,0,0,0-2.58-.85,5.89,5.89,0,0,0-3.68,1.6,15.88,15.88,0,0,0-3.55,4.44,25.89,25.89,0,0,0-2.12,5,15.7,15.7,0,0,0-.84,4.5,5.47,5.47,0,0,0,.77,3.16A2.46,2.46,0,0,0,146.42,54a6,6,0,0,0,3.79-1.7,20.62,20.62,0,0,0,3.91-4.86A18.81,18.81,0,0,0,156,43.76q.87-2.49,1.5-5.06Z"/><path class="cls-1" d="M163.68,71.29l7.47-37.17,3.79-1.62-2.61,11.34a33.14,33.14,0,0,1,5.51-8.48,7.89,7.89,0,0,1,5.67-2.58,4.57,4.57,0,0,1,3.75,1.73,7.54,7.54,0,0,1,1.39,4.78,17.74,17.74,0,0,1-1.25,6.32,20.17,20.17,0,0,1-3.49,5.89q-4.08,4.91-9,4.9a7.69,7.69,0,0,1-5.06-1.62l-4,16.51Zm6.79-19.12c1.11,2.16,2.66,3.24,4.67,3.24q4.34,0,7.58-7.07,2.64-5.69,2.65-9.56a5.76,5.76,0,0,0-.79-3.24,2.57,2.57,0,0,0-2.25-1.14q-2.37,0-5,3.12a31.52,31.52,0,0,0-4.23,6.87c-.45,1-.86,2.07-1.24,3.2s-.75,2.29-1.09,3.48Z"/><path class="cls-1" d="M191.77,56l10.5-54,4.15-2L195.48,48.06a1.11,1.11,0,0,0,.16-.35l.91-2.06a33.74,33.74,0,0,1,5.84-9.16q3.33-3.6,6.13-3.6a3.19,3.19,0,0,1,2.41,1,3.7,3.7,0,0,1,.9,2.59,11.23,11.23,0,0,1-.43,2.57l-.4,1.66-1.22,4.82L209.42,47a16.47,16.47,0,0,0-.59,3.63,4.09,4.09,0,0,0,.44,2,1.3,1.3,0,0,0,1.14.77q1.23,0,3.91-2.93l.6.56-.36.43A36.48,36.48,0,0,1,211.22,55a3.23,3.23,0,0,1-2,.92,2.5,2.5,0,0,1-2.1-1.3,5.25,5.25,0,0,1-.87-3,22.56,22.56,0,0,1,.52-3.75l1.5-8.38a17.08,17.08,0,0,0,.35-2.76,1.74,1.74,0,0,0-.43-1.27,1.61,1.61,0,0,0-1.19-.43,5.35,5.35,0,0,0-3.35,1.72,22.44,22.44,0,0,0-3.82,4.76A41.39,41.39,0,0,0,196.5,48a37.37,37.37,0,0,0-2.14,7.09Z"/><path class="cls-1" d="M225,32.5l-3.48,13a20.34,20.34,0,0,0-.87,5.13,4.21,4.21,0,0,0,.44,2.06,1.29,1.29,0,0,0,1.14.79q1.23,0,3.91-2.93l.64.56-.4.43a38.77,38.77,0,0,1-3.32,3.58,3.18,3.18,0,0,1-2,.92A2.46,2.46,0,0,1,219,54.8a5.38,5.38,0,0,1-.85-3.1,21.5,21.5,0,0,1,.48-3.75l2.49-13.83ZM226.17,17a2.33,2.33,0,0,1,1.62,4,2.2,2.2,0,0,1-1.62.67,2.42,2.42,0,0,1-2.33-2.33,2.19,2.19,0,0,1,.67-1.62A2.25,2.25,0,0,1,226.17,17Z"/><path class="cls-1" d="M244.94,49.49l.71.59a18.65,18.65,0,0,1-4.78,4.68,9.41,9.41,0,0,1-5,1.44,6.59,6.59,0,0,1-5.13-2.13,8.06,8.06,0,0,1-1.94-5.65,15.67,15.67,0,0,1,1.88-7.21,19.32,19.32,0,0,1,4.7-6A8.61,8.61,0,0,1,241,32.82a3.83,3.83,0,0,1,2.66.94,3.2,3.2,0,0,1,1.05,2.45q0,3-3.32,6.09a27.61,27.61,0,0,1-9,5.17,4.21,4.21,0,0,0,0,.71,6.5,6.5,0,0,0,1.5,4.45,4.9,4.9,0,0,0,3.87,1.72,6.28,6.28,0,0,0,3.59-1.17A17.83,17.83,0,0,0,244.94,49.49Zm-12.64-3a21.32,21.32,0,0,0,6.55-4.22,14.58,14.58,0,0,0,2.49-3.4,7.28,7.28,0,0,0,.95-3.28c0-1.24-.57-1.86-1.7-1.86q-2.58,0-5.19,4.05a19.29,19.29,0,0,0-3.1,8.7Z"/><path class="cls-2" d="M168.91,90.93l-3.35-8.75H152.28l-3.39,8.75h-1.63L158.9,60.81l11.69,30.12Zm-10-25.83-6,15.45h11.93Z"/><path class="cls-2" d="M182.48,76.54a5.92,5.92,0,0,0-1.39-.77,4.35,4.35,0,0,0-1.55-.29,2.19,2.19,0,0,0-1.31.43A4.22,4.22,0,0,0,177.17,77a5.37,5.37,0,0,0-.72,1.41,4.11,4.11,0,0,0-.26,1.43V91h-1.64V74.05h1.64v2.29a6.41,6.41,0,0,1,1.39-1.72,2.68,2.68,0,0,1,1.88-.77,6.41,6.41,0,0,1,2.08.28,7.83,7.83,0,0,1,1.84,1Z"/><path class="cls-2" d="M200.58,90.93V88a8.73,8.73,0,1,1-6.74-14.22A8.48,8.48,0,0,1,200.58,77v-3h1.68V90.93Zm-1.76-13.41a7,7,0,1,0,.08,9.9,7.07,7.07,0,0,0,2-4.9,6.82,6.82,0,0,0-2.09-5Z"/><path class="cls-2" d="M221.58,88.68a8.78,8.78,0,0,1-12.43-.09,7.07,7.07,0,0,1-.68-.77v3.11h-1.68V60.69h1.68V77.2a8.77,8.77,0,0,1,12.3-1.57,9.72,9.72,0,0,1,.77.67,8.86,8.86,0,0,1,0,12.38Zm-1.22-11.16a7,7,0,1,0,2.08,5A6.87,6.87,0,0,0,220.36,77.52Z"/><path class="cls-2" d="M228.69,82.14a7.7,7.7,0,0,0,1.84,5.43,6.84,6.84,0,0,0,5.27,2.05,8.09,8.09,0,0,0,3.11-.57,7.06,7.06,0,0,0,3.14-3l1.52.7a8.19,8.19,0,0,1-4.91,4.08,9,9,0,0,1-2.86.41,8.87,8.87,0,0,1-6.29-15,8.49,8.49,0,0,1,6.29-2.5A8.67,8.67,0,0,1,242,76.09a7.94,7.94,0,0,1,2.5,6Zm11.53-5.36a7.38,7.38,0,0,0-4.42-1.38q-5.22,0-6.86,5.11h13.69a5.71,5.71,0,0,0-2.41-3.73Z"/></svg>