<?xml version="1.0" encoding="utf-8"?>
<!-- Generator: Adobe Illustrator 22.0.1, SVG Export Plug-In . SVG Version: 6.00 Build 0)  -->
<svg version="1.1" id="Calque_1" xmlns="http://www.w3.org/2000/svg" xmlns:xlink="http://www.w3.org/1999/xlink" x="0px" y="0px"
	 viewBox="0 0 245.6 91.2" style="enable-background:new 0 0 245.6 91.2;" xml:space="preserve">
<style type="text/css">
	.st0{fill:#7A918E;}
	.st1{fill:#792B50;}
</style>
<title>logop</title>
<path class="st0" d="M21.7,24.5l-1.1-3c2.5-0.7,4.9-1.8,7-3.3c2-1.3,3.8-3,5.2-4.9C34,11.8,34.6,10,34.7,8c0-1.1-0.4-2.2-1.2-3
	c-0.9-0.8-2.2-1.2-3.4-1.1c-1.9,0.1-3.7,0.5-5.5,1.3c-2.1,0.9-4.1,2.2-5.9,3.6c-2,1.7-3.9,3.5-5.5,5.6c-1.9,2.3-3.5,4.9-4.8,7.5
	c-1.3,2.6-2.3,5.2-2.9,8c-0.7,2.8-1,5.6-1,8.4c0,4.9,1.1,8.8,3.4,11.7c2.2,2.9,5.7,4.5,9.3,4.3c2.5,0,5.1-0.6,7.4-1.7
	c3-1.5,5.7-3.5,8.2-5.7l0.6-0.5l0.5,0.9c-2.8,2.8-5.9,5.2-9.4,7c-3,1.5-6.2,2.3-9.6,2.3c-2.7,0-5.4-0.7-7.7-2.1
	c-2.3-1.4-4.1-3.4-5.2-5.8C0.6,46.1-0.1,43,0,40c0-2.6,0.4-5.1,1.1-7.6c0.8-2.8,1.8-5.5,3.2-8c1.4-2.8,3.1-5.4,5-7.8
	c2-2.6,4.2-5.1,6.8-7.2c2.2-2,4.8-3.6,7.5-4.9c2.1-1.1,4.4-1.7,6.7-1.7c1.6-0.1,3.3,0.5,4.5,1.6c1.1,1.1,1.8,2.7,1.7,4.3
	c-0.1,2.3-0.8,4.5-2,6.3c-1.4,2.3-3.2,4.3-5.4,5.9C26.8,22.5,24.4,23.8,21.7,24.5z"/>
<path class="st0" d="M59.1,32.3l-3.7,14.5c-0.3,1.2-0.5,2.5-0.6,3.7c0,0.7,0.2,1.4,0.5,2.1c0.2,0.5,0.7,0.8,1.3,0.9
	c0.8,0,2-0.9,3.8-2.8l0.6,0.6l-0.4,0.5c-1,1.2-2.1,2.3-3.2,3.4c-0.5,0.6-1.2,0.9-2,1c-0.9,0-1.7-0.5-2.2-1.3c-0.6-0.9-1-2-0.9-3.1
	c0.2-1.9,0.5-3.8,1-5.7l0.3-1.5c-1,2.3-2.3,4.5-3.9,6.5c-2.7,3.5-5.4,5.2-7.9,5.2c-1.4,0.1-2.7-0.5-3.6-1.6
	c-0.9-1.3-1.4-2.8-1.3-4.3c0.1-2.7,0.8-5.4,2.1-7.8c1.3-2.6,3.1-4.8,5.3-6.7c1.6-1.6,3.8-2.5,6.1-2.7c1.9-0.1,3.7,0.8,4.7,2.3
	l0.4-1.5L59.1,32.3z M54.6,37.3c-0.3-0.9-0.8-1.7-1.6-2.3c-0.7-0.6-1.7-0.9-2.6-0.8c-1.4,0.1-2.7,0.7-3.7,1.6
	c-1.4,1.3-2.6,2.8-3.5,4.4c-0.9,1.6-1.6,3.3-2.1,5c-0.5,1.5-0.8,3-0.8,4.5c-0.1,1.1,0.2,2.2,0.8,3.1c0.5,0.8,1.3,1.2,2.2,1.2
	c1.4-0.1,2.8-0.7,3.8-1.7c1.5-1.4,2.9-3,3.9-4.9c0.8-1.1,1.4-2.4,1.9-3.6c0.6-1.7,1.1-3.3,1.5-5.1L54.6,37.3z"/>
<path class="st0" d="M78,0L67.6,45.5L67.2,47c-0.3,1.2-0.5,2.4-0.5,3.7c0,0.7,0.1,1.4,0.5,2c0.2,0.4,0.6,0.7,1.1,0.8
	c0.8,0,2.1-1,3.9-2.9l0.6,0.6l-0.4,0.4c-1,1.3-2.1,2.5-3.3,3.6c-0.5,0.5-1.2,0.9-2,0.9c-0.9,0-1.7-0.5-2.1-1.3
	c-0.6-0.9-0.9-1.9-0.9-3c0.1-1.2,0.3-2.5,0.5-3.7l9.1-46L78,0z"/>
<path class="st0" d="M89.6,0L79.2,45.5L78.9,47c-0.3,1.2-0.5,2.4-0.5,3.7c0,0.7,0.1,1.4,0.4,2c0.2,0.4,0.6,0.7,1.1,0.8
	c0.8,0,2.1-1,3.9-2.9l0.6,0.6l-0.4,0.4c-1,1.3-2.1,2.5-3.3,3.6c-0.5,0.5-1.2,0.9-2,0.9c-0.9,0-1.7-0.5-2.1-1.3
	c-0.6-0.9-0.9-1.9-0.9-3c0.1-1.2,0.3-2.5,0.5-3.7l9.1-46L89.6,0z"/>
<path class="st0" d="M94.3,32.5l-3.5,13c-0.5,1.7-0.8,3.4-0.9,5.1c0,0.7,0.1,1.4,0.4,2.1c0.2,0.5,0.6,0.8,1.2,0.8
	c0.8,0,2.1-1,3.9-2.9l0.6,0.6l-0.4,0.4c-1,1.3-2.1,2.5-3.3,3.6c-0.5,0.5-1.2,0.9-2,0.9c-0.9,0-1.6-0.5-2.1-1.2
	c-0.6-0.9-0.9-2-0.8-3.1c0.1-1.2,0.2-2.5,0.5-3.7l2.5-13.8L94.3,32.5z M95.5,17c0.6,0,1.2,0.2,1.7,0.6c0.4,0.4,0.7,1,0.6,1.7
	c0,1.3-1,2.3-2.2,2.3c0,0,0,0,0,0c-0.6,0-1.2-0.3-1.6-0.7c-0.4-0.4-0.7-1-0.7-1.6c0-0.6,0.2-1.2,0.7-1.6C94.3,17.2,94.9,17,95.5,17z
	"/>
<path class="st0" d="M120.2,32.3l-6.1,24.1c-0.4,1.9-0.9,3.8-1.6,5.7c-0.4,1.2-1,2.3-1.7,3.3c-1.1,1.8-2.7,3.3-4.5,4.4
	c-1.7,1-3.7,1.5-5.7,1.5c-1.8,0-3.5-0.5-4.9-1.6l2-2.6c1.3,1.5,3.1,2.3,5.1,2.4c1.2,0,2.3-0.4,3.3-1c1-0.6,1.9-1.5,2.4-2.5
	c1-2.1,1.7-4.3,2.1-6.6l3-13c-3.5,6.6-7.1,9.9-10.7,9.9c-1.4,0-2.7-0.6-3.6-1.7c-0.9-1.2-1.4-2.8-1.3-4.3c0.1-2.7,0.8-5.4,2.1-7.8
	c1.3-2.6,3.1-4.8,5.3-6.7c1.7-1.6,3.9-2.5,6.2-2.7c1.8,0,3.5,0.7,4.7,2.1l0.3-1.4L120.2,32.3z M115.8,37.2c-1-2-2.4-3-4.1-3
	s-3.5,1-5.2,2.9c-1.5,1.8-2.7,3.9-3.6,6.1c-0.9,2.1-1.4,4.3-1.5,6.6c-0.1,1.1,0.2,2.2,0.8,3.1c0.6,0.7,1.5,1.2,2.4,1.1
	c1.3-0.1,2.6-0.8,3.5-1.7c1.5-1.4,2.8-3.1,3.8-4.9c1.6-2.7,2.7-5.5,3.4-8.5L115.8,37.2z"/>
<path class="st0" d="M122.6,44.4c2-2.2,3.5-4.8,4.5-7.7c-2-0.9-3.2-2.9-3.2-5.1c0-0.9,0.2-1.8,0.8-2.6c0.4-0.6,1.1-1,1.9-1
	c0.8,0,1.5,0.4,1.9,1.1c0.5,0.8,0.8,1.8,0.8,2.8c0,0.9-0.2,1.8-0.4,2.7c0.6,0.2,1.3,0.3,1.9,0.3c1.5,0,2.9-0.5,4-1.4h1.9l-0.3,0.5
	c-1.8,3.3-3.4,6.7-4.7,10.2c-1,2.4-1.6,4.9-1.8,7.5c0,0.5,0.1,1.1,0.5,1.5c0.3,0.4,0.7,0.6,1.1,0.6c1.1,0,2.8-1.2,5.2-3.4l0.6,0.7
	c-1.1,1.1-2.2,2.1-3.4,3c-1.1,1-2.4,1.6-3.9,1.7c-0.9,0.1-1.8-0.3-2.4-1c-0.6-0.8-1-1.8-0.9-2.8c0.2-2.6,1-5.2,2.3-7.5
	c0.5-1.1,1.3-2.4,2.1-3.9c0.9-1.4,2-3.2,3.3-5.2l0.4-0.5c-0.7,0.7-1.6,1.3-2.5,1.7c-0.9,0.3-1.8,0.5-2.8,0.5c-0.5,0-1-0.1-1.5-0.3
	c-1,2.9-2.7,5.7-4.7,8L122.6,44.4z M128,34.4c0.1-0.5,0.1-1.1,0.2-1.7c0-0.8-0.1-1.5-0.5-2.2c-0.2-0.5-0.7-0.8-1.2-0.8
	c-0.3,0-0.5,0.2-0.7,0.4c-0.2,0.3-0.3,0.6-0.3,0.9C125.6,32.3,126.4,33.4,128,34.4L128,34.4z"/>
<path class="st0" d="M162.4,32.3l-3.7,14.5c-0.3,1.2-0.5,2.5-0.6,3.7c0,0.7,0.2,1.4,0.5,2.1c0.2,0.5,0.7,0.8,1.3,0.9
	c0.8,0,2-0.9,3.8-2.8l0.6,0.6l-0.4,0.5c-1,1.2-2.1,2.3-3.2,3.4c-0.5,0.5-1.2,0.9-1.9,1c-0.9,0-1.7-0.5-2.2-1.3c-0.6-0.9-1-2-0.9-3.1
	c0.2-1.9,0.5-3.8,1-5.7l0.3-1.5c-1,2.3-2.3,4.5-3.9,6.5c-2.7,3.5-5.4,5.2-7.9,5.2c-1.4,0.1-2.7-0.5-3.6-1.6
	c-0.9-1.3-1.4-2.8-1.3-4.3c0.1-2.7,0.8-5.4,2.1-7.8c1.3-2.6,3.1-4.8,5.3-6.7c1.7-1.6,3.8-2.5,6.1-2.6c1.8-0.1,3.6,0.8,4.7,2.3
	l0.4-1.5L162.4,32.3z M157.8,37.3c-0.3-0.9-0.8-1.8-1.6-2.3c-0.7-0.6-1.6-0.9-2.6-0.8c-1.4,0.1-2.7,0.7-3.7,1.6
	c-1.4,1.3-2.6,2.8-3.6,4.4c-0.9,1.6-1.6,3.3-2.1,5c-0.5,1.5-0.8,3-0.8,4.5c-0.1,1.1,0.2,2.2,0.8,3.2c0.5,0.8,1.3,1.2,2.2,1.2
	c1.4-0.1,2.8-0.7,3.8-1.7c1.5-1.4,2.9-3,3.9-4.9c0.8-1.2,1.4-2.4,1.9-3.7c0.6-1.7,1.1-3.3,1.5-5.1L157.8,37.3z"/>
<path class="st0" d="M163.7,71.3l7.5-37.2l3.8-1.6l-2.6,11.3c1.4-3.1,3.3-5.9,5.5-8.5c1.5-1.6,3.5-2.5,5.7-2.6
	c1.5-0.1,2.8,0.6,3.8,1.7c1,1.4,1.5,3.1,1.4,4.8c0,2.2-0.4,4.3-1.2,6.3c-0.8,2.1-2,4.1-3.5,5.9c-2.7,3.3-5.7,4.9-9,4.9
	c-1.8,0.1-3.6-0.5-5.1-1.6l-4,16.5H163.7z M170.5,52.2c1.1,2.2,2.7,3.2,4.7,3.2c2.9,0,5.4-2.4,7.6-7.1c1.8-3.8,2.6-7,2.6-9.6
	c0.1-1.1-0.2-2.3-0.8-3.2c-0.5-0.7-1.4-1.2-2.2-1.1c-1.6,0-3.2,1-5,3.1c-1.7,2.1-3.1,4.4-4.2,6.9c-0.4,1-0.9,2.1-1.2,3.2
	s-0.8,2.3-1.1,3.5L170.5,52.2z"/>
<path class="st0" d="M191.8,56l10.5-54l4.1-2l-10.9,48.1c0.1-0.1,0.1-0.2,0.2-0.3l0.9-2.1c1.4-3.3,3.4-6.4,5.8-9.2
	c2.2-2.4,4.3-3.6,6.1-3.6c0.9,0,1.8,0.3,2.4,1c0.6,0.7,0.9,1.6,0.9,2.6c0,0.9-0.2,1.7-0.4,2.6l-0.4,1.7l-1.2,4.8l-0.4,1.5
	c-0.3,1.2-0.5,2.4-0.6,3.6c0,0.7,0.1,1.4,0.4,2c0.2,0.5,0.6,0.8,1.1,0.8c0.8,0,2.1-1,3.9-2.9l0.6,0.6l-0.4,0.4
	c-1,1.3-2.1,2.5-3.3,3.6c-0.5,0.5-1.2,0.9-2,0.9c-0.9,0-1.7-0.5-2.1-1.3c-0.6-0.9-0.9-1.9-0.9-3c0.1-1.3,0.2-2.5,0.5-3.8l1.5-8.4
	c0.2-0.9,0.3-1.8,0.4-2.8c0-0.5-0.1-0.9-0.4-1.3c-0.3-0.3-0.8-0.5-1.2-0.4c-1.3,0.1-2.5,0.8-3.4,1.7c-1.5,1.4-2.8,3-3.8,4.8
	c-1.3,2.1-2.4,4.2-3.3,6.5c-0.9,2.3-1.7,4.7-2.1,7.1L191.8,56z"/>
<path class="st0" d="M225,32.5l-3.5,13c-0.5,1.7-0.8,3.4-0.9,5.1c0,0.7,0.1,1.4,0.4,2.1c0.2,0.5,0.6,0.8,1.1,0.8
	c0.8,0,2.1-1,3.9-2.9l0.6,0.6l-0.4,0.4c-1,1.3-2.1,2.5-3.3,3.6c-0.5,0.5-1.2,0.9-2,0.9c-0.9,0-1.6-0.5-2.1-1.2
	c-0.6-0.9-0.9-2-0.9-3.1c0.1-1.3,0.2-2.5,0.5-3.8l2.5-13.8L225,32.5z M226.2,17c1.3,0,2.3,1,2.3,2.3c0,0.6-0.3,1.2-0.7,1.7
	c-0.4,0.4-1,0.7-1.6,0.7c-1.3-0.1-2.3-1.1-2.3-2.3c0-0.6,0.2-1.2,0.7-1.6C224.9,17.3,225.5,17,226.2,17z"/>
<path class="st0" d="M244.9,49.5l0.7,0.6c-1.3,1.8-2.9,3.4-4.8,4.7c-1.5,0.9-3.2,1.4-5,1.4c-1.9,0.1-3.8-0.7-5.1-2.1
	c-1.3-1.6-2-3.6-1.9-5.7c0-2.5,0.7-5,1.9-7.2c1.2-2.3,2.8-4.3,4.7-6c1.5-1.4,3.5-2.3,5.6-2.4c1,0,1.9,0.3,2.7,0.9
	c0.7,0.6,1.1,1.5,1.1,2.5c0,2-1.1,4-3.3,6.1c-2.6,2.3-5.7,4-9,5.2c0,0.2,0,0.5,0,0.7c-0.1,1.6,0.5,3.2,1.5,4.5
	c1,1.1,2.4,1.8,3.9,1.7c1.3,0,2.5-0.4,3.6-1.2C242.7,52.1,243.9,50.9,244.9,49.5z M232.3,46.5c2.4-1,4.6-2.4,6.6-4.2
	c1-1,1.8-2.2,2.5-3.4c0.6-1,0.9-2.1,0.9-3.3c0-1.2-0.6-1.9-1.7-1.9c-1.7,0-3.4,1.3-5.2,4C233.7,40.4,232.6,43.4,232.3,46.5
	L232.3,46.5z"/>
<path class="st1" d="M168.9,90.9l-3.4-8.8h-13.3l-3.4,8.8h-1.6l11.6-30.1l11.7,30.1H168.9z M158.9,65.1l-6,15.4h11.9L158.9,65.1z"/>
<path class="st1" d="M182.5,76.5c-0.4-0.3-0.9-0.6-1.4-0.8c-0.5-0.2-1-0.3-1.6-0.3c-0.5,0-0.9,0.2-1.3,0.4c-0.4,0.3-0.8,0.7-1.1,1.1
	c-0.3,0.4-0.5,0.9-0.7,1.4c-0.2,0.5-0.3,0.9-0.3,1.4V91h-1.6V74.1h1.6v2.3c0.4-0.6,0.8-1.2,1.4-1.7c0.5-0.5,1.2-0.8,1.9-0.8
	c0.7,0,1.4,0.1,2.1,0.3c0.7,0.2,1.3,0.6,1.8,1L182.5,76.5z"/>
<path class="st1" d="M200.6,90.9V88c-3,3.7-8.5,4.3-12.3,1.3c-3.7-3-4.3-8.5-1.3-12.3c1.7-2.1,4.2-3.3,6.8-3.2
	c2.6,0,5.1,1.2,6.7,3.2v-2.9h1.7v16.9H200.6z M198.8,77.5c-2.8-2.7-7.2-2.7-9.9,0.1c-2.7,2.8-2.7,7.2,0.1,9.9s7.2,2.7,9.9-0.1
	c1.3-1.3,2-3.1,2-4.9C200.9,80.6,200.2,78.8,198.8,77.5L198.8,77.5z"/>
<path class="st1" d="M221.6,88.7c-3.5,3.4-9,3.4-12.4-0.1c-0.2-0.2-0.5-0.5-0.7-0.8v3.1h-1.7V60.7h1.7v16.5c3-3.8,8.5-4.5,12.3-1.6
	c0.3,0.2,0.5,0.4,0.8,0.7C224.9,79.7,224.9,85.2,221.6,88.7L221.6,88.7z M220.4,77.5c-2.8-2.8-7.2-2.7-10,0c-2.8,2.8-2.7,7.2,0,10
	c2.8,2.8,7.2,2.7,10,0c1.3-1.3,2.1-3.1,2.1-5C222.5,80.6,221.7,78.8,220.4,77.5z"/>
<path class="st1" d="M228.7,82.1c-0.1,2,0.6,3.9,1.8,5.4c1.4,1.4,3.3,2.2,5.3,2.1c1.1,0,2.1-0.2,3.1-0.6c1.3-0.6,2.4-1.7,3.1-3
	l1.5,0.7c-1,2-2.8,3.4-4.9,4.1c-0.9,0.3-1.9,0.4-2.9,0.4c-4.9-0.1-8.8-4.1-8.7-9c0-2.2,0.9-4.4,2.5-6c1.7-1.7,3.9-2.6,6.3-2.5
	c2.3-0.1,4.5,0.8,6.2,2.3c1.7,1.5,2.6,3.7,2.5,6L228.7,82.1z M240.2,76.8c-1.3-0.9-2.8-1.4-4.4-1.4c-3.5,0-5.8,1.7-6.9,5.1h13.7
	C242.4,79,241.5,77.6,240.2,76.8L240.2,76.8z"/>
</svg>
