<?xml version="1.0" standalone="no"?>
<!DOCTYPE svg PUBLIC "-//W3C//DTD SVG 20010904//EN"
 "http://www.w3.org/TR/2001/REC-SVG-20010904/DTD/svg10.dtd">
<svg version="1.0" xmlns="http://www.w3.org/2000/svg"
 width="426.000000pt" height="426.000000pt" viewBox="0 0 426.000000 426.000000"
 preserveAspectRatio="xMidYMid meet">
<metadata>
Created by potrace 1.11, written by Peter Selinger 2001-2013
</metadata>
<g transform="translate(0.000000,426.000000) scale(0.100000,-0.100000)"
fill="#000000" stroke="none">
<path d="M1863 4162 c-17 -11 -18 -54 -5 -137 7 -38 13 -81 15 -95 7 -43 18
-60 43 -60 24 0 43 24 39 50 -1 8 -5 40 -8 70 -13 107 -19 145 -28 163 -10 18
-35 22 -56 9z"/>
<path d="M1899 3824 c-17 -21 0 -49 31 -49 31 0 48 28 31 49 -8 9 -21 16 -31
16 -10 0 -23 -7 -31 -16z"/>
<path d="M2598 3823 c-23 -27 -76 -236 -66 -256 14 -27 38 -32 57 -11 21 22
74 211 69 244 -4 30 -42 44 -60 23z"/>
<path d="M1008 3822 c-10 -2 -21 -14 -24 -28 -5 -19 9 -44 65 -123 73 -102 84
-111 113 -103 34 8 29 45 -14 107 -23 33 -53 76 -67 96 -30 43 -49 56 -73 51z"/>
<path d="M2253 3790 c-13 -5 -23 -17 -24 -27 -5 -117 -10 -183 -14 -206 -3
-19 2 -34 15 -47 25 -25 33 -25 52 -2 24 26 34 255 12 277 -8 8 -16 15 -17 14
-1 0 -12 -4 -24 -9z"/>
<path d="M1916 3734 c-16 -16 -9 -45 14 -59 15 -9 50 14 50 33 0 38 -37 53
-64 26z"/>
<path d="M1500 3640 c-9 -16 -2 -40 36 -128 25 -59 52 -113 59 -121 19 -20 65
-6 65 20 0 26 -87 231 -103 241 -21 14 -46 8 -57 -12z"/>
<path d="M1920 3635 c-13 -15 -11 -40 9 -185 6 -41 14 -93 17 -115 23 -171 28
-184 65 -185 40 0 47 58 24 195 -3 17 -8 45 -11 63 -3 18 -7 57 -10 85 -8 76
-23 140 -37 149 -19 12 -44 9 -57 -7z"/>
<path d="M3029 3598 c-17 -14 -84 -119 -117 -183 -17 -34 -18 -43 -7 -59 27
-37 56 -16 122 89 63 101 73 131 51 153 -15 15 -30 15 -49 0z"/>
<path d="M3490 3563 c-24 -8 -169 -166 -176 -192 -5 -17 -2 -28 11 -38 28 -20
33 -17 89 40 91 93 126 137 126 157 0 22 -27 40 -50 33z"/>
<path d="M1186 3544 c-19 -19 -20 -36 -4 -52 17 -17 46 -15 56 6 19 36 -24 75
-52 46z"/>
<path d="M2516 3504 c-9 -8 -16 -19 -16 -24 0 -11 29 -40 40 -40 18 0 39 31
33 48 -13 33 -34 39 -57 16z"/>
<path d="M1236 3461 c-15 -17 -15 -20 2 -41 16 -19 22 -21 40 -11 27 14 29 47
3 61 -25 13 -25 13 -45 -9z"/>
<path d="M2226 3448 c-25 -36 6 -69 45 -47 26 14 21 49 -8 60 -17 6 -26 3 -37
-13z"/>
<path d="M2497 3419 c-27 -16 -22 -57 9 -65 28 -7 44 7 44 38 0 23 -31 39 -53
27z"/>
<path d="M1287 3383 c-20 -19 4 -67 116 -223 67 -95 130 -178 140 -184 12 -8
22 -8 35 0 36 23 25 55 -52 164 -42 58 -80 112 -86 120 -88 126 -92 130 -119
130 -15 0 -31 -3 -34 -7z"/>
<path d="M2214 3346 c-8 -32 2 -46 30 -46 32 0 46 19 35 48 -12 32 -56 30 -65
-2z"/>
<path d="M1642 3348 c-19 -19 -14 -48 11 -57 27 -11 47 3 47 34 0 32 -35 46
-58 23z"/>
<path d="M956 3335 c-23 -24 -11 -43 83 -132 90 -86 121 -100 141 -62 14 25
10 31 -95 131 -82 79 -102 89 -129 63z"/>
<path d="M2466 3315 c-8 -8 -22 -41 -31 -73 -9 -31 -18 -65 -21 -74 -3 -9 -7
-25 -9 -36 -2 -10 -13 -52 -25 -92 -12 -40 -23 -80 -25 -89 -16 -74 -16 -78 0
-94 21 -22 52 -22 64 1 8 15 35 106 46 157 3 11 20 76 39 145 31 113 33 127
20 148 -17 26 -36 28 -58 7z"/>
<path d="M2868 3323 c-27 -6 -24 -60 2 -68 25 -8 50 10 50 36 0 21 -27 37 -52
32z"/>
<path d="M3257 3319 c-36 -21 -14 -75 27 -65 19 5 26 13 26 31 0 29 -28 47
-53 34z"/>
<path d="M1677 3263 c-11 -10 -8 -51 4 -58 18 -12 59 4 59 23 0 32 -43 56 -63
35z"/>
<path d="M2211 3252 c-6 -10 -12 -61 -15 -113 -19 -351 -19 -344 -2 -358 9 -8
26 -11 40 -7 29 7 33 24 41 171 3 55 7 144 10 198 7 107 0 127 -41 127 -13 0
-28 -8 -33 -18z"/>
<path d="M3198 3253 c-22 -5 -30 -30 -18 -54 21 -38 79 -12 65 30 -6 21 -22
29 -47 24z"/>
<path d="M2817 3239 c-24 -14 -22 -56 3 -64 25 -8 50 10 50 36 0 24 -30 40
-53 28z"/>
<path d="M3066 3136 c-48 -50 -181 -191 -233 -247 -13 -14 -25 -36 -26 -48 -2
-25 2 -24 -39 -7 -18 8 -45 17 -61 21 l-27 5 36 58 c69 108 111 184 109 200
-2 6 -3 16 -4 21 -1 11 -39 21 -57 14 -7 -3 -53 -69 -101 -148 -48 -79 -89
-143 -92 -142 -19 4 -99 -17 -142 -38 -28 -13 -57 -21 -65 -18 -17 6 -56 -25
-48 -38 3 -5 -9 -22 -27 -38 -31 -29 -32 -29 -48 -11 -22 26 -61 10 -61 -24 0
-17 7 -27 23 -32 22 -7 21 -7 -5 -16 -24 -8 -28 -15 -28 -46 0 -20 -7 -45 -14
-55 -13 -16 -14 -16 -20 7 -9 38 -64 114 -129 181 -43 43 -68 81 -92 135 -18
41 -41 95 -52 120 -12 25 -31 70 -44 100 -35 85 -65 110 -97 78 -20 -20 -14
-45 43 -175 30 -69 55 -130 55 -134 0 -5 -12 -4 -26 1 -14 6 -36 10 -50 10
-13 0 -33 5 -44 12 -14 9 -24 9 -42 0 -13 -6 -43 -16 -66 -21 l-44 -9 -71 67
c-77 73 -108 88 -132 64 -26 -25 -17 -45 50 -111 l65 -63 -59 -57 -59 -57 -39
22 c-36 21 -41 21 -61 7 -33 -23 -27 -51 16 -81 l38 -27 -25 -71 c-13 -38 -25
-71 -25 -72 -1 -1 -23 5 -51 12 -43 11 -52 11 -67 -3 -39 -34 -17 -67 58 -86
l47 -12 -2 -77 c-1 -43 -4 -87 -6 -97 -2 -11 2 -26 9 -33 7 -7 19 -31 27 -52
7 -22 21 -52 31 -67 10 -14 18 -29 18 -33 0 -3 6 -13 13 -20 39 -45 40 -47 26
-56 -7 -4 -47 -20 -89 -34 -41 -14 -91 -32 -110 -39 -19 -8 -50 -20 -68 -26
-36 -14 -52 -51 -32 -75 21 -25 26 -24 345 90 17 7 17 5 -2 -9 -27 -20 -30
-48 -7 -67 13 -10 23 -10 62 4 76 28 91 28 103 5 9 -17 9 -20 -3 -16 -13 5
-16 -13 -10 -58 3 -21 40 -22 75 -4 32 17 36 17 70 2 l37 -17 -53 -56 c-28
-31 -87 -94 -130 -139 -103 -109 -112 -122 -95 -149 7 -12 23 -21 35 -21 24 0
35 10 202 189 63 67 119 120 125 118 20 -7 11 -33 -39 -117 -63 -106 -67 -117
-55 -141 8 -14 7 -17 -3 -13 -14 5 -47 -20 -47 -34 0 -13 15 -28 32 -35 26 -9
51 20 43 52 -4 14 -3 23 1 19 14 -15 42 14 93 96 29 47 57 88 62 91 5 4 16 -1
25 -9 8 -9 20 -16 25 -16 5 0 9 -6 9 -14 0 -8 5 -16 11 -18 8 -3 7 -21 -6 -63
-23 -79 -24 -87 -14 -107 6 -10 18 -15 34 -13 32 3 33 4 48 54 6 23 17 41 22
39 6 -2 9 -8 9 -15 -1 -7 3 -11 9 -10 6 1 19 -14 29 -32 10 -19 29 -46 42 -60
l25 -25 9 25 c6 13 19 32 30 42 19 17 19 17 26 -25 6 -38 26 -172 41 -278 8
-55 58 -80 82 -42 10 17 10 49 -2 117 -2 17 -7 47 -10 67 -3 21 -7 54 -10 74
-3 19 -8 56 -11 82 -3 26 -7 61 -9 79 -3 27 -1 31 16 28 12 -3 17 0 13 7 -5 8
-1 9 12 5 18 -7 18 -6 2 6 -22 17 -12 30 13 17 12 -7 20 -6 25 2 4 7 3 8 -4 4
-7 -4 -12 -1 -12 7 0 10 7 14 23 11 14 -3 17 -2 7 3 -21 11 -24 42 -6 49 9 3
13 10 10 15 -3 5 3 6 12 2 11 -4 15 -3 11 5 -10 14 45 52 69 47 10 -2 25 -4
32 -4 7 -1 10 -5 7 -11 -3 -5 -4 -10 -1 -10 2 0 12 14 20 31 11 22 13 36 6 44
-13 15 -3 25 18 18 10 -4 14 -2 10 2 -5 5 2 15 13 23 19 13 23 13 31 -2 5 -9
15 -21 21 -26 7 -5 45 -38 85 -74 77 -69 104 -79 122 -46 14 27 3 45 -64 107
-31 28 -56 53 -56 56 0 4 16 -1 35 -10 32 -15 36 -15 54 1 27 25 11 71 -31 85
l-30 11 43 36 c24 19 54 44 67 55 12 10 22 14 22 8 0 -6 6 -9 13 -6 6 2 19 -2
29 -10 11 -10 18 -11 23 -3 4 6 1 9 -7 8 -7 -2 -12 2 -11 9 2 7 -6 10 -17 8
-23 -4 -25 0 -8 19 9 10 15 9 30 -6 23 -23 68 -6 63 24 -6 27 -25 49 -37 42
-5 -3 -4 3 4 15 7 12 18 19 25 17 7 -3 15 -1 18 5 4 5 11 6 17 3 7 -4 8 -2 4
4 -5 9 32 10 149 6 163 -6 185 -2 185 36 0 37 -25 44 -214 55 -49 3 -91 7 -94
9 -2 2 1 14 8 25 16 31 3 25 -15 -6 -9 -16 -13 -19 -9 -8 6 19 11 45 13 71 1
5 11 10 24 11 12 0 36 3 52 6 17 3 45 9 64 12 43 7 47 10 54 36 6 21 -26 64
-41 55 -12 -7 -158 -19 -151 -12 3 3 0 36 -7 72 l-12 66 87 39 c127 58 136 63
139 86 4 29 -25 55 -52 47 -11 -4 -61 -24 -111 -45 -91 -38 -98 -38 -107 1 -2
8 -11 23 -20 34 -10 11 -18 23 -18 26 0 4 27 27 59 53 60 46 67 61 42 91 -20
23 -32 20 -99 -24 -33 -22 -63 -40 -66 -40 -4 0 -19 11 -34 25 -17 16 -22 25
-12 25 8 0 36 24 63 53 27 28 74 79 105 112 151 162 154 164 146 188 -16 53
-45 49 -108 -17z m-41 -1075 c3 -5 1 -12 -5 -16 -5 -3 -10 1 -10 9 0 18 6 21
15 7z m-658 -546 c-9 -7 -13 -15 -9 -19 4 -4 3 -7 -3 -5 -5 1 -18 -1 -28 -6
-13 -5 -15 -10 -7 -15 9 -5 9 -9 1 -14 -6 -4 -11 -2 -11 4 0 6 -6 8 -12 4 -7
-4 5 11 27 33 22 22 44 38 49 35 5 -3 2 -10 -7 -17z"/>
<path d="M3460 3132 c-33 -11 -200 -136 -206 -154 -7 -22 12 -48 35 -48 16 0
146 85 196 128 14 12 25 31 25 42 0 22 -27 40 -50 32z"/>
<path d="M1205 3117 c-25 -19 -16 -61 14 -65 40 -6 58 48 22 67 -13 7 -23 6
-36 -2z"/>
<path d="M2008 3109 c-10 -5 -18 -18 -18 -28 0 -21 23 -44 33 -34 4 3 7 2 7
-4 0 -6 -7 -14 -16 -17 -13 -5 -15 -17 -10 -76 4 -38 8 -75 11 -82 2 -7 6 -31
9 -53 6 -54 14 -72 36 -78 32 -8 53 25 46 75 -4 24 -9 66 -12 93 -4 28 -8 57
-10 65 -1 8 -3 21 -3 28 -1 7 -10 20 -20 29 -17 14 -18 18 -5 31 13 12 13 17
1 35 -17 26 -27 29 -49 16z"/>
<path d="M1273 3053 c-19 -7 -16 -51 4 -62 37 -20 71 27 41 57 -13 13 -24 14
-45 5z"/>
<path d="M782 2988 c-17 -17 -15 -42 6 -60 21 -18 180 -113 204 -121 22 -8 52
26 44 50 -3 10 -36 37 -72 58 -36 22 -82 50 -102 62 -42 25 -63 28 -80 11z"/>
<path d="M1603 2938 c-13 -14 -15 -23 -7 -36 16 -25 51 -27 63 -3 23 42 -23
75 -56 39z"/>
<path d="M3175 2929 c-4 -5 -4 -21 -1 -35 5 -17 13 -24 31 -24 18 0 26 7 31
24 8 32 -2 46 -31 46 -13 0 -27 -5 -30 -11z"/>
<path d="M3102 2878 c-29 -29 0 -78 36 -59 26 14 32 33 17 54 -14 20 -36 22
-53 5z"/>
<path d="M3615 2830 c-49 -22 -100 -45 -112 -52 -29 -14 -30 -53 -3 -68 17 -9
41 -2 132 37 117 50 141 70 122 101 -18 28 -44 24 -139 -18z"/>
<path d="M1066 2817 c-23 -17 -14 -53 14 -60 16 -4 40 11 52 34 5 9 -23 39
-36 39 -7 0 -20 -6 -30 -13z"/>
<path d="M1141 2761 c-23 -42 23 -75 56 -39 13 14 15 23 7 36 -16 25 -51 27
-63 3z"/>
<path d="M3395 2723 c-17 -17 -18 -23 -6 -42 13 -20 47 -23 61 -6 28 34 -24
80 -55 48z"/>
<path d="M3313 2693 c-19 -7 -16 -60 3 -67 22 -9 54 11 54 34 0 16 -29 42 -42
39 -2 0 -9 -3 -15 -6z"/>
<path d="M618 2609 c-21 -12 -24 -42 -5 -57 17 -14 239 -71 255 -65 7 3 17 14
23 24 16 32 -19 54 -134 82 -120 30 -116 30 -139 16z"/>
<path d="M935 2523 c-18 -18 -19 -35 -3 -51 25 -25 70 2 61 37 -6 25 -39 33
-58 14z"/>
<path d="M1023 2498 c-16 -26 -12 -45 11 -56 19 -9 27 -7 38 6 23 28 11 62
-22 62 -10 0 -22 -6 -27 -12z"/>
<path d="M3614 2414 c-127 -18 -147 -31 -123 -76 10 -18 17 -20 73 -14 33 3
72 8 86 11 14 2 41 6 60 9 19 2 42 7 52 11 24 9 28 41 8 60 -19 17 -33 17
-156 -1z"/>
<path d="M3390 2365 c-18 -21 -3 -55 24 -55 33 0 50 23 36 49 -12 24 -42 27
-60 6z"/>
<path d="M3300 2355 c-19 -22 -5 -65 20 -60 30 6 40 14 40 34 0 36 -38 53 -60
26z"/>
<path d="M172 2298 c-16 -16 -15 -43 2 -57 8 -7 65 -12 147 -14 l134 -2 3 27
c2 18 -3 30 -16 37 -30 16 -255 24 -270 9z"/>
<path d="M508 2279 c-37 -21 -10 -73 32 -62 24 6 32 40 13 58 -17 17 -22 18
-45 4z"/>
<path d="M591 2258 c-11 -29 4 -48 35 -48 17 0 25 7 30 26 11 44 -49 64 -65
22z"/>
<path d="M696 2259 c-16 -23 -7 -56 17 -64 14 -5 126 -12 318 -21 134 -7 137
-6 149 15 28 53 -3 66 -175 75 -71 4 -167 9 -211 12 -76 5 -83 4 -98 -17z"/>
<path d="M3080 2220 c-9 -6 -10 -10 -3 -10 6 0 15 5 18 10 8 12 4 12 -15 0z"/>
<path d="M3429 2123 c-23 -6 -30 -40 -12 -58 18 -18 35 -19 51 -3 28 28 1 70
-39 61z"/>
<path d="M3510 2105 c-6 -8 -9 -23 -5 -35 8 -25 51 -27 64 -2 20 38 -31 71
-59 37z"/>
<path d="M3622 2112 c-19 -12 -23 -49 -6 -63 8 -7 65 -13 142 -16 109 -4 130
-3 141 11 11 13 11 20 -3 41 -14 22 -24 25 -74 26 -31 0 -86 3 -122 5 -36 2
-71 0 -78 -4z"/>
<path d="M1155 2070 c-22 -4 -62 -10 -90 -14 -176 -21 -257 -36 -272 -48 -19
-15 -16 -55 5 -63 17 -8 62 -7 112 0 14 2 77 11 140 20 63 9 124 18 135 20 11
2 30 4 42 4 31 1 55 29 47 55 -12 37 -35 42 -119 26z"/>
<path d="M2995 2022 c-11 -11 8 -21 24 -12 10 5 21 7 25 5 3 -3 4 -2 1 2 -6 8
-43 12 -50 5z"/>
<path d="M689 1993 c-13 -15 2 -63 20 -63 26 0 41 15 41 40 0 22 -5 29 -25 32
-14 3 -30 -1 -36 -9z"/>
<path d="M600 1980 c-16 -16 -18 -25 -10 -40 20 -38 77 -19 66 23 -8 34 -32
41 -56 17z"/>
<path d="M459 1976 c-2 -2 -34 -7 -70 -10 -103 -11 -124 -18 -127 -48 -5 -45
22 -51 145 -33 131 19 140 22 147 41 11 30 -12 54 -53 54 -21 0 -40 -2 -42 -4z"/>
<path d="M3062 1968 c-16 -16 -15 -53 2 -67 8 -7 97 -34 197 -60 258 -68 244
-66 262 -41 21 30 10 57 -27 69 -33 11 -354 95 -397 105 -14 3 -31 0 -37 -6z"/>
<path d="M2841 1870 c-49 -39 -60 -51 -43 -49 4 1 9 0 12 -1 23 -9 37 -5 37 9
0 34 3 42 13 36 6 -4 7 -12 3 -18 -5 -8 -2 -8 9 0 8 7 18 10 22 6 4 -4 4 1 0
11 -6 15 -4 17 7 11 11 -7 12 -6 2 7 -7 8 -10 18 -6 21 20 21 -12 1 -56 -33z
m41 13 c-6 -2 -9 -10 -6 -15 4 -7 2 -8 -5 -4 -13 9 -5 26 12 25 9 0 8 -2 -1
-6z m-47 -40 c-2 -10 -4 -19 -4 -21 -1 -2 -6 0 -11 3 -8 5 -7 11 1 21 15 18
18 18 14 -3z"/>
<path d="M3560 1810 c-15 -28 22 -65 50 -50 22 12 26 40 8 58 -18 18 -46 14
-58 -8z"/>
<path d="M1301 1801 c-13 -24 8 -55 34 -50 28 6 42 34 26 53 -18 22 -48 20
-60 -3z"/>
<path d="M3667 1799 c-32 -18 -14 -69 24 -69 17 0 29 19 29 45 0 21 -32 35
-53 24z"/>
<path d="M962 1788 c-17 -17 -15 -46 6 -56 36 -19 75 24 46 52 -19 19 -36 20
-52 4z"/>
<path d="M1080 1724 c-69 -31 -132 -58 -141 -61 -41 -12 -124 -60 -133 -75
-14 -23 3 -52 32 -56 11 -2 45 8 74 21 29 13 114 50 188 82 122 52 170 82 170
105 0 15 -31 40 -48 40 -9 -1 -73 -26 -142 -56z"/>
<path d="M3763 1774 c-17 -8 -16 -49 1 -63 14 -12 164 -55 223 -64 38 -6 58
12 49 46 -5 20 -20 27 -103 50 -112 31 -153 38 -170 31z"/>
<path d="M878 1759 c-39 -22 -8 -81 31 -59 25 13 28 55 5 64 -19 7 -15 8 -36
-5z"/>
<path d="M2852 1738 c-25 -25 -8 -65 27 -64 8 1 19 9 25 19 21 33 -24 73 -52
45z"/>
<path d="M671 1694 c-108 -39 -121 -48 -121 -80 0 -37 36 -39 125 -9 138 48
158 59 160 90 2 20 -18 35 -44 34 -14 0 -68 -16 -120 -35z"/>
<path d="M1471 1712 c-13 -24 4 -52 33 -52 26 0 40 23 31 51 -8 24 -51 25 -64
1z"/>
<path d="M2609 1713 c-1 -4 -1 -11 0 -15 0 -5 -4 -8 -11 -8 -6 0 -8 -3 -5 -7
4 -3 2 -12 -4 -20 -6 -7 -9 -13 -6 -13 13 0 47 59 37 65 -5 3 -11 3 -11 -2z"/>
<path d="M1685 1700 c3 -5 8 -10 11 -10 2 0 4 5 4 10 0 6 -5 10 -11 10 -5 0
-7 -4 -4 -10z"/>
<path d="M2942 1678 c-21 -21 -13 -46 21 -71 58 -43 352 -217 366 -217 24 0
49 30 43 52 -4 15 -129 108 -146 108 -2 0 -55 32 -117 70 -112 70 -144 81
-167 58z"/>
<path d="M1284 1594 c-60 -42 -135 -95 -166 -116 -32 -22 -67 -51 -78 -65 -18
-23 -19 -29 -6 -47 25 -39 35 -35 193 79 65 46 142 101 171 121 53 38 65 67
40 92 -22 22 -45 13 -154 -64z"/>
<path d="M2455 1601 c-25 -21 -29 -37 -11 -44 10 -4 12 1 9 16 -4 22 -4 22 13
2 13 -15 15 -16 11 -3 -3 9 -1 19 6 21 8 3 9 8 2 15 -7 7 -16 5 -30 -7z"/>
<path d="M2565 1597 c-12 -9 -16 -22 -13 -38 7 -36 246 -367 270 -375 16 -5
27 0 40 16 16 20 16 24 2 52 -8 16 -41 65 -72 108 -31 43 -75 105 -97 136 -45
65 -89 114 -102 114 -5 0 -17 -6 -28 -13z"/>
<path d="M2496 1573 c-6 -14 -5 -15 5 -6 7 7 10 15 7 18 -3 3 -9 -2 -12 -12z"/>
<path d="M714 1546 c-8 -32 2 -46 31 -46 29 0 47 46 24 61 -26 16 -48 10 -55
-15z"/>
<path d="M2861 1548 c-11 -29 12 -58 39 -51 24 6 33 29 20 54 -15 26 -49 24
-59 -3z"/>
<path d="M2400 1550 c-11 -7 -11 -10 -2 -10 7 0 10 -5 6 -11 -4 -8 0 -8 15 0
25 14 28 23 4 14 -11 -4 -14 -3 -9 5 9 14 6 15 -14 2z"/>
<path d="M636 1524 c-24 -24 -20 -53 8 -60 32 -8 46 2 46 31 0 33 -33 51 -54
29z"/>
<path d="M2950 1482 c-16 -13 -21 -24 -16 -38 3 -11 52 -63 108 -115 56 -52
122 -114 147 -138 59 -57 89 -73 113 -60 29 15 22 56 -16 92 -47 45 -171 162
-238 225 -31 28 -61 52 -66 52 -6 0 -20 -8 -32 -18z"/>
<path d="M437 1446 c-114 -50 -129 -62 -116 -93 11 -31 43 -29 121 5 35 16 82
37 105 47 44 19 57 36 48 66 -10 29 -50 23 -158 -25z"/>
<path d="M3391 1401 c-17 -11 -8 -56 13 -64 8 -3 25 2 38 13 19 15 21 22 12
37 -13 21 -42 27 -63 14z"/>
<path d="M956 1354 c-9 -8 -16 -19 -16 -24 0 -5 7 -16 16 -24 19 -20 29 -20
48 -1 15 16 11 44 -8 57 -16 11 -23 10 -40 -8z"/>
<path d="M3471 1346 c-16 -19 2 -56 28 -56 28 0 47 28 34 48 -13 22 -47 27
-62 8z"/>
<path d="M2528 1339 c-29 -16 -22 -46 48 -204 105 -241 112 -255 138 -255 26
0 46 17 46 41 0 9 -34 93 -75 185 -41 93 -75 173 -75 177 0 16 -41 67 -53 67
-7 0 -20 -5 -29 -11z"/>
<path d="M1380 1320 c-15 -28 3 -60 32 -55 48 10 48 54 1 69 -16 5 -25 2 -33
-14z"/>
<path d="M2192 1327 c-7 -8 -9 -17 -5 -20 3 -4 0 -13 -7 -22 -17 -20 -3 -19
17 1 13 12 14 18 3 24 -10 6 -10 9 1 12 8 3 11 8 8 12 -3 4 -11 0 -17 -7z"/>
<path d="M1931 1307 c-15 -15 -14 -42 4 -57 18 -15 43 -7 52 16 13 34 -31 66
-56 41z"/>
<path d="M871 1292 c-13 -24 4 -52 33 -52 26 0 40 23 31 51 -8 24 -51 25 -64
1z"/>
<path d="M3568 1299 c-10 -5 -18 -18 -18 -28 0 -23 17 -37 117 -99 101 -62
116 -67 137 -47 34 34 17 53 -125 139 -83 50 -85 50 -111 35z"/>
<path d="M1625 1280 c-12 -5 -67 -85 -134 -194 -87 -144 -112 -192 -107 -210
8 -31 33 -40 60 -23 17 12 187 278 232 365 21 42 -9 78 -51 62z"/>
<path d="M2106 1262 c-15 -17 -19 -62 -32 -328 -5 -100 -3 -138 6 -149 28 -33
73 -7 76 44 1 14 5 78 8 141 3 63 8 152 11 196 4 67 2 84 -11 95 -23 19 -41
19 -58 1z"/>
<path d="M1323 1263 c-7 -2 -13 -15 -13 -28 0 -40 43 -55 64 -22 19 30 -16 65
-51 50z"/>
<path d="M714 1194 c-123 -88 -132 -98 -111 -131 16 -25 53 -12 137 47 124 89
128 94 107 128 -16 24 -55 11 -133 -44z"/>
<path d="M1898 1198 c-8 -7 -24 -47 -36 -88 -56 -201 -92 -349 -86 -363 6 -17
39 -28 59 -21 7 3 18 17 23 32 11 26 112 403 112 415 0 10 -31 37 -44 37 -7 0
-19 -6 -28 -12z"/>
<path d="M1181 1117 c-40 -41 -79 -84 -87 -96 -19 -26 -10 -58 18 -67 18 -5
37 9 111 85 72 76 88 97 85 119 -2 21 -9 28 -29 30 -20 2 -40 -12 -98 -71z"/>
<path d="M2872 1168 c-22 -22 -13 -53 19 -70 14 -7 48 34 42 50 -12 32 -40 41
-61 20z"/>
<path d="M3320 1110 c-15 -28 22 -65 50 -50 22 12 26 40 8 58 -18 18 -46 14
-58 -8z"/>
<path d="M2923 1088 c-12 -19 -11 -31 4 -49 17 -21 50 -14 58 13 12 36 -42 67
-62 36z"/>
<path d="M3400 1050 c-22 -22 -17 -46 12 -56 27 -8 52 17 44 44 -10 29 -34 34
-56 12z"/>
<path d="M2994 1012 c-34 -23 -24 -48 71 -176 42 -57 62 -76 79 -76 23 0 36
17 36 44 0 16 -113 175 -141 199 -23 19 -29 20 -45 9z"/>
<path d="M3483 989 c-45 -17 -29 -51 63 -136 102 -93 108 -97 134 -83 36 19
23 48 -62 131 -97 94 -106 99 -135 88z"/>
<path d="M2313 951 c-29 -19 -14 -71 21 -71 21 0 38 27 31 48 -6 21 -36 34
-52 23z"/>
<path d="M2314 846 c-10 -27 1 -51 25 -54 31 -5 45 11 37 42 -5 19 -13 26 -32
26 -13 0 -27 -6 -30 -14z"/>
<path d="M2732 851 c-8 -4 -12 -19 -10 -32 2 -19 9 -24 33 -24 24 0 31 5 33
24 4 23 -11 41 -33 41 -5 0 -16 -4 -23 -9z"/>
<path d="M1342 828 c-17 -17 -15 -55 4 -62 42 -16 74 43 35 64 -24 13 -24 13
-39 -2z"/>
<path d="M2771 767 c-18 -18 -13 -55 9 -62 26 -8 52 12 48 38 -4 24 -41 40
-57 24z"/>
<path d="M1297 749 c-24 -14 -22 -56 3 -64 25 -8 50 10 50 36 0 24 -30 40 -53
28z"/>
<path d="M2331 746 c-7 -9 -10 -30 -7 -53 3 -21 10 -76 16 -123 12 -90 21
-110 50 -110 33 0 43 26 36 92 -4 35 -9 70 -11 78 -2 8 -6 35 -9 58 -3 24 -10
50 -17 58 -15 18 -43 18 -58 0z"/>
<path d="M2088 743 c-26 -6 -34 -44 -12 -60 25 -18 42 -16 54 6 18 34 -4 62
-42 54z"/>
<path d="M1754 686 c-10 -27 1 -51 25 -54 31 -5 45 11 37 42 -5 19 -13 26 -32
26 -13 0 -27 -6 -30 -14z"/>
<path d="M2812 671 c-22 -14 -17 -42 27 -146 50 -118 60 -130 95 -121 37 9 34
36 -20 157 -53 119 -66 133 -102 110z"/>
<path d="M1228 653 c-18 -22 -89 -136 -112 -181 -30 -59 17 -98 61 -49 11 12
44 62 73 110 46 78 51 92 41 113 -12 28 -42 31 -63 7z"/>
<path d="M2072 641 c-8 -4 -12 -19 -10 -32 2 -19 9 -24 33 -24 27 0 30 3 30
30 0 22 -5 31 -20 33 -11 1 -26 -2 -33 -7z"/>
<path d="M1732 598 c-16 -16 -15 -28 4 -49 13 -14 20 -16 40 -7 27 12 29 20
14 49 -12 21 -40 25 -58 7z"/>
<path d="M2060 535 c-6 -8 -14 -54 -16 -102 -3 -48 -6 -99 -8 -113 -5 -41 10
-70 38 -70 39 0 42 11 50 164 3 56 1 107 -5 118 -12 22 -42 24 -59 3z"/>
<path d="M1702 498 c-5 -7 -24 -66 -42 -131 -34 -127 -32 -147 16 -147 30 0
36 12 70 147 23 93 26 114 15 127 -16 19 -45 21 -59 4z"/>
</g>
</svg>
