<svg xmlns="http://www.w3.org/2000/svg" viewBox="0 0 359.25 33.69"><title>Fichier 1</title><g id="Calque_2" data-name="Calque 2"><g id="TRADITIONAL"><g id="Logo"><path d="M16.41.1c1.36.13,2.05.78,2.05,1.95q0,2.72-5.67,10.16l-.58,5.17a32.35,32.35,0,0,1,5.95-.58c5.15.24,7.78.66,7.91,1.27-.32.45-.61.68-.87.68a59,59,0,0,0-6.35-.59H17.29a21.4,21.4,0,0,0-5.38.69c0,1.67-.65,4.54-1.95,8.59q-1.87,4.3-5,4.3A4.79,4.79,0,0,1,.2,28.81,3.23,3.23,0,0,1,0,27.54v-.2Q0,22.93,7.23,19a32.55,32.55,0,0,1,3.61-1.36Q12.13,4.66,13.67,2A3,3,0,0,1,16.41.1ZM1.27,27.54q0,2.41,3.52,2.83h.48q3.65,0,5.28-11.13h-.1q-6.3,2.11-8.5,6A5.91,5.91,0,0,0,1.27,27.54ZM13.18,9.38q3.91-5.24,3.91-7.33V1.76c-.06-.2-.26-.3-.59-.3h-.39Q14.27,1.46,13.18,9.38Z"/><path d="M37.82,4.79c0,.06,0,.09.1.09q-.22,1.31-3,3.81H36q6.26,0,6.25.59c0,.58-.16.88-.49.88q-2.38-.3-8-.39-7,8-9.18,13.67a15.26,15.26,0,0,0-1,2.34Q36,17,46.61,17c.78,0,1.17.17,1.17.39,0,.65-.75,1-2.25,1q-9.06,0-22.75,9.47h-.49a.81.81,0,0,1-.49-.68q1.82-7.08,9-16.11a15,15,0,0,0,1.07-1.18h-.39c-2.59,0-5.35.13-8.3.39-.46-.06-.68-.16-.68-.29v-.1c.21-.58.79-.88,1.75-.88q4.55-.29,7.72-.29h.68q.47,0,3-2.64A6.24,6.24,0,0,1,37.82,4.79Z"/><path d="M52.73,13.82h.2c1.63.18,2.44.89,2.44,2.15v.19c0,1.06-1.17,1.74-3.51,2.05a16.56,16.56,0,0,1-1.86.1H48.14c-.17,0-.3.33-.39,1v.09c0,1.05,1,1.57,2.84,1.57Q55.65,21,68,17h.19l.1.2V18q0,.48-7.91,2.63A39.63,39.63,0,0,1,51,22.22h-.69c-1.82,0-3.06-.59-3.71-1.76a5.26,5.26,0,0,1-.19-1.17c0-1.53,1.27-3.1,3.81-4.69A5.37,5.37,0,0,1,52.73,13.82ZM56.15,6.2c.17,0,.36.29.59.88q-1.27,1.2-6.84,2.73l-.78.1c-.13-.26-.23-.39-.29-.39q0-1,1.56-1.17,1.13,0,5.66-2.15ZM49.12,17h.2c3.12-.11,4.68-.44,4.68-1v-.29a1.23,1.23,0,0,0-1.17-.68A6,6,0,0,0,49.12,17Z"/><path d="M81.2,14.06h.2c1.06,0,1.84.69,2.34,2v.39a3.28,3.28,0,0,1-.68,2A51.28,51.28,0,0,1,93.8,17.09h.58c1.31,0,2,.16,2,.39v.2a1.14,1.14,0,0,1-1.08.68A47.67,47.67,0,0,0,81.1,20.41a6.12,6.12,0,0,1-3.61,1.76c-.42,0-.75-.29-1-.88q0-1.16,4.4-2.34a4.21,4.21,0,0,0,1.56-2.64c-.39-.65-.78-1-1.17-1q-4,.35-19.24,16.41C60.79,33,60,33.69,59.62,33.69h-.1a.6.6,0,0,1-.68-.68v-.2q1.21-4.67,9.67-15.72a14.08,14.08,0,0,1,2.63-2.44h.2q-.24,1.66-5.08,7.52-2.93,4.39-5.18,8.49v.1q13.07-13.23,14.75-14Q79.32,14.06,81.2,14.06Z"/><path d="M112.33,0c1.69.36,2.54,1.11,2.54,2.25v.68q0,4.05-15.72,14a14,14,0,0,0-2.44,1.37l-1.86,3.13v.09H95q6.63-4.78,8.79-4.78h.09q1.74,0,3.91,4.2c.34.32.6.49.78.49a66.63,66.63,0,0,0,10.84-4l.49-.09a.82.82,0,0,1,.1.29,1.27,1.27,0,0,1-.88,1.27q-8.25,3.81-10.55,3.81h-.29c-.85,0-2-1.31-3.32-3.91a4.43,4.43,0,0,0-1.17-.78q-1.47,0-9.67,5.66a1.68,1.68,0,0,1-.78.3H93q-.28-.08-.48-.69,1.6-3.93,7.91-12.79Q108.22,0,112.33,0ZM98.17,16v.09q15.43-10,15.43-13.57c0-.7-.46-1.09-1.37-1.17H112Q107.69,1.92,98.17,16Z"/><path d="M124.34,15.38a2.29,2.29,0,0,1,2.54,1.76c-.07,0-.1,0-.1.1a6.18,6.18,0,0,0-2.44-.49h-.1c-1.53,0-3.28.91-5.27,2.73a1.93,1.93,0,0,0-.68,1.17v.1l.49.1h.29q1.37,0,6.54-3.32h.49c.08,0,.24.16.49.49v.19a13.35,13.35,0,0,1-.2,2.05c.13.39.26.59.39.59q.9,0,11.62-3a29.06,29.06,0,0,1,5-.78c.46.07.69.16.69.29q0,1.08-1.56,1.08A125.73,125.73,0,0,0,128.25,22l-1.47.2c-1,0-1.53-.65-1.66-2v-.88q-4.4,2.84-6.34,2.84c-1.24-.13-1.86-.72-1.86-1.76s1.43-2.54,4.3-4.2A8.83,8.83,0,0,1,124.34,15.38Z"/><path d="M145.12,13.72q.21,0,.39,1.17v.3a43.11,43.11,0,0,0-1.17,4.49q7.64-5.28,9.47-5.28,1.33,0,3.42,4.11a2,2,0,0,0,1.66,1c.23,0,2.86-.62,7.91-1.85a24.78,24.78,0,0,1,3.32-.3h.09l.3.2c0,.78-.69,1.17-2,1.17a63.36,63.36,0,0,0-8.3,1.86,7.29,7.29,0,0,1-1.37.19q-2.25,0-4.2-4.29c-.42-.51-.72-.77-.88-.79q-1.17,0-9.18,5.37a3.23,3.23,0,0,1-.78.2c-.46,0-.71-.32-.78-1A17.8,17.8,0,0,1,144.82,14Z"/><path d="M172.58,14.5h.1c.1,0,.2.1.29.29v.59a21.93,21.93,0,0,1-2.14,3.52,7.44,7.44,0,0,0-1.18,2.93v.09c0,.33.09.49.2.49q.56,0,7.52-3.42a24.12,24.12,0,0,1,8.89-2c.91,0,1.36.18,1.36.39-.09.59-.29.88-.58.88q-6.53,0-14.75,4.69a6.35,6.35,0,0,1-2.54.78c-.73,0-1.19-.52-1.37-1.56V22q0-2.71,4-7.42Zm3.13-4.39h.19c.39.27.59.53.59.78-.16.85-.52,1.27-1.07,1.27s-.79-.29-.79-.88Q174.9,10.11,175.71,10.11Z"/><path d="M192.8,13.82H193c1.63.18,2.45.89,2.45,2.15v.19c0,1.06-1.18,1.74-3.52,2.05a16.56,16.56,0,0,1-1.86.1h-1.85c-.18,0-.31.33-.39,1v.09c0,1.05.94,1.57,2.83,1.57Q195.71,21,208,17h.2l.1.2V18q0,.48-7.91,2.63A39.7,39.7,0,0,1,191,22.22h-.68c-1.83,0-3.06-.59-3.71-1.76a5.41,5.41,0,0,1-.2-1.17c0-1.53,1.27-3.1,3.81-4.69A5.37,5.37,0,0,1,192.8,13.82ZM189.19,17h.19c3.13-.11,4.69-.44,4.69-1v-.29a1.25,1.25,0,0,0-1.17-.68A6,6,0,0,0,189.19,17Z"/><path d="M243.82,1.46h.79q4.56,0,5.85,4.79c.07.57.1.9.1,1q0,4.95-10.84,6.44l1.76,1c.8.55,1.81,2.51,3,5.86q2.1,4.36,7.81,6.64c2.86.78,4.3,1.27,4.3,1.46v.1c0,.1-.2.29-.59.59h-.49a19.46,19.46,0,0,1-7.81-3q-3.93-2.68-6-9.08a3.66,3.66,0,0,0-3.32-2.25h-.78q-5.17,0-16,13.48a1.2,1.2,0,0,1-.78.39.82.82,0,0,1-.69-.49v-.39q0-.76,5.76-8.69,6.92-9.57,8.89-11.62h.1l.1.19q0,1.64-2.84,5.18h.1q9.15,0,14.94-2.83c1.3-1,2-1.88,2-2.74V6.84a4.56,4.56,0,0,0-5-4.11q-5.37,0-15.62,6.55l-.68.19-.2-.09a3.9,3.9,0,0,1,1.66-2.15Q238.85,1.47,243.82,1.46Zm-10.64,12.8h-1.86c-1.09,1.35-2.65,3.46-4.68,6.35h.09q4.89-4.93,7.52-6.06a3.79,3.79,0,0,1,.88-.29v-.1C234.25,14.23,233.6,14.26,233.18,14.26Z"/><path d="M256,14.5h.1c.1,0,.2.1.29.29v.59a21.61,21.61,0,0,1-2.15,3.52,7.4,7.4,0,0,0-1.17,2.93v.09c0,.33.08.49.2.49q.56,0,7.52-3.42a24.11,24.11,0,0,1,8.88-2c.91,0,1.37.18,1.37.39-.1.59-.29.88-.58.88q-6.53,0-14.75,4.69a6.35,6.35,0,0,1-2.54.78c-.73,0-1.19-.52-1.37-1.56V22q0-2.71,4-7.42Zm3.13-4.39h.19c.39.27.59.53.59.78-.17.85-.52,1.27-1.08,1.27s-.78-.29-.78-.88Q258.3,10.11,259.11,10.11Z"/><path d="M275.71,13.87h.19a3.52,3.52,0,0,1,3,1.27c0,.08-.23.27-.68.58h-.1a17.45,17.45,0,0,0-2.34-.58q-4.59.9-4.59,4v.1c0,.65.26,1,.78,1q.39,0,6.83-1.95a27.83,27.83,0,0,1,7.82-1.17h2.14c1.18.08,1.76.24,1.76.49q-.66.78-1.17.78h-1.85a40.66,40.66,0,0,0-13.48,2.73,6.49,6.49,0,0,1-2.05.39h-.29c-1,0-1.6-.61-1.76-1.85l-.1-.49q0-3.54,4.59-5.08A3.23,3.23,0,0,1,275.71,13.87Z"/><path d="M306.47,0C308.16.36,309,1.11,309,2.25v.68q0,4.05-15.72,14a14,14,0,0,0-2.44,1.37L289,21.39v.09h.1q6.63-4.78,8.79-4.78H298q1.74,0,3.91,4.2c.34.32.6.49.78.49a66.63,66.63,0,0,0,10.84-4l.49-.09a.82.82,0,0,1,.1.29,1.27,1.27,0,0,1-.88,1.27q-8.25,3.81-10.55,3.81h-.29c-.85,0-1.95-1.31-3.32-3.91a4.43,4.43,0,0,0-1.17-.78q-1.47,0-9.67,5.66a1.68,1.68,0,0,1-.78.3h-.3q-.28-.08-.48-.69,1.61-3.93,7.91-12.79Q302.36,0,306.47,0ZM292.31,16v.09q15.44-10,15.43-13.57c0-.7-.46-1.09-1.37-1.17h-.19Q301.83,1.92,292.31,16Z"/><path d="M319.38,13.82h.2c1.63.18,2.44.89,2.44,2.15v.19c0,1.06-1.17,1.74-3.51,2.05a16.56,16.56,0,0,1-1.86.1h-1.86c-.17,0-.3.33-.39,1v.09c0,1.05,1,1.57,2.84,1.57q5.06,0,17.38-3.91h.19l.1.2V18c0,.32-2.63,1.2-7.91,2.63a39.63,39.63,0,0,1-9.37,1.57h-.69c-1.82,0-3.06-.59-3.71-1.76a5.26,5.26,0,0,1-.19-1.17c0-1.53,1.27-3.1,3.81-4.69A5.37,5.37,0,0,1,319.38,13.82ZM315.77,17h.2c3.12-.11,4.68-.44,4.68-1v-.29a1.23,1.23,0,0,0-1.17-.68A6,6,0,0,0,315.77,17Z"/><path d="M335.91,13a2.43,2.43,0,0,1,.2,1.07v.2a2.43,2.43,0,0,1-.2,1.07h.1a40.21,40.21,0,0,1,7.62-1.76,1.12,1.12,0,0,1,1.07.59v.68a53.77,53.77,0,0,1-2.15,5.67,6.81,6.81,0,0,0-.39,2v.19c0,.92.59,1.37,1.76,1.37s3.63-1.3,6.94-3.91q4.56-3.12,7.91-3.12.48.11.48.39c0,.72-.55,1.07-1.66,1.07q-2.76.18-9.37,5.18a7.28,7.28,0,0,1-4,1.66h-.48A2.64,2.64,0,0,1,341,23.73l-.19-1.17c0-1.17.84-3.71,2.54-7.62v-.1h-.1q-7.32,1.86-7.62,1.86c-.65-.15-1-.47-1-1v-.49A3.25,3.25,0,0,1,335.91,13Z"/></g></g></g></svg>