<?xml version="1.0" encoding="utf-8"?>
<!-- Generator: Adobe Illustrator 22.1.0, SVG Export Plug-In . SVG Version: 6.00 Build 0)  -->
<svg version="1.1" id="Calque_1" xmlns="http://www.w3.org/2000/svg" xmlns:xlink="http://www.w3.org/1999/xlink" x="0px" y="0px"
	 viewBox="0 0 84.2 84.2" style="enable-background:new 0 0 84.2 84.2;" xml:space="preserve">
<style type="text/css">
	.st0{fill:#FFFFFF;}
</style>
<path class="st0" d="M42.1,84.2C18.9,84.2,0,65.3,0,42.1S18.9,0,42.1,0c23.2,0,42.1,18.9,42.1,42.1S65.3,84.2,42.1,84.2z M42.1,4
	C21.1,4,4,21.1,4,42.1s17.1,38.1,38.1,38.1s38.1-17.1,38.1-38.1S63.1,4,42.1,4z M56.3,25c-1.7,0-3.1,1.4-3.1,3.1
	c0,1.7,1.4,3.1,3.1,3.1c1.7,0,3.1-1.4,3.1-3.1C59.4,26.4,58,25,56.3,25z M42.5,29c-7.2,0-13.1,5.9-13.1,13.1s5.9,13.1,13.1,13.1
	s13.1-5.9,13.1-13.1S49.7,29,42.5,29z M42.5,50.5c-4.6,0-8.4-3.8-8.4-8.4c0-4.6,3.8-8.4,8.4-8.4s8.4,3.8,8.4,8.4
	C50.8,46.7,47.1,50.5,42.5,50.5z M68.9,31.2c0-8.8-7.1-16-16-16H31.8c-8.8,0-16,7.1-16,16v21.1c0,8.8,7.1,16,16,16h21.1
	c8.8,0,16-7.1,16-16V31.2z M63.9,52.3c0,6.1-4.9,11-11,11H31.8c-6.1,0-11-4.9-11-11V31.2c0-6.1,4.9-11,11-11h21.1
	c6.1,0,11,4.9,11,11V52.3z"/>
</svg>
