<?xml version="1.0" encoding="utf-8"?>
<!-- Generator: Adobe Illustrator 22.1.0, SVG Export Plug-In . SVG Version: 6.00 Build 0)  -->
<svg version="1.1" id="Calque_1" xmlns="http://www.w3.org/2000/svg" xmlns:xlink="http://www.w3.org/1999/xlink" x="0px" y="0px"
	 viewBox="0 0 54.2 54.2" style="enable-background:new 0 0 54.2 54.2;" xml:space="preserve">
<style type="text/css">
	.st0{fill:#333033;}
</style>
<g>
	<path class="st0" d="M27.1,54.2C12.2,54.2,0,42.1,0,27.1C0,12.2,12.2,0,27.1,0c15,0,27.1,12.2,27.1,27.1
		C54.2,42.1,42.1,54.2,27.1,54.2z M27.1,2.6c-13.5,0-24.5,11-24.5,24.5c0,13.5,11,24.5,24.5,24.5s24.5-11,24.5-24.5
		C51.7,13.6,40.6,2.6,27.1,2.6z M36.3,16.1c-1.1,0-2,0.9-2,2c0,1.1,0.9,2,2,2s2-0.9,2-2C38.3,17,37.4,16.1,36.3,16.1z M27.3,18.7
		c-4.6,0-8.4,3.8-8.4,8.4s3.8,8.4,8.4,8.4s8.4-3.8,8.4-8.4S32,18.7,27.3,18.7z M27.3,32.5c-3,0-5.4-2.4-5.4-5.4s2.4-5.4,5.4-5.4
		s5.4,2.4,5.4,5.4S30.3,32.5,27.3,32.5z M44.3,20.1c0-5.7-4.6-10.3-10.3-10.3H20.5c-5.7,0-10.3,4.6-10.3,10.3v13.6
		c0,5.7,4.6,10.3,10.3,10.3h13.6c5.7,0,10.3-4.6,10.3-10.3V20.1z M41.1,33.7c0,3.9-3.2,7.1-7.1,7.1H20.5c-3.9,0-7.1-3.2-7.1-7.1
		V20.1c0-3.9,3.2-7.1,7.1-7.1h13.6c3.9,0,7.1,3.2,7.1,7.1V33.7z"/>
</g>
</svg>
