<?xml version="1.0" encoding="utf-8"?>
<!-- Generator: Adobe Illustrator 22.1.0, SVG Export Plug-In . SVG Version: 6.00 Build 0)  -->
<svg version="1.1" id="Layer_1" xmlns="http://www.w3.org/2000/svg" xmlns:xlink="http://www.w3.org/1999/xlink" x="0px" y="0px"
	 viewBox="0 0 200.9 247.1" style="enable-background:new 0 0 200.9 247.1;" xml:space="preserve">
<style type="text/css">
	.st0{fill:#FFFFFF;}
</style>
<g>
	<path d="M200.9,86.1c0-12.9-3-25.2-9.2-36.6c-13.8-25.4-35.6-40.2-63.3-47C116.6-0.3,107.7,0,95.7,0C73.1,0.2,52.4,6.5,34.5,20.3
		c-22,17-34.1,39.2-34.2,67.5c0,10-0.1,56.7-0.2,64c-0.2,11.8,0.3,23.5,4.6,34.6c12.2,31.7,36,50,68.3,57.9
		c14.6,3.6,26.4,3.1,41.2,2.1c21.2-1.5,40.1-9.1,56.3-23c19.1-16.4,29.8-37.1,30.2-62.6C200.9,139.9,200.9,106.9,200.9,86.1z"/>
	<g>
		<path class="st0" d="M105.9,178c1-1.9,1.7-3.9,2.1-6.2c0.4-2.3,0.6-4.5,0.6-6.6c0-1-0.1-2.3-0.2-3.8c-0.1-1.5-0.5-3.1-1-4.8
			c-0.5-1.7-1.2-3.4-2.1-5.1c-0.9-1.7-2.1-3.2-3.7-4.6c-1.5-1.4-3.4-2.5-5.7-3.3c-2-0.7-4.3-1.1-6.9-1.2c0-1.7,1-3,2.8-3.7
			c1.9-0.7,4.4-1.1,7.7-1.1h24.2c0.6,0,1.1-0.1,1.7-0.2c0.7-0.2,1.4-0.5,2.1-0.8c1.6-0.8,2.9-1.9,3.8-3.3c0.9-1.4,1.5-3,1.8-4.7
			c0.3-1.7,0.4-3.4,0.4-5.1s-0.2-3.2-0.7-4.6c-0.5-1.4-1.3-2.8-2.4-4.1c-0.3-0.4-0.7-0.8-1.1-1.2c-0.1-0.1-0.1-0.1-0.2-0.1
			c-0.3-0.3-0.7-0.6-1.1-0.9c-0.4-0.3-0.8-0.5-1.2-0.7c-1.7-0.9-4.1-1.5-7.2-1.5h-12.4c1.6-0.8,2.9-1.9,3.8-3.3
			c0.9-1.4,1.5-3,1.8-4.7c0.3-1.7,0.4-3.4,0.4-5.1c0-1.6-0.2-3.2-0.7-4.6c-0.5-1.4-1.3-2.8-2.4-4.1c-0.6-0.8-1.2-1.5-1.8-2
			c-0.6-0.5-1.8-0.9,0-1.3l1-0.1h23.8c-0.3-1.2-0.6-2.7-0.8-4.6c-0.2-1.9-0.4-4-0.5-6.2c-0.1-2.2-0.2-4.4-0.3-6.6
			c-0.1-2.2-0.1-4-0.1-5.6h-0.7v6.2H89.2v-6.1h-0.7V85h0.7v0c0,0,10.8,0.1,11.8,0.2c1,0.1,2,0.3,3,0.5c1,0.2,2,0.5,2.8,0.9
			c0.9,0.3,1.6,0.7,2,1.2c0.4,0.4,0.8,0.8,1.1,1.2c0.3,0.4,0.4,0.9,0.4,1.4c0,0.5-0.1,1-0.2,1.5c-0.1,0.5-0.4,0.9-0.8,1.3
			c-0.8,0.6-1.8,1-2.9,1.3c-1.1,0.2-2.2,0.4-3.3,0.4h-35v16.4h25.3v0h2.9h9.5h4.6h9c3.4,0,5.7,0.7,7.4,1.7c1.1,0.7,2,1.4,2.5,2.3
			c1.1,1.9,1,2.6,0.9,2.9c-0.1,0.5-0.4,0.9-0.8,1.3c-0.8,0.6-1.8,1-2.9,1.3c-1.1,0.2-2.2,0.4-3.3,0.4h-22.9c-1.7,0-3.3,0.2-4.7,0.7
			c-1.5,0.5-2.8,1.2-3.9,2.3c-1.1,1.1-2,2.5-2.6,4.3c-0.6,1.8-0.9,4-0.9,6.7v7.1c-0.2,0-0.3,0-0.5,0c-4,0-7.4,0.8-10.2,2.3
			c-2.8,1.5-4.9,3.3-6.2,5.5c-1.1,1.6-1.9,3.1-2.4,4.3c-0.6,1.2-1,2.4-1.3,3.5c-0.3,1.1-0.4,2.2-0.5,3.3s-0.1,2.3-0.1,3.7
			c0,3,0.4,5.5,1.1,7.6c0.7,2,1.7,3.7,3,5.1c1.3,1.4,2.8,2.5,4.5,3.3c1.7,0.8,3.6,1.6,5.7,2.3l0.1-0.8c-1.5-0.6-3-1.2-4.4-2
			c-1.4-0.7-2.6-1.6-3.7-2.7s-1.9-2.3-2.6-3.7c-0.6-1.4-1-3-1-4.9c0-2.5,0.5-4.5,1.5-6c1-1.5,2.3-2.6,3.9-3.3s3.4-1.2,5.5-1.4
			c2-0.2,4-0.3,6-0.3h1.1v12.3c0,1.4,0,3,0.1,4.6c0.1,1.6,0.4,3.1,0.8,4.5c0.5,1.4,1.2,2.6,2.1,3.5c0.9,0.9,2.2,1.4,3.8,1.4
			c2.7,0,5-0.6,6.8-1.8C103.5,181.4,104.9,179.8,105.9,178z M94.6,169.6c-0.1,0-0.4,0-0.8,0c-0.4,0-0.8-0.1-1.3-0.2
			c-0.5-0.1-1-0.2-1.4-0.4c-0.5-0.2-0.9-0.4-1.2-0.7c-0.5-0.6-0.8-1.2-0.9-2c-0.1-0.8-0.2-1.3-0.2-1.6V158h4.1c1.6,0,3.2,0,5,0.2
			c1.8,0.1,3.4,0.3,4.9,0.7c1.5,0.4,2.7,0.9,3.7,1.6c1,0.7,1.5,1.7,1.5,3v0.3c0,0.7-0.2,1.4-0.5,2.1c-0.4,0.7-1,1.3-2,1.9
			c-1,0.6-2.3,1-4,1.3C99.6,169.4,97.3,169.6,94.6,169.6z"/>
		<path class="st0" d="M200.9,86.1c0-12.9-3-25.2-9.2-36.6c-13.8-25.4-35.6-40.2-63.3-47C116.6-0.3,107.7,0,95.7,0
			C73.1,0.2,52.4,6.5,34.5,20.3c-22,17-34.1,39.2-34.2,67.5c0,10-0.1,56.7-0.2,64c-0.2,11.8,0.3,23.5,4.6,34.6
			c12.2,31.7,36,50,68.3,57.9c14.6,3.6,26.4,3.1,41.2,2.1c21.2-1.5,40.1-9.1,56.3-23c19.1-16.4,29.8-37.1,30.2-62.6
			C200.9,139.9,200.9,106.9,200.9,86.1z M196.9,159c-0.4,26.5-12,47.6-32.6,63.9c-16.9,13.4-36.4,19.7-57.9,20.2
			c-12.6,0.3-22.1,0.3-34.4-2.9c-25.6-6.8-45.7-21-58.7-44.4C7.2,184.7,4,172.7,3.9,160c-0.1-10.6,0-33.4,0-44
			c0.1,0-0.2-22.8,0.5-34.1c1.4-21.7,11.2-39.6,27.3-54C49.9,11.7,71.4,4.2,95.5,3.8c11.4-0.2,19.8-0.4,30.9,2.3
			c31.4,7.7,54.5,25.3,66.2,56.1c3.1,8.2,4.4,16.7,4.4,25.5C197,107.5,197.2,139.3,196.9,159z"/>
		<path class="st0" d="M126.4,208.9c23.5-9,39.6-31.2,40.4-56.4c0.2-7.1,0.3-48,0.3-55.3c-0.2-26.4-16.6-49.6-41.3-58.9
			c-10.8-4.1-19-4.4-30.3-4c-10.4,0.4-20.2,3-29.1,8.2C47.3,53.5,35.7,70,34.3,92.2c-1,16.4-0.7,45-0.4,61.4
			c0.2,10.3,3.3,20.1,8.9,28.9C54.6,201,71.5,211.3,93.4,213C105.6,213.9,114.7,213.4,126.4,208.9z M38.1,159.1c-0.4-2-0.6-4-0.6-6
			c0-16-0.7-44.2,0.4-60.1C39.5,69,52.5,52.4,74.1,42.6C85.6,37.3,94.8,37,107,38c21.4,1.6,37.6,11.8,48.6,30.1
			c6.4,10.7,8.2,22.5,7.8,34.7c-0.2,4.9-0.1,41.8-0.2,49.3c-0.6,28.5-23,53.4-51.4,56.9c-12.4,1.5-21.8,1.8-33.7-2.6
			C55.9,198.2,42.4,182.5,38.1,159.1z"/>
		<path class="st0" d="M141.7,27.6c0.2,0.3,0.5,0.5,0.8,0.7c0.3,0.2,0.7,0.3,1,0.4c0.4,0.1,0.7,0.1,1,0c0.3-0.1,0.6-0.2,0.9-0.4
			c0.3-0.2,0.5-0.4,0.6-0.7c0.2-0.3,0.2-0.6,0.3-0.9c0-0.3,0-0.6-0.2-1c-0.1-0.3-0.3-0.6-0.5-0.9c-0.2-0.3-0.5-0.5-0.9-0.7
			c-0.3-0.2-0.7-0.3-1-0.3c-0.3,0-0.7,0-1,0c-0.3,0.1-0.6,0.2-0.9,0.4c-0.3,0.2-0.5,0.4-0.6,0.7c-0.2,0.3-0.2,0.6-0.3,0.9
			c0,0.3,0,0.6,0.1,1C141.3,27,141.5,27.3,141.7,27.6z"/>
		<path class="st0" d="M145.5,37.4l4.3,4.1l0.6-0.6l-1.3-1.3c-0.1-0.1-0.2-0.3-0.2-0.5c0-0.2,0.1-0.4,0.2-0.5l7.3-7.7
			c-0.1,0.4-0.2,0.8-0.3,1.2c-0.3,0.9-0.6,1.9-0.9,2.9c-0.3,1-0.7,2-1.1,3c-0.4,1-0.7,1.9-0.9,2.8c-0.3,0.8-0.4,1.6-0.5,2.2
			c-0.1,0.7,0,1.2,0.3,1.5l0.3,0.3l12.2-6.2l-8.3,8.7l-1.6-1.5l-0.6,0.6l7.2,6.8l0.6-0.6l-1.6-1.5l9.7-10.2l1.6,1.5l0.6-0.6
			l-5.1-4.8l0.8-0.8l-1.1,0.5l-0.1-0.1l-9.2,4.7c0,0,0-0.1,0.1-0.1c0.2-0.4,0.3-0.9,0.6-1.4c0.2-0.5,0.5-1.1,0.7-1.7
			c0.3-0.6,0.5-1.3,0.7-1.9c0.2-0.7,0.4-1.3,0.5-1.9c0.1-0.6,0.2-1.3,0.1-1.9c-0.1-0.5-0.2-1-0.4-1.5c-0.2-0.4-0.4-0.8-0.6-1.1
			c-0.2-0.4-0.5-0.7-0.8-1l-3.3-3.1l-0.6,0.6l0.2,0.2c0.1,0.2,0.3,0.3,0.4,0.6c0.1,0.2,0.3,0.4,0.4,0.7c0.1,0.3,0.2,0.6,0.3,1
			c0,0.1,0,0.3,0,0.4c0,0.1,0,0.3,0,0.4l-8.2,8.6c-0.1,0.1-0.3,0.2-0.5,0.2c-0.2,0-0.4-0.1-0.5-0.2l-1.3-1.2L145.5,37.4z"/>
		<path class="st0" d="M165.7,57.7L165.7,57.7c-0.2-0.1-0.4-0.3-0.5-0.4l-0.7-1.4l-0.8,0.4l2.4,4.6l0.8-0.4l-0.7-1.3
			c0-0.1-0.1-0.1,0-0.2c0,0,0-0.1,0.2-0.2l-0.1-0.3c0,0,0,0,0,0l0.2,0.3l3.8-0.8l2,3.8c-0.5,0.6-0.9,1.1-1.3,1.6
			c-0.4,0.6-0.7,1.2-0.9,1.8c-0.2,0.6-0.3,1.2-0.2,1.9c0,0.6,0.3,1.4,0.7,2.1l1.1,2l0.3-0.4c1.1-1.3,2.1-2.5,3.1-3.8
			c0.4-0.5,0.9-1.1,1.4-1.6c0.5-0.6,0.9-1.1,1.4-1.7c0.5-0.6,0.9-1.1,1.3-1.6c0.4-0.5,0.8-1,1.2-1.4c0.2-0.3,0.5-0.6,0.7-1
			c0.2-0.4,0.4-0.8,0.5-1.2c0.1-0.4,0.2-0.9,0.2-1.4c0-0.5-0.2-1-0.4-1.5l-2-3.8l-0.8,0.4l0.2,0.3c0.1,0.1,0.1,0.3,0.1,0.6
			c0,0.3-0.1,0.6-0.3,0.9c-0.1,0.3-0.3,0.7-0.5,1c-0.2,0.3-0.3,0.5-0.5,0.8l-11.1,2.1C166.2,57.8,166,57.8,165.7,57.7z M172.9,61
			l-1.7-3.2l5.3-1L172.9,61z"/>
		<polygon class="st0" points="173.8,76.9 173.3,74.8 172.5,75 174.7,84.7 175.6,84.5 175.1,82.4 188.8,79.3 189.3,81.4 190.2,81.2 
			187.9,71.4 187.1,71.6 187.6,73.8 		"/>
		<path class="st0" d="M187.3,90.8C187.3,90.8,187.2,90.8,187.3,90.8c-1.1,0-2.1,0.3-3,0.9c-0.9,0.6-1.7,1.5-2.4,2.7
			c-0.4,0.7-0.8,1.4-1.2,2.1c-0.4,0.7-0.8,1.2-1.1,1.8c-0.3,0.5-0.7,0.9-1,1.2c-0.3,0.3-0.6,0.4-0.9,0.4c0,0,0,0,0,0
			c-0.5,0-0.7-0.1-0.8-0.2c-0.2-0.1-0.3-0.4-0.5-0.6c-0.1-0.2-0.1-0.5-0.2-0.7c0-0.3,0-0.6,0-0.9c0-0.2,0-0.5,0.1-0.7
			c0.1-0.7,0.4-1.3,0.7-2c0.2-0.4,0.6-0.7,1-1c0.5-0.3,0.9-0.6,1.3-0.9c0.3-0.2,0.7-0.4,1-0.5c0.3-0.1,0.6-0.2,0.9-0.3
			c0.3-0.1,0.6-0.1,0.9-0.2l0.3,0l0-0.8l-6.9,0.5l0,0.7l0.2,0.1c0.2,0.1,0.4,0.2,0.6,0.4c0.1,0.1,0.3,0.2,0.4,0.4
			c0.1,0.1,0.1,0.2,0.1,0.2c-0.4,0.7-0.7,1.4-1,2.1c-0.3,0.7-0.4,1.4-0.4,2.2l0,0.3c0,0.8,0.1,1.6,0.4,2.3c0.2,0.7,0.6,1.4,1.1,1.9
			c0.5,0.5,1,1,1.6,1.3c0.6,0.3,1.3,0.5,2.1,0.5c0,0,0,0,0,0c1.1,0,2.1-0.3,3-1c0.9-0.6,1.7-1.7,2.4-3.1c0.8-1.6,1.4-2.8,2-3.5
			c0.5-0.6,1-1,1.4-1c0,0,0,0,0,0c0.2,0,0.4,0,0.6,0.1c0.2,0.1,0.3,0.2,0.4,0.4c0.1,0.2,0.2,0.3,0.2,0.5c0,0.2,0.1,0.4,0.1,0.5
			c0,0.6-0.1,1.1-0.3,1.6c-0.2,0.5-0.4,1-0.6,1.4c-0.1,0.1-0.3,0.3-0.4,0.5c-0.2,0.2-0.3,0.3-0.5,0.5c-0.1,0.1-0.3,0.3-0.4,0.4
			c-0.1,0.1-0.2,0.2-0.3,0.2c-0.4,0.2-0.7,0.4-0.9,0.6c-0.2,0.1-0.4,0.3-0.6,0.3c-0.2,0.1-0.3,0.1-0.4,0.2l-0.2,0.1l0,0.8l5.4-0.6
			l0-0.7l-0.2-0.1c-0.2-0.1-0.4-0.2-0.6-0.4c-0.1-0.1-0.3-0.2-0.4-0.4c-0.1-0.1-0.1-0.2-0.1-0.2c0,0,0,0,0,0c0,0,0,0,0,0
			c0.3-0.7,0.6-1.3,0.9-2c0.3-0.7,0.4-1.4,0.4-2.1c0-2-0.3-3.5-1-4.5C189.6,91.4,188.6,90.8,187.3,90.8z"/>
		<path class="st0" d="M191.2,115.7c-0.1-0.4-0.2-0.8-0.4-1.2c-0.2-0.4-0.4-0.7-0.6-1.1c-0.3-0.4-0.7-0.8-1.2-1.2
			c-0.5-0.4-1-0.7-1.6-0.9c-0.6-0.3-1.2-0.5-1.9-0.6c-0.7-0.2-1.4-0.2-2.1-0.3c-0.7,0-1.4,0-2.1,0.1c-0.7,0.1-1.3,0.3-1.9,0.5
			c-0.6,0.2-1.2,0.5-1.6,0.8c-0.5,0.3-0.9,0.7-1.3,1.1c-0.3,0.3-0.5,0.7-0.7,1c-0.2,0.4-0.3,0.7-0.4,1.2c-0.1,0.4-0.2,0.8-0.2,1.3
			c0,0.5-0.1,1-0.1,1.6l0,0.9c0,0.6,0,1.1,0,1.6c0,0.5,0.1,0.9,0.1,1.4c0.1,0.4,0.2,0.8,0.4,1.2c0.2,0.4,0.4,0.7,0.6,1.1
			c0.3,0.4,0.7,0.8,1.2,1.2c0.5,0.4,1,0.7,1.6,0.9c0.6,0.3,1.2,0.5,1.9,0.6c0.7,0.2,1.4,0.2,2.1,0.3c0.1,0,0.2,0,0.3,0
			c0.6,0,1.2,0,1.8-0.1c0.7-0.1,1.3-0.3,1.9-0.5c0.6-0.2,1.2-0.5,1.6-0.8c0.5-0.3,0.9-0.7,1.3-1.1c0.3-0.3,0.5-0.7,0.7-1
			c0.2-0.4,0.3-0.7,0.4-1.1c0.1-0.4,0.2-0.8,0.2-1.3c0-0.5,0.1-1,0.1-1.6l0-1c0-0.6,0-1.1,0-1.6
			C191.3,116.6,191.2,116.1,191.2,115.7z M190.4,119.8c0,0.1-0.1,0.2-0.2,0.3c-0.2,0.3-0.6,0.5-1,0.6c-0.5,0.2-1.1,0.3-1.7,0.4
			c-0.6,0.1-1.3,0.1-1.9,0.1c-0.7,0-1.2,0-1.7,0l-1.2,0c-0.5,0-1.1,0-1.7-0.1c-0.6,0-1.3-0.1-1.9-0.2c-0.6-0.1-1.2-0.3-1.7-0.5
			c-0.5-0.2-0.8-0.4-1-0.7c-0.1-0.1-0.2-0.2-0.2-0.3c0,0,0-0.1,0-0.2l0-1c0-0.1,0-0.2,0-0.2c0,0,0.1-0.1,0.2-0.3
			c0.2-0.3,0.6-0.5,1-0.6c0.5-0.2,1.1-0.3,1.7-0.4c0.6-0.1,1.3-0.1,1.9-0.1c0.3,0,0.5,0,0.8,0c0.3,0,0.7,0,1,0l1.2,0
			c0.5,0,1.1,0,1.7,0.1c0.6,0,1.3,0.1,1.9,0.2c0.6,0.1,1.2,0.3,1.7,0.5c0.5,0.2,0.8,0.4,1,0.7c0.1,0.1,0.2,0.2,0.2,0.3
			c0,0,0,0.1,0,0.2l0,1C190.4,119.7,190.4,119.8,190.4,119.8z"/>
		<path class="st0" d="M190.2,144.6l0,1.5c0,0.2-0.1,0.3-0.2,0.5c-0.1,0.1-0.3,0.2-0.5,0.2l-7.6,0c0.4-0.3,0.8-0.6,1.3-1
			c0.5-0.4,1-0.9,1.6-1.4c0.6-0.5,1.1-1,1.7-1.5c0.6-0.5,1.1-1,1.6-1.6c0.5-0.5,0.9-1,1.3-1.4c0.4-0.5,0.7-0.9,0.9-1.3
			c0.2-0.4,0.4-0.8,0.5-1.1c0.1-0.4,0.2-0.8,0.2-1.1l0-5h-0.8l-0.1,0.2c-0.1,0.2-0.2,0.4-0.3,0.7c-0.1,0.2-0.3,0.5-0.5,0.8
			c-0.2,0.3-0.5,0.6-0.8,0.9l-0.8,0.8l-11.1,0c-0.2,0-0.4-0.1-0.5-0.2c-0.1-0.1-0.2-0.3-0.2-0.5l0-1.5h-0.9l0,5.2h0.9l0-1.5
			c0-0.2,0.1-0.3,0.2-0.5c0.1-0.1,0.3-0.2,0.5-0.2l10,0c-2,1.6-3.8,3-5.3,4.4c-0.8,0.7-1.5,1.3-2.3,2c-0.8,0.7-1.4,1.4-2,2
			c-0.6,0.6-1.1,1.2-1.4,1.8c-0.4,0.6-0.6,1.1-0.6,1.5l0,0.5l14.3,0c0.2,0,0.4,0.1,0.5,0.2c0.1,0.1,0.2,0.3,0.2,0.5l0,1.5h0.9l0-5.2
			L190.2,144.6z"/>
		<path class="st0" d="M184.1,184.6l-12.7-6.2l0.8-1.7l-0.8-0.4l-6.3,12.9l5.8,2.8l0.4-0.8l-0.3-0.2c-0.2-0.1-0.5-0.2-0.7-0.4
			c-0.2-0.1-0.4-0.3-0.7-0.4c-0.2-0.2-0.4-0.4-0.7-0.7c-0.2-0.3-0.5-0.6-0.7-1c-0.3-0.5-0.4-0.9-0.5-1.2c-0.1-0.3-0.1-0.6-0.1-0.8
			c0-0.3,0.1-0.5,0.2-0.8c0.1-0.3,0.3-0.6,0.4-0.9l0.6-1.3l6.1,3l-0.3,0.5c-0.2,0.4-0.4,0.8-0.7,1c-0.2,0.2-0.5,0.4-1,0.4
			c-0.4,0.1-0.8,0.1-1.2,0c-0.3,0-0.7-0.1-1-0.3l-0.3-0.2l-0.4,0.8l6.3,3.1l0.3,0.1l0.4-0.7l-0.3-0.2c-0.3-0.2-0.6-0.4-0.9-0.6
			c-0.2-0.3-0.5-0.6-0.7-0.9c-0.1-0.2-0.2-0.4-0.2-0.6c0-0.2,0-0.3,0-0.5c0-0.2,0.1-0.3,0.1-0.5c0.1-0.2,0.2-0.4,0.3-0.6l0.3-0.5
			l5.8,2.8l-0.5,1c-0.2,0.3-0.3,0.7-0.5,1c-0.2,0.3-0.3,0.5-0.5,0.7c-0.2,0.2-0.4,0.4-0.7,0.5c-0.3,0.1-0.6,0.2-1.1,0.3
			c-0.4,0.1-0.7,0.1-1,0.1c0,0,0,0,0,0c-0.3,0-0.5,0-0.8-0.1c-0.2,0-0.4-0.1-0.7-0.2c-0.2-0.1-0.5-0.2-0.8-0.4l-0.3-0.2l-0.4,0.8
			l5.2,2.5l6.2-12.6l-0.8-0.4L184.1,184.6z"/>
		<path class="st0" d="M167.6,200.9c-1-0.2-2.3-0.1-3.6,0.3l-2.3,0.7c-0.7,0.2-1.4,0.4-2,0.5c-0.6,0.1-1.1,0.2-1.6,0.2
			c-0.4,0-0.7-0.1-0.9-0.3c-0.4-0.4-0.5-0.6-0.5-0.7c0-0.2,0-0.5,0.1-0.8c0.1-0.2,0.2-0.4,0.4-0.7c0.2-0.2,0.4-0.5,0.5-0.7
			c0.2-0.2,0.3-0.3,0.5-0.4c0.5-0.4,1.2-0.7,1.9-0.9c0.4-0.1,0.9-0.2,1.4-0.1c0.6,0.1,1.1,0.2,1.5,0.3c0.4,0.1,0.8,0.2,1.1,0.3
			c0.3,0.1,0.6,0.3,0.8,0.4c0.3,0.2,0.5,0.3,0.8,0.5l0.3,0.2l0.6-0.6l-5.4-4.3l-0.5,0.5l0.1,0.2c0.1,0.2,0.1,0.4,0.1,0.7
			c0,0.2,0,0.4,0,0.5c0,0.1,0,0.2-0.1,0.3c-0.8,0.2-1.5,0.5-2.2,0.9c-0.7,0.3-1.3,0.8-1.8,1.3l-0.2,0.2c-0.5,0.6-1,1.3-1.3,1.9
			c-0.3,0.7-0.5,1.4-0.5,2.1c0,0.7,0.1,1.4,0.3,2.1c0.3,0.7,0.7,1.3,1.3,1.8c0.8,0.8,1.8,1.2,2.9,1.3c1.1,0.1,2.4-0.1,3.9-0.7
			c1.7-0.7,2.9-1.1,3.8-1.2c0.8-0.1,1.4,0,1.7,0.2c0.2,0.2,0.3,0.3,0.3,0.5c0.1,0.2,0.1,0.4,0,0.6c0,0.2-0.1,0.4-0.2,0.5
			c-0.1,0.2-0.2,0.3-0.3,0.4c-0.4,0.4-0.8,0.7-1.3,1c-0.5,0.3-1,0.5-1.4,0.6c-0.2,0-0.4,0-0.6,0.1c-0.4,0-0.9,0-1.2,0
			c-0.2,0-0.3,0-0.4,0c-0.4-0.1-0.8-0.1-1.1-0.2c-0.3,0-0.5-0.1-0.7-0.1c-0.1,0-0.3-0.1-0.3-0.1l-0.2-0.1l-0.5,0.6l4.4,3.2l0.5-0.5
			l-0.1-0.2c-0.1-0.2-0.1-0.4-0.1-0.7c0-0.2,0-0.3,0-0.5c0-0.2,0.1-0.2,0.1-0.2c0,0,0,0,0,0c0.7-0.3,1.4-0.6,2-0.9
			c0.7-0.3,1.2-0.8,1.7-1.3c1.3-1.4,2.1-2.8,2.3-4c0.2-1.3-0.2-2.4-1.2-3.3C169.6,201.6,168.7,201.1,167.6,200.9z"/>
		<path class="st0" d="M152.2,215.8c-0.9-0.5-2.1-0.7-3.6-0.7c-0.8,0-1.6,0-2.4,0.1c-0.8,0-1.5,0-2.1,0c-0.6,0-1.1-0.1-1.6-0.2
			c-0.4-0.1-0.6-0.3-0.8-0.5c-0.3-0.5-0.3-0.7-0.3-0.8c0-0.2,0.1-0.5,0.3-0.7c0.1-0.2,0.3-0.4,0.5-0.5c0.2-0.2,0.5-0.3,0.7-0.5
			c0.2-0.1,0.4-0.2,0.6-0.3c0.6-0.3,1.3-0.4,2.1-0.4c0.5,0,0.9,0.1,1.4,0.3c0.5,0.2,1,0.4,1.4,0.7c0.4,0.2,0.7,0.4,1,0.6
			c0.3,0.2,0.5,0.4,0.7,0.6c0.2,0.2,0.4,0.4,0.6,0.6l0.2,0.2l0.7-0.5l-4.1-5.6l-0.6,0.4l0,0.2c0,0.2,0,0.5,0,0.7
			c0,0.2-0.1,0.4-0.1,0.5c0,0.1-0.1,0.2-0.2,0.2c-0.8,0-1.6,0.1-2.3,0.3c-0.7,0.2-1.4,0.4-2,0.8l-0.2,0.2c-0.7,0.4-1.3,1-1.8,1.5
			c-0.5,0.6-0.8,1.2-1,1.9c-0.2,0.7-0.3,1.4-0.2,2.1c0.1,0.7,0.3,1.4,0.7,2c0.6,1,1.4,1.6,2.4,2.1c1,0.4,2.3,0.5,3.9,0.4
			c1.8-0.2,3.1-0.2,4-0.1c0.8,0.1,1.3,0.3,1.5,0.7c0.1,0.2,0.2,0.4,0.2,0.6c0,0.2,0,0.4-0.1,0.6c-0.1,0.2-0.2,0.3-0.3,0.5
			c-0.1,0.1-0.3,0.3-0.4,0.3c-0.5,0.3-1,0.5-1.5,0.6c-0.6,0.1-1.1,0.2-1.5,0.2c-0.2,0-0.4-0.1-0.6-0.1c-0.2,0-0.4-0.1-0.6-0.1
			c-0.2-0.1-0.4-0.1-0.5-0.2c-0.2-0.1-0.3-0.1-0.4-0.1c-0.4-0.2-0.7-0.4-1-0.5c-0.2-0.1-0.4-0.2-0.6-0.3c-0.2-0.1-0.3-0.2-0.4-0.2
			l-0.2-0.1l-0.7,0.4l3.4,4.3l0.6-0.4l0-0.2c0-0.2,0-0.5,0-0.7c0-0.2,0.1-0.3,0.1-0.5c0-0.1,0.1-0.2,0.1-0.2c0,0,0,0,0,0
			c0.7-0.1,1.5-0.2,2.2-0.3c0.7-0.1,1.4-0.4,2-0.8c1.6-1,2.8-2.1,3.3-3.2c0.6-1.2,0.5-2.3-0.3-3.5
			C153.9,217,153.2,216.3,152.2,215.8z"/>
		<polygon class="st0" points="134.9,231.8 130.3,218.4 132.4,217.7 132.1,216.9 122.6,220.1 122.9,221 125,220.3 129.6,233.6 
			127.5,234.3 127.8,235.2 137.3,231.9 137,231.1 		"/>
		<path class="st0" d="M113.1,222l0.1,0.9l1.5-0.1c0.1,0,0.2,0,0.2,0c0,0,0.1,0.1,0.1,0.2l0,0.2l-0.7,3.8l-4.3,0.4
			c-0.3-0.6-0.7-1.2-1-1.8c-0.4-0.6-0.8-1.1-1.3-1.6c-0.5-0.4-1-0.7-1.7-1c-0.6-0.2-1.4-0.3-2.2-0.2l-2.3,0.2l0.2,0.5
			c0.8,1.5,1.5,2.9,2.3,4.3c0.3,0.6,0.6,1.2,1,1.9c0.3,0.7,0.7,1.3,1,1.9c0.3,0.6,0.7,1.3,1,1.9c0.3,0.6,0.6,1.1,0.8,1.6
			c0.2,0.3,0.4,0.7,0.6,1c0.3,0.4,0.6,0.7,0.9,1c0.4,0.3,0.8,0.5,1.2,0.7c0.4,0.1,0.8,0.2,1.2,0.2c0.1,0,0.2,0,0.4,0l4.3-0.4
			l-0.1-0.9l-0.3,0c-0.2,0-0.4,0-0.6-0.2c-0.3-0.2-0.5-0.4-0.8-0.6c-0.3-0.3-0.5-0.5-0.7-0.8c-0.2-0.3-0.4-0.5-0.5-0.7l2.3-11
			c0-0.2,0.2-0.4,0.3-0.6c0.2-0.2,0.4-0.2,0.6-0.3l1.6-0.1l-0.1-0.9L113.1,222z M114,227.8l-1.1,5.3l-2.5-5L114,227.8z"/>
		<path class="st0" d="M92.1,223.1l1.8,0.3c0.2,0,0.3,0.1,0.5,0.3c0.1,0.2,0.2,0.3,0.1,0.5l-1.6,10.5c-0.1-0.4-0.3-0.8-0.4-1.2
			c-0.3-0.9-0.6-1.9-0.9-2.9c-0.3-1-0.6-2-0.8-3.1c-0.3-1-0.5-1.9-0.8-2.8c-0.3-0.8-0.6-1.5-0.8-2.1c-0.3-0.6-0.7-1-1.1-1l-0.4-0.1
			l-6.5,12.1l1.8-11.9l2.1,0.3l0.1-0.9l-9.8-1.5l-0.1,0.9l2.1,0.3l-2.2,14l-2.1-0.3l-0.1,0.9l6.9,1.1l-0.2,1.1l0.6-1l0.2,0l4.9-9.1
			c0,0,0,0.1,0,0.2c0.1,0.4,0.2,0.9,0.3,1.5c0.1,0.6,0.3,1.2,0.4,1.8c0.2,0.7,0.3,1.3,0.6,2c0.2,0.7,0.4,1.3,0.7,1.9
			c0.3,0.6,0.6,1.1,1,1.6c0.4,0.4,0.8,0.7,1.2,1c0.4,0.3,0.8,0.4,1.1,0.6c0.4,0.2,0.8,0.3,1.2,0.4l4.5,0.7l0.1-0.8l-0.3-0.1
			c-0.2,0-0.4-0.1-0.7-0.2c-0.2-0.1-0.4-0.2-0.7-0.4c-0.3-0.2-0.6-0.4-0.8-0.7c-0.1-0.1-0.2-0.2-0.3-0.3c-0.1-0.1-0.2-0.2-0.2-0.4
			l1.8-11.8c0-0.2,0.1-0.3,0.3-0.5c0.2-0.1,0.3-0.2,0.5-0.1L98,224l0.1-0.9l-5.8-0.9L92.1,223.1z"/>
		<path class="st0" d="M57.6,211.3L57.6,211.3c-0.4,0-0.7,0-1.1,0c-0.4,0-0.8,0.1-1.2,0.3c-0.4,0.2-0.7,0.4-1.1,0.7
			c-0.3,0.3-0.6,0.7-0.9,1.2c-0.4,0.7-0.5,1.4-0.4,2c0.1,0.6,0.3,1.2,0.6,1.8c0.3,0.5,0.7,1,1.2,1.4c0.1,0.1,0.3,0.3,0.4,0.4
			c0,0,0,0,0,0c-0.3,0-0.7,0-1.1,0c-0.4,0-0.8,0.1-1.2,0.3c-0.4,0.1-0.8,0.3-1.1,0.6c-0.4,0.3-0.7,0.6-0.9,1
			c-0.2,0.4-0.3,0.8-0.4,1.2c0,0.4,0,0.8,0.1,1.1c0.1,0.3,0.2,0.7,0.4,1c0.2,0.3,0.4,0.5,0.6,0.8c0.5,0.6,1.2,1.1,1.9,1.5l10.4,5.5
			l0.4-0.8l-1.9-1l6.6-12.5l1.9,1l0.4-0.8l-11.4-6C59.3,211.6,58.4,211.4,57.6,211.3z M55.7,223.4l0.2-0.4c0.2-0.3,0.4-0.6,0.6-0.8
			c0.2-0.2,0.4-0.3,0.7-0.4c0.2-0.1,0.5-0.2,0.7-0.2c0.1,0,0.2,0,0.3,0c0.2,0,0.3,0,0.5,0c0.6,0.1,1.2,0.2,1.8,0.5l-2.9,5.5
			l-0.7-0.4c-0.4-0.3-0.8-0.6-1.1-1c-0.2-0.3-0.4-0.7-0.4-1.2C55.2,224.6,55.4,224,55.7,223.4z M60.9,221.4l-0.6-0.3l-0.3-0.2
			c-0.1-0.1-0.3-0.2-0.6-0.4c-0.2-0.2-0.4-0.4-0.6-0.7c-0.2-0.3-0.4-0.6-0.5-0.9c-0.1-0.3-0.1-0.7-0.1-1.2c0-0.4,0.2-0.9,0.5-1.4
			c0.2-0.4,0.4-0.7,0.7-1c0.2-0.2,0.5-0.4,0.8-0.6c0.3-0.1,0.5-0.2,0.8-0.3c0.2,0,0.4-0.1,0.6-0.1c0.1,0,0.1,0,0.2,0h0
			c0.6,0,1.2,0.2,1.8,0.5l0.6,0.3L60.9,221.4z"/>
		<path class="st0" d="M51.6,207.6l0.6-0.6l-6.7-7.2l-0.6,0.6l1.5,1.6l-4.6,4.3c0.1-0.3,0.2-0.7,0.2-1.1c0.1-0.7,0.3-1.5,0.6-2.2
			c0.3-0.8,0.5-1.6,0.6-2.3c0.1-0.8,0.2-1.6,0.1-2.3c-0.1-0.8-0.4-1.5-1-2.1l-2.9-3.1l-0.6,0.6l0.2,0.3c0,0,0.1,0.2,0,0.8
			c-0.1,0.6-0.2,1.2-0.4,2l-0.6,2.3c-0.2,0.8-0.3,1.5-0.4,2.1c-0.1,0.6,0,1.2,0.2,1.8c0,0.1,0,0.1,0.1,0.2c-0.1-0.1-0.3-0.3-0.5-0.5
			c-0.4-0.4-0.9-0.7-1.5-0.9c-0.6-0.2-1.2-0.3-1.8-0.3c-0.7,0-1.3,0.4-2,1c-0.4,0.3-0.6,0.7-0.8,1.1c-0.2,0.4-0.3,0.8-0.3,1.2
			c0,0.4,0,0.8,0,1.1c0.1,0.4,0.2,0.7,0.3,1c0.3,0.7,0.7,1.5,1.3,2.2l8,8.5l0.6-0.6l-1.5-1.6l10.3-9.7L51.6,207.6z M35.2,208.4
			c0.1-0.5,0.4-1,0.9-1.5l0.3-0.3c0.4-0.4,0.7-0.6,1-0.8c0.2-0.1,0.5-0.2,0.7-0.2c0,0,0,0,0.1,0c0.2,0,0.5,0.1,0.7,0.3
			c0.3,0.2,0.6,0.5,1,0.9l0.7,0.7l-4.5,4.2l-0.2-0.3c-0.3-0.5-0.6-1-0.7-1.6C35.1,209.4,35.1,208.9,35.2,208.4z"/>
		<path class="st0" d="M36.2,190l0.8-0.4l-6.6-12.8l-5.7,3l0.4,0.8l0.3-0.2c0.2-0.1,0.5-0.2,0.7-0.4c0.2-0.1,0.5-0.2,0.8-0.3
			c0.3-0.1,0.6-0.1,1-0.1c0.4,0,0.8,0,1.2,0.1c0.5,0.1,1,0.2,1.3,0.3c0.3,0.1,0.5,0.2,0.7,0.4c0.2,0.2,0.4,0.4,0.5,0.6
			c0.2,0.3,0.3,0.6,0.5,0.9l0.7,1.3l-6.1,3.1l-0.3-0.5c-0.2-0.4-0.4-0.8-0.4-1.2c-0.1-0.3,0-0.6,0.2-1c0.2-0.4,0.4-0.7,0.7-1
			c0.2-0.3,0.5-0.5,0.8-0.6l0.3-0.2l-0.4-0.8l-6.2,3.2l-0.3,0.2l0.4,0.7l0.3-0.2c0.3-0.2,0.7-0.3,1-0.3c0.4,0,0.7,0,1.2,0
			c0.2,0,0.4,0.1,0.6,0.2c0.2,0.1,0.3,0.2,0.4,0.3c0.1,0.1,0.2,0.3,0.3,0.4c0.1,0.2,0.2,0.4,0.3,0.6l0.3,0.5l-5.7,2.9l-0.5-1
			c-0.2-0.3-0.3-0.7-0.5-1c-0.1-0.3-0.2-0.6-0.3-0.9c0-0.3,0-0.6,0-0.9c0.1-0.3,0.2-0.6,0.4-1c0.2-0.3,0.4-0.6,0.5-0.8
			c0.2-0.2,0.3-0.4,0.5-0.6c0.2-0.2,0.4-0.3,0.6-0.4c0.2-0.1,0.5-0.3,0.7-0.4l0.3-0.2l-0.4-0.8l-5.1,2.6l6.4,12.5l0.8-0.4l-0.9-1.7
			l12.6-6.5L36.2,190z"/>
		<path class="st0" d="M17,174.1c0.3,0.2,0.6,0.3,0.9,0.4c0.3,0.1,0.6,0.1,1,0c0.3-0.1,0.6-0.2,0.9-0.4c0.3-0.2,0.5-0.5,0.6-0.7
			c0.2-0.3,0.3-0.6,0.3-1c0-0.3,0-0.7-0.1-1.1c-0.1-0.4-0.2-0.7-0.4-1c-0.2-0.3-0.4-0.6-0.7-0.7c-0.3-0.2-0.6-0.3-0.9-0.4
			c-0.3-0.1-0.6-0.1-1,0c-0.3,0.1-0.6,0.2-0.9,0.4c-0.2,0.2-0.4,0.5-0.6,0.8c-0.2,0.3-0.2,0.6-0.3,1c0,0.4,0,0.7,0.1,1.1
			c0.1,0.4,0.2,0.7,0.4,1C16.5,173.7,16.8,173.9,17,174.1z"/>
	</g>
</g>
</svg>
