<?xml version="1.0" encoding="utf-8"?>
<!-- Generator: Adobe Illustrator 25.0.0, SVG Export Plug-In . SVG Version: 6.00 Build 0)  -->
<svg version="1.1" id="Calque_1" xmlns="http://www.w3.org/2000/svg" xmlns:xlink="http://www.w3.org/1999/xlink" x="0px" y="0px"
	 viewBox="0 0 219 219.11" style="enable-background:new 0 0 219 219.11;" xml:space="preserve">
<style type="text/css">
	.st0{fill:#FFFFFF;}
</style>
<g>
	<path class="st0" d="M116.58,218.86c-26.6,0-52.68,0.69-78.7-0.22C16.72,217.9,0.33,199.87,0.2,178.37
		C-0.07,132.55-0.06,86.74,0.2,40.92C0.33,18.15,17.93,0.38,40.7,0.23c45.81-0.31,91.63-0.29,137.44-0.01
		c23.23,0.14,40.73,18.19,40.78,41.44c0.09,45.32,0.11,90.63-0.01,135.95c-0.06,23.4-17.98,41.15-41.42,41.35
		c-8.59,0.07-17.17,0.01-26.03,0.01c0-28.32,0-56.14,0-84.45c9.05,0,18.09,0,27.89,0c1.45-11.1,2.85-21.82,4.32-33.14
		c-10.94,0-21.33,0-31.72,0c0-9.7-0.47-18.92,0.17-28.05c0.4-5.68,4.95-8.53,10.49-8.74c7.24-0.27,14.5-0.07,22.04-0.07
		c0-10.57,0-19.96,0-30.49c-9.4-0.23-18.81-1.07-28.15-0.56c-24.17,1.32-37.98,15.37-39.33,39.52c-0.42,7.45-0.18,14.93-0.23,22.4
		c-0.01,1.78,0,3.55,0,5.79c-9.73,0-18.79,0-28.15,0c0,11.16,0,21.84,0,32.97c9.27,0,18.33,0,27.77,0
		C116.58,162.55,116.58,190.49,116.58,218.86z"/>
</g>
</svg>
