<?xml version="1.0" encoding="utf-8"?>
<!-- Generator: Adobe Illustrator 25.0.0, SVG Export Plug-In . SVG Version: 6.00 Build 0)  -->
<svg version="1.1" id="Calque_1" xmlns="http://www.w3.org/2000/svg" xmlns:xlink="http://www.w3.org/1999/xlink" x="0px" y="0px"
	 viewBox="0 0 278.1 182.94" style="enable-background:new 0 0 278.1 182.94;" xml:space="preserve">
<style type="text/css">
	.st0{fill:#FFFFFF;}
</style>
<path class="st0" d="M42.6,91.22l-2.17-21.66l1.22-0.12l2.05,20.43l8.39-0.84l0.13,1.22L42.6,91.22z"/>
<path class="st0" d="M68.95,88.59l-1.22,0.12L67.47,86c-0.21,0.34-0.43,0.67-0.68,0.98c-1.23,1.56-3.06,2.54-5.05,2.7
	c-1.97,0.23-3.95-0.37-5.47-1.65c-3.18-2.63-3.62-7.34-0.99-10.52c1.24-1.5,3.03-2.46,4.96-2.66c1.98-0.23,3.96,0.36,5.48,1.65
	c0.31,0.26,0.59,0.53,0.86,0.83l-0.19-1.88l1.22-0.13L68.95,88.59z M67.15,82.86l-0.24-2.41c-0.87-2.81-3.6-4.62-6.52-4.34
	c-3.39,0.34-5.87,3.36-5.53,6.75c0.34,3.39,3.36,5.87,6.75,5.53l0,0C64.54,88.09,66.85,85.78,67.15,82.86L67.15,82.86z"/>
<path class="st0" d="M84.27,65.18c2.22-0.23,4.21,1.39,4.43,3.61c0,0,0,0,0,0c0.05,1.26-0.46,2.47-1.41,3.3
	c1.14,0.16,2.21,0.67,3.04,1.48c1.55,1.24,2.53,3.07,2.69,5.05c0.22,1.99-0.37,3.99-1.63,5.54c-1.11,1.47-2.78,2.41-4.6,2.6l0,0
	l-4.2,0.42l-2.17-21.65L84.27,65.18z M81.77,66.66l0.55,5.53l2.96-0.3c0.64-0.11,1.23-0.44,1.66-0.93c0.49-0.55,0.71-1.29,0.61-2.02
	c-0.05-0.76-0.43-1.46-1.03-1.93c-0.6-0.47-1.36-0.69-2.12-0.59L81.77,66.66z M82.45,73.5l1.24,12.38l2.96-0.3l0,0
	c1.47-0.24,2.79-1.03,3.69-2.22c1.05-1.28,1.54-2.93,1.36-4.58c-0.33-3.39-3.35-5.86-6.74-5.53c-0.01,0-0.01,0-0.02,0L82.45,73.5z"
	/>
<path class="st0" d="M102.19,70.61c4.11-0.42,7.77,2.58,8.18,6.68c0.42,4.11-2.58,7.77-6.68,8.18s-7.77-2.58-8.18-6.68
	c-0.2-1.97,0.39-3.94,1.65-5.48C98.39,71.76,100.21,70.78,102.19,70.61z M98.15,74.15c-2.17,2.63-1.79,6.52,0.84,8.69
	c2.63,2.17,6.52,1.79,8.69-0.84s1.79-6.52-0.84-8.69c-1.26-1.04-2.89-1.54-4.52-1.38C100.69,72.07,99.18,72.87,98.15,74.15z"/>
<path class="st0" d="M114.06,65.99l3.54,2.84l-1.41,0.14l-2.71-1.68l-2.22,2.17l-1.36,0.13l2.78-3.47L114.06,65.99z M114.49,70.61
	l1.33,13.3l-1.22,0.13l-1.33-13.3L114.49,70.61z"/>
<path class="st0" d="M120.71,69.98l-0.57-5.65l1.22-0.13l0.56,5.66l2.71-0.27l0.12,1.22l-2.7,0.27l1.2,12.07l-1.21,0.13l-1.21-12.07
	l-2.7,0.27l-0.1-1.22L120.71,69.98z"/>
<path class="st0" d="M131.49,79.81c1.21,0.93,2.73,1.34,4.24,1.16c1.64-0.13,3.15-0.93,4.17-2.22c0.14-0.17,0.27-0.34,0.38-0.52
	l1.33,0.33c-0.21,0.36-0.44,0.69-0.7,1.01c-2.63,3.17-7.34,3.6-10.51,0.97c-3.17-2.63-3.6-7.34-0.97-10.51
	c2.39-2.88,6.55-3.54,9.72-1.54c0.23,0.16,0.47,0.34,0.7,0.53c0.1,0.07,0.18,0.15,0.26,0.22l-0.83,1.01L131.49,79.81z M138.31,69.54
	c-2.94-1.73-6.73-0.75-8.46,2.2c-1.36,2.32-1.07,5.26,0.73,7.26L138.31,69.54z"/>
<path class="st0" d="M105.72,110.41l-1.22,0.12l-0.27-2.7c-0.21,0.34-0.43,0.67-0.68,0.98c-2.61,3.2-7.32,3.68-10.52,1.06
	c-3.2-2.61-3.68-7.32-1.06-10.52c2.61-3.2,7.32-3.68,10.52-1.06c0,0,0.01,0,0.01,0.01c0.31,0.26,0.59,0.53,0.86,0.83l-0.19-1.88
	l1.22-0.13L105.72,110.41z M103.92,104.68l-0.24-2.4c-1-3.27-4.46-5.1-7.73-4.1c-1.17,0.36-2.2,1.05-2.97,2
	c-2.14,2.65-1.73,6.54,0.92,8.68c2.65,2.14,6.54,1.73,8.68-0.92C103.33,107.01,103.8,105.88,103.92,104.68L103.92,104.68z
	 M95.79,92.45l2.46,2.31l-1.15,0.14l-3.57-2.22L95.79,92.45z"/>
<path class="st0" d="M123.55,96.53c-1.4-0.27-2.72-0.87-3.84-1.74c-1.97-1.61-2.25-4.52-0.64-6.48c1.61-1.97,4.52-2.25,6.48-0.64
	c0.52,0.38,0.93,0.89,1.19,1.48l-1.05,0.54c-0.22-0.44-0.54-0.83-0.92-1.14c-1.49-1.14-3.62-0.86-4.76,0.63
	c-1.09,1.42-0.88,3.45,0.47,4.62c0.82,0.62,1.74,1.1,2.71,1.41c1.7,0.35,3.29,1.1,4.64,2.2c2.72,2.29,3.07,6.35,0.78,9.07
	c-2.29,2.72-6.35,3.07-9.07,0.78c-0.99-0.83-1.71-1.95-2.06-3.2l1.11-0.53c0.59,2.59,3.01,4.33,5.65,4.08
	c2.88-0.28,4.99-2.85,4.7-5.73c-0.14-1.39-0.82-2.67-1.9-3.55C126.01,97.51,124.83,96.89,123.55,96.53z"/>
<path class="st0" d="M147.79,106.21l-1.22,0.12l-0.26-2.7c-0.21,0.34-0.43,0.67-0.68,0.98c-2.61,3.2-7.32,3.68-10.52,1.06
	c-3.2-2.61-3.68-7.32-1.06-10.52c2.61-3.2,7.32-3.68,10.52-1.06c0,0,0.01,0,0.01,0.01c0.31,0.25,0.6,0.51,0.88,0.8l-0.19-1.88
	l1.22-0.12L147.79,106.21z M145.99,100.49l-0.24-2.41c-1.12-3.22-4.64-4.93-7.86-3.81c-2.62,0.91-4.32,3.46-4.14,6.23
	c0.33,3.4,3.36,5.88,6.75,5.54c2.93-0.29,5.26-2.61,5.54-5.54L145.99,100.49z"/>
<path class="st0" d="M156.82,103.07l4.01-11.58l1.4-0.14l-5.17,14.31l-7.88-12.98l1.41-0.14L156.82,103.07z"/>
<path class="st0" d="M171.17,89.23c4.11-0.41,7.77,2.59,8.18,6.7c0.4,4.1-2.6,7.75-6.71,8.15c-4.1,0.4-7.75-2.6-8.15-6.71
	C164.1,93.29,167.08,89.65,171.17,89.23z M167.14,92.77c-2.18,2.63-1.8,6.53,0.83,8.71c2.63,2.18,6.53,1.8,8.71-0.83
	c2.18-2.63,1.8-6.53-0.83-8.71c-1.27-1.05-2.9-1.55-4.54-1.39C169.67,90.68,168.16,91.48,167.14,92.77L167.14,92.77z"/>
<path class="st0" d="M183.49,92.21l1.03,10.35l-1.22,0.13l-1.34-13.3l1.22-0.12l0.09,0.85c0.9-1.16,2.24-1.89,3.69-2.04
	c2.83-0.41,5.45,1.55,5.86,4.37c0.01,0.09,0.02,0.18,0.03,0.28l0.89,8.87l-1.22,0.13l-0.88-8.79c-0.09-1.09-0.62-2.09-1.48-2.76
	c-1.76-1.43-4.35-1.18-5.8,0.56C183.99,91.16,183.69,91.66,183.49,92.21z"/>
<path class="st0" d="M200.77,94.01c-0.81-0.31-1.59-0.72-2.3-1.22c-0.67-0.52-1.09-1.3-1.17-2.15c-0.09-0.86,0.18-1.71,0.74-2.36
	c0.53-0.67,1.31-1.09,2.16-1.16c0.82-0.11,1.64,0.12,2.28,0.64c0.58,0.45,0.96,1.12,1.03,1.85v0.07l-1.02,0.52
	c-0.09-0.57-0.37-1.08-0.79-1.48c-0.39-0.31-0.89-0.45-1.39-0.38c-0.53,0.06-1.01,0.32-1.34,0.74c-0.69,0.85-0.57,2.1,0.28,2.79
	c0.48,0.34,1,0.64,1.54,0.89c0.93,0.35,1.81,0.82,2.62,1.4c0.82,0.65,1.34,1.61,1.43,2.65c0.13,1.06-0.18,2.13-0.87,2.96
	c-0.64,0.84-1.61,1.38-2.67,1.48c-1.05,0.12-2.1-0.2-2.91-0.88c-0.78-0.58-1.28-1.46-1.4-2.42l1.17-0.44c0.06,0.75,0.42,1.44,1,1.91
	c1.19,0.95,2.92,0.77,3.88-0.42c0.45-0.56,0.67-1.28,0.6-2c-0.06-0.72-0.42-1.39-0.99-1.84C202.06,94.72,201.43,94.33,200.77,94.01z
	"/>
<g>
	<path class="st0" d="M0,86.13c0.97-2.49,1.62-5.18,3.02-7.41c1.24-1.98,3.76-3.18,4.89-5.19c1.13-2,0.87-4.74,1.85-6.86
		c3.8-8.3,14.51-10.16,21.39-3.93c0.57,0.51,1.76,0.95,2.38,0.71C48.38,57.6,63.6,52.93,79.17,49.6
		c12.81-2.74,25.75-4.96,38.72-6.83c10.67-1.54,21.46-2.26,32.2-3.29c1.36-0.13,2.05-0.45,2.46-1.95c1.21-4.38,5.07-7.4,9.15-7.54
		c5.3-0.18,9.08,2.13,10.81,6.84c0.51,1.39,1.19,1.95,2.62,1.77c0.67-0.08,1.37-0.09,2.04,0.01c2.08,0.32,2.88-0.34,2.91-2.61
		c0.08-5.64,4.6-11.19,10.43-13.29c5.93-2.13,12.91-0.51,17,4.22c1.44,1.67,2.5,3.74,3.43,5.77c0.51,1.11,0.82,1.72,2.2,2.02
		c6.41,1.36,10.43,5.24,11.37,11.84c0.26,1.82,1.46,2.27,2.71,3.13c2.28,1.58,4.1,1.74,6.84,0.57c6.33-2.72,13.73,0.43,16.98,6.58
		c3.17,6.01,1.36,13.46-4.25,17.53c-0.67,0.48-1.36,0.94-2.21,1.52c0.83,0.97,1.56,1.9,2.36,2.76c4.42,4.74,5.73,10.29,5.17,16.69
		c-0.77,8.63-1.28,17.31-1.35,25.98c-0.05,6.76-3.19,11.04-8.91,13.98c-5.82,2.99-12.11,4.05-18.53,4.69
		c-8.64,0.87-17.28,1.76-25.91,2.65c-7.36,0.76-14.75,1.3-22.06,2.36c-9.31,1.36-18.57,3.14-27.84,4.75
		c-0.74,0.13-1.47,0.34-2.22,0.43c-2.13,0.26-3.41,1.09-4.35,3.36c-2.13,5.15-8.92,6.11-13.17,2.21c-0.47-0.43-0.92-0.88-1.98-1.89
		c0.43,6.11-0.89,10.9-5.82,13.85c-4.87,2.92-9.66,2.29-14.32-0.92c-2.15,2.18-4.65,3.69-7.83,2.67c-1.3-0.42-2.42-1.4-3.65-2.07
		c-0.73-0.4-1.54-0.99-2.28-0.95c-0.44,0.03-1.01,1.07-1.19,1.74c-1.84,6.7-6.55,11.02-13.47,11.62
		c-5.92,0.51-12.18-2.89-14.86-9.72c-0.29-0.73-0.88-1.63-1.55-1.88c-2.18-0.81-2.6-0.43-2.69,1.88
		c-0.27,7.05-6.27,12.83-13.79,12.89c-7.52,0.07-12.97-5.49-13.81-11.63c-0.98-7.12,1.95-12.02,9.78-15.96
		c-1.45-1.34-2.61-2.86-4.14-3.76c-4.64-2.73-7.54-6.61-8.8-11.8c-0.22-0.91-0.65-1.84-1.2-2.6c-2.58-3.54-5.22-7.04-7.89-10.52
		c-3.34-4.36-5.07-9.21-4.64-14.75c0.04-0.53-0.02-1.06,0.06-1.58c0.59-4.06,0.1-6.89-4.77-8.54c-4.93-1.67-7.64-6.16-8.41-11.48
		c-0.07-0.5-0.33-0.98-0.5-1.47C0,87.94,0,87.03,0,86.13z M186.17,51.2c-1.82-2.66-4.04-4.86-4.94-7.51
		c-0.95-2.8-2.49-3.35-4.92-3.25c-10.74,0.43-21.52,0.37-32.2,1.41c-14.95,1.45-29.87,3.43-44.72,5.71
		c-21.21,3.25-41.78,9.08-61.9,16.47c-6.11,2.24-12.08,4.92-16.81,9.61c-5.21,5.17-5.71,11.39-1.57,17.43
		c1.96,2.87,3.76,5.85,5.81,8.65c4.54,6.21,9.2,12.35,13.81,18.51c0.78,1.04,1.66,1.36,3.1,1.18c7.7-0.99,14.39,2.61,17.91,9.59
		c0.67,1.33,1.52,1.87,2.9,2.07c6.45,0.9,12.86,0.54,19.19-0.75c21.69-4.45,43.35-9.08,65.05-13.49
		c12.37-2.51,24.75-4.99,37.21-7.01c13.95-2.26,27.99-3.89,41.97-5.96c6.67-0.99,13.27-2.44,19.12-6.07
		c6.78-4.21,6.7-13.32-0.25-17.8c0.08,0.39,0.13,0.67,0.2,0.94c1.46,5.84-1.29,11.49-6.6,13.54c-5.49,2.13-11.46-0.12-14.24-5.52
		c-0.69-1.33-1.33-1.57-2.79-1.35c-7.12,1.09-13.35-0.79-18.34-6.09c-0.89-0.95-1.65-1.16-2.93-0.99
		c-8.82,1.2-16.16-3.03-18.84-11.03C178.98,62.31,180.88,56.12,186.17,51.2z M112.33,144.68c0-0.61,0.02-1.13,0-1.64
		c-0.25-6.06,4.16-11.33,10.06-12.02c5.94-0.69,10.84,2.65,12.94,8.72c0.26,0.75,0.84,1.68,1.51,1.95c2.35,0.95,3.94,2.59,4.75,4.88
		c0.53,1.49,1.24,1.74,2.7,1.43c5.11-1.07,10.22-2.19,15.37-2.94c9.8-1.43,19.61-2.76,29.45-3.89c9.99-1.15,20.01-2.01,30.02-2.99
		c6.78-0.67,13.59-1.26,19.93-4.01c5.97-2.59,9.84-6.45,9.65-13.75c-0.17-6.61,0.75-13.24,1.16-19.86c0.07-1.14,0.01-2.29,0.01-3.89
		c-3.78,3.67-7.98,5.58-12.46,6.73c-4.82,1.24-9.71,2.28-14.63,3.04c-16.66,2.56-33.44,4.43-49.99,7.54
		c-27.04,5.07-53.95,10.86-80.9,16.43c-9.79,2.03-19.55,4.16-29.65,2.72c-0.27-0.04-0.56,0.09-0.28,0.04
		c-0.49,3.73-0.94,7.19-1.43,10.93c3.87,0.98,7.07,3.43,8.75,7.76c3.94-1.8,7.75-2.2,11.71-1.05c0.62,0.18,1.51-0.4,2.21-0.75
		c1.4-0.71,2.68-1.82,4.15-2.22c4.9-1.33,8.7,0.5,11.41,5.12c0.37,0.62,1.09,1.04,1.64,1.55c0.51-0.6,1.09-1.15,1.5-1.8
		c0.47-0.76,0.72-1.65,1.2-2.41C105.22,146.91,108.59,145.49,112.33,144.68z M44.44,121.19c-1.2,0.14-2.43,0.16-3.59,0.44
		c-7.52,1.78-12.69,8.92-11.84,16.27c0.94,8.13,7.55,13.82,15.91,13.56c0.83-0.03,1.93-0.68,2.4-1.39c2.12-3.21,4.94-5.18,8.75-5.88
		c0.78-0.14,1.73-0.89,2.06-1.61C62.7,132.65,55.4,121.35,44.44,121.19z M204.31,79.69c4.16,5.45,11.36,6.96,17.38,5.85
		c0.58-0.11,1.38-0.94,1.45-1.51c0.88-7.04,4-10.18,11.06-11.14c0.64-0.09,1.62-0.96,1.66-1.53c0.18-2.52,0.35-5.1,0.01-7.59
		c-0.8-5.8-6.22-11.85-11.28-12.93c-1.3,5.17-4.35,8.79-9.42,10.72c-0.55,0.21-1.08,1.32-1.07,2c0.09,4.35-1.18,8.24-4.13,11.4
		C208.3,76.73,206.21,78.12,204.31,79.69z M182.37,64.49c0.15,1.04,0.22,2.1,0.47,3.11c1.88,7.41,8.7,11.77,15.31,11.23
		c7.95-0.65,13.58-6.54,14.15-14.26c0.13-1.73-0.26-2.55-2.3-2.59c-6.26-0.11-11.71-4.98-12.68-11.17c-0.21-1.33-0.58-1.75-2.01-1.6
		C187.9,50.02,181.91,57.06,182.37,64.49z M16.3,90.63c-0.16,0.88-0.25,1.16-0.26,1.45c-0.2,6.94-0.57,13.89-0.51,20.83
		c0.02,2.64,0.42,5.62,1.71,7.82c2.76,4.72,6.21,9.03,9.39,13.5c0.04,0.05,0.27-0.03,0.47-0.05c0.96-6.46,4.72-10.88,10.32-13.73
		c-3.62-4.91-7.21-9.65-10.65-14.5C23.3,101.05,19.98,96.03,16.3,90.63z M76.19,177.79c5.16,0.01,9.89-3.09,11.79-7.74
		c2.01-4.93,0.85-10.48-2.97-14.14c-3.62-3.48-9.28-4.49-13.87-2.32c-0.69,0.33-1.47,1.37-1.47,2.08c0,4.27-1.79,7.52-5.09,10.12
		c-0.47,0.37-0.81,1.38-0.68,1.98C65.13,173.7,70.18,177.78,76.19,177.79z M44.26,180.95c6.76-0.03,12.25-5.49,12.12-12.06
		c-0.13-6.54-5.71-12.02-12.12-11.89c-6.82,0.13-12.05,5.39-12.06,12.13C32.19,175.6,37.68,180.98,44.26,180.95z M210.88,36.47
		c-6.57-0.03-11.94,5.33-11.93,11.91c0.01,6.38,5.47,11.88,11.81,11.89c6.44,0.01,11.96-5.35,12.01-11.66
		C222.82,41.8,217.62,36.49,210.88,36.47z M209.5,34.42c-0.14-0.49-0.22-0.78-0.32-1.06c-1.93-5.75-7.09-9.52-13.18-9.61
		c-5.81-0.09-11.14,3.52-13.23,8.94c-2.12,5.5-0.5,11.82,3.96,15.61c1.04,0.89,1.85,1.28,3.34,0.5c1.69-0.88,3.75-1,5.6-1.61
		c0.62-0.21,1.25-0.83,1.56-1.42c1.16-2.16,1.92-4.57,3.32-6.55C202.61,36.31,205.91,35.19,209.5,34.42z M106.77,163
		c-0.6,1.84,0.65,2.8,2.3,3.52c3.84,1.67,7.54,1.4,10.87-1.14c3.36-2.58,4.47-6.15,3.66-10.23c-0.12-0.63-1.02-1.39-1.7-1.58
		c-2.76-0.78-5.17-1.99-6.94-4.33c-1.83-2.42-2.93-2.67-5.72-1.34c-2.8,1.34-4.72,3.52-5.52,6.5c-0.19,0.72,0.2,1.9,0.74,2.47
		C106.06,158.55,106.95,160.42,106.77,163z M225.17,83.98c-0.03,5.18,4.16,9.42,9.29,9.39c4.92-0.02,9.15-4.34,9.18-9.36
		c0.03-4.86-4.38-9.29-9.25-9.29C229.34,74.73,225.2,78.89,225.17,83.98z M47.89,155.39c4.88,1.7,8.21,4.78,9.86,9.64
		c0.14,0.42,1.47,0.78,2.13,0.63c5.03-1.11,8.43-5.77,7.87-10.6c-0.58-5.04-5.13-9.2-9.94-9.1
		C52.46,146.08,48.54,149.73,47.89,155.39z M13.78,101.63c0.1-1.22,0.23-2.24,0.27-3.28c0.19-5.58,0.23-11.17,0.61-16.74
		c0.13-1.95,1.05-3.85,1.72-5.74c0.29-0.8,0.88-1.5,1.39-2.34c-7.48-0.82-14.3,4.49-15.51,11.82C1.03,92.85,5.78,99.74,13.78,101.63
		z M237.54,73.48c1.49,0.4,2.99,1.31,4.24,1.05c5.07-1.05,8.57-5.68,8.73-10.99c0.16-5.47-3.09-10.16-8.17-11.72
		c-3.47-1.07-6.73-0.73-9.96,1.43C237.89,59.1,239.11,65.82,237.54,73.48z M132.89,141.32c-0.49-5.25-5.13-8.82-10.4-8.12
		c-4.73,0.63-8.66,5.73-7.91,10.25c0.94,5.6,5.46,8.94,10.63,7.86C125.9,144.73,127.32,142.85,132.89,141.32z M133.41,156.07
		c3.78,0.04,6.56-2.56,6.63-6.19c0.06-3.51-2.87-6.5-6.41-6.52c-3.37-0.02-6.37,2.9-6.46,6.29
		C127.07,153.01,130.02,156.04,133.41,156.07z M30.15,64.82c-3.43-3.87-8.75-4.91-13.27-2.71c-4.22,2.04-6.93,6.5-6.25,10.04
		c2.17-0.27,4.36-0.9,6.48-0.7c1.9,0.17,3.29-0.06,4.66-1.39c0.96-0.93,2.22-1.56,3.38-2.27C26.79,66.78,28.46,65.82,30.15,64.82z
		 M99.36,157c-2.87,0.06-5.25,2.49-5.27,5.4c-0.02,2.9,2.61,5.48,5.51,5.41c2.97-0.07,5.53-2.69,5.43-5.54
		C104.92,159.33,102.35,156.94,99.36,157z M84.12,152.43c4.72,4.96,4.71,4.96,6.72,11.16c0.1,0.31,0.57,0.49,0.86,0.73
		c0.2-0.35,0.6-0.73,0.57-1.06c-0.4-3.83,1.6-6.24,4.85-8.02c-0.88-3-2.81-4.73-5.77-5.39C88.39,149.2,86.12,150.38,84.12,152.43z
		 M170.95,38.74c-1.14-4.48-5.04-7.37-8.79-6.94c-4.39,0.5-7.63,3.51-7.63,6.94C159.93,38.74,165.33,38.74,170.95,38.74z
		 M45.59,154.58c0.01-0.26,0.03-0.51,0.04-0.77c-1.24-0.07-2.47-0.15-4.14-0.25C42.92,155.53,44.25,155.09,45.59,154.58z"/>
	<path class="st0" d="M176.77,0c0.32,0.17,0.61,0.43,0.95,0.51c4.8,1.2,7.92,5.53,7.31,10.17c-0.67,5.12-4.68,8.75-9.61,8.71
		c-4.75-0.04-9.03-3.96-9.47-8.65c-0.46-4.93,2.68-9.17,7.55-10.24c0.35-0.08,0.66-0.32,0.98-0.49C175.25,0,176.01,0,176.77,0z
		 M175.52,17.31c4.25-0.01,7.64-3.34,7.7-7.55c0.06-4.19-3.5-7.61-7.89-7.59c-4.11,0.02-7.38,3.39-7.35,7.55
		C168.01,14.15,171.17,17.32,175.52,17.31z"/>
	<path class="st0" d="M0,150.04c0.17-0.33,0.39-0.64,0.5-0.99c1.13-3.56,4.13-5.4,7.85-4.79c2.87,0.47,5.23,3.36,5.26,6.44
		c0.04,3.59-2.26,6.32-5.83,6.93c-3.03,0.51-6.15-1.56-7.26-4.8c-0.12-0.34-0.34-0.65-0.51-0.97C0,151.25,0,150.64,0,150.04z
		 M6.96,155.57c2.74-0.02,4.96-2.24,4.87-4.84c-0.09-2.48-2.4-4.69-4.9-4.69c-2.68,0-4.78,2.21-4.73,4.96
		C2.25,153.72,4.2,155.6,6.96,155.57z"/>
	<path class="st0" d="M278.1,106.52c-0.37,0.71-0.7,1.44-1.1,2.13c-1.63,2.81-4.96,4.09-7.99,3.09c-3.04-1.01-4.84-4.02-4.47-7.52
		c0.3-2.88,2.93-5.31,6.15-5.7c2.75-0.33,5.84,1.73,6.85,4.55c0.15,0.41,0.37,0.78,0.56,1.18
		C278.1,105.01,278.1,105.77,278.1,106.52z M275.93,105.17c-0.03-2.61-2.14-4.66-4.78-4.65c-2.67,0.02-4.97,2.36-4.85,4.93
		c0.11,2.54,2.4,4.75,4.89,4.72C273.79,110.16,275.95,107.87,275.93,105.17z"/>
	<path class="st0" d="M39,124.2c4.81-2.21,10.19-1.24,14.03,2.24c3.89,3.53,5.33,9.11,3.48,14.04c0.28-4.78-1.08-8.93-4.48-12.34
		C48.54,124.65,44.24,123.6,39,124.2z"/>
	<path class="st0" d="M204.01,74.58c-4.49,2.65-9.01,2.7-13.42-0.05c-4.2-2.62-5.85-6.64-5.77-11.51c1.15,4.2,3.12,7.83,7,10.12
		C195.67,75.4,199.73,75.87,204.01,74.58z"/>
	<path class="st0" d="M86.1,168.15c-2.69,8.3-11.94,10.19-17.77,3.63c2.88,2.27,6.17,2.97,9.66,2.34
		C81.62,173.46,84.24,171.29,86.1,168.15z"/>
	<path class="st0" d="M53.82,172.08c-0.86-8.03-3.7-10.97-12.24-12.68C49.81,157.16,56.32,165.9,53.82,172.08z"/>
	<path class="st0" d="M208.04,38.81c6.95-2.39,14.79,4.48,12.55,12.24C219.63,41.88,214.32,39.21,208.04,38.81z"/>
	<path class="st0" d="M200.22,26.83c-10.23-0.72-14.87,5.97-15.43,12.76c-0.91-4.18,0.44-8.18,3.68-10.9
		C192.01,25.72,195.94,25.26,200.22,26.83z"/>
	<path class="st0" d="M110.7,165.16c7.24,0.2,10.23-1.9,11.71-7.98C123.4,162.01,117.69,168.14,110.7,165.16z"/>
	<path class="st0" d="M241.42,85.67c-0.09-5.4-1.82-7.34-7.93-9.2C238.21,75.01,243.5,81.04,241.42,85.67z"/>
	<path class="st0" d="M55.32,148.49c2.9-1.15,5.44-0.33,7.64,1.62c2.47,2.18,3.29,4.93,2.26,8.17c0.05-2.76-0.71-5.2-2.69-7.18
		C60.54,149.09,58.11,148.32,55.32,148.49z"/>
	<path class="st0" d="M8.84,96.12c-3.72-2.86-5.07-6.68-4.18-11.29c0.68-3.56,3.66-6.81,6.86-7.58C4.84,83.88,4.06,89.56,8.84,96.12
		z"/>
	<path class="st0" d="M247.8,67.78c1-8.07-2.3-12.23-11.21-14.5C245.31,51.53,251.35,60.79,247.8,67.78z"/>
	<path class="st0" d="M116.48,141.95c-0.01-4.84,4.86-8.21,9.6-6.53C121.26,135.43,118.09,137.45,116.48,141.95z"/>
	<path class="st0" d="M27.18,64.89c-4.52-2.14-10.05-1.82-13.79,4.42C15.1,62.82,22.2,60.51,27.18,64.89z"/>
	<path class="st0" d="M167.76,36.15c-2.95-2.24-6.01-2.52-9.47-0.77C160.95,32.5,165.04,32.89,167.76,36.15z"/>
	<path class="st0" d="M181.07,11.63c-0.41-4.64-2.67-7.03-7.04-7.68C178.54,3.34,181.48,6.46,181.07,11.63z"/>
</g>
</svg>
