<svg id="Calque_1" data-name="Calque 1" xmlns="http://www.w3.org/2000/svg" viewBox="0 0 576 576"><defs><style>.cls-1{fill:#acacac;}</style></defs><title>2Plan de travail 1 copie</title><path class="cls-1" d="M576,86.49v403c-.4,1.44-.87,2.88-1.2,4.34q-13.47,61.1-73.34,79.18c-3.93,1.18-8,2-11.95,3H378.17c-.14-1.51-.39-3-.39-4.54q0-103.73,0-207.47v-5.51h5.91c28.21,0,56.43-.07,84.64.08,4.07,0,5.5-.88,5.47-5.28-.21-28.52-.1-57-.12-85.56,0-1.64-.13-3.27-.23-5.49H378.16c0-14.85-.68-29.13.21-43.32.84-13.57,9.41-20.5,22.82-20.5q33.12,0,66.24,0c1.95,0,3.89-.21,5.89-.32V102.52c-1.69-.07-3-.19-4.4-.19q-35.66,0-71.31,0a95.53,95.53,0,0,0-56.39,17.94c-29.09,20.62-45.94,49.13-51.17,83.86-2.6,17.3-1.49,35.15-2,52.75-.06,1.76,0,3.52,0,5.75H217.86c-.15,1.51-.33,2.55-.33,3.6,0,29.29.05,58.58-.1,87.86,0,4,1.64,4.47,4.93,4.45,19.93-.1,39.87-.06,59.8-.06H288V576H86.49c-1.3-.38-2.57-.83-3.89-1.11Q21.16,561.62,3,501.45c-1.18-3.93-2-8-3-11.94v-403c.54-2,1.14-4.08,1.62-6.14C10.77,41,34.75,15.42,73.21,3.34,77.56,2,82.06,1.1,86.49,0h403c1.15.35,2.28.79,3.45,1Q555,14.18,573.12,75C574.25,78.76,575.05,82.66,576,86.49Z"/></svg>