<?xml version="1.0" encoding="utf-8"?>
<!-- Generator: Adobe Illustrator 19.2.0, SVG Export Plug-In . SVG Version: 6.00 Build 0)  -->
<svg version="1.1" id="Layer_1" xmlns="http://www.w3.org/2000/svg" xmlns:xlink="http://www.w3.org/1999/xlink" x="0px" y="0px"
	 viewBox="0 0 48 48" style="enable-background:new 0 0 48 48;" xml:space="preserve">
<style type="text/css">
	.st0{fill:#CDCCCC;}
</style>
<path class="st0" d="M24,0C10.7,0,0,10.7,0,24c0,13.3,10.7,24,24,24s24-10.7,24-24C48,10.7,37.3,0,24,0z M30.5,38
	c-1,0-6.5-0.1-7.9-0.1c-1.4,0-8.7-2.3-8.7-10.3c0-1.4,0-2.9,0-4.3c0-1.3,0-2.7,0-4c0-0.4,0-0.8,0-1.2c0-2-0.2-4.3,0.5-6.2
	c0.5-1.5,1.7-2.1,3.1-2.1c3.5,0,3.7,3.6,3.7,7.2h10.1c1.6,0,2.8,1.6,2.8,4.1c0,2.5-2.6,3-4,3h-9.1c0,1.5-0.1,2.8-0.1,3.5
	c0,1.6,0.6,3.3,4.5,3.3h5.4c1.4,0,3.4,1,3.4,3.9C34.3,37.7,31.4,38,30.5,38z"/>
</svg>
