<?xml version="1.0" encoding="utf-8"?>
<!-- Generator: Adobe Illustrator 24.1.2, SVG Export Plug-In . SVG Version: 6.00 Build 0)  -->
<svg version="1.1" id="Calque_1" xmlns="http://www.w3.org/2000/svg" xmlns:xlink="http://www.w3.org/1999/xlink" x="0px" y="0px"
	 viewBox="0 0 612 236.28" style="enable-background:new 0 0 612 236.28;" xml:space="preserve">
<style type="text/css">
	.st0{fill:#FFFFFF;}
</style>
<path class="st0" d="M92.33,114.91c13.67,7.82,17.96,20.1,17.82,34.92c-0.16,17.17,0.08,34.33,0,51.5
	c-0.08,18.63-15.09,34.58-33.13,34.75c-24.63,0.25-49.26,0.06-73.89,0.03c-0.6,0-1.23-0.14-1.83-0.2
	c-1.31-4.49-1.89-222.5-0.57-235.88c1.48-0.14,3.03-0.45,4.59-0.45c23.18-0.03,46.39-0.08,69.57,0
	c20.26,0.06,31.93,14.34,31.74,32.58c-0.19,17.59-0.33,35.15,0.05,52.74c0.27,11.74-3.53,21.06-12.57,28.12
	C93.65,113.38,93.26,113.89,92.33,114.91z M40.04,200.34c9.27,0,17.88,0.11,26.46-0.06c4.43-0.08,6.23-2.06,6.26-6.83
	c0.11-15.89,0.16-31.79-0.03-47.68c-0.08-6.3-3.74-11.55-8.86-12.28c-7.85-1.13-15.8-0.4-23.84-0.42
	C40.04,155.76,40.04,177.52,40.04,200.34z M40.04,35.26c0,21.09,0,41.47,0,62.22c7.76,0,15.12,0.06,22.47-0.03
	c5.11-0.06,6.4-1.38,6.42-6.92c0.08-15.87,0.08-31.7,0-47.57c-0.03-5.31-1.78-7.4-6.97-7.62C54.86,35.01,47.69,35.26,40.04,35.26z"
	/>
<path class="st0" d="M603.84,71.77c-12.74,0-24.77,0-37.45,0c-0.16-2.43-0.41-4.69-0.44-6.92c-0.05-7.2,0.05-14.4-0.08-21.63
	c-0.08-5.53-1.26-6.72-6.53-6.83c-5.14-0.08-10.28-0.11-15.39,0.03c-4.84,0.11-6.51,1.55-6.56,6.3
	c-0.14,11.21-0.22,22.44,0.16,33.65c0.08,2.46,1.61,5.25,3.25,7.14c2.16,2.46,5,4.35,7.74,6.21c10.14,6.83,20.53,13.24,30.42,20.41
	c5.82,4.21,11.34,9.12,16.21,14.48c6.1,6.72,8.72,15.22,8.72,24.48c0.03,18.44,0.11,36.87,0,55.31
	c-0.11,18.04-13.45,31.65-30.89,31.73c-15.39,0.06-30.81-0.34-46.17,0.14c-11.15,0.34-27.31-12.59-27.8-26
	c-0.6-16.29-0.41-32.61-0.49-48.93c0-0.79,0.46-1.58,0.79-2.65c12.3,0,24.52,0,37.37,0c0.22,2.63,0.57,5.08,0.6,7.57
	c0.08,9.54-0.03,19.09,0.05,28.6c0.05,5.45,0.71,6.18,6.1,6.27c5.14,0.08,10.28,0.08,15.39-0.11c5.14-0.2,6.21-1.04,6.26-6.47
	c0.11-13.55-0.11-27.1-0.3-40.65c-0.05-4.23-2.65-7.09-5.77-9.26c-7.27-5.11-14.6-10.22-22.11-14.96
	c-9.65-6.13-18.92-12.73-26.57-21.46c-5.71-6.52-10.52-13.58-11.62-22.64c-0.22-1.67-0.46-3.36-0.46-5.05
	c0-16.32,0-32.64,0.14-48.95c0.05-6.69,1.59-12.99,5.39-18.58c5.69-8.36,13.59-13.07,23.34-13.3c15.99-0.4,32.04-0.42,48.03,0
	c16.73,0.42,27.61,11.41,28.59,29.5C604.44,43.08,603.84,57.09,603.84,71.77z"/>
<path class="st0" d="M282.65,36.5c-10.2,0-19.41-0.03-28.62,0c-6.56,0.03-7.22-0.4-9.57-6.52c-3.25-8.44-6.48-16.91-9.68-25.38
	c-0.52-1.33-0.93-2.71-1.56-4.6c45.4,0,90.18,0,135.56,0c-0.57,2.23-0.98,4.26-1.64,6.18c-2.71,8.22-5.47,16.4-8.26,24.59
	c-1.86,5.48-2.16,5.7-8.01,5.73c-9.62,0.03-19.27,0-29.74,0c-0.05,8.44-0.11,16.63-0.14,24.79c-0.03,8.27,0,16.52,0,24.79
	s0,16.52,0,24.79c0,8.47,0,16.94,0,25.41c0,8.27,0,16.52,0,24.79s0,16.52,0,24.79c0,8.27,0,16.52,0,24.79c0,8.22,0,16.43,0,25.01
	c-12.85,0-25.07,0-38.19,0c-0.05-8.16-0.11-16.32-0.14-24.48c-0.03-8.27,0-16.52,0-24.79s0-16.52,0-24.79c0-8.47,0-16.94,0-25.41
	c0-8.27,0-16.52,0-24.79s0-16.52,0-24.79s0-16.52,0-24.79C282.65,53.61,282.65,45.4,282.65,36.5z"/>
</svg>
