<?xml version="1.0" encoding="utf-8"?>
<!-- Generator: Adobe Illustrator 24.1.2, SVG Export Plug-In . SVG Version: 6.00 Build 0)  -->
<svg version="1.1" id="Calque_1" xmlns="http://www.w3.org/2000/svg" xmlns:xlink="http://www.w3.org/1999/xlink" x="0px" y="0px"
	 viewBox="0 0 612 369.1" style="enable-background:new 0 0 612 369.1;" xml:space="preserve">
<style type="text/css">
	.st0{fill:#FFFFFF;}
</style>
<path class="st0" d="M396.39,369.1c-1.32-0.46-2.44-0.82-3.55-1.23c-31.85-11.67-63.7-23.34-95.55-35.01
	c-3.48-1.27-3.48-1.28-3.48-4.99c0.01-79.81,0.02-159.62-0.03-239.44c0-2.61,0.88-4.26,2.9-5.85c31-24.34,61.94-48.75,92.9-73.14
	c1.65-1.3,3.29-2.62,4.95-3.91c0.51-0.39,1.07-0.71,1.86-1.22C396.39,126,396.39,247.36,396.39,369.1z"/>
<path class="st0" d="M174.41,369.04c0-121.6,0-242.98,0-364.64c0.66,0.41,1.16,0.67,1.59,1.01c20.58,16.21,41.16,32.43,61.74,48.65
	c11.73,9.25,23.47,18.48,35.21,27.73c0.18,0.14,0.34,0.3,0.53,0.41c2.67,1.59,3.47,3.9,3.46,7c-0.07,79.51-0.05,159.02-0.05,238.54
	c0,0.38-0.03,0.75,0,1.13c0.13,1.93-0.75,3.06-2.57,3.7c-3.89,1.36-7.74,2.83-11.6,4.24c-28.69,10.5-57.38,21.01-86.07,31.5
	C175.97,368.55,175.26,368.76,174.41,369.04z"/>
</svg>
