<?xml version="1.0" encoding="utf-8"?>
<!-- Generator: Adobe Illustrator 21.1.0, SVG Export Plug-In . SVG Version: 6.00 Build 0)  -->
<svg version="1.1" id="Calque_1" xmlns="http://www.w3.org/2000/svg" xmlns:xlink="http://www.w3.org/1999/xlink" x="0px" y="0px"
	 viewBox="0 0 134 50" style="enable-background:new 0 0 134 50;" xml:space="preserve">
<style type="text/css">
	.st0{opacity:0.1;}
	.st1{fill:#92B264;}
	.st2{fill:#506D29;}
	.st3{fill:#282828;}
	.st4{fill:#FFFFFF;stroke:#010202;stroke-width:0.5;stroke-miterlimit:10;}
	.st5{fill:#4E4D4D;}
	.st6{fill:#B3B3B3;}
	.st7{fill:#CDCCCC;}
	.st8{font-family:'Bellefair-Regular';}
	.st9{font-size:28.7791px;}
	.st10{font-family:'Roboto-Regular';}
	.st11{font-size:7.3256px;}
	.st12{fill:#FFFFFF;}
</style>
<g>
	<text transform="matrix(1 0 0 1 54.7559 30.3975)" class="st3 st8 st9">Sencha</text>
	<text transform="matrix(1 0 0 1 56.1953 41.4019)" class="st10 st11">SALON DE THÉ</text>
	<g>
		<path class="st1" d="M37.9,6.4C38,31.7,28.2,34.6,23.4,37C18.6,39.6,7.7,39,7.7,39c2.1-7,7-10.1,14.2-12.6c7.2-2.5,11.3-8,11.3-8
			c-1.7,1.4-7.2,5.4-14.7,7.2c-7.6,1.7-11.2,10-11.2,10c2.3-12.8,9.1-16.9,19.4-19.2c8-1.8,10.4-7.7,11-10.1C34,3.6,29.4,2,24.5,2
			C12.1,2,2,12.1,2,24.5S12.1,47,24.5,47S47,36.9,47,24.5C47,17.1,43.4,10.5,37.9,6.4z"/>
	</g>
</g>
</svg>
