<svg id="Calque_1" data-name="Calque 1" xmlns="http://www.w3.org/2000/svg" viewBox="0 0 159.36 152.18"><defs><style>.cls-1{fill:#fff;}</style></defs><path class="cls-1" d="M677.55,442.51a12.35,12.35,0,0,1-8.4-3.27c-4.4-4.23-48.11-46.59-51.55-50.47-5.78-6.53-9.67-14.46-11.89-24.22-2.37-10.47-2.18-20.67.55-28.73a41.42,41.42,0,0,1,13.31-19.07,40.28,40.28,0,0,1,23.88-8.82c.41,0,.84,0,1.27,0a41.07,41.07,0,0,1,32.83,16.23,41.07,41.07,0,0,1,32.84-16.23c.42,0,.85,0,1.28,0a40.75,40.75,0,0,1,36.09,25A46.5,46.5,0,0,1,751,354.63a67.81,67.81,0,0,1-10.12,30.25,43.44,43.44,0,0,1-4.14,5.45l-.37.41-.53.15a19,19,0,0,0-11,7.91l-1.52,2.3-1.52-2.3a19.12,19.12,0,0,0-16-8.55h-.6a18.68,18.68,0,0,0-11.06,4.09,19.48,19.48,0,0,0-6.2,8.88,26.21,26.21,0,0,0-.22,13.81,25.73,25.73,0,0,0,5.71,11.69c.1.12.28.3.52.55l1.32,1.34L686,439.24A12.33,12.33,0,0,1,677.55,442.51Zm-32.83-131-1.14,0a36.6,36.6,0,0,0-21.73,8A37.7,37.7,0,0,0,609.71,337c-2.51,7.43-2.67,16.93-.44,26.76,2.07,9.14,5.69,16.54,11.06,22.6,3.31,3.73,47.13,46.2,51.32,50.24a8.76,8.76,0,0,0,11.82,0l6.62-6.13a32.58,32.58,0,0,1-5.62-28.37,23,23,0,0,1,7.37-10.56,22.34,22.34,0,0,1,13.25-4.89h.7a22.79,22.79,0,0,1,17.52,8.15,22.69,22.69,0,0,1,11.09-7.24,37,37,0,0,0,3.42-4.56,63.86,63.86,0,0,0,9.58-28.59h0a43,43,0,0,0-3-20,37.13,37.13,0,0,0-32.87-22.8l-1.15,0a37.42,37.42,0,0,0-31.32,16.74l-1.52,2.3-1.52-2.3A37.42,37.42,0,0,0,644.72,311.55Z" transform="translate(-604.06 -307.91)"/><path class="cls-1" d="M723.3,460.09a7.4,7.4,0,0,1-5.06-2c-1.67-1.61-22.74-22-26.9-26.29q-.47-.46-.66-.69a32.45,32.45,0,0,1-6.21-29.07,23,23,0,0,1,7.37-10.56,22.34,22.34,0,0,1,13.25-4.89h.7a22.79,22.79,0,0,1,17.52,8.15A22.68,22.68,0,0,1,735,387.36a23.43,23.43,0,0,1,6.51-.75h.06a22.59,22.59,0,0,1,20,13.86,25.85,25.85,0,0,1,1.81,11.95h0A37,37,0,0,1,757.82,429a36.2,36.2,0,0,1-5.4,6.25c-.6.6-1.19,1.18-1.75,1.77-1.79,1.87-3.27,3.4-4.66,4.81l-.06.06-17.59,16.28A7.4,7.4,0,0,1,723.3,460.09Zm-17.51-69.84h-.6a18.68,18.68,0,0,0-11.06,4.09,19.48,19.48,0,0,0-6.2,8.88,26.21,26.21,0,0,0-.22,13.81,25.73,25.73,0,0,0,5.71,11.69c.1.12.28.3.52.55,4.14,4.25,25.16,24.61,26.81,26.19a3.81,3.81,0,0,0,5.14,0l17.55-16.26c1.37-1.38,2.83-2.89,4.6-4.74.58-.61,1.19-1.22,1.81-1.83a29.66,29.66,0,0,0,9.86-20.45h0a22.12,22.12,0,0,0-1.53-10.27,19,19,0,0,0-16.77-11.64h-.59a19.18,19.18,0,0,0-16,8.55l-1.52,2.3-1.52-2.3A19.12,19.12,0,0,0,705.79,390.25Z" transform="translate(-604.06 -307.91)"/></svg>