<svg id="Calque_1" data-name="Calque 1" xmlns="http://www.w3.org/2000/svg" viewBox="0 0 775.8 493.98"><defs><style>.cls-1{fill:#1b69b9;}.cls-2{fill:#61af05;}.cls-3{fill:#fff206;}.cls-4{fill:#fad800;}.cls-5{fill:#95cc0e;}</style></defs><path class="cls-1" d="M228.4,345.17a49.5,49.5,0,0,1,13.59.63,30.76,30.76,0,0,1,10.87,3.76q-1.68,24.46-15.68,37.63T198.5,400.37q-24.67,0-38.36-16.63t-13.7-46.93q0-38.06,18.92-63.35t48.2-25.3q19,0,29.48,11.92t11.49,34.49a62.66,62.66,0,0,1-14.21,5,71.83,71.83,0,0,1-15.47,1.05q.41-16.51-3.66-24.57T208.33,268q-11.51,0-19.55,17.56t-8.05,43.7q0,24.47,6.59,37.53t18.92,13.07q11.7,0,17.56-9.31t4.6-25.4" transform="translate(-146.16 -135.63)"/><path class="cls-1" d="M304.92,402.66a64.85,64.85,0,0,1-12,2.2,131.09,131.09,0,0,1-14.74.94q-3.35-41-4.71-83.73t-.52-78.93a35.6,35.6,0,0,1,9-3.76,40,40,0,0,1,10.87-1.47,56,56,0,0,1,7.74.53,68,68,0,0,1,7.74,1.56q-2.73,26.56-3.56,74.44t.21,88.22" transform="translate(-146.16 -135.63)"/><path class="cls-1" d="M408.83,319.66q0,13.38-3.66,36.28t-9.09,44.42a111.13,111.13,0,0,1-12.54-.73,81.54,81.54,0,0,1-11.92-2.19c.55-2.93.94-5.09,1.15-6.48s.45-2.65.73-3.77a36,36,0,0,1-9.83,3.77,51.31,51.31,0,0,1-11.5,1.25q-16.1,0-25.82-8.26t-9.72-22.06q0-14.42,11.81-21.63T363.67,333q4.4,0,7.84.11t7.22.31v-3.14q0-19-3.14-27.18t-10-8.15q-6.9,0-11.7,7.53t-5,19q-10.24-.19-16.94-4.07a22.19,22.19,0,0,1-9.61-10.77q3.33-12.12,16.3-20.6t29.9-8.46q19.86,0,30.11,10.66t10.24,31.36M348,363.78q0,6.06,3.45,9.4t9.73,3.35a26.43,26.43,0,0,0,7.52-1,31.5,31.5,0,0,0,7.11-3.13q1.05-7.53,1.67-13.59t.84-11.71q-15.27-.21-22.79,3.87T348,363.78" transform="translate(-146.16 -135.63)"/><path class="cls-1" d="M440.82,288.3a38.48,38.48,0,0,1,9.93-3.87,49.73,49.73,0,0,1,11.81-1.36,57.69,57.69,0,0,1,6,.32,55.62,55.62,0,0,1,6,.94q-4.39,16.73-7.11,46.41T464.65,392a39.11,39.11,0,0,1-8.25,2.41,54.48,54.48,0,0,1-10.14.94,37.38,37.38,0,0,1-4.08-.21q-1.79-.21-3.24-.42a419.81,419.81,0,0,1-2.83-56.45,301.53,301.53,0,0,1,4.71-50m23.83-52.06a60.74,60.74,0,0,1,9.2,1,25.19,25.19,0,0,1,6.9,2.3,122.66,122.66,0,0,0-4.18,11.92A131.67,131.67,0,0,0,473,265.72q-5.86.84-12.34,1.15t-14,.1a46,46,0,0,1-1.57-6.69,43,43,0,0,1-.52-6.69,41.76,41.76,0,0,1,.63-7.31,34.15,34.15,0,0,1,1.67-6.28,38.92,38.92,0,0,1,8.26-2.82,44.3,44.3,0,0,1,9.51-.94" transform="translate(-146.16 -135.63)"/><path class="cls-1" d="M523.4,345.8q.63,12.54,1.88,24.35t3.14,23.11a37.65,37.65,0,0,1-8.16,1.77,71.92,71.92,0,0,1-10.45.32c-2.23-.14-4-.32-5.43-.53a18.56,18.56,0,0,1-4.19-1.15,428.19,428.19,0,0,1-7.73-56.34A375.67,375.67,0,0,1,492,281.4a29.35,29.35,0,0,1,7.11-1.78,76.75,76.75,0,0,1,9.62-.52,59.42,59.42,0,0,1,9.61.73,36.55,36.55,0,0,1,8,2.2q-.84,4.38-1.47,9.62t-1,10.87q5-13.38,12.75-21.12t15.89-7.73a18.15,18.15,0,0,1,15.89,8.25q5.65,8.26,5.65,23.52V311a29.37,29.37,0,0,1-.21,3.66,50.53,50.53,0,0,1-12.23,2.2,121.05,121.05,0,0,1-15.16.1q.21-4.17.31-5.75c.07-1,.11-2,.11-2.82,0-3.9-.46-6.83-1.36-8.78a4.5,4.5,0,0,0-4.29-2.93q-5.22,0-10.14,13.28T523.4,345.8" transform="translate(-146.16 -135.63)"/><path class="cls-1" d="M632.11,353.68a146.46,146.46,0,0,1-32.41,2.51q-18-.42-25.3-3.76a81.76,81.76,0,0,1,.21-13.39A54.85,54.85,0,0,1,577.12,328a128.93,128.93,0,0,0,13.48,1.78q8.26.74,14.74.73,11.92,0,18.19-.31t11.29-.94a134.89,134.89,0,0,1-.62,14.21,53.62,53.62,0,0,1-2.09,10.25" transform="translate(-146.16 -135.63)"/><path class="cls-1" d="M363.46,507.24A50.27,50.27,0,0,1,370,521a54.84,54.84,0,0,1,2.2,15.89q0,19.65-13.7,32.51t-34,12.86q-23.2,0-37.84-15.48T272.09,529a63,63,0,0,1,12.23-4.39A60.49,60.49,0,0,1,297,522.5q0,18.62,6.59,29.48t18.29,10.87q8.77,0,13.69-5.23t4.92-14.21a27.51,27.51,0,0,0-4.5-15.16q-4.5-7-19.75-18.5a166.28,166.28,0,0,1-15.06-12.44A73,73,0,0,1,293,488a51.47,51.47,0,0,1-6.9-14.21,54.63,54.63,0,0,1-2.3-16.1q0-19.86,13-32t34.5-12.13q19.23,0,30.63,9.93t15.37,30.63a33.85,33.85,0,0,1-10.77,4.71A89,89,0,0,1,351.12,461q-2.1-14.43-6.79-20.7t-13.7-6.27q-6.9,0-10.77,4.5T316,451a29.64,29.64,0,0,0,4.6,16.1q4.59,7.32,20.07,18.81a168.85,168.85,0,0,1,14.84,12.23,72.58,72.58,0,0,1,7.95,9.1" transform="translate(-146.16 -135.63)"/><path class="cls-1" d="M385.41,524.59q0-28.64,15.16-46.73t39.2-18.08q18.6,0,29.16,11.81t10.56,32.72q0,30.52-14.63,51.12T425.34,576q-18.81,0-29.37-14t-10.56-37.43m62.72-9.83q0-18.39-3.76-27.17t-11.5-8.79q-7.11,0-12,11.82t-4.92,29.58q0,15.69,4.29,26.34t11.6,10.67q6.9,0,11.61-12.65t4.7-29.8" transform="translate(-146.16 -135.63)"/><path class="cls-1" d="M528.83,583.55a63.86,63.86,0,0,1-12,2.19,131.3,131.3,0,0,1-14.74,1q-3.35-41-4.7-83.74T496.84,424a35.52,35.52,0,0,1,9-3.77,40.28,40.28,0,0,1,10.87-1.46,57.56,57.56,0,0,1,7.73.52,66,66,0,0,1,7.74,1.57q-2.71,26.55-3.55,74.43t.2,88.23" transform="translate(-146.16 -135.63)"/><path class="cls-1" d="M612.68,535.67A41.43,41.43,0,0,1,625,540.06a43.59,43.59,0,0,1,10.45,7.53q-4,11.71-17.56,20.8a54.29,54.29,0,0,1-30.94,9.1q-19.86,0-30.94-12.86t-11.08-34.81a79,79,0,0,1,16.62-49.45q16.62-21.63,38.78-21.64,15.46,0,24.57,8.47T634,489.88a83.18,83.18,0,0,1-1.36,14.43,80.65,80.65,0,0,1-3.66,14A48.89,48.89,0,0,1,615.6,522,140.13,140.13,0,0,1,596,523.13a76.24,76.24,0,0,1-9.72-.63,84.86,84.86,0,0,1-9.93-1.88c-.14,2.23-.25,3.9-.32,5s-.1,2.16-.1,3.13q0,14.22,4.29,22.37T592,559.3q5.85,0,12-7.32a43.09,43.09,0,0,0,8.68-16.31m-33.87-31.15a58.66,58.66,0,0,0,8.46,1.88,55.53,55.53,0,0,0,8.05.63c1.53,0,3.07-.07,4.6-.21a24.69,24.69,0,0,0,3.14-.42,100.27,100.27,0,0,0,2.2-10.14,56.58,56.58,0,0,0,.73-8.47c0-4.18-.63-7.24-1.89-9.2s-3.27-2.92-6.06-2.92q-5.85,0-11.08,7.84t-8.15,21" transform="translate(-146.16 -135.63)"/><path class="cls-1" d="M657.21,469.19a38,38,0,0,1,9.93-3.87A49.22,49.22,0,0,1,679,464a57.64,57.64,0,0,1,6,.31,56,56,0,0,1,6,.94q-4.39,16.74-7.11,46.42T681,572.89a39.08,39.08,0,0,1-8.26,2.4,53.49,53.49,0,0,1-10.14.94,35,35,0,0,1-4.07-.21c-1.19-.14-2.27-.28-3.25-.42a418.07,418.07,0,0,1-2.82-56.44,301.42,301.42,0,0,1,4.71-50M681,417.13a60.74,60.74,0,0,1,9.2,1,25.19,25.19,0,0,1,6.9,2.3A122.66,122.66,0,0,0,693,432.39a131.83,131.83,0,0,0-3.56,14.22q-5.85.83-12.33,1.15t-14,.1a46.25,46.25,0,0,1-1.57-6.69,43.08,43.08,0,0,1-.52-6.69,41.88,41.88,0,0,1,.63-7.32,33.82,33.82,0,0,1,1.67-6.27,37.83,37.83,0,0,1,8.26-2.82,44.23,44.23,0,0,1,9.51-.94" transform="translate(-146.16 -135.63)"/><path class="cls-1" d="M185.11,189.21a15,15,0,0,1,3.56.21,11,11,0,0,1,3.14,1.13q-.62,12.38-6.29,18.76t-15.87,6.39q-11.24,0-17.36-8.45t-6.13-24.12q0-19,7.88-30.71t20.66-11.74q9,0,13.19,5.82t3.92,17.67a10.79,10.79,0,0,1-3.45,1.39,17.32,17.32,0,0,1-4.59.36q.72-10.2-1.75-14.73t-8.76-4.54q-7.72,0-13.09,9.69t-5.36,25q0,13.71,4.13,21t11.85,7.32a12.39,12.39,0,0,0,10.82-5.51q3.81-5.52,3.5-15" transform="translate(-146.16 -135.63)"/><path class="cls-1" d="M212.52,188.18q.1,6.6.52,13.55t1.34,17.37a21.2,21.2,0,0,1-3.71.1,17.34,17.34,0,0,1-3.4-.41q-1.46-17.22-2-29.89t-.57-32.25q0-3.81.21-9.17c.13-3.57.31-6.6.51-9.07a87.79,87.79,0,0,1,10-2.12,61.76,61.76,0,0,1,8.81-.66q12.57,0,19.42,5.3t6.86,14.79q0,10.72-9.28,18.7t-28.65,13.76m1.65-45.55q-.82,8.76-1.23,17t-.42,17.87v4.43q14.64-3.9,22.06-10.25T242,156.75q0-7.51-4.63-11.49t-13.4-4a38.89,38.89,0,0,0-4.79.31,35.88,35.88,0,0,0-5,1" transform="translate(-146.16 -135.63)"/><path class="cls-1" d="M303.51,213.43q-8.13,1.23-17.05,1.9t-19.42,1q-3-19.78-4.9-40.24T260,140.88q14.33-2.48,23-3.4t18.14-1.13c0,1.23-.06,2.42-.16,3.55a27.34,27.34,0,0,1-.46,3.15q-8.46.09-16.23.77T269,145.72q-.19,6.19,0,12.78t.72,14.22c6.6-1.16,11.7-2,15.31-2.52s7.19-.91,10.77-1.19a17.35,17.35,0,0,1,.56,3,21.06,21.06,0,0,1,0,3.4c-5.22.42-9.73.84-13.55,1.29s-8.05,1.05-12.72,1.8q.72,8.46,1.59,16.39t2,15.15q8.56-.21,15.62-1T303,206.73a18.47,18.47,0,0,1,.57,3.4,14.6,14.6,0,0,1-.06,3.3" transform="translate(-146.16 -135.63)"/><path class="cls-2" d="M740.33,577.07q.1,3.45.22,6.9a53.24,53.24,0,0,0-9.92,5.48,31.57,31.57,0,0,0-8.86,9.66,40.62,40.62,0,0,0-4.38,12c-.42,2-.79,4-1.12,6-.58-8.92-1.06-17.82-1.49-26.73a1.85,1.85,0,0,1,0-.23c.53-.15,1.06-.3,1.58-.47a33.28,33.28,0,0,0,3.88-1.41c.31-.13,1.12-.57,1.93-1h0c.85-.49,1.65-1,1.81-1.1-.14-1.38-.31-2.71-.51-4,0,0,0-.05,0-.08-.39-2.83-.89-5.55-1.48-8.34a40.65,40.65,0,0,0-4.37-12,30.59,30.59,0,0,0-4.14-5.5q-.27-9.21-.49-18.42c-.62-28,.13-83.91.13-83.91a33.09,33.09,0,0,1,6.71-2.76,35.21,35.21,0,0,1,8.39-1.45,49.21,49.21,0,0,1,8.64.39c2.09.28,6.27,1.23,6.27,1.23-1.41,13.46-2.17,26.93-2.77,40.38-.47,14.25-.74,28.5-.7,42.73s.2,28.48.68,42.71" transform="translate(-146.16 -135.63)"/><path class="cls-3" d="M789.82,303.74a71.65,71.65,0,0,0-105.08,96.48,71.65,71.65,0,1,1,105.08-96.48" transform="translate(-146.16 -135.63)"/><path class="cls-4" d="M804.34,347a71.65,71.65,0,0,1-119.6,53.24,71.65,71.65,0,0,1,105.08-96.48A71.26,71.26,0,0,1,804.34,347" transform="translate(-146.16 -135.63)"/><path class="cls-4" d="M807.33,274.88a121,121,0,0,1,14.47-19.72,198.4,198.4,0,0,1,16.92-17A232.46,232.46,0,0,1,857.37,223a139.08,139.08,0,0,1,20.85-12.72,4.65,4.65,0,0,1,6.2,2.2,4.7,4.7,0,0,1-.2,4.38,137.85,137.85,0,0,1-14.6,19.58,230.68,230.68,0,0,1-16.8,17.16,198.48,198.48,0,0,1-18.52,15.28,121.21,121.21,0,0,1-21,12.58,4.68,4.68,0,0,1-6-6.58" transform="translate(-146.16 -135.63)"/><path class="cls-4" d="M643,390.05a110.43,110.43,0,0,1-16.61,16.47,179.7,179.7,0,0,1-18.59,13.4,210.88,210.88,0,0,1-20,11.26A126.3,126.3,0,0,1,566,439.69a4.67,4.67,0,0,1-5.73-3.28,4.74,4.74,0,0,1,.9-4.2,126.54,126.54,0,0,1,16.71-16.31,211.15,211.15,0,0,1,18.49-13.56,182.15,182.15,0,0,1,19.86-11.42,111,111,0,0,1,21.85-8.34,4.7,4.7,0,0,1,4.83,7.47" transform="translate(-146.16 -135.63)"/><path class="cls-4" d="M834.6,333.69a86.12,86.12,0,0,1,19.88-5.08,137.38,137.38,0,0,1,19.92-1.42,161,161,0,0,1,20,1.12,97.82,97.82,0,0,1,20,4.4,4.74,4.74,0,0,1,.11,8.9,98,98,0,0,1-19.88,4.89,161.08,161.08,0,0,1-19.92,1.61,137.6,137.6,0,0,1-20-.93,86.67,86.67,0,0,1-20-4.59,4.78,4.78,0,0,1-.11-8.9" transform="translate(-146.16 -135.63)"/><path class="cls-4" d="M646.23,290.23a128.75,128.75,0,0,1-23-10.3,212.49,212.49,0,0,1-20.88-13.29q-10.05-7.18-19.41-15.37a146.88,146.88,0,0,1-17.52-18.05,4.64,4.64,0,0,1,5.13-7.27,145.37,145.37,0,0,1,22.88,10.46q10.86,6,21,13.13A212.65,212.65,0,0,1,634,264.76,129.17,129.17,0,0,1,651.36,283a4.66,4.66,0,0,1-5.13,7.27" transform="translate(-146.16 -135.63)"/><path class="cls-4" d="M750.66,243.56a144.74,144.74,0,0,1,1.61-26.78,241,241,0,0,1,5.15-25.92c2.16-8.53,4.68-17,7.63-25.3A166.59,166.59,0,0,1,775.87,141a4.62,4.62,0,0,1,8.64,2.13,165.35,165.35,0,0,1-1.79,26.74c-1.25,8.75-2.93,17.4-5,26a238.54,238.54,0,0,1-7.45,25.35,145.25,145.25,0,0,1-11,24.48,4.64,4.64,0,0,1-8.64-2.13" transform="translate(-146.16 -135.63)"/><path class="cls-4" d="M689.52,252.5a107.69,107.69,0,0,1-13.46-18.64,174.43,174.43,0,0,1-10.12-20.12,204.51,204.51,0,0,1-7.79-21.13,122,122,0,0,1-4.78-22.46,4.67,4.67,0,0,1,8.14-3.58,122.83,122.83,0,0,1,13.3,18.72,204.75,204.75,0,0,1,10.29,20,176.64,176.64,0,0,1,8,21.06,108.19,108.19,0,0,1,4.61,22.54,4.71,4.71,0,0,1-4.32,5.07,4.76,4.76,0,0,1-3.83-1.5" transform="translate(-146.16 -135.63)"/><path class="cls-4" d="M795,426.73a72.59,72.59,0,0,1,10.63,15.56,114,114,0,0,1,7.18,16.78,135.07,135.07,0,0,1,4.78,17.62,82.22,82.22,0,0,1,1.68,18.73,4.78,4.78,0,0,1-8.38,3,83,83,0,0,1-10.45-15.62A133.24,133.24,0,0,1,793.11,466a114.1,114.1,0,0,1-5-17.57,72.41,72.41,0,0,1-1.51-18.78,4.83,4.83,0,0,1,8.38-3" transform="translate(-146.16 -135.63)"/><path class="cls-4" d="M824.75,387.71a146.25,146.25,0,0,1,25.62,8,242.3,242.3,0,0,1,23.91,11.23c7.77,4.15,15.35,8.62,22.73,13.5a165.17,165.17,0,0,1,21.21,16.39,4.61,4.61,0,0,1-4.14,7.87,165.59,165.59,0,0,1-25.53-8.16c-8.2-3.31-16.19-7-24-11.07a242.36,242.36,0,0,1-22.82-13.32,146.72,146.72,0,0,1-21.12-16.56,4.64,4.64,0,0,1-.09-6.56,4.7,4.7,0,0,1,4.23-1.32" transform="translate(-146.16 -135.63)"/><path class="cls-2" d="M779.91,617.41c-22.29,14.21-52.06,12.8-63.4,6.27,14.09.89,36.36-8.31,56.89-21.42,14.19-9.07,27.37-24.81,34.54-36.16,4.34,3.79-7.47,38.2-28,51.31" transform="translate(-146.16 -135.63)"/><path class="cls-5" d="M807.94,566.1c-7.17,11.35-20.35,27.09-34.54,36.16-20.53,13.11-42.8,22.32-56.89,21.42a9.3,9.3,0,0,1-1-.61c4-18.39,6.41-29.86,27.32-37.52,32.91-4.43,40,.26,62.86-19.45,1-.49,1.72-.47,2.24,0" transform="translate(-146.16 -135.63)"/><path class="cls-2" d="M722.16,587.21c-.81.46-1.62.9-1.93,1a34,34,0,0,1-3.88,1.41c-.52.17-1.05.32-1.58.47a1.85,1.85,0,0,0,0,.23l-1,.22c-.33.08-.66.14-1,.2,0-.06,0-.11,0-.16-1.48.33-3,.58-4.48.82l-.9.12c-13.89,1.4-32.31-1.08-47.34-10.66-20.54-13.11-32.36-47.53-28-51.31.7,1.12,1.48,2.29,2.3,3.5,1.9,2.77,4.11,5.72,6.53,8.71l.77.94c2.29,2.78,4.78,5.58,7.4,8.29.35.36.71.74,1.08,1.1s.78.79,1.18,1.17c2.42,2.39,4.94,4.68,7.53,6.79.39.33.79.65,1.19.95s.85.67,1.26,1,.89.67,1.34,1,.87.65,1.31,1,.88.61,1.32.9.88.59,1.33.87,1,.64,1.48.94l1.47.91c.24.16.49.31.74.46l1.85,1.11c.62.38,1.25.75,1.87,1.1s1.41.82,2.12,1.22l1.61.89q4.32,2.4,8.61,4.48l1.16.55a128.57,128.57,0,0,0,17.16,6.82c.44.14.89.28,1.33.4l1.31.38.05,0,1.29.33c.44.12.87.22,1.3.32,1,.25,2,.46,3,.65l.66.12,1.07.19,1.59.23c.52.07,1,.12,1.54.17s.85.09,1.27.11c.21,0,.43,0,.65,0s.71,0,1.05,0,1,0,1.45,0" transform="translate(-146.16 -135.63)"/><path class="cls-5" d="M724,586.11c-.15.12-1,.61-1.81,1.1h0c-.47,0-1,0-1.45,0l-1.05,0c-.22,0-.44,0-.65,0-.42,0-.83-.07-1.27-.11s-1-.1-1.54-.17l-1.59-.23-1.07-.19-.66-.12c-1-.19-2-.4-3-.65l-1.3-.32-1.29-.33-.05,0-1.31-.38c-.44-.12-.89-.26-1.33-.4a128.57,128.57,0,0,1-17.16-6.82l-1.16-.55q-4.29-2.08-8.61-4.48l-1.61-.89c-.71-.4-1.41-.8-2.12-1.22s-1.25-.72-1.87-1.1L670.26,568c-.25-.16-.5-.3-.74-.46l-1.47-.91c-.5-.3-1-.62-1.48-.93l-1.33-.88c-.44-.29-.89-.59-1.32-.9s-.87-.62-1.31-1-.89-.65-1.34-1-.84-.66-1.26-1l-1.19-.95c-2.59-2.11-5.11-4.4-7.53-6.79l-1.18-1.17c-.37-.36-.72-.74-1.08-1.1-2.62-2.71-5.11-5.51-7.4-8.29l-.77-.94c-2.42-3-4.63-5.94-6.53-8.71-.82-1.21-1.6-2.38-2.3-3.5.52-.47,1.24-.49,2.23,0,22.91,19.71,30,15,62.87,19.45,6.63,2.43,11.42,5.25,15,8.55,6.7,6.21,9.07,14.13,11.36,24.43,0,0,0,0,0,.08.2,1.31.37,2.64.51,4" transform="translate(-146.16 -135.63)"/><path d="M807.07,274.73a166.25,166.25,0,0,1,16-22,188.62,188.62,0,0,1,19-19.61,209.44,209.44,0,0,1,21.6-16.88,124,124,0,0,1,11.86-7.11l1.55-.79a7,7,0,0,1,7.15.54,7,7,0,0,1,2,9.14,150.34,150.34,0,0,1-16.28,22.44,179.06,179.06,0,0,1-19.6,19.35,136.48,136.48,0,0,1-22.74,15.55,127.24,127.24,0,0,1-12.39,6l-1.58.66a5.5,5.5,0,0,1-1.85.43,5.29,5.29,0,0,1-3.54-1.1,5.14,5.14,0,0,1-1.28-6.61m.52.3a4.44,4.44,0,0,0-.41,3.07,4.2,4.2,0,0,0,1.72,2.49,3.93,3.93,0,0,0,2.87.66,4.34,4.34,0,0,0,1.41-.47l1.5-.78A92.15,92.15,0,0,0,826,272.65c7.16-5.46,13.91-11.34,20.5-17.38s13-12.31,19.15-18.82a135.71,135.71,0,0,0,16.53-20.84,2.32,2.32,0,0,0-.54-3,2.36,2.36,0,0,0-1.62-.49,2.54,2.54,0,0,0-.9.23l-1.5.71a116.14,116.14,0,0,0-11.68,6.49,203.94,203.94,0,0,0-21.78,15.88,244.76,244.76,0,0,0-20.07,18.17A102.77,102.77,0,0,0,807.59,275" transform="translate(-146.16 -135.63)"/><path d="M643.34,390a152.33,152.33,0,0,1-18.52,18.46,172.35,172.35,0,0,1-21.11,15.59,189.89,189.89,0,0,1-23.21,12.43,109.23,109.23,0,0,1-12.43,4.71l-.8.24a9.12,9.12,0,0,1-.94.25A6.95,6.95,0,0,1,558,435.1a7.11,7.11,0,0,1,1.5-4.58,138.68,138.68,0,0,1,18.83-18.86,165.08,165.08,0,0,1,21.61-15.25A125.83,125.83,0,0,1,624,385.47a118.53,118.53,0,0,1,12.75-3.5c.55-.11,1-.23,1.65-.33a5.17,5.17,0,0,1,1.84,0,5.34,5.34,0,0,1,3,1.84,5.14,5.14,0,0,1,.05,6.5m-.47-.38a4.46,4.46,0,0,0,.88-2.84,4.22,4.22,0,0,0-1.15-2.68,4,4,0,0,0-4-1.15c-.45.12-1,.31-1.51.46a82.41,82.41,0,0,0-11.9,5c-7.66,4-15,8.44-22.18,13.09s-14.24,9.58-21,14.78a124.73,124.73,0,0,0-18.79,17.21,2.33,2.33,0,0,0,0,3,2.38,2.38,0,0,0,1.42.83,2.63,2.63,0,0,0,.84,0c.09,0,.38-.09.64-.16l.77-.2A106.72,106.72,0,0,0,579,432.89a185.88,185.88,0,0,0,23.18-11.42,223.82,223.82,0,0,0,21.87-14,94.1,94.1,0,0,0,18.84-17.85" transform="translate(-146.16 -135.63)"/><path d="M834.48,333.41A118.83,118.83,0,0,1,857,327.63a133.65,133.65,0,0,1,23.22-1.88,143,143,0,0,1,23.32,2A82.06,82.06,0,0,1,915,330.63a6.9,6.9,0,0,1,3.38,2.4,7,7,0,0,1-3,10.79,107.41,107.41,0,0,1-23,6,126.73,126.73,0,0,1-23.51,1.33,95.56,95.56,0,0,1-23.27-3.79,86.83,86.83,0,0,1-11.06-4,5.43,5.43,0,0,1-3.41-5.08,5.24,5.24,0,0,1,3.32-4.84m.23.56a4.34,4.34,0,0,0-2.63,4.26,4.14,4.14,0,0,0,3,3.7,62.25,62.25,0,0,0,11.18,2.26,194.25,194.25,0,0,0,22.72.93c7.56-.08,15.14-.47,22.66-1.23a96.15,96.15,0,0,0,22-4.55,2.4,2.4,0,0,0,1.59-2.23,2.49,2.49,0,0,0-1.66-2.36,79.39,79.39,0,0,0-10.82-3.12,140.71,140.71,0,0,0-22.66-2.87,172.64,172.64,0,0,0-23,.13,73.54,73.54,0,0,0-22.4,5.08" transform="translate(-146.16 -135.63)"/><path d="M646.14,290.52a176.05,176.05,0,0,1-25.58-11.38,199.56,199.56,0,0,1-23.87-14.79,223.3,223.3,0,0,1-21.77-17.86,126.81,126.81,0,0,1-9.83-10.23l-1.15-1.37-.3-.36-.38-.53a7.73,7.73,0,0,1-.6-1.14,6.93,6.93,0,0,1,3.45-8.85,7.14,7.14,0,0,1,5.14-.37,159.3,159.3,0,0,1,26,11.51A188.6,188.6,0,0,1,621,250.53a144.81,144.81,0,0,1,20.73,19.25,137.15,137.15,0,0,1,8.87,11l1,1.43a6.46,6.46,0,0,1,.93,1.68,5.35,5.35,0,0,1-.16,3.8,5.07,5.07,0,0,1-6.26,2.83m.18-.58a4.37,4.37,0,0,0,3.16-.27,4.2,4.2,0,0,0,2.07-2.32,4.07,4.07,0,0,0-.11-3,4.85,4.85,0,0,0-.88-1.29l-1.13-1.32a98.35,98.35,0,0,0-9.95-9.63c-7.09-5.95-14.51-11.41-22-16.69s-15.25-10.33-23.13-15.06a144.14,144.14,0,0,0-24.55-12.1,2.29,2.29,0,0,0-2.87,1.24,2.38,2.38,0,0,0-.07,1.74c.06.14.12.28.19.41l.13.19.24.32,1.06,1.35a124.72,124.72,0,0,0,9.2,10.2,218.31,218.31,0,0,0,20.85,18.26A257.68,257.68,0,0,0,621.19,278a108.31,108.31,0,0,0,25.13,11.9" transform="translate(-146.16 -135.63)"/><path d="M750.36,243.58a144.2,144.2,0,0,1,.29-14.85q.45-7.41,1.39-14.78c.59-4.92,1.33-9.83,2.25-14.71s2-9.72,3.2-14.54a253.49,253.49,0,0,1,9-28.43,145.6,145.6,0,0,1,6.07-13.74l.86-1.68.45-.83a7.54,7.54,0,0,1,.73-1.11,6.89,6.89,0,0,1,9.91-.82,7,7,0,0,1,2.39,4.91,180.25,180.25,0,0,1-1.65,30.07c-.71,4.94-1.52,9.87-2.52,14.77s-2.2,9.73-3.53,14.54-2.91,9.57-4.71,14.24-3.83,9.23-6,13.74a136.55,136.55,0,0,1-7.15,13.14l-1,1.6a11.11,11.11,0,0,1-1.11,1.61,5.3,5.3,0,0,1-3.63,1.73,5,5,0,0,1-5.31-4.86m.6,0a4.41,4.41,0,0,0,1.51,3,4.17,4.17,0,0,0,3.13,1,4,4,0,0,0,2.78-1.57,10,10,0,0,0,.86-1.51l.83-1.64a121.42,121.42,0,0,0,5.47-13.65c1.57-4.64,3-9.37,4.22-14.08s2.51-9.44,3.63-14.2,2.22-9.52,3.22-14.3,2-9.57,2.76-14.39a163.16,163.16,0,0,0,2.73-29,2.27,2.27,0,0,0-2.37-2.22,2.32,2.32,0,0,0-1.65.79,2.18,2.18,0,0,0-.3.42l-.45.79-.89,1.59a143.39,143.39,0,0,0-6.3,13.17,248.66,248.66,0,0,0-9.75,27.76c-1.41,4.7-2.73,9.45-3.9,14.22s-2.29,9.57-3.2,14.42-1.6,9.73-2,14.64a102.58,102.58,0,0,0-.28,14.77" transform="translate(-146.16 -135.63)"/><path d="M689.52,252.5a130.07,130.07,0,0,1-15.16-20.74,216.2,216.2,0,0,1-12.05-22.85,164,164,0,0,1-9-24.38,100.49,100.49,0,0,1-2.67-12.91l-.1-.82,0-.45,0-.64a7.59,7.59,0,0,1,.42-2.58,7.49,7.49,0,0,1,3.22-4,7.64,7.64,0,0,1,5.07-1,7.76,7.76,0,0,1,4.56,2.41,112,112,0,0,1,14.7,21.8,185.75,185.75,0,0,1,10.41,23.79,181.2,181.2,0,0,1,7,24.88,98.26,98.26,0,0,1,1.85,12.74,6.71,6.71,0,0,1-.21,3.21,4.84,4.84,0,0,1-2,2.44,4.76,4.76,0,0,1-5.9-.86m0,0a4.73,4.73,0,0,0,5.87.81,4.55,4.55,0,0,0,2-2.43,6.53,6.53,0,0,0,.12-3.14A89.35,89.35,0,0,0,695,235.16a145.5,145.5,0,0,0-9-23.91,238.66,238.66,0,0,0-12.13-22.38,146,146,0,0,0-14.62-20.3,1.67,1.67,0,0,0-2.1-.34,1.75,1.75,0,0,0-.76.87,1.94,1.94,0,0,0-.12.58v.15l0,.36.08.77a105.36,105.36,0,0,0,1.93,12.36,202.65,202.65,0,0,0,6.79,24.48,166.19,166.19,0,0,0,10,23.55c4,7.53,8.58,14.87,14.43,21.15" transform="translate(-146.16 -135.63)"/><path d="M795.26,426.52a100.74,100.74,0,0,1,12.11,17.72A111.41,111.41,0,0,1,816,464a119.14,119.14,0,0,1,4.87,21.15c.23,1.81.41,3.64.5,5.48,0,.91.09,1.84.1,2.76v2.08a6.47,6.47,0,0,1-.09.95,7,7,0,0,1-4.91,5.6,7.16,7.16,0,0,1-7.3-2,91.67,91.67,0,0,1-12.52-18.18,107.22,107.22,0,0,1-8.23-20.25A80.58,80.58,0,0,1,785.25,440c0-1.83,0-3.66.15-5.48A49,49,0,0,1,786,429a5.45,5.45,0,0,1,4-4.06,5.31,5.31,0,0,1,5.25,1.6m-.45.41a4.4,4.4,0,0,0-4.54-1.13,4.18,4.18,0,0,0-2.81,3.45,49.7,49.7,0,0,0,1,10.39,159.51,159.51,0,0,0,5.7,20.15,204.72,204.72,0,0,0,7.83,19.4,80.77,80.77,0,0,0,10.76,17.62,2.46,2.46,0,0,0,2.46.81,2.57,2.57,0,0,0,1.87-1.94,3.38,3.38,0,0,0,.06-.38l0-.64.05-1.29c0-.86,0-1.73,0-2.59,0-1.73-.11-3.46-.26-5.2a115.88,115.88,0,0,0-3.85-20.7,143.18,143.18,0,0,0-6.89-20.07,62.31,62.31,0,0,0-11.43-17.88" transform="translate(-146.16 -135.63)"/><path d="M824.81,387.42a145.05,145.05,0,0,1,14.34,3.85q7.08,2.21,14,4.9c4.63,1.75,9.22,3.66,13.73,5.72s9,4.29,13.35,6.6a254.15,254.15,0,0,1,25.43,15.58c4.08,2.87,8.07,5.91,11.88,9.2l1.41,1.24.71.63a8,8,0,0,1,.9,1,6.89,6.89,0,0,1,1.3,5.22,7,7,0,0,1-8.23,5.72,179.6,179.6,0,0,1-28.79-8.82c-4.63-1.87-9.22-3.85-13.73-6s-8.91-4.48-13.27-6.93-8.59-5.12-12.69-8-8-5.94-11.89-9.11a137.24,137.24,0,0,1-11-10.09l-1.31-1.33a11.31,11.31,0,0,1-1.3-1.47,5.26,5.26,0,0,1-.8-3.94,5,5,0,0,1,6-4m-.12.59a4.38,4.38,0,0,0-3.26.75,4.2,4.2,0,0,0-1.7,2.8,4,4,0,0,0,.85,3.08,10.59,10.59,0,0,0,1.27,1.19l1.39,1.21a121,121,0,0,0,11.94,8.59c4.12,2.64,8.38,5.1,12.65,7.47s8.56,4.71,12.91,6.94,8.71,4.44,13.11,6.56,8.81,4.22,13.3,6.14a163,163,0,0,0,27.46,9.61,2.26,2.26,0,0,0,2.73-1.77,2.32,2.32,0,0,0-.37-1.79,2.68,2.68,0,0,0-.34-.39l-.65-.63-1.33-1.24c-3.57-3.28-7.36-6.35-11.27-9.28a251.48,251.48,0,0,0-24.6-16.13c-4.23-2.51-8.52-4.93-12.87-7.21s-8.75-4.53-13.23-6.57-9.06-3.89-13.72-5.51A102.14,102.14,0,0,0,824.69,388" transform="translate(-146.16 -135.63)"/><path d="M660.57,345.45a74.32,74.32,0,0,1,21.66-50.78,72.47,72.47,0,0,1,23.53-15.74,73.21,73.21,0,0,1,95.4,40.52A74,74,0,0,1,760,416.14a75.14,75.14,0,0,1-28.7,5.11,71.61,71.61,0,0,1-51.4-23.71,74.93,74.93,0,0,1-19.33-52.09m.6,0a68.91,68.91,0,0,0,5.4,27.22,69.66,69.66,0,0,0,15.64,22.62,71.57,71.57,0,0,0,49.18,19.93,69.35,69.35,0,0,0,28.92-132.78,69.86,69.86,0,0,0-26.66-6A70.4,70.4,0,0,0,667,318.24a69.87,69.87,0,0,0-5.87,27.22" transform="translate(-146.16 -135.63)"/><path d="M806.53,569.24l0,0a5.7,5.7,0,0,0-1.56,1.32c.51-.71,1-1.42,1.44-2.11l0,0a6,6,0,0,1,.12.72" transform="translate(-146.16 -135.63)"/><path d="M715.43,623.59v0h.06l-.06,0" transform="translate(-146.16 -135.63)"/><path d="M811.21,567.46a5.8,5.8,0,0,0-.18-.75c-.11-.3-.24-.59-.37-.87a4.89,4.89,0,0,0-.66-.93,3.59,3.59,0,0,0-1-.83,4.06,4.06,0,0,0-2.58-.41,5.58,5.58,0,0,0-1.69.55l-.23.1-.29.24A91.22,91.22,0,0,1,790.84,574a48.42,48.42,0,0,1-7.2,3.27,47.67,47.67,0,0,1-7.68,1.92c-5.28.88-10.86,1.28-16.48,1.86-4.24.35-12,1.24-15.54,1.85l.13-5.85,1.18-42.6c.45-14.21.78-28.4,1.37-42.58s1.08-28.35,2.25-42.42l.2-2.35-2.22-.59a63.77,63.77,0,0,0-9.37-1.78,52.88,52.88,0,0,0-9.59-.22,40.71,40.71,0,0,0-9.54,1.87,37.28,37.28,0,0,0-8.85,4.09l-1.08.71,0,1.23c-.36,28.51.22,57,1.38,85.44q.3,7.75.7,15.52c-.57-.49-1.15-.94-1.74-1.36a54.88,54.88,0,0,0-11.42-6.1c-2.5-1.24-11.85-1.85-17.44-2.29-5.62-.6-11.2-1-16.47-1.87a49.42,49.42,0,0,1-7.69-1.92,51,51,0,0,1-7.2-3.27,92.3,92.3,0,0,1-13.36-9.44l-.28-.24-.24-.11a5.8,5.8,0,0,0-1.68-.55,4.09,4.09,0,0,0-2.58.43,3.49,3.49,0,0,0-1,.82,4.16,4.16,0,0,0-.65.93,8.41,8.41,0,0,0-.37.87c-.09.27-.12.49-.19.74a14.87,14.87,0,0,0,.05,4.92,46,46,0,0,0,2.16,8.32,87.34,87.34,0,0,0,7,15.19A82.62,82.62,0,0,0,647.17,572a50.66,50.66,0,0,0,13,10.63,66,66,0,0,0,15.36,6.43,82.27,82.27,0,0,0,16.29,2.86,75.82,75.82,0,0,0,15.58-.38l.9-.12c1.51-.24,3-.49,4.48-.82,0,0,0,.1,0,.16q1.15,16.15,2.6,32.29l0,.53.06,0h0c.15.11.61.45.86.61s2.14,1.17,2.78,1.43A35.43,35.43,0,0,0,723,627.1a52.42,52.42,0,0,0,8,1.77,77,77,0,0,0,16.48.51,82.28,82.28,0,0,0,16.3-2.88,65,65,0,0,0,15.35-6.41,50.45,50.45,0,0,0,13-10.65A82.81,82.81,0,0,0,802,595.88a88.09,88.09,0,0,0,7-15.19,47.09,47.09,0,0,0,2.16-8.33,15,15,0,0,0,0-4.9m-70.88,9.61q.1,3.45.22,6.9a53.24,53.24,0,0,0-9.92,5.48,31.57,31.57,0,0,0-8.86,9.66,40.62,40.62,0,0,0-4.38,12c-.42,2-.79,4-1.12,6-.58-8.9-1.06-17.81-1.49-26.72a1.85,1.85,0,0,1,0-.23c.53-.15,1.06-.3,1.58-.47a33.28,33.28,0,0,0,3.88-1.41c.31-.13,1.12-.57,1.93-1h0c.85-.49,1.65-1,1.81-1.1-.14-1.38-.31-2.71-.51-4,0,0,0-.05,0-.08-.39-2.83-.89-5.55-1.48-8.34a40.65,40.65,0,0,0-4.37-12,30.59,30.59,0,0,0-4.14-5.5q-.27-9.21-.49-18.42c-.62-28,.13-83.91.13-83.91a33.09,33.09,0,0,1,6.71-2.76,35.21,35.21,0,0,1,8.39-1.45,49.21,49.21,0,0,1,8.64.39c2.1.28,6.27,1.23,6.27,1.23-1.41,13.46-2.17,26.93-2.77,40.38-.47,14.25-.74,28.5-.7,42.73s.2,28.48.68,42.71m-27.64,12.47c-1.5.28-3,.47-4.55.65a74.52,74.52,0,0,1-16.15-.12c-10.68-1.26-21.22-4.44-30.23-10.11a46.85,46.85,0,0,1-11.89-10.32A78.13,78.13,0,0,1,641,556.45a84,84,0,0,1-6.27-14.62A41.87,41.87,0,0,1,633,534.3c-.1-.86-.1-2.5-.1-2.5l1.48,1.28a93.94,93.94,0,0,0,11.34,8.39,46.3,46.3,0,0,0,16.62,6.35A81,81,0,0,0,670.9,549c2.83.28,5.65.5,8.44.69,5.59.45,11.33.14,16.68,1.48a41.91,41.91,0,0,1,10.07,4.71,44.56,44.56,0,0,1,4.71,3.58c.51.46,1,1,1.46,1.46s1,1.07,1.41,1.64c.27.35.54.72.8,1.08a42.41,42.41,0,0,1,5.26,10.64c1.39,3.79,2.42,7.92,3.69,11.58-.74.37-1.73.87-2.71,1.31l-.78.33a34.36,34.36,0,0,1-3.84,1.24l-1.36.35-1,.22-1,.2m93.73-17.79a42.8,42.8,0,0,1-1.72,7.52,85.84,85.84,0,0,1-6.27,14.62,79.53,79.53,0,0,1-8.94,13.2,47.1,47.1,0,0,1-11.89,10.32c-9,5.66-19.54,8.84-30.21,10.1a74.62,74.62,0,0,1-16.16.13,51.93,51.93,0,0,1-8-1.43,36.68,36.68,0,0,1-3.85-1.23c-.92-.38-1.94-.88-2.78-1.29a.34.34,0,0,0-.12-.06c-.2-.11-.39-.2-.57-.28h0a3.19,3.19,0,0,0,.11-.33c.05-.14.19-.56.22-.62l.27-.86c1-3.18,1.93-6.59,3.1-9.77a42.62,42.62,0,0,1,5.25-10.65,28.35,28.35,0,0,1,8.39-7.75,59.5,59.5,0,0,1,7.47-3.65c.58-.25,1.1-.47,1.52-.63,3.43-1.84,12.33-1.48,17.75-1.91,2.81-.21,5.61-.42,8.46-.7a81.85,81.85,0,0,0,8.6-1.2,54.23,54.23,0,0,0,8.61-2.37,50.21,50.21,0,0,0,8-4A91.24,91.24,0,0,0,805,570.58c.51-.71,1-1.42,1.44-2.11l0,0a6,6,0,0,1,.12.72s0,1.65-.11,2.51" transform="translate(-146.16 -135.63)"/></svg>