<svg id="Calque_1" data-name="Calque 1" xmlns="http://www.w3.org/2000/svg" viewBox="0 0 154.95 126.18"><defs><style>.cls-1{fill:#fff;}</style></defs><path class="cls-1" d="M760.35,389l-74.16-67.07-.07-.05-.17-.12-.15-.09-.17-.08-.17-.06-.18-.05-.18,0h-.36l-.19,0-.16,0-.18.06-.17.08-.16.09-.16.12-.07.05-77,69.64a1.89,1.89,0,0,0,1.27,3.3,1.88,1.88,0,0,0,1.27-.49l29.32-26.52v77.87a1.9,1.9,0,0,0,1.9,1.9h87a1.9,1.9,0,0,0,1.9-1.9V366l28.52,25.79a1.88,1.88,0,0,0,1.27.49,1.89,1.89,0,0,0,1.27-3.3Zm-63.2,54.84H671.27V406.52h25.88Zm28.35,0H700.94V404.62a1.89,1.89,0,0,0-1.89-1.89H669.38a1.89,1.89,0,0,0-1.9,1.89V443.8H642.31V364.39l42.61-38.53,40.58,36.69Z" transform="translate(-606.02 -321.41)"/></svg>