<svg id="Calque_1" data-name="Calque 1" xmlns="http://www.w3.org/2000/svg" viewBox="0 0 144.61 142.45"><defs><style>.cls-1{fill:#fff;}</style></defs><path class="cls-1" d="M754.66,451.66a125.63,125.63,0,0,1-18.35-12.51,156.17,156.17,0,0,0-4.3-31.51c-7.08-30-20.16-48.19-29.89-58.19-17.63-18.12-40.92-27.13-57.36-31.49A154.33,154.33,0,0,0,613,312.78a1.9,1.9,0,0,0-2,1.9c0,.3.22,30.65,14,60.2a1.91,1.91,0,0,0,1.65,1.09l18.75.68L633,386.05a1.89,1.89,0,0,0-.45,2.53,100.53,100.53,0,0,0,12.73,16.18c17.63,18.12,40.92,27.12,57.35,31.49a159.44,159.44,0,0,0,30.44,5.11c7.37,5.91,14.25,10.71,19.85,13.66a2,2,0,0,0,.88.21,1.87,1.87,0,0,0,1.67-1A1.9,1.9,0,0,0,754.66,451.66Zm-51.17-19.1c-15.94-4.24-38.52-13-55.52-30.44A97.05,97.05,0,0,1,636.67,388L652,376.46a1.89,1.89,0,0,0-1.07-3.4L628,372.23c-11-24.11-12.78-48.51-13.08-55.55a159,159,0,0,1,29,5c15.94,4.24,38.51,13,55.51,30.44s25.1,40.28,28.91,56.33A164,164,0,0,1,732.4,436c-17.91-14.79-38-35.44-48.67-51a1.89,1.89,0,0,0-3.12,2.14c10.38,15.15,29.63,35.09,47.28,50A166.11,166.11,0,0,1,703.49,432.56Z" transform="translate(-611.06 -312.78)"/></svg>