<svg id="Calque_1" data-name="Calque 1" xmlns="http://www.w3.org/2000/svg" viewBox="0 0 280.79 110.3"><defs><style>.cls-1{fill:#fad900;}</style></defs><path class="cls-1" d="M782.21,439.15A14.76,14.76,0,0,1,771.78,414L798.71,387a14.75,14.75,0,0,1,20.86,20.87l-26.93,26.93A14.64,14.64,0,0,1,782.21,439.15Zm26.93-49.44a7.74,7.74,0,0,0-5.48,2.27l-26.94,26.94a7.75,7.75,0,0,0,11,11L814.62,403a7.76,7.76,0,0,0-5.48-13.24Z" transform="translate(-543.11 -328.85)"/><path class="cls-1" d="M737.48,408.06a14.76,14.76,0,0,1-13.63-20.4h0l14.57-35.19a14.75,14.75,0,0,1,27.26,11.29L751.11,399a14.8,14.8,0,0,1-13.63,9.11Zm-7.17-17.72a7.75,7.75,0,1,0,14.33,5.93l14.58-35.19a7.75,7.75,0,0,0-14.33-5.93Z" transform="translate(-543.11 -328.85)"/><path class="cls-1" d="M684.25,396.45a14.77,14.77,0,0,1-14.75-14.76V343.6a14.76,14.76,0,0,1,29.51,0v38.09A14.78,14.78,0,0,1,684.25,396.45Zm0-60.6a7.76,7.76,0,0,0-7.75,7.75v38.09a7.76,7.76,0,1,0,15.51,0V343.6A7.77,7.77,0,0,0,684.25,335.85Z" transform="translate(-543.11 -328.85)"/><path class="cls-1" d="M630.64,406.09A14.78,14.78,0,0,1,617,397l-14.58-35.19a14.75,14.75,0,1,1,27.26-11.29l14.58,35.19a14.77,14.77,0,0,1-8,19.27A14.6,14.6,0,0,1,630.64,406.09Zm-14.59-57.7a7.76,7.76,0,0,0-7.15,10.72l14.57,35.19h0a7.75,7.75,0,1,0,14.33-5.93l-14.58-35.19A7.75,7.75,0,0,0,616.05,348.39Z" transform="translate(-543.11 -328.85)"/><path class="cls-1" d="M584.79,435.5a14.69,14.69,0,0,1-10.43-4.31h0l-26.93-26.93a14.75,14.75,0,1,1,20.86-20.87l26.93,26.94a14.74,14.74,0,0,1-10.43,25.17Zm-5.48-9.26a7.75,7.75,0,0,0,11-11l-26.94-26.94a7.75,7.75,0,0,0-13.23,5.49,7.68,7.68,0,0,0,2.27,5.48Z" transform="translate(-543.11 -328.85)"/></svg>