<svg id="Calque_1" data-name="Calque 1" xmlns="http://www.w3.org/2000/svg" viewBox="0 0 219.71 132.13"><defs><style>.cls-1{fill:#fff;}</style></defs><path class="cls-1" d="M603.81,434.74H582.07a8.42,8.42,0,0,1,0-16.84h21.74a8.42,8.42,0,1,1,0,16.84Zm-21.74-12.85a4.43,4.43,0,1,0,0,8.85h21.74a4.43,4.43,0,1,0,0-8.85Z" transform="translate(-573.65 -317.93)"/><path class="cls-1" d="M784.93,437.68H763.19a8.43,8.43,0,0,1,0-16.85h21.74a8.43,8.43,0,0,1,0,16.85Zm-21.74-12.85a4.43,4.43,0,1,0,0,8.85h21.74a4.43,4.43,0,1,0,0-8.85Z" transform="translate(-573.65 -317.93)"/><path class="cls-1" d="M757.68,407.07a8.42,8.42,0,0,1-3.22-16.2l20.09-8.32a8.43,8.43,0,0,1,11,4.55,8.43,8.43,0,0,1-4.56,11l-20.08,8.32A8.42,8.42,0,0,1,757.68,407.07Zm20.09-21.17a4.32,4.32,0,0,0-1.69.34L756,394.56h0a4.42,4.42,0,0,0-2.4,5.78,4.48,4.48,0,0,0,2.4,2.4,4.43,4.43,0,0,0,3.39,0l20.09-8.32a4.44,4.44,0,0,0,2.39-5.79,4.43,4.43,0,0,0-4.09-2.73Zm-22.54,6.81Z" transform="translate(-573.65 -317.93)"/><path class="cls-1" d="M740.89,380.89a8.41,8.41,0,0,1-6-14.37h0l15.38-15.37a8.42,8.42,0,0,1,11.91,11.91l-15.38,15.37A8.4,8.4,0,0,1,740.89,380.89Zm15.37-28.21a4.42,4.42,0,0,0-3.13,1.29l-15.37,15.38h0a4.42,4.42,0,0,0,0,6.26,4.44,4.44,0,0,0,6.26,0l15.37-15.38a4.42,4.42,0,0,0-3.13-7.55Zm-19.92,15.25h0Z" transform="translate(-573.65 -317.93)"/><path class="cls-1" d="M715.34,363.15a8.42,8.42,0,0,1-7.77-11.65h0l8.32-20.09a8.42,8.42,0,0,1,15.56,6.45L723.13,358A8.43,8.43,0,0,1,715.34,363.15ZM711.26,353a4.43,4.43,0,1,0,8.18,3.39l8.32-20.09a4.43,4.43,0,0,0-8.18-3.39Z" transform="translate(-573.65 -317.93)"/><path class="cls-1" d="M685,356.52a8.43,8.43,0,0,1-8.42-8.42V326.35a8.42,8.42,0,1,1,16.84,0V348.1A8.43,8.43,0,0,1,685,356.52Zm0-34.59a4.43,4.43,0,0,0-4.43,4.42V348.1a4.43,4.43,0,0,0,8.85,0V326.35A4.42,4.42,0,0,0,685,321.93Z" transform="translate(-573.65 -317.93)"/><path class="cls-1" d="M654.37,362a8.44,8.44,0,0,1-7.79-5.19l-8.32-20.09a8.42,8.42,0,1,1,15.56-6.45l8.32,20.09a8.42,8.42,0,0,1-4.56,11A8.28,8.28,0,0,1,654.37,362ZM646,329.09a4.54,4.54,0,0,0-1.69.33,4.43,4.43,0,0,0-2.4,5.79l8.32,20.09h0a4.43,4.43,0,0,0,8.18-3.39l-8.32-20.09A4.44,4.44,0,0,0,646,329.09Z" transform="translate(-573.65 -317.93)"/><path class="cls-1" d="M628.19,378.82a8.38,8.38,0,0,1-6-2.46L606.86,361a8.42,8.42,0,1,1,11.91-11.91l15.38,15.37a8.42,8.42,0,0,1-6,14.38Zm-3.13-5.29a4.43,4.43,0,1,0,6.26-6.26L616,351.9a4.42,4.42,0,0,0-6.26,6.25Z" transform="translate(-573.65 -317.93)"/><path class="cls-1" d="M610.43,404.36a8.3,8.3,0,0,1-3.21-.65h0l-20.09-8.32a8.42,8.42,0,0,1,6.45-15.56l20.08,8.32a8.43,8.43,0,0,1-3.23,16.21ZM608.75,400a4.42,4.42,0,0,0,5.78-5.78,4.36,4.36,0,0,0-2.4-2.39l-20.08-8.33a4.43,4.43,0,0,0-3.39,0,4.48,4.48,0,0,0-2.4,2.4,4.43,4.43,0,0,0,2.4,5.78Z" transform="translate(-573.65 -317.93)"/><path class="cls-1" d="M740,450.07H628.43a2,2,0,0,1-1.87-1.29,61,61,0,0,1-3.94-21.7,61.61,61.61,0,1,1,119.28,21.7A2,2,0,0,1,740,450.07Zm-110.21-4H738.63a57.61,57.61,0,1,0-108.81,0Z" transform="translate(-573.65 -317.93)"/></svg>