<svg id="Calque_1" data-name="Calque 1" xmlns="http://www.w3.org/2000/svg" viewBox="0 0 186.6 226.23"><defs><style>.cls-1{fill:#fff;}</style></defs><path class="cls-1" d="M776.28,452.85c0-1.24,0-2.42,0-3.56.06-5.64.1-10.51-2-16.8-4.28-13.06-8-17.86-16.64-26l.39-.06a10.33,10.33,0,0,0,7.81-13.52,54.09,54.09,0,0,0-9.67-17.05,54.35,54.35,0,0,0,17.1-10,10.35,10.35,0,0,0,0-15.62,54,54,0,0,0-16.9-9.92,54.08,54.08,0,0,0,9.81-17.2,10.33,10.33,0,0,0-7.79-13.52,54,54,0,0,0-19.6-.15,54,54,0,0,0-.11-19.8,10.32,10.32,0,0,0-13.51-7.82,53.93,53.93,0,0,0-17,9.68,54.13,54.13,0,0,0-10-17.1,10.32,10.32,0,0,0-15.61,0,53.75,53.75,0,0,0-9.93,16.9,53.92,53.92,0,0,0-17.2-9.82,10.33,10.33,0,0,0-13.52,7.8,54,54,0,0,0-.16,19.6A53.75,53.75,0,0,0,622,309a10.34,10.34,0,0,0-7.81,13.52,54.15,54.15,0,0,0,9.68,17,54,54,0,0,0-17.1,10,10.32,10.32,0,0,0,0,15.61,53.82,53.82,0,0,0,16.89,9.93,53.89,53.89,0,0,0-9.82,17.2,10.35,10.35,0,0,0,3.42,11.53c-10.2,10.24-20.1,26.26-24.63,40.08-2.05,6.28-2,11.16-2,16.79,0,1.14,0,2.32,0,3.57,0,2.43-.11,5-.19,7.43a129,129,0,0,0,.08,15.48c.8,9.12,9.46,9.54,13.15,9.73,2.56.12,5.08.19,7.55.19,18.65,0,34.93-3.55,48.49-10.58,13-6.73,23.32-16.85,29.5-28.5,9.42,12.74,21.69,20.58,38.36,24.55a121.15,121.15,0,0,0,28.12,3.09c2.46,0,5-.06,7.5-.19,3.69-.18,12.35-.6,13.15-9.72a124.94,124.94,0,0,0,.08-15.48C776.38,457.83,776.29,455.29,776.28,452.85ZM657.57,482.33c-14.61,7.56-32.65,10.88-53.62,9.85-6.22-.3-8.32-1.61-8.66-5.4a127.38,127.38,0,0,1-.07-14.89c.09-2.5.18-5.07.19-7.58,0-1.27,0-2.47,0-3.63,0-5.44-.09-9.73,1.72-15.28,4.45-13.56,14.79-30,24.82-39.5a54.31,54.31,0,0,0,19.28.09,53.8,53.8,0,0,0,.11,19.8,10.32,10.32,0,0,0,13.52,7.81,53.72,53.72,0,0,0,17-9.68,53.86,53.86,0,0,0,10,17.1,10.27,10.27,0,0,0,7.58,3.56C685.46,460,673.75,473.94,657.57,482.33Zm32.1-42.49a5.54,5.54,0,0,1-4.2-1.93,48.82,48.82,0,0,1-10.15-18.86l-1.07-3.86L671.38,418a49.2,49.2,0,0,1-18.09,11.13,5.58,5.58,0,0,1-7.3-4.22,49,49,0,0,1,.64-21.41l1-3.87-3.88,1a48.34,48.34,0,0,1-21.21.59,5.58,5.58,0,0,1-4.22-7.31,49,49,0,0,1,11.27-18.22l2.8-2.85-3.86-1.1a49,49,0,0,1-18.67-10.09,5.6,5.6,0,0,1,0-8.44A49.27,49.27,0,0,1,628.72,343l3.86-1.07-2.79-2.87A49,49,0,0,1,618.66,321a5.58,5.58,0,0,1,4.22-7.31,49,49,0,0,1,21.4.65l3.87,1-1-3.88a49,49,0,0,1-.58-21.22A5.58,5.58,0,0,1,653.9,286a49.12,49.12,0,0,1,18.22,11.26l2.86,2.81,1.08-3.86a48.93,48.93,0,0,1,10.11-18.67,5.57,5.57,0,0,1,8.43,0,49,49,0,0,1,10.14,18.87l1.07,3.86,2.87-2.8a49,49,0,0,1,18.09-11.12,5.57,5.57,0,0,1,7.3,4.22,49.06,49.06,0,0,1-.64,21.4l-1,3.88,3.88-1a49,49,0,0,1,21.22-.58,5.57,5.57,0,0,1,4.22,7.3,49.06,49.06,0,0,1-11.27,18.22l-2.8,2.86,3.86,1.09a49.12,49.12,0,0,1,18.67,10.1,5.61,5.61,0,0,1,1.42,6.54,5.48,5.48,0,0,1-1.42,1.9,49.08,49.08,0,0,1-18.86,10.14l-3.86,1.07,2.78,2.87a48.94,48.94,0,0,1,11.13,18.09,5.58,5.58,0,0,1-4.22,7.3,49.06,49.06,0,0,1-21.4-.65l-3.88-1,1,3.88a49.31,49.31,0,0,1,.59,21.22,5.59,5.59,0,0,1-7.32,4.21A48.93,48.93,0,0,1,708,418.2l-2.86-2.8L704,419.25a48.93,48.93,0,0,1-10.1,18.66,5.56,5.56,0,0,1-4.22,1.93Zm82,35.51c-.33,3.79-2.43,5.1-8.65,5.4A122.34,122.34,0,0,1,728.71,478c-16.4-3.91-28.21-11.82-37.13-24.85a54.22,54.22,0,0,0,3-9.8,10.17,10.17,0,0,0,2.86-2.29,54.14,54.14,0,0,0,9.92-16.9,54.11,54.11,0,0,0,17.2,9.82,10.36,10.36,0,0,0,13.53-7.81,54,54,0,0,0,.14-19.6,53.55,53.55,0,0,0,13.26.75c10.34,9.5,13.9,13.3,18.27,26.68,1.82,5.55,1.78,9.84,1.73,15.28,0,1.16,0,2.36,0,3.62,0,2.51.1,5.09.19,7.58A125.4,125.4,0,0,1,771.65,475.35Z" transform="translate(-590.29 -270.88)"/><path class="cls-1" d="M690,310.53a47.21,47.21,0,1,0,47.2,47.21A47.26,47.26,0,0,0,690,310.53Zm0,89.66a42.46,42.46,0,1,1,42.46-42.45A42.49,42.49,0,0,1,690,400.19Z" transform="translate(-590.29 -270.88)"/></svg>