<?xml version="1.0" ?><!DOCTYPE svg  PUBLIC '-//W3C//DTD SVG 1.1//EN'  'http://www.w3.org/Graphics/SVG/1.1/DTD/svg11.dtd'><svg enable-background="new 0 0 128 128" height="128px" version="1.1" viewBox="0 0 128 128" width="128px" xml:space="preserve" xmlns="http://www.w3.org/2000/svg" xmlns:xlink="http://www.w3.org/1999/xlink"><g id="OBJECT"><path d="M107,62H68.829L95.82,35.009c0.781-0.781,0.781-2.047,0-2.828s-2.048-0.781-2.828,0L65.996,59.177V21c0-1.104-0.896-2-2-2   s-2,0.896-2,2v38.167L35.008,32.181c-0.781-0.781-2.048-0.781-2.828,0c-0.781,0.781-0.781,2.047,0,2.828L59.172,62H20.998   c-1.104,0-2,0.896-2,2s0.896,2,2,2h38.174L32.18,92.991c-0.781,0.781-0.781,2.047,0,2.828c0.391,0.391,0.902,0.586,1.414,0.586   s1.024-0.195,1.414-0.586l26.987-26.986V107c0,1.104,0.896,2,2,2s2-0.896,2-2V68.823l26.997,26.996   c0.391,0.391,0.902,0.586,1.414,0.586s1.024-0.195,1.414-0.586c0.781-0.781,0.781-2.047,0-2.828L68.829,66H107c1.104,0,2-0.896,2-2   S108.105,62,107,62z"/></g></svg>