<?xml version="1.0" encoding="utf-8"?>
<!-- Generator: Adobe Illustrator 25.2.2, SVG Export Plug-In . SVG Version: 6.00 Build 0)  -->
<svg version="1.1" id="Calque_1" xmlns="http://www.w3.org/2000/svg" xmlns:xlink="http://www.w3.org/1999/xlink" x="0px" y="0px"
	 viewBox="0 0 545 199.95" style="enable-background:new 0 0 545 199.95;" xml:space="preserve">
<g>
	<path d="M9.86,108.09c2.64-7.34,7.11-19.49,28.32-30.84c-2.98-0.57-3.78-0.8-7.22-1.72c4.13-3.78,5.16-4.7,7.68-7.34
		c8.02,2.18,16.28,4.47,32.56,4.47c6.19,0,8.71-0.46,11.92-1.15l0.34,0.8c-5.73,3.44-12.38,6.42-27.74,6.42
		c-2.64,0-5.27-0.11-7.45-0.23c-2.75-0.23-4.93-0.57-7.22-0.8c-2.52,1.38-5.04,2.75-7.57,4.7C28.09,86.42,21.44,93.07,18.8,109
		c18.23,1.49,29.69,2.41,39.78,2.41c5.16,0,9.29-0.23,15.02-0.57c-3.67,6.76-4.93,8.48-11.69,15.59l-0.8-0.8
		c2.52-3.9,3.09-5.16,5.16-9.52c-5.39,0.34-8.83,0.57-16.17,0.57c-9.86,0-23.27-0.46-31.87-0.69c0,13.19,6.08,19.95,8.83,23.05
		c4.36,4.7,12.04,10.66,23.16,10.66c8.94,0,21.55-3.44,26.83-15.13h6.19c-2.29,3.21-3.67,5.16-7.45,8.14
		c-8.49,6.88-19.15,10.09-30.04,10.09c-13.76,0-22.47-6.19-25.91-9.4C8.83,132.85,8.71,121.38,8.71,115.88L0,115.77
		c2.75-3.55,3.44-4.47,5.5-7.91L9.86,108.09z"/>
	<path d="M121.61,110.09c-6.73,9.82-8.44,12.07-15.8,20.71c2.24,3.84,5.66,9.72,6.94,11.64c1.6,2.35,1.82,2.56,2.67,2.56
		c1.28,0,2.99-1.17,4.16-2.03l0.64,1.07c-2.35,1.81-6.3,4.91-8.86,4.91c-2.56,0-3.95-1.92-4.8-2.99c-1.82-2.56-4.27-6.94-5.98-9.61
		c-5.02,5.45-11.64,12.39-17.62,12.39c-1.71,0-3.2-0.53-5.12-1.28c2.46-2.14,2.99-2.56,5.34-5.02c1.5,0.96,2.99,1.92,4.91,1.92
		c2.35,0,4.16-1.6,6.83-4.48c0.85-1.07,1.92-2.14,4.59-5.34c-2.24-3.52-4.38-6.94-6.62-10.89c-3.63-6.41-4.8-8.43-5.87-8.43
		c-1.07,0-2.56,1.07-3.52,1.71l-0.75-1.07c2.56-1.81,8.43-5.98,10.25-5.98c0.85,0,1.28,0.53,2.03,1.6l9.29,16.76
		c2.35-2.99,6.94-9.18,10.68-16.98L121.61,110.09z"/>
	<path d="M127.27,115.96c3.52-3.1,7.79-6.73,11.74-6.73c2.56,0,5.02,1.5,5.02,4.59c0,2.03-0.96,5.44-1.39,6.94
		c-1.17,4.06-2.46,8.22-3.74,12.28c1.28-2.56,2.67-5.12,4.16-7.58c1.81-2.99,3.74-5.98,6.3-8.65c5.66-5.87,11.1-7.05,11.53-7.05
		c1.92,0,6.51,3.63,6.51,12.28c0,17.19-16.98,27.44-26.91,27.44c-2.24,0-4.16-0.43-6.41-0.85l-4.8,13.56
		c-2.35,0.75-2.99,1.07-5.55,2.14c2.46-8.01,3.2-10.68,5.23-17.51c-3.1-1.71-3.84-2.24-6.62-4.8l5.02-4.27
		c1.17,1.71,1.49,2.14,3.1,3.52c0.75-2.88,4.59-17.4,5.34-20.61c0.11-0.64,0.53-2.56,0.53-3.63c0-1.6-1.07-3.1-2.88-3.1
		c-1.92,0-3.63,1.5-5.34,2.99L127.27,115.96z M135.6,144.25c1.28,0.53,5.34,2.24,10.89,2.24c2.03,0,2.88-0.11,5.23-2.03
		c6.83-5.23,9.08-13.77,9.08-19c0-4.16-1.6-10.25-7.37-10.78c-2.78,2.88-4.38,4.91-7.37,9.93c-0.96,1.71-7.69,13.13-9.08,15.8
		L135.6,144.25z"/>
	<path d="M202.87,141.37c-4.38,4.16-9.18,8.01-15.69,8.01c-7.05,0-12.71-4.38-12.71-13.24c0-14.09,13.13-28.19,25.84-28.19
		c4.49,0,5.55,1.5,5.55,3.42c0,2.14-1.82,5.13-2.99,6.51c-4.27,5.34-14.52,9.18-19.43,11c-0.53,2.03-1.07,3.84-1.07,6.51
		c0,9.5,5.55,11.1,8.11,11.1c0.96,0,5.23,0,11.42-6.19L202.87,141.37z M183.98,126.96c13.67-5.34,15.59-12.6,15.69-17.83
		C191.34,111.69,188.03,117.13,183.98,126.96z M194.87,102.29c2.88-2.03,5.87-4.27,10.25-13.67c2.88,2.67,3.74,3.2,7.26,5.23
		c-6.41,5.34-10.04,6.83-17.08,9.29L194.87,102.29z"/>
	<path d="M209.82,114.25c2.45-0.96,11.1-4.48,13.35-4.48c0.85,0,1.39,0.21,1.39,1.17c0,0.85-2.24,8.97-7.05,21.25
		c3.95-7.58,7.79-13.67,9.82-16.12c2.99-3.84,4.48-4.48,12.81-6.51c-1.82,2.35-4.06,5.23-4.06,10.57c0,4.8,1.71,8.43,2.78,10.78
		c-6.94-3.95-7.9-9.08-8.33-14.95c-7.05,7.79-10.57,13.45-18.79,32.03c-1.17,0.11-2.88,0.32-6.19,0.96
		c7.47-21.35,8.44-26.16,9.72-34.91c-2.35,0.53-2.67,0.64-5.23,1.28L209.82,114.25z"/>
	<path d="M254.88,143.29c-5.55,3.2-10.78,6.19-13.99,6.19c-0.11,0-2.35,0-2.35-2.03c0-0.75,0.11-1.28,1.17-5.55
		c2.14-8.22,6.19-21.35,8.43-29.68c3.1-0.64,4.06-0.86,7.15-1.82c-2.56,8.86-4.38,15.91-8.01,34.7c3.2-1.28,3.84-1.6,6.94-2.99
		L254.88,143.29z M250.29,106.46c1.17-2.78,1.6-3.95,1.6-7.05c0-2.35-0.21-4.16-0.53-6.09c3.2-0.85,4.06-1.17,7.37-2.46
		c0.21,6.83-2.88,11-8.01,15.8L250.29,106.46z"/>
	<path d="M289.69,141.37c-4.38,4.16-9.18,8.01-15.69,8.01c-7.05,0-12.71-4.38-12.71-13.24c0-14.09,13.13-28.19,25.84-28.19
		c4.49,0,5.55,1.5,5.55,3.42c0,2.14-1.82,5.13-2.99,6.51c-4.27,5.34-14.52,9.18-19.43,11c-0.53,2.03-1.07,3.84-1.07,6.51
		c0,9.5,5.55,11.1,8.11,11.1c0.96,0,5.23,0,11.42-6.19L289.69,141.37z M270.79,126.96c13.67-5.34,15.59-12.6,15.69-17.83
		C278.16,111.69,274.85,117.13,270.79,126.96z"/>
	<path d="M297.49,113.08c7.69-3.2,12.06-4.06,12.71-4.06c0.85,0,1.28,0.43,1.28,1.17c0,3.84-4.59,16.44-6.51,21.57
		c-0.85,2.35-1.71,4.59-2.56,6.83c2.46-4.48,4.91-8.97,8.11-13.56c5.23-7.47,8.01-9.18,12.71-12.39c2.67-1.81,3.84-2.56,11.1-3.42
		c-5.66,12.6-10.57,31.71-10.57,35.88c0,0.43,0,1.17,1.28,1.17c1.17,0,3.63-1.28,5.12-2.14l0.75,1.39
		c-3.52,1.82-7.69,3.95-10.89,3.95c-2.56,0-3.95-1.6-3.95-3.74c0-3.2,4.91-18.9,10.25-33.52c-9.18,5.66-21.99,23.28-27.12,35.66
		l-6.19,1.07c4.8-13.35,8.33-27.12,9.93-35.98c-2.03,0.53-2.67,0.75-5.13,1.5L297.49,113.08z"/>
	<path d="M369.67,141.16c-5.02,4.48-9.5,8.44-17.08,8.44c-8.33,0-14.09-5.45-14.09-14.52c0-11.21,11.32-25.84,25.84-25.84
		c2.46,0,4.7,0.53,7.37,1.17l-3.2,5.87c-2.24-1.28-6.73-3.74-10.57-3.74c-6.51,0-11.64,13.03-11.64,20.29
		c0,9.82,6.19,13.03,11.1,13.03c5.02,0,7.79-2.46,11.32-5.66L369.67,141.16z"/>
	<path d="M403.2,141.37c-4.38,4.16-9.18,8.01-15.69,8.01c-7.05,0-12.71-4.38-12.71-13.24c0-14.09,13.13-28.19,25.84-28.19
		c4.48,0,5.55,1.5,5.55,3.42c0,2.14-1.81,5.13-2.99,6.51c-4.27,5.34-14.52,9.18-19.43,11c-0.53,2.03-1.07,3.84-1.07,6.51
		c0,9.5,5.55,11.1,8.11,11.1c0.96,0,5.23,0,11.42-6.19L403.2,141.37z M384.3,126.96c13.67-5.34,15.59-12.6,15.69-17.83
		C391.67,111.69,388.36,117.13,384.3,126.96z"/>
	<path d="M475.54,92.56c-0.06,0.4-0.11,0.8-0.17,1.2c-0.06,0.4-0.14,0.83-0.26,1.28c-0.46,2.05-0.95,4.44-1.5,7.18
		c-0.54,2.73-1.08,5.71-1.62,8.93c-0.54,3.22-1.06,6.58-1.54,10.08c-0.48,3.5-0.9,7.05-1.24,10.64c1.02-0.11,2.08-0.23,3.16-0.34
		c1.08-0.11,2.16-0.23,3.25,0.39h1.11c0.34-0.73,0.63-0.75,0.86-0.81c-0.4-3.59-0.78-7.95-1.15-13.07
		c-0.37-5.13-0.55-10.73-0.55-16.83c0-2.33,0.03-4.74,0.08-7.22c0.06-2.48,0.23-4.94,0.51-7.39c0.4-4.04,1.01-8.09,1.84-12.13
		c0.83-4.04,1.91-7.9,3.25-11.58c1.34-3.67,2.96-7.09,4.87-10.25c1.91-3.16,4.16-5.91,6.75-8.24c2.59-2.33,5.57-4.16,8.93-5.47
		c3.36-1.31,7.18-1.96,11.45-1.96c5.52,0,10.26,1.17,14.22,3.5c3.96,2.34,7.22,5.55,9.78,9.65c2.56,4.1,4.44,8.93,5.64,14.48
		c1.19,5.55,1.79,11.52,1.79,17.9c0,1.48-0.04,3.08-0.13,4.78c-0.09,1.71-0.19,3.36-0.3,4.95c-0.74,7.23-2.09,14.65-4.06,22.25
		c-1.96,7.6-4.48,14.99-7.56,22.17c-3.08,7.18-6.65,13.95-10.72,20.33c-4.07,6.38-8.54,11.96-13.41,16.74
		c-4.87,4.78-10.12,8.57-15.76,11.36c-5.64,2.79-11.56,4.19-17.77,4.19c-4.9,0-9.26-0.94-13.07-2.82c-3.82-1.88-7.11-4.44-9.87-7.69
		c-2.76-3.25-5.01-7.05-6.75-11.4c-1.74-4.36-2.98-9.01-3.72-13.97c-1.99,1.48-3.7,3.05-5.13,4.7c-1.43,1.65-2.22,3.22-2.39,4.7
		c-0.06,0.11-0.06,0.35,0,0.73c0.06,0.37,0.14,0.7,0.26,0.98c0.05,0.23,0.08,0.48,0.94,0.77v0.6c-0.86,0.28-0.98,0.56-1.2,0.81
		c-0.23,0.26-0.54,0.38-0.94,0.38c-0.34,0-0.7-0.14-1.07-0.43c-0.37-0.29-0.74-0.61-1.11-0.98c-0.37-0.37-0.7-0.74-0.98-1.11
		c-0.28-0.37-0.45-0.64-0.51-0.81c-0.11-0.68-0.23-1.48-0.34-2.39c-0.11-0.91-0.17-1.68-0.17-2.31c0.34-2.68,1.55-5.37,3.63-8.07
		c2.08-2.7,4.74-5.22,7.99-7.56c-0.11-1.14-0.19-2.26-0.21-3.37c-0.03-1.11-0.04-2.29-0.04-3.55c0-2.45,0.06-4.83,0.17-7.13
		c0.11-2.31,0.28-4.57,0.51-6.79c0.46-5.52,1.13-10.69,2.01-15.51c0.88-4.81,1.89-8.96,2.95-12.43v0.08
		c2.02-2.51,4.41-4.36,7.26-5.55c2.85-1.2,5.75-1.79,8.72-1.79c2.45,0,4.83,0.43,7.13,1.28c2.3,0.86,4.34,2.02,6.11,3.5
		L475.54,92.56z M489.89,138.7c-1.82-0.45-3.49-0.75-5-0.9c-1.51-0.14-2.86-0.21-4.06-0.21c-2.11,0-4.05,0.2-5.81,0.6
		c-1.77,0.4-3.5,0.85-5.21,1.37c-0.06,4.39,0.21,8.59,0.81,12.6c0.6,4.01,1.64,7.55,3.12,10.59c1.48,3.05,3.51,5.48,6.11,7.31
		c2.59,1.82,5.88,2.73,9.87,2.73c4.33,0,8.5-1.14,12.52-3.42c4.01-2.28,7.8-5.37,11.36-9.27c3.56-3.9,6.84-8.49,9.82-13.75
		c2.99-5.27,5.61-10.88,7.86-16.83c2.25-5.95,4.11-12.1,5.59-18.45c1.48-6.35,2.51-12.6,3.08-18.75c0.11-1.54,0.2-3.09,0.26-4.66
		c0.06-1.57,0.09-3.09,0.09-4.57c0-5.64-0.5-10.92-1.49-15.85c-1-4.92-2.55-9.23-4.66-12.9c-2.11-3.67-4.8-6.58-8.07-8.71
		c-3.27-2.14-7.19-3.2-11.75-3.2c-3.19,0-5.97,1.11-8.33,3.33c-2.36,2.22-4.37,5.16-6.02,8.8c-1.65,3.65-2.98,7.85-3.97,12.6
		c-1,4.76-1.75,9.64-2.26,14.65c-0.29,2.73-0.48,5.52-0.6,8.37c-0.11,2.85-0.17,5.61-0.17,8.29c0,2.79,0.07,5.67,0.21,8.63
		c0.14,2.96,0.33,5.85,0.56,8.67c0.23,2.82,0.48,5.51,0.77,8.07c0.29,2.56,0.57,4.84,0.86,6.83l0.94,5.21
		c0.17,0.63,0.31,1.18,0.42,1.67c0.11,0.48,0.14,0.9,0.09,1.24c-0.11,0.68-0.51,1.02-1.2,1.02c-0.74,0-1.93-0.23-3.59-0.68
		c-0.28,0-0.65-0.06-1.11-0.17L489.89,138.7z"/>
</g>
</svg>
