<?xml version="1.0" encoding="utf-8"?>
<!-- Generator: Adobe Illustrator 22.1.0, SVG Export Plug-In . SVG Version: 6.00 Build 0)  -->
<svg version="1.1" id="Calque_1" xmlns="http://www.w3.org/2000/svg" xmlns:xlink="http://www.w3.org/1999/xlink" x="0px" y="0px"
	 viewBox="0 0 85 130.3" style="enable-background:new 0 0 85 130.3;" xml:space="preserve">
<style type="text/css">
	.st0{fill:none;stroke:#000000;stroke-width:0.5;stroke-miterlimit:10;}
</style>
<g>
	<polyline class="st0" points="0.2,130 0.2,52.5 42.5,0.4 84.8,52.5 84.8,130 19.8,130 	"/>
	<path d="M38.8,81.6c-1.7,0-3.1,0.3-4.4,0.8c-1.3,0.5-2.4,1.2-3.2,2s-1.5,1.8-2,3s-0.7,2.3-0.7,3.5c0,1.6,0.3,2.9,0.9,3.9
		s1.4,1.9,2.4,2.6c1,0.7,2.1,1.3,3.4,1.8c1.3,0.5,2.6,0.9,3.9,1.4c1.3,0.4,2.6,0.9,3.9,1.4s2.4,1.1,3.4,1.8c1,0.7,1.8,1.7,2.4,2.8
		c0.6,1.1,0.9,2.5,0.9,4.1c0,1.7-0.3,3.2-0.8,4.7s-1.4,2.7-2.4,3.8c-1.1,1.1-2.4,1.9-3.9,2.5s-3.3,0.9-5.3,0.9
		c-1.4,0-2.6-0.1-3.7-0.4c-1.1-0.2-2.1-0.6-3-1c-0.9-0.5-1.7-1-2.5-1.7c-0.8-0.6-1.5-1.4-2.2-2.2l0.1-0.1c0.1-0.1,0.1-0.1,0.1-0.1
		s0.1,0,0.2,0c0.1,0,0.3,0.1,0.5,0.4c0.2,0.2,0.5,0.6,0.9,0.9s0.9,0.8,1.4,1.2c0.5,0.4,1.2,0.8,2,1.2s1.7,0.7,2.7,0.9
		c1,0.2,2.1,0.4,3.4,0.4c1.9,0,3.5-0.3,5-0.9c1.5-0.6,2.7-1.4,3.7-2.4s1.8-2.2,2.3-3.6c0.5-1.4,0.8-2.8,0.8-4.3
		c0-1.3-0.2-2.4-0.6-3.3c-0.4-0.9-0.9-1.7-1.6-2.4s-1.5-1.2-2.4-1.7c-0.9-0.5-1.9-0.9-2.9-1.3c-1-0.4-2.1-0.7-3.1-1
		c-1.1-0.3-2.1-0.7-3.1-1.1s-2-0.8-2.9-1.3c-0.9-0.5-1.7-1.1-2.4-1.8c-0.7-0.7-1.2-1.5-1.6-2.5s-0.6-2.1-0.6-3.5
		c0-1.3,0.2-2.5,0.7-3.7c0.5-1.2,1.2-2.2,2.1-3.1c0.9-0.9,2.1-1.6,3.4-2.2c1.4-0.5,2.9-0.8,4.7-0.8V81.6z"/>
	<path d="M52.6,102.5v19.6h-0.7V81.5h9.4c4.2,0,7.5,0.8,9.8,2.5s3.4,4.2,3.4,7.7c0,1.6-0.3,3.1-1,4.5c-0.6,1.3-1.5,2.5-2.7,3.4
		s-2.5,1.7-4.2,2.2c-1.6,0.5-3.4,0.8-5.4,0.8c0.2,0.1,0.4,0.2,0.5,0.3c0.2,0.1,0.3,0.3,0.5,0.5l15.8,18.8h-0.5c-0.2,0-0.3,0-0.4,0
		c-0.1,0-0.2-0.1-0.4-0.3l-15.2-18.2c-0.2-0.2-0.3-0.4-0.5-0.5c-0.2-0.1-0.3-0.2-0.6-0.3c-0.2-0.1-0.4-0.1-0.7-0.2c-0.3,0-0.6,0-1,0
		H52.6z M52.6,101.9h8.2c2,0,3.8-0.2,5.4-0.7c1.6-0.5,3-1.2,4.1-2c1.1-0.9,2-2,2.6-3.2c0.6-1.3,0.9-2.7,0.9-4.3
		c0-3.3-1.1-5.7-3.2-7.3c-2.1-1.5-5.2-2.3-9.3-2.3h-8.7V101.9z"/>
</g>
</svg>
