<?xml version="1.0" encoding="utf-8"?>
<!-- Generator: Adobe Illustrator 22.1.0, SVG Export Plug-In . SVG Version: 6.00 Build 0)  -->
<svg version="1.1" id="Calque_1" xmlns="http://www.w3.org/2000/svg" xmlns:xlink="http://www.w3.org/1999/xlink" x="0px" y="0px"
	 viewBox="0 0 48 48" style="enable-background:new 0 0 48 48;" xml:space="preserve">
<style type="text/css">
	.st0{fill:#CCCCCC;}
</style>
<g>
	<polygon class="st0" points="13.8,26 15.6,26 15.6,34.7 17.3,34.7 17.3,26 19,26 19,24.6 13.8,24.6 	"/>
	<path class="st0" d="M24.2,18.8c0.2,0,0.4-0.1,0.5-0.2c0.1-0.1,0.2-0.3,0.2-0.5v-4.5c0-0.2-0.1-0.3-0.2-0.4
		c-0.1-0.1-0.3-0.2-0.5-0.2c-0.2,0-0.4,0.1-0.5,0.2c-0.1,0.1-0.2,0.3-0.2,0.4v4.5c0,0.2,0.1,0.4,0.2,0.5
		C23.8,18.8,23.9,18.8,24.2,18.8z"/>
	<path class="st0" d="M27.9,27.1c-0.2,0-0.5,0.1-0.7,0.2c-0.2,0.1-0.4,0.3-0.6,0.5v-3.3H25v10.1h1.5v-0.6c0.2,0.2,0.4,0.4,0.6,0.5
		c0.2,0.1,0.5,0.2,0.8,0.2c0.4,0,0.8-0.1,1-0.4c0.2-0.3,0.4-0.7,0.4-1.2V29c0-0.6-0.1-1.1-0.4-1.4C28.7,27.3,28.3,27.1,27.9,27.1z
		 M27.8,32.9c0,0.2,0,0.4-0.1,0.5c-0.1,0.1-0.2,0.2-0.4,0.2c-0.1,0-0.2,0-0.4-0.1c-0.1-0.1-0.2-0.1-0.4-0.3v-4.6
		c0.1-0.1,0.2-0.2,0.3-0.2c0.1-0.1,0.2-0.1,0.3-0.1c0.2,0,0.4,0.1,0.5,0.2c0.1,0.1,0.2,0.3,0.2,0.6V32.9z"/>
	<path class="st0" d="M22.4,32.9c-0.1,0.2-0.3,0.3-0.5,0.4c-0.2,0.1-0.3,0.2-0.4,0.2c-0.1,0-0.2,0-0.3-0.1c-0.1-0.1-0.1-0.2-0.1-0.4
		v-5.7h-1.5v6.2c0,0.4,0.1,0.8,0.3,1c0.2,0.2,0.4,0.3,0.8,0.3c0.3,0,0.6-0.1,0.9-0.2c0.3-0.2,0.6-0.4,0.9-0.7v0.8h1.5v-7.5h-1.5
		V32.9z"/>
	<path class="st0" d="M24.1,0c-13.3,0-24,10.7-24,24c0,13.3,10.7,24,24,24s24-10.7,24-24C48.1,10.7,37.3,0,24.1,0z M28,11.9h1.7v6.3
		c0,0.2,0,0.3,0.1,0.4c0.1,0.1,0.2,0.1,0.3,0.1c0.1,0,0.3-0.1,0.5-0.2c0.2-0.1,0.4-0.3,0.5-0.4v-6.2h1.7v8.2h-1.7v-0.9
		c-0.3,0.3-0.6,0.6-1,0.8c-0.3,0.2-0.7,0.3-1,0.3c-0.4,0-0.7-0.1-0.9-0.4c-0.2-0.2-0.3-0.6-0.3-1.1V11.9z M21.7,13.7
		c0-0.6,0.2-1.1,0.7-1.5c0.5-0.4,1.1-0.6,1.8-0.6c0.7,0,1.3,0.2,1.7,0.6c0.4,0.4,0.7,0.9,0.7,1.5V18c0,0.7-0.2,1.3-0.7,1.7
		c-0.4,0.4-1,0.6-1.8,0.6c-0.7,0-1.3-0.2-1.8-0.6c-0.4-0.4-0.7-1-0.7-1.7V13.7z M17.2,8.9l1.2,4.4h0.1l1.2-4.4h1.9l-2.2,6.5v4.6
		h-1.9v-4.4l-2.2-6.7H17.2z M39.1,32.4c0,3-2.4,5.4-5.4,5.4H15.1c-3,0-5.4-2.4-5.4-5.4V28c0-3,2.4-5.4,5.4-5.4h18.7
		c3,0,5.4,2.4,5.4,5.4V32.4z"/>
	<path class="st0" d="M32.4,27c-0.7,0-1.2,0.2-1.6,0.6c-0.4,0.4-0.6,0.9-0.6,1.6v3.4c0,0.7,0.2,1.3,0.6,1.7c0.4,0.4,0.9,0.6,1.6,0.6
		c0.7,0,1.3-0.2,1.7-0.6c0.4-0.4,0.6-1,0.6-1.7v-0.4h-1.5v0.3c0,0.4-0.1,0.7-0.1,0.9c-0.1,0.1-0.3,0.2-0.5,0.2
		c-0.2,0-0.4-0.1-0.5-0.2c-0.1-0.2-0.1-0.4-0.1-0.8v-1.4h2.8v-1.9c0-0.7-0.2-1.2-0.5-1.6C33.6,27.2,33,27,32.4,27z M32.9,29.9h-1.3
		v-0.8c0-0.3,0-0.5,0.2-0.7c0.1-0.1,0.3-0.2,0.5-0.2c0.2,0,0.4,0.1,0.5,0.2c0.1,0.1,0.2,0.4,0.2,0.7V29.9z"/>
</g>
</svg>
