<svg xmlns="http://www.w3.org/2000/svg" xmlns:xlink="http://www.w3.org/1999/xlink" viewBox="0 0 303.32 326.41"><defs><style>.cls-1,.cls-10,.cls-11,.cls-2,.cls-3,.cls-4,.cls-5,.cls-7,.cls-8{stroke:#231f20;stroke-miterlimit:10;}.cls-1{stroke-width:3px;fill:url(#Dégradé_sans_nom_51);}.cls-2,.cls-3,.cls-4,.cls-5,.cls-8{stroke-width:4px;}.cls-2{fill:url(#Dégradé_sans_nom_49);}.cls-3{fill:url(#Dégradé_sans_nom_7);}.cls-4{fill:url(#Dégradé_sans_nom_49-2);}.cls-5{fill:url(#Dégradé_sans_nom_49-3);}.cls-11,.cls-6{fill:#231f20;}.cls-10,.cls-7{fill:none;}.cls-7{stroke-width:2px;}.cls-8{fill:url(#Dégradé_sans_nom_7-2);}.cls-9{fill:url(#Dégradé_sans_nom_39);}.cls-12{fill:#fff;}</style><linearGradient id="Dégradé_sans_nom_51" x1="157.7" y1="300.24" x2="157.76" y2="69.51" gradientUnits="userSpaceOnUse"><stop offset="0" stop-color="#482a00"/><stop offset="1" stop-color="#a37c13" stop-opacity="0.97"/></linearGradient><linearGradient id="Dégradé_sans_nom_49" x1="64.76" y1="127.65" x2="63.18" y2="42.26" gradientUnits="userSpaceOnUse"><stop offset="0" stop-color="#006838"/><stop offset="0" stop-color="#016938"/><stop offset="0.15" stop-color="#15853f"/><stop offset="0.31" stop-color="#259a44"/><stop offset="0.49" stop-color="#30a947"/><stop offset="0.69" stop-color="#37b249"/><stop offset="0.99" stop-color="#39b54a"/></linearGradient><linearGradient id="Dégradé_sans_nom_7" x1="143.84" y1="112.26" x2="143.5" y2="93.75" gradientUnits="userSpaceOnUse"><stop offset="0" stop-color="#39b54a"/><stop offset="1" stop-color="#006838"/></linearGradient><linearGradient id="Dégradé_sans_nom_49-2" x1="177.08" y1="80.27" x2="175.8" y2="11.34" xlink:href="#Dégradé_sans_nom_49"/><linearGradient id="Dégradé_sans_nom_49-3" x1="275.46" y1="104.83" x2="274.14" y2="33.43" xlink:href="#Dégradé_sans_nom_49"/><linearGradient id="Dégradé_sans_nom_7-2" x1="55.43" y1="170.5" x2="55.43" y2="170.5" xlink:href="#Dégradé_sans_nom_7"/><linearGradient id="Dégradé_sans_nom_39" x1="154.09" y1="202.44" x2="151.06" y2="135.29" gradientUnits="userSpaceOnUse"><stop offset="0" stop-color="#cccfe8"/><stop offset="0.04" stop-color="#d3bddc"/><stop offset="0.06" stop-color="#d8c4e0"/><stop offset="0.14" stop-color="#e6daeb"/><stop offset="0.24" stop-color="#f1ebf4"/><stop offset="0.36" stop-color="#f9f6fa"/><stop offset="0.53" stop-color="#fefdfe"/><stop offset="1" stop-color="#fff"/></linearGradient></defs><title>logo2</title><g id="trace"><path class="cls-1" d="M268.43,182.84c14,19-8,66-8,66,0,56.57-53,59-53,59l-23,9-26,7s-2,9-19,8-21-11-21-11l-19-1c-14-5-21.55-33.5-21.55-33.5s-9-17.43-18.32-47.43l.25.31L50.25,221.4l-7-25c-5-9,13-27,13-27l-4.48-38.56,22.33.33,2,15.33s42-16.67,50-34.33,11.67-26.67,35.67-13.33L166.1,80.5l16.67,3.33,5.48,20.56c4-3,10,5,10,5,9-3,16,5,16,5s18.85,15.1,27.85,15.1l7.33-24.33,15.33,3.33-5.52,36.9c-4,3,7,11,7,11l2.44,27.19" transform="translate(-14 -7)"/><path class="cls-2" d="M93.25,124.4c21.52-10.9,12-22,12-22s13-9,2-23c0,0,13-16-5-24s-25-23-61-12c-11.52,3.52-37,49-19,69,0,0,1.19,16.1,16.19,18.1C38.43,130.5,71.72,135.29,93.25,124.4Z" transform="translate(-14 -7)"/><path class="cls-3" d="M161.25,100.4s-28-23-35,13" transform="translate(-14 -7)"/><path class="cls-4" d="M203.58,64.4s14-2,8-20c7.09-14.34,4.07-41.91-44.67-34-27.3,4.43-41.67,36-13.67,50,0,0-16.15,11.44,3.52,17.77s40,4.67,40,4.67S214.39,77.63,203.58,64.4Z" transform="translate(-14 -7)"/><path class="cls-5" d="M289.25,100.4s18-1,18-13c0,0,9-7,8-25-1.22-21.92-17-44-63-23,0,0-23,13-9,32,0,0-15-5-6,20,0,0,6.85,13.1,17.19,14.77S282.72,111.29,289.25,100.4Z" transform="translate(-14 -7)"/><path class="cls-6" d="M270.43,206.84a92.47,92.47,0,0,1-1.81,18.09c-.55,3-1.29,5.95-2.12,8.88s-1.86,5.82-3,8.67a79.3,79.3,0,0,1-4,8.29,51.06,51.06,0,0,1-5.23,7.61,31.33,31.33,0,0,1-14.88,10.45,38.82,38.82,0,0,0,13-11.88,61.23,61.23,0,0,0,4.59-7.54,85.64,85.64,0,0,0,3.7-8.06,148.72,148.72,0,0,0,5.59-17C267.9,218.62,269.25,212.77,270.43,206.84Z" transform="translate(-14 -7)"/><path class="cls-6" d="M58.93,236.09c1.86,1.44,3.46,3.06,5.14,4.58l4.9,4.67c3.24,3.1,6.45,6.17,9.74,9.1A101.42,101.42,0,0,0,89,262.58a36.24,36.24,0,0,0,12,5.51,17.29,17.29,0,0,1-7.05.09A29.11,29.11,0,0,1,87.07,266a48.19,48.19,0,0,1-11.67-7.85A69.7,69.7,0,0,1,66,247.93,66,66,0,0,1,58.93,236.09Z" transform="translate(-14 -7)"/><path class="cls-6" d="M73.43,226.84a41.79,41.79,0,0,0,9,8.24A63,63,0,0,0,93.08,241a87.77,87.77,0,0,0,23.41,6.25,119.84,119.84,0,0,0,12.16,1c2,.13,4.08.06,6.12.1l6.13-.14c8.18-.36,16.35-1.25,24.54-2.31a136.59,136.59,0,0,1-24.38,4.64c-2.07.17-4.14.35-6.22.44s-4.16.18-6.25.11l-3.13-.06-3.12-.19c-2.09-.09-4.16-.38-6.24-.58a95.65,95.65,0,0,1-12.29-2.56,67.67,67.67,0,0,1-11.72-4.55,55.13,55.13,0,0,1-10.52-6.84A35.33,35.33,0,0,1,73.43,226.84Z" transform="translate(-14 -7)"/><path class="cls-6" d="M201.43,232.84c2.37-1.12,4.73-2.24,7.06-3.42s4.68-2.33,7-3.54c4.63-2.42,9.23-4.9,13.69-7.6a139.29,139.29,0,0,0,13-8.62,71.9,71.9,0,0,0,6-5,37.55,37.55,0,0,0,5.22-5.82c-2.72,4.51-6.69,8.12-10.74,11.43a123.24,123.24,0,0,1-13,8.87c-4.53,2.64-9.14,5.15-13.86,7.43S206.33,231,201.43,232.84Z" transform="translate(-14 -7)"/><path class="cls-7" d="M74.12,146.65s.31,30.94,15.31,47.19c4.07,4.41,11.5,1,15.5,13.5-13.5-5.5-24.5-15.5-24.5-15.5s-6,5-1,11,3,13,8,18-3,11-3,11-8-25-15-29-7-15-7-15-11,14-6,18,3.06,26.31,1.06,30.31" transform="translate(-14 -7)"/><path class="cls-7" d="M242.93,129.84s-18.5,15-17.5,19c0,0-10.5,5-11.5,11.5,0,0-10.5,6.5-9,11.5,0,0,12-9.5,16-8.5,0,0,12.5-9.5,14-6.5,0,0-1.5,15,3,19s3.5,18.5,3.5,18.5,7-9.5,7.5-18.5,4-19,4-19,18,19.5,14.5,24" transform="translate(-14 -7)"/><path class="cls-7" d="M175.1,134.17s11.33-11.33,16.33-8.83l.5-8.5,4.5,8.5s15-2.5,15.5-4.5,4.5-4,4.5-4" transform="translate(-14 -7)"/><path class="cls-6" d="M20.43,106.84a36.14,36.14,0,0,0,3.67,5.22,18.15,18.15,0,0,0,4.5,3.83,7.17,7.17,0,0,0,.62.38l.66.3a8,8,0,0,0,1.34.59c.46.16.93.32,1.4.5l1.47.34.74.19.77.1,1.56.23c1.06.12,2.13.13,3.27.32A20.1,20.1,0,0,1,37.25,120l-1.69.26-.86.11-.87,0c-.58,0-1.17,0-1.76-.1s-1.16-.25-1.74-.38a9.06,9.06,0,0,1-1.68-.6,8.61,8.61,0,0,1-1.6-.81,13.54,13.54,0,0,1-4.88-5.06A13.21,13.21,0,0,1,20.43,106.84Z" transform="translate(-14 -7)"/><path class="cls-6" d="M292.43,100.84a7.17,7.17,0,0,1-3.07,3.61,9.23,9.23,0,0,1-4.73,1.35,10.3,10.3,0,0,1-4.7-1.19,9.33,9.33,0,0,1-3.5-3.11,18.49,18.49,0,0,1,2.23.47c.73.1,1.39.32,2.07.42a23.3,23.3,0,0,0,3.89.41,16,16,0,0,0,3.79-.5A22.94,22.94,0,0,0,292.43,100.84Z" transform="translate(-14 -7)"/><path class="cls-6" d="M312.36,84a17.4,17.4,0,0,1-7.21,3,27.73,27.73,0,0,1-7.86.34,30.73,30.73,0,0,1-3.87-.66,28.07,28.07,0,0,1-3.74-1.13,35.89,35.89,0,0,1-3.55-1.6,32.59,32.59,0,0,1-3.27-2.11c1.31.17,2.54.48,3.78.73l1.85.36c.61.12,1.22.27,1.83.36,1.22.2,2.43.47,3.65.61s2.42.32,3.63.47a65.33,65.33,0,0,0,7.3.31A47.57,47.57,0,0,0,312.36,84Z" transform="translate(-14 -7)"/><path class="cls-6" d="M211.56,41.71a12.79,12.79,0,0,1-2.79,6.11,17.88,17.88,0,0,1-5.22,4.42,19.6,19.6,0,0,1-3.14,1.36c-.55.16-1.08.37-1.63.49s-1.11.22-1.67.31a21.69,21.69,0,0,1-3.35.21,22.27,22.27,0,0,1-3.32-.44c1.06-.43,2.1-.69,3.11-1l1.5-.52.75-.24c.25-.08.48-.2.73-.29.48-.19,1-.37,1.45-.54s.93-.42,1.4-.62a11.62,11.62,0,0,0,1.37-.65c.45-.23.9-.45,1.34-.69a33.37,33.37,0,0,0,5-3.43A33.69,33.69,0,0,0,211.56,41.71Z" transform="translate(-14 -7)"/><path class="cls-6" d="M210.05,58.56a36.19,36.19,0,0,1-7,5.36,44.25,44.25,0,0,1-8,3.8,34.58,34.58,0,0,1-8.73,1.94,20.17,20.17,0,0,1-8.84-1.16,46.86,46.86,0,0,0,8.49-1.17A79.57,79.57,0,0,0,194,64.89c2.67-.92,5.31-2,8-3.07S207.29,59.63,210.05,58.56Z" transform="translate(-14 -7)"/><path class="cls-6" d="M145.43,283.34a88.41,88.41,0,0,0,12.29,0c2-.17,4.09-.27,6.12-.55l3-.36c1-.13,2-.33,3-.49a140.47,140.47,0,0,0,23.77-6.05c1.94-.64,3.83-1.44,5.75-2.16l2.87-1.1,2.8-1.27,5.59-2.55,5.43-2.87,2.72-1.43c.9-.49,1.76-1.05,2.64-1.57l5.26-3.19c.44-.27.88-.52,1.32-.8l1.27-.87,2.53-1.75,5.08-3.48-4.93,3.7-2.47,1.84-1.24.92c-.42.29-.86.56-1.29.85l-5.2,3.32c-.87.54-1.72,1.13-2.61,1.64l-2.7,1.49-5.42,3-5.6,2.6-2.81,1.29-2.88,1.13c-1.92.73-3.82,1.55-5.77,2.21l-5.89,1.88c-2,.62-4,1.06-6,1.6s-4,.92-6,1.34c-1,.2-2,.43-3,.6l-3.06.44A94.73,94.73,0,0,1,145.43,283.34Z" transform="translate(-14 -7)"/><path class="cls-6" d="M110.68,72.84a20.26,20.26,0,0,1-3.82,7.3,29.41,29.41,0,0,1-6,5.72A31.18,31.18,0,0,1,97.28,88c-.62.31-1.24.63-1.86.92s-1.29.51-1.93.75a26.25,26.25,0,0,1-8.05,1.64c1.19-.72,2.42-1.25,3.59-1.89l1.76-.94c.59-.29,1.16-.62,1.72-1s1.13-.65,1.71-1,1.1-.69,1.65-1,1.1-.68,1.63-1.06,1.09-.7,1.6-1.09a64.23,64.23,0,0,0,6-4.87A61.38,61.38,0,0,0,110.68,72.84Z" transform="translate(-14 -7)"/><path class="cls-6" d="M110.93,99.34a40.51,40.51,0,0,1-7.11,6.87,47.5,47.5,0,0,1-8.42,5.27,34,34,0,0,1-9.53,3.12,18.88,18.88,0,0,1-9.93-.76,32.72,32.72,0,0,0,9.41-1.52,62.54,62.54,0,0,0,8.75-3.54c2.85-1.37,5.64-2.92,8.43-4.51Z" transform="translate(-14 -7)"/><path class="cls-6" d="M67.2,260.67c4.17,5.88,8.44,11.63,12.94,17.16,1.12,1.39,2.31,2.72,3.44,4.08s2.34,2.68,3.59,3.92A70.67,70.67,0,0,0,94.89,293a38.75,38.75,0,0,0,8.92,5.26,80.32,80.32,0,0,0,9.94,3.63,133.3,133.3,0,0,0,21,4.3,79.6,79.6,0,0,1-21.57-2,67.35,67.35,0,0,1-10.45-3.28c-.86-.33-1.69-.71-2.52-1.11l-1.25-.6-1.22-.7-1.22-.71-.61-.35L95.3,297,93,295.36A82.07,82.07,0,0,1,78.3,279.25,122,122,0,0,1,67.2,260.67Z" transform="translate(-14 -7)"/><path class="cls-8" d="M55.43,170.5" transform="translate(-14 -7)"/><path class="cls-6" d="M262.43,154c3.22,0,3.22-5,0-5s-3.22,5,0,5Z" transform="translate(-14 -7)"/></g><g id="Calque_3" data-name="Calque 3"><path class="cls-9" d="M161.25,100.4s-25-21.19-33,14v1.38s-11.27,26.92-3.91,38c0,0-9.66,43.71-.69,51.76s16.1,5.06,16.1,5.06l6.44-1.15s-.69,4.83-2.53,7.36-.23,4.6,5.52,4.14c0,0,8.51-2.53,7.82-4.83s-.92-8.51-.92-8.51l6-.23s2.07,10.81,4.6,11.73,8.74.69,9.89-3.91c0,0-2.53-1.15-5.06-8.05,0,0,22.55-9,13.34-34.74s-13.57-26.92-13.57-26.92,11-15.87-3.45-28.76Z" transform="translate(-14 -7)"/><path class="cls-6" d="M128.21,115.1a153,153,0,0,0-4.3,22.34c-.18,1.87-.27,3.74-.27,5.58,0,.92,0,1.85.11,2.74a14.79,14.79,0,0,0,.47,2.59c.89,3.47,2.47,6.87,5.08,9a9.8,9.8,0,0,0,1,.73,5.64,5.64,0,0,0,.53.31l.27.15.2.09a1.74,1.74,0,0,0,1.54-.11,8.13,8.13,0,0,0,2.89-3.71,33.45,33.45,0,0,0,2.6-10.61,58.36,58.36,0,0,0-2.41-22.34,47,47,0,0,1,4.75,22.5,37.17,37.17,0,0,1-.65,5.86,27.84,27.84,0,0,1-1.71,5.77,14.71,14.71,0,0,1-1.54,2.75,8,8,0,0,1-2.56,2.37,4.92,4.92,0,0,1-1.94.59,4.69,4.69,0,0,1-2-.3l-.45-.2-.37-.19c-.24-.13-.48-.26-.7-.4a10.4,10.4,0,0,1-1.32-.94,15.93,15.93,0,0,1-3.88-4.93,23,23,0,0,1-2-5.72,17.48,17.48,0,0,1-.44-3c-.06-1,0-2,0-3a46.61,46.61,0,0,1,.58-5.83A91.87,91.87,0,0,1,128.21,115.1Z" transform="translate(-14 -7)"/><path class="cls-6" d="M144.43,180.84a31.08,31.08,0,0,0,.08,7.18,12.4,12.4,0,0,0,.9,3.33,5.33,5.33,0,0,0,1.95,2.48c1.72,1.14,4.09.85,6.24.16a33.81,33.81,0,0,0,6.34-3l.62-.35.54.46a13.38,13.38,0,0,0,5.15,2.72,6,6,0,0,0,5.29-1.08,12.56,12.56,0,0,0,3.42-4.91,42.39,42.39,0,0,0,2-6,28.89,28.89,0,0,1-1.12,6.32,12.63,12.63,0,0,1-3.32,5.73,7.14,7.14,0,0,1-3.1,1.69,8.34,8.34,0,0,1-3.54,0,12.09,12.09,0,0,1-3.23-1.16,16,16,0,0,1-2.84-1.88l1.16.11a31.31,31.31,0,0,1-6.79,3.13,12.71,12.71,0,0,1-3.86.56,6.64,6.64,0,0,1-3.88-1.25,6.82,6.82,0,0,1-2.28-3.29,13.56,13.56,0,0,1-.64-3.74A23.73,23.73,0,0,1,144.43,180.84Z" transform="translate(-14 -7)"/><path class="cls-7" d="M124.93,154.84s-8.5,37.5-3.5,47.5,16,9,16,9l9.5-2" transform="translate(-14 -7)"/><path class="cls-6" d="M153.93,126.84a22.75,22.75,0,0,0-2.46,4.53,13.22,13.22,0,0,0-1,4.92,7.78,7.78,0,0,0,1.45,4.57,10.63,10.63,0,0,0,3.77,3,21.1,21.1,0,0,0,4.7,1.69,11.75,11.75,0,0,0,4.79.2,10.54,10.54,0,0,0,7.34-5.54,16.33,16.33,0,0,0,1.8-9.46,20.13,20.13,0,0,0-1.08-4.85,25,25,0,0,0-2-4.58,9.43,9.43,0,0,0-1.45-1.9,9,9,0,0,0-2-1.41,3,3,0,0,1-1.16-1.14,4.41,4.41,0,0,1-.37-1.44c-.14-.83-.32-1.68-.5-2.52-.7-3.38-1.56-6.74-2.32-10.12,1.21,3.25,2.28,6.54,3.31,9.87.24.84.48,1.67.68,2.54s.3,1.25,1,1.64a10.24,10.24,0,0,1,2.29,1.51,10.93,10.93,0,0,1,1.79,2.14,23.56,23.56,0,0,1,2.31,4.84,22.43,22.43,0,0,1,1.32,5.23,17.84,17.84,0,0,1-2,10.63,13.28,13.28,0,0,1-3.62,4.21,11.06,11.06,0,0,1-5.16,2.15,13,13,0,0,1-5.5-.4,22.79,22.79,0,0,1-5-2,11.46,11.46,0,0,1-4.05-3.64,8.45,8.45,0,0,1-1.33-5.26,13.88,13.88,0,0,1,1.46-5.09A19.75,19.75,0,0,1,153.93,126.84Z" transform="translate(-14 -7)"/><ellipse class="cls-10" cx="149.93" cy="119.59" rx="5.5" ry="6.25"/><path class="cls-11" d="M149.58,115.12c0,1.79-2.61.72-4.4.72s-2.1,1.08-2.1-.72a3.25,3.25,0,0,1,6.5,0Z" transform="translate(-14 -7)"/><path class="cls-7" d="M172.43,205.84c33-14-1.5-61.5-1.5-61.5" transform="translate(-14 -7)"/><path class="cls-7" d="M147.93,195.84s0,13-4,21,13.5,2,12.5-2,2-22.5,2-22.5" transform="translate(-14 -7)"/><path class="cls-7" d="M161.43,194.84s-.5,16,4,22.5c4.13,6,12.3-1.38,11.5-2.5-2.5-3.5-12-16-7.5-21" transform="translate(-14 -7)"/><path class="cls-12" d="M147.08,115.2c0,.41-1.49-1.78-1.9-1.78s.4,2.19.4,1.78a.75.75,0,0,1,1.5,0Z" transform="translate(-14 -7)"/><path class="cls-12" d="M145.81,113.37a2,2,0,0,1,1.06-.81,1.62,1.62,0,0,1,.78-.06,1.43,1.43,0,0,1,.76.47,1.9,1.9,0,0,1,.33,1.43,2.73,2.73,0,0,1-.47,1.22,9.79,9.79,0,0,1-.31-1.18,2.2,2.2,0,0,0-.33-.84c-.1-.16-.29-.24-.64-.27S146.25,113.35,145.81,113.37Z" transform="translate(-14 -7)"/></g></svg>