<?xml version="1.0" encoding="utf-8"?>
<!-- Generator: Adobe Illustrator 22.1.0, SVG Export Plug-In . SVG Version: 6.00 Build 0)  -->
<svg version="1.1" id="Calque_1" xmlns="http://www.w3.org/2000/svg" xmlns:xlink="http://www.w3.org/1999/xlink" x="0px" y="0px"
	 viewBox="0 0 599.5 555.6" style="enable-background:new 0 0 599.5 555.6;" xml:space="preserve">
<style type="text/css">
	.st0{fill:#F07BBB;}
</style>
<g>
	<g>
		<path class="st0" d="M374.9,516.2c-0.9,5.1-1.3,9.2-2.4,13.1c-1.7,6.4-3.4,12.9-5.7,19.1c-1.5,3.9-4,7.4-9.1,7.3
			c-5-0.1-8-2.9-9.9-7.2c-1.2-2.9-2-4-4.3-0.6c-1.7,2.5-4.3,2-5.9-0.2c-1.9-2.7-3.6-5.6-4.9-8.6c-2.5-5.7-1.6-5.5-7.8-3.3
			c-3.4,1.2-7,2-10.5,3c-5.7,1.5-10.5,0-14.7-4c-0.7-0.7-1.5-1.3-2.2-2c-1.8-1.7-3.4-4.5-5.5-4.8c-1.6-0.3-3.7,2.4-5.7,3.7
			c-5.5,3.7-12.4,2.5-17.3-3.4c-2.2-2.7-3.2-2.6-4.8,0.4c-1.5,2.7-3.5,5.3-5.7,7.6c-5,5.1-10.3,4.8-15-0.7c-1.2-1.4-1.8-3.2-3.1-4.5
			c-0.8-0.7-2.5-1.2-3.4-0.9c-6.1,2.4-8.9,1-10.3-5.4c-0.1-0.4-0.4-0.8-0.7-1.6c-1,1-1.7,1.8-2.5,2.6c-2.2,2.3-4.7,2.6-7.1,0.6
			c-2.7-2.4-5.4-5-7.6-7.8c-1.8-2.3-3.6-3.6-6.5-3.9c-5.7-0.7-6.8-1.9-7.3-7.4c-0.2-2.1-0.7-2.3-2.7-2c-6.5,1-6.8,0.6-8.6-6.2
			c-0.4-1.6-1.7-3.1-2.9-4.4c-5.1-5.6-9.9-11.1-10.2-19.4c-0.1-4.1-3.2-6.8-7-8.3c-9.7-3.9-12.7-12.1-7.6-21
			c1.6-2.7-0.5-2.5-1.8-3.2c-1.2-0.7-2.2-1.7-3.3-2.6c1.2-0.6,2.4-1.6,3.7-1.8c19.2-3.7,37.9-8.8,55.7-17
			c9.7-4.5,18.9-9.8,26.6-17.4c9.4-9.2,10.2-16.2,2.2-26.7c-2.8-3.6-3.4-6.3-1.4-10.6c4.3-9.3,5.2-19.2,3-29.3
			c-0.9-3.9,0.3-4.2,3.8-3.5c4.4,0.9,8.9,1.1,13.4,1.4c2.5,0.2,4.6,0.1,2.6,3.5c-0.4,0.7-0.9,1.8-0.6,2.4
			c3.2,7.5,5.8,15.5,10.1,22.3c2.7,4.2,8.9,4.1,13.4,2c7.5-3.5,14.5-8,21.7-12.1c0.6-0.3,1.1-0.7,2.7-1.8c-0.4,4.9-0.7,8.9-1,12.9
			c-0.2,2-0.5,4-0.7,5.9c-0.3,3.5,1.2,5.9,4.7,6.5c2.2,0.4,3.1,1.3,4,3.5c0.9,2.4,3.1,4.6,5.2,6.2c6.2,4.4,12.8,8.3,19,12.7
			c17.1,12.4,35,23.1,55.7,28.4c11.2,2.8,22.3,3.4,33.6,0.4c2.2-0.6,4.6-0.4,6.9-0.5c9.6-0.2,19.3,0.1,28.9-0.6
			c4.5-0.3,9.1-2.1,13.3-3.8c4.6-1.9,8.8-1.3,12.9,0.8c3.8,1.9,4.2,4.9,1.3,8.1c-1.6,1.7-2.7,2.9-1.2,5.4c0.5,0.8-0.9,3.4-2.2,4.4
			c-2.2,1.7-4.9,2.8-7.4,4c-1.9,0.9-2.5,1.7-1.1,3.7c4.3,6.3,3.9,13.3,0.8,19.5c-3.5,7.1-8.4,13.5-12.6,20.3
			c-1.9,3.1-3.7,6.2-5.5,9.3c-1.5,2.8-2.7,5.7-4.4,8.4c-3.3,5.3-6.3,5.9-11.6,2.6c-5-3.1-5.1-3.1-7.8,2.2c-4.6,9.1-5.5,9.6-15.8,7.9
			c-5.1-0.8-10.1-2-15.1-3.3c-2.3-0.6-3.5-0.5-4.4,2.1c-1.1,3.1-2.9,6-4.8,8.6c-3.1,4.3-6.8,5-11.2,1.9c-2.8-2-5.2-4.6-7.7-7.1
			C378.3,520.4,377,518.7,374.9,516.2z"/>
		<path class="st0" d="M16,368.9c-1.8-0.6-4.3-1-6.4-2.2c-5.2-3-5.8-7.7-1.6-11.8c1.9-1.8,1.4-2.4-0.4-3.5c-1.7-1-3.3-2.2-4.9-3.5
			c-2.3-1.8-3.6-4.6-2.1-7c1.1-1.8,3.7-3.1,5.9-3.7s4.6,0.1,6.9-0.2c1.3-0.2,2.5-1.1,3.7-1.7c-0.7-1.2-1.2-2.8-2.3-3.5
			c-3-1.8-6.2-3.2-9.3-4.9c-4.3-2.3-4.2-3.1-0.3-5.9c1-0.7,1.6-2.6,1.6-3.9c0-3.1-0.7-6.3-0.6-9.4c0.2-5,2.1-7.5,6.9-8.4
			c2.4-0.4,2.8-1.5,3.3-3.4c1-3.8,3.5-6.6,7.6-6.9c2.3-0.2,3-1.4,3.6-3.3c1.6-6,6.5-8.6,11.8-10.5c1-0.4,2.4-0.3,3.4,0.1
			c7.6,3.6,15.7,3.3,23.6,2.2c14.6-2,29.2-4.7,43.8-7.3c3.6-0.7,5.7,0.1,8.1,2.9c7.9,9.5,16.1,18.7,24.2,27.9c1.3,1.5,3,2.6,4.4,4
			c3,2.8,5.8,3.3,9.8,1.2c4.6-2.5,9.9-3.9,14.8-5.7c2.9-1.1,4.6-0.3,5.3,3.1c0.9,4,2.2,8,3.8,11.9c1.5,3.7,4.1,6.3,8,7.7
			c13.6,4.6,27.2,9,41.9,8c3.1-0.2,4.1,1.6,4.9,3.9c2.6,7.3,2.2,14.8,0.7,22.2c-0.8,3.9-1.8,7.8-3.3,11.5c-1.9,4.4-1,8.1,1.7,11.6
			c1.5,2,3.6,3.8,4.4,6c0.9,2.6,2,6.4,0.8,8.3c-2.8,4.6-6.2,9.5-10.6,12.2c-21.7,13.3-45,23.1-70.3,27.2c-4.8,0.8-9.9-0.4-14.8-0.6
			c-2.6-0.1-5.2-0.3-7.6,0.3c-6.3,1.4-12.5,3.5-18.8,4.9c-3.9,0.9-7.2-0.3-10.3-3.4c-1.8-1.9-5.2-2.4-7.9-3.1
			c-1.7-0.4-3.8-0.3-5.4,0.4c-11.7,4.8-19.9-3.4-28.8-8.1c-4-2.1-7.1-5.6-5.4-11.2c0.2-0.6-1.4-2.5-2.4-2.6c-3.3-0.5-6.7-0.7-10-0.4
			c-4.1,0.3-6.6-1.3-7.5-5c-1.4-6.3-5.3-8.3-11.3-8c-2.8,0.1-5.7-0.1-8.5-0.4c-3.8-0.4-4.3-1.2-2.3-4.3c1.6-2.5,2.5-3.9-1-5.6
			c-1-0.5-1.4-3.8-0.9-5.5c0.6-2.1,0.6-3.3-0.4-5.4C14.6,374.2,15.7,371.5,16,368.9z"/>
		<path class="st0" d="M397.5,304.5c0.6,6.4,1.2,13.3,2,20.2c0.8,6.3,2.9,7.9,9.3,7.7c2.7-0.1,5.3-0.1,8-0.3
			c4.5-0.4,8.9-1.1,12.2-4.9c1-1.2,2.8-1.7,4.3-2.5c7-3.9,14-7.7,20.9-11.8c3-1.8,6.3-3.7,8.2-6.4c3.8-5.5,8.3-5.2,13.7-3.6
			c14.2,4.2,28.5,7.9,42.6,12.3c4.4,1.4,8.6,3.8,12.2,6.6c2.8,2.1,5.2,5.2,6.8,8.4c3.1,6.1,2.1,9.6-3.1,14c-2.1,1.7-2.3,2.6,0.4,3.5
			c0.8,0.3,1.5,0.6,2.3,1c7.6,3.8,9,8.8,4.2,15.7c-1.4,2.1-1.9,3.2,0.6,4.7c3,1.8,2.3,4.1-0.1,6c-1.4,1.1-3,2.2-4.6,3
			c-5,2.6-10.1,5.1-15.2,7.6c-5.3,2.5-5.4,2.5-1.3,6.2c3.1,2.7,0.8,4.3-1.2,5.9c-10.5,8.2-21.9,14.6-34.5,18.9
			c-16.9,5.9-34.2,8.4-52.1,6.4c-1.1-0.1-2.4-0.2-3.5,0c-17.9,4.1-34.7,0.1-51.2-6.6c-15.9-6.4-30.1-15.6-43.7-25.9
			c-2.6-2-5.6-3.5-8.6-4.8c-4.3-1.8-7.6-4.2-7-9.6c0.3-2.3-0.7-2.9-2.8-2.7c-3.3,0.3-5.6-1-5.7-4.7c-0.2-4.3,1.6-6.4,5.4-7.1
			c2.1-0.4,4.2-1.1,6.1-2c8.3-3.9,16.5-8,24.7-12c1-0.5,2.1-1.4,3.2-1.4c7.2,0,12.1-4.5,16.6-9.1
			C377.1,326.2,387.3,315.3,397.5,304.5z"/>
		<path class="st0" d="M349.5,13c1-1.2,2-2.3,2.7-3.6c3.9-7.1,10.5-9,17.9-9.4c4.6-0.3,8.2,3.1,9.4,8.6c1,4.7,1.1,4.8,5.7,3.2
			c4-1.4,6.8,0.4,9.4,2.9c2.8,2.7,5.2,5.1,9.9,4.4c3.6-0.6,7.5,4.6,8.2,9.3c0.2,1.6,1.3,3,1.8,4.6c0.3,1.1,0.7,2.6,0.3,3.6
			c-1.6,3.7,0.5,3.1,2.6,2.5c4.3-1.3,8.6-2.6,12.9-4c3.9-1.2,5-0.5,3.7,3.1c-1.4,3.8-1.1,6.2,2.8,8.4c4.1,2.4,3.5,7.1,2.7,10.9
			c-0.9,4.2,0.1,6.6,4,8.7c5.3,2.8,5.4,3.8,3.4,9.6c-4.6,13.5-2.1,10.5-14.5,14.2c-9.9,2.9-19.9,4.8-30.5,4
			c-9.7-0.8-18.9,1.8-25.4,10.1c-1.6,2-2.4,1.5-4.3,0.2c-4.2-3.2-8.7-6-13.3-8.7c-2.5-1.5-4.5-1.1-6.5,1.4c-0.9,1.1-2.9,1.8-4.5,2
			c-4.1,0.6-8.2,1-12.4,1.2c-2.9,0.1-6.1,0.5-8.8-0.4c-10.6-3.6-21.1-2.8-31.4,0.4c-12.2,3.7-24.3,8.1-36.4,12.3
			c-4.9,1.7-4.7,1.9-4.4-3.4c0.5-7,0.7-13.9,1.2-20.9c0.2-2.7-1.3-3.4-3.3-2.9c-4.5,1.1-9.2,1.9-13.2,4.1c-5.5,3-10.4,7.1-15.4,11
			c-2.4,1.9-3.6,1.9-4.5-1.2c-2.6-9.1-1.6-18.1,0.9-27.1c0.7-2.4,2.4-2.4,4.3-1.9c3.1,0.8,3.7-0.7,3.4-3.5c-0.5-3.5-0.9-6.9-1-10.4
			c-0.1-6.8,1.6-9.4,8.4-11c4.3-1,6.2-2.8,6.2-7.2c-0.1-8,6.1-9.9,12.1-11.7c5.5-1.7,6-2.3,5-8c-0.2-1.1-0.3-2.4-0.8-3.4
			c-1.3-3-0.2-5.2,2.1-7c2.6-2.1,4,0.5,5.9,1.7c1.6,0.9,3.9,1.7,5.5,1.2c6.6-2.1,12.8-2.5,18.7,2c0.7,0.5,2.6-0.4,3.9-0.9
			c2.7-1.2,5.3-3,8.1-3.7c6.4-1.6,11.8,0.7,16.1,5.6c1.4,1.6,2.9,3.2,4.1,5c1.6,2.5,2.8,2,4.5,0.1c3-3.1,6-6.3,9.4-8.9
			C341.9,5.9,345.8,6.9,349.5,13z"/>
		<path class="st0" d="M393.2,206.4c-6.4,0.2-6.3,0.2-8.5-5.8c-2.6-7-5.9-13.8-7.9-21c-1-3.6-0.1-7.8,0.2-11.7c0-0.4,1.9-0.7,3-0.9
			c0.2-0.1,0.6,0.3,0.8,0.5c5.1,5,10.4,5.7,16.5,1.3c1.9-1.4,5.1-1.3,7.7-1.3c4.3,0,8.6,0.6,12.9,0.8c1.2,0,2.8-0.2,3.7-0.9
			c2.7-2.2,4.9-1.3,7,0.8c0.8,0.8,1.7,1.6,2.5,2.4c5.9,5.9,10.8,6.6,18.2,2.3c2.1-1.2,4.2-2.2,5.7-0.2c1.1,1.5,1.8,4.3,1.1,5.8
			c-1.4,3.3,0.2,3.5,2.5,3.5c1.5,0,3,0,4.5-0.2c7.1-1,10.2,0.2,13.1,6.8c2.1,4.8,4.7,6.8,10,6.4c4.6-0.3,4.8,0.6,4.7,5.6
			c0,0.5,1.2,1.4,2,1.6c3.8,0.9,4.3,2.1,2.6,5.6c-0.2,0.3-0.3,0.6-0.5,0.9c-1.6,2.4-4.5,5-4.3,7.3c0.1,1.8,4.2,3.1,6.5,4.8
			c6.5,4.9,7.5,8.8,2.6,15.2c-6,7.8-12.7,14.9-19.2,22.3c-1.8,2-3.7,3.5,0.1,5.5c2.3,1.3,2,3.6,0.7,5.7c-2.7,4-5.6,7.9-8.1,12
			c-4.1,6.6-7.8,13.5-12.1,20c-1.7,2.5-4.2,4.8-6.8,6.3c-6.9,4-14.2,7.3-21.1,11.3c-3.5,2-6.4,5.2-10,7.1c-2.6,1.4-5.9,2.5-8.9,2.4
			c-11.4-0.6-12.9-2.9-13.2-12.5c-0.3-8.8-0.5-17.7,3.3-26c0.4-0.9,0.8-1.9,0.8-2.9c-0.1-7.2,3.8-10.7,10.2-13.1
			c5.9-2.3,11.3-5.6,16.7-8.9c4.8-2.9,4.8-3.9,2.7-8.9c-4-9.5-8.9-18.5-15.8-26.3c-5.2-5.8-9.9-12.2-14.8-18.2
			C399.8,206.1,399.8,206.2,393.2,206.4z"/>
		<path class="st0" d="M87.5,189.5c2.6,9.1,5,18.2,7.9,27.2c1.5,4.7,3.1,9.3,3.5,14.4c0.5,5.9,2.5,11.7,3.9,17.5
			c0.2,0.9,0.1,1.8,0.2,2.7c-0.8-0.2-1.7-0.2-2.3-0.6c-10.4-6.6-20.8-13.2-31-20c-3.1-2.1-5.2-5.1-4.4-9.4c0.2-0.9-1.1-2.4-2.1-3.3
			c-2.9-2.5-6.1-4.6-9-7.1c-2.4-2.2-3.1-4.9-0.1-7.2c2.2-1.7,0.9-2.6-0.1-3.9c-2.8-3.7-5.9-7.3-8.3-11.2c-2.7-4.6-1.9-7.1,1.7-11.3
			c0.7-0.8,0.4-2.7,0.1-3.9c-1-3.8-2.5-7.6-3.4-11.4c-0.5-2.1,0-4.2,2.9-3.9c2.8,0.3,2.4-1.6,2.4-3.2c0.3-5.5,0.5-11,1-16.4
			c0.6-6.3,2-7.4,8.1-8c0.7-0.1,1.5-1.6,1.8-2.6c1.4-4.6,2.4-9.3,4.1-13.7c1.1-2.9,3.1-5.1,6.9-2.5c2.5,1.8,4.9,0.6,6.1-2.2
			c1.7-4.1,3.3-8.3,4.9-12.5c0.9-2.5,1.5-5.2,2.8-7.4c0.6-1.1,2.5-2,3.8-2c5.5,0.3,5.6,0.5,6.4-4.6c0.4-2.5,1.1-3.8,4.2-3.2
			c3.8,0.7,5.3-1.6,4.1-5.5c-0.2-0.8-0.8-1.6-0.8-2.3c0-0.7,0.2-1.8,0.6-2.1c0.5-0.3,1.6,0,2.2,0.4c1.2,0.9,2.1,2.2,3.3,3
			c1.3,0.8,3.5,1.9,4.3,1.4c1.4-1,2.7-3,2.9-4.7c0.2-1.8-0.9-3.8-1.3-5.7c-0.2-1-0.3-2.7,0.3-3.1c0.9-0.6,2.5-0.7,3.6-0.4
			c1.5,0.5,2.8,1.7,4.3,2.5c5.9,3.2,9.6,2.1,12.6-3.8c1.5-2.8,3.2-4.4,6.6-4.3c2,0.1,4-0.5,6-0.6c5.1-0.4,10,0.2,13.8,4.2
			c2.9,3.1,6.3,3.3,9.5,1c6.1-4.3,12.4-2.8,18.7-1.1c4.9,1.4,5.5,3.4,2.4,7.5c-5.7,7.8-11.6,15.4-17.4,23.2
			c-1.9,2.5-3.6,5.2-5.4,7.8c-1.2,1.8-2.1,4.2-3.8,5.1c-0.9,0.5-3.1-2.4-4.9-2.7c-3.2-0.5-6.7-1.1-9.6-0.1c-3.7,1.2-7,3.7-10.1,6.2
			c-7,5.6-13.5,11.8-20.7,17.1c-10.5,7.6-17.7,17.3-21.5,29.8c-3.1,10.4-6.7,20.6-9.9,30.9c-0.6,1.9-0.6,3.9-0.8,5.9
			C88.1,189.3,87.8,189.4,87.5,189.5z"/>
		<path class="st0" d="M404.3,97.6c12.4,1.1,23-1.3,33.4-4.2c3.1-0.9,6.2-3.1,8.5-5.5c7.9-8.3,11.1-8.7,19.3-0.7
			c2.6,2.5,5,5.3,7.3,8.2c1.7,2.1,2.8,2.7,3.9-0.5c1.2-3.4,2.4-7.7,6.8-7.7c4.5,0,5.9,4.3,7.5,7.8c1.2,2.6,1.7,4.8,5.4,2.4
			c2.5-1.6,6.3,0.6,7.7,4.5c1.6,4.5,2.5,9.3,3.3,14c0.7,4.3,0.6,4.4,4.2,2c3.5-2.4,6.8-2.6,10.7-0.4c4.1,2.2,8.5,3.8,12.8,5.6
			c2.9,1.2,4.3,2.8,3.5,6.5c-0.5,2.7,0.5,5.9,1.4,8.7c1.4,4.4,3.6,8.6,5,13.1c1.4,4.4,0.3,5.5-4.1,7.3c-3.2,1.3-6.3,3-8.8,5.3
			c-3.6,3.3-7.4,5.1-12.3,5.7c-6.6,0.8-13.2,2.1-19.5,4c-7.4,2.2-8.7,4.8-8.7,12.5c0,5,0,4.3-4.7,4.4c-5,0.1-7.4-2.1-9.3-6.3
			c-2.3-5.2-6.4-8-12.4-6.9c-2.5,0.4-3.9,0-4.2-3.1c-0.4-4.2-3.3-6.2-7.4-6.9c-2.1-0.3-4.2-0.9-6.1-1.9c-9-4.4-17.6-9.1-25.6-15.4
			c-8.6-6.8-18.2-12.3-27.4-18.3c-2.3-1.5-3.4-3.4-4.6-6c-2-4.4-5.3-8.3-8.6-11.9c-3.6-4.1-3.9-4.4-0.4-8.6
			c3.6-4.3,8.4-6.5,13.9-7.2C398.4,97.8,402.1,97.8,404.3,97.6z"/>
		<path class="st0" d="M164.4,108.8c1.8-1.3,3.5-2.6,5.3-3.7c4.2-2.5,6.6-1.2,6.8,3.8c0,0.7,0.1,1.4,0,2c-1,3.8-0.3,5.9,4.3,5.4
			c2.7-0.3,3.2,2.1,3.7,4.4c0.4,2.3,0.9,5,2.3,6.6c5.5,6.4,6.9,13,2.4,20.5c-2.1,3.6-3.8,7.4-6.2,10.8
			c-17.2,24.7-19.3,51.4-10.5,79.5c1.1,3.6,1.5,6.8,0.7,10.6c-0.7,3.4,0.5,7.2,0.7,10.8c0.1,1.6,0.7,3.5,0,4.6
			c-5.2,8.3-4.3,16.8-1.4,25.5c0.2,0.5,0.3,1,0.4,1.4c1.7,4.7,1.6,4.5-3.2,6c-3.5,1.1-6.7,2.8-10.2,4c-1,0.4-3.2,0.3-3.3-0.1
			c-0.4-1.3-0.8-3.3-0.1-4.2c1.2-1.6,1.5-2.5,0.1-4.2c-3.2-4-6.3-8.1-9.1-12.4c-3.1-4.8-5.7-9.8-8.5-14.7
			c-3.2-5.5-6.8-10.5-12.1-14.3c-6.2-4.5-10.3-10.8-12.7-18.1c-1.1-3.1-1.2-5.8,2.7-7.3c2.6-1,3.6-3.1,2.2-5.6
			c-1.5-2.8,0-4.1,1.8-5.8c5-4.6,4.2-8.2,0.5-13.9c-2.8-4.3-6.5-9-4.6-15.2c1-3.2,1.2-6.5-1.4-9.4c-0.6-0.6-0.5-2.2-0.2-3.2
			c0.8-2.3,0.3-3.9-2-4.8c-2.4-0.9-2-1.8-0.6-3.6c1-1.3,2.1-3.4,1.7-4.7c-1.8-6.4,0.2-12.2,3.5-17.1c7.5-10.8,15.4-21.3,23.7-31.5
			c2.8-3.5,7-6.2,11.1-8.2C158.1,100,162.3,102.3,164.4,108.8z"/>
		<path class="st0" d="M279.2,256.2c7.1-7.3,9.9-7.6,16.4-0.6c4.1,4.5,8,7.7,14.6,5.8c2.5-0.7,7.9,3.7,8.3,6.2
			c0.1,0.5-0.5,1.5-1,1.7c-0.7,0.3-1.6,0.1-2.5,0.2c-6.2,0.8-7.1,1.8-6.6,8c0.3,3.3-0.9,4.6-4,4.9c-2.3,0.2-4.6,0.9-6.9,1.2
			c-8.7,1-13.6,6.1-15.4,14.5c-0.5,2.4-1.1,4.6-4.6,4.8c-2.8,0.1-3.4,2.8-3,5.4c0.2,1.1,0.5,2.3,1,3.3c1.7,3.2,1.5,5.2-2.6,6
			c-4.2,0.8-4.4,4.5-5,7.8c-1.1,6-1.1,5.9-7.3,6.1c-8.9,0.3-17.6-0.2-25.8-4.2c-1.2-0.6-2.9-0.5-4.4-0.5c-11.9-0.1-23.5-2.1-35-5
			c-6.7-1.7-11.2-5.4-13.3-12.1c-3.2-10.5-8.6-20.4-8.1-31.7c0.2-4.8,2.7-9.5,3.2-14.4c0.5-4.8-0.3-9.7-0.4-14.6
			c0-0.3,0.1-0.7,0.1-1c2.1-10.1,5.7-12.8,15.7-10.3c4.5,1.1,8.8,3.7,12.7,6.3c2.3,1.6,3.9,2.4,6.6,1c4.6-2.3,6.5-1.2,8.3,3.5
			c0.6,1.6,1.8,2.9,2.8,4.3c1.2-1.3,2.7-2.4,3.4-3.9c4.1-8.4,10.6-10,17.4-3.8c2.4,2.3,4.4,1.7,6.7,0.5c4.5-2.5,7.8-2.4,10.9,1.4
			c1.9,2.3,3.7,2.4,6.1,1.7c7.3-2,7.6-1.9,10.5,5.4C278.5,254.7,278.8,255.3,279.2,256.2z"/>
		<path class="st0" d="M564.6,209.9c1.9,1.2,3.3,2.1,4.7,3c-1,1.4-1.8,3.1-3.2,4.2c-1.9,1.6-4.1,2.8-6.2,4.1c-1.9,1.2-1.8,2.1,0.3,3
			c2,0.8,4.1,1.6,5.8,2.9c1.4,1.1,3.6,3.6,3.2,4.4c-0.7,1.6-2.9,2.9-4.7,3.7c-2,0.8-4.2,0.8-6.4,1c-1.9,0.2-2.9,0.6-1.6,2.7
			c1.7,2.7,0.4,5-1,7.4c-4.9,8.3-11.3,15.3-19.2,20.8c-9.1,6.3-18.7,12.1-28.2,18c-3.5,2.1-7.3,2.1-11.5,2c-5-0.2-10.2,1-14.9,2.5
			c-4.2,1.3-8,4-12.9,6.6c0.9-1.9,1.4-2.9,2-4c4.7-7.9,9.5-15.7,13.9-23.7c1-1.7,1.9-5.1,1.1-5.9c-3.3-3.3-0.3-4.4,1.4-6.2
			c5.2-5.6,10.9-10.9,15.4-17c7-9.4,5.2-17.3-4.7-23.6c-2-1.3-2.5-2.2-1.5-4.4c1-2.3,2-4.6,2.4-7.1c0.3-1.6,0-3.9-1-5.1
			c-4.8-5.8-3.1-12.3-2.2-18.6c0.2-1.4,3-3,4.9-3.5c6.4-1.7,12.9-3.1,19.5-4.2c5.3-0.9,9.8-2.8,13.5-6.8c6.5-7.1,14.6-8,23.3-5.3
			c1.6,0.5,3,1.8,4.4,2.8c-1,1.4-1.8,3.1-3.1,4.1c-3.9,2.9-3.8,7.8-5.9,11.6c0,0,1.5,1.4,2.3,1.4c3-0.1,5.9-0.8,8.9-0.8
			c1.5,0,3,1,4.4,1.5c-0.5,1.5-0.7,3.2-1.7,4.4c-2.7,3.4-2.8,3.2,1.5,4.3c3.4,0.9,6.8,1.7,10,3.2c4.7,2.2,5.1,5.2,1,8.3
			c-3.7,2.7-8,4.6-12.1,6.9C565.9,209,565.3,209.5,564.6,209.9z"/>
		<path class="st0" d="M566.4,323.4c2.8,0.8,4.4,1.1,6,1.7c4.6,1.5,5.8,4.4,3,8.4c-1.9,2.7-4.2,5.3-7,7c-5.1,3.1-10.7,5.3-15.9,8.3
			c-5.4,3.1-9.8,1.1-14-2.2c-0.5-0.4-0.6-1.9-0.2-2.5c5.4-8.5,3.1-19.3-5.4-25.4c-11.2-8-24.1-11.9-37.3-15
			c-7.6-1.8-15.3-3.1-24.3-4.8c6.5-4.4,12.2-8.6,19.4-8.5c32,0.3,52-18.3,67.5-43.2c2.9-4.6,4.6-8.5,10.3-10.2
			c5.3-1.6,5.7-6.7,1.5-10.6c-1.4-1.3-3.1-2.3-3.3-2.4c1.8-2.6,3.6-5.2,5.5-7.7c2.2-2.8,6.4-3,10.4-0.8c3.6,2,4.1,3.8,2.6,8.1
			c-0.3,0.9,0.1,2.5,0.7,3.3c1.9,2.2,2.2,4.6,0.7,6.9c-1.4,2.3-0.5,3.6,1.3,5c1.9,1.6,3.7,3.3,5.5,5.1c3.4,3.4,4.3,7.5,2.7,12
			c-1.6,4.5-5.2,6.7-9.7,7.7c-4,0.9-8.1,1.9-12.1,2.9c-1.1,0.3-2.2,0.7-3.2,1.3c-1.5,0.9-2.9,2-4.3,3.1c1.6,0.7,3.1,1.5,4.7,2
			c6,1.9,12.1,3.5,18.1,5.5c2.3,0.8,4.6,2.1,6.5,3.6c4.6,3.5,4.3,8.5-0.8,11.2c-2.6,1.3-4,2-1.8,5.2c2.7,4,1.2,9.6-3.8,13.1
			c-5.8,4-12.4,6.9-18.6,10.3C570,322.2,568.7,322.5,566.4,323.4z"/>
		<path class="st0" d="M362.9,270.7c-0.8,0.2-2.2,0.2-2.3,0.5c-1.4,4.9-6.3,5.9-9.5,8.8c-1.6,1.4-2.2,4.5-2.2,6.8
			c0,2.7-0.6,3.4-3.2,3.6c-6.6,0.5-12.3,6.7-12.1,13.4c0.1,4.2-0.9,6.8-5.2,8.1c-4.3,1.3-6.8,4.7-7.8,9.1c-1.1,4.7-1.7,9.5-3,14.1
			c-0.7,2.4-1.8,5.2-3.6,6.6c-9.9,7.9-21,14.2-32.9,18.7c-2.4,0.9-5.6,0.7-8.1-0.1c-2.9-1-3.7-3.7-3-7c0.3-1.3-1.6-3.1-2.5-4.7
			c-3.6-5.8-3.7-7.8,0.5-13c2.4-3.1,3.6-6.3,3.1-10.1c-0.4-3.4,0.8-5.2,4.5-5.6c5.5-0.6,6.7-3,4.7-8.3c-0.4-0.9-1.2-1.8-1.1-2.7
			c0-1,0.9-2.7,1.3-2.7c3.2,0.1,4.2-2.2,4.5-4.5c1.4-9.8,7-14.4,16.8-14.4c1.6,0,3.3-0.6,4.9-1.1c6-1.7,6.9-3.2,5.7-9.3
			c-0.6-3.1,0.5-4.8,3.4-4.7c4.5,0.1,9.1,0.4,13.6,1.3c2.7,0.5,3.4-0.1,4.2-2.5c1.3-4.3,3-8.4,4.5-12.6c0.9-2.4,2.4-3.2,5.1-2.4
			c1.6,0.5,4.2,0.7,5.2-0.1c3.4-3.1,4.2-0.7,5.5,1.9c0.5,1.1,1.8,1.8,2.7,2.6c0.6-1.1,1.3-2.2,1.7-3.4c0.5-1.4,0.6-2.9,0.9-4.4
			c1.4-6.8,2.3-6.7,9.1-6.2c4,0.3,8.9,0.8,12-3.8c0.8-1.2,2.9-1.6,4.4-2.3c1.4-0.7,2.9-1.2,4.3-1.9c0.9-0.4,1.8-1,2.7-1.6
			c-0.1,1.2,0,2.3-0.2,3.5c-0.1,0.6-0.5,1.2-0.8,1.8c-0.8,0.5-1.6,1-2.5,1.6c-1.6,1.2-3.8,2-4.7,3.6c-1.2,2.2-1.7,5-2,7.6
			c-0.4,3.3-1.3,5.1-5.2,4.8c-3.3-0.3-5.5,1.4-6,5.2c-0.2,1.3-1.9,2.7-3.2,3.7c-1.3,1-2.9,1.5-4.4,2.2L362.9,270.7z"/>
		<path class="st0" d="M388.1,243.7c0.8-0.5,1.6-1,2.5-1.6c3.4-0.3,6.8-0.6,10.1-0.9c1.7,2.1,3.3,4.1,5,6.2
			c0.1,12.9-0.9,25.6-4.2,38.1c-0.6,2.4-1.4,4.9-2.7,6.9c-9.8,15.1-20.9,29.3-34.1,41.7c-4.4,4.1-9.1,7.3-15.7,7.8
			c-4.1,0.3-8.1,2.9-11.8,5c-4.6,2.6-8.9,5.9-13.4,8.7c-1.7,1-3.6,1.9-5.5,2.2c-2.6,0.4-4.6-0.9-5.2-3.5c-0.5-2.2-0.4-4.5,2.4-5.2
			c2.1-0.6,2.7-1.6,1.9-3.6c-0.2-0.5,0.1-1.4,0.4-1.9c3.9-6.3,4.3-13.6,5.2-20.7c0.6-4.8,2.8-7.7,7.4-8.8c4.6-1,6-3.7,5.9-8.3
			c-0.2-7.4,3.9-11.7,11.5-12.8c4.9-0.7,5.4-1.4,4.3-6.1c-1.4-6.2-0.6-7,5.6-5.5c2.7,0.7,2.5-1.3,2.9-2.8c0.7-2.6,1.5-5.3,2.3-7.9
			l-0.1,0.1c1,0,2,0.1,3-0.1c3.7-0.8,7.8-1,7.7-6.6c0-0.7,2.3-2,3.6-2.1c6.2-0.6,6.6-0.6,7-6.9C384.4,250.9,385.1,246.9,388.1,243.7
			z"/>
		<path class="st0" d="M211.5,34.2c2.5,1.1,2.8-0.7,3.4-2.6c1.4-4.9,3-6,8-4.9c7.2,1.6,12.8,0,16.7-6.5c0.9-1.5,2.2-3.1,3.6-4.1
			c1.2-0.8,3.1-1.3,4.5-1c2.4,0.6,4.8,1.7,7,3c0.9,0.5,1.4,2.4,1.3,3.5c-0.1,1-1.2,2.2-2.2,2.7c-2,0.9-4.1,1.3-6.2,1.8
			c-5.2,1.3-7.9,4.6-8.1,10c-0.1,2.6-0.6,4.6-3.9,5.5c-8.4,2.2-12.3,8.2-11.6,16.8c0.1,1.7,0.3,3.3,0.7,5c0.4,2.1,0.7,3.4-2.4,2.8
			c-1-0.2-3.1,2.2-3.7,3.8c-3.8,9.9-4.2,20.2-1.2,30.4c0.9,3,0.3,4.8-1.9,7.3C209,114.8,203,122.4,197,130c-1.9,2.4-2.7,3.6-4.3-0.3
			c-1.6-4-5.1-7.2-5.2-12.1c0-1.6-2.8-3.9-4.6-4.4c-2.8-0.8-3.6-2-3.9-4.7c-0.4-3.2-0.7-6.8-4.8-8c-0.3-0.1-0.4-2.4,0.1-3.1
			c3.2-4.5,6.6-8.8,9.8-13.3c4.5-6.4,9-12.8,13-19.5c1.9-3.2,2.7-7.1,4.3-10.6c0.6-1.3,1.9-3.5,2.7-3.4c3.7,0.2,3.1-1.8,2.8-4.1
			s-0.5-4.6-0.5-7C206.2,34.7,206.9,34,211.5,34.2z"/>
		<path class="st0" d="M246.8,92.8c-4.7,1.4-7.1,4.6-7.2,9.5c0,0.7,0.3,1.7,0,1.9c-5.1,3.5-4.1,12.3-11.9,13.4
			c-2.4,0.3-3.1,2-3.3,4.3c-0.8,11.7,0,12.9-14.6,14.1c1.6,1.8,3,3.3,4.2,5c2.6,3.4,2.4,6-0.8,8.7c-2.8,2.4-5.8,4.4-8.8,6.5
			c-2.7,1.9-4.4,4-2.7,7.5c2,4-0.1,6.5-3.4,8c-2.5,1.2-3.2,2-1.6,4.7c1.1,1.8,1.3,4.4,1.2,6.6c-0.4,4.1-1.3,8.2-2,12.3
			c-0.7,3.9-1.7,7.4-6.4,8.5c-1.2,0.3-2.9,3-2.6,4.1c0.9,4.1-0.7,5.8-5.7,6.2c3.2,1.9,5.4,3,7.5,4.3c4.2,2.7,4.3,4.3,1.4,8.5
			c-1.6,2.2-5.4,3.1-4.5,7c0,0.1-1.1,0.4-1.7,0.6c-1.2,0.5-2.6,0.7-3.7,1.4c-1.3,0.8-2.5,2-3.7,2.9c-0.7-1.7-1.5-3.3-2-5
			c-4.4-16.4-5.3-32.9-1-49.4c1.6-6.2,4.8-12,7.6-17.8c4.9-10,9.9-19.9,15.3-29.6c2.7-4.8,6.1-9.2,9.5-13.4
			c8.7-10.5,18.2-20.4,29.6-28.2c4.6-3.2,9.8-5.4,14.7-8.1c0.2,0.4,0.5,0.7,0.7,1.1c-1.3,1.4-2.6,2.9-3.8,4.3L246.8,92.8z"/>
		<path class="st0" d="M271.1,139.9c-3.4-0.6-6.8-1.6-10.2-1.5c-3,0-2.3-1.1-1.6-2.7c2.9-1.4,5.9-2.8,8.8-4.2
			c11.3-3.7,22.6-7.6,34-10.9c8.2-2.4,16.5-4.9,25.3-3.7c0.4,0.2,0.8,0.4,1.3,0.6c2.7,2.4,5.7,1.9,8.8,1c1.6-0.5,3.6-0.9,5.1-0.5
			c7.5,2.1,14.9,4.5,22.4,6.6c1.2,0.3,2.5,0,3.8-0.1c2.6-0.3,5.2-1.1,7.9-1.1c3.2-0.1,3.4,0.9,1.7,3.7c-0.5,0.8-0.3,2-0.8,2.7
			c-0.9,1.2-2.4,3.2-3.2,3c-4.1-0.8-4.7,1.9-6.1,4.6c-2.3,4.5-9.5,6.3-14.5,2.3c-4.9-3.9-7.9-2.3-12.3,0.3
			c-3.9,2.3-8.7,3.1-13.2,4.4c-2.1,0.6-3.4,1.1-3.6,3.8c-0.3,4-1.7,4.4-5.5,2.9c-2.5-0.9-4.6,0-5.6,2.7c-1.9,4.8-5.9,6.1-10,2.7
			c-2.2-1.8-3.8-2-6.2-1.1c-3.9,1.5-6.7-1.6-10-2.6c-1.5-0.4-2.4-3.7-3.4-5.9c-1.2-2.6-2.6-5.2-6.3-4.4
			C275.5,141.7,273.3,140.8,271.1,139.9z M338.8,132.9c4.8,2,15.6-0.7,19.3-4.7c-6.3,1.4-12.7,2.9-19.1,4.4
			c-10.9-6.1-11.8-6-18.9,3.7c-2.9,4-6,7.4-12.8,6.5c6.5,2.7,8.9,2.3,13.3-4.3c4.2-6.2,8.6-9.8,16.2-5.7
			C337.3,133.1,338.1,132.9,338.8,132.9z"/>
		<path class="st0" d="M128.6,121.1c-4.5,7-9,13.9-13.4,20.9c-3.2,5.1-5.1,10.5-3.7,16.6c0.7,3-1.2,4.5-3.1,6.3
			c-3.3,3-3.2,3.3,0.8,4.6c2.9,0.9,3,2.6,1.7,5c-0.5,0.9-0.6,2.9-0.3,3c4.3,1.9,3.4,5.4,2.8,8.6c-0.7,3.7-2.3,7.4,2.4,9.8
			c0.5,0.2,0.9,1.1,0.9,1.7c-0.1,3.1,0.7,5.2,3.7,7c2.9,1.8,0.7,4.8-0.7,7c-0.8,1.2-2,2.2-3.2,3c-1.5,1-2.2,1.7-0.7,3.4
			c1.9,2.3,1.9,4.3-1.3,5.9c-3.5,1.7-4.3,5.1-3.3,8.6c3,9.6,7.5,18,16.6,23.4c2.3,1.4,4.2,3.8,5.6,6.2c3.8,6.6,7.1,13.5,11,20.2
			c2.1,3.7,4.9,7.1,7.4,10.6c0.3,0.4,0.7,0.7,1,1c-4,3,1.3,6-0.1,9c-0.2,0.4-1.3,0.6-2,0.5c-0.6-0.1-1.1-0.7-1.6-1.2
			c-9.4-10.3-19.8-20-27.9-31.3c-5.8-8.1-13.6-15.6-15.3-26.3c-0.5-3-1.2-5.9-1.9-8.8c-2.9-11.9-5.8-23.8-8.9-35.7
			c-2.3-9.1-2.2-18.2,1.1-27c4.3-11.5,8.5-23.1,13.5-34.3C113.1,130.7,121,126,128.6,121.1z"/>
		<path class="st0" d="M377.9,209.4c-3.8-0.3-6.8,1.1-8.6,4.9c-0.5,1-1.3,2.3-2.2,2.4c-5.8,1-9.5,5.3-13.7,8.7
			c-2.1,1.8-3.6,1.8-6.2,0.7c-2.9-1.2-6.4-1.2-9.6-1.5c-3-0.3-5.9-0.4-6.9-4.3c-0.3-1-2.5-2-4-2.2c-6.5-1.1-6.4-1.1-7.6-7.9
			c-0.4-2-1.5-4-2.8-5.6c-2-2.5-1.2-6.4,1.9-7.6c4.6-1.7,8.5-5,13.9-4.6c1.6,0.1,3.3-2.6,5.2-3.6c3-1.5,1.4-3.5,1.1-5.6
			c-0.1-0.7,0.4-2,0.8-2.1c3.4-0.9,5.4-3.3,7.9-5.6c2-1.9,3.4-2.4,2.4-5.5c-0.5-1.6,0.7-3.7,1.3-5.6c0.1-0.3,1.3-0.7,1.5-0.5
			c3.4,2.5,6.8,5,10,7.7c2.5,2,4.4,5,7.2,6.3c3.3,1.6,5.1,4,6.4,7.1c2.4,6,4.9,12,6.9,18.1C384.7,208.9,384.2,209.4,377.9,209.4z"/>
		<path class="st0" d="M315.3,170c-2.8-2.9-5.5-5.8-7.6-8c2.4-1.9,4.9-4.2,7.8-6.1c1.1-0.7,2.7-1.2,4-1c3.6,0.5,5.5-1.1,7-4.2
			c0.6-1.4,2.3-2.5,3.7-3.2c5.3-2.4,10.6-4.6,16-6.6c1.2-0.5,3.2-0.3,4.3,0.4c7.6,4.5,14.7,3.3,20.2-3.6c0.7-0.9,2.1-1.3,3.2-1.9
			c2-1.1,4.1-2.2,6.1-3.2c-0.1-0.5,0.1-0.1,0,0.3c-0.6,8.3,2,12.2,9.9,14.8c1.3,0.4,3.2,1,3.7,2.1c3.6,7.5,11.2,10.1,17.4,14.4
			c0.4,0.3,0.9,0.3,1.4,0.4c-0.2,0.3-0.4,0.7-0.6,1c-2.6-0.3-5.2-0.9-7.7-0.7c-3.8,0.3-7.9-0.8-10.8,3.2c-1.8,2.5-4.6,2.4-7.1,0.5
			c-1.6-1.2-3.2-2.4-4.8-3.6c-4.7-3.6-6.1-3.1-6.9,2.6c-0.3,2-0.4,4-0.7,5.9c-0.4,2.3-1.3,3.2-3.7,1.6c-4.4-2.8-7.8-6.5-11-10.6
			c-1.5-2-4.6-2.4-5.6-5.4c-0.3-0.9-6.4,2.9-6.3,4.4c0.1,2.7,1.1,5.9,0,8c-1.4,2.8-4.2,5.3-7.1,6.7c-3,1.5-6.5,1.6-3.6,6.2
			c0.2,0.3,0.1,1.2-0.1,1.4c-2.5,1.6-5,3.5-7.8,4.5c-2.6,0.9-4.3-0.4-4.4-3.6c-0.1-4.7-1.7-8.7-5.8-11.5
			C317.2,173.5,316.2,171.7,315.3,170z"/>
		<path class="st0" d="M76.9,87.6c-0.7-2.8-0.6-5.3,3.3-6.2c0.6-0.1,1.2-2.4,0.9-3.4c-1-3.5-2.6-6.9-3.6-10.4
			c-1-3.6,0.2-4.8,3.8-3.7c3.2,1,6.1,2.5,9.1,3.9c2.4,1.1,3.4,0.5,3.3-2.2c0-2.2,0-4.3,0.1-6.5c0.5-7.1,3-9.2,9.7-6.8
			c4,1.4,4.7-0.2,5.9-3.1c1.8-4.4,3.1-4.6,7.7-3.2c4.4,1.4,9,2.3,13.5,3.3c3.3,0.7,5.5-0.5,6.3-3.9c0.1-0.5,0.3-1,0.4-1.4
			c2.2-6.8,3.5-7.3,9.6-3.9c0.9,0.5,1.7,1.1,2.6,1.5c2.1,1,3.3,0.7,3.6-2.1c0.5-5.1,2-5.6,6.2-2.4c2,1.5,3.8,3.3,5.9,4.5
			c2.2,1.2,4,1,4.6-2.2c0.9-5.6,2.1-6.6,7.7-5.5c4.9,1,9.5,3,14.3,4.2c2.4,0.6,5.2,0.9,7.5,0.3c2.3-0.6,3-0.3,3.1,2
			c0.1,2.9,2.8,6.4-2.7,7.8c-1.1,0.3-1.4,4-2,6.3c-1.2,5.1-1.1,4.9-5.8,2.9c-3.8-1.6-7.7-3.6-11.7-3.8c-3.3-0.1-6.9,1.8-10,3.4
			c-2,1.1-3.2,1.6-5.2,0c-7.3-6-16.1-5.9-24.7-5.1c-2.3,0.2-4.7,2.9-6.5,4.9c-4.7,5.4-4.7,5.5-11.3,2.6c-0.3-0.1-0.6-0.4-0.9-0.4
			c-2.8-0.4-5.7-0.7-8.5-1c-0.2,2.6-0.4,5.1-0.5,7.7c-0.1,1.2-0.2,2.5-0.3,3.7c-1-0.5-2-0.9-3-1.5c-1.3-0.7-2.6-1.6-4-2.1
			c-3.5-1.1-5.9,1-5.7,4.6c0.1,1.2,0.4,2.3,0.5,3.4c0.3,2.1-0.4,3.3-2.7,2.8c-3.6-0.8-5.4,1.2-6,4.3c-0.4,2.1-1.3,2.8-3.3,2.5
			c-3.2-0.5-4.9,1.4-5.9,4.2c-2,5.7-3.8,11.4-5.9,17c-1.8,4.9-2.2,4.9-6.4,2.2c-0.8-0.5-2.1-1.2-2.6-0.8c-4.2,2.9-3.4-0.8-3.5-2.7
			c-0.4-6.4,2-8.8,8.4-8.6C76.7,94.8,77.5,93.7,76.9,87.6z"/>
		<path class="st0" d="M230.9,193.7c-2.6-3.8-0.5-6.7,1.5-9.8c0.8-1.3,1.2-2.9,1.7-4.4c-1.5-0.4-3.1-1.2-4.5-1
			c-3.6,0.6-3.8-0.4-2.8-3.5c0.9-2.6,0.7-5.5,1.1-8.3l0,0c0.7-0.6,1.8-1.1,2.1-1.9c2.1-5,8.3-4.4,11.3-8.1
			c7.5,2.5,11.5-4.5,17.4-6.2c3.1-0.9,6.4-1.1,9.7-1c3.3,0.1,6.5,1.1,10.6,1.9c-3.8,0.4-6.8,0.5-9.7,1.1c-4.5,0.9-5.9,3.8-3.5,7.6
			c1.6,2.6,3.9,5,6,7.2c2.2,2.4,3,5.1,1.1,7.6c-2,2.6-1.5,5.2-1,7.9l0.1-0.1c-1,1-2.1,2-3,3.1c-1.3,1.4-0.9,2.3,0.7,3.5
			c4.8,3.4,4.9,4.6,1.8,9.7c-0.3,0.4-0.8,0.8-0.8,1.2c0.2,5.4-4.5,5.8-7.8,7.7c-4.4,2.6-9,5.1-13.1,8.1c-3.1,2.3-4.2,1.5-5.8-1.6
			c-2.9-5.8-6.2-11.3-9.6-16.9C233.4,196.2,232,195,230.9,193.7L230.9,193.7z"/>
		<path class="st0" d="M315.3,170c1,1.7,2,3.5,3,5.2c1.3,4.6,2.7,9.1,3.8,13.7c0.7,3-1.3,5.6-4.4,5.1c-9.1-1.5-17.9,0.4-26.6,2.5
			c-4.8,1.1-9.3,3.5-13.9,5.1c-1.1,0.4-2.4,0-3.6,0c0.2-1,0-2.3,0.5-3.1c2.3-4.1,2.7-7.6-1.6-10.9c-0.9-0.7-0.3-3.2-0.4-4.9
			l-0.1,0.1c1.4-4,3.4-7.9,4-12.1c0.3-1.9-1.7-4.6-3.3-6.3c-2.4-2.4-1.9-3.6,0.7-5.2c1.7-1.1,3-2.9,4.4-4.3l0.1-0.2
			c3.4-1.2,6.8-3,9.1,1.7c0.2,0.4,0.7,0.8,1.1,0.8c8.4,1.9,18,6.2,24.8,11.1C313.5,169.1,314.4,169.5,315.3,170z"/>
		<path class="st0" d="M229.6,238.4c6.3-6.3,11.8-13.8,19-18.8c14.7-10.1,30.2-18.9,48.2-22c4.4-0.8,8.9-0.8,13.4-0.9
			c0.9,0,2.2,0.7,2.8,1.5c0.2,0.3-0.6,1.8-1.2,2.5c-3.1,3.5-6.7,4-10.9,1.7c-3.1-1.7-5.1-1.2-5,1.6c0.2,6.4-3.7,9.8-8.5,12.4
			c-2.9,1.6-4,3.1-3.6,6.6c1,8.2-3,13.8-11,16.7c-0.9,0.3-1.5,1.7-2,2.6c-0.6,1-0.8,2.8-1.4,2.9c-1.6,0.3-3.9,0.5-4.9-0.4
			c-4.7-4.3-9.3-5.6-14.7-1.3c-0.6,0.5-2.5,0.4-3-0.1c-4.6-4.9-10.4-4.4-16.3-3.6C230.1,239.4,229.8,238.9,229.6,238.4z"/>
		<path class="st0" d="M338.7,226.1c-5.1,3.3-9.4,5.5-13.1,8.5c-4.4,3.7-8.3,8-12.1,12.4c-1.5,1.7-2.6,3-4.9,1.9
			c-0.1-0.1-0.3-0.1-0.5-0.1c-7.2,1.3-14.4,1.9-21.3-1.2c-0.4-0.2-1,0.1-1.4,0.3c-1.6,0.7-4.2,2.4-4.7,1.9c-1.9-1.8-3.1-4.2-4.3-6.5
			c-0.3-0.6,0.3-2.3,0.9-2.6c7.4-3.5,9.2-9.8,9.6-17.3c0.1-1.7,1.2-3.8,2.6-4.8c4-2.9,7.4-6,9-10.9c0.3-0.9,2.1-1.8,3.2-1.9
			c3-0.2,5.9,0,8.9,0c4.8,0,6.3,1.4,6.4,6.2c0,1-0.1,2-0.1,3c-0.1,3.5,1.3,5.4,5,5.3c3.4-0.1,6.7-0.2,7.5,4.4
			c0.1,0.6,1.8,1.2,2.9,1.4C334,226.2,335.8,226.1,338.7,226.1z"/>
		<path class="st0" d="M205.9,164.6c0.8,2.4,1.2,3.7,1.6,5c0.3,0.9,0.6,1.7,0.9,2.6c0.8-0.6,1.6-1,2.3-1.7c1.6-1.5,3-3.1,4.7-4.4
			c1.8-1.4,3.2-1.2,3.1,1.5c-0.1,2.2,0.1,3.3,2.7,2c0.9-0.4,2.2-0.1,3.3-0.1c0,1.3,0.3,2.6,0,3.7c-0.5,1.7-1.6,3.3-2.1,5
			c-1,2.9,0.1,4,3.2,3.4c1.6-0.3,3.1-0.9,5.9-1.7c-4.8,5.3-5.1,10.7-4.8,16.2c0.2,4.3-1.1,7.9-4.3,10.8
			c-9.1,8.2-18.4,16.4-27.6,24.4c-0.9,0.8-2.5,0.7-3.8,1c0.3-1.3,0.5-2.6,1-3.8c0.4-1.1,1.2-2,1.8-3c2.2-4.2,1.8-5.5-2.2-8.3
			c-1.4-1-3.9-1.6-2.4-4c1.5-2.3-1.8-6.7,3.6-7.5c1.6-0.2,3.7-2.9,4.2-4.8c1.7-6.6,3.8-13.3,3.7-20c-0.1-4.7,0.4-8.3,3.4-11.7
			C204.9,168.3,205,166.9,205.9,164.6z"/>
		<path class="st0" d="M354.3,251.1c-3.2-3.6-3.1-3.6-7.1-0.1c-0.7,0.7-2.1,1.3-3,1c-5.3-1.7-8.2,1.4-10.7,5.2
			c-1.2,1.9-1.9,4.2-2.8,6.4c-0.7,1.6-1.5,4.8-1.8,4.7c-2.9-0.5-6.4,1.9-8.8-2.3c-2.7-4.7-6.8-7.3-12.9-6.6c-2.3,0.3-5.2-1.5-7.4-3
			c-2.3-1.7-1.4-3.6,1.2-4.1c1.9-0.4,4-0.7,5.9-0.3c4.3,0.8,6.9-0.5,9.5-4.2c5.7-8.2,13.4-14.3,22.3-18.8c2.4-1.2,4.7-1.6,7-0.1
			c2.6,1.7,5.2,1.8,8,0.3c0.7-0.4,2.1-0.7,2.2-0.5c1.8,3.5,3.6,7,5.1,10.6c0.9,2.1-0.2,3.5-2,5C357.2,245.9,356,248.6,354.3,251.1z"
			/>
		<path class="st0" d="M405.8,247.4c-1.7-2.1-3.3-4.1-5-6.2c-1-0.6-1.8-1.5-2.9-1.8c-2.7-0.8-4.2-2.4-4.2-5.4c0-1.1-1-2.2-1.6-3.3
			c-1.1,0.7-2.5,1.1-3.2,2.1c-2.1,3-4.2,5.6-8.4,4.9c-0.4-0.1-1.2,0.2-1.3,0.5c-1.7,3.5-4.2,4.4-8.2,4.1c-4-0.2-6.2-0.5-7.5-4.2
			c-1.2-3.4-2.4-6.9-4-10.2c-1.4-2.8-0.5-4.4,1.8-5.8c1.1-0.7,2.3-1.5,3.5-1.8c3.5-1,6.9-1.8,8-6.2c0.2-1,2.3-1.8,3.6-2.1
			c3.7-0.9,7.5-1.2,11.1-2.2c7.2-2,9.3-1.2,12.8,5.5c3.8,7.3,7.5,14.6,7.5,23C407.7,241.4,406.5,244.4,405.8,247.4z"/>
		<path class="st0" d="M382.2,133.3c0-0.3,0-0.7,0-1c0.3-9.5,0.3-9.5-8.5-13.4c-1.5-0.7-2.9-1.8-4.4-2.3c-1.7-0.6-3.5-1-5.3-1.4
			c-1.4-0.3-3.1,0.1-4.3-0.5c-2.3-1.1-4.4-2.8-6.5-4.2c2.2-0.8,4.4-1.6,6.6-2.4c1.2-0.4,2.9-0.5,3.7-1.3c2.8-3.1,4.8-1.5,6.9,0.7
			c3.8,3.8,7.9,7.2,11.3,11.3c2.2,2.5,3.3,5.9,5.1,8.8c1.3,2,2.7,4.3,4.6,5.6c6.6,4.5,13.5,8.5,20.1,13.1
			c5.6,3.9,10.6,8.5,16.3,12.3c4.9,3.3,10.4,5.9,15.6,8.9c1.2,0.7,2.2,1.7,3.3,2.5c-1.2,0.5-2.3,1.2-3.5,1.5
			c-5.2,1.4-7.7,0.5-10.6-3.7c-4.2-6.1-4.6-6.2-11.6-3.6c-0.6,0.2-1.7,0.5-1.9,0.3c-2.3-2.9-6.5-1.7-8.7-3.6
			c-5.1-4.5-13.1-5.6-15.6-13.2c-0.3-0.8-1.9-1.1-2.9-1.7c-2.8-1.7-6.1-3.1-8.3-5.4c-1.4-1.6-1.3-4.6-1.8-7
			C381.9,133.4,382,133.3,382.2,133.3z"/>
		<path class="st0" d="M268,131.5c-2.9,1.4-5.9,2.8-8.8,4.2c-7,4.4-15.1,2.6-22.7,3.7c-0.9,0.1-1.9-0.7-2.8-1.1
			c0.9-0.4,1.9-1.3,2.7-1.2c4.6,1,6.9-1.7,8.6-5.2c2.1-4.5,5-6.6,10.3-4.9c4.3,1.4,7.7-0.4,10.2-4.2c2.2-3.3,4.4-7.1,9.4-3.9
			c0.5,0.3,2.1,0.2,2.3-0.2c2.1-4.1,5.6-2.3,8.7-2.4c1.4-0.1,3.2-0.6,3.9-1.6c2.9-4.2,7-4,11.2-3.3c3,0.5,5.4,0.6,7.3-2.4
			c1.5-2.3,3.9-2.3,6-0.3c2,1.9,4.1,3.8,6.1,5.7c-2.6,0.7-5.2,1.3-7.8,2.1c-13.4,4-26.7,7.9-40.1,12
			C270.8,129,269.5,130.4,268,131.5z"/>
		<path class="st0" d="M407.5,221.3c5.8,7.5,12.2,14.6,17,22.6c2.5,4.1,4.4,8.8,6.9,13.1c1.4,2.5,0.7,5-1.9,6.4
			c-6.5,3.4-13,6.6-19.6,9.8c-2.4,1.1-2.9-0.3-2.7-2.4c1-8.4,1.8-16.8,2.9-25.2c1.1-8.3-0.6-16.1-3.7-23.8
			C406.8,221.6,407.2,221.4,407.5,221.3z"/>
		<path class="st0" d="M271.1,139.9c2.2,0.9,4.4,1.9,6.6,2.8c0.5,0.6,1,1.3,1.5,1.9c0.8,1,1.6,2,2.4,3c-1.3,0.5-2.6,1.3-3.9,1.3
			c-2,0-4.2-0.1-5.9-0.9c-6.3-3.1-11.9-1.3-17.7,1.4c-3.8,1.8-6.7,6.3-11.9,4c-0.5-0.2-1.5,0.6-2.1,1.2c-1.8,1.7-2.3,1.7-5.1,0.2
			c-4-2.2-8.6-3.7-12.7-6.3c-0.3-0.2-1.3,0-1.4,0.2c-2.1,4.5-8.9,4.5-10,10.2c-0.2,1-1.4,2.4-2.4,2.6c-1.3,0.4-2.9-0.2-4.3-0.4
			c0.8-1.1,1.4-2.4,2.4-3.1c4.9-3.5,9.8-6.9,12.7-12.5c0.6-1.2,2.6-2.2,4-2.5c4.2-0.9,8.5-1.7,12.8-1.9
			C247.8,140.6,259.4,140.3,271.1,139.9z"/>
		<path class="st0" d="M225.9,136.8c1.2-1,2.6-2,3.7-3.2c6-7.1,13.3-12.4,22.1-15.9c19.4-7.6,39.3-13.6,59.9-17.1
			c0.7-0.1,1.3-0.4,2-0.3c0.8,0.1,1.5,0.4,2.2,0.7c-0.3,0.7-0.5,1.8-1,2c-5.7,2.2-10,8.3-17.5,5.8c-1.8-0.6-5.5,0.9-6.8,2.7
			c-2.4,3.2-5.1,3.3-8.3,2.6c-2.2-0.5-4.6-1.7-5.7,1.8c-0.1,0.3-2.2,0.4-2.8-0.1c-3-2.2-4.9-0.7-6.8,1.5c-1.4,1.6-2.8,3.3-4.2,4.9
			c-2.3,2.7-4.7,3.7-8.3,2.2c-5.4-2.2-6.2-1.7-9.5,2.9c-1,1.4-2,2.7-2.7,4.2c-1.5,2.9-3.3,4.5-6.7,2.6c-2.5-1.4-3.5-0.1-3.9,2.5
			c-0.2,1.2-1.3,2.5-2.4,3.3c-0.8,0.5-2.2,0.2-3.3,0.3c0.1-1.1,0.2-2.2,0.2-3.2C225.8,136.9,225.9,136.8,225.9,136.8z"/>
		<path class="st0" d="M229.7,205.1c-1.9,4.2-3,7.9-5.1,10.8c-1.4,2-1.6,3.4-0.8,5.4c0.5,1.2,0.9,2.5,1.1,3.8
			c1.2,6.8-0.6,8.9-7.5,8.3c-3.1-0.3-4.8-0.1-5,3.8c-0.3,4.9-2.3,5.2-6.6,2.5c-3.2-2-6.8-3.2-10.3-4.7
			C206.5,225.4,217.6,215.6,229.7,205.1z"/>
		<path class="st0" d="M328.7,117.5c-0.4-0.2-0.8-0.4-1.3-0.6c-3.3-2.8-6.7-5.4-9.9-8.3c-2.9-2.6-2.6-4.6,1.1-6.1
			c1.1-0.5,2.8-0.6,3.9-0.2c6.2,2.6,12.3,1.8,18.6,0.1c2.2-0.6,4.6-0.4,7-0.4c3.1,0.1,5.8-0.1,8.3-2.4c1-0.9,3.6-0.6,5.3-0.1
			c0.9,0.3,1.9,2.1,1.8,3.2c-0.1,0.9-1.5,2.2-2.5,2.5c-2.8,0.9-6,1-8.7,2.2c-2.8,1.3-5.2,3.3-8.5,1.3c-0.4-0.3-2.5,1.1-2.8,2
			C338.8,116.9,334.5,118.5,328.7,117.5z"/>
		<path class="st0" d="M246.9,92.7c0.5-0.1,1-0.1,1.4-0.2c1.2-0.4,2.4-0.8,3.6-1.3c0,1.3-0.1,2.5-0.1,3.8c0.1,2.7,0.3,5.3,0.3,8
			c0,3-0.2,5.9-0.4,8.9c-0.1,3.1-1.9,4.6-4.7,5.6c-8.7,3.3-14.9,9.8-20.5,17c-0.5,0.6-0.5,1.5-0.7,2.3l-0.1,0.1
			c-1.5,1.4-2.9,3.1-4.6,4.2c-0.9,0.6-2.6,0-3.9,0c0.6-0.9,1.1-2.2,2-2.6c5.4-2.5,7.1-7.3,7.8-12.5c0.4-2.9,1.7-4.6,4-6.4
			c2.9-2.3,4.8-5.9,7.7-8.1c3.9-3.1,3.9-6.7,3.9-11.1c0-2.5,2.7-5,4.2-7.6L246.9,92.7z"/>
		<path class="st0" d="M230.8,193.7c3.4,7,6.7,14.1,10.1,21.1c2.9,6,2.9,5.9-2.2,10.4c-5.7,4.9-10.8,10.4-13.8,17.5
			c-0.8,1.9-1.4,2.3-3.1,0.8c-1.5-1.2-3.5-1.8-5.1-2.8c-0.7-0.5-1.5-1.7-1.4-2.4s1.3-1.8,2.1-1.9c10.7-1.1,11.2-1.8,9.1-12.6
			c-0.5-2.4,0-4.4,1-6.9c2-4.8,5.3-9.7,2.8-15.7C229.4,199,230.6,196.2,230.8,193.7L230.8,193.7z"/>
		<path class="st0" d="M227.9,166.8c-2.9-0.4-5.9,0-7.8-3.2c-0.4-0.6-2.8-0.5-3.9,0c-1.5,0.6-2.6,2-3.9,3c-0.5,0.4-1.4,0.4-2,0.5
			c0.3-0.7,0.5-1.9,1-2c2.6-0.7,2.8-2.5,2.5-4.7c-0.3-2.5,0.6-4,3.4-4.5c1.2-0.2,2.4-1.5,3.1-2.6c1.5-2.3,3-2.5,4.7-0.5
			c1.9,2,3.8,3.4,6.9,3.2c2.6-0.2,1.7,1.6,0.8,3C231.1,161.5,229.5,164.1,227.9,166.8L227.9,166.8z"/>
		<path class="st0" d="M372.2,122.4c-3.8-0.5-7.6-0.8-11.4-1.6c-5.5-1.2-10.9-2.8-16.3-4.4c-1-0.3-1.6-1.8-2.4-2.8
			c1.1-0.7,2.4-2.2,3.2-2c3.1,0.7,6.1,2.1,9.2,3.2c2.1,0.8,4.2,1.9,6.4,2.4c3.8,1,7.8,1.8,11.7,2.6
			C372.5,120.7,372.3,121.6,372.2,122.4z"/>
		<path class="st0" d="M277.7,155c-2.5,1.2-4.9,2.6-7.5,3.6c-0.9,0.4-2.2-0.2-3.4-0.4c0.5-1.2,0.7-3.4,1.4-3.5
			C271.3,154,274.7,151,277.7,155L277.7,155z"/>
	</g>
</g>
</svg>
