<svg xmlns="http://www.w3.org/2000/svg" viewBox="0 0 332.35 48.96"><defs><style>.cls-1{fill:#b86e79;}</style></defs><g id="Calque_2" data-name="Calque 2"><g id="Calque_1-2" data-name="Calque 1"><path class="cls-1" d="M0,48.1V.86H29.23v5H6.05V20.74H25.63v5.11H6.05V43H30V48.1Z"/><path class="cls-1" d="M40.9,48.1V.86h6.62L62.64,30.53l4.54,9.79h.14c-.1-2.35-.25-4.81-.47-7.38s-.32-5.1-.32-7.6V.86h5.76V48.1H65.66L50.54,18.43,46,8.64h-.15q.15,3.67.47,7.38t.33,7.38V48.1Z"/><path class="cls-1" d="M100.15,49a23.85,23.85,0,0,1-9.54-1.87A24.15,24.15,0,0,1,83,42l3.6-4.18a21.06,21.06,0,0,0,6.2,4.28,18,18,0,0,0,7.63,1.62q4.89,0,7.59-2.08a6.54,6.54,0,0,0,2.7-5.4,7.05,7.05,0,0,0-.64-3.17,6.82,6.82,0,0,0-1.8-2.23,12.72,12.72,0,0,0-2.7-1.66c-1-.48-2.15-1-3.35-1.51L95.47,24.7A31.08,31.08,0,0,1,91.87,23a15.67,15.67,0,0,1-3.28-2.45,11.91,11.91,0,0,1-2.41-3.42,10.63,10.63,0,0,1-.93-4.57,10.94,10.94,0,0,1,1.15-5,12.21,12.21,0,0,1,3.2-4A15,15,0,0,1,94.5.94,19.62,19.62,0,0,1,100.73,0a20.41,20.41,0,0,1,8.2,1.62,20.12,20.12,0,0,1,6.34,4.21L112.1,9.72A18.2,18.2,0,0,0,107,6.44a16.54,16.54,0,0,0-6.48-1.18,11,11,0,0,0-6.62,1.83,6,6,0,0,0-2.52,5.08,5.34,5.34,0,0,0,.75,2.91,7.88,7.88,0,0,0,1.95,2.09,12.61,12.61,0,0,0,2.7,1.55l3,1.3,6.62,2.88a29,29,0,0,1,4.07,2,14.56,14.56,0,0,1,3.31,2.59A11.29,11.29,0,0,1,116,30.92a11.88,11.88,0,0,1,.82,4.58,12.13,12.13,0,0,1-1.15,5.25A12.77,12.77,0,0,1,112.39,45a15.92,15.92,0,0,1-5.26,2.88A21.93,21.93,0,0,1,100.15,49Z"/><path class="cls-1" d="M129.6,48.1V.86h29.23v5H135.65V20.74h19.58v5.11H135.65V43h23.9V48.1Z"/><path class="cls-1" d="M169.77,48.1V.86h7.35L183.74,21l2.3,7.64h.29L188.56,21,195.26.86h7.34V48.1h-5.76V24.48c0-1.15,0-2.48.11-4s.17-3,.29-4.57.23-3,.32-4.46.2-2.67.29-3.67h-.21L195,17,188.2,35.57h-4.32L177.26,17l-2.74-9.21h-.14c.1,1,.2,2.23.33,3.67s.22,2.93.32,4.46.18,3.06.25,4.57.11,2.85.11,4V48.1Z"/><path class="cls-1" d="M214.92,48.1V.86h13.39a31.32,31.32,0,0,1,6.59.65,15.43,15.43,0,0,1,5.11,2,9.66,9.66,0,0,1,3.31,3.56,11,11,0,0,1,1.19,5.29,10.74,10.74,0,0,1-2,6.38,10.5,10.5,0,0,1-6.26,3.92V23a14.34,14.34,0,0,1,8.06,3.6,10.26,10.26,0,0,1,2.88,7.7,13.41,13.41,0,0,1-1.29,6,12,12,0,0,1-3.64,4.32,16.27,16.27,0,0,1-5.62,2.59,28.1,28.1,0,0,1-7.23.87Zm6-27.36h6.41q6,0,8.68-1.95a6.85,6.85,0,0,0,2.62-5.9c0-2.59-.92-4.41-2.77-5.44s-4.6-1.55-8.24-1.55h-6.7Zm0,22.32h7.63q6.12,0,9.44-2.13c2.2-1.41,3.31-3.73,3.31-7q0-4.38-3.24-6.3t-9.51-1.9h-7.63Z"/><path class="cls-1" d="M260.64,48.1V.86h5.9V43h23.4V48.1Z"/><path class="cls-1" d="M302.39,48.1V.86h29.24v5H308.44V20.74H328v5.11H308.44V43h23.91V48.1Z"/></g></g></svg>