<?xml version="1.0" encoding="utf-8"?>
<!-- Generator: Adobe Illustrator 22.1.0, SVG Export Plug-In . SVG Version: 6.00 Build 0)  -->
<svg version="1.1" id="Calque_1" xmlns="http://www.w3.org/2000/svg" xmlns:xlink="http://www.w3.org/1999/xlink" x="0px" y="0px"
	 viewBox="0 0 166 100" style="enable-background:new 0 0 166 100;" xml:space="preserve">
<style type="text/css">
	.st0{fill:#8A6B81;}
</style>
<g>
	<g>
		<path class="st0" d="M34.7,66.4c-2.9-0.7-4.7,1.3-6.8,1.9c-3.9,1.2-7.5,0.8-11.1-0.9c-1.4-0.6-2.4-1.4-2-3
			c0.3-1.4,1.3-2.4,2.8-2.3c7.5,0.5,14-1.8,20-6.2c1.8-1.3,3.2-0.7,4.5,1.2c3,4.1,6.9,3.8,8.4-1c1.5-4.6,4.6-9.3,0.3-14.5
			c-2-2.4-0.4-5.2,1.9-6.9c2.8-2.1,6.2-1.9,8,0.9c2,3.1,4.1,3,7,2.4c7.4-1.3,14.1,1.5,20.6,4.6c3.3,1.6,6.5,3.4,10.3,3.6
			c3.6,0.2,6.6-1.5,7.1-4.9c0.7-3.9-2.9-4.8-5.9-5.3c-9.5-1.6-19.3-1.5-28.6-4c-0.6-0.2-1.4-0.1-2-0.4c-1.3-0.5-3.4-0.3-3.4-2.2
			c0-1.5,1.8-1.7,3-2.2c8-3.2,16.2-3.5,24.4-1.1c1.1,0.3,2.2,0.6,3.4,0.8c0.3,0.1,0.6-0.2,1.2-0.4c-2.7-2.4-6.2-2.5-9.3-3.3
			c-4.4-1.2-8-3.3-10.9-6.6c-1-1.2-3.2-2.2-2.1-4c0.8-1.4,2.8-0.7,4.2-0.4c5.9,1.1,11.6,2.8,16.9,5.8c4.5,2.6,8.8,5.4,12.8,8.7
			c4,3.3,8.3,5.9,13.7,6.7c6.6,1,9.9,6.9,14.1,11.3c1.2,1.3,0,2.9-0.9,4c-1.8,2.3-4.4,3.4-7.1,4.3c-4.8,1.4-5.9,4.2-3.9,8.8
			c1.4,3,3.7,5.1,6.8,6.2c7.2,2.5,12.2,7.9,17.4,13c1.2,1.2,2.5,2.6,0.7,4.2c-1.6,1.5-3.2,0.3-4.3-0.9c-2.5-2.7-5.1-5.3-8.2-7.3
			c-1.6-1-3-2.8-5.4-1.9c2.6,3.5,5.2,6.9,7.7,10.4c0.9,1.2,2.1,2.7,0.6,4c-1.5,1.2-3.1,0.2-4.4-1.1c-0.5-0.5-1-0.9-1.3-1.5
			c-5.9-9.4-14.3-12.5-25.2-11.4c-8.8,0.9-17.1-2.4-25.2-5.3c-5.1-1.9-9-2.1-12.6,2.9c-2.6,3.7-6.9,4.3-11.3,3.2
			c-4.7-1.2-9.3-2.6-13.5-5.1c-3.8-2.2-6.4-1.9-9.3,1.7c-4.2,5.1-9.8,7.9-16.8,6c-1.4-0.4-2.6-0.6-2.8-2.3c-0.2-2.1,1.3-2.4,2.7-2.8
			C25.8,72.3,30.9,70.9,34.7,66.4z M37,64.4c-0.3-0.6-0.3-1.3-1-0.7c-0.4,0.4-0.9,0.9-1.2,1.4c-0.4,0.7,0.3,0.9,0.6,0.7
			C36,65.4,36.5,64.8,37,64.4z"/>
	</g>
</g>
</svg>
