<?xml version="1.0" encoding="utf-8"?>
<!-- Generator: Adobe Illustrator 22.1.0, SVG Export Plug-In . SVG Version: 6.00 Build 0)  -->
<svg version="1.1" id="Calque_1" xmlns="http://www.w3.org/2000/svg" xmlns:xlink="http://www.w3.org/1999/xlink" x="0px" y="0px"
	 viewBox="0 0 89.1 90" style="enable-background:new 0 0 89.1 90;" xml:space="preserve">
<style type="text/css">
	.st0{fill:#639E7C;}
</style>
<path d="M36.3,0l16.5,0c20.1,0,36.3,16.3,36.3,36.3l0,17.3C89.1,73.7,72.8,90,52.8,90l-16.5,0C16.3,90,0,73.7,0,53.7l0-17.3
	C0,16.3,16.3,0,36.3,0z"/>
<g>
	<path class="st0" d="M39.9,75l0-23c-6.5,5-15.3,7.5-21.8,7.8c11.3-11.4,21.2-26.3,26.7-44.3c5.3,18,15.8,32.2,26.7,44.3
		c-7.1-0.8-15.4-2.9-21.9-7.9l0,23.2L39.9,75z"/>
</g>
</svg>
