<?xml version="1.0" encoding="utf-8"?>
<!-- Generator: Adobe Illustrator 22.1.0, SVG Export Plug-In . SVG Version: 6.00 Build 0)  -->
<svg version="1.1" id="Layer_1" xmlns="http://www.w3.org/2000/svg" xmlns:xlink="http://www.w3.org/1999/xlink" x="0px" y="0px"
	 viewBox="0 0 663.1 242.1" style="enable-background:new 0 0 663.1 242.1;" xml:space="preserve">
<style type="text/css">
	.st0{display:none;fill:#231F20;}
	.st1{fill:#FFFFFF;}
</style>
<rect x="-31.9" y="-36.4" class="st0" width="727" height="315"/>
<g>
	<g>
		<g>
			<path class="st1" d="M45.3,242.1C14.6,241.5,0,218.2,0,189.5c0-32.3,18.2-55.3,45.3-56.3v8.1c-6.7,1.4-9,7.1-9,13v66.3
				c0,5.9,2.2,11.6,9,13.3V242.1z M51.6,133.2c5.2,0.1,16,5.6,19.6,5.6c2.1,0,2.9-0.8,3.8-2.7c0.8-1.8,1.8-2.9,3.8-2.9
				c4.5,0,4.5,4.3,4.5,5v32.5c0,0.7,0,5-4.5,5c-2.9,0-4.6-2.4-5.2-5c-2.4-11.3-9-25.9-22-29.4V133.2z M79.2,209.6
				c2.7,0,4.2,2.2,4.2,4.8c-0.3,11.5-17.2,28.3-31.8,27.7V234c10.8-2.4,19.9-9.5,23-19.9C75.4,211.7,76.3,209.6,79.2,209.6z"/>
			<path class="st1" d="M123.3,170.7l-13.2,47.9c-2.2,8.5-0.3,10.9,4.5,13c2.2,1,4.2,1.8,4.2,4.6c0,3.9-4.5,3.8-7.3,3.8H95.4
				c-2.8,0-7.8-0.1-7.8-4.2c0-3.4,2.4-3.2,5.5-4.8c2.9-1.5,6.7-4.8,9.4-14.7l16.8-61.4h0.4L123.3,170.7z M138.3,212.8h-20.4l2-8.1
				h17.1l-14.1-61.9l1.8-7.6h30.9l21,88.4c0.8,3.9,1,6.6,4.9,8.3c2,0.8,3.5,1.8,3.5,4.3c0,3.8-5,3.6-7.7,3.6h-34.8
				c-2.8,0-6.9-0.3-6.9-3.9c0-2.2,0.8-2.9,2.7-3.9c3.6-2.1,4.2-3.1,2.9-8.5L138.3,212.8z"/>
			<path class="st1" d="M227.7,141.3c-5.3,1.8-9.9,5.7-9.9,11.5c0,6.9,3.8,11.1,20.4,17.5c24.8,9.5,30.4,22.7,30.4,35.5
				c0,21.7-18.1,35.8-38.8,36.2V234c6.7-2.1,12.5-5.2,12.7-12.9c0.3-8.8-10.1-12.5-16.8-15.4c-17.6-7.4-34-15.4-34-37.4
				c0-21.3,15.4-34.4,36-35.1V141.3z M191.7,208.6c0-2.9,0.6-6.9,4.5-6.9c2.8,0,4.8,2.2,5.2,4.6c2,11.2,9.8,25.1,22.1,27.6v8.1
				c-12.2-0.3-14.8-5.2-19.9-5.2c-4.5,0-4.1,4.6-7.6,4.6c-4.3,0-4.3-5.2-4.3-5.9V208.6z M264.8,163.4c0,3.2-0.6,6.7-4.6,6.7
				c-3.4,0-4.6-2.7-5-5.5c-1.5-10.4-10.2-21-21.1-23.4v-8.1c8.8,0.1,18.2,5.5,19.7,5.5c3.6,0,3.4-5,7-5c4.3,0,4.1,4.8,4.1,5.9V163.4
				z"/>
			<path class="st1" d="M277.4,135.3h20.2v8.1c-7.3,5.2-9.2,14.4-10.5,21.8c-0.4,3.1-1.1,6.7-5,6.7c-4.2,0-4.6-3.5-4.6-4.1V135.3z
				 M303.8,135.3h34.3v89c0,5.2-0.1,6,4.8,7.6c1.8,0.6,3.1,1.8,3.1,3.8c0,4.1-4.6,4.3-5.2,4.3h-39.6c-0.6,0-5.2-0.3-5.2-4.3
				c0-2,1.3-3.2,3.1-3.8c4.9-1.5,4.8-2.4,4.8-7.6V135.3z M364.6,167.9c0,0.6-0.4,4.1-4.6,4.1c-3.9,0-4.6-3.6-5-6.7
				c-1.3-7.4-3.2-16.7-10.5-21.8v-8.1h20.2V167.9z"/>
			<path class="st1" d="M411.6,141.3c-6.6,2.4-7.1,6.6-7.1,10.1v72.5c0,3.5,0.6,7.7,7.1,10.1v8.1c-29.7-2.7-43.5-26.6-43.5-54.4
				c0-27.9,13.9-51.8,43.5-54.4V141.3z M417.9,234c6.6-2.4,7.1-6.6,7.1-10.1v-72.5c0-3.5-0.6-7.7-7.1-10.1v-8.1
				c29.7,2.7,43.5,26.6,43.5,54.4c0,27.8-13.9,51.8-43.5,54.4V234z"/>
			<path class="st1" d="M479.3,151c0-5.2,0.1-6-4.8-7.6c-1.8-0.6-3.1-1.8-3.1-3.8c0-4.1,4.6-4.3,5.2-4.3h36.9v89
				c0,5.2-0.1,6,4.8,7.6c1.8,0.6,3.1,1.8,3.1,3.8c0,4.1-4.6,4.3-5.2,4.3h-39.6c-0.6,0-5.2-0.3-5.2-4.3c0-2,1.3-3.2,3.1-3.8
				c4.9-1.5,4.8-2.4,4.8-7.6V151z M519.9,135.3h0.7c9.1,0,18.6-0.3,27,3.8c9.4,4.6,14.1,12.3,14.3,23c0.3,16.1-10.4,23.1-24.6,26.5
				v0.3c12.5,1.8,24.4,5.5,24.6,20.3v12.3c0,1.3-0.4,4.1,1.4,4.1c2.2,0,2.7-4.1,6-4.1c1.8,0,4.1,2.1,4.1,4.1c0,4.1-4.6,9.2-7.7,11.6
				c-4.8,3.9-9.8,5-15.8,5c-6,0-11.5-1.5-15.8-5.9c-4.9-5-5.6-11.2-5.6-17.8v-9.5c0-6.4-0.1-14.3-8.5-15.1v-8.3
				c7.6-0.7,8.5-5.3,8.5-12.2v-16.9c0-7-1.5-10.4-8.5-12.9V135.3z"/>
		</g>
	</g>
	<g>
		<g>
			<polygon class="st1" points="16.5,70.4 9.4,70.4 9.4,105.6 30.3,105.6 30.3,99.2 16.5,99.2 			"/>
			<polygon class="st1" points="53.4,90.5 65.9,90.5 65.9,84.1 53.4,84.1 53.4,76.9 66.7,76.9 66.7,70.4 46.3,70.4 46.3,105.6 
				67.4,105.6 67.4,99.2 53.4,99.2 			"/>
			<path class="st1" d="M128.1,73.3c-2.3-2-5.6-3.1-10-3.1c-2.9,0-5.6,0.2-8.2,0.6l-1.2,0.2v34.6h7.1V93c0.6,0,1.3,0.1,1.9,0.1
				c4.6,0,8.5-1.4,10.9-4c1.9-2,2.9-4.6,2.9-7.9C131.4,77.9,130.3,75.1,128.1,73.3z M117.7,86.7c-0.8,0-1.4,0-2-0.1v-10
				c0.6-0.1,1.4-0.1,2.4-0.1c4.1,0,6.1,1.6,6.1,4.8C124.3,85.8,120.7,86.7,117.7,86.7z"/>
			<polygon class="st1" points="155.5,90.5 168.1,90.5 168.1,84.1 155.5,84.1 155.5,76.9 168.8,76.9 168.8,70.4 148.4,70.4 
				148.4,105.6 169.5,105.6 169.5,99.2 155.5,99.2 			"/>
			<polygon class="st1" points="183.4,76.9 193.2,76.9 193.2,105.6 200.3,105.6 200.3,76.9 210.2,76.9 210.2,70.4 183.4,70.4 			"/>
			<rect x="225.2" y="70.4" class="st1" width="7.1" height="35.2"/>
			<polygon class="st1" points="247.3,70.4 247.3,76.9 257.1,76.9 257.1,105.6 264.2,105.6 264.2,76.9 274.1,76.9 274.1,70.4 			"/>
		</g>
		<g>
			<g>
				<path class="st1" d="M347.3,110.3c0,0,0.2-0.8,0.5-2.3c0.3-1.4,0.8-3.4,1.5-5.8c1.3-4.8,3.2-11.1,5.7-17.2
					c2.4-6.1,5.5-12.1,8.8-15.9c0.8-1,1.6-1.8,2.4-2.4c0.4-0.3,0.8-0.6,1.1-0.8c0.4-0.2,0.7-0.5,1-0.6c0.3-0.2,0.6-0.3,0.9-0.4
					c0.3-0.1,0.5-0.2,0.7-0.2c0.4-0.1,0.5-0.2,0.5-0.2s-0.2,0.1-0.5,0.3c-0.2,0.1-0.3,0.2-0.6,0.4c-0.2,0.2-0.4,0.4-0.7,0.6
					c-0.3,0.2-0.5,0.5-0.8,0.8c-0.3,0.3-0.5,0.6-0.8,1c-0.5,0.8-1,1.7-1.5,2.7c-1.9,4.2-3,10.3-3.6,16.4c-0.6,6.2-0.6,12.4-0.5,17
					c0.1,2.3,0.1,4.2,0.2,5.6c0.1,1.3,0.1,2,0.1,2L347.3,110.3z"/>
			</g>
			<g>
				<path class="st1" d="M355.2,94.6c-2.4,2.5-5.1,4.8-7.9,6.9c-2.8,2.1-5.8,4-9,5.6c-3.2,1.6-6.7,2.9-10.4,3.6
					c-3.7,0.8-7.7,0.9-11.7-0.1c-3.9-0.9-7.7-2.9-10.8-5.5c-0.8-0.6-1.5-1.3-2.2-2l-1-1.1l-0.9-1.1c-0.6-0.8-1.2-1.5-1.7-2.3
					l-0.8-1.2l-0.4-0.6l-0.2-0.3l-0.3-0.6l-1.2-2.3c-0.2-0.3-0.4-0.9-0.6-1.5l-0.6-1.7c-0.2-0.5-0.4-1.1-0.5-1.7l-0.3-1.6
					c-0.2-1-0.4-2.1-0.4-3.1c-0.3-4.2,0.5-8.2,1.7-12c1.1-3.8,2.8-7.2,4.5-10.5c1.8-3.3,3.8-6.3,6-9.2c1.1-1.5,2.2-2.9,3.3-4.3
					c1.2-1.4,2.3-2.8,3.5-4.1c2.4-2.7,4.8-5.3,7.3-7.7c2.5-2.5,5.1-4.9,7.7-7.2c2.6-2.3,5.3-4.6,8-6.8c2.7-2.2,5.5-4.3,8.4-6.4
					c2.9-2.1,5.7-4,8.8-6l7.7-5l1.9,8.7c0.8,3.6,1.6,7.1,2.3,10.7l2.2,10.7l-9.1-2.6c1.2-1.1,2.2-1.8,3.3-2.7
					c1.1-0.8,2.2-1.7,3.3-2.5c2.2-1.6,4.4-3.1,6.7-4.6c4.5-2.9,9.2-5.6,14-8c4.8-2.4,9.7-4.6,14.7-6.5c5-1.9,10.1-3.5,15.3-4.8
					c5.2-1.4,10.5-2.2,15.8-2.8l4-0.4l4-0.2c1.3-0.1,2.7-0.1,4-0.1c1.3,0,2.7,0,4,0.1c2.7,0.2,5.4,0.3,8,0.8c1.3,0.2,2.7,0.3,4,0.6
					l4,0.8c1.3,0.2,2.6,0.6,3.9,1l3.9,1.1l3.8,1.3c1.3,0.4,2.6,0.8,3.8,1.4c2.5,1,5,2,7.4,3.3l3.6,1.8l3.5,2c1.1,0.7,2.3,1.2,3.4,2
					l3.5,2.2l1.7,1.1l1.6,1.2l3.3,2.4c4.3,3.4,8.5,6.9,12.2,11.1c3.7,4.1,7.2,8.5,10.1,13.4c2.8,4.9,5.2,10.1,6.9,15.5
					c1.7,5.4,2.7,11.1,3.2,16.8c0.4,5.7,0.2,11.4-0.6,17.1c-0.4,2.8-0.9,5.6-1.6,8.4c-0.3,1.4-0.7,2.8-1.2,4.2
					c-0.2,0.7-0.4,1.4-0.7,2.1l-0.4,1.1l-0.2,0.6l-0.3,0.7l-6.5-10.2c3.8,0.1,7.2,0.3,10.7,0.5c3.5,0.3,7,0.6,10.5,1.1
					c3.5,0.4,7,0.9,10.5,1.5c3.5,0.5,7,1.2,10.4,1.9c3.5,0.7,6.9,1.6,10.3,2.5l5.1,1.4l5.1,1.6c3.4,1.2,6.8,2.3,10.1,3.7
					c1.7,0.7,3.3,1.3,5,2.1c1.6,0.8,3.3,1.4,4.9,2.3l4.8,2.4l4.7,2.7c1.6,0.9,3.1,1.9,4.6,2.9c0.8,0.5,1.5,1,2.3,1.5l2.2,1.6
					c3,2.1,5.8,4.6,8.5,7l4,3.9c1.3,1.3,2.5,2.8,3.7,4.2c1.3,1.4,2.3,2.9,3.4,4.4l1.6,2.3c0.5,0.8,1,1.6,1.5,2.4l1.4,2.4
					c0.5,0.8,1,1.6,1.3,2.5l2.4,5.1c1.3,3.5,2.6,7,3.4,10.6c1,3.6,1.4,7.3,1.9,10.9l0.2,1.4l-0.5,1.2c-0.3,0.8-0.5,1.1-0.8,1.6
					c-0.2,0.5-0.5,0.9-0.8,1.3c-0.5,0.9-1.1,1.6-1.7,2.4c-0.6,0.8-1.3,1.4-1.9,2.1c-0.6,0.7-1.3,1.3-2,1.9c-1.4,1.3-2.9,2.3-4.4,3.3
					c-0.8,0.5-1.6,0.9-2.4,1.3c-0.8,0.4-1.6,0.9-2.4,1.2c-1.7,0.6-3.4,1.3-5.1,1.7c-1.7,0.3-3.4,0.8-5.2,1l-5.1,0.4
					c-1.7,0-3.4-0.1-5-0.2c-0.8-0.1-1.7-0.1-2.5-0.2l-2.4-0.4c-1.6-0.3-3.3-0.6-4.9-0.9l-4.7-1.3c-1.5-0.5-3.1-0.8-4.6-1.5l-4.5-1.8
					c-1.5-0.6-3-1.1-4.4-1.9l-8.5-4.3l0.6-1.4l9,2.7c1.5,0.5,3,0.8,4.5,1.1l4.5,1c1.5,0.4,3,0.5,4.5,0.8l4.5,0.7
					c1.5,0.1,3,0.1,4.5,0.2l2.2,0.1c0.7,0,1.5-0.1,2.2-0.1c1.5-0.1,2.9-0.1,4.4-0.3l4.2-0.8c1.4-0.3,2.7-0.9,4-1.2
					c0.7-0.2,1.3-0.5,1.9-0.8l1.9-0.9c0.6-0.3,1.1-0.7,1.7-1c0.5-0.4,1.2-0.7,1.7-1.1c1-0.9,2.1-1.6,2.9-2.6
					c0.4-0.5,0.9-0.9,1.3-1.4c0.4-0.5,0.8-1,1.1-1.5c0.3-0.5,0.7-1,0.9-1.6c0.1-0.3,0.3-0.5,0.4-0.8c0.1-0.2,0.2-0.6,0.2-0.5
					l-0.3,2.6c-0.8-3.1-1.2-6.2-2.3-9.1c-0.8-3-2.2-5.8-3.5-8.6l-2.3-4c-0.3-0.7-0.8-1.3-1.2-2l-1.3-1.9c-0.4-0.6-0.8-1.3-1.3-1.9
					l-1.5-1.8c-1-1.2-1.9-2.4-3-3.5c-1.1-1.1-2.1-2.3-3.3-3.3l-3.5-3.1c-2.5-1.9-4.9-3.9-7.6-5.6l-2-1.3c-0.7-0.4-1.4-0.8-2-1.2
					c-1.4-0.8-2.7-1.7-4.1-2.4l-4.3-2.2l-4.4-2.1c-1.4-0.7-3-1.3-4.4-1.9c-1.5-0.7-3-1.2-4.5-1.8c-3-1.2-6.1-2.2-9.2-3.3l-4.7-1.5
					l-4.7-1.3c-3.2-0.9-6.4-1.7-9.6-2.4c-1.6-0.4-3.2-0.7-4.8-1.1c-1.6-0.4-3.2-0.7-4.9-1c-3.2-0.6-6.5-1.2-9.8-1.7
					c-3.3-0.5-6.6-0.9-9.9-1.3c-3.3-0.4-6.7-0.7-9.7-0.8l-10.7-0.6l4.2-9.6l0.3-0.6l0.3-0.8c0.2-0.5,0.4-1.1,0.6-1.6
					c0.4-1.1,0.7-2.2,1.1-3.3c0.7-2.3,1.2-4.6,1.6-6.9c0.8-4.7,1.2-9.5,1-14.2c-0.1-4.8-0.8-9.5-1.9-14.1c-1.2-4.6-2.8-9.1-4.9-13.5
					c-2.2-4.3-4.8-8.4-7.7-12.4c-2.9-4-6.4-7.5-10-11l-2.8-2.5l-1.4-1.2l-1.5-1.1l-2.9-2.3c-1-0.8-2.1-1.5-3.2-2.2l-3.2-2.2
					l-3.3-1.9c-2.1-1.4-4.4-2.4-6.7-3.6c-2.2-1.2-4.6-2-7-3l-3.6-1.2c-1.2-0.4-2.4-0.8-3.7-1.1L459,6.2c-1.2-0.3-2.5-0.5-3.8-0.7
					c-2.5-0.5-5-0.6-7.6-0.9c-5.1-0.2-10.2-0.3-15.3,0.4c-5.1,0.6-10.1,1.6-15,3.2c-4.9,1.5-9.7,3.3-14.3,5.5
					c-4.6,2.2-9.1,4.7-13.4,7.5c-4.3,2.8-8.4,5.8-12.4,9c-2,1.6-3.9,3.2-5.8,4.9c-1.8,1.7-3.7,3.5-5.3,5.1l-6.3,6.6l-2.8-9.2
					l-3.2-10.5c-1.1-3.5-2.1-7-3.1-10.5l9.6,3.7c-2.6,1.9-5.3,3.9-7.9,5.9c-2.7,2-5.2,4.1-7.8,6.2c-2.6,2.1-5.1,4.3-7.6,6.4
					c-2.5,2.2-5,4.4-7.4,6.7c-2.4,2.3-4.7,4.6-7,7c-1.1,1.2-2.2,2.4-3.3,3.6c-1,1.2-2.1,2.5-3.1,3.7c-2,2.5-3.9,5.1-5.5,7.7
					c-1.6,2.6-3.1,5.3-4.1,8.1c-1,2.7-1.8,5.5-1.8,8.1c-0.1,0.7,0,1.3,0,2l0.1,1c0,0.3,0.1,0.5,0.2,0.8l0.2,0.8c0.1,0.3,0,0.5,0.2,1
					l1,2.4l0.1,0.1l0,0.1c0,0.1-0.3-0.6-0.2-0.3l0,0l0.1,0.2l0.3,0.5l0.5,1c0.3,0.7,0.8,1.3,1.2,1.9l0.6,0.9l0.7,0.8
					c0.4,0.6,0.9,1.1,1.4,1.6c1.9,2.1,4.2,3.6,6.9,4.6c5.3,1.9,11.8,1.3,18-0.8c6.2-2,12.3-5.2,17.9-9L355.2,94.6z"/>
			</g>
			<g>
				<path class="st1" d="M407.2,110.9c0,0-0.6-2.2-1.2-6c-0.4-1.9-0.7-4.3-1-7c-0.3-2.7-0.6-5.8-0.7-9.1c-0.1-3.4-0.1-7,0.2-10.9
					c0.2-3.9,0.8-8,1.6-12.3c1-4.2,2.1-8.7,4.1-13c0.4-1.1,1-2.1,1.6-3.2c0.6-1.1,1.1-2.2,1.8-3.2l2-3.1c0.7-1,1.5-2,2.3-2.9
					c0.4-0.5,0.8-1,1.2-1.5l1.3-1.4c0.9-0.9,1.7-1.9,2.7-2.7c1.9-1.6,3.8-3.4,5.9-4.7c1.1-0.7,2.1-1.5,3.2-2
					c1.1-0.6,2.2-1.1,3.3-1.7c0.6-0.3,1.1-0.6,1.7-0.8c0.6-0.2,1.1-0.4,1.7-0.6c1.1-0.4,2.3-0.7,3.4-1.1c2.3-0.6,4.6-0.9,6.8-1.2
					c2.2-0.2,4.4-0.1,6.5-0.2c1.1,0,2.1,0.1,3.1,0.2c1,0.1,2,0.2,2.9,0.3c1,0.1,1.9,0.2,2.8,0.4c0.9,0.2,1.8,0.4,2.6,0.6
					c1.7,0.4,3.4,0.8,4.9,1.2c1.5,0.5,2.9,1,4.2,1.6c1.3,0.5,2.5,1,3.7,1.5c1.1,0.5,2.1,1.1,3,1.6c1.8,1,3.1,1.8,4.1,2.4
					c0.9,0.6,1.4,0.9,1.4,0.9l-0.4,1.4c0,0-0.6,0.1-1.7,0.2c-1.1,0.1-2.6,0.2-4.6,0.3c-1,0-2,0.1-3.2,0.1c-1.2,0.1-2.4,0.2-3.7,0.2
					c-1.3,0.1-2.7,0.1-4.2,0.1c-1.4,0.1-3,0.3-4.5,0.3c-0.8,0.1-1.6,0.1-2.4,0.1c-0.8,0.1-1.6,0.2-2.4,0.3c-1.6,0.2-3.3,0.3-5,0.6
					c-1.7,0.3-3.4,0.6-5.1,0.8c-1.7,0.4-3.4,0.7-5.1,1.1c-3.3,0.9-6.9,1.7-10.1,3.2c-1.7,0.6-3.2,1.7-4.9,2.6
					c-0.8,0.5-1.5,1.1-2.2,1.7l-1.1,0.9c-0.4,0.3-0.7,0.7-1,1c-2.8,2.6-5.1,5.8-7.1,9.1c-2,3.4-3.6,7-5,10.7
					c-1.3,3.7-2.3,7.3-3.1,10.9c-0.8,3.6-1.4,7-1.7,10.2c-0.8,6.4-1,11.9-1.1,15.7c0,3.8,0.1,6,0.1,6L407.2,110.9z"/>
			</g>
		</g>
		<g>
			<path class="st1" d="M328.1,74.7c0,2.3-1.8,4.1-4.1,4.1c-2.3,0-4.1-1.8-4.1-4.1c0-2.3,1.8-4.1,4.1-4.1
				C326.3,70.6,328.1,72.4,328.1,74.7z"/>
		</g>
	</g>
</g>
</svg>
