<?xml version="1.0" encoding="utf-8"?>
<!-- Generator: Adobe Illustrator 22.1.0, SVG Export Plug-In . SVG Version: 6.00 Build 0)  -->
<svg version="1.1" id="Layer_1" xmlns="http://www.w3.org/2000/svg" xmlns:xlink="http://www.w3.org/1999/xlink" x="0px" y="0px"
	 viewBox="0 0 150.7 110" style="enable-background:new 0 0 150.7 110;" xml:space="preserve">
<style type="text/css">
	.st0{fill:#FFFFFF;}
</style>
<g>
	<polygon class="st0" points="0,23.2 0,97.7 44.8,60.4 	"/>
	<path class="st0" d="M138.8,0H11.9C6,0,1.1,4.3,0.2,9.9l59.2,49.2l9.9,8.2c3.4,2.8,8.8,2.8,12.2,0l10.4-8.6l58.7-48.8
		C149.5,4.3,144.6,0,138.8,0z"/>
	<polygon class="st0" points="150.7,97.7 150.7,23.2 105.9,60.4 	"/>
	<path class="st0" d="M89.4,74.1l-8,6.7c-3.4,2.8-8.8,2.8-12.2,0l-10.3-8.6l-6-5L4.5,107.4c2,1.6,4.6,2.6,7.4,2.6h126.9
		c2.8,0,5.4-1,7.4-2.6L97.8,67.1L89.4,74.1z"/>
</g>
</svg>
