<?xml version="1.0" encoding="utf-8"?>
<!-- Generator: Adobe Illustrator 22.1.0, SVG Export Plug-In . SVG Version: 6.00 Build 0)  -->
<svg version="1.1" id="Layer_1" xmlns="http://www.w3.org/2000/svg" xmlns:xlink="http://www.w3.org/1999/xlink" x="0px" y="0px"
	 viewBox="0 0 110 110" style="enable-background:new 0 0 110 110;" xml:space="preserve">
<style type="text/css">
	.st0{fill:#FFFFFF;}
</style>
<path class="st0" d="M100.9,0H9.1C4.1,0,0,4.1,0,9.1v17v3.9v50.2V83v18c0,5,4.1,9.1,9.1,9.1h91.9c5,0,9.1-4.1,9.1-9.1V83v-2.9V29.9
	v-3.9v-17C110,4.1,105.9,0,100.9,0z M75.3,10.2h27.1V12H75.3V10.2z M75.3,13.2h27.1V15H75.3V13.2z M75.3,16.2h27.1V18H75.3V16.2z
	 M75.3,19.3h27.1v1.8H75.3V19.3z M75.3,22.3h27.1v1.8H75.3V22.3z M17.1,10.1c3.3,0,6,2.7,6,6c0,3.3-2.7,6-6,6c-3.3,0-6-2.7-6-6
	C11.1,12.8,13.8,10.1,17.1,10.1z M2.3,80.1V29.9h39.3c-8.9,4.8-15,14.2-15,25.1c0,10.9,6.1,20.3,15,25.1H2.3z M55,72.1
	c-9.4,0-17.1-7.6-17.1-17.1c0-9.4,7.6-17.1,17.1-17.1c9.4,0,17.1,7.6,17.1,17.1C72.1,64.4,64.4,72.1,55,72.1z M107.7,80.1H68.5
	c8.9-4.8,15-14.2,15-25.1c0-10.9-6.1-20.3-15-25.1h39.3V80.1z"/>
</svg>
