<?xml version="1.0" encoding="utf-8"?>
<!-- Generator: Adobe Illustrator 22.1.0, SVG Export Plug-In . SVG Version: 6.00 Build 0)  -->
<svg version="1.1" id="Layer_1" xmlns="http://www.w3.org/2000/svg" xmlns:xlink="http://www.w3.org/1999/xlink" x="0px" y="0px"
	 viewBox="0 0 63.2 110" style="enable-background:new 0 0 63.2 110;" xml:space="preserve">
<style type="text/css">
	.st0{fill:#FFFFFF;}
</style>
<path class="st0" d="M54.7,10.1h-36V5.5c0-3.1-2.5-5.5-5.5-5.5C10,0,7.6,2.5,7.6,5.5v4.6C3.3,10.7,0,14.3,0,18.7v82.8
	c0,4.7,3.8,8.5,8.5,8.5h46.1c4.7,0,8.5-3.8,8.5-8.5V18.7C63.2,14,59.4,10.1,54.7,10.1z M23.6,81.3c0,0.5-0.7,0.9-1.6,0.9H8.9
	c-0.9,0-1.6-0.4-1.6-0.9v-7.9c0-0.5,0.7-0.9,1.6-0.9H22c0.9,0,1.6,0.4,1.6,0.9V81.3z M36.2,81.3c0,0.5-0.4,0.9-0.9,0.9h-7.4
	c-0.5,0-0.9-0.4-0.9-0.9v-7.9c0-0.5,0.4-0.9,0.9-0.9h7.4c0.5,0,0.9,0.4,0.9,0.9V81.3z M56,81.3c0,0.5-0.7,0.9-1.6,0.9H41
	c-0.9,0-1.6-0.4-1.6-0.9v-7.9c0-0.5,0.7-0.9,1.6-0.9h13.4c0.9,0,1.6,0.4,1.6,0.9V81.3z M56,64.2c0,2.6-2.1,4.8-4.8,4.8H12
	c-2.6,0-4.8-2.1-4.8-4.8V22.3c0-2.6,2.1-4.8,4.8-4.8h39.1c2.6,0,4.8,2.1,4.8,4.8V64.2z"/>
</svg>
