<?xml version="1.0" encoding="utf-8"?>
<!-- Generator: Adobe Illustrator 22.1.0, SVG Export Plug-In . SVG Version: 6.00 Build 0)  -->
<svg version="1.1" id="Layer_1" xmlns="http://www.w3.org/2000/svg" xmlns:xlink="http://www.w3.org/1999/xlink" x="0px" y="0px"
	 viewBox="0 0 110 110" style="enable-background:new 0 0 110 110;" xml:space="preserve">
<style type="text/css">
	.st0{fill:#FFFFFF;}
</style>
<g>
	<path class="st0" d="M41.2,38.9c1.1-1.1,2.6-3,3.4-5c2.8-6.8,1.5-8.2,1.5-8.2c-1.8-4-5.8-9.2-10.9-14.4C30.1,6.2,24.8,2.2,20.8,0.4
		c0,0-6.4-2-11.2,2.9c0,0,0,0,0,0c0,0,0,0,0,0l0,0C8.8,4,8.2,4.7,7.7,5.3L41.2,38.9z"/>
	<path class="st0" d="M109.6,89.2c-1.8-3.9-5.8-9.2-10.9-14.4c-5.2-5.2-10.5-9.1-14.4-10.9c0,0-1.3-1.3-8.2,1.5
		c-2,0.8-3.9,2.4-5,3.4l33.6,33.6c0.7-0.6,1.3-1.2,2-1.9h0c0,0,0,0,0,0c0,0,0.1,0,0,0C111.6,95.6,109.6,89.2,109.6,89.2z"/>
	<path class="st0" d="M67.5,73.6c-1.1,1.4-2.7,2-4.7,2c-6.1,0-15.2-5.5-19.1-9.3c-5.1-5.1-13.1-19.5-7.3-23.8c0.3-0.2,0.7-0.4,1-0.6
		L4.7,9.2C-0.2,16.7,0,22.6,0,22.6s-0.9,27.1,29.7,57.7C58.7,109.2,84.5,110,87.2,110c0.1,0,0.2,0,0.2,0s0,0,0.1,0
		c0.8,0,6.4-0.2,13.3-4.7L68.2,72.6C67.9,72.9,67.7,73.3,67.5,73.6z"/>
</g>
</svg>
