<?xml version="1.0" encoding="utf-8"?>
<!-- Generator: Adobe Illustrator 22.1.0, SVG Export Plug-In . SVG Version: 6.00 Build 0)  -->
<svg version="1.1" id="Layer_1" xmlns="http://www.w3.org/2000/svg" xmlns:xlink="http://www.w3.org/1999/xlink" x="0px" y="0px"
	 viewBox="0 0 80.2 80.2" style="enable-background:new 0 0 80.2 80.2;" xml:space="preserve">
<style type="text/css">
	.st0{fill:#FFFFFF;}
</style>
<path class="st0" d="M40.1,0C18,0,0,18,0,40.1c0,22.2,18,40.1,40.1,40.1c22.2,0,40.1-18,40.1-40.1C80.2,18,62.3,0,40.1,0z
	 M51.9,22.9c0,0.4-0.3,0.6-0.6,0.6h-5.1c-1.3,0-2.3,1-2.3,2.3v5.3h7.2c0.4,0,0.7,0.3,0.6,0.7l-0.6,7.5c0,0.3-0.3,0.6-0.6,0.6h-6.6
	v25c0,0.4-0.3,0.6-0.6,0.6h-9.1c-0.4,0-0.6-0.3-0.6-0.6V40.3v-0.4h-4.6c-0.4,0-0.6-0.3-0.6-0.6v-7.5c0-0.4,0.3-0.6,0.6-0.6h4.6v-7.3
	c0-5.1,4.1-9.2,9.2-9.2h8.6c0.4,0,0.6,0.3,0.6,0.6V22.9z"/>
</svg>
