<?xml version="1.0" encoding="utf-8"?>
<!-- Generator: Adobe Illustrator 24.3.0, SVG Export Plug-In . SVG Version: 6.00 Build 0)  -->
<svg version="1.1" id="Layer_1" xmlns="http://www.w3.org/2000/svg" xmlns:xlink="http://www.w3.org/1999/xlink" x="0px" y="0px"
	 viewBox="0 0 438.8 438.8" style="enable-background:new 0 0 438.8 438.8;" xml:space="preserve">
<style type="text/css">
	.st0{fill:#FBB03B;}
	.st1{fill:#D8B256;}
	.st2{fill:#D9E5ED;}
	.st3{fill:none;stroke:#000000;stroke-width:3;stroke-linecap:round;stroke-linejoin:round;stroke-miterlimit:10;}
	.st4{fill:#D9E5ED;stroke:#000000;stroke-width:3;stroke-linecap:round;stroke-linejoin:round;stroke-miterlimit:10;}
	.st5{fill:none;stroke:#000000;stroke-width:3.3776;stroke-linecap:round;stroke-linejoin:round;stroke-miterlimit:10;}
	.st6{fill:#BC9A4D;}
	.st7{fill:none;stroke:#000000;stroke-width:3.8616;stroke-linecap:round;stroke-linejoin:round;stroke-miterlimit:10;}
	.st8{fill:none;stroke:#000000;stroke-width:4;stroke-linecap:round;stroke-linejoin:round;stroke-miterlimit:10;}
	.st9{fill:#FFFFFF;stroke:#000000;stroke-width:4;stroke-linecap:round;stroke-linejoin:round;stroke-miterlimit:10;}
	.st10{fill:#B2C7D1;}
	.st11{fill:#DD4C49;}
	.st12{fill:#B23636;}
	.st13{fill:none;stroke:#000000;stroke-width:2.5421;stroke-linecap:round;stroke-linejoin:round;stroke-miterlimit:10;}
	.st14{fill:#2E6D7E;}
	.st15{fill:#225460;}
	.st16{fill:#629364;}
</style>
<g>
	<circle class="st0" cx="219.4" cy="219.4" r="219.4"/>
	<g>
		<g>
			<g>
				<g>
					<rect x="262.2" y="102.5" class="st1" width="96.2" height="248.8"/>
				</g>
				<rect x="290.7" y="315.7" class="st2" width="39.1" height="35.5"/>
				<polyline class="st3" points="290.7,351.2 290.7,315.7 329.8,315.7 329.8,351.2 				"/>
				<line class="st3" x1="310.3" y1="316.2" x2="310.3" y2="351.4"/>
				<line class="st4" x1="313.5" y1="335.4" x2="319.2" y2="335.4"/>
				<polyline class="st5" points="358.4,232.1 358.4,351.2 262.2,351.2 262.2,301.9 				"/>
				<polyline class="st5" points="262.2,292.8 262.2,102.5 358.4,102.5 358.4,224.1 				"/>
				<rect x="263.9" y="106.7" class="st6" width="93" height="8.1"/>
				
					<rect x="193.6" y="259.7" transform="matrix(-1.836970e-16 1 -1 -1.836970e-16 544.4275 -4.2701)" class="st6" width="161.5" height="20.7"/>
				<g>
					<g>
						<polygon class="st1" points="262,100.7 310.3,52.4 358.6,100.7 						"/>
						<polygon class="st7" points="262,100.7 310.3,52.4 358.6,100.7 						"/>
					</g>
					<rect x="260.7" y="100.9" class="st1" width="98.1" height="6.4"/>
					<rect x="260.7" y="100.9" class="st8" width="98.1" height="6.4"/>
				</g>
				<g>
					<circle class="st9" cx="310.3" cy="136.4" r="16.9"/>
					<polyline class="st9" points="309.2,126 309.2,138.2 319.7,138.2 					"/>
				</g>
				<g>
					<g>
						<rect x="277.9" y="165.9" class="st2" width="17.2" height="27.5"/>
						<rect x="301.7" y="165.9" class="st2" width="17.2" height="27.5"/>
						<rect x="325.5" y="165.9" class="st2" width="17.2" height="27.5"/>
						<rect x="277.9" y="189.1" class="st10" width="6.8" height="4.4"/>
					</g>
					<g>
						<rect x="277.9" y="219.8" class="st2" width="17.2" height="27.5"/>
						<rect x="301.7" y="219.8" class="st2" width="17.2" height="27.5"/>
						<rect x="325.5" y="219.8" class="st2" width="17.2" height="27.5"/>
						<rect x="277.9" y="219.8" class="st10" width="7.6" height="27.5"/>
					</g>
					<g>
						<rect x="277.9" y="273.7" class="st2" width="17.2" height="27.5"/>
						<rect x="301.7" y="273.7" class="st2" width="17.2" height="27.5"/>
						<rect x="325.5" y="273.7" class="st2" width="17.2" height="27.5"/>
						<rect x="277.9" y="273.7" class="st10" width="7.6" height="27.5"/>
					</g>
					<g>
						<rect x="277.9" y="165.9" class="st3" width="17.2" height="27.5"/>
						<rect x="301.7" y="165.9" class="st3" width="17.2" height="27.5"/>
						<rect x="325.5" y="165.9" class="st3" width="17.2" height="27.5"/>
					</g>
					<g>
						<rect x="277.9" y="219.8" class="st3" width="17.2" height="27.5"/>
						<rect x="301.7" y="219.8" class="st3" width="17.2" height="27.5"/>
						<rect x="325.5" y="219.8" class="st3" width="17.2" height="27.5"/>
					</g>
					<g>
						<rect x="277.9" y="273.7" class="st3" width="17.2" height="27.5"/>
						<rect x="301.7" y="273.7" class="st3" width="17.2" height="27.5"/>
						<rect x="325.5" y="273.7" class="st3" width="17.2" height="27.5"/>
					</g>
				</g>
			</g>
			<g>
				<g>
					<rect x="174.8" y="212.2" class="st11" width="96.2" height="139.1"/>
				</g>
				<rect x="203.4" y="315.7" class="st2" width="39.1" height="35.5"/>
				<polyline class="st3" points="203.4,351.2 203.4,315.7 242.5,315.7 242.5,351.2 				"/>
				<line class="st3" x1="223" y1="316.2" x2="223" y2="351.4"/>
				<line class="st4" x1="226.2" y1="335.4" x2="231.9" y2="335.4"/>
				<rect x="178.1" y="213.7" class="st12" width="93" height="8.1"/>
				
					<rect x="117.5" y="270.8" transform="matrix(-1.836970e-16 1 -1 -1.836970e-16 468.8875 95.4618)" class="st12" width="138.4" height="22.8"/>
				<polyline class="st13" points="174.8,318.1 174.8,210.3 271.1,210.3 271.1,351.2 174.8,351.2 174.8,323.3 				"/>
				<rect x="165.3" y="198.8" class="st11" width="115.3" height="15.1"/>
				<rect x="165.3" y="197.8" class="st8" width="115.3" height="15.1"/>
				<g>
					<rect x="190.6" y="227" class="st2" width="17.2" height="27.5"/>
					<rect x="214.4" y="227" class="st2" width="17.2" height="27.5"/>
					<rect x="238.2" y="227" class="st2" width="17.2" height="27.5"/>
				</g>
				<g>
					<rect x="190.6" y="280.9" class="st2" width="17.2" height="27.5"/>
					<rect x="190.6" y="227" class="st10" width="7.6" height="27.5"/>
					<rect x="190.6" y="280.9" class="st10" width="7.6" height="27.5"/>
					<rect x="214.4" y="280.9" class="st2" width="17.2" height="27.5"/>
					<rect x="238.2" y="280.9" class="st2" width="17.2" height="27.5"/>
				</g>
				<g>
					<rect x="190.6" y="227" class="st3" width="17.2" height="27.5"/>
					<rect x="214.4" y="227" class="st3" width="17.2" height="27.5"/>
					<rect x="238.2" y="227" class="st3" width="17.2" height="27.5"/>
				</g>
				<g>
					<rect x="190.6" y="280.9" class="st3" width="17.2" height="27.5"/>
					<rect x="214.4" y="280.9" class="st3" width="17.2" height="27.5"/>
					<rect x="238.2" y="280.9" class="st3" width="17.2" height="27.5"/>
				</g>
			</g>
			<g>
				<g>
					<rect x="89.5" y="155" class="st14" width="96.2" height="196.2"/>
				</g>
				<g>
					<rect x="105.2" y="173.1" class="st2" width="17.2" height="27.5"/>
					<rect x="129.1" y="173.1" class="st2" width="17.2" height="27.5"/>
					<rect x="152.9" y="173.1" class="st2" width="17.2" height="27.5"/>
				</g>
				<g>
					<rect x="105.2" y="227" class="st2" width="17.2" height="27.5"/>
					<rect x="129.1" y="227" class="st2" width="17.2" height="27.5"/>
					<rect x="152.9" y="227" class="st2" width="17.2" height="27.5"/>
				</g>
				<g>
					<rect x="105.2" y="280.9" class="st2" width="17.2" height="27.5"/>
					<rect x="129.1" y="280.9" class="st2" width="17.2" height="27.5"/>
					<rect x="152.9" y="280.9" class="st2" width="17.2" height="27.5"/>
				</g>
				<g>
					<rect x="105.2" y="173.1" class="st3" width="17.2" height="27.5"/>
					<rect x="129.1" y="173.1" class="st3" width="17.2" height="27.5"/>
					<rect x="152.9" y="173.1" class="st3" width="17.2" height="27.5"/>
				</g>
				<g>
					<rect x="105.2" y="227" class="st3" width="17.2" height="27.5"/>
					<rect x="129.1" y="227" class="st3" width="17.2" height="27.5"/>
					<rect x="152.9" y="227" class="st3" width="17.2" height="27.5"/>
				</g>
				<g>
					<rect x="105.2" y="280.9" class="st3" width="17.2" height="27.5"/>
					<rect x="129.1" y="280.9" class="st3" width="17.2" height="27.5"/>
					<rect x="152.9" y="280.9" class="st3" width="17.2" height="27.5"/>
				</g>
				<rect x="118.1" y="315.7" class="st2" width="39.1" height="35.5"/>
				<polyline class="st3" points="118.1,351.2 118.1,315.7 157.2,315.7 157.2,351.2 				"/>
				<line class="st3" x1="137.6" y1="316.2" x2="137.6" y2="351.4"/>
				<line class="st4" x1="140.9" y1="335.4" x2="146.6" y2="335.4"/>
				<rect x="91.3" y="157.2" class="st15" width="93" height="8.1"/>
				<polyline class="st3" points="89.5,305.1 89.5,155 185.8,155 185.8,351.2 89.5,351.2 89.5,312.4 				"/>
				<rect x="80" y="143" class="st14" width="115.3" height="15.1"/>
				<rect x="80" y="142" class="st8" width="115.3" height="15.1"/>
			</g>
		</g>
		<g>
			<rect x="34.8" y="348.5" class="st16" width="369.2" height="7.6"/>
			<polyline class="st3" points="251.2,348.5 404,348.5 404,356.1 34.8,356.1 34.8,348.5 240.6,348.5 			"/>
		</g>
	</g>
</g>
</svg>
