<?xml version="1.0" encoding="utf-8"?>
<!-- Generator: Adobe Illustrator 24.3.0, SVG Export Plug-In . SVG Version: 6.00 Build 0)  -->
<svg version="1.1" id="Layer_1" xmlns="http://www.w3.org/2000/svg" xmlns:xlink="http://www.w3.org/1999/xlink" x="0px" y="0px"
	 viewBox="0 0 277.3 40.2" style="enable-background:new 0 0 277.3 40.2;" xml:space="preserve">
<style type="text/css">
	.st0{fill:#EF8703;}
	.st1{fill:#52955F;}
	.st2{fill:#DD9B9D;}
	.st3{fill:#036E80;}
	.st4{fill:#EF3C41;}
	.st5{fill:#DFB141;}
</style>
<g>
	<path class="st0" d="M110.5,3c0-1.5,1.7-2.1,3.4-2.1c1.7,0,3.4,0.6,3.4,2.1v34.2c0,1.4-1.7,2.2-3.4,2.2c-1.7,0-3.4-0.7-3.4-2.2V3z"
		/>
	<path class="st1" d="M51,3C51,2,51.9,1,53.2,1h10.3c6.8,0,12.3,2.6,12.3,10.9c0,6-2.9,9.2-6.8,10.4l6.8,12.6
		c0.2,0.3,0.3,0.6,0.3,0.8c0,1.7-2.2,3.5-4.2,3.5c-0.9,0-1.8-0.6-2.3-1.6l-7.4-14.4h-4.4v13.6c0,1.4-1.7,2.1-3.4,2.1
		c-1.7,0-3.4-0.7-3.4-2.1V3z M57.8,6.9V18h5.7c3.4,0,5.6-1.4,5.6-5.5c0-4.1-2.2-5.6-5.6-5.6H57.8z"/>
	<path class="st2" d="M149.9,36.5c0-0.1,0.1-0.3,0.1-0.5l10-32.7c0.5-1.6,2.4-2.3,4.3-2.3c2,0,3.9,0.7,4.4,2.3l10,32.7
		c0.1,0.2,0.1,0.4,0.1,0.5c0,1.6-2.4,2.8-4.3,2.8c-1.1,0-2-0.4-2.3-1.4l-2-6.9h-11.9l-2,6.9c-0.3,1-1.1,1.4-2.3,1.4
		C152.3,39.3,149.9,38.1,149.9,36.5z M168.8,25.7l-4.5-16l-4.5,16H168.8z"/>
	<path class="st3" d="M252.9,27.4V12.9c0-8.7,5.3-11.9,12.2-11.9c6.9,0,12.2,3.2,12.2,11.9v14.5c0,8.7-5.4,11.9-12.2,11.9
		C258.2,39.3,252.9,36,252.9,27.4z M270.6,12.9c0-4.1-2.1-6-5.5-6c-3.4,0-5.4,1.9-5.4,6v14.5c0,4.1,2,6,5.4,6c3.4,0,5.5-1.9,5.5-6
		V12.9z"/>
	<path class="st4" d="M24.2,1.1c1.5,0,2.1,1.6,2.1,3c0,1.6-0.8,3.1-2.1,3.1h-7.6V37c0,1.4-1.7,2.1-3.4,2.1c-1.7,0-3.4-0.7-3.4-2.1
		V7.2H2.1C0.8,7.2,0,5.8,0,4.1c0-1.5,0.7-3,2.1-3H24.2z"/>
	<g>
		<path class="st5" d="M205.8,40.2c-1.7,0-3.4-0.8-3.4-2.3V2.2c0-1.5,1.9-2.2,3.9-2.2c1.9,0,3.9,0.7,3.9,2.2v31.7h14.6
			c1.6,0,2.3,1.5,2.3,3.1c0,1.5-0.8,3.1-2.3,3.1H205.8z"/>
	</g>
</g>
</svg>
