<?xml version="1.0" standalone="no"?>
<!DOCTYPE svg PUBLIC "-//W3C//DTD SVG 20010904//EN"
 "http://www.w3.org/TR/2001/REC-SVG-20010904/DTD/svg10.dtd">
<svg version="1.0" xmlns="http://www.w3.org/2000/svg"
 width="1328.000000pt" height="1328.000000pt" viewBox="0 0 1328.000000 1328.000000"
 preserveAspectRatio="xMidYMid meet">
<metadata>
Created by potrace 1.11, written by Peter Selinger 2001-2013
</metadata>
<g transform="translate(0.000000,1328.000000) scale(0.100000,-0.100000)"
fill="#000000" stroke="none">
<path d="M6098 9683 c-29 -12 -43 -26 -62 -67 -41 -87 -33 -101 168 -301 191
-190 224 -218 349 -299 73 -48 257 -144 292 -153 6 -1 60 -19 121 -40 139 -48
116 -41 319 -83 57 -11 72 -15 135 -31 25 -6 52 -12 60 -14 61 -13 241 -91
248 -107 2 -5 9 -8 15 -8 7 -1 27 -14 46 -30 l34 -29 -36 -17 c-33 -16 -43
-16 -109 -4 -40 8 -77 15 -83 16 -5 2 -19 5 -30 7 -11 3 -64 17 -118 32 -130
35 -116 32 -252 60 -66 13 -140 27 -165 30 -25 4 -56 8 -70 11 -142 25 -547
24 -727 -1 -18 -3 -45 -7 -60 -9 -26 -3 -52 -8 -125 -21 -63 -11 -84 -16 -98
-21 -8 -3 -26 -8 -40 -10 -14 -3 -47 -11 -75 -19 -27 -8 -53 -14 -57 -15 -4 0
-27 -8 -50 -16 -24 -9 -47 -17 -53 -18 -5 -2 -17 -6 -25 -9 -8 -3 -80 -29
-160 -58 -80 -29 -156 -61 -170 -71 -103 -78 -54 -217 86 -242 12 -3 58 -14
101 -26 43 -12 89 -24 103 -26 93 -15 143 -25 189 -40 24 -8 56 -16 70 -18 14
-2 46 -8 71 -14 25 -6 61 -13 80 -16 19 -3 46 -8 60 -10 89 -17 201 -36 245
-42 17 -2 46 -6 65 -9 19 -2 58 -7 85 -11 28 -3 64 -8 80 -10 17 -2 55 -6 85
-9 30 -2 66 -7 80 -10 14 -3 59 -8 100 -11 41 -2 86 -7 100 -9 14 -3 56 -7 94
-10 38 -3 87 -8 110 -10 23 -2 70 -7 106 -10 36 -3 81 -8 100 -11 19 -3 58 -7
85 -9 28 -3 66 -7 85 -9 19 -3 60 -8 90 -11 30 -4 73 -9 95 -12 22 -2 51 -6
65 -7 14 -2 39 -6 55 -9 17 -4 54 -9 84 -12 52 -7 67 -9 121 -20 14 -2 39 -7
56 -10 52 -8 166 -45 220 -71 138 -67 194 -178 167 -334 -15 -88 -13 -82 -40
-141 -22 -49 -119 -159 -140 -159 -7 0 -13 -3 -13 -8 0 -8 -87 -50 -134 -63
-88 -26 -309 -31 -372 -8 -11 4 -38 10 -60 13 -51 9 -141 37 -234 74 -73 29
-147 63 -415 192 -71 34 -150 71 -175 82 -25 11 -63 28 -85 38 -22 10 -71 31
-110 45 -38 15 -84 33 -101 41 -56 25 -296 100 -379 118 -44 10 -87 21 -95 24
-8 2 -29 6 -46 7 -17 2 -46 6 -65 10 -18 4 -54 9 -80 10 -26 1 -50 4 -55 7 -5
3 -70 4 -144 3 -121 -2 -182 -7 -245 -19 -32 -6 -129 -20 -145 -21 -8 0 -19
-3 -25 -6 -23 -14 -168 0 -225 21 -59 22 -142 91 -185 153 -75 108 -118 149
-202 188 -76 35 -158 42 -257 22 -39 -8 -73 -18 -76 -22 -3 -3 -28 -17 -56
-30 -29 -13 -65 -34 -80 -48 -16 -14 -38 -32 -49 -42 -40 -32 -106 -115 -127
-160 -13 -25 -25 -48 -28 -51 -18 -18 -21 -145 -4 -193 14 -40 71 -131 106
-171 33 -36 96 -181 111 -252 14 -68 16 -217 3 -279 -17 -88 -27 -127 -35
-140 -3 -5 -6 -14 -7 -20 -4 -20 -42 -131 -67 -195 -45 -115 -89 -235 -91
-245 -5 -31 -62 -129 -98 -170 -95 -108 -229 -128 -367 -54 -49 26 -153 124
-191 179 -62 89 -122 135 -192 148 -59 12 -109 -7 -206 -76 -39 -29 -75 -52
-78 -52 -3 0 -19 -11 -36 -25 -16 -14 -36 -25 -43 -25 -7 0 -15 -4 -17 -8 -8
-20 -298 -170 -393 -203 -22 -8 -43 -18 -47 -24 -4 -5 -8 -6 -8 -2 0 4 -8 3
-19 -2 -22 -12 -186 -62 -218 -66 -12 -2 -26 -5 -30 -8 -5 -3 -28 -8 -53 -12
-25 -4 -47 -8 -50 -10 -7 -4 -115 -19 -220 -31 -30 -3 -138 -6 -240 -6 -161 0
-190 -3 -222 -19 -87 -44 -142 -183 -108 -273 28 -75 138 -136 367 -206 50
-15 117 -31 150 -35 78 -11 268 -13 318 -4 22 4 56 10 76 13 20 3 48 10 63 15
14 6 26 9 26 7 0 -10 119 38 204 81 50 26 96 48 101 49 6 2 30 11 55 20 48 18
189 27 211 13 9 -5 -8 -28 -62 -81 -91 -89 -136 -128 -148 -128 -5 0 -11 -7
-15 -15 -3 -8 -11 -15 -17 -15 -7 0 -21 -7 -31 -17 -18 -16 -33 -25 -98 -61
-19 -10 -55 -30 -80 -43 -25 -14 -63 -32 -85 -41 -22 -9 -58 -24 -80 -34 -22
-10 -42 -18 -45 -19 -14 -3 -116 -38 -125 -44 -5 -3 -14 -6 -20 -7 -5 -1 -55
-17 -110 -34 -55 -17 -107 -33 -115 -35 -58 -14 -178 -58 -205 -75 -100 -62
-88 -245 20 -305 47 -25 175 -60 295 -79 78 -13 305 -14 356 -3 12 3 37 8 55
11 19 3 48 10 66 15 17 5 34 7 37 3 3 -3 6 -1 6 5 0 6 13 13 29 16 15 3 59 20
97 37 186 85 352 214 519 405 33 38 74 84 90 103 35 39 134 111 186 135 76 35
194 40 281 12 70 -22 72 -22 82 -23 5 0 12 -4 15 -9 13 -17 441 -233 464 -233
9 0 17 -5 17 -11 0 -5 4 -8 9 -4 5 3 12 1 15 -4 3 -5 17 -12 30 -15 14 -3 38
-11 53 -18 15 -6 31 -12 36 -13 4 -2 9 -4 12 -5 3 -1 8 -3 13 -4 4 -1 57 -18
117 -38 169 -55 420 -125 478 -132 18 -3 32 -5 32 -6 0 -7 143 -21 216 -22
130 0 237 22 345 74 35 17 64 34 64 39 0 5 4 8 9 6 15 -3 128 103 174 163 165
219 298 310 487 336 71 9 105 10 118 1 8 -6 12 -5 12 2 0 7 4 10 9 7 5 -3 29
-8 52 -11 39 -4 126 -21 154 -30 6 -1 12 -2 15 -3 3 0 22 -7 43 -15 20 -9 37
-14 37 -12 0 2 20 -4 45 -15 25 -11 47 -20 50 -20 7 -1 38 -11 60 -20 30 -12
287 -101 292 -101 1 0 31 -12 65 -25 35 -14 72 -27 83 -30 11 -2 58 -17 105
-33 125 -42 254 -81 271 -81 9 0 19 -3 23 -7 3 -4 12 -8 19 -9 7 -1 32 -7 57
-14 25 -7 56 -14 70 -16 14 -3 39 -9 55 -14 17 -5 55 -14 85 -19 30 -6 66 -13
80 -16 14 -3 45 -7 70 -10 25 -3 56 -8 70 -10 122 -22 395 -32 540 -20 292 25
575 25 710 1 14 -2 43 -7 65 -10 89 -12 105 -16 245 -56 98 -28 166 -54 270
-104 72 -34 234 -128 250 -146 3 -3 23 -18 45 -35 22 -16 53 -40 70 -55 50
-43 245 -241 245 -249 0 -4 14 -23 31 -42 17 -19 65 -85 106 -146 115 -173
240 -282 353 -311 40 -10 111 7 136 33 9 8 19 15 24 15 12 0 42 70 42 99 0 14
-2 37 -6 50 -7 30 -67 131 -78 131 -4 0 -8 7 -8 15 0 8 -4 15 -10 15 -5 0 -10
5 -10 11 0 6 -6 17 -12 24 -26 29 -39 45 -61 77 -12 19 -28 40 -35 48 -13 15
-193 261 -222 304 -8 12 -50 67 -92 123 -43 56 -78 107 -78 113 0 5 -4 10 -9
10 -13 0 -94 120 -86 128 4 4 43 7 88 6 73 0 89 -4 142 -33 33 -18 65 -38 70
-45 6 -6 28 -23 50 -36 22 -13 42 -27 45 -30 3 -4 34 -26 70 -50 36 -24 67
-46 70 -50 3 -3 21 -17 40 -30 40 -28 81 -62 122 -102 15 -14 28 -24 28 -20 0
3 96 -91 214 -209 242 -241 236 -235 273 -250 82 -33 146 -20 211 42 48 45 74
94 67 130 -12 63 -17 79 -26 79 -5 0 -9 7 -9 15 0 8 -4 15 -10 15 -5 0 -10 5
-10 10 0 9 -210 222 -296 301 -16 15 -36 35 -45 45 -32 40 -345 321 -392 353
-12 8 -27 20 -33 26 -7 5 -24 19 -40 30 -15 11 -42 32 -60 48 -17 15 -34 27
-38 27 -5 0 -95 59 -106 70 -5 5 -18 13 -94 55 -110 61 -180 95 -281 135 -240
95 -313 138 -425 249 -104 104 -179 223 -229 363 -31 88 -34 105 -35 218 -1
99 1 108 29 159 37 67 98 128 162 161 26 14 50 28 51 33 2 4 14 7 27 7 12 0
28 7 35 15 7 9 15 14 17 11 10 -10 325 110 331 126 2 4 8 8 14 8 26 0 186 116
232 169 12 13 26 29 31 35 76 83 123 167 129 231 4 39 -21 94 -64 140 -64 68
-113 122 -133 148 -12 15 -33 40 -47 56 -14 15 -50 56 -80 91 -171 199 -278
304 -396 389 -88 63 -236 140 -264 138 -3 0 -15 5 -27 11 -24 13 -167 45 -253
57 -19 3 -55 12 -80 19 -25 8 -58 18 -75 22 -39 10 -38 9 -129 45 -27 10 -54
19 -61 19 -7 0 -18 7 -25 15 -7 8 -20 15 -28 15 -19 0 -256 128 -282 153 -11
9 -22 17 -25 17 -7 0 -96 59 -105 69 -3 3 -27 22 -55 41 -27 19 -54 39 -60 45
-5 6 -53 45 -105 86 -52 40 -100 78 -106 84 -7 5 -22 18 -35 27 -108 78 -136
98 -149 110 -9 7 -27 19 -41 26 -23 12 -45 29 -96 72 -7 5 -14 10 -17 10 -7 0
-98 62 -114 77 -7 7 -20 13 -28 13 -8 0 -14 5 -14 10 0 6 -5 10 -11 10 -6 0
-31 14 -56 31 -197 136 -575 337 -778 414 -83 31 -301 105 -308 104 -1 0 -15
5 -32 11 -24 9 -216 61 -275 75 -31 7 -176 37 -200 41 -14 3 -54 12 -90 20
-36 9 -74 18 -85 20 -57 13 -152 12 -187 -3z m-3173 -4131 c6 -4 16 -20 23
-35 11 -27 10 -30 -41 -77 -66 -63 -102 -79 -124 -57 -14 14 -14 19 4 50 26
43 103 127 117 127 6 0 16 -4 21 -8z"/>
</g>
</svg>
