<?xml version="1.0" encoding="utf-8"?>
<!-- Generator: Adobe Illustrator 25.2.3, SVG Export Plug-In . SVG Version: 6.00 Build 0)  -->
<svg version="1.1" id="Calque_3" xmlns="http://www.w3.org/2000/svg" xmlns:xlink="http://www.w3.org/1999/xlink" x="0px" y="0px"
	 viewBox="0 0 612 792" style="enable-background:new 0 0 612 792;" xml:space="preserve">
<style type="text/css">
	.st0{fill:none;stroke:#000000;stroke-width:8;stroke-miterlimit:10;}
</style>
<path class="st0" d="M287.36,7.2c0,0,16.23,32.47,91.57,39.68s51,95,40.57,132.28s-32.45,126.27,71.86,126.27
	s113.59,44.49,73.02,116.65c-40.57,72.15-66.07,158.74-38.25,182.79c54.48,26.46,92.73-37.28,74.18-50.51s-17.39,20.44-75.34,93.8
	s-81.13,93-107.79,110.64c-26.66,17.64-142.56,48.1-231.81-57.72S12.66,407.65,12.66,407.65"/>
<path class="st0" d="M167.97,133.47c1.16-9.62-15.07-38.48-27.82-33.67c-12.75,4.81-19.7,24.05,5.8,33.67s37.09-15.63,38.25-25.25
	c1.16-9.62-8.11-46.9-30.14-32.47s-53.32-6.01-42.89,14.43c12.37,24.24-15.37,53.87,9.27,46.9c12.75-3.61,28.98,21.65,44.04,9.62
	s26.66,25.25,41.73,14.43c15.07-10.82,17.39-37.6,34.77-41.65s26.66-30.51,5.8-37.72c-20.86-7.22-34.77-1.2-34.77-1.2
	s-27.82,8.42-15.07,21.65s27.82-30.06,16.23-40.89s-35.93,1.2-54.48-7.22s-23.18-10.82-28.98,1.2s-18.55-15.63-34.77-9.02
	c-20.62,8.41,8.46,23.45-4.64,34.27s-32.45-13.23-37.09,3.61c-6.26,22.72,16.23,22.85,22.02,55.32c5.8,32.47,19.7,16.84,35.93,43.29
	s20.86,55.32,13.91,51.71c-6.95-3.61-18.55-49.3,3.48-56.52s38.25-2.41,64.91,1.2s24.34-4.81,40.57-27.66s29.76,4.81,24.73,30.06
	c-5.03,25.25-30.53,97.41-83.84,97.41s-69.54-22.85-99.68-99.81c-11.59-32.47-2.32-44.49-12.75-56.52s-34.77-21.65-37.09,1.2
	s6.95,31.27,20.86,45.7s12.75,8.42,20.86,48.1s45.2,95,96.2,79.37s82.89-33.67,96.5-68.55c13.61-34.87,48.25-4.81,44.26,25.25
	s-3.99,92.73-23.69,134.15s-25.5,52.24-18.55,61.86c6.95,9.62,15.07,12.03,27.82,0c12.75-12.03,17.39,16.57,34.77,16.1
	c17.39-0.47,25.5-16.1,31.29-19.71c5.8-3.61,15.07,7.22,23.18,14.43c8.11,7.22-81.13,15.63-41.73,88.99c0,0,37.09-28.86,74.18,18.04
	c13.91,14.43,31.29,26.46,51,28.86c19.7,2.41-244.54-1.13-244.54-1.13s24.98-13,42.87-30.14s47.53-31.09,74.18,0
	c26.65,31.09-6.95,66.14-28.4,74.56c-21.44,8.42-52.74,1.2-75.92-28.86c-8.08-15.52,29.45,38.92,60.27,51.71
	c40.57,16.84,95.04,21.65,150.68-55.32"/>
</svg>
