<?xml version="1.0" encoding="utf-8"?>
<!-- Generator: Adobe Illustrator 22.1.0, SVG Export Plug-In . SVG Version: 6.00 Build 0)  -->
<svg version="1.1" id="Calque_1" xmlns="http://www.w3.org/2000/svg" xmlns:xlink="http://www.w3.org/1999/xlink" x="0px" y="0px"
	 viewBox="0 0 288 288" style="enable-background:new 0 0 288 288;" xml:space="preserve">
<style type="text/css">
	.st0{display:none;fill:#6B1E1E;}
	.st1{fill:#FFFFFF;}
	.st2{clip-path:url(#SVGID_2_);}
	.st3{clip-path:url(#SVGID_4_);}
	.st4{opacity:0.9;clip-path:url(#SVGID_6_);}
	.st5{opacity:0.9;clip-path:url(#SVGID_8_);}
	.st6{clip-path:url(#SVGID_10_);fill:#BECAE3;}
	.st7{opacity:0.9;clip-path:url(#SVGID_10_);}
	.st8{clip-path:url(#SVGID_12_);fill:#7492C4;}
	.st9{clip-path:url(#SVGID_10_);fill:#8AA2CD;}
	.st10{clip-path:url(#SVGID_10_);fill:#A4B5D8;}
	.st11{clip-path:url(#SVGID_10_);fill:#D6DCED;}
	.st12{clip-path:url(#SVGID_10_);fill:none;stroke:#9EB1D6;stroke-width:0;}
	.st13{clip-path:url(#SVGID_10_);fill:#EFF1F8;}
	.st14{opacity:0.9;clip-path:url(#SVGID_14_);}
	.st15{clip-path:url(#SVGID_16_);fill:#BECAE3;}
	.st16{opacity:0.9;clip-path:url(#SVGID_16_);}
	.st17{clip-path:url(#SVGID_18_);fill:#7492C4;}
	.st18{clip-path:url(#SVGID_16_);fill:#8AA2CD;}
	.st19{clip-path:url(#SVGID_16_);fill:#A4B5D8;}
	.st20{clip-path:url(#SVGID_16_);fill:#D6DCED;}
	.st21{clip-path:url(#SVGID_16_);fill:none;stroke:#9EB1D6;stroke-width:0;}
	.st22{clip-path:url(#SVGID_16_);fill:#EFF1F8;}
	.st23{opacity:0.9;clip-path:url(#SVGID_20_);}
	.st24{clip-path:url(#SVGID_22_);fill:#BECAE3;}
	.st25{opacity:0.9;clip-path:url(#SVGID_22_);}
	.st26{clip-path:url(#SVGID_24_);fill:#7492C4;}
	.st27{clip-path:url(#SVGID_22_);fill:#8AA2CD;}
	.st28{clip-path:url(#SVGID_22_);fill:#A4B5D8;}
	.st29{clip-path:url(#SVGID_22_);fill:#D6DCED;}
	.st30{clip-path:url(#SVGID_22_);fill:none;stroke:#9EB1D6;stroke-width:0;}
	.st31{clip-path:url(#SVGID_22_);fill:#EFF1F8;}
	.st32{opacity:0.9;clip-path:url(#SVGID_26_);}
	.st33{clip-path:url(#SVGID_28_);fill:#BECAE3;}
	.st34{opacity:0.9;clip-path:url(#SVGID_28_);}
	.st35{clip-path:url(#SVGID_30_);fill:#7492C4;}
	.st36{clip-path:url(#SVGID_28_);fill:#8AA2CD;}
	.st37{clip-path:url(#SVGID_28_);fill:#A4B5D8;}
	.st38{clip-path:url(#SVGID_28_);fill:#D6DCED;}
	.st39{clip-path:url(#SVGID_28_);fill:none;stroke:#9EB1D6;stroke-width:0;}
	.st40{clip-path:url(#SVGID_28_);fill:#EFF1F8;}
	.st41{opacity:0.9;clip-path:url(#SVGID_32_);}
	.st42{clip-path:url(#SVGID_34_);fill:#BECAE3;}
	.st43{opacity:0.9;clip-path:url(#SVGID_34_);}
	.st44{clip-path:url(#SVGID_36_);fill:#7492C4;}
	.st45{clip-path:url(#SVGID_34_);fill:#8AA2CD;}
	.st46{clip-path:url(#SVGID_34_);fill:#A4B5D8;}
	.st47{clip-path:url(#SVGID_34_);fill:#D6DCED;}
	.st48{clip-path:url(#SVGID_34_);fill:none;stroke:#9EB1D6;stroke-width:0;}
	.st49{clip-path:url(#SVGID_34_);fill:#EFF1F8;}
	.st50{opacity:0.9;clip-path:url(#SVGID_38_);}
	.st51{clip-path:url(#SVGID_40_);fill:#BECAE3;}
	.st52{opacity:0.9;clip-path:url(#SVGID_40_);}
	.st53{clip-path:url(#SVGID_42_);fill:#7492C4;}
	.st54{clip-path:url(#SVGID_40_);fill:#8AA2CD;}
	.st55{clip-path:url(#SVGID_40_);fill:#A4B5D8;}
	.st56{clip-path:url(#SVGID_40_);fill:#D6DCED;}
	.st57{clip-path:url(#SVGID_40_);fill:none;stroke:#9EB1D6;stroke-width:0;}
	.st58{clip-path:url(#SVGID_40_);fill:#EFF1F8;}
	.st59{opacity:0.9;clip-path:url(#SVGID_44_);}
	.st60{clip-path:url(#SVGID_46_);fill:#BECAE3;}
	.st61{opacity:0.9;clip-path:url(#SVGID_46_);}
	.st62{clip-path:url(#SVGID_48_);fill:#7492C4;}
	.st63{clip-path:url(#SVGID_46_);fill:#8AA2CD;}
	.st64{clip-path:url(#SVGID_46_);fill:#A4B5D8;}
	.st65{clip-path:url(#SVGID_46_);fill:#D6DCED;}
	.st66{clip-path:url(#SVGID_46_);fill:none;stroke:#9EB1D6;stroke-width:0;}
	.st67{clip-path:url(#SVGID_46_);fill:#EFF1F8;}
	.st68{clip-path:url(#SVGID_6_);fill:none;stroke:#272525;stroke-width:0.6562;stroke-miterlimit:10;}
	.st69{clip-path:url(#SVGID_6_);fill:none;stroke:#272525;stroke-width:1.3125;stroke-miterlimit:10;}
</style>
<rect x="-11" y="-13" class="st0" width="309" height="320"/>
<g>
	<path class="st1" d="M56.5,42.6c-0.9-1.4-1.5-3-1.9-4.7c-0.4-1.7-0.4-3.4-0.2-5.1c0.3-1.7,0.9-3.3,1.8-4.9c1-1.6,2.3-2.9,4.1-4
		c2.1-1.3,4.2-1.9,6.2-1.9c2.1,0,3.9,0.6,5.6,1.6L71.1,26c-0.9-0.5-1.7-0.9-2.6-1.1c-0.9-0.2-1.7-0.3-2.5-0.2s-1.6,0.2-2.4,0.5
		c-0.7,0.3-1.4,0.6-2.1,1c-1.4,0.9-2.5,1.9-3.2,3.2c-0.7,1.2-1.2,2.6-1.3,3.9c-0.2,1.4-0.1,2.8,0.3,4.2s0.9,2.7,1.6,3.9
		c0.8,1.3,1.8,2.4,3,3.3c1.2,0.9,2.5,1.6,3.8,2c1.3,0.4,2.7,0.6,4.1,0.4c1.4-0.1,2.7-0.6,4-1.4c0.7-0.4,1.3-0.9,1.9-1.5
		c0.6-0.6,1.1-1.3,1.5-2c0.4-0.8,0.7-1.6,1-2.5c0.2-0.9,0.3-1.8,0.2-2.8l2.5-0.2c0.2,1.1,0.1,2.2-0.1,3.3c-0.3,1.1-0.7,2.1-1.2,3.1
		c-0.5,1-1.2,1.9-2,2.7c-0.8,0.8-1.6,1.5-2.5,2.1c-1.6,1-3.3,1.6-5.1,1.7c-1.8,0.1-3.5-0.1-5.2-0.6c-1.7-0.5-3.2-1.3-4.7-2.4
		C58.7,45.4,57.5,44.1,56.5,42.6z"/>
	<path class="st1" d="M91.9,39.4c-0.9,0.4-1.8,0.5-2.7,0.5c-0.9,0-1.7-0.1-2.5-0.5c-0.8-0.3-1.5-0.7-2.1-1.3
		c-0.6-0.6-1.1-1.3-1.4-2.1c-0.3-0.8-0.4-1.7-0.3-2.5c0.1-0.9,0.4-1.7,0.9-2.5c0.5-0.8,1.2-1.5,2-2.2c0.9-0.7,1.9-1.2,3-1.7
		c1-0.4,2-0.7,3-0.9c1.1-0.2,2-0.3,2.9-0.3l-0.7-1.7c-0.7-1.7-1.7-2.8-3-3.4c-1.3-0.6-2.8-0.6-4.5,0.1c-1,0.4-1.9,1-2.7,1.8
		c-0.9,0.8-1.7,1.8-2.4,2.9L80,24.3c1.8-2.6,3.8-4.4,6.1-5.3c2.4-0.9,4.5-1,6.3-0.2s3.3,2.3,4.2,4.7l3.4,8.5
		c0.3,0.7,0.7,0.9,1.3,0.6l0.9,2.2c-0.4,0.2-0.7,0.4-0.9,0.5c-0.6,0.2-1.2,0.3-1.6,0.1c-0.5-0.2-0.8-0.5-1.1-1.1L98,32.9
		c-0.4,1.5-1.2,2.8-2.2,3.9C94.7,37.9,93.4,38.7,91.9,39.4z M91.7,37.2c1.3-0.5,2.4-1.2,3.2-2.1c0.9-0.9,1.4-1.9,1.7-2.9
		c0.1-0.3,0.2-0.6,0.2-0.9s0-0.6-0.1-0.8l-1.2-3.1c-0.9,0-1.9,0.1-2.8,0.3c-0.9,0.2-1.9,0.5-2.8,0.8c-1.7,0.7-3,1.6-3.8,2.8
		c-0.8,1.2-1,2.3-0.5,3.5c0.2,0.6,0.6,1.1,1,1.5c0.4,0.4,0.9,0.7,1.5,0.9s1.1,0.3,1.8,0.3C90.4,37.6,91.1,37.5,91.7,37.2z"/>
	<path class="st1" d="M115.9,31.9c-1.7,0.4-3.2,0.3-4.7-0.3c-1.5-0.6-2.7-1.4-3.8-2.5l2.6,12.2l-2.6,0.6l-6-27.9l2.3-0.5l0.8,3.8
		c0.5-1.4,1.4-2.6,2.5-3.7c1.1-1,2.4-1.7,4-2.1c1.4-0.3,2.7-0.3,3.9,0c1.3,0.3,2.4,0.9,3.5,1.6c1,0.8,1.9,1.7,2.7,2.9
		c0.7,1.1,1.2,2.4,1.5,3.7c0.3,1.4,0.4,2.8,0.2,4.1c-0.2,1.3-0.5,2.6-1.1,3.7c-0.6,1.1-1.4,2.1-2.4,2.8
		C118.4,31.1,117.2,31.6,115.9,31.9z M114.7,29.8c1.1-0.2,2-0.7,2.8-1.3s1.4-1.4,1.9-2.3c0.5-0.9,0.8-1.8,0.9-2.9c0.1-1,0.1-2-0.1-3
		c-0.2-1.1-0.6-2-1.2-2.9c-0.6-0.9-1.3-1.6-2.1-2.2c-0.8-0.6-1.7-1-2.7-1.2c-1-0.2-2-0.2-3,0c-0.7,0.1-1.3,0.4-2,0.8
		c-0.7,0.4-1.3,0.9-1.8,1.5s-0.9,1.2-1.3,1.9c-0.3,0.7-0.5,1.4-0.4,2.1l1.3,6.1c0.5,0.6,1,1.2,1.6,1.7c0.6,0.5,1.2,0.9,1.9,1.2
		c0.7,0.3,1.4,0.5,2.1,0.6C113.2,30,114,29.9,114.7,29.8z"/>
	<path class="st1" d="M137.2,11c-1.8,0.2-3.3,0.8-4.5,1.8c-1.3,1-2.1,2.4-2.5,4l0.9,12.6l-2.6,0.2l-1.4-20.2l2.5-0.2l0.3,4.8
		c0.6-1.6,1.6-2.9,2.8-3.9c1.2-1,2.5-1.5,4-1.6c0.2,0,0.4,0,0.5,0L137.2,11z"/>
	<path class="st1" d="M141.5,28.9l0.3-20.2l2.6,0L144.1,29L141.5,28.9z M141.8,4.5l0.1-3.9l2.6,0l-0.1,3.9L141.8,4.5z"/>
	<path class="st1" d="M149.1,18.7c0.2-1.4,0.6-2.7,1.2-3.9c0.6-1.2,1.5-2.2,2.5-3.1c1-0.8,2.1-1.4,3.4-1.8s2.7-0.5,4.2-0.3
		c1.9,0.2,3.5,0.9,4.8,1.9c1.3,1,2.2,2.3,2.8,3.9l-2.6,0.5c-0.4-1.1-1.1-2-2.1-2.7c-0.9-0.7-2-1.1-3.3-1.3c-1-0.1-2,0-2.9,0.3
		c-0.9,0.3-1.8,0.8-2.5,1.4c-0.7,0.6-1.4,1.4-1.8,2.3c-0.5,0.9-0.8,2-0.9,3.1c-0.1,1.1-0.1,2.2,0.2,3.3c0.3,1,0.7,2,1.3,2.8
		c0.6,0.8,1.3,1.5,2.1,2c0.8,0.5,1.8,0.9,2.8,1c0.6,0.1,1.3,0.1,1.9,0c0.7-0.1,1.3-0.3,1.8-0.5c0.6-0.3,1.1-0.6,1.5-0.9
		c0.4-0.4,0.8-0.8,1-1.2l2.5,1.1c-0.4,0.7-0.9,1.3-1.5,1.8c-0.6,0.5-1.3,1-2.1,1.4c-0.8,0.4-1.6,0.6-2.6,0.8c-0.9,0.1-1.9,0.2-2.8,0
		c-1.5-0.2-2.8-0.6-4-1.3c-1.2-0.7-2.1-1.6-2.9-2.7c-0.8-1.1-1.4-2.3-1.7-3.6C149,21.5,148.9,20.1,149.1,18.7z"/>
	<path class="st1" d="M177.3,34.4c-1.4-0.4-2.6-1.1-3.6-1.9c-1-0.9-1.8-1.9-2.4-3.1s-0.9-2.4-1.1-3.8c-0.1-1.4,0-2.7,0.4-4
		c0.4-1.4,1-2.6,1.9-3.7c0.8-1.1,1.8-2,2.9-2.6c1.1-0.7,2.4-1.1,3.7-1.3c1.3-0.2,2.7-0.1,4.1,0.3c1.4,0.4,2.6,1.1,3.6,1.9
		c1,0.9,1.8,1.9,2.4,3.1c0.6,1.2,1,2.4,1.1,3.8c0.1,1.4,0,2.7-0.4,4.1c-0.4,1.3-1,2.6-1.8,3.6c-0.8,1.1-1.8,2-2.9,2.6
		c-1.1,0.7-2.4,1.1-3.7,1.3C180.1,34.9,178.7,34.8,177.3,34.4z M173.2,22.4c-0.3,1.1-0.4,2.2-0.3,3.2c0.1,1,0.4,2,0.8,2.9
		c0.4,0.9,1,1.7,1.8,2.3c0.7,0.6,1.6,1.1,2.6,1.4c1,0.3,1.9,0.3,2.9,0.2c1-0.2,1.9-0.5,2.7-1c0.9-0.5,1.6-1.2,2.3-2s1.1-1.8,1.5-2.9
		c0.3-1.1,0.4-2.1,0.3-3.2c-0.1-1.1-0.4-2-0.8-2.9s-1-1.7-1.8-2.3s-1.6-1.1-2.6-1.4s-1.9-0.3-2.9-0.2c-1,0.2-1.9,0.5-2.7,1
		c-0.9,0.5-1.6,1.2-2.3,2.1C174,20.3,173.5,21.3,173.2,22.4z"/>
	<path class="st1" d="M206.8,26.2c-1.7-0.7-3.3-0.9-4.9-0.6c-1.6,0.3-3,1.1-4.1,2.4l-5.1,11.5l-2.4-1.1l8.3-18.5l2.3,1l-2,4.4
		c1.3-1.1,2.7-1.8,4.3-2.1c1.5-0.3,2.9-0.1,4.3,0.5c0.2,0.1,0.3,0.2,0.4,0.2L206.8,26.2z"/>
	<path class="st1" d="M216.4,52.7l-2.2-1.4l6-9.6c1.3-2,1.9-3.7,1.9-5c0-1.3-0.7-2.3-1.9-3.1c-0.7-0.4-1.4-0.7-2.2-0.9
		c-0.8-0.2-1.6-0.2-2.5-0.1c-0.8,0.1-1.7,0.3-2.5,0.6c-0.8,0.3-1.5,0.8-2.2,1.4l-6.5,10.5l-2.2-1.4l10.7-17.2l2,1.3l-2.4,3.9
		c1.5-0.8,3.1-1.2,4.9-1.2c1.8,0,3.5,0.5,5,1.5c0.9,0.6,1.6,1.3,2.1,2c0.4,0.8,0.7,1.6,0.7,2.5c0,0.9-0.2,1.8-0.6,2.9
		s-0.9,2.1-1.6,3.2L216.4,52.7z"/>
</g>
<circle class="st1" cx="141.6" cy="157" r="128"/>
<g>
	<g>
		<defs>
			<rect id="SVGID_1_" x="-40" y="-25" width="378" height="378"/>
		</defs>
		<clipPath id="SVGID_2_">
			<use xlink:href="#SVGID_1_"  style="overflow:visible;"/>
		</clipPath>
		<g class="st2">
			<defs>
				<rect id="SVGID_3_" x="-40" y="-25" width="378" height="378"/>
			</defs>
			<clipPath id="SVGID_4_">
				<use xlink:href="#SVGID_3_"  style="overflow:visible;"/>
			</clipPath>
			<g class="st3">
				<defs>
					<rect id="SVGID_5_" x="-40" y="-25" width="378" height="378"/>
				</defs>
				<clipPath id="SVGID_6_">
					<use xlink:href="#SVGID_5_"  style="overflow:visible;"/>
				</clipPath>
				<g class="st4">
					<g>
						<defs>
							<rect id="SVGID_7_" x="58.1" y="100.9" width="143.1" height="136.8"/>
						</defs>
						<clipPath id="SVGID_8_">
							<use xlink:href="#SVGID_7_"  style="overflow:visible;"/>
						</clipPath>
						<g class="st5">
							<g>
								<defs>
									<rect id="SVGID_9_" x="58.1" y="100.9" width="143.1" height="136.8"/>
								</defs>
								<clipPath id="SVGID_10_">
									<use xlink:href="#SVGID_9_"  style="overflow:visible;"/>
								</clipPath>
								<path class="st6" d="M157.8,137.7c-1.1-0.9-5.3,0.3-9.5,1.9c-4.2,1.6-8.3,3.6-9.3,3.8c-2.3,0.7-5.7,2.6-9.5,5.2
									c-3.8,2.6-8.3,6.1-12.4,10.5c-2,2.2-3.9,4.5-5.5,6.8c-1.6,2.3-2.9,4.7-3.8,6.7c-1.8,4-2.5,6.5-2.8,6.4
									c-0.7-0.5-3.9,0.7-7,3.1c-3.1,2.3-5.9,5.6-6.5,7.9c-0.6,2.6-1,5.3-1.1,8.2c0,1.4,0,2.9,0.1,4.4c0.1,0.7,0.2,1.6,0.3,2.4
									c0.1,0.8,0.3,1.6,0.4,2.4c1.3,6.4,4.3,12,8.2,16.1c0.7,0.8,1.4,1.5,2.2,2.1c2.1,2,3.6,2.8,4.7,3.5c1,0.6,1.7,1.2,2.5,2.1
									c0.3,0.3,1.4,0.3,3,0.4c0.8,0.1,1.7,0.1,2.8,0.3c0.5,0.1,1,0.2,1.6,0.3c0.6,0.2,1.2,0.4,1.9,0.6c1.8,0.7,3.8,2,6.2,3.1
									c2.4,1.1,5.5,2,8.3,1.8c1.3,0,3.1-0.1,5.2-0.6c2-0.4,4.4-1.4,6.4-2.7c4.1-2.8,6.7-6.9,8-11c1.3-4.3,1.2-8,0.9-10.9
									c-0.3-2.9-0.8-5-1.2-6.5c-0.4-1.5-0.7-3.3-1.5-5.1c-0.4-0.9-0.9-1.8-1.5-2.6c-0.6-0.8-1.2-1.5-1.8-2c-2.5-2.2-4.5-3.1-6.2-4
									c-3.4-1.9-6.3-4.1-10.5-6.5c-1.6-1-3.2-1.7-5-2.3c-1.7-0.5-3.5-0.9-5.2-1c-3.5-0.3-6.9-0.1-10.5,0.1
									c-7.5,0.7-12.2,2.5-18.6,3.3c-3,0.1-5.8,0.1-8.4-0.2c-1.3-0.2-2.5-0.3-3.7-0.6c-1.2-0.3-2.5-0.6-3.8-1
									c-0.7-0.1-1.4-0.3-2-0.2c-0.3,0-0.8-0.1-1.2-0.4c-0.5-0.2-1-0.5-1.3-0.6c-1.8-1.4-3.2-3.2-4.4-4.9c-1.1-1.8-2.1-3.5-3.3-5.1
									c-0.3-0.5-0.8-1-1.3-1.3c-0.5-0.3-1-0.5-1.2-0.2c-0.6,0.8-1.1,1.7-1.5,2.7c-0.3,1-0.6,2.1-0.7,3.3c-0.2,2.4,0.3,5,1.4,7.7
									c1,2.5,3.1,4.9,5.7,6.8c2.6,1.9,5.8,3.5,9.3,4.7c4.8,1.5,9.1,2.8,12.9,4.3c3.8,1.5,7.1,3.1,9.8,4.8c2,1.3,3.8,3.2,6,4.4
									c2.1,1.3,4.8,2,7.5,1.4c3.2-0.8,5.1-1.7,6.5-2l0.5-0.1l0.4,0c0.3,0,0.5-0.1,0.8,0c0.6,0.2,1.4,0.6,2.4,1.6
									c1.3,1.4,2.8,3.1,4.8,5c0.5,0.5,0.8,0.8,0.9,1.1c0,0.1,0,0.1,0,0.1l0,0l0,0l0.3-0.4l1.2-1.7c0.9-1.2,1.4-1.9,2.1-2.8
									l0.9-1.1l0.8-0.9c2-2.3,3.2-3.5,4.2-4.3c0.2-0.2,0.5-0.4,0.6-0.5l0.5-0.3c0.2-0.1,0.2-0.1,0.3-0.2l0,0c0.1,0,0,0,0,0
									l-0.1,0.1l-0.3,0.1c-0.3,0.1-0.8,0.3-2,0.7c-0.3,0.1-0.7,0.2-1,0.3c-0.4,0.1-0.9,0.2-1.4,0.3c-0.4,0.1-1.2,0.2-1.8,0.3
									c-0.4,0.1-0.8,0.1-1.2,0.2l-1.3,0.2l-1.7,0.2l-2,0.2c-1.5,0.2-3,0.3-4.5,0.5c0,0-0.1,0.1-0.1,0.2c-0.1,0.2-0.1,0.7-0.1,1
									c0.2,1.6,0.3,2.8,0.2,3.2l0,0.2c0,0,0,0,0,0l0.5,0l2.1,0.2c2.5,0.3,4.1,0.6,5.2,0.9l0.4,0.1l0.2,0.1l0,0
									c5.6,1.7,1.5,0.5,2.8,0.8l0,0h0l0,0l0,0l-0.2-0.1c0,0,0,0,0,0c0.2,0.1,0.6,0.3,1,0.6c0.9,0.6,1.9,1.7,2.3,2.4
									c0.4,0.6,0.5,1,0.5,1.1l0,0.1l-0.1-0.5v0c0-0.2,0-0.2,0-0.5c0-0.4,0.1-1.4,0.4-2.3c0.3-1.1,0.7-2.3,1.3-3.8
									c0.2-0.4,0.3-0.7,0.5-1.1c0.2-0.4,0.4-0.9,0.6-1.3c0.4-0.7,0.9-1.8,1.5-2.7l0.4-0.7l0.1-0.1l0,0l0,0l0,0l-0.1,0
									c0,0-0.1,0-0.2,0c-0.2,0-0.5-0.1-0.9-0.1c-0.4-0.1-0.9-0.2-1.6-0.4c-0.8-0.2-1.5-0.4-2.2-0.5l-1-0.2c-0.3-0.1-0.5,0-0.7,0.1
									c-0.8,0.1-1.7,0.1-2.6-0.1c-1-0.2-1.9-0.8-2.7-1.5c-0.4-0.4-0.7-0.8-0.9-1.3c-0.1-0.2-0.2-0.5-0.3-0.8
									c-0.1-0.3-0.2-0.7-0.2-1c-0.3-1.6-0.3-3.4,0-5.2c0.3-1.9,0.8-3.6,1.6-5.1c0.2-0.6,1.5-1.6,2.8-2.2c1.3-0.7,2.7-1,3.3-1
									c1.2-0.1,1.8-0.7,2.5-1.8c0.7-1,1.3-2.4,1.9-3.8c0.8-2.3,2.1-4.5,3.9-6.7c1.8-2.2,4.1-4.5,6.6-6.7c1.9-1.3,4.2-1.6,6.5-2.9
									c5.2-3.3,8.3-7.2,12.8-10.5c2.2-1.3,4.1-2.4,5.8-3.4c1.7-1,3.1-1.9,4.4-2.7c2.5-1.6,3.9-2.9,4.7-3.7c1.7-1.7,1-1.7,1.5-1.9
									c2-1.4,3.9-0.6,6.6-2.6c3.4-2.9,5.1-7.1,5.5-9.9c0.8-4.1,1.1-8.5,1.6-12.7c0.5-4.3,1-8.5,2.4-12.8c-0.5,0.5-1,0.6-1.1,1.2
									c-2.1,5.9-5,10.9-8.2,15.1c-3.3,4.3-6.7,7.9-10.9,11.4c-0.6,0.9-1.5,2-2.7,2.8c-2.1,1.3-4.1,2.5-6.1,3.6
									C168.4,140.2,159.8,139.3,157.8,137.7"/>
								<g class="st7">
									<g>
										<defs>
											<rect id="SVGID_11_" x="58.3" y="171.1" width="94.9" height="66.5"/>
										</defs>
										<clipPath id="SVGID_12_">
											<use xlink:href="#SVGID_11_"  style="overflow:visible;"/>
										</clipPath>
										<path class="st8" d="M74.7,196.4c-3.5-1.1-6.7-2.7-9.3-4.6c-2.6-1.9-4.7-4.3-5.7-6.8c-1.1-2.7-1.6-5.4-1.4-7.7
											c0.1-2.3,0.9-4.4,2.2-6c0.5-0.6,1.9,0.6,2.5,1.5c1.2,1.6,2.1,3.3,3.3,5.1c1.1,1.7,2.5,3.5,4.4,4.9c0.7,0.3,1.9,1,2.6,1
											c0.6-0.1,1.3,0.1,2,0.2c2.6,0.9,4.9,1.3,7.5,1.6c2.6,0.3,5.3,0.2,8.4,0.2c6.4-0.8,11.1-2.6,18.6-3.3
											c3.6-0.2,7-0.4,10.5-0.1c0.9,0.1,1.7,0.2,2.6,0.4c0.9,0.2,1.7,0.3,2.6,0.6c1.7,0.5,3.4,1.3,5,2.3
											c4.2,2.5,7.2,4.6,10.5,6.5c1.6,1,3.7,1.9,6.2,4.2c0.6,0.6,1.2,1.3,1.8,2.1c0.6,0.8,1.1,1.8,1.4,2.7c0.8,1.8,1.1,3.6,1.5,5
											c0.3,1.5,0.8,3.6,1.1,6.5c0.3,2.9,0.4,6.7-1,11c-0.7,2.1-1.7,4.1-3.1,6c-1.3,1.9-3.1,3.6-5.2,4.9c-2,1.4-4.4,2.2-6.5,2.6
											c-2.1,0.4-3.8,0.5-5.2,0.5c-2.8,0.2-5.8-0.7-8.2-1.8c-2.4-1.1-4.4-2.4-6.2-3.1c0,0-0.4-0.7-1-2c-0.6-1.3-1.4-3.1-2.8-6
											c2.4,1.6,4.4,2.5,6.7,3.6c2.3,1.1,4.8,2.2,7.7,2.9c1.4,0.3,3,0.6,4.6,0.6c1.6,0,3.3-0.3,4.8-0.9c3.1-1.1,5.3-3.4,6.5-5.7
											c1.2-2.3,1.8-4.8,1.7-7.1c0-2.3-0.5-4.5-1-6.6c-0.3-1.1-0.6-2.1-1-3.1c-0.3-1-0.7-2.1-1.1-3c-0.4-0.9-0.8-1.6-1.3-2.1
											c-0.5-0.4-1-0.7-1.7-1c-0.6-0.6-1.6-1.3-2.8-2.1l-3.7-2.3c-2.4-1.5-4.8-2.8-7.2-3.7c-1.2-0.5-2.4-0.9-3.6-1.2
											c-1.2-0.2-2.4-0.5-3.7-0.6c-2.5-0.2-5.1-0.1-7.8,0.3c-5.4,0.7-11,2.2-17,3.4c-3,0.6-6.2,1-9.4,1.1
											C81.5,197.4,78,197.1,74.7,196.4"/>
									</g>
								</g>
								<path class="st9" d="M119.4,230c0,0-0.5-0.2-1.3-0.6c-0.7-0.4-1.8-0.9-3.1-1.7c-0.6-0.4-1.3-0.8-2.1-1.4
									c-0.8-0.6-1.7-1.2-2.5-2c-1.6-1.4-3.2-3.1-4.5-4.9c-2.1-2.9-3.3-6.1-3.4-8.4c-0.2-2.3,0.5-3.5,2.2-3.2c0,0,0.2,0.2,0.7,0.6
									c0.4,0.4,1.1,1,1.9,1.7c1.7,1.3,4.1,3,7,4.3c2,0.9,4.2,1.6,6.4,2c2.2,0.4,4.4,0.8,6.6,1.2c2.2,0.4,4.1,0.7,5.6,0.8
									c1.5,0.1,2.3-0.2,2.4-0.3c0,0,0,0,0,0c0,0,0,0,0,0c0,0,0,0.1,0,0.2c0,0,0,0,0,0l0.1,0.5l0,0l0,0l0,0l0-0.1
									c0-0.1-0.1-0.2-0.1-0.4l-0.1-0.2c0,0,0,0,0,0c0-0.1,0.2-0.3,0.4-0.8c0.2-0.4,0.3-1,0.4-1.4c0,0,0.2-0.2,0.6-0.6
									c0.3-0.5,0.8-1.3,1-2.5c0.3-1.3,0.4-3,0.3-5.3c-0.1-1.1-0.2-1.9-0.4-2.3c0-0.1-0.1-0.2-0.1-0.2c0-0.1-0.3,0.1,0.3-0.2
									c0.5-0.2,0.2-0.1,0,0c-0.1,0.1-0.2,0.1-0.4,0.2l-0.2,0.1c0,0,0,0,0,0c0,0,0,0.1-0.3-0.1c-0.6-0.3-1.6-0.8-2.7-1.3
									c-3.4-1.7-7.6-3.8-11-4.6c-0.9-0.2-1.6-0.4-2.5-0.4c-0.4,0-0.8-0.1-1.2-0.1c-0.4,0-0.8,0-1.2,0c-0.4,0-0.8,0-1.2,0
									c-0.4,0-0.8,0-1.2,0c-0.9,0.1-1.7,0.1-2.5,0.2c-3.2,0.4-6.1,0.8-6.8,0.3c0,0-1,0.1-2.5,0.3c-0.8,0.1-1.7,0.2-2.8,0.3
									c-1.1,0.1-2.2,0.2-3.4,0.3c-2.5,0.2-5.1,0.4-7.6,0.2c-1.2,0-2.4-0.2-3.4-0.3c-1-0.1-1.8-0.3-2.5-0.6c0,0-1.9-1.2-4.6-2.6
									c-1.4-0.7-2.9-1.6-4.6-2.3c-1.6-0.8-3.4-1.6-5.3-2.3c0,0-0.3-0.2-0.8-0.6c-0.5-0.4-1.2-1-2-1.7c-1.5-1.4-3.2-3.4-4.3-5.3
									c-1.1-1.9-1.7-3.6-1.6-4.3c0.2-0.8,0.9-0.5,2.9,1.1c0,0,0.3,0.2,0.9,0.5c0.5,0.3,1.3,0.7,2.1,1.1c1.7,0.8,3.7,1.6,5.1,2.1
									c0,0,0.6,0.3,1.6,0.8c1,0.4,2.5,1.1,4.4,1.6c0.5,0.1,1,0.2,1.5,0.3c0.5,0.1,1.1,0.2,1.6,0.3c0.6,0.1,1.2,0.2,1.8,0.2
									c0.6,0,1.2,0.1,1.9,0.1c2.6,0.1,5.5-0.1,8.4-0.5c5.9-0.7,12.2-1.9,17.3-2c5.1-0.2,8.8,0.6,9.4,1.1c0,0,0.2,0,0.6,0.1
									c0.4,0.1,1,0.2,1.7,0.4c1.5,0.4,3.5,1.1,5.9,2.2c2.4,1.1,5,2.8,7.8,4.6c1.4,0.9,2.9,1.9,4.4,2.9c1.5,1,3,2.2,3.9,3.8
									c1,1.6,1.2,3.6,1.5,5.6c0.2,2,0.5,4,0.6,6c0.1,2,0.1,4.1-0.2,6.2c-0.3,2.1-1.1,4.2-2.2,6.1c-1.2,1.9-2.9,3.7-5.1,4.8
									c-2.2,1.2-4.9,1.6-7.2,1.6c-2.4,0-4.5-0.3-6.5-0.7C122.9,230.4,121.1,230.1,119.4,230"/>
								<path class="st10" d="M117.5,230.9c0,0-0.4-0.1-1.2-0.3c-0.7-0.2-1.8-0.6-3.1-1.2c-0.7-0.3-1.4-0.6-2.2-1.1
									c-0.9-0.5-1.8-1.1-2.7-1.8c-1.8-1.4-3.6-3.1-5.2-5.2c-1.9-2.5-3.3-5.5-4-8.5c-0.7-3-0.6-6,0.2-8.6c0,0,0.1-0.6,0.2-1.6
									c0.1-0.9,0.4-2.2,0.7-3.7c0.7-2.9,2-6.3,3.7-9.1c1.6-2.8,3.6-5.2,5.2-6.2c1.6-1,2.8-0.7,3.2,1.4c0,0,0.2,0.9,0.6,2.6
									c0.4,1.6,1,3.9,1.9,6.5c0.9,2.6,2.1,5.6,3.8,8.1c1.7,2.5,3.8,4.6,6.2,6c1.2,0.7,2.5,1.2,3.7,1.6c1.2,0.4,3,1.3,4.7,2.1
									c1.5,0.7,2.8,1.1,3.3,1c0.1,0,0.1,0,0.1,0c0,0,0.1-0.2-0.2,0.5c-0.2,0.5-0.3,1-0.5,1.4c-0.1,0.4-0.2,0.9-0.3,1.2
									c-0.3,1.4-0.3,2.3-0.3,2.5c0,0,0,0,0,0l0,0l0,0l0.1,0.5l0,0l0,0c0-0.1,0-0.1-0.1-0.2c-0.1-0.2-0.2-0.6-0.6-1.2
									c-0.4-0.6-1.1-1.4-1.9-1.9c0,0-0.6-0.5-1.1-0.7c-0.2-0.1-0.3-0.2-0.1-0.1l0.1,0c-1.1-0.3-2.1-0.6-3.2-1
									c-0.3-0.1-0.6-0.2-1-0.2c-0.3-0.1-0.2,0-0.2,0c0,0,0,0,0,0c0,0,0,0,0-0.1c-0.1-0.2,0-1.2,0.1-2.8c0.1-0.8,0.2-1.7,0.4-2.6
									c0.1-0.4,0.2-0.7,0.4-0.9c0.1-0.1,0.2-0.1,0.3-0.2l0.1,0c0.5-0.1,1.1-0.2,1.6-0.2c0,0,1.7-0.3,3.4-0.6
									c1.8-0.4,3.4-0.9,4.2-1.3l0.2-0.1l-0.1,0.1l-0.2,0.1c-0.2,0.1-0.3,0.2-0.6,0.4c-0.5,0.4-1.2,0.9-2.2,1.9
									c-0.5,0.5-1.1,1.1-1.8,2l-0.5,0.6c-0.2,0.2-0.1,0.1-0.1,0.1l0,0c0,0,0-0.1,0-0.1c0-0.2-0.1-0.4-0.4-0.8
									c-0.3-0.3-0.7-0.8-1.2-1.2c-0.5-0.4-0.9-0.9-1.4-1.3c-0.9-0.9-1.8-1.6-2.7-2.3c-1.7-1.3-3.2-2.2-4.3-2.4c0,0-0.6-1-1.6-1.8
									c-1-0.8-2.6-1.5-4.1-0.8c0,0,0.1,0,0.3-0.1c0.2,0,0.5-0.1,0.9-0.1c0.4,0,0.8-0.1,1.4-0.1c0.5,0,1.1,0,1.7,0
									c1.2,0,2.8,0.3,4.7,0.9c1.9,0.6,4.1,1.5,6.4,2.7c1.1,0.6,2.3,1.2,3.4,1.8c0.9,0.5,1.5,0.9,1.7,1c0.1,0,0.1,0,0.1,0
									c0,0,0,0,0,0l0.2-0.1l0.3-0.2c0.6-0.3-0.7,0.3-0.5,0.2c0,0,0,0,0.1,0.1c0.1,0.3,0.3,1.1,0.4,2.1c0.5,4.6,0,7-0.9,7.6
									c0,0-0.3,0.7-0.8,1.4c-0.3,0.6-1.1,1.5-1.1,1.7l0,0l0,0.1l0.1,0.2c0.1,0.1,0.1,0.2,0.1,0.3c0,0.1,0.1,0.1,0.1,0.2l0,0.1l0,0
									l0,0v0c0.1,0.4-0.1-0.6-0.1-0.5l0,0l0,0v0c0,0,0-0.1,0,0c0,0.1,0,0.2-0.1,0.3c-0.3,0.4-1.5,0.6-3.2,0.3
									c-1.7-0.2-3.9-0.8-6.3-1.5c-2.4-0.6-4.8-1.1-7.6-1.9c0,0-0.7,0.1-1.6,0.4c-0.9,0.3-2.1,0.8-3.1,1.7c-0.9,1-1.6,2.5-1.1,4.8
									c0.1,0.6,0.3,1.2,0.6,1.9s0.7,1.4,1.1,2.1C114.9,227.9,116,229.4,117.5,230.9"/>
								<path class="st11" d="M97.8,223.3c-3.5-3.6-6.8-7.9-8.9-13.4c-0.5-1.5-0.8-3.5-1-5.5c-0.1-1.1-0.2-1.9-0.2-2.8
									c0-0.9-0.1-1.7-0.1-2.5c-0.2-4.2,1-8.1,1.9-10.5c1.2-2.7,2.4-5.8,4-9.1c1.5-3.3,3.3-6.8,5.6-10.2c2.2-3.3,5-6.6,7.8-8.8
									c2.7-2.3,5.4-3.8,7.8-4.6c1.4-0.7,2.4-1.2,3.7-2.1c0.2-0.4,1.4-1.5,1.6-1.9c3.6-2.8,7.2-4.7,10.1-6.8
									c4.8-3.7,10.6-5.1,16.1-6.1c3.1-0.6,6.6-1.7,9.9-2.5c5.7-1.4,7.8,2.3,13,0.7c4.1-1.1,7.3-3,9.8-5.2c2.4-2.2,4.2-4.6,6.7-7.1
									c3-2.9,5.1-6.3,7.6-9.9c2.2-2.6,3.8-6,5.4-9.4c0.4-0.8,2.2-2.7,2.5-2.6c0.5,0.5-0.1,2.5-0.1,3.8c0.1,3.6-2.4,4.9-3.8,6.8
									c-1.6,2.5-2.3,6-4,9.1c-0.4,0.6-0.9,1-1.3,1.5c-0.5,0.4-1,0.8-1.6,1.2c-1.8,1-2.6,3.5-4.1,5.6c-0.4,0.7-1,1.3-1.6,1.8
									c-0.6,0.5-1.3,0.9-2.1,1.4c-1.5,0.8-3,1.4-4.5,2.3c-3.9,2.2-6.8,5.8-10.8,6.6c1.8-0.3-1.6,1.3-5,2.8
									c-3.4,1.5-6.8,2.9-5.2,1.9c-0.2,0.3-1.5,0.1-2-0.3c-0.1-0.3-0.5-0.7-0.3-1c1.8-2.3,0.7-4.1,0.8-6.1
									c-0.3-0.1-9.3,4.2-13.3,4.8c-3.1,0.3-6.1,0.4-9.4,2.1c-0.8,0.6-0.8,1.6-1.5,2.2c-0.5,0.3-2,1.7-4.2,3.9
									c-2.2,2.2-5,5.2-7.6,8.6c-2.6,3.4-4.9,7.2-6.4,10.5c-1.5,3.2-2.2,5.7-2.6,6.4c-1.3,1.7-3.2,3.8-3.8,3
									c-2.1-1.4-4.4,2.1-6.6,3c-0.6,0.1-1-1-1.6-0.9c-1.7,0.8-4,2.9-4.7,5.6c-0.8,2.3-1.5,5.1-1.7,7.9c-0.1,1.4-0.1,2.9,0,4.3
									c0.1,1.4,0.3,3,0.6,4.4C93,212.2,94.8,218.1,97.8,223.3"/>
								<path class="st12" d="M114.7,210c0,0,0.4-0.2,1.1-0.5c0.3-0.1,0.6-0.2,1-0.4c0.4-0.1,0.7-0.2,1.1-0.2c0.3,0,0.7,0,1,0.1
									c0.4,0.1,0.8,0.3,1.4,0.7c1.2,0.8,2.7,2.3,4.6,4.7c0,0,0.5,0.4,1.2,1.1c0.4,0.4,0.8,0.7,1,1c0.1,0.1,0.1,0.2,0.1,0.3l0,0
									c0,0,0,0,0,0l0.3-0.4c0.4-0.6,0.8-1.1,1.3-1.7c0.4-0.5,0.8-1,1.1-1.5l1-1.3c2.5-3.2,3.9-4.6,5-5.6c1.1-1,1.8-1.4,2.1-1.5
									l0.1-0.1l-0.1,0.1l-0.2,0.1c-0.2,0.1-0.4,0.2-0.6,0.3c-0.5,0.2-1.1,0.4-1.7,0.5c-1.3,0.4-3.2,0.7-4.9,1l-3,0.4l-4.2,0.5
									l-2.4,0.3l0,0c0,0-0.1,0.1-0.1,0.1c-0.1,0.2-0.2,0.8-0.3,1.4c0,0,0,0.8,0.1,1.9c0,0.3,0,0.7,0,1.1c0,0.1,0,0.2,0,0.2
									c0.8,0.1,1.7,0.2,2.6,0.3c0.8,0.1,1.4,0.2,2.1,0.3l0.9,0.2l0.8,0.2c0.5,0.1,0.9,0.2,1.3,0.3l0.5,0.1l0.3,0.1l2.8,0.8l0,0
									l0,0l-0.2-0.1c-0.1,0,0.4,0.1,0.9,0.5c0.6,0.4,1.2,0.9,1.6,1.3c0.4,0.5,0.7,0.8,0.8,1.1c0,0,0,0.1,0.1,0.2
									c0.1,0.1,0.2,0.3,0.3,0.5c0.1,0.2,0.2,0.3,0.2,0.5l0,0.1l0,0l0,0l0,0v0v0l-0.1-0.5v0l0,0l0,0c0-0.2,0-1.2,0.3-2.5
									c0.1-0.3,0.2-0.7,0.3-1c0.1-0.3,0.2-0.6,0.3-0.9c0.2-0.7,0.4-1.1,0.5-1.4c0,0,0.1-0.2,0.3-0.6c0.1-0.2,0.2-0.5,0.3-0.8
									c0.1-0.1,0.1-0.3,0.2-0.5c0.1-0.2,0.2-0.4,0.3-0.7c0.2-0.5,0.5-1,0.8-1.5c0.3-0.6,0.7-1.3,1.1-2.1c0.1-0.2,0.2-0.4,0.3-0.5
									l0.1-0.2l0-0.1c0,0,0,0,0,0l0,0l0,0c0,0-0.1,0-0.2,0c-0.4,0-1.1-0.1-2.5-0.6c-0.7-0.2-1.4-0.4-2.1-0.5
									c-0.4-0.1-0.7-0.1-1-0.1c-0.4,0-0.5,0.1-0.8,0.2"/>
								<path class="st13" d="M133.8,140.9c1.4-0.6,5.4-2,9.6-3.2c4.2-1.2,8.5-2.2,10.5-2.4c3.1-0.3,6.1-0.5,9.1-0.6
									c3-0.2,6-0.2,8.8-0.2c0.6-0.1,1.2-0.4,1.5-0.7c2.2-2.7,5.4-3.5,6.7-5.8c0.3-0.5,0.5-1,0.7-1.5c0.2-0.5,0.5-1,0.9-1.4
									c4.3-4.3,8.4-9.7,12.4-15.7c1.7-2.5,3.6-4.7,5.3-7.4c0.4-0.5,1-1.4,1.4-1.2c0.4-0.1,0,1.3,0,2c-0.3,0.8-1,1.5-1.4,2.5
									c-1,1.9-1.6,4.5-2.8,6c-1.2,1.8-2.5,3-3.8,4.9c-0.8,1.2-1.4,2.3-2.1,3.6c-1.4,2.2-2.8,4.2-4.3,6.1c-1.5,1.9-3.2,3.5-4.9,5.1
									c-0.6,2.2-3.7,3.1-5.8,4.2c-0.7,0.3-1.4,0.4-2.3,0.6c-2.1,0.8-4.1,2.3-6,2.2c-3.8-0.5-7.7-0.8-12-0.4
									c-1.8,0.2-6.1,1.1-10.5,2.3c-4.4,1.2-8.7,2.6-10.5,3.3c-2.4,0.9-4.5,2.2-6.5,3.6c-2.1,1.4-4.2,2.9-6.6,4.3
									C120.7,151.6,122.9,145.9,133.8,140.9"/>
							</g>
						</g>
					</g>
				</g>
				<g class="st4">
					<g>
						<defs>
							<rect id="SVGID_13_" x="79.5" y="152.5" width="117.8" height="84.2"/>
						</defs>
						<clipPath id="SVGID_14_">
							<use xlink:href="#SVGID_13_"  style="overflow:visible;"/>
						</clipPath>
						<g class="st14">
							<g>
								<defs>
									<rect id="SVGID_15_" x="79.5" y="152.5" width="117.8" height="84.2"/>
								</defs>
								<clipPath id="SVGID_16_">
									<use xlink:href="#SVGID_15_"  style="overflow:visible;"/>
								</clipPath>
								<path class="st15" d="M171.6,157.3c-0.2-0.7-1.6-1.2-3.8-1.5c-2.2-0.2-5.1-0.2-8.2,0c-1.5,0.1-3.1,0.2-4.5,0.3
									c-1.1,0.1-2.1,0.2-3,0.2c-1.8,0.1-3.2,0.3-3.8,0.2c-2.1,0-5.5,0.6-9.4,1.9c-3.9,1.3-8.5,3.5-12.7,6.3
									c-2.1,1.4-3.9,2.8-5.5,4.1c-0.8,0.7-1.6,1.3-2.3,2c-0.7,0.6-1.4,1.3-2.1,1.9c-3.7,3.1-6.2,6.1-7.5,7.8
									c-0.8,1-1.2,1.5-1.3,1.4c-0.3-0.3-1.3-0.4-2.7-0.1c-1.4,0.3-3.3,1-5.1,2c-1.8,1-3.6,2.5-5.1,4c-1.4,1.6-2.5,3.2-2.8,4.6
									c-1,3.3-1.4,6.9-1.4,10.3c0,1.7,0.2,3.5,0.4,5.1c0.1,0.8,0.3,1.8,0.5,2.6c0.2,0.7,0.4,1.4,0.6,2.1c0.4,1.4,0.9,2.8,1.4,4.1
									c0.3,0.6,0.6,1.3,0.9,1.9c0.3,0.6,0.7,1.3,1,1.9c0.7,1.4,1.7,2.9,2.8,4.5c1.1,1.6,2.6,3.4,4.1,4.6c2.8,2.5,4.5,3.2,5.6,3.8
									c1.2,0.6,1.9,0.9,2.8,1.8c0.4,0.3,1.7,0.3,3.6,0.3c1.9,0,4.5,0,7.8,0.3c2.2,0.2,4.6,0.7,7,0.8c2.4,0.1,4.7,0,6.6-0.8
									c3.6-1.1,11.1-3.2,16.6-9.7c0.7-0.9,1.5-1.9,2.1-3.1c0.6-1.2,1.2-2.6,1.5-3.9c0.5-2.6,0.3-4.4,0.1-5.7
									c-0.3-2.7-0.9-5.3-1.6-7.1c-0.6-1.6-1.5-3.2-2.4-4.5c-0.9-1.3-1.8-2.4-2.7-3.3c-1.8-1.8-3.4-3.1-4.8-4.3
									c-1.5-1.3-2.9-2.5-4.4-3.7c-1.5-1.3-3.3-2.7-5.3-4c-1.3-1-2.8-1.7-4.2-2.3c-2.5-0.9-5.1-1.3-7.8-1.3c-2.6,0-5.3,0.3-8.2,0.8
									c-3.8,0.7-6.8,2-9.6,3.4c-2.8,1.4-5.4,3-8.3,4.9c-1.4,0.8-2.8,1.5-4.1,2.3c-1.3,0.8-2.5,1.6-3.9,2.5c-1.4,0.9-2.8,2-4.3,3.5
									c-0.7,0.8-1.5,1.6-2.2,2.6c-0.7,1-1.4,2.1-1.9,3.4c-0.5,1.3-0.8,2.8-0.6,3.9c0.1,0.6,0,1.6,0,2.6c0,1.1,0.2,2.3,0.5,3.1
									c0.5,2.5,1.5,4.4,2.2,5.9c0.3,0.6,0.6,1.3,0.9,1.9c0.3,0.6,0.6,1.2,0.9,1.9c0.7,1.3,1.5,2.6,2.5,3.9
									c1.1,1.3,2.3,2.5,3.8,3.4c0.8,0.5,1.9,1,2.8,1.1c0.9,0.1,1.6,0,1.5-0.4c-0.3-2.1-1.1-4.3-1.6-6.7c-0.6-2.4-1-4.8-1.4-7.3
									c-0.2-1.2-0.6-2.4-1-3.5c-0.4-1.1-0.6-2-0.5-2.5c0-0.5,0.2-1.1,0.5-1.8c0.3-0.7,0.8-1.4,1.5-2c0.9-0.9,2.3-1.6,3.9-2.1
									c1.5-0.5,3.4-0.9,5-1c3.3-0.3,6.4,0.2,8.9,1.2c1.9,0.8,3.8,2.1,5.5,3.1c1.7,1,3.4,1.6,4.4,1.1c0.2-0.1,0.4-0.2,0.6-0.4
									c0.1-0.1,0.2-0.1,0.3-0.2c0.1-0.1,0.1-0.1,0.1-0.2c0.1-0.2,0.3-0.5,0.5-0.7c0.4-0.5,0.9-0.8,1.4-0.8c0.4,0,0.8,0.3,0.8,1
									c0,0.2-0.1,0.3,0.1,0.7c0.2,0.3,0.3,0.7,0.5,1c0.4,0.7,0.8,1.4,1.3,2.3c0.5,0.8,0.8,1.5,0.8,1.8c0,0.1-0.1,0.2,0,0.1
									c1-0.8,2-1.6,2.8-2.2c1.7-1.2,3-2.1,4-2.7c0.1-0.1,0.3-0.2,0.6-0.3c0.2-0.1,0.4-0.2,0.7-0.4c0.1-0.1,0.2-0.1,0.3-0.2
									l0.2-0.1l0.1,0l-0.1,0c-0.2,0.1-0.5,0.2-0.8,0.3c-1.1,0.4-3.2,0.9-4.5,1.1c-0.4,0.1-1,0.2-1.5,0.2c-0.6,0.1-1.1,0.2-1.8,0.2
									c-0.7,0.1-1.3,0.1-2.1,0.2c-1.1,0.1-0.7,0-0.8,0.1c0,0,0,0.3,0,0.6l0,0.1l5.2,0.2l3.7,0.2l2.6,0.2c1.5,0.1,2.6,0.2,3.4,0.3
									c0.9,0.1,1.5,0.2,2.1,0.4c0.6,0.1,1,0.2,1.3,0.3l0.5,0.1l0.2,0.1c0,0,0,0-0.1,0c-0.2-0.1-0.6-0.3-1.1-0.6
									c-0.9-0.6-2.1-1.6-3.6-3.2c-0.7-0.8-1.5-1.8-2.4-2.9c-0.2-0.3-0.5-0.6-0.7-0.9l-0.1-0.1c-0.2-0.2-0.4-0.8-0.6-1.2
									c-0.6-1.6-0.6-2.9-0.5-3.5c0-0.4,0-0.1,0,0c0,0.1-0.1,0.2-0.2,0.4c-0.1,0.1-0.2,0.4-0.3,0.6c-0.2,0.3-0.4,0.6-0.6,1
									c-0.2,0.3-0.5,0.6-0.8,0.8l-0.1,0.1l-0.5,0.5c-0.4,0.4-0.7,0.8-1,1.1c-0.7,0.7-1.3,1.2-1.8,1.7c-0.6,0.5-1,0.8-1.5,1.1
									l-0.3,0.2l0.6-0.4c0.4-0.2,0.8-0.5,1.4-0.8c0.5-0.3,1.2-0.6,1.9-0.9c0.3-0.1,0.2-0.1,0.2-0.1c0,0,0,0-0.1,0c0,0-0.1,0-0.1,0
									c-0.2,0-0.4-0.1-0.6-0.3c-0.4-0.4-0.9-0.9-1.2-1.4c-0.4-0.5-0.7-1.1-0.9-1.6c-0.2-0.4-0.4-0.9-0.5-1.3
									c-0.6-2.2-0.2-4.6,1.4-6.2c0.2-0.2,0.9-0.5,1.8-0.5c1.5-0.1,3.2,0.4,3.8,0.7c0.3,0.1,0.4,0.2,0.7,0.2
									c0.4-0.1,0.8-0.3,1.2-0.5c0.8-0.4,1.6-1,2.2-1.5c1.3-1.2,2.3-2.5,2.9-3.6c1.8-3.9,5.2-7.1,10.4-9.6c1.9-0.6,4-0.2,6.3-0.5
									c0.3-0.1,0.6-0.1,0.8-0.2l0.4-0.1l0.2-0.1c0.3-0.1,0.6-0.3,0.9-0.4c0.6-0.3,1.2-0.7,1.8-1c1.2-0.7,2.6-1.6,4.1-2.3
									c0.6-0.3,1.2-0.5,1.8-0.8c3.5-0.7,6.2-0.3,8.1,0.2c1.9,0.5,3,1.1,3.7,1.5c1.4,0.7,1.5,0.2,1.6,0.5c0.7,1.4-1,3.3-1.2,5.2
									c-0.1,2.5,0.6,4.3,1.5,5.8c0.6,1.1,1.1,2.4,1.6,3.9c0.5,1.5,0.8,3.1,1.1,5.2c0.5,4,0.6,8,0.3,12.4c0.3-0.6,0.8-0.8,0.8-1.4
									c0.3-3,1-5.7,1.9-8.2c0.4-1.3,0.9-2.5,1.4-3.8c0.5-1.4,1-2.8,1.5-4.3c1-3,2-6.2,2.5-9.5c0.5-3.3,0.6-6.7-0.5-10
									c-0.6-1.1-1.7-2.4-2.7-3.7c-1.7-2.3-4.1-3.8-6.5-4.7c-2-0.9-4.2-2.6-6.3-4.1c-2.1-1.6-4-3.2-4.6-4.4
									C171.7,157.4,171.7,157.4,171.6,157.3"/>
								<g class="st16">
									<g>
										<defs>
											<rect id="SVGID_17_" x="79.5" y="182.8" width="76.6" height="53.8"/>
										</defs>
										<clipPath id="SVGID_18_">
											<use xlink:href="#SVGID_17_"  style="overflow:visible;"/>
										</clipPath>
										<path class="st17" d="M92.1,209.5c-1.4,1.3-2,2.9-2.1,4c-0.1,0.5,0.1,1.4,0.4,2.5c0.4,1.1,0.8,2.3,0.9,3.5
											c0.4,2.5,0.8,5,1.4,7.4c0.6,2.4,1.3,4.6,1.6,6.7c0.1,0.4-0.6,0.5-1.5,0.4c-0.9-0.1-2-0.6-2.8-1.1
											c-1.4-0.9-2.7-2.1-3.8-3.5c-1.1-1.3-1.8-2.6-2.5-3.9c-0.3-0.6-0.6-1.2-0.9-1.8c-0.3-0.6-0.6-1.3-1-2
											c-0.7-1.5-1.7-3.4-2.1-6c-0.2-0.8-0.4-2-0.4-3.1c0-1.1,0.1-2.1,0-2.6c-0.1-1.1,0.2-2.6,0.7-3.9c0.5-1.2,1.2-2.3,1.9-3.3
											c0.7-1,1.5-1.8,2.2-2.6c1.5-1.5,3-2.6,4.3-3.5c2.6-1.7,5.1-3.3,8-4.8c2.9-1.8,5.5-3.4,8.3-4.9c2.8-1.4,5.8-2.7,9.6-3.4
											c2.9-0.5,5.5-0.8,8.2-0.7c2.6,0,5.2,0.4,7.7,1.3c1.5,0.6,3,1.4,4.4,2.4c2,1.3,3.8,2.8,5.3,4.1c1.5,1.3,2.9,2.5,4.3,3.7
											c1.4,1.2,3.1,2.5,4.8,4.4c0.9,0.9,1.8,2,2.7,3.3c0.9,1.3,1.7,2.9,2.3,4.6c0.7,1.7,1.3,4.3,1.6,7c0.1,1.3,0.4,3.2-0.2,5.8
											c-0.3,1.4-0.9,2.7-1.6,3.9c-0.7,1.2-1.4,2.1-2.2,3c-5.5,6.3-13.1,8.5-16.7,9.5c-1.9,0.7-4.2,0.9-6.6,0.7
											c-2.4-0.1-4.8-0.6-7-0.9c0,0-0.6-0.6-1.9-1.8c-1.2-1.2-3.1-3.1-5-5.9c5.4,2.6,11,3.4,16.2,2.7c5.2-0.7,10-2.8,13.4-6.1
											c0.8-0.8,1.6-1.7,2.3-2.6c0.7-0.9,1.3-2,1.6-3.1c0.7-2.3,0-4.3-0.6-6.3c-0.6-2-1.4-3.8-2.4-5.2c-1-1.4-2.3-2.4-3.8-3.4
											c-1.8-2.1-4.3-4.4-6.7-6.2c-1.2-0.9-2.3-1.7-3.5-2.4c-1.2-0.7-2.5-1.2-3.8-1.6c-6.2-1.8-12.6-0.2-18.7,3.1
											c-3.1,1.7-6,3.7-9,6c-1.5,1.1-3.1,2.3-4.4,3.4C94,207.4,92.9,208.5,92.1,209.5"/>
									</g>
								</g>
								<path class="st18" d="M122.4,232.7c0,0-0.5-0.1-1.3-0.2c-0.9-0.2-2.1-0.5-3.5-1c-2.9-1.1-6.4-2.7-9.8-6.4
									c-0.8-0.9-1.6-2-2.3-3c-0.6-1-1.1-2-1.5-2.9c-0.8-1.8-1.1-3.1-1.2-4.3c-0.3-2.4,0.4-3.8,2.3-3.5c0,0,0.3,0.3,0.9,0.8
									c0.6,0.5,1.5,1.2,2.6,2c1.1,0.8,2.4,1.7,4,2.7c1.6,1,3.4,1.7,5.2,2.1c3.6,0.7,7.3,0.2,10.2-0.5c2.9-0.7,5.1-1.8,6.8-2
									c0,0,1.3-0.2,2.6-0.8c0.6-0.3,1.3-0.7,1.8-1.2c0.3-0.2,0.5-0.5,0.6-0.6c0-0.1,0.1-0.1,0-0.1c0.2,0.2,0.4,0.3,0.6,0.5
									c0.2,0.2,0.4,0.3,0.6,0.4c0,0,0.1,0.1,0.4,0.3c0.3,0.2,0.6,0.4,0.9,0.5l0.1,0l0.1,0c0,0,0,0,0,0c-0.1-0.1-0.3-0.1-0.5-0.2
									c-0.2-0.1-0.5-0.1-0.8-0.2c-0.2,0-0.4-0.1-0.5-0.1c-0.2,0-0.3-0.1-0.5-0.1c0.1,0,0.3-0.2,0.4-0.8c0.3-1.3,0.4-2.7,0.2-3.9
									c-0.3-1.2-0.7-1.9-1.8-2.7c0,0-0.3-0.3-0.9-0.8c-0.6-0.5-1.6-1.3-3.1-2.4c-0.7-0.5-1.5-1.1-2.3-1.6
									c-0.4-0.3-0.8-0.5-1.2-0.7c-0.4-0.2-0.8-0.5-1.1-0.6c-1.4-0.7-2.9-1.3-4.4-1.5c-2.7-0.5-5.2-0.1-7.1,0.3
									c-2.1,0.4-3.9,1-4.5,0.6c0,0-2.7,0.7-6.2,2.3c-3.4,1.5-7.6,3.7-9.8,4.1c0,0-0.5,0-1.2,0c-0.8,0-1.8,0.1-2.9,0.3
									c-1.1,0.2-2.3,0.6-3.4,1.3c-1,0.7-1.8,1.8-1.9,3c0,0-0.1,0.2-0.3,0.6c-0.2,0.4-0.4,0.9-0.5,1.6c-0.1,0.7-0.1,1.5,0.1,2.5
									c0.2,1,0.6,2,0.9,3c0.6,2,1.1,3.7,0.9,4.5c-0.1,0.8-1,0.5-2.9-1.6c0,0-0.3-0.3-0.8-0.7c-0.5-0.5-1.1-1-1.9-1.9
									c-0.8-0.9-1.7-2.1-2.3-3.7c-0.6-1.6-0.8-3.2-0.7-4.4c0,0,0-0.3,0.1-0.8c0.1-0.5,0.3-1.2,0.6-2c0.3-0.8,0.7-1.8,1.4-2.8
									c0.6-1,1.4-2.1,2.3-3c1.9-1.9,4.2-3.6,6.4-5c2.3-1.5,4.7-3.1,7.3-4.6c2.6-1.5,5.4-2.9,8.1-4c2.8-1.1,5.5-1.8,8-2.1
									c5-0.7,8.5,0.2,9,0.6c0,0,0.4,0.1,1.2,0.3c0.8,0.2,1.9,0.5,3.2,1.1c1.5,0.6,3.2,1.5,5.1,2.8c1.8,1.3,3.7,2.8,5.6,4.7
									c1.9,1.8,4,3.8,5.7,6.1c0.9,1.2,1.6,2.4,2.2,3.8c0.5,1.4,0.9,2.9,1.1,4.4c0.2,1.5,0.4,3.1,0.4,4.7c0.1,1.6-0.4,3.4-1.4,4.8
									c-1.9,2.8-4.5,4.9-7.3,6.6C134.7,230.3,128.3,231.6,122.4,232.7"/>
								<path class="st19" d="M120.7,234.1c0,0-0.4,0-1-0.1c-0.6-0.1-1.6-0.2-2.8-0.4c-1.2-0.3-2.6-0.7-4.1-1.3
									c-1.5-0.6-3.1-1.4-4.9-2.7c-1.7-1.3-3.6-3.1-5.2-5.5c-1.5-2.3-2.4-4.4-3-6.1c-0.5-1.7-0.8-3.4-0.9-5c0-0.8,0-1.6,0.1-2.4
									c0.1-0.8,0.3-1.5,0.6-2.4c0,0,0-0.6,0.1-1.5c0.1-0.9,0.3-2.3,0.6-3.8c0.6-3,2-6.8,4-9.7c1.9-2.9,4.4-5,6.1-5.7
									c1.8-0.7,2.9-0.1,2.8,2.1c0,0,0,0.5,0,1.5c0,1,0.2,2.3,0.5,4c0.7,3.3,2.3,7.5,5,11c1.3,1.7,2.9,3.7,4.5,5
									c0.4,0.3,0.7,0.5,1.1,0.5c0.3,0.1,0.6,0,0.8,0c0.6-0.1,1.2-0.1,2,0c3,0.1,5.7-0.6,7.2-1.2c0,0,0,0,0.1,0
									c0.1-0.1,0.2-0.2,0.3-0.4c0.1-0.2,0.2-0.5,0.1-0.9c0-0.2,0-0.4-0.1-0.7c-0.1-0.2-0.2-0.6-0.3-0.7c0,0,0,0,0.1,0.1
									c0,0,0.1,0.1,0.1,0.1c0.3,0.4,0.6,0.7,0.9,1.1c0.3,0.4,0.7,0.9,1,1.2c1.3,1.6,2.6,3,3.8,3.9c0.6,0.5,1.1,0.8,1.5,1
									c0.2,0.1,0.4,0.2,0.5,0.3l0.1,0l-0.2-0.1l-0.5-0.2c-0.8-0.2-2-0.5-4.4-0.8c-1.2-0.1-2.7-0.3-5.2-0.4l-2-0.1c0,0,0,0,0,0
									l0-0.1c0-0.5,0.1-1,0.2-1.3c0.1-0.3,0.3-0.4,0.5-0.5c0.6-0.1,1.5-0.4,2-0.5c0.6-0.2,1-0.3,1.4-0.5c0,0,0.1,0,0.2-0.1
									c0.1,0,0.1,0,0.2-0.1c0,0,0.1,0,0.1-0.1l0.1,0l0,0l-0.1,0c-0.2,0.1-0.4,0.2-0.9,0.4c-0.2,0.1-0.4,0.2-0.6,0.3
									c-0.1,0.1-0.3,0.1-0.4,0.2c-0.1,0.1-0.3,0.2-0.3,0.1c0.4-0.2,0.5-1.1-0.4-2.7c-0.4-0.8-1.1-1.8-1.6-2.6
									c-0.6-0.8-1.2-1.6-1.7-2.2c-0.3-0.3-0.5-0.5-0.7-0.7c-0.2-0.2-0.4-0.4-0.7-0.6c-0.5-0.3-0.9-0.5-1.4-0.6
									c0,0-0.3-0.7-0.9-1.5c-0.8-1-2.4-1.8-3.7-1c0,0,0.4-0.1,1.1-0.2c0.7-0.1,1.7-0.2,3-0.1c0.9,0.1,1.8,0.3,2.8,0.6
									c0.5,0.2,1,0.4,1.5,0.6c0.3,0.1,0.5,0.2,0.8,0.4c0.3,0.2,0.6,0.3,0.9,0.5c1.3,0.7,2.6,1.7,4,2.7c1.3,1,2.4,1.9,3.1,2.7
									c0.8,0.8,1.1,1.4,1.4,2.1c0.3,0.8,0.4,1.7,0.5,2.7c0,0.5,0,1-0.1,1.4c0,0.5-0.1,0.9-0.2,1.1c-0.1,0.2-0.2,0.3-0.3,0.4
									c0,0-0.1,0-0.1,0c0.2,0,0.3,0.1,0.5,0.1c0.4,0.1,0.6,0.1,0.8,0.2c0,0,0.1,0,0.3,0.1c0.1,0,0.2,0.1,0.4,0.1
									c0.1,0,0.4,0.1,0.2,0.1c-0.3-0.1-0.9-0.4-2.2-1.4l-0.3-0.2l0,0c0,0,0,0,0,0c0,0-0.1,0-0.1,0.1c-0.1,0.1-0.3,0.2-0.6,0.4
									c-0.5,0.4-1.1,0.7-1.8,1.1c-1.5,0.8-3.6,1.9-6.7,2.7c-3.1,0.8-7.2,1.5-12.5,0.5c0,0-0.7,0.2-1.6,0.5
									c-0.9,0.4-2.1,0.9-2.9,1.9c-0.8,1-1.3,2.7-0.5,5.1c0.4,1.2,1.1,2.5,2.4,3.9C116.6,231.3,118.3,232.8,120.7,234.1"/>
								<path class="st20" d="M97.5,226.1c-2.1-2.6-3.6-4.9-4.9-6.7c-1.3-1.8-2.5-3.8-3.4-6.1c-0.2-0.6-0.4-1.3-0.6-2.1
									c-0.1-0.7-0.3-1.8-0.5-2.8c-0.2-1.9-0.4-3.9-0.5-5.6c-0.3-4.6,1.1-9.4,2.4-12.3c1.3-2.6,2.7-5.5,4.5-8.3
									c1.8-2.8,4-5.5,6.4-8c1.9-1.8,3.9-3.5,6-4.9c1.1-0.7,2.1-1.4,3.2-2c0.5-0.3,1.1-0.6,1.6-0.9c0.3-0.2,0.4-0.2,0.6-0.3
									l0.5-0.2c2.7-1.1,5.6-2.1,8.2-2.4c1.4-0.3,2.4-0.7,3.7-1.3c0.3-0.3,1.6-1.3,1.9-1.6c4.1-2.2,8.4-3.5,12.1-4.9
									c3-1.3,6.2-1.8,9.1-1.8c1.5,0,2.9,0.1,4.4,0.2c0.7,0.1,1.4,0.2,2.1,0.3c1,0.1,1.9,0.1,2.9,0.2c4.3,0.3,9.3,0.1,13.5,0.8
									c0.6,0.1,1.1,0.2,1.6,0.4c2.6,0.8,3.7,2.3,4.8,3.6c1.1,1.3,2.1,2.5,4.5,3.7c2,1.1,4,2.2,5.8,3.6c1.8,1.4,3.5,3,4.7,4.8
									c2.4,3.8,3.2,8.2,2.5,13.3c-0.6,3-1.3,5.8-2,8.5c-0.4,1.3-0.8,2.6-1.2,3.9c-0.2,0.6-0.4,1.2-0.6,1.8c-0.2,0.5-0.4,1-0.6,1.5
									c-1.6,2.9-2.6,6.2-3.4,9.7c-0.2,0.8-1.4,2.9-1.8,3c-0.6-0.3-0.5-2.3-0.8-3.5c-0.8-3.4,1.3-5,2.3-7c0.5-1.3,0.8-2.8,1-4.4
									c0.2-1.7,0.4-3.5,0.8-5.2c0.5-1.5,1.1-2.6,1.9-4.2c1.2-2.2,0.8-5.1,0.4-7.7c-0.4-1.6-0.4-3.4-0.7-5.3
									c-0.3-1.9-1-3.8-2.4-5.1c-1.7-1.9-4.1-2.7-6.3-3.2c-2.2-0.5-4.3-0.6-6.1-1.3c1.5,0.6-2.2,0.2-5.8,0.5
									c-3.6,0.2-7.2,0.5-5.3,0c-0.3,0.2-1.4-0.4-1.6-1c0.1-0.4-0.1-0.9,0.3-1.1c3-1.6,3.2-3.7,4.6-5.6c-0.2-0.1-3.3,0.1-7.1,0.3
									c-0.9,0.1-1.9,0.1-2.9,0.2c-1,0-2.1,0.1-2.7,0.1c-1.4,0-2.8-0.1-3.8-0.3c-3-0.7-5.9-1.5-9.8-0.7c-1,0.4-1.2,1.3-2.2,1.8
									c-0.6,0.2-2.6,1.2-5.3,3c-2.6,1.7-6,4.3-8.7,7c-1.4,1.3-2.7,2.7-3.8,3.9c-0.6,0.6-1.1,1.2-1.7,1.8c-0.7,0.7-1.3,1.3-1.9,1.9
									c-2.4,2.5-3.9,4.6-4.6,5.2c-0.1,0.1-0.2,0.2-0.4,0.3c-0.9,0.6-1.8,1.2-2.6,1.6c-0.8,0.4-1.4,0.6-1.6,0.1
									c-0.9-0.9-2.1-0.6-3.4,0c-0.6,0.3-1.3,0.7-2,1.1c-0.6,0.4-1.3,0.8-1.9,0.9c-0.6,0.1-0.8-1.2-1.4-1.2
									c-1.9,0.7-4.6,2.8-5.7,6.1c-1.1,2.7-1.8,5.9-2,9.1c-0.2,3.2,0,6.3,0.7,9.1c0.3,2.5,0.8,4.9,1.5,7.3c0.3,1.2,0.7,2.3,1.2,3.8
									C95.8,222.7,96.5,224.3,97.5,226.1"/>
								<path class="st21" d="M121,210.9c0,0,0.1-0.3,0.4-0.7c0.3-0.3,0.8-0.6,1.3-0.5c0.3,0.1,0.7,0.4,0.8,0.8
									c-0.1,0.3,0.7,1.5,1.2,3.1c0,0,0.2,0.4,0.6,1c0.4,0.6,0.8,1.4,0.9,1.8c0,0.1,0,0.2,0,0.2l0,0l0,0l0.3-0.3
									c0.5-0.4,1-0.8,1.5-1.2c1.8-1.4,3.1-2.3,4.2-2.9c1.1-0.6,1.7-1,2.3-1.2c0.1-0.1,0.2-0.1,0.3-0.2l0.2-0.1c0.1,0-0.1,0-0.1,0
									c-0.2,0.1-0.3,0.1-0.5,0.2c-1.1,0.4-2.8,0.9-5.5,1.4c0,0-0.6,0.1-1.8,0.3c-0.6,0.1-1.4,0.2-2.4,0.3c-0.4,0-0.9,0.1-1.4,0.1
									c0,0,0,0,0,0c0,0.2,0,0.4,0,0.6c1.7,0.1,3.5,0.1,5.2,0.2c0.8,0,1.5,0.1,2.3,0.1c0.6,0,1.2,0.1,1.9,0.1
									c2.2,0.1,3.8,0.3,4.9,0.4c2.3,0.3,3.5,0.6,4.3,0.8c0.2,0.1,0.4,0.1,0.5,0.2l-0.3-0.1c-0.2-0.1-0.4-0.2-0.7-0.4
									c-0.5-0.3-1.3-0.9-2.1-1.6c-0.8-0.7-1.7-1.7-2.7-3c-0.5-0.6-1.1-1.3-1.6-2.1c-0.1-0.2-0.3-0.4-0.4-0.6
									c-0.2-0.3-0.5-0.9-0.6-1.2c0,0-0.1-0.2-0.2-0.5c0-0.2-0.1-0.3-0.2-0.6c-0.1-0.2-0.1-0.4-0.1-0.7c-0.2-0.9-0.1-1.6-0.1-1.7
									c0,0,0-0.1,0-0.2c0,0,0-0.1,0-0.1c0,0.1,0,0.1-0.1,0.2c-0.1,0.2-0.2,0.5-0.5,1c-0.3,0.5-0.6,1.1-1.5,1.8"/>
								<path class="st22" d="M144.1,152.7c0.8-0.1,2.3-0.2,4.1-0.2c1.9,0,3.9,0,6.2,0.1c3.2,0,6.4,0,9,0.2c1.3,0.1,2.5,0.2,3.5,0.3
									c1,0.1,1.8,0.3,2.4,0.4c1.2,0.3,2.3,0.6,3.3,1c2.9,1,5.4,2.3,7.7,3.8c2.3,1.6,4.3,3.4,5.9,5.6c0.5,0.5,1.2,1,1.7,1.2
									c2.1,0.7,3.8,2.3,5.1,4.2c1.2,1.9,1.9,4,2.7,5.7c0.6,1.5,1.4,2.8,1.4,4.7c0.1,5.1-1.3,10.5-2.8,15.2
									c-0.4,1.2-0.8,2.3-1.1,3.4l-0.3,0.8l-0.3,0.6l-0.5,1.2c-0.7,1.6-1.4,3.1-2.1,4.6c-1.2,2.6-2.6,4.8-3.5,7.7
									c-0.3,0.5-0.5,1.5-1,1.5c-0.3,0.2-0.4-1.1-0.6-1.8c0.1-0.9,0.5-1.6,0.7-2.7c0.5-2,0.6-4.4,1.5-6.1c0.8-1.9,1.9-3.2,2.7-5.2
									c0.5-1.5,0.9-3,1.3-4.8c0.8-3.1,1.5-6.4,1.8-9.5c0.3-3.2,0.3-6.2-0.5-9.2c-0.9-0.8-1.4-2.2-2.2-3.6
									c-0.7-1.4-1.6-2.9-2.7-3.8c-0.6-0.6-1.1-1.3-1.8-2.1c-1.1-0.8-2.3-1.3-3.5-1.8c-1.2-0.5-2.2-0.9-2.8-1.5
									c-1.9-2.2-4.3-4-7.7-5.3c-0.8-0.3-1.7-0.6-2.7-0.9c-1-0.3-2.9-0.6-5.3-0.7c-2.4-0.2-5.5-0.3-8.6-0.4l-0.6,0l-0.4,0l-0.8-0.1
									c-0.6,0-1.1-0.1-1.6-0.1c-1.1-0.1-2.2-0.1-3.1-0.1c-2,0-3.7,0.1-4.7,0.2c-5.3,0.5-10.3,3-15.7,5c-0.2,0.1,0.3-1.1,2.7-2.8
									C133.3,155.7,137.7,153.5,144.1,152.7"/>
							</g>
						</g>
					</g>
				</g>
				<g class="st4">
					<g>
						<defs>
							<rect id="SVGID_19_" x="41.5" y="170.1" width="60.9" height="63.5"/>
						</defs>
						<clipPath id="SVGID_20_">
							<use xlink:href="#SVGID_19_"  style="overflow:visible;"/>
						</clipPath>
						<g class="st23">
							<g>
								<defs>
									<rect id="SVGID_21_" x="41.5" y="170.1" width="60.9" height="63.5"/>
								</defs>
								<clipPath id="SVGID_22_">
									<use xlink:href="#SVGID_21_"  style="overflow:visible;"/>
								</clipPath>
								<path class="st24" d="M95.2,214.2c1.4-2.3-0.5-4.3-0.3-5.1c0.1-1.3-1.8-1.8-3.5-2.2c-0.9-0.2-1.7-0.4-2.2-0.6
									c-0.6-0.2-0.9-0.4-0.6-0.6c1.5-0.9,7.9-6.1,7.9-6.8c0.1-0.9-0.5-1.8-1.5-2.5c-1.1-0.7-2.6-1.2-4.2-1.4
									c-1.5-0.3-2.3,0.1-2.3-0.4c-0.1-0.2-3,1.1-5,1c-1.3-0.1-1.6-1.2-3-1.1c-2.2-0.2-6.2-2.6-7.8-3.1c-3.2-1.1-4.3-1.9-4.6-4.3
									c0-1.9-1.5-2.4-2-4c-0.7-1.5-1.7-2.2-2.3-3.7c-0.1-0.8-0.2-1.6-0.4-2.3c-0.2-0.7-0.5-1.4-0.9-2c-0.2-0.1-0.4-0.3-0.7-0.2
									c-0.3,0-0.4-0.4-0.6-0.5c-0.1-1.4,1-3.1,0.3-4c-0.2-0.3-1.1-0.4-1.7-0.1c-3.2,1.8-5.3,3.8-7,6c-1.5,2.1-0.8,3.6-0.5,5.3
									c0.5,2.3-2.4,6.1-5.3,9.4c-2.3,2.6-6.3,6-4.9,7.7c1.8,1.8,5.2,2,5.3,4.7c-0.1,2.1-0.3,3.7,0.1,5.3c-0.1,0.3,0,1.3,0.1,1.6
									c1.3,1.1,1.3,3.2,4.5,2.2c0.9,0.4,1.2,0.9,1.6,1.3c0.4,0.4,0.9,0.7,2.1,0.6c1.7-0.2,3.4-0.4,4.9-0.4c1.5,0,2.8,0.2,3.7,1
									c1.1,0.9,1.8,2,2.2,3.7c0.1,0.3-0.2,1.3-0.6,2.4c-0.3,1.1-0.7,2.4-0.9,3c-0.6,2.2,1.7,3.2,3.5,3.3c3.3-0.1,5.9,0,8.3,0.5
									c0.7,0.4,0.6,1.5,1.2,2c1.8,1,4.2,0.2,6.2,0.3c3,1.1,4.5,1,5.3,0.8c0.8-0.2,0.8-0.6,0.9-0.4c0.5,0.3-0.2,1.9,0.3,2.6
									c0.8,0.7,2.1,0.3,3.2-0.4c3-1.7,6.1-3.5,7.5-1.2c0-0.4,0.2-0.9,0-1c-2.1-3.2-2.3-7.7-5-8.8c-0.4,0.1-0.9,0.3-1.2,0.1
									c-0.5-0.3-1.1-0.5-1.7-0.6c-0.4-0.2-0.3-1.5,0-3C93.9,216.8,94.6,215.2,95.2,214.2"/>
								<g class="st25">
									<g>
										<defs>
											<rect id="SVGID_23_" x="51.7" y="170.1" width="31.7" height="29.1"/>
										</defs>
										<clipPath id="SVGID_24_">
											<use xlink:href="#SVGID_23_"  style="overflow:visible;"/>
										</clipPath>
										<path class="st26" d="M52.2,181.6c-0.1-0.9-0.4-1.7-0.4-2.5c0-0.9,0.2-1.7,0.9-2.8c1.6-2.2,3.8-4.2,7-6
											c0.6-0.4,1.5-0.2,1.7,0.1c0.7,0.9-0.4,2.6-0.3,4c0.2,0.1,0.3,0.5,0.6,0.5c0.3,0,0.5,0.1,0.7,0.2c0.4,0.7,0.7,1.3,0.9,2
											c0.2,0.7,0.3,1.5,0.4,2.3c0.6,1.5,1.6,2.2,2.3,3.7c0.5,1.5,2,2,2,4c0.4,2.3,1.5,3.2,4.6,4.3c1.7,0.5,5.6,3,7.8,3.2
											c1.4-0.1,1.7,1,3,1.1c0,0-0.8,1.3-2,3.5c-6.3-1.6-12.4-2.3-18.5-3.1C59.3,191.6,55.5,186.9,52.2,181.6"/>
									</g>
								</g>
								<path class="st27" d="M80.8,197.4c0,0,2.2,0.4,3.7,1.4c1.5,1,2.1,2.4-1.2,3.8c0,0-4.4,1-9,2c-4.6,1-9.2,1.9-10.2,0.8
									c0,0-1.5-1.6-2.5-2.4c0,0,0.3-0.8,0.2-1.8c-0.1-1-0.6-2-2-2.5c0,0-2.4-1.3-4.6-3c-2.2-1.7-4.3-3.8-3.5-4.8
									c0,0-0.4-1.1-0.6-2.4c-0.2-1.4-0.3-3,0.2-3.9c0,0,0.8-1,1.5-2.2c0.7-1.2,1.2-2.5,0.5-3.2c0,0,0.1-0.5,0.3-1.1
									c0.2-0.7,0.5-1.5,0.9-2.3c0.8-1.5,1.9-2.7,2.8-1.7c0,0,0.4,0.2,0.9,0.5c0.5,0.3,1.1,0.6,1.4,0.9c0,0,0.8,2.7,1.8,5.5
									c1,2.9,2.1,5.9,1.6,6.7c0,0,0.7,3.5,3.2,6.4C69.1,197.1,73.3,199.3,80.8,197.4"/>
								<path class="st28" d="M82.6,196.5c0,0,2.2-0.2,4,0.3c1.8,0.5,3.3,1.9,1.3,4.2c0,0-0.2,0.6-0.5,1.4c-0.3,0.8-0.9,1.8-1.5,2.9
									c-1.4,2-3.2,4.3-5.4,4.7c0,0-1.1,0.2-2.9,0.3c-1.7,0.1-4.1,0.2-6.6,0.2c-5,0-10.1,0.1-12-1.8c0,0-0.4-0.5-3.2,0.1
									c0,0-1-0.2-1.8-0.8c-0.7-0.6-1.3-1.6-0.3-3.3c0,0,0.4-1.5,0.5-3.2c0.1-1.7-0.1-3.5-1-4c0,0,1.4-3-0.3-3.1
									c0,0,2.8,1.3,5.3,2.9c2.5,1.6,4.7,3.4,3.7,4.9c0,0-0.1,1.5,1.2,2.5c1.4,1,4.3,1.5,10.9,0.2c0,0,2.2-0.9,4.4-2.4
									C80.6,201,82.8,198.9,82.6,196.5"/>
								<path class="st29" d="M92.7,194.6c1.5,0.1,3.3,0.1,4.7,0.4c0.6,0.2,0.8,0.9,1.2,1.2c0.5,0.5,0.1,1.3-0.1,1.8
									c-0.9,1.4-1.2,2.4-1.7,3.2c-0.5,0.8-1,1.7-2.2,3.2c-0.2,0.4-0.3,0.6-0.3,0.8c0.1-0.1,0.5-0.1,0.6-0.2c0.4,0.3,0.6,0.8,1.2,1
									c1.1,0.1,0.7,1.8,0.2,3.8c-0.2,1-0.1,1.9,0,2.8c0.1,1.6-2.3,5.1-1.8,6.3c0.4,1.1,1.3,1.3,2.2,1.4c1,0.1,1.9,0.1,2.4,1.1
									c0.5,1.3,1.2,2.1,1.6,3.8c0.2,1.5,0.7,2.5,1.1,3.9c0.1,0.3,0.1,1.9-0.1,2.2c-0.3,0.4-0.6,0-1,0.1c-1.1,0.3-0.7-1.8-0.9-2.8
									c-0.3-1.1-1.3-1-2-1.6c-0.2-0.4-0.3-0.9-0.3-1.6c0.1-1.1-0.8-0.8-1.6-0.8c-1,0.2-1-1.5-1.8-1.9c-1-0.6-3,0.7-3.2-0.6
									c0.1,0.6-0.7,0.1-1.3-0.5c-0.6-0.6-1.1-1.4-0.6-1.3c-0.2,0.1,0.1-0.7,0.4-1.1c0.2-0.3,0.5-0.7,0.7-0.8
									c1.2-0.6,2.5-2.3,3.7-3.5c0.1-0.2-1.3-1.6-0.8-3.2c0.4-1.3,1-2.6,0.8-3.2c-0.2,0-0.8,0.5-1,0.5c-0.1-0.1-2.2,0.3-4.2,0.3
									c-2,0.1-4.1-0.1-4-0.6c0.2-0.5,1-1.5,1.8-1.9c2.1-1.2,2.7-2.2,4.4-3.4c0.4-0.3,1.1-0.5,1.5-0.8c1.2-0.9,2.5-2,2.6-2.5
									c0.5-1,0.2-2.1-0.6-2.6C93.8,196.5,93.2,195.5,92.7,194.6"/>
								<path class="st30" d="M43.5,199.8c0,0,0.3,0.1,0.7,0.2c0.4,0.2,1,0.5,1.5,0.9c1,0.9,1.9,2.3,1.2,4.8c0,0,0,0.8,0.1,1.7
									c0.1,0.9,0.2,1.8,0.5,1.9l-0.1,1.1c0,0,0.5,0.9,1.2,1.5c0.8,0.7,1.8,1.2,3.2,0.6c0,0,0.5,0.2,0.9,0.5
									c0.4,0.2,0.8,0.6,0.6,0.8c0,0,0.1,0.3,0.8,0.5c0.6,0.2,1.8,0.2,3.9-0.2"/>
								<path class="st31" d="M97.7,205.3c0,0.3-0.1,1.3-0.1,2.4c-0.1,1.1-0.2,2.4-0.4,3.1c-0.6,2.4-1.1,4.8-1.4,7.5
									c0,0.2,0.1,0.3,0.3,0.2c1.4-0.8,1.6,0.5,2.6,0.2c0.4-0.1,0.9-0.5,1.2-0.2c1.2,1.3,1.8,3.7,2.3,6.7c0.2,1.3,0.2,3,0.4,4.5
									c0,0.4,0.1,0.9-0.1,1.3c-0.1,0.3-0.3,0-0.6,0.1c-0.1-0.3-0.1-0.8-0.3-1.2c-0.2-0.9-0.8-1.1-0.9-2.1
									c-0.2-0.9-0.2-1.9-0.4-2.6c-0.2-0.5-0.4-0.8-0.7-1c-0.8-1.2-1.7-2.1-2.9-2.7c-1.1,0.8-1.3-0.4-1.7-0.7
									c-0.1-0.1-0.1-0.5-0.2-0.7c-0.4-0.4-1.1-0.3-0.9-1.3c0.6-2.1,1.2-4,1.5-5.7c0.1-0.7,0.2-2,0.3-3.3c0.1-1.3,0.2-2.4,0.1-2.8
									c0-1.1-1.1-1-1.2-1.7c0,0,0.7-0.5,1.4-0.7C96.8,204.4,97.4,204.3,97.7,205.3"/>
							</g>
						</g>
					</g>
				</g>
				<g class="st4">
					<g>
						<defs>
							<rect id="SVGID_25_" x="128.7" y="114.5" width="43.5" height="42.9"/>
						</defs>
						<clipPath id="SVGID_26_">
							<use xlink:href="#SVGID_25_"  style="overflow:visible;"/>
						</clipPath>
						<g class="st32">
							<g>
								<defs>
									<rect id="SVGID_27_" x="128.7" y="114.5" width="43.5" height="42.9"/>
								</defs>
								<clipPath id="SVGID_28_">
									<use xlink:href="#SVGID_27_"  style="overflow:visible;"/>
								</clipPath>
								<path class="st33" d="M156.4,119.1c-1-1-1.8-1.2-2.6-1.2c-0.7,0-1.3,0.2-1.6,0c-1.2-0.4-1.3,1-1.1,2.1
									c0.2,1.2,0.7,2.2,0.4,1.7c-0.1-0.2-0.2-0.4-0.4-0.7c0,0.1,0.1,0.1,0.1,0.2c0.1,0.2,0.2,0.4,0.4,0.7c0.2,0.5,0.5,1.1,0.6,1.3
									c0.1,0.4,0.2,0.6,0.3,0.9c0,0.1,0.1,0.5,0,0.1c0-0.1,0-0.2,0-0.3c0-0.2,0-0.3-0.1-0.5c0-0.3-0.1-0.8-0.1-1.2
									c0-0.5,0-0.8,0-1.1c0-0.4,0-0.5,0-0.7c0,0,0-0.4,0-0.9c0-0.1,0-0.3,0-0.4c0,0,0-0.2,0-0.2l0,0.4c0,0.5-0.1,1-0.2,1.4
									c-0.2,1-0.4,0.6-0.8,1.8c-0.3,0.8-1,1.6-1.9,2.2c-0.8,0.6-1.8,1.1-2.3,1.5c-2.1,1.5-3,1.8-4.3,0.6c-1-1.2-2-0.3-3.1-0.7
									c-1.2-0.2-2,0.2-3.2,0.1c-1.2-0.6-2.4-0.8-3.5-0.4c-0.1,0.1-0.3,0.3-0.3,0.6c0,0.3-0.4,0.3-0.5,0.4
									c-1.1-0.3-2.5-1.6-3.4-0.9c-0.2,0.2-0.3,1,0,1.6c1.8,3.2,3.3,5.5,4.7,7.7c1.3,1.9,1.9,1.8,2.7,2.2c1.1,0.5,2.5,4.8,3.2,9
									c0.6,3.3,1.1,8.5,1.1,8.3c0-0.2,0.1-1,0.2-1.6c0.1-0.5,0.2-0.8,0.2,0.1c0,1.3-0.3,2.4-0.1,3.1c0,0.2,0.1,0.8,0.2,0.9
									c0.3-0.1,0.8,0.2,1.3,0.1c0.3,0,0.6-0.1,1-0.4c0.4-0.3,0.8-0.7,1.2-1.5c1.9-0.7,3,0.8,5.2-1.3c2.9-2.8,5.5-6.2,8.4-7.8
									c1.6-1,3-1.6,4.6-1.8c0.5-0.1,3.6,1.7,4.6,2.2c1.9,1,2.5-0.9,2.3-2.5c-0.5-2.9-0.8-4.9-0.8-6.6c0.2-0.4,1,0,1.3-0.2
									c0.4-1-0.5-3-0.5-4.4c1.3-3.6-0.2-4.5,0-4.4c0.2-0.3,1.6,0.9,2.2,0.8c0.6-0.3,0.3-1.5-0.3-2.5c-0.7-1.4-1.5-2.8-1.9-3.8
									c-0.4-1-0.3-1.7,0.7-1.9c-0.4-0.1-0.9-0.4-0.9-0.3c-1.4,0.2-3.1-0.1-4.4-0.3c-1.4-0.2-2.4-0.4-2.8,0.3
									c0.1,0.3,0.3,0.7,0.2,0.9c-0.2,0.2-0.3,0.6-0.4,0.9C161.7,123.5,158,120.8,156.4,119.1"/>
								<g class="st34">
									<g>
										<defs>
											<rect id="SVGID_29_" x="128.7" y="120.7" width="23.5" height="16.7"/>
										</defs>
										<clipPath id="SVGID_30_">
											<use xlink:href="#SVGID_29_"  style="overflow:visible;"/>
										</clipPath>
										<path class="st35" d="M136.4,137.4c-0.8-0.4-1.4-0.3-2.7-2.2c-1.4-2.1-2.9-4.4-4.7-7.7c-0.4-0.6-0.2-1.5,0-1.6
											c0.9-0.7,2.3,0.7,3.4,0.9c0.1-0.2,0.5-0.1,0.5-0.4c0-0.3,0.2-0.5,0.3-0.6c1.2-0.4,2.3-0.2,3.6,0.4c1.2,0.1,2-0.3,3.2-0.1
											c1.1,0.4,2.1-0.5,3.1,0.7c1.3,1.2,2.2,1,4.3-0.6c0.5-0.4,1.5-0.9,2.3-1.5c0.8-0.6,1.5-1.4,1.8-2.2
											c0.4-1.2,0.6-0.7,0.7-1.8c0,0,0,0.3,0,1c0,0.6,0,1.5,0,2.6c-0.4,2.2-1.7,4.3-3.3,6.3c-1.5,2-3.3,3.8-4.7,5.9
											C141.5,136.2,138.8,136.5,136.4,137.4"/>
									</g>
								</g>
								<path class="st36" d="M151.9,123.8c0,0,0.1-0.4,0.2-0.9c0-0.2,0.1-0.5,0.1-0.8c0-0.1,0-0.2,0-0.4c0-0.1,0-0.2,0,0
									c0,0.1,0,0.2,0,0.3c0,0.3,0,0.8,0.1,1c0,0.2,0,0.4,0.1,0.6c0,0.1,0,0.3,0.1,0.7c0,0,0.2,1.1,0.3,2.7c0.1,1.6,0.1,3.8-0.3,6
									c-0.7,4.4-3,8.7-4.3,8.6c0,0-0.4,0-1,0c-0.5,0-1.1,0.1-1.5,0.2c0,0-0.7-3.1-2.1-1.5c0,0-0.3,0.2-0.7,0.5
									c-0.4,0.3-0.8,0.7-1.3,1.1c-0.9,0.7-1.6,1.3-1.8,0c0,0-0.3-0.3-0.8-0.8c-0.5-0.5-1-1.2-1.4-2.1c0,0-0.4-1.2-0.9-2.3
									c-0.5-1.1-1.2-2.1-1.5-1.7c0,0-1-1.1-2-2.2c-1-1.1-1.9-2.4-1.2-3.1c0,0,0.6-1.4,1.1-1.8c0,0,2.1,0,4.1,0.5
									c2,0.5,3.9,1.4,4.1,2.2c0,0,0.5,0.4,1.2,0.8c0.7,0.4,1.6,0.8,2.7,0.8c1.1,0,2.4-0.3,3.6-1.6
									C150.1,129.7,151.4,127.5,151.9,123.8"/>
								<path class="st37" d="M152.1,121.9c0,0,0.1-0.5,0.1-1.1c0-0.2,0-0.3,0-0.5l0-0.3l0,0.4c0,0.4,0,0.8,0,1.2
									c0,1.6,0.2,2.6,0.2,2.9c0,0,0-0.1-0.1-0.4c0-0.1-0.1-0.3-0.1-0.5c0-0.1-0.1-0.2-0.1-0.3c0,0-0.1-0.2,0-0.1l0.1,0.4
									c0.8,2,2.5,4.2,3.1,6.3c0,0,0.3,1,0.5,2.6c0.2,1.6,0.3,3.9-0.4,6.2c-0.7,2.3-2.1,4.7-3.8,6.4c-1.7,1.7-3.5,2.7-4.9,2.7
									c0,0-0.1,0-0.5,0.3c-0.3,0.3-0.8,0.9-1.5,2.1c0,0-0.8,0.6-1.4,0.7c-0.7,0.1-1.1-0.2-1-2c0,0-0.1-1.2-0.3-2.4
									c-0.1-1.1-0.4-2.1-0.7-1.7c0,0-0.3-2.9-0.7-1.6c0,0,0.8-1.5,1.9-2.4c1-0.9,2.7-1.2,2.8,0.5c0,0,0.4,1.1,1.7,0.8
									c0.7-0.2,1.5-0.7,2.5-2c1-1.3,2.1-3.3,2.7-6.5c0,0,0-0.6,0.1-1.5c0-0.9,0-2.2-0.1-3.5c-0.1-1.3-0.1-2.7-0.2-3.9
									C152.2,123.5,152.2,122.5,152.1,121.9"/>
								<path class="st38" d="M152.3,122.7c0,0.3,0,0.6,0.1,0.9c0,0.2,0.1,0.4,0.1,0.6c0,0.1,0,0.1,0,0.2l0,0l0,0.1l0,0l0-0.1
									c0-0.1,0-0.2-0.1-0.3c0-0.2-0.1-0.3-0.1-0.5c-0.1-0.2-0.1-0.4-0.2-0.5c-0.3-0.7-0.8-1.9-1.8-3.6c-0.3-0.5-0.5-0.9-0.8-1.4
									c-0.3-0.6-0.7-1.1-1-1.6c-0.2-0.3-0.4-0.6-0.6-0.9l-0.1-0.2l0.1,0.1l0.2,0.2c0.2,0.3,0.5,0.6,0.8,1c0.3,0.3,0.4,0.5,0.5,0.5
									c-0.1-0.1-0.2-0.4-0.3-0.5c0.1-0.2,0.4-0.2,0.5-0.6c-0.1-0.8,1.5-0.1,3.2,0.7c0.9,0.4,1.6,0.6,2.3,0.9
									c1.3,0.5,4.2,3.6,5.1,3.7c1.7,0.3,0.3-2.3,1.6-2.1c1,0.2,1.6,0.1,3,0.5c1.2,0.4,2.1,0.5,3.3,0.6c0.2,0,1.7,0.5,2,0.7
									c0.4,0.3,0,0.4,0.1,0.7c0.3,0.8-1.6-0.1-2.5-0.3c-0.9-0.2-0.8,0.5-1.3,0.7c-0.3,0-0.7-0.2-1.3-0.4c-0.9-0.5-0.6,0.2-0.6,0.7
									c0.2,0.8-1.2,0.1-1.4,0.5c-0.4,0.4,0.7,2.4-0.3,2.1c1,0.4-1.3,1.5-1.2,0.8c0.1,0.1-0.5-0.3-0.9-0.7
									c-0.2-0.3-0.6-0.7-0.7-0.8c-0.5-1.2-2-2.7-3-4.1c-0.1-0.1-1.3,0.5-2.6-0.3c-1.1-0.7-2.2-1.5-2.7-1.5c0,0.1,0.5,0.8,0.5,1
									c-0.1,0.1,0.5,1.8,1.1,3.4c0.5,1.6,0.9,3.2,0.7,3c-0.3-0.3-0.9-1.4-1.3-2.1c-0.4-0.9-0.8-1.5-1.1-2.1
									c0.1,0.2,0.2,0.4,0.3,0.6c0,0-0.1-0.1,0-0.1c0.1,0.1,0.1,0.3,0.2,0.4c0.1,0.3,0.2,0.5,0.2,0.5c0.1,0.2,0.1,0.3,0.2,0.5
									c0,0.1,0.1,0.2,0.1,0.4c0,0.1,0.1,0.2,0.1,0.3c0,0,0,0.1,0,0.1l0,0.1l0,0l0,0l0-0.1l0,0c-0.1-0.2-0.1-0.4-0.1-0.7
									C152.4,123.4,152.4,123.2,152.3,122.7"/>
								<path class="st39" d="M140.7,154c0,0,0-0.8,0.1-1.2c0.1-0.3,0.3-0.1,0.1,1.9c0,0-0.1,0.5-0.1,1c0,0.5,0.1,0.9,0.1,0.8
									c0,0.3,0.1,0.5,0.1,0.8c0,0,0.3,0.2,1,0.1c0.3,0,0.8-0.1,1.2-0.4c0.5-0.3,0.9-0.7,1.2-1.3c0,0,0.5-0.2,1.1-0.3
									c0.6-0.1,1.2-0.1,1.4,0.1c0,0,0.5,0.1,1.3-0.2c0.4-0.2,1-0.5,1.6-1c0.7-0.5,1.3-1.2,2-2.2"/>
								<path class="st40" d="M148.8,114.5c0.5,0.1,3.5,1,4.8,1.9c2,1.2,3.9,2.5,6,3.8c0.2,0.1,0.3,0,0.1-0.1
									c-0.7-1.3,0.3-0.9,0-1.6c-0.1-0.3-0.5-0.8-0.3-0.8c0.9-0.2,2.7,0.6,5.3,1.4c1.1,0.3,2.6,0.9,4,1.2c0.4,0.1,0.8,0.2,1.2,0.4
									c0.3,0.1,0,0.2,0.1,0.4c-0.3,0-0.8-0.2-1.1-0.2c-0.8-0.1-1,0.2-1.8-0.1c-0.7-0.2-1.6-0.5-2.3-0.7c-0.4-0.1-0.6-0.1-0.8,0
									c-0.9,0-1.6,0.2-2,0.8c0.7,1-0.2,0.7-0.5,0.9c-0.1,0-0.4-0.1-0.6-0.2c-0.3,0.1-0.2,0.7-0.9,0.1c-1.7-1.3-3.2-2.4-4.6-3.2
									c-1.1-0.7-4.6-1.9-5.1-2.1c-0.9-0.3-0.6,0.7-1.1,0.5c0,0-0.1-0.2-0.3-0.4c-0.2-0.2-0.3-0.6-0.5-0.9
									C148.2,115,148,114.5,148.8,114.5"/>
							</g>
						</g>
					</g>
				</g>
				<g class="st4">
					<g>
						<defs>
							<rect id="SVGID_31_" x="174" y="89.2" width="50.4" height="81.4"/>
						</defs>
						<clipPath id="SVGID_32_">
							<use xlink:href="#SVGID_31_"  style="overflow:visible;"/>
						</clipPath>
						<g class="st41">
							<g>
								<defs>
									<rect id="SVGID_33_" x="174" y="89.2" width="50.4" height="81.4"/>
								</defs>
								<clipPath id="SVGID_34_">
									<use xlink:href="#SVGID_33_"  style="overflow:visible;"/>
								</clipPath>
								<path class="st42" d="M207,93c-0.2-0.7-1.2-1.2-2.8-1.3c-1.5-0.1-3.8,0.2-6.2,1.3c-2.4,1.1-4.7,3.2-6,5
									c-1.3,1.8-1.9,2.9-2.2,3.2c-0.6,0.8-1.1,1.9-1.3,2.6c-0.1,0.4-0.2,0.6-0.2,0.9c-0.1,0.3-0.1,0.6-0.1,0.9
									c-0.1,1.3,0,2.8,0.2,4.3c0.3,3,0.8,5.7,0.3,5.5c-1.6-0.5-10.2-0.3-10.8,0.6c-1.6,2.2-0.8,5,1.4,7.7c0.9,1.3,1.7,1.6,1.4,2
									c-0.1,0.2,2.9,1.3,4.3,3c0.8,1.1,0.2,2.2,1.3,3.3c1.4,1.9,2.4,7.3,3.2,9.2c1.5,3.6,1.8,5.2,0.6,7.8c-1.2,2-0.3,3.7-0.7,5.7
									c-0.2,2.2,0.3,3.6,0,5.4c-0.8,1.7-1.2,2.7-1.5,4.2c0.1,0.2,0.1,0.4,0.4,0.6c0.3,0.2,0,0.6,0,0.8c-1,1.1-3.1,1.3-3.6,2.2
									c-0.1,0.2,0.1,0.8,0.8,1.1c3.4,1.3,6.7,1.7,9.8,1.2c2.9-0.5,3.7-2.6,4.7-4.6c1.3-2.8,5.6-5,9.9-6.7c1.7-0.6,3.8-1.1,5.5-1.8
									c1.7-0.7,2.9-1.5,2.7-2.4c-0.3-0.9-1.1-1.8-1.6-2.7c-0.5-0.9-0.8-1.9,0.1-2.8c1.3-1.3,2.6-2.3,3.3-3.7
									c0.3-0.2,0.9-0.9,1-1.2c-0.2-1.6,1.3-3.3-1.7-5c-0.7-2.1,0.7-2.8-1.1-4.8c-2.5-2.6-5.3-5.4-5.5-8.1c-0.2-1.5,0.1-2.9,1-4.1
									c0.2-0.5,3.6-1.4,4.7-1.7c2-0.5,1.2-2.3,0.2-3.7c-1-1.1-1.9-2.2-2.5-3.3c-0.3-0.5-0.6-1.1-0.9-1.6c-0.3-0.5-0.4-1.2-0.7-1.3
									c-0.1-0.1,0.4,0.1-1-0.3c-0.3-0.1-0.7-0.2-1-0.4c-0.3-0.1-0.6-0.2-0.9-0.3c-1.1-0.4-1.7-0.7-2.3-0.9
									c-0.6-0.3-0.9-0.4-1.2-0.6l-0.4-0.2L207,108c-0.1-0.1,0,0,0.1,0.1c0.1,0.2,0.3,0.5,0.4,0.9c0.3,0.8,0.4,2,0.3,3l0,0.3
									c0,0,0,0,0-0.1c0-0.1,0-0.1,0.1-0.2c0.1-0.1,0.1-0.2,0.2-0.3c0.1-0.1,0.2-0.2,0.2-0.3c0.1-0.1,0.3-0.1,0.4-0.2
									c0.5-0.2,1-0.4,1.3-0.5c0.6-0.3,0.7-0.6,0.7-0.5c0.4,0.2-0.5,1.8-0.3,2.3c0.4,0.6,1.5,0.2,2.7-0.1c3.1-1,7.1-0.8,7.3,2.2
									c0.2-0.4,0.6-0.7,0.6-0.9c-0.2-2.1,0-4.3-0.3-6.5c-0.3-2.2-1.2-4.3-3.4-5.5c-0.5,0-1.3,0-1.8-0.2c-0.9-0.5-1.8-0.7-2.7-0.9
									c-0.8-0.3-1.6-1.7-2.7-3.3C208.8,95.9,207.4,94.2,207,93"/>
								<g class="st43">
									<g>
										<defs>
											<rect id="SVGID_35_" x="184.2" y="127.3" width="15.6" height="43.2"/>
										</defs>
										<clipPath id="SVGID_36_">
											<use xlink:href="#SVGID_35_"  style="overflow:visible;"/>
										</clipPath>
										<path class="st44" d="M199.5,165.7c-1,2-1.8,4.1-4.7,4.6c-3.2,0.5-6.4,0.1-9.8-1.2c-0.7-0.3-0.9-0.9-0.8-1.1
											c0.5-0.9,2.6-1.1,3.6-2.2c0-0.2,0.2-0.6,0-0.8c-0.3-0.2-0.3-0.4-0.4-0.6c0.3-1.5,0.7-2.5,1.5-4.2c0.3-1.8-0.2-3.2,0-5.4
											c0.4-2.1-0.5-3.8,0.7-5.7c1.2-2.6,1-4.3-0.6-7.8c-0.9-1.9-1.8-7.3-3.2-9.2c-1-1-0.4-2.2-1.3-3.3c0,0,1.5-0.4,3.9-1.4
											c3.3,6.1,6.8,12,10.8,17.3c-0.2,3.3-0.2,6.6,0,9.9c0.1,1.6,0.3,3.3,0.4,5.2C199.8,161.6,199.8,163.7,199.5,165.7"/>
									</g>
								</g>
								<path class="st45" d="M187.7,129.3c0,0-1.2-2.1-1.6-3.9c-0.3-1.8,0.2-3.4,3.5-2.3c0,0,3.9,2.4,7.8,5.1
									c3.9,2.7,7.8,5.7,7.7,7.5c0,0-0.2,2.6,0,4c0,0-0.8,0.5-1.4,1.4c-0.6,0.9-1,2.1-0.3,3.6c0,0,0.8,2.8,1.5,5.5
									c0.7,2.8,1.3,5.3,0.1,5.9c0,0-0.3,1.2-0.8,2.7c-0.5,1.6-1.3,3.5-2.3,4.2c0,0-1.3,0.5-2.5,1.3c-1.3,0.7-2.5,1.6-2.6,2.8
									c0,0-0.4,0.4-1.1,0.8c-0.7,0.4-1.6,0.9-2.6,1.2c-1.9,0.6-3.6,0.5-3.2-0.8c0,0,0-0.5-0.1-1c-0.1-0.6-0.2-1.2-0.2-1.7
									c0,0,0.4-0.6,0.8-1.7c0.4-1.1,0.8-2.5,1.1-4.2c0.3-1.7,0.6-3.6,1-5.1c0.4-1.5,0.8-2.5,1.2-2.7c0,0,0.4-1,0.8-2.5
									c0.4-1.5,0.8-3.6,0.9-5.9C195.6,139,194.3,133.6,187.7,129.3"/>
								<path class="st46" d="M185.9,128.6c0,0-1.7-1.5-2.6-3.3c-0.9-1.7-1.1-3.7,2-4.3c0,0,2-1.5,4.5-2.5c2.5-1,5.5-1.5,7.2,0
									c0,0,3.5,3.1,7,6.9c3.5,3.9,7.1,8.3,7,11.7c0,0-0.1,0.7,2.3,2.4c0,0,0.6,1,0.7,2c0.1,1.1-0.2,2.2-2.1,2.8
									c0,0-0.3,0.2-0.8,0.6c-0.5,0.4-1.1,0.9-1.7,1.5c-1.2,1.2-2.2,2.7-1.8,3.7c0,0-0.7,0.4-1.3,0.9c-0.6,0.5-1,1.2-0.3,1.7
									c0,0-0.4-0.7-0.8-1.7c-0.5-1-1-2.5-1.5-4c-0.8-3-1.1-6.3,0.7-6.8c0,0,1.1-1.1,0.9-3.1c-0.3-2-1.9-4.9-7.5-9
									c0,0-2.2-0.9-4.8-1.3C190.4,126.5,187.4,126.5,185.9,128.6"/>
								<path class="st47" d="M177.3,122.7c-1-1.1-2.4-2.3-3.1-3.5c-0.3-0.6,0-1.3,0-2c0-0.8,0.9-1.5,1.5-1.9
									c3.5-1.7,4.5-5.5,8.7-6.5c0.5-0.2,0.8-0.4,1-0.7c-0.1-0.1-0.3-0.6-0.4-0.7c0.2-1.1,0.7-2,0.7-3.1c0-0.5,0-0.7,0.3-1.4
									c0.3-0.6,0.7-1.6,1.5-2.8c0.8-1.2,1.8-2.6,3.3-4c1.5-1.4,3.1-2.5,4.8-3.2c1.9-0.9,3.8-1.5,5.7-1.9c1.8-0.3,3.5-0.3,4.9,0
									c2.4,0.4,3.3,2,4,3.3c0.7,1.4,1.2,2.7,2.4,3.4c0.4,0.3,0.9,0.6,1.3,0.8c0.4,0.2,0.8,0.4,1.2,0.6c0.8,0.3,1.6,0.6,2.4,0.8
									c1.6,0.5,3.2,1.2,4,2.7c0.8,1.9,1.5,3.4,1.4,5.4c-0.3,1.7-0.2,3-0.4,4.6c0,0.3-0.9,1.8-1.2,1.9c-0.5,0.2-0.6-0.5-1-0.6
									c-1.1-0.4,0.2-2,0.4-3.1c0.1-1.2-0.9-1.8-1.5-2.8c-0.1-0.5-0.1-1.1,0-1.8c0.2-1.2-1-1.3-1.9-1.6c-1.3-0.2-1.5-2.1-2.7-2.6
									c-1.6-0.8-3.7,0.7-4.8-0.4c0.5,0.6-0.7,0.3-2.1,0.3c-1.3-0.1-2.9,0.2-2.2-0.2c-0.1,0.2-0.8-0.4-1.1-0.8
									c-0.1-0.3-0.4-0.8-0.3-1c0.5-0.9,0.6-1.7,0.7-2.7c0-0.9,0-1.9,0.1-2.8c-0.1,0-2,0-4.7,1.2c-1.3,0.6-2.8,1.5-3.9,2.5
									c-1.2,1-2.2,2.1-2.9,2.7c-2.3,1.7-4,3.2-4.4,3.9c0,0.3,0.8,0.7,0.9,0.9c-0.1,0.6,4.5,9.7,3.7,10.4c-0.6,0.4-1.9,0.7-2.7,0.4
									c-2.3-0.7-3.6-0.1-5.6-0.2c-0.5-0.1-1.1-0.5-1.6-0.5c-1.5-0.1-3.3,0.1-3.7,0.6c-1.2,0.8-1.7,2.1-1.5,3.2L177.3,122.7z"/>
								<path class="st48" d="M216.9,153.5c0,0-0.9-0.7-1.2-1.7c-0.2-0.5-0.2-1.2,0.1-1.8c0.3-0.7,0.9-1.4,1.9-2
									c0,0,0.6-0.6,1.1-1.2c0.5-0.6,1-1.3,0.9-1.6l0.8-0.7c0,0,0.2-0.9,0.2-2c-0.1-1.1-0.5-2.3-1.8-2.9c0,0-0.2-0.5-0.3-1.1
									c-0.1-0.6-0.1-1.2,0.2-1.3c0,0,0.6-1.5-3-4.3"/>
								<path class="st49" d="M184.5,102c0.2-0.4,0.7-1.3,1.8-2.9c0.5-0.8,1.2-1.8,2.2-2.9c0.9-1.1,2.2-2.3,3.4-3.3
									c2.6-2,5.6-3.1,7.8-3.5c2.3-0.4,3.9-0.2,4.8,0c2.9,0.7,4.9,2,6.5,3.4c0.8,0.7,1.5,1.5,2.1,2.3c0.6,0.8,1.2,1.7,1.4,2.4
									c0.2,0.2,0.5,0.4,0.7,0.3c1-0.3,1.9,0,2.6,0.4c0.7,0.4,1.4,0.9,2.2,1.1c0.7,0.2,1.5,0,2,0.6c2.4,2.7,2.8,6.2,2.1,9.6
									c-0.3,1.5-1.1,3-1.7,4.5c-0.2,0.4-0.4,0.8-0.8,1.1c-0.3,0.2-0.3-0.2-0.6-0.3c0-0.3,0.3-0.8,0.4-1.3c0.2-0.9-0.2-1.6,0.1-2.5
									c0.2-0.9,0.6-1.9,0.6-2.9c-0.1-0.6-0.2-1.1-0.5-1.5c-0.8-1.9-2-3.6-3.9-4.8c-1.4,0.5-2-0.9-2.9-1.4
									c-0.3-0.2-0.4-0.6-0.7-0.9c-0.4-0.3-0.9-0.4-1.4-0.6c-0.5-0.2-0.9-0.4-1.2-0.9c-0.5-1.2-1.2-2.3-2.2-3.3c-1-1-2.2-1.9-4-2.4
									c-0.7-0.2-2.1-0.4-4-0.3c-1.9,0.2-4.6,1-7.1,2.7c-1.2,0.8-2.4,1.9-3.3,2.9c-0.9,1-1.6,2-2.2,2.7c-1.1,1.6-1.6,2.4-1.8,2.8
									c-0.4,0.6-0.5,0.8-0.6,1.1c-0.1,0.3-0.2,0.7-0.3,1c-0.1,0.7-0.2,1.4-0.6,2c0,0.1-0.7-0.4-1.2-1.2c-0.2-0.4-0.4-0.9-0.4-1.5
									c0-0.3,0.1-0.6,0.2-0.9C184,103.2,184.1,102.9,184.5,102"/>
							</g>
						</g>
					</g>
				</g>
				<g class="st4">
					<g>
						<defs>
							<rect id="SVGID_37_" x="173.7" y="97.8" width="56.1" height="61.5"/>
						</defs>
						<clipPath id="SVGID_38_">
							<use xlink:href="#SVGID_37_"  style="overflow:visible;"/>
						</clipPath>
						<g class="st50">
							<g>
								<defs>
									<rect id="SVGID_39_" x="173.7" y="97.8" width="56.1" height="61.5"/>
								</defs>
								<clipPath id="SVGID_40_">
									<use xlink:href="#SVGID_39_"  style="overflow:visible;"/>
								</clipPath>
								<path class="st51" d="M195.9,149c1.3,0.3,2.3-0.2,3-0.7c0.7-0.5,1.1-0.8,1.5-0.8c1.2-0.1,0.9-1.7,0.7-3.4
									c-0.2-1.7-0.4-3.6,0.1-3.3c0.7,0.5,2.9,1.7,5,2.8c2.1,1.1,4,2,4.3,2c1.5-0.3,1.2-2.1-0.2-4.7c-0.6-1.1-1.2-1.7-0.9-1.7
									c0,0-0.5-0.6-1.1-1.3c-0.6-0.8-1.4-1.7-1.8-2.5c-0.5-1,0.1-1-0.5-2.1c-0.4-0.8-0.5-1.9-0.5-2.7c0-0.9,0-1.6,0.1-2.2
									c0.3-2.1,1.5-2.3,2.1-1c0.1,0.6,0.4,0.8,0.7,1c0.3,0.2,0.7,0.3,0.9,0.7c0.5,0.8,1.2,0.9,1.6,1.9c-0.1,1.2,0.1,2.2,0.7,3.2
									c0.2,0.1,0.3,0.2,0.7,0.2c0.3,0,0.4,0.3,0.5,0.4c0,1.2-1.3,2.8-0.5,3.7c0.2,0.3,1,0.4,1.7,0.1c3.2-1.8,5.4-3.7,7.2-5.7
									c1.6-1.8,1.1-3.2,0.9-4.8c-0.2-1.1,0.4-2.6,1.4-4.4c0.9-1.7,2.2-3.8,3.3-5.8c0.9-1.5,2.3-3.3,2.9-5.1c0.6-1.8,0.6-3.7-1-5
									c-2-1.4-4.3-2.1-6.7-2.9c-2.4-0.7-4.7-1.5-7.3-3.1c-1.8-1.2-3.7-2.2-5.8-2.9c-1-0.4-2.2-0.6-3.3-0.8
									c-1.2-0.2-2.5-0.3-3.7-0.2c-0.7-0.2-3.7-0.2-4.6,0c-2.7,1-5.3,1.9-7.4,3.1c-2.1,1.3-3.3,2.8-3.4,4.8
									c-1.3,1.6-2.3,2.5-3.1,3.3c-0.8,0.9-1.3,1.7-1.3,3.3c0.1,2,0.5,4,0.9,5.6c0.3,1.6,0.4,3.1,0,4.3c-0.4,1.4-1.1,2.4-2.3,3.2
									c-0.4,0.3-3.9,0-5,0c-2.1-0.1-1.9,2-1.3,3.6c1.4,2.8,2.2,5,2.6,7.3c-0.1,0.7-1.1,1-1.4,1.7c-0.2,1.9,1.4,3.6,2,5.1
									c0.1,2.4,0.6,3.4,1.1,3.9c0.4,0.6,0.8,0.6,0.6,0.6c-0.1,0.4-1.8-0.2-2.3,0c-0.4,0.4,0.2,1.2,1,2.1c1,1.1,1.9,2.5,2.1,3.6
									c0.2,1.1-0.3,2-1.4,1.8c0.3,0.3,0.6,0.7,0.8,0.7c1.6,0.2,3.7,0.2,5.6-0.3c1.9-0.5,3.4-1.6,3.9-3.2c-0.1-0.4-0.4-0.9-0.3-1.3
									c0.2-0.6,0.3-1.2,0.3-1.8C188.9,148.5,193.6,148.4,195.9,149"/>
								<g class="st52">
									<g>
										<defs>
											<rect id="SVGID_41_" x="201.9" y="117.7" width="20.2" height="21"/>
										</defs>
										<clipPath id="SVGID_42_">
											<use xlink:href="#SVGID_41_"  style="overflow:visible;"/>
										</clipPath>
										<path class="st53" d="M221.8,128c0.2,1.6,0.8,3-0.9,4.8c-1.8,2-4,3.8-7.2,5.7c-0.6,0.4-1.5,0.2-1.7-0.1
											c-0.7-0.9,0.5-2.5,0.5-3.7c-0.2-0.1-0.2-0.5-0.5-0.4c-0.3,0-0.5-0.1-0.7-0.2c-0.6-1-0.7-1.9-0.6-3.2
											c-0.4-1-1.1-1.1-1.6-1.9c-0.2-0.4-0.6-0.5-0.9-0.7c-0.3-0.1-0.5-0.3-0.7-1c-0.5-1.3-1.7-1.1-2,1c-0.1,0.5-0.1,1.3-0.1,2.2
											c0,0.9,0.2,1.9,0.6,2.7c0.6,1.1,0,1.1,0.5,2.1c0,0-1.1-0.8-3.3-1.7c-0.7-2.6-1.3-5.1-1.3-7.8c0-2.7,0.9-5.7,3.6-8.1
											c3.9-0.3,7.4,1.1,10.1,3c1.4,1,2.6,2.2,3.6,3.4C220.2,125.5,221.1,126.7,221.8,128"/>
									</g>
								</g>
								<path class="st54" d="M204.3,133.2c0,0,0.6,1.7,0.5,2.9c-0.1,1.2-0.8,1.9-3.4-0.5c0,0-2.8-3.4-5.3-7.3
									c-1.2-1.9-2.3-4-2.9-5.9c-0.6-1.8-0.6-3.4,0.1-4.1c0,0,0.5-0.5,1.2-1.2c0.7-0.7,1.7-1.5,2.5-2.1c0,0,1.1,0.2,2.5,0.1
									c1.4-0.1,3.1-0.4,5.2-1.4c0,0,1-0.4,2.7-0.7c1.7-0.3,4-0.3,6.1,0.2c4.4,0.9,7.8,3.5,7.3,4.7c0,0,0.2,0.3,0.5,0.8
									c0.3,0.5,0.7,1.3,1,2c0.6,1.5,0.8,3.3,0.3,4.2c0,0-0.8,1-1.5,2.2c-0.7,1.1-1.3,2.3-0.7,3c0,0-0.6,1.7-1.5,3.1
									c-0.9,1.4-2.1,2.5-2.9,1.5c0,0-1.6-0.8-2.1-1.2c0,0-0.1-0.6-0.3-1.4c-0.2-0.8-0.5-1.9-0.9-3c-0.4-1.1-0.8-2.1-1.3-3
									c-0.4-0.9-0.8-1.6-0.7-2c0,0-0.4-0.7-1.3-1.4c-0.9-0.7-2.5-1.4-4.2-1c-1.7,0.3-3.2,1.7-3.5,3.8
									C201.3,127.6,202.1,130.2,204.3,133.2"/>
								<path class="st55" d="M205.6,134.7c0,0,1.1,1.7,1.6,3.1c0.3,0.7,0.3,1.3,0,1.7c-0.3,0.3-1,0.3-2.4-0.3c0,0-2-0.2-4.3-0.7
									c-2.3-0.6-5-1.4-6.4-3.2c0,0-2.6-3.6-4.5-8.1c-0.9-2.3-1.8-4.7-1.9-7.1c-0.2-2.4,0.5-4.8,2.2-6.6c0,0,0.2-0.2,0.4-0.8
									c0.2-0.6,0.4-1.6,0.7-3.4c0,0,0.2-0.4,0.7-0.9c0.5-0.5,1.2-1.2,2.2-1.9c1.9-1.3,5.1-2.1,7.3-0.7c0,0,0.7,0.2,1.8,0.5
									c1.1,0.3,2.6,0.8,4,1.4c3,1.2,5.5,2.9,7.3,3.1c0,0,0.4,0.9,1,1.8c0.6,0.9,1.3,1.7,2.3,1.6c0,0-1.1-0.3-2.7-0.5
									c-1.7-0.3-4-0.4-6.3-0.2c-2.4,0.2-4.8,0.9-6.5,1.4c-1.7,0.5-3,0.9-3.8,0.4c0,0-0.5,0-1.3,0.2c-0.8,0.2-1.7,0.7-2.5,1.6
									c-1.6,1.9-2.1,5.5,1.4,11.1c0,0,1.6,1.8,3.7,3.4C201.5,133.2,204.1,134.6,205.6,134.7"/>
								<path class="st56" d="M211.6,142.4c0.7,1.1,1.6,2.5,2.1,3.5c0.2,0.4-0.2,0.6-0.1,1c-0.1,0.4-0.8,0.2-1.3,0.1
									c-3.1-0.9-4,0.4-7.7-0.8c-0.4-0.1-0.7-0.1-0.8,0c0.1,0.1,0.3,0.4,0.4,0.5c-0.1,0.5-0.5,0.7-0.4,1.2c0.3,0.9-1.3,0.7-3.2,0.8
									c-1,0.1-1.7,0.5-2.6,0.8c-0.8,0.3-2.2,0.2-3.5,0.1c-1.3-0.1-2.6-0.2-3.1,0.2c-1,0.7-1,1.7-1,2.8c0,1.1-0.1,2.3-1.2,3.2
									c-1.4,0.9-2.6,1.8-4.6,2c-1.6-0.1-2.9,0.1-4.3-0.3c-0.3-0.1-1.6-1.1-1.7-1.4c-0.2-0.5,0.3-0.4,0.3-0.8
									c0.1-0.9,1.6,0.4,2.6,0.6c1.1,0.1,1.3-0.9,2-1.5c0.4-0.1,0.9-0.1,1.6-0.1c1.1,0.1,0.9-0.9,0.8-1.7c-0.2-1,1.4-1.2,1.7-2.1
									c0.4-1.1-1.4-2.6-0.2-3.2c-1.1,0.4,0.8-3.1,1-2.2c-0.1-0.1,0.7-0.1,1.2,0.1c0.3,0.1,0.8,0.3,1,0.4c1,0.9,3,1.6,4.5,2.3
									c0.2,0,1.1-1.6,2.6-1.4c1.3,0.1,2.7,0.4,3.1,0c0-0.2-0.8-0.6-0.8-0.8c0.1-0.1-1.1-1.8-1.8-3.6c-0.8-1.8-1.4-3.8-1-3.9
									c0.6,0,1.8,0.3,2.4,0.9c1.9,1.5,3.1,1.6,4.8,2.7c0.5,0.3,0.9,0.8,1.4,1.1c1.3,0.7,2.8,1.5,3.2,1.5c1,0.1,1.6-0.2,1.6-0.9
									L211.6,142.4z"/>
								<path class="st57" d="M225.2,106.1c0,0-0.5-0.1-1.3-0.3c-0.8-0.2-1.9-0.6-3.2-1.1c-2.7-1-6-2.7-10.5-5.3
									c0,0-1.9-0.8-4.4-1.2c-2.5-0.5-5.2-0.5-6.1-0.1c-1-0.1-1.9-0.1-2.9-0.1c0,0-0.8,0.2-2,0.6c-1.1,0.4-2.7,1-4,1.8
									c-2.8,1.6-4.7,3.8-4.5,5.3c0,0-0.7,0.8-1.4,1.7c-0.3,0.4-0.7,0.8-1,1.1c-0.3,0.3-0.5,0.5-0.7,0.5c0,0-0.6,0.4-1,1.4
									c-0.4,1-0.7,2.7,0.1,4.9"/>
								<path class="st58" d="M204.8,149c-0.2,0-1.1,0.1-2.1,0.2c-1,0.2-2.2,0.5-3.1,0.6c-2.5,0.3-4.9,0.8-7.7,1.2
									c-0.2,0.1-0.3,0.2-0.2,0.4c1,1.3-0.3,2-0.1,3.2c0,0.5,0.4,1.1,0.1,1.5c-1.6,2.1-5,3.5-8.4,3.1c-1.5-0.2-3-1-4.3-1.8
									c-0.3-0.3-0.7-0.5-0.9-0.9c-0.2-0.3,0.1-0.3,0.2-0.5c0.3,0.1,0.7,0.5,1.1,0.6c0.8,0.3,1.3,0,2.2,0.2
									c0.9,0.2,1.9,0.5,2.8,0.3c0.6-0.1,0.9-0.3,1.3-0.6c1.5-0.9,2.6-2.2,3.1-3.6c-0.9-1,0.3-1.4,0.5-2c0.1-0.2,0.4-0.2,0.7-0.4
									c0.3-0.5,0-1.2,1-1.2c2.2,0,4.2-0.1,5.9-0.3c0.7-0.1,2-0.5,3.2-0.7c1.1-0.1,2.2-0.2,2.5-0.3c0.9-0.2,0.4-1.1,1.1-1.4
									c0,0,0.2,0.1,0.4,0.3c0.2,0.2,0.5,0.4,0.7,0.7C205.3,148.2,205.6,148.7,204.8,149"/>
							</g>
						</g>
					</g>
				</g>
				<g class="st4">
					<g>
						<defs>
							<rect id="SVGID_43_" x="151.9" y="62.5" width="60.5" height="46.5"/>
						</defs>
						<clipPath id="SVGID_44_">
							<use xlink:href="#SVGID_43_"  style="overflow:visible;"/>
						</clipPath>
						<g class="st59">
							<g>
								<defs>
									<rect id="SVGID_45_" x="151.9" y="62.5" width="60.5" height="46.5"/>
								</defs>
								<clipPath id="SVGID_46_">
									<use xlink:href="#SVGID_45_"  style="overflow:visible;"/>
								</clipPath>
								<path class="st60" d="M157.6,86.9c-1.4,2.4,1.9,5,2,5.8c0.5,1.6,3.5,2.1,6.2,2.1c2.7,0,5.1-0.6,4.9,0
									c-0.3,0.8-0.6,3.3-0.6,5.7c0,2.4,0.2,4.7,0.6,5c2,1.6,4,0.5,5.8-1.9c0.8-1,1.1-1.9,1.3-1.5c0.1,0.1,1-3,2.1-4.4
									c0.7-0.9,1.2-0.4,1.9-1.5c0.6-0.8,1.6-1.4,2.6-1.9c1-0.5,2-0.9,2.6-1.1c2.3-1.1,3.4-0.9,4,0.7c0.3,1.5,1.4,1.2,2,2.2
									c0.6,0.9,1.5,1.1,2,2c0.1,1.2,0.3,2.1,0.9,2.8c0.2,0,0.3,0.1,0.6,0c0.3-0.1,0.3,0.2,0.5,0.2c0,0.5-0.3,1.1-0.5,1.7
									c-0.2,0.5-0.4,1-0.1,1.3c0.1,0.1,0.9,0.1,1.6-0.2c3.1-1.8,5.3-3.7,6.9-5.9c1.5-2,0.7-3.2,0.4-4.7c-0.6-2,1.7-6.1,3.7-10.1
									c1.7-3,4.7-7.5,2.5-9c-1.3-0.8-2.9-1-4.3-1.3c-1.4-0.4-2.7-0.8-3.5-2.2c-1.1-2.1-2-3.9-3.7-5.3c-0.2-0.3-1-1.3-1.4-1.6
									c-1.2-0.3-2.3-0.9-3.5-1.1c-1.2-0.2-2.4-0.1-3.5,1.3c-2.5,0.4-3.2-1-5,0.8c-2.3,2.6-4.4,5.6-6,6c-0.9,0.3-1.6,0.2-2-0.4
									c-0.2-0.2,0.1-3.3,0.3-4.3c0.3-1.8-0.5-0.8-1.3,0.3c-1.5,2.2-2.9,3.4-4.4,4.1c-0.4,0-0.2-0.9-0.5-1c-0.9,0-2.6,1.4-3.9,1.7
									c-1.8-0.2-2.8-0.1-3.5,0.1c-0.6,0.2-0.8,0.5-0.8,0.4c-0.3-0.2,0.9-1.6,0.9-2.1c-0.2-0.5-1.3-0.2-2.3,0.2c-1.4,0.6-3,1-4.2,1
									c-1.1,0-1.9-0.5-1.7-1.6c-0.3,0.3-0.7,0.6-0.7,0.7c-0.3,1.6-0.8,3.4-1,5.1c-0.2,1.7,0,3.3,1.2,4.1c0.4,0,0.9-0.1,1.2,0.1
									c0.4,0.4,1,0.6,1.5,0.8c0.4,0.3,0.1,1.5-0.3,3C158.8,84.2,158.2,85.9,157.6,86.9"/>
								<g class="st61">
									<g>
										<defs>
											<rect id="SVGID_47_" x="179.4" y="84" width="26.4" height="20"/>
										</defs>
										<clipPath id="SVGID_48_">
											<use xlink:href="#SVGID_47_"  style="overflow:visible;"/>
										</clipPath>
										<path class="st62" d="M205.3,93.1c0.4,1.5,1.1,2.7-0.4,4.7c-1.6,2.1-3.8,4-6.9,5.9c-0.6,0.4-1.4,0.4-1.6,0.3
											c-0.3-0.3-0.1-0.7,0.1-1.3c0.2-0.5,0.5-1.2,0.5-1.7c-0.2,0-0.2-0.3-0.5-0.2c-0.3,0.1-0.5,0.1-0.6,0
											c-0.6-0.8-0.8-1.6-0.9-2.8c-0.5-0.9-1.3-1.1-2-2c-0.6-1-1.7-0.7-2-2.2c-0.6-1.6-1.7-1.8-4-0.7c-0.6,0.3-1.6,0.6-2.6,1.2
											c-1,0.5-2,1.2-2.6,1.9c-0.7,1.1-1.2,0.5-1.9,1.5c0,0-0.1-1.4-0.5-3.7c2-1.9,3.9-3.7,6-5.5c2.1-1.7,4.5-3.2,7.1-4.5
											C197.3,86,201.8,88.9,205.3,93.1"/>
									</g>
								</g>
								<path class="st63" d="M180.5,94.6c0,0-1.3,1.4-2.5,1.9c-1.2,0.5-2.3,0.1-1.3-3.3c0,0,1.8-4,3.9-8.1c2-4.1,4.5-8.1,6-7.9
									c0,0,0.5,0.1,1.2,0.1c0.7,0.1,1.6,0.2,2.2,0.2c0,0,0.3,0.8,0.9,1.6c0.6,0.7,1.5,1.4,3,1.1c0,0,2.7,0,5.4,0.7
									c2.7,0.7,5.3,2.2,4.8,3.4c0,0,0.1,0.2,0.4,0.6c0.2,0.4,0.5,0.9,0.7,1.6c0.5,1.2,0.8,2.7,0.5,3.7c0,0-0.7,1.1-1.2,2.3
									c-0.5,1.2-1,2.4-0.3,2.9c0,0-0.1,0.4-0.3,1c-0.2,0.6-0.5,1.4-0.9,2.1c-0.8,1.4-1.9,2.5-2.7,1.9c0,0-0.4-0.1-0.8-0.2
									c-0.5-0.1-1-0.2-1.2-0.4c0,0-0.6-1.8-1.6-3.8c-0.9-2-2.3-4-2.1-4.8c0,0-0.1-0.2-0.2-0.4c-0.2-0.3-0.4-0.6-0.7-1
									c-0.7-0.8-1.8-1.7-3.2-2.2c-1.4-0.5-3.2-0.4-4.9,0.6C183.8,89.1,182.1,91.2,180.5,94.6"/>
								<path class="st64" d="M180,96.5c0,0-1,1.8-2.2,2.9c-1.1,1.1-2.5,1.4-2.8-1.6c0,0-1-1.9-1.6-4.3c-0.7-2.4-0.7-5.3,0.6-7.1
									c0,0,0.6-0.9,1.6-2.3c1-1.4,2.2-3.2,3.6-5.2c2.7-3.8,5.9-7.8,9.2-7.4c0,0,0.2,0,0.6-0.2c0.4-0.2,1.1-0.7,2.1-1.8
									c0,0,1.2-0.4,2.4-0.2c1.3,0.2,2.6,0.9,2.7,2.9c0,0,0.7,1.6,1.5,3.2c0.8,1.6,1.8,3.2,2.9,3.4c0,0,0,0.8,0.1,1.6
									c0.2,0.8,0.5,1.5,1.3,1.2c0,0-3.1-0.4-6-0.7c-2.9-0.3-5.6-0.6-5.7-2.4c0,0-0.2-0.3-0.6-0.7c-0.4-0.3-1.1-0.7-2-0.6
									c-1.8,0.1-4.2,1.8-7.2,7.6c0,0-0.7,2.3-1.2,4.9C179,92.2,178.9,95.1,180,96.5"/>
								<path class="st65" d="M175.8,105.4c-0.8,1.1-1.7,2.5-2.6,3.4c-0.4,0.3-1,0-1.6,0.2c-0.7,0-1.2-0.8-1.6-1.4
									c-0.7-1.7-2.1-2.9-3.3-4.2c-1.2-1.3-2.3-2.7-2.5-4.9c-0.1-0.5-0.3-0.8-0.6-1c-0.1,0.1-0.6,0.2-0.7,0.3c-1-0.4-1.8-1-2.8-1.2
									c-1.8-0.2-2.4-2.4-2.6-4.6c-0.2-1.2-0.6-2.2-0.9-3.3c-0.4-1.9,2.1-5.3,1.6-6.5c-0.3-1.2-1.2-1.5-2.1-1.8
									c-0.9-0.3-1.9-0.7-2.2-1.8c-0.1-1.4-0.4-2.5,0-4.1c0.6-1.4,0.7-2.4,1.2-3.7c0.1-0.3,1.1-1.5,1.4-1.6
									c0.5-0.2,0.4,0.3,0.8,0.3c0.9,0.2-0.6,1.6-1,2.5c-0.4,1,0.5,1.3,0.7,2c0,0.4-0.2,0.8-0.5,1.5c-0.5,1,0.4,1,1.1,1.1
									c0.9,0.1,0.5,1.6,1.1,2.1c0.8,0.7,2.8-0.5,2.9,0.8c0-0.6,0.6-0.2,1.2,0.4c0.5,0.5,1,1.2,0.5,1.2c0.1-0.1-0.1,0.7-0.4,1.1
									c-0.2,0.3-0.5,0.7-0.6,0.8c-1.2,0.7-2.4,2.4-3.5,3.7c-0.1,0.2,1.7,1.8,1.8,3.5c0,1.4-0.2,3,0.6,3.6c0.3,0,0.8-0.7,1.1-0.7
									c0.3,0.1,2.7-0.5,4.9-1.4c2.2-0.8,4.3-1.8,4.5-1.5c0.2,0.6,0.4,1.9,0.1,2.6c-0.8,2.3-0.3,3.5-0.6,5.6
									c-0.1,0.5-0.5,1.1-0.5,1.6c-0.2,1.5-0.1,3.2,0.4,3.7c0.7,1.1,1.7,1.6,2.5,1.3L175.8,105.4z"/>
								<path class="st66" d="M209.4,73.3c0,0-1.4,0-2.9-0.6c-1.5-0.6-3.1-1.8-4-4.5c0,0-0.6-0.9-1.2-1.7c-0.7-0.9-1.5-1.7-2-1.7
									l-0.8-1.1c0,0-1.3-0.6-2.8-0.9c-1.5-0.3-3.3-0.2-4.1,1.1c-0.1,0-2.5,0.4-2.7-0.1c0,0-0.4-0.2-1.1,0.1
									c-0.7,0.3-1.7,1-2.9,2.9"/>
								<path class="st67" d="M158,97.1c-0.2-0.4-0.9-1.6-1.4-3c-0.5-1.4-0.9-2.9-0.8-3.8c0.1-2.7,0.4-5.3,1-8
									c0-0.2-0.1-0.4-0.3-0.3c-1.6,0.5-1.6-0.9-2.7-1c-0.4-0.1-1.1,0.1-1.3-0.2c-1-1.9-0.8-4.6,0.4-7.4c0.5-1.2,1.5-2.5,2.3-3.7
									c0.3-0.3,0.5-0.7,0.9-0.9c0.3-0.2,0.3,0.1,0.4,0.2c-0.1,0.3-0.5,0.7-0.6,1c-0.4,0.7-0.1,1.2-0.6,2c-0.3,0.8-0.9,1.6-1,2.4
									c-0.1,0.5,0,0.8,0.1,1.2c0.2,1.4,0.8,2.6,1.8,3.4c1.2-0.5,1.1,0.6,1.5,1.1c0.1,0.2,0,0.5,0.1,0.8c0.3,0.5,1.1,0.4,0.8,1.4
									c-0.7,2.1-1.2,4-1.3,5.9c0,0.8,0.2,2.3,0.6,3.8c0.4,1.5,1,2.9,1.3,3.3c0.8,1.3,2.4,1.2,3.4,2.1c0,0-0.5,0.7-1.4,1
									C160.5,98.5,159.2,98.5,158,97.1"/>
							</g>
						</g>
					</g>
				</g>
				<path class="st68" d="M228.8,116.6c-1.1,2.2-2.7,1.6-2.7,1.6s0.2,1.7-1.7,2c-1.9,0.3-4.9-0.9-4.9-0.9c-0.4,1.5,0.6,5.2,1.2,6.2
					s3.2,4.7,1.4,8.9c-1.8,4.2-1.6,6.9-1.6,6.9c-1-0.2-1.8-0.9-2.5-2.4c-0.7-1.5-2.4-2-3-2.6c-0.6-0.7-0.4-2.2-1-3.5
					c-0.6-1.2-3.3-4.1-4.1-5.3c-0.8-1.2-1.2-6.3-1.2-6.3l-0.7-0.7c0,0-0.1,3.3-0.2,6.9c-0.1,3.6,1.2,7.1,1.2,7.1s2,4.1,1.3,7.3
					c-0.7,3.2,0,5.3,0,5.3c-1.3-0.2-1.6-0.8-1.6-0.8c0,1.4,2,8.3,1.5,11.1c-0.4,2.8-4.6,5.4-6.5,8c-1.9,2.5-5.2,5.1-7.5,7.9
					c-2.4,2.8-3.4,6.9-3.4,6.9s0.1,15.3,0.4,18.3c0.3,3,1.5,9.4,2.7,11.8c1.1,2.5,4.1,2.5,4.9,3.2c0.8,0.7,2.5,4.6,2.5,4.6
					c-2.1-0.4-3.4-2.9-3.4-2.9c0.1,0.9,1.9,4,1.9,4c-1.1,0.2-4.8-0.8-5.4-1.3c-0.7-0.5-1-2.6-2.7-3.7c-1.7-1.1-3.9-4.7-4.7-6.7
					c-0.8-2-1.5-14.4-1.5-15.1l-0.1,1.3c0,0-0.5,6.7-0.3,11c0.3,4.3,2.8,9.1,2.8,9.1c1,2.5,3.3,5.9,3.3,5.9
					c-2.5,0.2-4.7-4.4-4.7-4.4c0.1,2,1.8,5.6,1.8,5.6c-1.7-0.1-4.8-1.6-4.8-1.6s-1.9-1.6-2-3c-0.1-1.4-0.4-2.9-1.2-3.5
					c-0.8-0.6-1.1-2.8-1.1-2.8c0.6-0.2,1.6-1.9,0.8-1.8c-0.8,0.1-1.2-1.1-1.2-1.1c0.9-1.1,0.9-4.1,0.9-6.2c0-2.1-0.7-5.8-1.1-6.5
					c-0.4-0.7-1.1-1.5-1.5-2.2c-0.5-0.7-0.4-3.5-0.3-4.5c0.2-1,1.1-1.7,1.1-2.4s-1.2-0.5-2.3-1.6c-1.1-1.2-1.1-9.4-1.1-9.4h-12.7
					c0,0-16.7-0.2-22.2,1.2c-5.6,1.4-11.2,5-14.2,6.7c-1.1,0.7-2.6,2-4.1,3.6c-2.1-0.2-4.1-0.3-5.5-0.3c-1.9,0-7.9,0.1-13.5,0.2
					c0.3-2,0.8-4.2,1.5-6.4c6-19.4,34.5-34.2,34.5-34.2c-4.3-3.1-2.9-8.2-2.9-8.2s-2.9-3-4.9-2.6c-2,0.3-3,3.8-3,3.8
					s-1.5-5.3,2.5-8.2c4-2.9,11.8-1.7,11.8-1.7c0.7-4.6-1.2-8.5-1.2-8.5s0.9,1.7,3.2,0.5c2.3-1.2,7.4,0.2,7.4,0.2
					c0.4-1.5-0.4-3.8-0.4-3.8c5.8-0.6,8.6,2.8,8.6,2.8v-1.5c1.3-5,7.7-2.8,7.7-2.8s-1.7,3.1-1.1,5.5c0.7,2.4,4.2,7.4,4.2,7.4
					s5.5,4.6,7.9,3.7c2.4-0.9,3.3-5.5,3.3-5.5s1.3-7,1.5-10.5c0.2-3.5,9.3-15.4,9.3-15.4c-4.6-2.7-5.3-7.7-5.3-7.7
					c6.6-2.1,11,4.6,11.2,5c-0.7-2.1-4.2-4.8-4.2-4.8s-3.5-2.3-6.9-3.9c-3.4-1.6-8.5-1.2-11.2-1.2c-2.2,0-7.7-0.3-9.8-0.4
					c-0.4,0-0.8,0-1.2,0c-1.3,0-5.3-0.1-9.2-3.2c-4.7-3.8-3.5-7.8-3.5-7.8c1.5,2.5,5.7,8.6,11.7,7.7c0,0,11.1-1,14.6-0.7
					c3.4,0.3,17.5-0.3,27.9,12.7c-4-5.5-10.1-8.8-13.2-10.2c-1.1-0.5-2.2-0.9-3.4-1.1c-2.5-0.5-7.3-1.5-9.4-1.7
					c-2.9-0.3-7.9-1.5-13.2-4.6c-5.3-3.1-4.6-9.7-4.6-9.7c4.2,7.4,9.4,8.1,10.7,8.9c1.4,0.8,5.6,1.7,13.5,3.3
					c7.9,1.6,9.8,3.5,13.3,5.6c3.5,2,8,8,8,8c1.2-2.7,4.9-1.6,4.9-1.6c-2,1.6-0.5,4.6-0.5,4.6l8.6,7.9c0,0,6.5,6.9,6.9,7.6
					C230.4,113.6,230,114.4,228.8,116.6z"/>
				<path class="st68" d="M104.4,185.7c-0.5,2.9-0.6,5.7-0.4,8.3c0.7,11.6,6.7,19.9,10.6,25.3c5.3,7.5,12.5,9.2,14.2,9.8
					c1.7,0.7,8,0.5,9.2,0c1.2-0.5,6.2-3.1,8.9-6.2c2.6-3.1,3.2-6.3,3.5-8.4c0.3-2,0.3-7.7-1.8-11.6c-2.1-3.9-5.1-7.2-6.4-8.4
					c-1.3-1.1-6.2-5.4-10-7c-2-0.9-5.5-1.4-8.8-1.7"/>
				<path class="st68" d="M81.3,214.2c-0.7,0.3-2.4,0.2-3.3-0.8c-0.9-1.1-3.9-1.4-3.9-1.4s1.6-0.4,2.1-4.2c0.5-3.8,4.6-5.1,4.6-5.1
					s-0.6-2.5-1.6-3c-1.1-0.5-2.9-0.6-3.9,1.2c-1,1.8-0.2,4.2-0.2,4.2c-1.2,1.1-5.2,0.7-6.6-0.3c-1.4-1-1.8-3.4-1.6-4.9
					c0.2-1.5,2-3.2,2-3.2c-0.5-0.2-1.8-0.1-3.1-0.5c-1.3-0.4-3.1-1-3.7-1.7c-0.6-0.7-2.5-2.7-3.6-3.9c-1.1-1.2-3.2-2.1-3.2-2.1
					c0.2-2.5,2.3-3.9,2.3-3.9c-2.7-0.6-5.6-4.8-6.2-6.4c-0.6-1.6,0.7-5.4,1-7.2c0.2-1.8,2.8-4,4.8-4.1c2-0.1,1.7,2.1,1.7,2.1
					c-0.7,0.2-1.7,0.6-1.7,3.2s1.2,3.6,3.3,6.4c2,2.8,5.3,4.5,7.5,5.7c2.1,1.2,7.8,2.5,11.2,3c3.5,0.5,11.5-0.9,13.8-1.1
					c1.1-0.1,6.1-0.2,11.4-0.2"/>
				<path class="st68" d="M81.3,214.2L81.3,214.2c-0.1,0.2-0.9,2.3-0.4,3.8c0.5,1.6,0.5,3.3,0.5,3.3s1.2-1.3,2.3-1.5
					c1.1-0.2,1.8-0.1,2,0.5c0.2,0.6,0.5,2.1,0,2.9c-0.5,0.7-0.1,3.4,0.3,3.7c0.4,0.3,1.6,2.2,5.3,1.7c0,0,0.7-1.2,1.8-1.2
					c1.1,0.1,2.5,2.5,4.1,3c1.6,0.5,3.9,0.6,5.4,0.5c1.5-0.1,2.9-1.2,3.4-1.8c0.6-0.7,1.8-3,1.7-4.5c0,0-1.7,1.9-4.7,1.6
					c-3-0.3-6.7-2.5-7.7-3.9s-2.5-4.3-2.6-6.3c-0.1-2-0.4-7.4,0.2-9.3s3-5.7,4.3-6.9c0.8-0.7,3.4-3.4,6.6-5.8c2.1-1.6,4.4-3,6.6-3.6
					c2.7-0.8,6.4-0.7,9.6-0.5c3.4,0.3,6.2,0.9,6.7,1.1c1,0.3,6.9,3,8.6,4.1c1.7,1.1,5.9,4.6,7.3,7.5c1.4,2.9,2.5,6.2,2.2,9.8
					c-0.3,3.6-2.9,6.6-4.4,7.6c-1.5,1-4.7,2.2-8,2.2s-6.8-1-9.3-4c-2.5-3-4.2-5.5-5.6-9.4c-1.4-3.9-0.9-8.3-1-9.8
					c-0.1-2.5,1.4-5.9,3.5-9c1-1.5,2.1-2.9,3.2-4.1"/>
				<line class="st68" x1="187.4" y1="192.4" x2="188.3" y2="181.6"/>
				<path class="st68" d="M200.7,102c-2.7-0.1-4.9-0.7-6.5-1.7"/>
				<path class="st69" d="M66.4,115.7c0,0,12.9,0.2,13.1,27.6c0,0,0.2-23.9,8-27.6c7.8-3.7,7.6,18.8,7.8,21.2
					c0.2,2.4-0.9,11.5,7,17.2c7.9,5.7,15.1-1.3,16-3c0.9-1.7,2-9.2-3.5-12.9c-5.5-3.7-10.1-1.3-12.5,1.4c-2.1,2.4-4.4,11-5.9,14.5
					c-1.5,3.5-4.6,9.9-16.4,9.9"/>
			</g>
		</g>
	</g>
</g>
</svg>
