<?xml version="1.0" encoding="utf-8"?>
<!-- Generator: Adobe Illustrator 22.1.0, SVG Export Plug-In . SVG Version: 6.00 Build 0)  -->
<svg version="1.1" id="Calque_1" xmlns="http://www.w3.org/2000/svg" xmlns:xlink="http://www.w3.org/1999/xlink" x="0px" y="0px"
	 viewBox="0 0 288 288" style="enable-background:new 0 0 288 288;" xml:space="preserve">
<style type="text/css">
	.st0{display:none;fill:#6B1E1E;}
	.st1{fill:#FFFFFF;}
	.st2{opacity:0.9;}
	.st3{fill:#F6FCFC;}
	.st4{fill:#F0F9FA;}
	.st5{fill:#F5FBFC;}
	.st6{fill:#D3EEF0;}
	.st7{fill:#DAF0F2;}
	.st8{fill:#D5EFF1;}
	.st9{fill:#DCF1F3;}
	.st10{fill:#E6F5F7;}
	.st11{fill:#E3F4F5;}
	.st12{fill:#EAF7F8;}
	.st13{fill:none;stroke:#1D1D1B;stroke-miterlimit:10;}
</style>
<rect x="-11" y="-13" class="st0" width="309" height="320"/>
<g>
	<path class="st1" d="M90.3,39.3l-9.3-26l10.8-3.8C92.9,9.1,94,9,95.1,9.1s2.1,0.5,3.1,1c1,0.5,1.8,1.2,2.5,2
		c0.7,0.8,1.3,1.8,1.6,2.8c0.4,1.1,0.6,2.2,0.6,3.3c0,1.1-0.2,2.2-0.6,3.2c-0.4,1-1,1.9-1.7,2.7c-0.7,0.8-1.7,1.4-2.8,1.8l-8.4,3
		l3.4,9.6L90.3,39.3z M88.6,26.5l8.3-3c0.8-0.3,1.4-0.7,1.9-1.2c0.5-0.6,0.9-1.2,1.1-1.9s0.4-1.5,0.3-2.3c0-0.8-0.2-1.6-0.4-2.4
		c-0.3-0.8-0.7-1.5-1.2-2.1c-0.5-0.6-1.1-1.1-1.8-1.5c-0.7-0.4-1.4-0.6-2.1-0.7c-0.8-0.1-1.5,0-2.2,0.3l-8.1,2.9L88.6,26.5z"/>
	<path class="st1" d="M106.6,8.5l-0.9-3.8l2.6-0.6l0.9,3.8L106.6,8.5z M112,32.4l-4.5-19.7l2.6-0.6l4.5,19.7L112,32.4z"/>
	<path class="st1" d="M126.3,30.2c-1.6,0.2-3.1,0.1-4.7-0.2c-1.6-0.3-2.9-0.9-4.1-1.8l1-1.9c1.2,0.8,2.5,1.3,3.7,1.7
		c1.2,0.3,2.5,0.4,3.8,0.2c1.6-0.2,2.9-0.7,3.8-1.5c0.9-0.8,1.3-1.8,1.1-3c-0.1-0.6-0.3-1-0.6-1.4c-0.3-0.3-0.7-0.6-1.3-0.8
		c-0.5-0.2-1.2-0.4-2-0.5c-0.8-0.1-1.7-0.2-2.7-0.4c-1.2-0.1-2.2-0.3-3.1-0.5c-0.9-0.2-1.6-0.4-2.2-0.7c-0.6-0.3-1.1-0.7-1.4-1.2
		c-0.3-0.5-0.5-1.1-0.6-1.9c-0.1-1,0-1.9,0.3-2.7c0.3-0.8,0.8-1.5,1.4-2.1c0.6-0.6,1.4-1.1,2.3-1.4c0.9-0.4,1.8-0.6,2.9-0.7
		c1.5-0.2,3-0.1,4.3,0.2c1.3,0.3,2.4,0.9,3.3,1.6l-1.1,1.7c-0.8-0.7-1.8-1.2-2.9-1.4c-1.1-0.3-2.2-0.3-3.4-0.2
		c-0.7,0.1-1.3,0.2-1.9,0.4c-0.6,0.2-1.1,0.5-1.5,0.9s-0.7,0.8-0.9,1.3c-0.2,0.5-0.3,1.1-0.2,1.7c0.1,0.5,0.2,1,0.4,1.3
		c0.2,0.3,0.6,0.6,1,0.8c0.4,0.2,1,0.4,1.6,0.5s1.4,0.2,2.4,0.3c1.3,0.2,2.5,0.3,3.5,0.5c1,0.2,1.9,0.5,2.6,0.8
		c0.7,0.3,1.3,0.8,1.7,1.3c0.4,0.6,0.7,1.3,0.8,2.1c0.2,1.9-0.3,3.4-1.6,4.7C130.6,29.2,128.7,29.9,126.3,30.2z"/>
	<path class="st1" d="M136.4,18.6c0-1.4,0.3-2.8,0.9-4c0.5-1.3,1.3-2.3,2.2-3.3c0.9-0.9,2-1.6,3.3-2.1c1.3-0.5,2.6-0.7,4.1-0.7
		c1.9,0.1,3.6,0.5,5,1.4c1.4,0.9,2.4,2.1,3.1,3.6l-2.6,0.7c-0.5-1.1-1.3-1.9-2.3-2.5c-1-0.6-2.1-0.9-3.4-1c-1,0-2,0.2-2.9,0.5
		c-0.9,0.4-1.7,0.9-2.4,1.6c-0.7,0.7-1.2,1.5-1.6,2.5c-0.4,1-0.6,2-0.7,3.2c0,1.1,0.1,2.2,0.5,3.2c0.4,1,0.9,1.9,1.5,2.7
		s1.4,1.4,2.3,1.8c0.9,0.5,1.8,0.7,2.8,0.7c0.6,0,1.3-0.1,1.9-0.2c0.6-0.2,1.2-0.4,1.8-0.7c0.6-0.3,1-0.7,1.4-1.1
		c0.4-0.4,0.7-0.8,0.9-1.3l2.6,0.8c-0.3,0.7-0.7,1.4-1.3,2c-0.6,0.6-1.2,1.1-2,1.5c-0.8,0.4-1.6,0.8-2.5,1c-0.9,0.2-1.8,0.3-2.8,0.3
		c-1.5,0-2.8-0.4-4.1-0.9c-1.2-0.6-2.3-1.4-3.2-2.4c-0.9-1-1.6-2.1-2-3.4C136.6,21.4,136.3,20,136.4,18.6z"/>
	<path class="st1" d="M166.1,31.7c-1.4-0.3-2.7-0.8-3.8-1.6c-1.1-0.8-2-1.7-2.7-2.9c-0.7-1.1-1.2-2.4-1.4-3.7
		c-0.3-1.3-0.2-2.7,0-4.1c0.3-1.4,0.8-2.7,1.5-3.8s1.6-2.1,2.7-2.8c1.1-0.8,2.2-1.3,3.6-1.6c1.3-0.3,2.7-0.3,4.1-0.1
		c1.5,0.3,2.7,0.8,3.8,1.6c1.1,0.8,2,1.7,2.7,2.8s1.1,2.3,1.4,3.6c0.2,1.3,0.2,2.7,0,4c0,0.2-0.1,0.4-0.1,0.6c0,0.2-0.1,0.3-0.1,0.4
		l-17-3.3c-0.1,1.1-0.1,2.1,0.2,3.1c0.2,1,0.6,1.9,1.2,2.7c0.5,0.8,1.2,1.4,2,2c0.8,0.5,1.7,0.9,2.6,1.1c0.6,0.1,1.3,0.2,2,0.1
		c0.7-0.1,1.3-0.2,1.9-0.4c0.6-0.2,1.1-0.5,1.7-0.8s0.9-0.8,1.3-1.3l2.1,1c-0.4,0.7-1,1.3-1.7,1.8c-0.7,0.5-1.4,0.9-2.2,1.2
		c-0.8,0.3-1.7,0.5-2.6,0.6C168,31.9,167.1,31.9,166.1,31.7z M175.6,21.7c0.1-1.1,0.1-2.1-0.2-3.1c-0.3-1-0.6-1.8-1.2-2.6
		c-0.5-0.8-1.2-1.4-2-1.9c-0.8-0.5-1.7-0.9-2.6-1.1c-1-0.2-1.9-0.2-2.8,0c-0.9,0.2-1.8,0.5-2.6,1.1c-0.8,0.5-1.4,1.2-2,2
		c-0.6,0.8-1,1.7-1.3,2.8L175.6,21.7z"/>
	<path class="st1" d="M185,36.9c-1.5-0.5-2.8-1.3-4.1-2.3c-1.2-1-2.2-2.1-2.9-3.4l1.7-1.3c0.8,1.3,1.6,2.3,2.6,3.2
		c1,0.8,2.1,1.5,3.3,1.9c1.5,0.6,2.9,0.7,4,0.4s1.9-1,2.3-2.2c0.2-0.5,0.2-1,0.1-1.5c-0.1-0.4-0.4-0.9-0.7-1.3
		c-0.4-0.4-0.9-0.9-1.5-1.4c-0.6-0.5-1.4-1-2.3-1.5c-1-0.7-1.9-1.3-2.6-1.8c-0.7-0.6-1.3-1.1-1.7-1.6c-0.4-0.5-0.6-1.1-0.7-1.7
		c-0.1-0.6,0-1.3,0.3-2c0.3-1,0.8-1.7,1.5-2.3c0.6-0.6,1.4-1,2.2-1.3c0.8-0.2,1.7-0.3,2.7-0.3c1,0.1,1.9,0.3,2.9,0.6
		c1.5,0.5,2.7,1.2,3.7,2.1c1,0.9,1.8,1.9,2.2,2.9l-1.7,1c-0.4-1-1.1-1.8-2-2.6s-1.9-1.3-3-1.7c-0.7-0.2-1.3-0.4-1.9-0.5
		c-0.6-0.1-1.2,0-1.7,0.1c-0.5,0.1-1,0.4-1.4,0.8c-0.4,0.4-0.7,0.8-0.9,1.5c-0.2,0.5-0.2,1-0.2,1.3c0.1,0.4,0.2,0.8,0.5,1.1
		c0.3,0.4,0.7,0.8,1.3,1.2s1.2,0.8,2,1.4c1.1,0.7,2.1,1.4,2.9,2c0.8,0.6,1.5,1.2,2,1.9c0.5,0.6,0.8,1.3,0.9,1.9
		c0.1,0.7,0,1.4-0.3,2.2c-0.6,1.8-1.8,2.9-3.5,3.4C189.3,37.9,187.3,37.7,185,36.9z"/>
</g>
<circle class="st1" cx="141.6" cy="157" r="128"/>
<g>
	<g>
		<g>
			<g>
				<g>
					<g class="st2">
						<g class="st2">
							<path class="st3" d="M70.6,170.5l0.9,0.9c0.3-0.4,0.7-0.7,1.3-0.8c1.6,0.4-2-2.5-4.8-6.3c-0.4,0.2-0.6,0.8-0.2,1.8
								C68,167.1,68.9,168.5,70.6,170.5z"/>
							<path class="st4" d="M81.8,190.1c0.6,0.2,1.3,0.3,1.9,0.5c0-0.1-0.1-0.1-0.1-0.2C82.9,190.3,82.3,190.2,81.8,190.1z"/>
							<path class="st3" d="M80.9,181.4c-2.7-1.9-4.6-2.7-6.7-4.1c0.9,1.1,1.5,2.2,1.7,3.1c0.4,1,1.2,2.3,2.3,3.5
								c1,0.4,2.4,1,3.6,1.8c-0.5-0.6-0.5-0.5-1.4-0.9c0.9,0.4,2.8,1.1,2.8,1.1c-0.1-0.7-3.5-3.1-5.8-4.5c1.5,0.6,3.7,1.5,5.4,2.2
								c-0.3-0.4-0.7-0.9-1.1-1.3c-0.6-0.4-1.2-0.8-1.7-1.2L80.9,181.4z"/>
							<path class="st3" d="M68.5,153.3c0,0.2,0,0.4,0,0.6c0.5,0.5,1,1.1,1.6,1.7c0-0.6,0-1.2,0-1.9c-0.2-0.3-0.5-0.7-0.8-1.1
								l0.3-0.3c0.2,0,0.3,0.1,0.6,0.4v-0.1c0-0.4,0.1-0.8,0.1-1.1c-0.1,0.1-0.2,0.3-0.3,0.4c-0.2-1.1-0.2-2.4-0.8-2.6
								C68.6,149.9,68.6,151.9,68.5,153.3z"/>
							<path class="st5" d="M66.6,130.4c-0.6,0.2-1.2,0.1-1.8-0.2c0.3,1.5-0.4,3.9,0.1,5.6c-1.6-0.8-2.5,2.1-2.8,5.9
								c-0.2,1.9-0.3,4-0.5,5.7c-0.1,1.7-0.3,3.1-0.6,3.9c-0.5,2-0.5,4.8,0.1,7.6s1.9,5.7,2.9,8.1c0.9,0.6,1.1,0.1,2.5,1.5
								c-0.3-0.5-0.6-1.1-1-1.6s-0.9-1.1-1.4-1.6c-0.2-0.2-0.4-0.4-0.6-0.6c0.2,0.2,0.4,0.4,0.6,0.6c0.8,0.8,1.5,1.6,2.4,2.6
								c-0.3-0.4-0.4-0.7-0.2-0.7c0.3,0.1,0.5,0.3,0.7,0.5c-1-2.1-1.7-4.1-1.8-5.7c-0.2-1.6,0.2-2.9,1.1-3.4c-0.1-0.3-0.3-0.7-0.3-1
								c-0.7-2-0.7-3.4-0.6-4.4c0.1-0.9,0.5-1.3,1-1.4c-0.5-2.5-0.8-5.7-0.8-8c0.2-3.9,0.7-7.2,1.5-10.1c-0.3-1-0.6-1.9-0.9-2.6
								C66.4,130.8,66.5,130.6,66.6,130.4z"/>
							<path class="st6" d="M174.4,101.1c0.8-0.2,1.9-1.2,2.6-3.1c0.8-1.9,1.1-4.6,0.6-7.6c-0.4-3-1.5-6-2.9-8.9
								c-0.7-1.4-1.5-2.8-2.3-4.1c-0.8-1.3-1.7-2.5-2.6-3.8c-2-2.7-4.2-5.5-7-8.3c-1.4-1.4-3-2.7-4.7-3.9s-3.6-2.3-5.6-3.1
								c-7.8-3.5-16.2-4-24.1-2.9c1.2,0.5,1.5,1.2,0.6,2.1c-0.9,0.8-2.7,1.8-5.6,3.1c-3,1.2-8.6,2-9.6,3c-3.1,1.8-4.9,3.3-6.8,4.8
								s-4,3-7.6,5.3c1.5-0.3,2.1,0.5,3.6-0.2c4.5-1.2,9.8-3.2,15.9-6.6c0.9-0.5,2.4-0.6,3.2-0.4c0.8,0.2,0.8,0.8-1.3,1.7
								c2.8-0.7,5-1.4,7.2-1.9c2.1-0.6,4.1-1,6.3-1.2c3-0.3,4.8,0,5.8,0.4s1.2,0.8,1.1,1.3c-0.2,0.9-1.2,2,0.4,3.1
								c0.5,0.6,1.2,1,2,1.4c3.5,0.2,6.8,0.9,10.1,2.7c3.3,1.7,6.4,4.3,9.4,7.1c1.4,1.4,2.4,4.1,3.7,5.5c2.2,2.8,4.6,6.1,5.8,9.2
								C173.6,98.9,173.7,101.5,174.4,101.1z"/>
							<path class="st7" d="M78.5,79.1c1.7-1.7,3.6-3.5,5.8-5.1c-3.7,1.7-7.4,3.5-10.9,5.5c-0.7,0.9-1.4,1.9-2,2.7
								C74,80.6,76.5,79.4,78.5,79.1z"/>
							<path class="st7" d="M134.6,71.3c0.8-1.6-2-1.6-4.6-2.4c-5.1,1.9-8.7,2.9-12.3,2.6c-0.1,0.4-2.4,1-3.2,1.6
								c0.1-0.5-2.1-0.3-0.4-1.3c-1.6,1-3.8,1.3-4.7,2.3c-3,0.8,1.8-2-0.4-1.8c-4.5,3.2-8.9,5.3-12,6.1c-3.1,0.8-4.9,0.4-3.6-1.5
								c0.8-1.6,3.2-3.5,4.2-5.5c1-2.1,6.5-3.9,10.5-5.3c-1.4-0.3-7.1,1.9-4.4-0.3c2.7-1.9,5.8-3.9,7.6-5.5
								c-4.2,1.8-8.6,4.1-12.4,6.3c-4,2.2-7.3,4.2-9.5,5.2c-1.7,0.7-3.4,1.5-5.1,2.2c-2.2,1.6-4.1,3.3-5.8,5.1
								c-2.1,0.3-4.5,1.4-7.1,3.1c-0.7,1.1-1.3,2.1-1.4,2.7c-0.6,1.5,1.1,0.5,3.5-0.9c2.3-1.4,5.3-3.2,6.7-3.4
								c-4.4,3.6-6.4,6.4-6.8,8.1s0.7,2.3,2.8,1.9c2.8-0.6,5.6-1.7,9.8-3.5c2.1-1.1,4.9-2.9,7.1-4.8c-0.7,0.6-2.9,2.6-2.2,2.4
								c2.5-1.1,4.4-1.6,6.5-2.3c2-0.7,4.2-1.6,7.2-3.4c-0.1,0.5,0.7,0.3-0.9,1.5c3-2.3,2,0.6,5.1-1.7c2.1,0.2,2.4,2.3,6.9,0.2
								c1.3-0.6,2.2-1,3.1-1.3c3-1.9,6.4-3.6,10.4-4.7c2.9-0.8,5.6-1.3,8.2-1.6C136,71.5,134.8,71.6,134.6,71.3z"/>
							<path class="st8" d="M141.5,69.9c-1.6-1.1-0.6-2.2-0.4-3.1c0.1-0.5-0.1-0.9-1.1-1.3c-1-0.3-2.8-0.7-5.8-0.4
								c-2.1,0.2-4.1,0.6-6.3,1.2c-2.1,0.6-4.4,1.2-7.2,1.9c2.1-0.9,2.1-1.4,1.3-1.7c-0.8-0.2-2.3-0.1-3.2,0.4
								c-6.1,3.4-11.4,5.4-15.9,6.6c-1.5,0.7-2.1-0.1-3.6,0.2c3.5-2.3,5.6-3.8,7.6-5.3c1.9-1.5,3.7-2.9,6.8-4.8c1-1,6.6-1.8,9.6-3
								c2.9-1.2,4.8-2.2,5.6-3.1c0.8-0.8,0.6-1.6-0.6-2.1c-5.6,0.8-10.8,2.4-15.8,4.2c-0.4,0.2-0.9,0.4-1.4,0.6
								c-1.8,1.6-4.9,3.6-7.6,5.5c-2.6,2.2,3,0,4.4,0.3c-4,1.4-9.5,3.3-10.5,5.3s-3.4,3.9-4.2,5.5c-1.2,1.9,0.6,2.4,3.6,1.5
								c3.1-0.8,7.5-2.9,12-6.1c2.2-0.3-2.6,2.6,0.4,1.8c0.9-1,3.1-1.2,4.7-2.3c-1.6,1,0.5,0.8,0.4,1.3c0.8-0.5,3.1-1.1,3.2-1.6
								c3.5,0.3,7.1-0.7,12.3-2.6c2.6,0.8,5.4,0.8,4.6,2.4c0.2,0.3,1.4,0.3,2.7,0.3c2.1-0.2,4.1-0.3,6.1-0.2
								C142.6,70.9,141.9,70.4,141.5,69.9z"/>
							<path class="st9" d="M115.5,79.2c-4.5,2.2-4.8,0-6.9-0.2c-3.1,2.2-2-0.6-5.1,1.7c1.5-1.1,0.8-1,0.9-1.5
								c-3,1.8-5.1,2.7-7.2,3.4c-2,0.7-4,1.1-6.5,2.3c-0.7,0.2,1.4-1.8,2.2-2.4c-2.2,1.9-5,3.6-7.1,4.8c-4.2,1.8-6.9,2.8-9.8,3.5
								c-2.1,0.4-3.3-0.2-2.8-1.9c0.4-1.7,2.4-4.5,6.8-8.1c-1.5,0.3-4.4,2-6.7,3.4c-2.3,1.4-4.1,2.4-3.5,0.9
								c0.1-0.7,0.7-1.7,1.4-2.7c-3.1,2.1-6.5,5-9.8,8.5c-3.3,3.4-6.3,7.4-8.7,11.3c0.3,0.6,0.8,0.6,1.8-0.5
								c1.9-1.8,3.3-2.7,4.4-3.1c1-0.4,1.8-0.4,2.5-0.3c1.4,0.2,2.6,0.6,5.9-1.2c1.3-0.7,4.6-3.2,5.3-3.5c3.5-1,1.7,2.6,5.1,1.7
								c0,0.4,3.9-3.4,4.6-3.2c2.1-0.2,2.2,1.6,5.5-0.4c4.7-2.6,8.1-3.7,10.8-4.1c2.8-0.5,5-0.4,7.4-0.4c4.1-3.3,7.7-6.4,12.3-9.2
								C117.7,78.2,116.8,78.6,115.5,79.2z"/>
							<path class="st10" d="M45.4,168.7c1.9,3.1,3.7,5.8,5.6,8.1c-3.8-5.8-5.4-11.3-5.8-15.4c-0.4-4,0.2-6.7,1-8.9
								c0.1-0.4,0-1.7-0.2-3.4s-0.5-3.8-0.7-5.9c-0.2-2.2-0.4-4.5-0.4-6.4s0.3-3.5,0.8-4.1c0.8,0.6,1.4,3.9,2.2,7.6
								c0.1-3.7,0.6-6.6,1.4-8.9c0.7-2.3,1.6-4,2.6-5.5s2-2.8,3.1-4.3s2.3-3.1,3.8-5.2s3.2-3.8,5-5.2c1.8-1.4,3.5-2.4,5.2-3.1
								c3.3-1.4,6.2-1.6,7.7-0.7c0.6,0.5,2.2-0.2,4.1-1.3c1-0.6,2.1-1.2,3.3-1.8c1.2-0.6,2.4-1.3,3.6-1.9c1.3-1.6,2.8-3.2,4.2-4.7
								c-2.9,1-5.4,1.8-6.6,1.4c-1.8-0.8-3.8-1-6.7-0.2c-2.8,0.8-6.4,2.5-10.8,6.1c-1.4,1.1-2.3,0.8-3,0.2c-0.7-0.5-1.3-1.2-2.2-0.6
								c-3.8,2.3-6.7,4.4-9.4,6.6s-5.1,4.4-7.5,7.5c-1.1,1.2-2.7,4.1-3.9,7.8c-0.5,6.5,0.4,12.3,0.7,17.6c1.2,7.1,0.9,10.6,0.5,13.2
								c-0.2,1.3-0.4,2.5-0.2,4.2C43,163.2,43.7,165.5,45.4,168.7z"/>
							<path class="st11" d="M88.1,91.7c-3.3,2-3.4,0.2-5.5,0.4c-0.7-0.3-4.6,3.6-4.6,3.2c-3.4,0.9-1.7-2.7-5.1-1.7
								c-0.7,0.3-4,2.8-5.3,3.5c-3.4,1.8-4.6,1.4-5.9,1.2c-0.7-0.1-1.4-0.2-2.5,0.3c-1.1,0.4-2.5,1.2-4.4,3.1c-1,1-1.5,1-1.8,0.5
								c0,0,0,0,0,0.1c0-0.9-0.9-0.2-1.8,1c-0.9,1.1-1.9,2.8-2.2,3.5c-1.8,3.4-2.9,5.9-4,8.3c-0.5,1.2-1,2.4-1.4,3.7
								c-0.4,1.3-0.9,2.7-1.2,4.3c-0.2,1.2-0.4,2.5-0.4,3.7c1.2-3.7,2.8-6.6,3.9-7.8c2.4-3.1,4.8-5.4,7.5-7.5
								c2.7-2.2,5.7-4.2,9.4-6.6c0.9-0.6,1.5,0.1,2.2,0.6s1.6,0.9,3-0.2c4.3-3.6,8-5.3,10.8-6.1c2.8-0.8,4.9-0.6,6.7,0.2
								c1.2,0.4,3.7-0.5,6.6-1.4c1.2-1.3,2.5-2.5,3.8-3.6c0.6-0.6,1.6-1.1,2.5-1.4c0.8-0.3,1.5-0.4,1.5-0.4c2.5-1.8,4.7-3.6,6.8-5.2
								c-2.4,0-4.6-0.1-7.4,0.4C96.2,88,92.8,89.1,88.1,91.7z"/>
							<path class="st12" d="M57.7,184c1.3,1,2.9,2.1,4.2,3c1.9,1.3,2.5,1.9,3,2.4c0.4,0.5,0.6,0.9,1.4,1.5l-0.6-0.7
								c0.4,0.3,0.7,0.5,1.1,0.8c-1.1-1.8-1.6-3.3-0.9-4c-2.1-1.5-3.7-3.1-4.2-4.1c-1.6-3.4-2.3-6.4-3.7-10.5
								c-0.4-1-0.7-2.2-1.2-3.4c-0.4-1.3-0.9-2.6-1.4-4.1c-0.1-0.4-0.2-0.8-0.4-1.1c-0.1-0.4-0.2-0.8-0.3-1.2
								c-0.2-0.8-0.5-1.7-0.7-2.6c-0.4-1.9-0.8-3.9-1.1-6c-0.5-3.5,0.7-3.3,1.9-3.6s2.3-0.9,2.4-5.6c0-1.6-0.2-3.8-0.2-5.8
								s0.1-3.7,0.7-4.2c0.8-0.4,1.7,0.5,2.5,0.7s1.4-0.2,1.8-3c0.3-3.4,1.2-6.4,2.4-8.6c1.2-2.2,2.7-4,4.3-5.3
								c1.5-1.3,3.2-2.2,4.6-2.7s2.7-0.5,3.7-0.2c1.5-1.6,3.1-3.6,4.9-5.9s3.8-4.9,6.1-7.5c-1.2,0.6-2.4,1.2-3.6,1.9
								c-1.1,0.6-2.3,1.2-3.3,1.8c-2,1.1-3.5,1.8-4.1,1.3c-1.6-1-4.4-0.8-7.7,0.7c-1.7,0.7-3.5,1.8-5.2,3.1c-1.8,1.4-3.5,3.1-5,5.2
								s-2.7,3.7-3.8,5.2s-2.1,2.8-3.1,4.3s-1.9,3.2-2.6,5.5c-0.7,2.3-1.2,5.2-1.4,8.9c-0.8-3.7-1.4-7-2.2-7.6
								c-0.5,0.6-0.7,2.2-0.8,4.1c0,2,0.1,4.3,0.4,6.4c0.3,2.1,0.5,4.2,0.7,5.9s0.4,3,0.2,3.4c-0.7,2.3-1.3,4.9-1,8.9
								c0.4,4,2,9.5,5.8,15.4C53.3,179.5,55.5,181.9,57.7,184z"/>
							<path class="st4" d="M61.8,132.6c-0.3,2.8-0.9,3.2-1.8,3c-0.8-0.2-1.7-1.1-2.5-0.7c-0.6,0.5-0.7,2.2-0.7,4.2s0.3,4.2,0.2,5.8
								c0,4.7-1.2,5.3-2.4,5.6c-1.1,0.3-2.3,0.1-1.9,3.6c0.3,2.2,0.6,4.2,1.1,6c0.2,0.9,0.5,1.8,0.7,2.6c0.1,0.4,0.2,0.8,0.3,1.2
								s0.3,0.8,0.4,1.1c0.5,1.5,1,2.8,1.4,4.1c0.4,1.2,0.8,2.3,1.2,3.4c1.5,4.1,2.2,7.1,3.7,10.5c0.5,1,2.1,2.6,4.2,4.1
								c0.3-0.3,0.7-0.5,1.4-0.5c0.5-0.2-0.6-1.4-2-3.1c-1.4-1.6-3.1-3.8-4.1-5.3c-0.4-2.4,3.4-0.2,7.2,1.4c0.6,0.2,1.2,0.4,1.8,0.6
								c0,0.1,0.1,0.1,0.1,0.2c0.5,0.2,1,0.4,1.4,0.5c-0.9-1.1-1.7-2.1-2.3-3.1c-0.3-0.3-0.7-0.6-1-1c0.2,0.1,0.4,0.2,0.7,0.4
								c-0.9-1.4-1.6-2.8-1.8-3.9c-0.1-1-0.6-2.1-1.2-3.4c-0.4-0.4-0.9-0.8-1.3-1.4c0.4,0.5,0.7,0.7,1,0.9c-1.2-2.3-2.7-5.1-3.6-7.9
								c-0.5-1.4-0.8-2.8-0.9-4.1s-0.1-2.5,0.1-3.5c0.3-0.8,0.3-2.2,0.4-3.9s0.2-3.6,0.4-5.6c0.3-3.9,1.1-6.9,2.7-6.1
								c-0.6-1.8,0-4.4-0.4-5.9c0.6,0.3,1.2,0.3,1.8,0.1c0.4-1.7,0.9-3.5,1.5-3.7c0.6,0.3,0.2,1.4,0.2,2.7l0.4-0.4l0.1-0.4
								c-0.1-0.7-0.2-1.4-0.3-2c-0.4-0.7-0.8-1.5-1.1-2.1c0.5,0.3,0.9,1.1,1.1,2.1c0.2,0.4,0.4,0.7,0.7,1c0.5-1.5,1.1-2.8,1.7-4
								c0-0.3,0-0.5,0-0.8c0,0.2,0,0.5,0.1,0.7c0.1-0.2,0.2-0.3,0.3-0.5c-0.1-1-0.2-3.2,0.5-5.8c2.1-0.7,3.7-1.9,5.4-3.6
								c-1-0.3-2.2-0.3-3.7,0.2c-1.4,0.5-3.1,1.4-4.6,2.7c-1.6,1.3-3.1,3.1-4.3,5.3C63,126.2,62.1,129.1,61.8,132.6z"/>
						</g>
					</g>
				</g>
			</g>
		</g>
		<g>
			<g>
				<g>
					<g class="st2">
						<g class="st2">
							<path class="st3" d="M211.2,141.3l-0.8-0.9c-0.3,0.4-0.7,0.7-1.3,0.8c-1.5-0.4,1.9,2.5,4.6,6.2c0.4-0.2,0.6-0.7,0.3-1.7
								C213.6,144.7,212.8,143.3,211.2,141.3z"/>
							<path class="st4" d="M200.8,121.7c-0.6-0.2-1.2-0.3-1.8-0.5c0,0.1,0.1,0.1,0.1,0.2C199.7,121.5,200.2,121.6,200.8,121.7z"/>
							<path class="st3" d="M201.3,130.4c2.6,2,4.4,2.8,6.5,4.1c-0.8-1.1-1.4-2.2-1.6-3.1c-0.4-1-1.1-2.3-2.1-3.5
								c-1-0.4-2.3-1.1-3.5-1.8c0.5,0.6,0.5,0.6,1.4,0.9c-0.9-0.4-2.7-1.1-2.7-1.1c0.1,0.7,3.3,3.1,5.5,4.5
								c-1.5-0.7-3.6-1.5-5.2-2.2c0.3,0.4,0.6,0.9,1,1.3c0.5,0.4,1.1,0.9,1.6,1.2L201.3,130.4z"/>
							<path class="st3" d="M212.5,158.1c0-0.2,0-0.4,0.1-0.6c-0.5-0.5-1-1.1-1.5-1.7c0,0.6,0,1.2-0.1,1.8c0.2,0.3,0.5,0.6,0.7,1
								l-0.3,0.3c-0.2,0-0.3-0.1-0.6-0.4v0.1c0,0.4-0.1,0.7-0.1,1.1c0.1-0.1,0.2-0.3,0.3-0.4c0.2,1,0.1,2.3,0.7,2.5
								C212.4,161.4,212.4,159.6,212.5,158.1z"/>
							<path class="st5" d="M213.9,180.4c0.6-0.1,1.2-0.1,1.8,0.2c-0.3-1.4,0.5-3.8,0-5.5c1.6,0.8,2.5-2,3-5.7
								c0.2-1.8,0.4-3.9,0.6-5.5c0.2-1.7,0.4-3.1,0.7-3.8c0.6-1.9,0.7-4.6,0.1-7.4c-0.5-2.8-1.7-5.6-2.6-8c-0.9-0.6-1.1-0.1-2.4-1.5
								c0.3,0.5,0.5,1.1,0.9,1.6s0.8,1.1,1.3,1.6c0.2,0.2,0.4,0.4,0.6,0.6c-0.2-0.2-0.4-0.4-0.6-0.6c-0.7-0.8-1.4-1.6-2.3-2.6
								c0.2,0.4,0.3,0.7,0.1,0.7c-0.2-0.1-0.5-0.3-0.7-0.5c0.9,2.1,1.5,4,1.5,5.6c0.1,1.6-0.3,2.8-1.2,3.3c0.1,0.3,0.2,0.6,0.3,1
								c0.6,1.9,0.6,3.3,0.4,4.2c-0.2,0.9-0.5,1.3-1,1.3c0.4,2.5,0.7,5.5,0.6,7.8c-0.3,3.8-0.9,7-1.8,9.8c0.3,0.9,0.5,1.8,0.8,2.6
								C214,180,214,180.2,213.9,180.4z"/>
							<path class="st6" d="M108.5,206.6c-0.8,0.2-1.9,1.1-2.7,3c-0.8,1.8-1.2,4.5-0.8,7.4c0.3,2.9,1.3,6,2.6,8.7
								c0.7,1.4,1.4,2.8,2.2,4c0.7,1.2,1.6,2.5,2.5,3.8c1.8,2.7,3.9,5.5,6.6,8.2c1.3,1.4,2.9,2.7,4.5,3.9c1.7,1.2,3.5,2.3,5.4,3.2
								c7.5,3.6,15.8,4.3,23.5,3.4c-1.2-0.5-1.4-1.3-0.5-2.1c0.8-0.8,2.7-1.7,5.6-2.9c2.9-1.1,8.4-1.8,9.4-2.7
								c3.1-1.7,4.8-3.1,6.7-4.5s4-2.9,7.5-5c-1.5,0.2-2-0.6-3.6,0.1c-4.4,1-9.6,2.9-15.6,6.1c-0.9,0.5-2.4,0.5-3.1,0.3
								c-0.7-0.3-0.7-0.8,1.3-1.6c-2.7,0.6-4.9,1.2-7,1.7s-4,0.9-6.1,1c-3,0.2-4.7-0.1-5.6-0.5c-0.9-0.4-1.1-0.8-1-1.3
								c0.2-0.9,1.2-2-0.3-3.1c-0.4-0.6-1.1-1-1.9-1.5c-3.4-0.2-6.6-1-9.7-2.8c-3.2-1.7-6.2-4.3-9.1-7.1c-1.4-1.3-2.2-4.1-3.5-5.4
								c-2.1-2.7-4.4-6-5.5-9C109.2,208.8,109.2,206.3,108.5,206.6z"/>
							<path class="st7" d="M201.6,230.3c-1.7,1.7-3.6,3.3-5.7,4.9c3.7-1.6,7.3-3.3,10.8-5.1c0.7-0.9,1.4-1.8,2-2.6
								C206.1,229.1,203.6,230.1,201.6,230.3z"/>
							<path class="st7" d="M146.6,236.4c-0.8,1.6,1.9,1.6,4.4,2.5c5-1.8,8.5-2.7,12-2.3c0.1-0.4,2.3-0.9,3.1-1.5
								c-0.1,0.5,2,0.3,0.4,1.3c1.6-1,3.8-1.1,4.6-2.1c2.9-0.7-1.8,1.9,0.4,1.8c4.5-3.1,8.8-5,11.9-5.7c3-0.7,4.8-0.2,3.5,1.6
								c-0.8,1.6-3.2,3.4-4.2,5.3c-1,2-6.4,3.7-10.3,4.9c1.4,0.4,6.9-1.7,4.3,0.4c-2.7,1.8-5.7,3.7-7.5,5.2
								c4.1-1.6,8.4-3.8,12.3-5.9c3.8-2.1,7.1-4,9.3-4.9c1.7-0.7,3.4-1.3,5-2c2.1-1.5,4.1-3.2,5.7-4.9c2-0.2,4.5-1.3,7-2.9
								c0.7-1,1.3-2,1.5-2.7c0.7-1.5-1.1-0.5-3.4,0.8c-2.3,1.3-5.2,3-6.6,3.2c4.4-3.5,6.4-6.2,6.8-7.8c0.4-1.7-0.7-2.3-2.8-2
								c-2.8,0.5-5.5,1.5-9.6,3.1c-2.1,1.1-4.8,2.7-7,4.5c0.7-0.6,2.9-2.5,2.2-2.3c-2.4,1-4.3,1.4-6.4,2c-2,0.6-4.1,1.4-7.1,3.2
								c0.1-0.5-0.6-0.4,0.9-1.5c-3,2.2-2-0.6-5,1.5c-2-0.3-2.3-2.4-6.7-0.4c-1.2,0.6-2.2,1-3.1,1.2c-3,1.8-6.3,3.4-10.2,4.4
								c-2.8,0.7-5.5,1.2-8,1.4C145.3,236.1,146.4,236.1,146.6,236.4z"/>
							<path class="st8" d="M140,237.7c1.5,1.1,0.5,2.2,0.3,3.1c-0.1,0.5,0.1,0.9,1,1.3c0.9,0.4,2.7,0.7,5.6,0.5
								c2.1-0.1,4-0.5,6.1-1s4.3-1.1,7-1.7c-2.1,0.8-2.1,1.4-1.3,1.6c0.7,0.2,2.3,0.2,3.1-0.3c6-3.2,11.2-5,15.6-6.1
								c1.5-0.7,2.1,0.2,3.6-0.1c-3.5,2.1-5.6,3.6-7.5,5s-3.7,2.8-6.7,4.5c-1,1-6.5,1.6-9.4,2.7c-2.9,1.2-4.7,2.1-5.6,2.9
								c-0.8,0.8-0.7,1.6,0.5,2.1c5.5-0.6,10.7-2.1,15.6-3.8c0.4-0.2,0.9-0.3,1.3-0.5c1.8-1.5,4.8-3.4,7.5-5.2
								c2.6-2.1-2.9-0.1-4.3-0.4c3.9-1.2,9.3-2.9,10.3-4.9s3.3-3.8,4.2-5.3c1.2-1.9-0.5-2.4-3.5-1.6c-3,0.7-7.4,2.6-11.9,5.7
								c-2.1,0.2,2.6-2.5-0.4-1.8c-0.9,1-3,1.1-4.6,2.1c1.6-1-0.5-0.9-0.4-1.3c-0.8,0.5-3,1-3.1,1.5c-3.4-0.4-7,0.5-12,2.3
								c-2.5-0.9-5.3-0.9-4.4-2.5c-0.2-0.3-1.3-0.3-2.6-0.4c-2,0.2-4,0.2-5.9,0.1C138.9,236.6,139.5,237.1,140,237.7z"/>
							<path class="st9" d="M165.3,229.1c4.4-2,4.7,0.1,6.7,0.4c3-2.1,2,0.7,5-1.5c-1.5,1.1-0.8,1-0.9,1.5c3-1.7,5.1-2.5,7.1-3.2
								c2-0.6,3.9-1,6.4-2c0.7-0.2-1.4,1.7-2.2,2.3c2.2-1.8,5-3.4,7-4.5c4.1-1.6,6.8-2.6,9.6-3.1c2.1-0.3,3.2,0.3,2.8,2
								s-2.4,4.4-6.8,7.8c1.4-0.2,4.3-1.8,6.6-3.2c2.3-1.3,4.1-2.3,3.4-0.8c-0.2,0.7-0.7,1.6-1.5,2.7c3.1-1.9,6.5-4.7,9.7-8
								s6.3-7.1,8.8-10.9c-0.3-0.6-0.8-0.6-1.8,0.4c-1.9,1.8-3.3,2.5-4.4,2.9c-1,0.4-1.8,0.3-2.5,0.2c-1.4-0.3-2.5-0.7-5.9,1
								c-1.3,0.7-4.6,3-5.3,3.3c-3.4,0.9-1.7-2.7-5-1.9c0-0.4-3.9,3.3-4.6,3c-2,0.2-2.1-1.6-5.4,0.2c-4.6,2.4-7.9,3.4-10.7,3.7
								c-2.7,0.4-4.9,0.2-7.2,0.2c-4,3.1-7.6,6.1-12.1,8.8C163.1,230,164.1,229.7,165.3,229.1z"/>
							<path class="st10" d="M236,143.4c-1.8-3.1-3.5-5.7-5.3-8c3.6,5.8,5.1,11.3,5.3,15.2c0.2,4-0.4,6.5-1.2,8.7
								c-0.1,0.3,0,1.7,0.1,3.3c0.2,1.6,0.4,3.7,0.6,5.8c0.4,4.2,0.4,9.1-0.6,10.3c-0.8-0.6-1.4-3.8-2-7.5c-0.2,3.6-0.8,6.4-1.6,8.6
								c-0.8,2.2-1.7,3.9-2.7,5.3c-1,1.4-2,2.7-3.2,4.1c-1.1,1.4-2.4,2.9-3.9,4.9s-3.3,3.6-5,4.9c-1.8,1.3-3.5,2.2-5.2,2.9
								c-3.3,1.3-6.1,1.4-7.6,0.4c-0.6-0.5-2.1,0.1-4.1,1.1c-1,0.5-2.1,1.1-3.2,1.7c-1.2,0.6-2.4,1.2-3.6,1.7
								c-1.3,1.5-2.7,3-4.2,4.5c2.9-0.9,5.4-1.6,6.5-1.2c1.7,0.8,3.8,1.1,6.6,0.4c2.8-0.7,6.3-2.3,10.7-5.6c1.4-1.1,2.3-0.7,3-0.1
								c0.7,0.5,1.3,1.3,2.2,0.7c3.8-2.2,6.7-4.1,9.4-6.2c2.7-2.1,5.2-4.2,7.6-7.2c1.1-1.1,2.8-3.9,4-7.5c0.6-6.4-0.1-12.1-0.3-17.2
								c-1-7-0.6-10.4-0.2-12.9c0.2-1.3,0.4-2.5,0.3-4.1C238.3,148.8,237.7,146.6,236,143.4z"/>
							<path class="st11" d="M192.3,217.6c3.3-1.9,3.4-0.1,5.4-0.2c0.7,0.3,4.6-3.4,4.6-3c3.4-0.8,1.6,2.7,5,1.9
								c0.7-0.3,4-2.6,5.3-3.3c3.3-1.6,4.5-1.2,5.9-1c0.7,0.1,1.4,0.2,2.5-0.2s2.4-1.1,4.4-2.9c1-1,1.5-0.9,1.8-0.4c0,0,0,0,0-0.1
								c0,0.9,0.9,0.2,1.8-0.9c0.9-1.1,1.9-2.7,2.3-3.4c1.9-3.2,3-5.7,4.1-8c0.5-1.2,1-2.3,1.5-3.6s0.9-2.6,1.3-4.2
								c0.2-1.2,0.4-2.4,0.5-3.6c-1.2,3.6-2.9,6.4-4,7.5c-2.4,3-4.9,5.1-7.6,7.2c-2.7,2-5.7,4-9.4,6.2c-0.9,0.6-1.5-0.1-2.2-0.7
								c-0.7-0.6-1.5-1-3,0.1c-4.3,3.4-7.9,4.9-10.7,5.6c-2.8,0.7-4.8,0.4-6.6-0.4c-1.1-0.4-3.6,0.3-6.5,1.2
								c-1.2,1.2-2.5,2.4-3.7,3.4c-0.6,0.6-1.6,1-2.4,1.3c-0.8,0.3-1.5,0.4-1.5,0.4c-2.5,1.7-4.6,3.4-6.7,4.9c2.3,0,4.5,0.2,7.2-0.2
								C184.4,220.9,187.7,220,192.3,217.6z"/>
							<path class="st12" d="M224.3,128.1c-1.3-1-2.8-2.1-4-3c-1.8-1.3-2.4-1.9-2.8-2.4c-0.4-0.5-0.5-0.9-1.3-1.5l0.5,0.7l-1-0.8
								c1,1.8,1.5,3.3,0.7,4c2,1.5,3.6,3.1,4,4.1c1.4,3.4,2,6.3,3.4,10.4c0.3,1,0.7,2.1,1.1,3.3c0.4,1.2,0.8,2.5,1.2,4
								c0.2,0.7,0.4,1.5,0.6,2.3c0.2,0.8,0.4,1.7,0.6,2.6c0.4,1.8,0.7,3.8,0.9,5.9c0.4,3.4-0.8,3.2-2,3.5c-1.2,0.2-2.3,0.8-2.5,5.4
								c-0.1,1.5,0.1,3.7,0.1,5.7c0,1.9-0.2,3.6-0.8,4c-0.8,0.3-1.7-0.5-2.5-0.8c-0.8-0.2-1.4,0.2-1.8,2.9c-0.4,3.3-1.3,6.1-2.5,8.2
								c-1.2,2.1-2.7,3.8-4.3,5c-1.5,1.2-3.2,2-4.6,2.4c-1.4,0.4-2.7,0.4-3.6,0c-1.5,1.5-3.1,3.4-4.9,5.6c-1.8,2.2-3.8,4.7-6,7.2
								c1.2-0.5,2.4-1.1,3.6-1.7c1.2-0.6,2.2-1.2,3.2-1.7c1.9-1,3.4-1.6,4.1-1.1c1.5,1,4.3,0.9,7.6-0.4c1.7-0.6,3.4-1.6,5.2-2.9
								c1.8-1.3,3.5-2.9,5-4.9s2.8-3.5,3.9-4.9c1.2-1.4,2.2-2.7,3.2-4.1c1-1.4,1.9-3.1,2.7-5.3s1.3-5,1.6-8.6c0.7,3.7,1.3,6.9,2,7.5
								c1-1.2,1.1-6.1,0.6-10.3c-0.2-2.1-0.4-4.2-0.6-5.8c-0.2-1.7-0.3-3-0.1-3.3c0.8-2.2,1.5-4.8,1.2-8.7c-0.3-4-1.7-9.4-5.3-15.2
								C228.5,132.6,226.4,130.2,224.3,128.1z"/>
							<path class="st4" d="M218.7,178.4c0.4-2.7,1-3.1,1.8-2.9c0.8,0.2,1.7,1.1,2.5,0.8c0.6-0.5,0.8-2.1,0.8-4s-0.2-4.1-0.1-5.7
								c0.2-4.5,1.3-5.1,2.5-5.4c1.1-0.3,2.3-0.1,2-3.5c-0.2-2.1-0.5-4.1-0.9-5.9c-0.2-0.9-0.4-1.8-0.6-2.6
								c-0.2-0.8-0.4-1.6-0.6-2.3c-0.4-1.5-0.9-2.8-1.2-4c-0.4-1.2-0.8-2.3-1.1-3.3c-1.3-4.1-1.9-7-3.4-10.4c-0.4-1-2-2.6-4-4.1
								c-0.3,0.3-0.7,0.5-1.4,0.5c-0.5,0.1,0.5,1.4,1.9,3.1c1.3,1.6,3,3.8,3.8,5.3c0.3,2.4-3.4,0.1-7.1-1.5
								c-0.6-0.2-1.2-0.4-1.8-0.6c0-0.1-0.1-0.1-0.1-0.2c-0.5-0.2-1-0.4-1.4-0.5c0.8,1.1,1.6,2.1,2.2,3.1c0.3,0.3,0.7,0.6,1,1
								c-0.2-0.1-0.4-0.2-0.6-0.4c0.9,1.4,1.5,2.7,1.7,3.8c0.1,0.9,0.5,2,1.1,3.3c0.4,0.4,0.8,0.8,1.2,1.4c-0.4-0.5-0.7-0.7-1-0.9
								c1.1,2.3,2.5,5,3.3,7.8c0.4,1.4,0.7,2.7,0.8,4s0,2.4-0.2,3.4c-0.3,0.8-0.4,2.1-0.5,3.8c-0.1,1.6-0.3,3.5-0.5,5.4
								c-0.4,3.8-1.2,6.7-2.9,5.9c0.5,1.7-0.1,4.2,0.2,5.8c-0.6-0.3-1.2-0.3-1.8-0.1c-0.5,1.6-1,3.3-1.6,3.5
								c-0.6-0.3-0.2-1.4-0.1-2.6l-0.4,0.3l-0.1,0.4c0,0.7,0.1,1.4,0.3,1.9c0.4,0.7,0.8,1.4,1.1,2c-0.5-0.3-0.8-1.1-1.1-2
								c-0.2-0.4-0.4-0.7-0.6-1c-0.5,1.4-1.1,2.7-1.8,3.8c0,0.3,0,0.5,0,0.8c0-0.2,0-0.4-0.1-0.7c-0.1,0.2-0.2,0.3-0.3,0.5
								c0.1,1,0.1,3.1-0.5,5.6c-2.1,0.6-3.7,1.7-5.3,3.3c1,0.4,2.2,0.4,3.6,0c1.4-0.4,3-1.2,4.6-2.4s3.1-2.9,4.3-5
								C217.4,184.6,218.3,181.8,218.7,178.4z"/>
						</g>
					</g>
				</g>
			</g>
		</g>
		<g>
			<g>
				<g>
					<g class="st2">
						<g class="st2">
							<path class="st3" d="M86.3,187.8c-0.2,0.4-0.4,0.8-0.7,1.2c0.4,0.1,0.8,0.5,1.1,1c0,0.9,0.6,0.2,1.4-1.4
								c0.4-0.8,0.9-1.8,1.4-2.9c0.5-1.1,1-2.4,1.6-3.7c-0.4-0.3-1-0.1-1.7,0.8c-0.4,0.4-0.8,1.1-1.3,1.9
								C87.6,185.6,87,186.6,86.3,187.8z"/>
							<path class="st4" d="M68.1,196.6c-0.2,0.4-0.5,0.8-0.7,1.1c0.1,0,0.1,0,0.2,0C67.8,197.3,68,197,68.1,196.6z"/>
							<path class="st3" d="M76,199.1c1.2-1.1,2-2.1,2.6-3.2c0.6-1,1.1-2,1.7-3.1c-1,0.9-2.1,1.5-2.9,1.7c-1,0.3-2.2,0.9-3.4,1.5
								c-0.5,0.8-1.2,1.9-2.1,2.6c0.6-0.2,0.6-0.2,1.1-0.9c-0.2,0.4-0.6,0.9-0.9,1.3c-0.3,0.4-0.6,0.7-0.6,0.7
								c0.3,0.1,1.3-0.3,2.3-1.1s2.1-1.9,2.8-2.9c-0.7,1.3-1.8,3.2-2.9,4.5c0.5-0.2,1-0.3,1.5-0.6c0.5-0.4,1.1-0.9,1.5-1.4L76,199.1
								z"/>
							<path class="st3" d="M100.8,171.7c-0.2,0.3-0.3,0.5-0.4,0.8c0,1.1-0.1,2.4-0.3,3.7c0.5-0.9,1.1-1.7,1.6-2.6
								c0-0.6,0.1-1.4,0.2-2.1c0.1-0.1,0.3-0.1,0.4-0.2c0.1,0.1,0.2,0.4,0.2,1l0.1-0.1c0.3-0.5,0.6-1,0.9-1.6
								c-0.2,0.1-0.4,0.3-0.5,0.4c0.5-1.6,1.2-3.3,0.8-3.8C102.9,167.4,101.9,169.8,100.8,171.7z"/>
							<path class="st5" d="M108.4,145.6c-0.6,0.1-1.2-0.1-1.7-0.6c-0.1,1.9-1.6,4.4-1.7,6.4c-1.3-1.4-3,1.4-4.7,4.9s-3.5,7.7-4.8,9
								c-0.7,0.8-1.4,1.9-2.1,3.2c-0.7,1.2-1.4,2.6-2.1,4s-1.4,2.8-2.2,4.1c-0.8,1.3-1.5,2.6-2.3,3.6c-0.1,1,0.5,1-0.2,3
								c0.8-1,1.4-2.3,1.7-3.8c0.1-0.3,0.1-0.6,0.2-0.9c0,0.3-0.1,0.6-0.2,0.9c-0.2,1.1-0.6,2.2-1.1,3.5c0.2-0.4,0.4-0.7,0.5-0.5
								c0,0.3,0,0.6-0.1,0.9c3-3.8,5.5-7.5,7.6-7.1c0.2-0.4,0.4-0.9,0.5-1.3c2.2-5.2,3.3-6.8,4.2-6.3c1-3.3,2-6.7,2.9-9
								c1.6-3.7,3.3-6.7,5-9.9c0-1.2,0.1-2.3,0-3.4C108.1,146.1,108.2,145.9,108.4,145.6z"/>
							<path class="st6" d="M222.3,105.4c0-0.9-0.5-2-1.4-3.2c-0.4-0.6-0.9-1.3-1.5-2s-1.2-1.5-1.9-2.2c-1.4-1.5-3-3.3-4.8-5.1
								c-1.8-1.9-3.9-3.8-6.2-5.7c-4.6-4.1-9.6-8.6-15.9-12.5c-3.1-1.9-6.6-3.7-10.3-5.1c-3.7-1.3-7.6-2.3-11.5-2.8
								c2.1,1.8,0,2.8-6.3,3.6c-0.8,0.1-1.8,0.2-2.8,0.2c-0.5,0-1,0-1.6,0c-0.5,0-1,0-1.6,0c-2,0-3.8,0.2-4.5,0.5
								c-3.6,1.2-5.7,2.4-8,3.7c-2.3,1.3-4.6,2.7-8.3,4.8c1.5-0.2,2.1,0.6,3.7,0c1.2-0.2,2.4-0.5,3.7-0.8c1.3-0.2,2.6-0.6,4-0.9
								c2.8-0.7,5.9-1.5,9.3-2.4c0.5-0.1,1.1-0.1,1.7-0.1c0.6,0.1,1.2,0.3,1.5,0.5c0.7,0.4,0.5,0.9-1.7,1.3c1.4,0,2.7,0,4,0
								c1.2,0,2.4,0,3.5,0c2.2,0,4.3,0.1,6.4,0.5c0.8,0.1,1.4,0.3,2,0.4c0.6,0.2,1.1,0.3,1.6,0.5c0.9,0.3,1.6,0.6,2,0.9
								c0.9,0.6,1,1.1,0.8,1.5c-0.4,0.9-1.6,1.7-0.3,3.1c0.4,0.6,1,1.3,1.8,1.9c7.4,2,14.7,5.9,22,10c1.7,1,3.4,3.5,5.2,4.4
								c3.1,2,7.1,3.9,10.3,4.8c1.6,0.5,3,0.7,3.9,0.7C221.9,105.9,222.4,105.8,222.3,105.4z"/>
							<path class="st7" d="M114.2,87c0.7-1.1,1.6-2.1,2.5-3.1c0.9-1.1,2-2.1,3.1-3.1c-3.9,2.3-7.5,4.9-10.9,7.8
								c-0.5,1.1-1.1,2.2-1.6,3.3C109.7,89.5,112.1,87.7,114.2,87z"/>
							<path class="st7" d="M170.6,83.6c0.6-0.7,0.2-1.2-0.6-1.7c-0.9-0.5-2.1-1.1-3.3-1.8c-5.5,0.5-9.1,0.5-12.5-0.5
								c-0.1,0.2-0.7,0.3-1.4,0.4s-1.5,0.3-1.9,0.4c0.2-0.4-2-0.7-0.2-1.4c-0.4,0.2-0.9,0.3-1.4,0.4s-0.9,0.2-1.4,0.3
								c-0.9,0.2-1.7,0.4-2.2,0.8c-3.1,0.5,2-1.8-0.2-1.8c-4.9,2.6-9.4,4.5-12.5,5.5c-1.6,0.4-2.8,0.6-3.5,0.4s-0.9-0.8-0.3-1.8
								c0.8-1.7,3.3-3.7,4.5-5.7c0.3-0.5,0.9-1,1.7-1.5s1.8-1,2.9-1.3c2.2-0.8,4.8-1.4,7-1.8c-1.5-0.6-7.7,1.2-4.6-0.8
								c3.2-1.7,6.9-3.2,9.2-4.5c-4.9,1-10.1,2.9-14.5,5s-8.1,4.5-10.4,5.7c-0.9,0.4-1.8,0.9-2.7,1.4c-0.9,0.5-1.8,0.9-2.6,1.5
								c-1.1,1-2.1,2-3.1,3.1c-1,1-1.8,2.1-2.5,3.1c-2.1,0.7-4.5,2.4-6.8,4.8c-0.5,1.3-0.9,2.4-0.9,3.2c-0.4,1.7,1.2,0.2,3.3-1.8
								c2.1-2,4.8-4.4,6.3-4.9c-4,4.5-5.4,7.9-5.5,9.7c-0.1,1.8,1.2,2.1,3.2,1.2c2.6-1.3,5.1-2.9,9-5.3c1.9-1.4,4.4-3.5,6.5-5.5
								c-0.3,0.4-1,1-1.5,1.6c-0.5,0.6-0.8,1.1-0.4,0.9c2.3-1.4,4.2-1.9,6.2-2.6c1-0.3,2-0.7,3.1-1.2s2.4-1.1,3.9-1.9
								c-0.1,0.5,0.6,0.4-0.9,1.4c3-2,1.9,0.7,4.9-1.2c1,0.2,1.5,0.9,2.3,1.3c0.4,0.2,0.9,0.3,1.5,0.3s1.5-0.1,2.5-0.4
								c1.2-0.4,2.2-0.6,3-0.7c3.1-1.2,6.6-2.1,10.8-2c3,0,5.8,0.3,8.6,0.7c-0.3-0.1-0.7-0.2-0.9-0.3c-0.3-0.1-0.6-0.1-0.8-0.2
								C171,83.9,170.7,83.8,170.6,83.6z"/>
							<path class="st8" d="M177.8,84c-1.4-1.4-0.1-2.2,0.3-3.1c0.2-0.4,0.1-0.9-0.8-1.5c-0.4-0.3-1.1-0.6-2-0.9
								c-0.5-0.2-1-0.3-1.6-0.5c-0.6-0.1-1.3-0.3-2-0.4c-2.1-0.4-4.2-0.5-6.4-0.5c-1.1-0.1-2.3,0-3.5,0s-2.5,0-4,0
								c2.3-0.4,2.4-0.9,1.7-1.3c-0.3-0.2-0.9-0.4-1.5-0.5s-1.2-0.1-1.7,0.1c-3.4,0.9-6.5,1.7-9.3,2.4c-1.4,0.3-2.7,0.7-4,0.9
								c-1.3,0.3-2.5,0.6-3.7,0.8c-1.6,0.7-2.2-0.2-3.7,0c3.7-2.1,6.1-3.5,8.3-4.8s4.3-2.5,8-3.7c0.6-0.4,2.4-0.5,4.5-0.5
								c0.5,0,1,0,1.6,0c0.5,0,1.1,0,1.6,0c1,0,2-0.1,2.8-0.2c6.4-0.8,8.4-1.9,6.3-3.6c-5.6-0.7-11.3-0.6-17.1,0.2
								c-0.5,0.1-1.1,0.2-1.6,0.3c-2.3,1.3-6,2.8-9.2,4.5c-3.1,2,3.2,0.2,4.6,0.8c-2.2,0.4-4.8,1-7,1.8c-1.1,0.4-2.1,0.9-2.9,1.3
								c-0.8,0.5-1.4,1-1.7,1.5c-1.2,2-3.7,4-4.5,5.7c-0.6,1-0.4,1.6,0.3,1.8c0.7,0.2,1.9,0,3.5-0.4c3.1-0.9,7.5-2.8,12.5-5.5
								c2.2,0-2.9,2.3,0.2,1.8c0.5-0.5,1.3-0.6,2.2-0.8c0.4-0.1,0.9-0.2,1.4-0.3c0.5-0.1,0.9-0.2,1.4-0.4c-1.8,0.7,0.4,0.9,0.2,1.4
								c0.4-0.2,1.2-0.3,1.9-0.4s1.3-0.2,1.4-0.4c3.3,1,7,1,12.5,0.5c1.1,0.7,2.4,1.3,3.3,1.8c0.8,0.6,1.2,1.1,0.6,1.7
								c0.1,0.2,0.4,0.3,0.9,0.5c0.2,0.1,0.5,0.1,0.8,0.2s0.6,0.2,0.9,0.3c0.5,0.1,1.1,0.2,1.6,0.2c0.5,0.1,1.1,0.2,1.6,0.3
								c1.1,0.2,2.1,0.5,3.2,0.8C178.8,85.3,178.2,84.7,177.8,84z"/>
							<path class="st9" d="M150.8,86.6c-1.1,0.3-1.9,0.5-2.5,0.4c-0.6,0-1.1-0.1-1.5-0.3c-0.8-0.4-1.3-1.1-2.3-1.3
								c-3,1.9-1.9-0.8-4.9,1.2c1.5-1,0.8-1,0.9-1.4c-1.5,0.8-2.7,1.5-3.9,1.9c-1.1,0.5-2.1,0.9-3.1,1.2c-1.9,0.7-3.9,1.3-6.2,2.6
								c-0.3,0.1,0-0.3,0.4-0.9c0.5-0.6,1.2-1.3,1.5-1.6c-2.1,2-4.6,4.1-6.5,5.5c-3.9,2.4-6.4,4-9,5.3c-2,0.8-3.3,0.6-3.2-1.2
								c0.1-1.7,1.5-5.1,5.5-9.7c-1.5,0.5-4.2,2.9-6.3,4.9c-2.1,2-3.7,3.5-3.3,1.8c0-0.7,0.4-1.9,0.9-3.2c-2.8,2.9-5.6,6.9-7.8,11.1
								c-2.3,4.2-4.1,8.7-5.6,12.7c0.4,0.5,0.9,0.4,1.6-0.8c1.4-2.1,2.6-3.2,3.5-3.8c0.9-0.6,1.6-0.8,2.3-0.8
								c1.4-0.1,2.6-0.1,5.4-2.7c0.6-0.5,1.5-1.6,2.3-2.6c0.9-1,1.7-1.9,2-2.2c1.6-0.9,2.2-0.4,2.7,0.2c0.6,0.6,1.1,1.1,2.7,0.3
								c0.1,0.2,0.8-0.8,1.6-1.9c0.8-1.1,1.8-2.1,2.2-2.1c1-0.3,1.6,0,2.3,0.1s1.5-0.1,3-1.3c4-3.1,7.2-4.3,9.8-4.8s4.6-0.2,6.7-0.1
								c3.6-2.8,7.1-5.3,11.7-7.2C153,86,152.1,86.2,150.8,86.6z"/>
							<path class="st10" d="M73.2,168.7c-0.4,2.1-0.9,3.9-1.5,5.6c1-1.9,1.9-3.5,2.7-5c0.9-1.5,1.7-2.8,2.5-3.9
								c0.8-1.1,1.6-2.1,2.3-3c0.8-0.9,1.5-1.6,2.3-2.4c0.5-0.4,1.4-4.3,2.5-8.4c1-4.1,2.3-8.3,3.5-9.1c0.6,0.7,0.4,3.7-0.1,7.4
								c2.7-6.5,5.1-9.6,7.4-12.1s4.5-4.6,7.2-9.2c1.3-2.3,2.8-4.4,4.3-6.2c1.5-1.8,3-3.3,4.5-4.4c3-2.3,5.6-3.3,7.4-2.7
								c0.7,0.3,2-0.8,3.6-2.3c1.6-1.5,3.6-3.3,5.5-4.8c0.9-1.6,1.8-3.3,2.8-4.8c-1.3,0.6-2.4,1.2-3.4,1.6s-1.8,0.7-2.4,0.6
								c-1.8-0.4-3.9-0.3-6.4,1.1s-5.5,4-8.9,8.6c-2.3,3-3.6-0.7-5.2,0.9c-1.5,1.6-3,3-4.3,4.3s-2.5,2.5-3.7,3.6
								c-1.1,1.1-2.3,2.2-3.4,3.3c-1.1,1.1-2.2,2.2-3.4,3.4c-1.1,0.9-2.7,3.1-4.3,5.8c-1.4,5.1-2.3,10.2-3.8,14.9
								c-1.4,7.1-2.9,9.1-4.4,10.6C75.3,163.7,74.1,164.6,73.2,168.7z"/>
							<path class="st11" d="M125.6,98c-1.5,1.1-2.2,1.4-3,1.3c-0.7-0.1-1.3-0.4-2.3-0.1c-0.4,0-1.3,1-2.2,2.1
								c-0.8,1.1-1.6,2.1-1.6,1.9c-1.5,0.8-2.1,0.3-2.7-0.3c-0.6-0.5-1.1-1.1-2.7-0.2c-0.3,0.2-1.1,1.2-2,2.2
								c-0.8,1-1.8,2.1-2.3,2.6c-2.8,2.6-4,2.5-5.4,2.7c-0.7,0.1-1.4,0.2-2.3,0.8c-0.9,0.6-2,1.8-3.5,3.8c-0.7,1.1-1.2,1.2-1.6,0.8
								c0,0,0,0,0,0.1c-0.3-0.8-0.9,0-1.5,1.2s-1.2,2.8-1.4,3.4c-0.6,1.6-1.1,2.9-1.5,4.1c-0.5,1.2-0.9,2.2-1.3,3.2
								c-0.4,1-0.8,1.9-1.2,2.9c-0.4,1-0.8,2.1-1.3,3.3c-0.3,1-0.6,1.9-0.8,2.9c1.7-2.7,3.3-4.9,4.3-5.8c1.2-1.2,2.3-2.3,3.4-3.4
								s2.3-2.2,3.4-3.3c1.2-1.1,2.4-2.3,3.7-3.6c1.3-1.3,2.7-2.8,4.3-4.3c1.5-1.6,2.9,2.1,5.2-0.9c3.4-4.6,6.4-7.2,8.9-8.6
								s4.6-1.5,6.4-1.1c0.6,0.1,1.5-0.2,2.4-0.6c1-0.4,2.2-1,3.4-1.6c0.9-1.3,1.8-2.5,2.8-3.7c0.5-0.6,1.3-1.1,2.1-1.4
								c0.7-0.3,1.3-0.5,1.3-0.5c2.1-1.7,3.8-3.3,5.7-4.7c-2.1-0.1-4.1-0.4-6.7,0.1C132.8,93.7,129.7,94.8,125.6,98z"/>
							<path class="st12" d="M69.4,179.9c-0.3,1-0.6,2.2-1,3c-0.5,1.2-0.8,1.6-1.2,1.8c-0.3,0.2-0.6,0.3-0.9,0.7l0.4-0.3l-0.4,0.6
								c1.3-0.4,2.4-0.6,3.3,0c0.8-1.4,1.6-2.6,2.3-3.1c1.2-0.8,2.4-1.4,3.6-2.2c1.2-0.7,2.4-1.6,3.6-2.8c2.5-2.4,5.2-6.2,7.9-13.7
								c1.1-3,2-2.5,3.2-2.3s2.5,0.1,4.3-4.3c1.2-2.9,2.5-8.8,3.8-9.4c1.7-0.2,2.4,4.7,4.8-1.1c2.8-7.3,5.9-13.3,9-17.3
								s6.1-5.9,8.2-5.8c2.6-4.4,4.4-10.1,7.2-15.6c-1.9,1.4-3.9,3.3-5.5,4.8c-1.6,1.5-2.9,2.6-3.6,2.3c-1.8-0.5-4.4,0.4-7.4,2.7
								c-1.5,1.2-3,2.7-4.5,4.4c-1.5,1.8-3,3.9-4.3,6.2c-2.7,4.6-4.9,6.7-7.2,9.2c-2.3,2.5-4.7,5.6-7.4,12.1
								c0.5-3.6,0.7-6.6,0.1-7.4c-1.2,0.8-2.5,5.1-3.5,9.1c-1,4.1-1.9,8-2.5,8.4c-0.8,0.7-1.5,1.5-2.3,2.4s-1.5,1.9-2.3,3
								s-1.6,2.4-2.5,3.9c-0.8,1.5-1.8,3.1-2.7,5C71,176.3,70.3,178.2,69.4,179.9z"/>
							<path class="st4" d="M103.1,146.9c-2.3,5.8-3.1,0.8-4.8,1.1c-1.4,0.6-2.7,6.5-3.8,9.4c-1.8,4.4-3.1,4.5-4.3,4.3
								c-1.2-0.2-2.1-0.7-3.2,2.3c-2.7,7.5-5.5,11.3-7.9,13.7c-1.3,1.2-2.4,2.1-3.6,2.8s-2.4,1.4-3.6,2.2c-0.7,0.4-1.5,1.7-2.3,3.1
								c0.3,0.2,0.6,0.6,0.8,1.1c0.2,0.4,1.2-0.3,2.2-1.4c0.5-0.6,1.1-1.2,1.7-1.9c0.5-0.7,1.1-1.4,1.5-1.9c1-0.4,1.4,0.2,1.5,1.5
								c0.1,1.2,0,3-0.3,4.6c0,0.5-0.1,1.1-0.1,1.6c-0.1,0-0.1,0.1-0.2,0.1c-0.1,0.4-0.2,0.9-0.2,1.3c0.9-0.8,1.7-1.6,2.5-2.3
								c0.2-0.4,0.4-0.7,0.6-1.1c-0.1,0.2-0.1,0.4-0.2,0.6c1.1-1,2.1-2,3.1-2.5c0.8-0.4,1.7-1.2,2.6-2.3c0.2-0.6,0.4-1.1,0.6-1.7
								c-0.2,0.6-0.3,1-0.3,1.3c1.6-2,3.1-4.8,4.6-7.6c1.5-2.7,2.9-5.4,4.3-7.1c0.6-0.6,1.4-2,2.3-3.6c0.8-1.7,1.7-3.5,2.6-5.3
								c1.8-3.5,3.5-6.3,4.8-5c0.1-2,1.6-4.5,1.7-6.5c0.5,0.5,1.1,0.7,1.7,0.6c1-1.8,2-4,2.6-4.2c0.5,0.5-0.2,1.9-0.7,3.5l0.5-0.3
								l0.3-0.5c0.2-0.9,0.3-1.9,0.3-2.7c-0.2-1-0.4-2.2-0.5-3.1c0.4,0.4,0.6,1.7,0.5,3.1c0.1,0.5,0.2,1,0.4,1.5
								c1-1.8,1.9-3.8,2.9-5.9c0.1-0.5,0.1-0.9,0.1-1.4c0,0.4-0.1,0.8-0.1,1.2c0.1-0.3,0.3-0.6,0.4-0.9c0.1-0.9,0.2-2.2,0.4-3.8
								c0.2-1.5,0.4-3.3,0.7-5c2.2-1.6,3.7-3.6,5.1-6c-2.1-0.1-5,1.8-8.2,5.8C109,133.5,105.9,139.6,103.1,146.9z"/>
						</g>
					</g>
				</g>
			</g>
		</g>
		<g>
			<g>
				<g>
					<g class="st2">
						<g class="st2">
							<path class="st3" d="M190.4,121.9c0.2-0.4,0.4-0.8,0.6-1.2c-0.4-0.1-0.8-0.4-1.2-1c0-0.9-0.6-0.2-1.3,1.4
								c-0.4,0.8-0.8,1.8-1.3,3c-0.4,1.1-0.9,2.4-1.4,3.7c0.4,0.3,1,0,1.7-0.9c0.4-0.5,0.8-1.1,1.2-1.9
								C189.3,124.2,189.8,123.1,190.4,121.9z"/>
							<path class="st4" d="M208.1,112.2c0.2-0.4,0.5-0.8,0.7-1.2c-0.1,0-0.1,0-0.2,0C208.4,111.4,208.2,111.8,208.1,112.2z"/>
							<path class="st3" d="M200.1,110c-1.1,1.1-1.9,2.2-2.5,3.3c-0.6,1.1-1,2.1-1.5,3.2c1-1,2-1.6,2.8-1.8c1-0.4,2.1-1,3.4-1.7
								c0.4-0.8,1.1-1.9,2-2.7c-0.6,0.3-0.6,0.3-1,1c0.2-0.4,0.6-0.9,0.9-1.3c0.3-0.4,0.6-0.8,0.6-0.8c-0.3-0.1-1.2,0.4-2.2,1.2
								c-1,0.8-2,2-2.6,3c0.6-1.4,1.6-3.2,2.7-4.7c-0.5,0.2-1,0.4-1.5,0.7c-0.5,0.4-1,1-1.4,1.4L200.1,110z"/>
							<path class="st3" d="M176.8,138.7c0.1-0.3,0.3-0.5,0.4-0.8c0-1.1,0-2.4,0.1-3.7c-0.5,0.9-1,1.8-1.4,2.7c0,0.6,0,1.4-0.1,2.1
								c-0.1,0.1-0.2,0.1-0.4,0.2c-0.1-0.1-0.2-0.3-0.2-1l-0.1,0.1c-0.3,0.5-0.5,1.1-0.8,1.6c0.2-0.1,0.3-0.3,0.5-0.4
								c-0.4,1.7-1.1,3.3-0.6,3.8C174.9,143.1,175.8,140.7,176.8,138.7z"/>
							<path class="st5" d="M170.5,165.1c0.6-0.1,1.2,0.1,1.7,0.6c0-1.9,1.4-4.5,1.4-6.5c1.3,1.3,2.9-1.6,4.5-5.2
								c1.6-3.6,3.1-7.9,4.3-9.2c0.7-0.9,1.3-2,1.9-3.3c0.6-1.3,1.3-2.7,1.9-4.1c0.7-1.4,1.3-2.9,2-4.2c0.7-1.4,1.4-2.6,2.1-3.7
								c0-1-0.5-1,0-3c-0.7,1-1.3,2.3-1.5,3.9c0,0.3-0.1,0.6-0.1,0.9c0-0.3,0.1-0.6,0.1-0.9c0.2-1.2,0.5-2.2,0.9-3.6
								c-0.2,0.4-0.4,0.7-0.5,0.5c0-0.3,0-0.6,0.1-0.9c-2.8,4-5.1,7.8-7.2,7.5c-0.2,0.4-0.3,0.9-0.5,1.3c-1.9,5.3-3,6.9-3.9,6.5
								c-0.8,3.3-1.6,6.8-2.4,9.1c-1.4,3.7-3,6.9-4.5,10.1c0,1.2,0.1,2.3,0.2,3.4C170.8,164.6,170.6,164.8,170.5,165.1z"/>
							<path class="st6" d="M58.8,211.1c0,0.9,0.6,2,1.5,3.1c0.5,0.6,1,1.3,1.6,1.9c0.6,0.6,1.3,1.4,2,2.1c1.5,1.5,3.2,3.2,5.1,4.9
								c1.9,1.8,4.1,3.6,6.5,5.4c4.9,3.8,10.1,8.1,16.5,11.7c3.2,1.8,6.7,3.4,10.6,4.6c3.8,1.1,7.7,1.9,11.7,2.2
								c-2.2-1.6-0.2-2.8,6.1-4c0.8-0.1,1.8-0.2,2.8-0.3c0.5,0,1,0,1.6-0.1c0.5,0,1-0.1,1.6-0.1c2-0.1,3.8-0.4,4.4-0.8
								c3.6-1.4,5.6-2.7,7.8-4.1c2.2-1.4,4.5-2.9,8.1-5.2c-1.5,0.3-2.2-0.5-3.7,0.2c-1.2,0.3-2.4,0.6-3.6,0.9
								c-1.3,0.3-2.6,0.8-4,1.1c-2.8,0.9-5.8,1.8-9.2,2.9c-0.5,0.2-1.1,0.2-1.7,0.2c-0.6,0-1.2-0.2-1.5-0.4
								c-0.7-0.4-0.6-0.9,1.7-1.4c-1.4,0.1-2.7,0.1-4,0.2c-1.2,0-2.4,0.2-3.5,0.2c-2.2,0.1-4.3,0.1-6.4-0.2c-0.8-0.1-1.4-0.2-2-0.3
								s-1.1-0.3-1.6-0.4c-0.9-0.3-1.6-0.5-2-0.8c-0.9-0.6-1-1-0.9-1.5c0.3-0.9,1.5-1.8,0.1-3.1c-0.4-0.6-1-1.3-1.9-1.8
								c-7.5-1.6-14.9-5.1-22.5-8.9c-1.8-0.9-3.6-3.3-5.4-4.1c-3.2-1.8-7.3-3.6-10.5-4.3c-1.6-0.4-3-0.5-3.9-0.5
								C59.2,210.6,58.7,210.8,58.8,211.1z"/>
							<path class="st7" d="M167.7,223.9c-0.7,1.1-1.5,2.2-2.4,3.3s-1.9,2.2-2.9,3.2c3.7-2.5,7.2-5.3,10.4-8.3
								c0.5-1.1,1-2.3,1.4-3.4C172,221.2,169.8,223.1,167.7,223.9z"/>
							<path class="st7" d="M111.6,230.3c-0.6,0.7-0.2,1.2,0.7,1.7c0.9,0.4,2.2,1,3.3,1.7c5.5-0.8,9.1-1,12.5-0.1
								c0.1-0.2,0.7-0.4,1.4-0.5c0.7-0.2,1.5-0.4,1.9-0.5c-0.2,0.4,2,0.6,0.3,1.4c0.4-0.2,0.9-0.3,1.4-0.5c0.5-0.1,0.9-0.3,1.4-0.4
								c0.9-0.2,1.7-0.4,2.1-0.9c3-0.6-1.9,1.9,0.3,1.8c4.8-2.9,9.1-5,12.2-6.1c1.5-0.5,2.7-0.8,3.4-0.6s0.9,0.8,0.4,1.8
								c-0.7,1.7-3.1,3.8-4.2,5.9c-0.3,0.5-0.8,1.1-1.6,1.6s-1.7,1.1-2.8,1.5c-2.2,0.9-4.7,1.6-6.9,2.2c1.5,0.5,7.7-1.6,4.7,0.5
								c-3.1,1.8-6.7,3.6-8.9,4.9c4.8-1.2,9.9-3.4,14.2-5.8c4.3-2.3,7.9-4.9,10.1-6.2c0.9-0.5,1.8-1,2.6-1.5c0.9-0.5,1.7-1,2.6-1.6
								c1-1.1,2-2.1,2.9-3.2c0.9-1.1,1.7-2.2,2.4-3.3c2.1-0.8,4.3-2.7,6.6-5.2c0.5-1.3,0.8-2.5,0.8-3.2c0.3-1.7-1.2-0.1-3.2,2
								s-4.6,4.7-6.1,5.2c3.8-4.7,5-8.2,5-9.9c0-1.8-1.3-2-3.3-1.1c-2.6,1.4-5,3.1-8.7,5.7c-1.8,1.5-4.2,3.7-6.2,5.8
								c0.3-0.4,1-1.1,1.4-1.7c0.4-0.6,0.7-1.1,0.4-1c-2.2,1.5-4.1,2.1-6,2.9c-1,0.4-2,0.8-3,1.4c-1.1,0.5-2.3,1.3-3.8,2.1
								c0-0.5-0.6-0.4,0.8-1.5c-2.9,2.2-1.9-0.6-4.8,1.4c-1-0.1-1.5-0.8-2.4-1.2c-0.4-0.2-0.9-0.3-1.5-0.3s-1.5,0.2-2.5,0.6
								c-1.2,0.4-2.1,0.7-3,0.8c-3,1.4-6.5,2.4-10.7,2.5c-3,0.1-5.8,0-8.6-0.2c0.3,0.1,0.7,0.2,1,0.2c0.3,0.1,0.6,0.1,0.8,0.2
								C111.2,229.9,111.5,230.1,111.6,230.3z"/>
							<path class="st8" d="M104.3,230.2c1.4,1.3,0.2,2.2-0.1,3.1c-0.1,0.4,0,0.9,0.9,1.5c0.4,0.3,1.1,0.5,2,0.8
								c0.5,0.1,1,0.3,1.6,0.4c0.6,0.1,1.3,0.2,2,0.3c2.1,0.3,4.2,0.3,6.4,0.2c1.1,0,2.3-0.1,3.5-0.2c1.2-0.1,2.5-0.2,4-0.2
								c-2.2,0.5-2.4,1-1.7,1.4c0.4,0.2,0.9,0.3,1.5,0.4c0.6,0,1.2,0,1.7-0.2c3.4-1.1,6.4-2,9.2-2.9c1.4-0.4,2.7-0.8,4-1.1
								s2.5-0.7,3.6-0.9c1.6-0.7,2.2,0.1,3.7-0.2c-3.6,2.3-5.9,3.8-8.1,5.2c-2.2,1.4-4.2,2.7-7.8,4.1c-0.6,0.4-2.4,0.7-4.4,0.8
								c-0.5,0-1,0.1-1.6,0.1c-0.5,0-1.1,0-1.6,0.1c-1,0.1-2,0.2-2.8,0.3c-6.3,1.1-8.3,2.3-6.1,4c5.6,0.4,11.4,0.1,17.1-1.1
								c0.5-0.1,1-0.2,1.6-0.4c2.2-1.4,5.9-3.1,8.9-4.9c3-2.2-3.2,0-4.7-0.5c2.2-0.5,4.8-1.2,6.9-2.2c1.1-0.4,2.1-1,2.8-1.5
								c0.8-0.5,1.3-1,1.6-1.6c1.1-2.1,3.5-4.2,4.2-5.9c0.6-1,0.3-1.6-0.4-1.8s-1.9,0.1-3.4,0.6c-3.1,1.1-7.4,3.2-12.2,6.1
								c-2.2,0.1,2.7-2.4-0.3-1.8c-0.5,0.5-1.3,0.7-2.1,0.9c-0.4,0.1-0.9,0.2-1.4,0.4c-0.5,0.1-0.9,0.3-1.4,0.5
								c1.7-0.8-0.4-0.9-0.3-1.4c-0.4,0.2-1.2,0.4-1.9,0.5s-1.3,0.3-1.4,0.5c-3.4-0.9-7-0.6-12.5,0.1c-1.2-0.7-2.5-1.2-3.3-1.7
								c-0.9-0.5-1.3-1-0.7-1.7c-0.1-0.2-0.4-0.3-0.9-0.4c-0.2-0.1-0.5-0.1-0.8-0.2c-0.3-0.1-0.6-0.2-1-0.2c-0.5,0-1.1-0.1-1.6-0.1
								c-0.5-0.1-1.1-0.2-1.6-0.2c-1.1-0.1-2.1-0.4-3.2-0.6C103.3,229,103.9,229.6,104.3,230.2z"/>
							<path class="st9" d="M131.1,226.2c1.1-0.4,1.9-0.5,2.5-0.6c0.6,0,1.1,0.1,1.5,0.3c0.8,0.4,1.4,1,2.4,1.2
								c2.9-2,1.9,0.7,4.8-1.4c-1.4,1.1-0.8,1-0.8,1.5c1.5-0.9,2.6-1.6,3.8-2.1c1.1-0.6,2.1-1,3-1.4c1.9-0.8,3.8-1.5,6-2.9
								c0.3-0.1,0,0.3-0.4,1c-0.5,0.6-1.1,1.3-1.4,1.7c2-2.1,4.4-4.3,6.2-5.8c3.7-2.6,6.2-4.3,8.7-5.7c2-0.9,3.2-0.7,3.3,1.1
								c0,1.8-1.2,5.2-5,9.9c1.5-0.6,4.1-3.1,6.1-5.2c2-2.1,3.5-3.7,3.2-2c0,0.7-0.3,1.9-0.8,3.2c2.7-3.1,5.2-7.1,7.3-11.5
								c2.1-4.3,3.6-8.9,4.9-13c-0.4-0.4-0.9-0.3-1.6,0.8c-1.3,2.2-2.4,3.3-3.3,4c-0.9,0.7-1.6,0.8-2.3,1c-1.4,0.2-2.6,0.2-5.3,2.9
								c-0.5,0.5-1.4,1.7-2.2,2.8c-0.8,1-1.6,2-1.9,2.3c-1.6,1-2.1,0.5-2.7-0.1c-0.6-0.5-1.2-1-2.7-0.1c-0.1-0.2-0.8,0.9-1.6,2
								s-1.7,2.2-2.1,2.2c-1,0.4-1.6,0.1-2.3,0.1s-1.5,0.2-2.9,1.4c-3.9,3.3-7,4.6-9.5,5.2c-2.6,0.6-4.6,0.5-6.7,0.4
								c-3.4,3-6.9,5.7-11.3,7.8C129,226.9,129.9,226.7,131.1,226.2z"/>
							<path class="st10" d="M204.5,140.3c0.3-2.1,0.7-3.9,1.2-5.7c-0.9,1.9-1.7,3.6-2.5,5.1s-1.5,2.8-2.3,4
								c-0.7,1.2-1.4,2.2-2.2,3.1c-0.7,0.9-1.5,1.7-2.2,2.5c-0.5,0.5-1.2,4.4-2,8.5s-1.9,8.4-3.1,9.3c-0.7-0.7-0.6-3.7-0.3-7.4
								c-2.3,6.7-4.6,9.8-6.8,12.5c-2.2,2.6-4.3,4.8-6.7,9.5c-1.2,2.4-2.6,4.5-4,6.4s-2.9,3.4-4.3,4.7c-2.8,2.5-5.5,3.6-7.2,3.1
								c-0.7-0.2-2,0.9-3.5,2.5s-3.4,3.5-5.2,5c-0.8,1.7-1.6,3.4-2.6,5c1.2-0.6,2.3-1.3,3.3-1.8s1.8-0.8,2.4-0.7
								c1.8,0.3,3.9,0.1,6.3-1.4c2.4-1.5,5.3-4.3,8.4-9.1c2.1-3.1,3.7,0.5,5.1-1.2c1.5-1.6,2.8-3.1,4-4.5s2.4-2.6,3.5-3.8
								s2.1-2.3,3.2-3.5c1.1-1.2,2.1-2.3,3.2-3.6c1-1,2.5-3.2,4-6c1.1-5.2,1.8-10.3,3-15.1c1-7.1,2.5-9.3,3.8-10.8
								C202.6,145.4,203.8,144.4,204.5,140.3z"/>
							<path class="st11" d="M155.7,213.6c1.4-1.2,2.2-1.5,2.9-1.4c0.7,0,1.3,0.3,2.3-0.1c0.4,0,1.3-1.1,2.1-2.2
								c0.8-1.1,1.5-2.2,1.6-2c1.5-0.9,2.1-0.4,2.7,0.1c0.6,0.5,1.2,1.1,2.7,0.1c0.3-0.3,1-1.2,1.9-2.3c0.8-1.1,1.7-2.2,2.2-2.8
								c2.7-2.8,3.9-2.8,5.3-2.9c0.7-0.1,1.4-0.3,2.3-1c0.9-0.7,2-1.9,3.3-4c0.6-1.2,1.1-1.3,1.6-0.8c0,0,0,0,0-0.1
								c0.3,0.8,0.9,0,1.5-1.3c0.6-1.2,1-2.8,1.2-3.5c0.5-1.6,0.9-2.9,1.3-4.1c0.4-1.2,0.8-2.2,1.1-3.3c0.4-1,0.7-2,1.1-3
								c0.4-1,0.7-2.1,1.1-3.3c0.3-1,0.5-1.9,0.7-2.9c-1.5,2.8-3,5-4,6c-1.1,1.3-2.2,2.5-3.2,3.6c-1.1,1.2-2.1,2.3-3.2,3.5
								c-1.1,1.2-2.3,2.4-3.5,3.8c-1.3,1.4-2.6,2.9-4,4.5c-1.4,1.7-3-1.9-5.1,1.2c-3.1,4.8-6,7.5-8.4,9.1c-2.4,1.5-4.5,1.8-6.3,1.4
								c-0.6-0.1-1.4,0.2-2.4,0.7c-1,0.4-2.1,1.1-3.3,1.8c-0.8,1.4-1.7,2.6-2.6,3.8c-0.5,0.6-1.3,1.2-2,1.5s-1.3,0.5-1.3,0.5
								c-2,1.9-3.7,3.5-5.4,5c2.1,0,4.1,0.2,6.7-0.4C148.7,218.2,151.9,216.9,155.7,213.6z"/>
							<path class="st12" d="M207.7,128.9c0.2-1.1,0.5-2.2,0.8-3.1c0.4-1.3,0.8-1.7,1.1-1.9c0.3-0.2,0.6-0.3,0.8-0.7l-0.4,0.3
								l0.4-0.6c-1.3,0.4-2.4,0.7-3.3,0.2c-0.7,1.4-1.4,2.7-2.1,3.2c-1.1,0.8-2.3,1.5-3.4,2.3c-1.2,0.8-2.3,1.8-3.5,3
								c-2.3,2.6-4.9,6.5-7.2,14.1c-0.9,3.1-1.9,2.6-3.1,2.4c-1.2-0.2-2.5,0-4.1,4.5c-1,3-2,8.9-3.4,9.6c-1.7,0.3-2.7-4.5-4.7,1.3
								c-2.4,7.4-5.2,13.6-8.1,17.7c-2.9,4.1-5.7,6.2-7.9,6.2c-2.3,4.5-3.9,10.3-6.4,15.9c1.8-1.5,3.7-3.5,5.2-5
								c1.5-1.6,2.8-2.7,3.5-2.5c1.8,0.4,4.4-0.6,7.2-3.1c1.4-1.2,2.9-2.8,4.3-4.7c1.4-1.9,2.8-4,4-6.4c2.5-4.7,4.5-6.9,6.7-9.5
								s4.4-5.8,6.8-12.5c-0.3,3.6-0.4,6.7,0.3,7.4c1.2-0.9,2.2-5.2,3.1-9.3c0.8-4.1,1.5-8,2-8.5c0.7-0.8,1.5-1.6,2.2-2.5
								s1.4-2,2.2-3.1c0.7-1.2,1.5-2.5,2.3-4s1.6-3.2,2.5-5.1C206.3,132.5,206.9,130.6,207.7,128.9z"/>
							<path class="st4" d="M175.7,163.6c2-5.9,3-1,4.7-1.3c1.4-0.7,2.3-6.6,3.4-9.6c1.5-4.5,2.9-4.6,4.1-4.5
								c1.2,0.2,2.2,0.6,3.1-2.4c2.3-7.6,4.9-11.5,7.2-14.1c1.2-1.3,2.3-2.2,3.5-3s2.3-1.5,3.4-2.3c0.7-0.5,1.4-1.8,2.1-3.2
								c-0.3-0.2-0.6-0.5-0.9-1c-0.3-0.3-1.1,0.3-2.2,1.5c-0.5,0.6-1.1,1.3-1.6,2s-1,1.4-1.4,1.9c-1,0.4-1.4-0.2-1.6-1.4
								c-0.2-1.2-0.1-3,0.1-4.7c0-0.5,0-1.1,0-1.6c0.1,0,0.1-0.1,0.2-0.1c0.1-0.4,0.1-0.9,0.2-1.3c-0.8,0.8-1.6,1.6-2.3,2.4
								c-0.2,0.4-0.3,0.7-0.6,1.1c0-0.2,0.1-0.4,0.2-0.6c-1.1,1.1-2,2.1-2.9,2.7c-0.8,0.4-1.7,1.3-2.5,2.4c-0.2,0.6-0.3,1.1-0.5,1.7
								c0.2-0.6,0.2-1,0.2-1.3c-1.5,2.1-2.9,5-4.2,7.8s-2.6,5.6-3.9,7.3c-0.6,0.7-1.3,2.1-2.1,3.7c-0.7,1.7-1.5,3.6-2.3,5.5
								c-1.6,3.6-3.1,6.5-4.5,5.2c0,2-1.3,4.6-1.3,6.5c-0.5-0.5-1.1-0.6-1.7-0.5c-0.9,1.9-1.7,4.1-2.4,4.3c-0.5-0.5,0.1-2,0.5-3.5
								l-0.5,0.4l-0.2,0.5c-0.1,0.9-0.2,1.9-0.2,2.7c0.2,1,0.5,2.1,0.7,3c-0.4-0.4-0.7-1.6-0.7-3c-0.1-0.5-0.3-1-0.4-1.4
								c-0.9,1.9-1.7,3.9-2.6,6c0,0.5-0.1,0.9-0.1,1.4c0-0.4,0-0.8,0-1.2c-0.1,0.3-0.2,0.6-0.3,0.9c0,0.9-0.1,2.2-0.2,3.8
								c-0.1,1.5-0.2,3.3-0.4,5c-2.1,1.7-3.5,3.8-4.8,6.2c2.1,0,4.9-2.1,7.9-6.2C170.6,177.2,173.3,171,175.7,163.6z"/>
						</g>
					</g>
				</g>
			</g>
		</g>
	</g>
	<path class="st13" d="M96.3,225.9l-41.9-19.7c15.1,32.7,65.8,45.3,65.8,45.3l32.7-33.1c0,0,16.8-18.4,18-61.9
		c1.3-43.5,18.9-49.1,18.9-49.1s36.9-0.2,50.7,49.1c13.8,49.4-78.4,95-78.4,95l-35.6-20.1c0,0-13-8-17.6-33.5L96.3,225.9z"/>
	<path class="st13" d="M186.1,90.3l39.9,23.5c-12-33.9-61.4-51.1-61.4-51.1l-35.6,30c0,0-18.4,16.8-23.6,60s-23.3,47.1-23.3,47.1
		s-36.7-3.2-46-53.6s86.8-87.4,86.8-87.4l33.6,23.3c0,0,12.2,9.1,14.4,35L186.1,90.3z"/>
	<path class="st13" d="M126.2,132.4c0,0,13.8,17.2,0,50.7"/>
	<path class="st13" d="M150.5,132.4c0,0-13.8,17.2,0,50.7"/>
	<line class="st13" x1="124" y1="157.8" x2="150.5" y2="157.8"/>
</g>
</svg>
