<?xml version="1.0" encoding="utf-8"?>
<!-- Generator: Adobe Illustrator 22.1.0, SVG Export Plug-In . SVG Version: 6.00 Build 0)  -->
<svg version="1.1"
	 id="Calque_1" xmlns:cc="http://creativecommons.org/ns#" xmlns:dc="http://purl.org/dc/elements/1.1/" xmlns:inkscape="http://www.inkscape.org/namespaces/inkscape" xmlns:rdf="http://www.w3.org/1999/02/22-rdf-syntax-ns#" xmlns:sodipodi="http://sodipodi.sourceforge.net/DTD/sodipodi-0.dtd" xmlns:svg="http://www.w3.org/2000/svg"
	 xmlns="http://www.w3.org/2000/svg" xmlns:xlink="http://www.w3.org/1999/xlink" x="0px" y="0px" viewBox="0 0 11.6 11.5"
	 style="enable-background:new 0 0 11.6 11.5;" xml:space="preserve">
<style type="text/css">
	.st0{enable-background:new    ;}
</style>
<g transform="translate(0,-284.29998)">
	<path d="M4.5,290.8c-0.1,0-0.1,0.1-0.1,0.1v0.8c0,0.1,0.1,0.1,0.1,0.1h0.7c0.1,0,0.1-0.1,0.1-0.1c0,0,0,0,0,0v-0.8
		c0-0.1-0.1-0.1-0.1-0.1c0,0,0,0,0,0H4.5z M4.6,291h0.5v0.6H4.6V291z"/>
	<path d="M3.2,290.8c-0.1,0-0.1,0.1-0.1,0.1c0,0,0,0,0,0v0.8c0,0.1,0.1,0.1,0.1,0.1c0,0,0,0,0,0H4c0.1,0,0.1-0.1,0.1-0.1v-0.8
		c0-0.1-0.1-0.1-0.1-0.1H3.2z M3.3,291h0.5v0.6H3.3V291z"/>
	<path d="M1.9,290.8c-0.1,0-0.1,0.1-0.1,0.1v0.8c0,0.1,0.1,0.1,0.1,0.1h0.7c0.1,0,0.1-0.1,0.1-0.1c0,0,0,0,0,0v-0.8
		c0-0.1-0.1-0.1-0.1-0.1c0,0,0,0,0,0H1.9z M2.1,291h0.5v0.6H2.1V291z"/>
	<path d="M0.7,290.8c-0.1,0-0.1,0.1-0.1,0.1c0,0,0,0,0,0v0.8c0,0.1,0.1,0.1,0.1,0.1c0,0,0,0,0,0h0.7c0.1,0,0.1-0.1,0.1-0.1v-0.8
		c0-0.1-0.1-0.1-0.1-0.1H0.7z M0.8,291h0.5v0.6H0.8V291z"/>
	<path d="M0.7,292.3c-0.1,0-0.1,0.1-0.1,0.1v0.8c0,0.1,0.1,0.1,0.1,0.1c0,0,0,0,0,0h0.7c0.1,0,0.1-0.1,0.1-0.1v-0.8
		c0-0.1-0.1-0.1-0.1-0.1H0.7z M0.8,292.6h0.5v0.6H0.8V292.6z"/>
	<path d="M1.9,292.3c-0.1,0-0.1,0.1-0.1,0.1v0.8c0,0.1,0.1,0.1,0.1,0.1h0.7c0.1,0,0.1-0.1,0.1-0.1c0,0,0,0,0,0v-0.8
		c0-0.1-0.1-0.1-0.1-0.1H1.9z M2.1,292.6h0.5v0.6H2.1V292.6z"/>
	<path d="M3.2,292.3c-0.1,0-0.1,0.1-0.1,0.1v0.8c0,0.1,0.1,0.1,0.1,0.1c0,0,0,0,0,0H4c0.1,0,0.1-0.1,0.1-0.1v-0.8
		c0-0.1-0.1-0.1-0.1-0.1H3.2z M3.3,292.6h0.5v0.6H3.3V292.6z"/>
	<path d="M4.5,292.3c-0.1,0-0.1,0.1-0.1,0.1v0.8c0,0.1,0.1,0.1,0.1,0.1h0.7c0.1,0,0.1-0.1,0.1-0.1c0,0,0,0,0,0v-0.8
		c0-0.1-0.1-0.1-0.1-0.1H4.5z M4.6,292.6h0.5v0.6H4.6V292.6z"/>
	<path d="M5.8,290.8c-0.1,0-0.1,0.1-0.1,0.1c0,0,0,0,0,0v0.8c0,0.1,0.1,0.1,0.1,0.1c0,0,0,0,0,0h0.7c0.1,0,0.1-0.1,0.1-0.1
		c0,0,0,0,0,0v-0.8c0-0.1-0.1-0.1-0.1-0.1c0,0,0,0,0,0H5.8z M5.9,291h0.5v0.6H5.9V291z"/>
	<path d="M7.1,290.8c-0.1,0-0.1,0.1-0.1,0.1c0,0,0,0,0,0v0.8c0,0.1,0.1,0.1,0.1,0.1c0,0,0,0,0,0h0.7c0.1,0,0.1-0.1,0.1-0.1
		c0,0,0,0,0,0v-0.8c0-0.1-0.1-0.1-0.1-0.1c0,0,0,0,0,0H7.1z M7.2,291h0.5v0.6H7.2V291z"/>
	<path d="M9.1,284.3v0.3l-0.3,0.2v0.6H8.5c-0.1,0-0.1,0-0.1,0.1c0,0,0,0,0,0.1l0.2,0.2l-0.1,3.5H5.7V289h0.2c0.1,0,0.1,0,0.1-0.1
		c0,0,0-0.1-0.1-0.1l-1.7-0.8l-1.7,0.8c-0.1,0-0.1,0.1,0,0.1c0,0,0.1,0.1,0.1,0.1h0.2v0.3H0.2v0.4L0,290.1v4.1h5.4v0.3h0.8v0.2h0.3
		v-0.2H7v0.2h0.3v-0.2h0.5v0.2H8v-0.2h0.5v0.2h0.3v-0.2h0.3v-0.5h2.1v0.5l-1,0.2l0-0.3c0-0.1-0.1-0.1-0.1-0.1H9.5
		c-0.1,0-0.1,0.1-0.1,0.1c0,0,0,0,0,0v0.5l-4,0.8c-0.1,0-0.1,0.1-0.1,0.1c0,0.1,0.1,0.1,0.1,0.1l6.2-1.2c0.1,0,0.1-0.1,0.1-0.1
		c0-0.1-0.1-0.1-0.1-0.1l-0.1,0v-0.7h-0.3v-3.6l-0.2-0.5v-0.4H9.9l-0.1-3.5l0.2-0.2c0,0,0-0.1,0-0.1c0,0,0,0-0.1,0H9.6v-0.6
		l-0.3-0.2v-0.3L9.1,284.3z M9.2,284.8c0.1,0,0.1,0.1,0.1,0.1c0,0,0,0,0,0v0.4H9V285C9,284.9,9.1,284.8,9.2,284.8z M8.8,285.7h0.8
		l0,0.6H8.8L8.8,285.7z M8.8,286.6h0.8l0.2,7H9.1v-0.3H8.5L8.8,286.6z M4.3,288.2l1.1,0.5H3.2L4.3,288.2z M3.1,289h2.3v0.3H3.1
		L3.1,289z M0.5,289.5h7.9l0,0.5H0.3l0.2-0.4L0.5,289.5z M9.9,289.5h0.7v0.2l0.2,0.4H10L9.9,289.5z M0.2,290.2h8.2l-0.1,3.1H8v-0.9
		c0-0.1-0.1-0.1-0.1-0.1H7.1c-0.1,0-0.1,0.1-0.1,0.1v0.9H6.7v-0.9c0-0.1-0.1-0.1-0.1-0.1H5.8c-0.1,0-0.1,0.1-0.1,0.1v0.9H5.4v0.5
		H0.2L0.2,290.2z M10,290.2h0.9v3.4h-0.8l0-0.3h0.4c0.1,0,0.1-0.1,0.1-0.1c0,0,0,0,0,0v-0.8c0-0.1-0.1-0.1-0.1-0.1H10l0-0.5h0.5
		c0.1,0,0.1-0.1,0.1-0.1c0,0,0,0,0,0v-0.8c0-0.1-0.1-0.1-0.1-0.1c0,0,0,0,0,0H10L10,290.2z M10,291h0.4v0.6H10L10,291z M5.9,292.6
		h0.5v0.8H5.9L5.9,292.6z M7.2,292.6h0.5v0.8H7.2L7.2,292.6z M10,292.6h0.3v0.6h-0.3L10,292.6z M5.7,293.6h3.1v0.6H5.7L5.7,293.6z
		 M9.6,294.4h0.3l0,0.3l-0.3,0.1L9.6,294.4z"/>
	<path d="M9.1,290v-0.3h0.3v0.3H9.1z"/>
	<path d="M9.1,289.2V289h0.3v0.3H9.1z"/>
	<path d="M9.1,286.1v-0.3h0.3v0.3H9.1z"/>
</g>
<text transform="matrix(1 0 0 1 -0.5297 27.1009)" style="font-family:'HelveticaNeue-Bold'; font-size:5px;">Created by Phạm Thanh Lộc</text>
<text transform="matrix(1 0 0 1 -0.5297 32.1009)" style="font-family:'HelveticaNeue-Bold'; font-size:5px;">from the Noun Project</text>
</svg>
