<?xml version="1.0" encoding="utf-8"?>
<!-- Generator: Adobe Illustrator 22.1.0, SVG Export Plug-In . SVG Version: 6.00 Build 0)  -->
<svg version="1.1" id="Calque_1" xmlns="http://www.w3.org/2000/svg" xmlns:xlink="http://www.w3.org/1999/xlink" x="0px" y="0px"
	 viewBox="0 0 90 90" style="enable-background:new 0 0 90 90;" xml:space="preserve">
<g>
	<path d="M69,57.5h2.7c0.1,0,0.3-0.1,0.3-0.3v-6.6c0-0.9-0.7-1.6-1.6-1.6c0,0,0,0,0,0c-0.9,0-1.6,0.7-1.6,1.6v6.6
		C68.7,57.4,68.9,57.5,69,57.5z M69.3,50.7c0-0.6,0.5-1.1,1.1-1.1c0,0,0,0,0,0c0.6,0,1.1,0.5,1.1,1.1V57h-2.2V50.7z M65.3,49.1
		c-0.9,0-1.6,0.7-1.6,1.6v6.6c0,0.1,0.1,0.3,0.3,0.3h2.7c0.1,0,0.3-0.1,0.3-0.3v-6.6C66.9,49.8,66.2,49.1,65.3,49.1z M66.4,57h-2.2
		v-6.3c0-0.6,0.5-1.1,1.1-1.1c0,0,0,0,0,0c0.6,0,1.1,0.5,1.1,1.1L66.4,57L66.4,57z M45,0C20.2,0,0,20.2,0,45s20.2,45,45,45
		s45-20.2,45-45S69.8,0,45,0z M22.7,34v16.1h-0.8V34H22.7z M84.9,62.2c-0.4,1-0.9,1.9-1.4,2.9v-3.3C84,61.9,84.5,62.1,84.9,62.2z
		 M83.4,65.4c-0.9,1.7-1.9,3.3-3,4.8v-9.3c1,0.3,2,0.6,3,0.9V65.4z M80.3,70.4c-0.9,1.3-1.9,2.5-2.9,3.6h-0.1V59.8c1,0.3,2,0.7,3,1
		C80.3,60.8,80.3,70.4,80.3,70.4z M77.2,74h-1.7V60.5c0-0.1-0.1-0.3-0.3-0.3h-0.9v-1.4c0.9,0.3,1.9,0.6,2.8,0.9V74z M71.6,79.4V60.8
		H75v15.7C73.9,77.5,72.8,78.4,71.6,79.4z M53.3,87.7H36.7c-0.5-0.1-1.1-0.2-1.6-0.3l0.1-1.2h19.5l0.1,1.2
		C54.4,87.5,53.9,87.6,53.3,87.7z M19.7,80.4c-1.4-1-2.8-2.1-4.1-3.3h4.1V80.4z M20.3,67.2h3.4h0.5v16c-1.4-0.7-2.7-1.6-3.9-2.4
		C20.3,80.8,20.3,67.2,20.3,67.2z M21.1,50.6h0.5h1.9v16.1h-2.4V50.6z M36.2,74.5l-0.3,2H24.7v-2H36.2z M37.2,34l0.2-0.1h3.9
		l-4.1,32.3V34z M60.1,74.5v2h-6.1l-0.3-2H60.1z M53.3,74.4H36.7l0.2-1.5h16.2L53.3,74.4z M53.3,74.5l0.2,1.5h-17l0.2-1.5H53.3z
		 M36.5,76.2h17l0.2,1.5H36.3L36.5,76.2z M35.5,84.5h19.1l0.2,1.5H35.3L35.5,84.5z M35.5,84.4l0.2-1.5h18.7l0.2,1.5H35.5z
		 M35.7,82.7l0.2-1.5h18.3l0.2,1.5H35.7z M35.9,81l0.2-1.5h17.8l0.2,1.5H35.9z M36.1,79.4l0.2-1.5h17.4l0.2,1.5H36.1z M41.3,37.9
		h7.4l0.2,1.5h-7.8L41.3,37.9z M41.1,39.6h7.8l0.2,1.5h-8.2L41.1,39.6z M40.9,41.2h8.2l0.2,1.5h-8.6L40.9,41.2z M40.7,42.9h8.6
		l0.2,1.5h-9L40.7,42.9z M40.5,44.6h9.1l0.2,1.5h-9.4L40.5,44.6z M40.3,46.2h9.5l0.2,1.5h-9.9L40.3,46.2z M40.1,47.9h9.9l0.2,1.5
		H39.9L40.1,47.9z M39.8,49.5h10.3l0.2,1.5H39.7L39.8,49.5z M39.6,51.2h10.7l0.2,1.5H39.4L39.6,51.2z M39.4,52.9h11.1l0.2,1.5H39.2
		L39.4,52.9z M39.2,54.5h11.6l0.2,1.5H39L39.2,54.5z M39,56.2h12l0.2,1.5H38.8L39,56.2z M38.8,57.9h12.4l0.2,1.5H38.6L38.8,57.9z
		 M38.6,59.5h12.8l0.2,1.5H38.4L38.6,59.5z M38.4,61.2h13.2l0.2,1.5H38.2L38.4,61.2z M38.2,62.9h13.7l0.2,1.5H38L38.2,62.9z
		 M38,64.5H52l0.2,1.5H37.8L38,64.5z M37.8,66.2h14.5l0.2,1.5H37.6L37.8,66.2z M37.5,67.9h14.9l0.2,1.5H37.4L37.5,67.9z M37.3,69.5
		h15.3l0.2,1.5H37.1L37.3,69.5z M52.8,34v32.3l-4.1-32.3h3.9L52.8,34z M48.7,37.7h-7.3l0.2-1.3h7L48.7,37.7z M37.1,71.2h15.8
		l0.2,1.5H36.9L37.1,71.2z M24.7,77.1h11.1l-1.3,10.2c-3.5-0.9-6.8-2.1-9.8-3.7C24.7,83.5,24.7,77.1,24.7,77.1z M54.1,77.1h6v8.7
		c-1.5,0.6-3.1,1.1-4.7,1.5L54.1,77.1z M60.7,60.8H64v23.3c-1.1,0.5-2.2,1-3.4,1.5V60.8z M61.8,46.7h6v13.6h-6V46.7z M73.9,46.7
		v13.6h-6V46.7H73.9z M64.2,60.8h3.6V82c-1.2,0.7-2.3,1.4-3.6,2V60.8z M67.9,60.8h3.6v18.7c-1.1,0.9-2.3,1.7-3.6,2.5V60.8z
		 M67.9,46.1v-4.8h4.8l0,4c0,0.3,0.2,0.6,0.4,0.8H67.9z M67.8,46.1h-5.2c0.2-0.2,0.3-0.5,0.4-0.9v-4h4.8V46.1z M61.3,60.2h-0.9
		c-0.1,0-0.3,0.1-0.3,0.3V74h-1.6V52.9c0.9,0.4,1.8,0.7,2.7,1.1C61.3,54,61.3,60.2,61.3,60.2z M58.4,74h-3V51.6c1,0.4,2,0.8,3,1.2
		V74z M55.3,74h-1.5l-0.4-3.5V50.7c0.6,0.3,1.3,0.5,1.9,0.8V74z M48.7,33.8l-0.2-1.7l3.8,1.7H48.7z M48.4,35.9h-6.9L45,8.5
		L48.4,35.9z M41.3,33.8h-3.5l3.8-1.7L41.3,33.8z M36.7,70.5L36.2,74h-0.7V42.3c0.4,0.2,0.8,0.4,1.2,0.6V70.5z M35.4,74h-3V40.7
		c1,0.5,2,1,3,1.5V74z M32.2,74h-3V39c1,0.5,2,1.1,3,1.6V74z M29.1,74h-3V37.3c1,0.5,2,1.1,3,1.6V74z M26,74h-1.2v-7.1
		c0-0.1-0.1-0.3-0.3-0.3H24V50.3c0-0.1-0.1-0.3-0.3-0.3h-0.5V35.7c0.9,0.5,1.9,1.1,2.8,1.6C26,37.2,26,74,26,74z M21.3,50.1h-0.5
		c-0.1,0-0.3,0.1-0.3,0.3v16.3H20c-0.1,0-0.3,0.1-0.3,0.3V74h-1.2V37.2c0.9-0.5,1.9-1,2.8-1.6L21.3,50.1L21.3,50.1z M18.4,74h-3
		V38.9c1-0.5,2-1.1,3-1.6V74z M15.3,74h-2.6c-0.1-0.1-0.2-0.3-0.3-0.4v-33c1-0.5,2-1.1,3-1.6C15.3,39,15.3,74,15.3,74z M12.1,73.4
		c-1.1-1.2-2.1-2.5-3-3.8V42.2c1-0.5,2-1,3-1.5V73.4z M9,69.4c-1.1-1.6-2.1-3.3-3-5.1V43.8c1-0.5,2-1,3-1.5V69.4z M5.9,64
		c-1.2-2.5-2.2-5.2-3-8V45.3c1-0.5,2-1,3-1.4V64z M2.8,55.4c-0.7-3-1.2-6.2-1.2-9.4c0.4-0.2,0.8-0.4,1.2-0.6V55.4z M13.1,74.5h6.6v2
		h-4.7C14.4,75.9,13.7,75.2,13.1,74.5z M37.5,87.8h15c-2.4,0.4-4.9,0.7-7.5,0.7C42.4,88.5,40,88.3,37.5,87.8z M75.5,76v-1.4h1.4
		C76.4,75,76,75.5,75.5,76z M85.1,61.7c-3.6-1.1-7.2-2.2-10.8-3.5V46.4c0-0.1,0-0.1-0.1-0.2c0,0,0,0,0,0c0,0-0.1-0.1-0.2-0.1
		c0,0,0,0,0,0c-0.5,0-0.8-0.4-0.9-0.9V41c0-0.1-0.1-0.3-0.3-0.3H62.7c-0.1,0-0.3,0.1-0.3,0.3l0,4.2c0,0.5-0.4,0.8-0.9,0.9
		c0,0,0,0,0,0c-0.1,0-0.1,0-0.2,0.1c0,0,0,0,0,0c0,0-0.1,0.1-0.1,0.2v7c-2.7-1.1-5.3-2.2-8-3.3V33.9c0-0.1-0.1-0.2-0.2-0.2l-4.8-2.2
		L45.3,6.9c0-0.1-0.1-0.2-0.3-0.2h-0.1c-0.1,0-0.2,0.1-0.3,0.2l-3.1,24.6l-4.8,2.2c-0.1,0-0.2,0.1-0.2,0.2v8.5
		c-4.5-2.3-9.1-4.8-13.5-7.3v-1.3c0-0.1-0.1-0.3-0.3-0.3h-1.3c-0.1,0-0.3,0.1-0.3,0.3V35c-6.4,3.7-13.1,7.2-19.8,10.4
		c0-0.1,0-0.3,0-0.4C1.5,21,21,1.5,45,1.5S88.5,21,88.5,45C88.5,50.9,87.3,56.6,85.1,61.7z"/>
</g>
</svg>
