<?xml version="1.0" encoding="utf-8"?>
<!-- Generator: Adobe Illustrator 22.1.0, SVG Export Plug-In . SVG Version: 6.00 Build 0)  -->
<svg version="1.1" id="Calque_1" xmlns="http://www.w3.org/2000/svg" xmlns:xlink="http://www.w3.org/1999/xlink" x="0px" y="0px"
	 viewBox="0 0 92.9 99.7" style="enable-background:new 0 0 92.9 99.7;" xml:space="preserve">
<path d="M92.4,4.5c-0.7-1-1.8-1.2-3.2-1.4c-1.4-0.2-3.1-0.5-5.4-1.6c-3.3-1.6-11.7-4.2-17.7,5.8c-1.2,2-2.3,3.7-3.2,5.2
	c-2.9,4.8-5.1,8.2-8.3,15.5c-0.7,1.6-1.4,3.3-2.2,5.2c-3.9,9.4-9.2,22.2-17.4,28c-5.7,4-10.7,6.7-15.1,9c-3.4,1.8-6.5,3.5-9.5,5.4
	c-6.1,4.1-10,7.2-10.3,9.9c-0.1,0.9,0,1.8,0.7,2.3c0.9,0.6,2.3,0.4,3.4-0.3c-0.5,2.6,0.7,4.7,0.9,5.1C8,99,15,101,17.4,98.9
	c0.7,0.3,2.7-0.1,3.2-1.3c1.9,0,3.1-2,2.5-3.8c0.2-0.2,0.3-0.5,0.5-1c0.7-2.5-1.6-4.6-3.7-5.9c4.1-1.1,13.6-2.6,18.8-3.4
	c0,0.3,0,0.6,0.2,0.8c0.5,0.8,1.4,1.1,2.8,1.1c1.7,0,4.1-0.5,7.3-1.4c5.3-1.5,8.7-4.3,10.9-7.4c2.6-1.1,4.8-2.3,6.6-3.6
	c0,1.2,0.2,3.1,0.6,4.4c0.7,2.3,5.8,4.3,10.2,4.3c1.6,0,5.6,0,6.9-1.6c0.2-0.2,0.2-0.5,0.2-0.8c0-0.8-1-1.4-3.8-3.2
	c-1.2-0.8-2.4-1.6-3.3-2.3c-1.5-1.3-1.1-3.5-0.1-8.7l0.4-2c1-5.8,0.6-9.4,0.4-10.2c1.1-5,0.8-10.1,0.6-15c-0.2-4.4-0.4-8.5,0.2-12.6
	c1.5-10,4.4-11.6,7.9-12.5c3.4-0.9,5.4-3.3,6.1-5.1C93,6.5,93,5.4,92.4,4.5z M76.2,58.4c0,2.4-0.4,4.2-0.8,6.4
	c-1,5.6-1.6,8.4,0.6,10.4c1,0.8,2.2,1.6,3.6,2.4c0.8,0.6,2.6,1.4,2.6,1.8c0,0.6-3,0.8-4.8,0.8C72,80,68.8,78,68.6,77
	C68,75.2,68,72,68,71.8C72.4,68.2,74.4,64,76.2,58.4z M90.2,8.4C89.4,9,87.6,10,85.3,9.1c-0.4-0.2-0.9,0-1.1,0.5
	c-0.2,0.4,0,0.9,0.5,1.1c0.6,0.2,1.1,0.3,1.7,0.4c-0.1,0-0.2,0.1-0.4,0.1c-4.7,1.3-7.6,3.9-9.1,13.9c-0.7,4.3-0.4,8.7-0.2,13
	c0.3,5.6,0.6,11.4-1.1,17c-2.8,9-4.9,14.6-14.2,19.1c0.6-1.2,1.1-2.4,1.3-3.6c1.6-5,1-9.6,1-9.8c0-0.4-0.4-0.8-1-0.8
	c-0.4,0.2-0.8,0.6-0.6,1c0,0,0.4,4.4-1,9.2c-1.8,6.4-6,10.5-12.5,12.2c-2.2,0.6-7.6,2.1-8,1c-0.1-0.4,0.5-0.7,2.3-1.5
	c0,0,0.4-0.2,0.4-0.2c1-0.4,3.8-1.6,4-1.6c0.6-0.2,0.8-0.6,0.6-1c-0.2-0.4-0.6-0.6-1.1-0.5c-0.1,0.1-3.5,1.4-4.6,1.8
	c-1.2,0.4-3,0.8-3.2,0.3C38.8,80.5,39,80,41.4,79c4.4-1.6,7.1-3.9,7.2-4c0.4-0.3,0.5-0.8,0.2-1.2c-0.3-0.4-0.8-0.5-1.2-0.2
	c-2.6,1.9-5.2,3.5-6.2,3.7c-1.4,0.4,0.4-1.2,1.6-2.6c2.8-3.2,7.8-8.4,7.6-13.8c-0.2-6.2-0.2-9,3.8-15.4c0.2-0.4,0-1-0.4-1.2
	c-0.4-0.2-0.8,0-1.2,0.4c-4,6.6-4,9.8-3.8,16.4c0,4.6-4.4,9.6-7.2,12.5c-1.4,1.5-2.1,2.3-2.3,2.9c-0.2,0.7-0.2,1.2,0,1.5
	c-1.2,0.6-2.2,1.4-2.2,2.5c0,0.5,0.2,1,0.6,1.4c-4.9,0.8-16.9,2.7-19.9,3.8c-0.5-0.3-0.9-0.4-0.9-0.4c-0.5-0.2,0.1-1,1.1-2
	c0.3-0.3,0.3-0.9,0-1.2s-0.9-0.3-1.2,0c-0.5,0.5-2,2-1.7,3.4c0.1,0.6,0.5,1.1,1.1,1.3c1,0.4,2.6,1.2,3.9,2.3
	c0.9,0.7,1.8,1.7,1.8,2.7c-0.1-0.1-0.1-0.1-0.3-0.3c-0.8-0.8-2.4-1.6-2.4-1.6c-0.4-0.2-0.9,0-1.1,0.4c-0.2,0.4,0,0.9,0.4,1.1
	c0.4,0.2,1.5,0.8,2,1.3c1.1,1.1,1.5,2.2,0.3,3.2c0.2-2.2-2.6-3.6-3.6-4c-0.4-0.2-0.9,0-1.1,0.5c-0.2,0.4,0,0.9,0.5,1.1
	c1.9,0.6,3.9,2.4,1.6,3.6c0.7-1.6-1.9-2.8-3.5-3.2c-0.4-0.2-1,0.2-1,0.6c-0.2,0.4,0,0.8,0.6,1c1.8,0.4,3.6,2.2,0.9,2.4
	c-1.8,0.1-5.9-0.9-8.6-6.2c-0.1-0.1-1.5-2.3-0.4-4.9c0.3-0.6,0.2-1.1-0.2-1.4c-0.6-0.5-1.3-0.1-2.2,0.4c-1.3,0.8-2.1,0.6-2-0.1
	c0.3-2.5,5-5.7,9.6-8.8c2.9-1.9,6-3.6,9.3-5.4c4.5-2.4,9.5-5.1,15.3-9.1c8.6-6,14-19.1,18-28.7c0.8-1.9,1.5-3.6,2.2-5.2
	c3.2-7.2,5.2-10.4,8.2-15.3c0.9-1.5,2-3.2,3.2-5.2C72.7-0.3,79.5,1.3,83.1,3c2.5,1.2,4.4,1.5,5.9,1.7l0.2,0c0.2,0.6,0.6,1.6,1.7,2.5
	C90.8,7.7,90.6,8,90.2,8.4z M74.2,8.8c0,0.2-0.4,0.6-1.2,0.8c-0.6,0.2-1.5,0.5-2.3,0.5c-0.4,0-0.9-0.1-1.2-0.4
	c-0.3-0.2-0.7-0.7-0.7-1.6c0-0.5,0.5-2,4.2-3.3c0.4-0.2,0.9,0.1,1.1,0.5c0.2,0.4-0.1,0.9-0.5,1.1c-1.5,0.5-3,1.4-3.1,1.8
	c0,0.3,0.6,0.3,2-0.2c0.5-0.2,0.8-0.3,1.1-0.2C74,7.9,74.4,8.4,74.2,8.8z M83.5,6c-0.2,0.8-1,1.4-1.8,1.2c-0.8-0.2-1.4-1-1.2-1.8
	c0.2-0.8,1-1.4,1.8-1.2C83.1,4.3,83.7,5.1,83.5,6z"/>
</svg>
