<?xml version="1.0" encoding="utf-8"?>
<!-- Generator: Adobe Illustrator 22.1.0, SVG Export Plug-In . SVG Version: 6.00 Build 0)  -->
<svg version="1.1" id="Calque_1" xmlns="http://www.w3.org/2000/svg" xmlns:xlink="http://www.w3.org/1999/xlink" x="0px" y="0px"
	 viewBox="0 0 402.6 202.7" style="enable-background:new 0 0 402.6 202.7;" xml:space="preserve">
<style type="text/css">
	.st0{fill:none;}
</style>
<g>
	<g>
		<path class="st0" d="M0,202.7C0,135.1,0,67.6,0,0c67.5,0,135.1,0,202.7,0c0,67.5,0,135.1,0,202.7C135.1,202.7,67.6,202.7,0,202.7z
			 M120.3,127.6c3.5,0,6.6,0.2,9.8,0c6.1-0.5,11.3-2.9,15.3-7.6c0.5-0.6,0.8-1.5,0.8-2.3c-0.1-3.8-0.2-7.5-0.5-11.2
			c-0.1-1.3,0.3-2,1.6-2.4c4.3-1.5,7.9-3.9,10.5-7.7c0.8-1.1,1.4-2.4,1.9-3.6c1.4-3.9,0.3-6.3-3.6-7.7c-6.7-2.4-12.3-6.2-16.7-11.8
			c-2-2.5-2.8-5.4-2.4-8.7c0.5-4.4,0.9-8.8,1.1-13.2c0.5-10.1-2.6-18.8-9.8-26.2c-7.1-7.3-15.5-12.4-24.9-15.9
			C90.6,4.6,77.6,3.2,64.2,5.4c-11.4,1.9-21.8,6.4-31.4,12.7c-11,7.2-19.8,16.5-25.6,28.4c-9.5,19.5-8.7,39.1,0.3,58.5
			c3.3,7.1,7.8,13.5,11.8,20.3c3.8,6.5,6.8,13.2,8,20.7c1.5,10.1-0.6,19.1-7.9,26.6c-2.2,2.3-2.3,2.3-0.7,5.1c0.6,1,1.2,2,1.9,3
			c4,5.2,9,9.3,14.5,12.7c10.7,6.5,22.1,6.5,33.7,3.2c0.6-0.2,1.2-1,1.5-1.6c1.6-3,2.9-6.2,4.9-9c4.9-7,11.6-10.9,20.4-10.7
			c6.8,0.2,13.5,0.6,20.3,0.4c6.8-0.2,13.6-1.4,20-4.1c4.2-1.8,5.7-4.1,5.6-8.7c0-0.9-0.2-1.8-0.2-2.8c0-3.6,0.1-7.2,0.3-10.8
			c0.1-1.4,0.6-2.8,0.9-4.3C131.8,143.3,122.4,140.3,120.3,127.6z"/>
		<path d="M120.3,127.6c2.1,12.6,11.5,15.6,22,17.4c-0.3,1.5-0.8,2.9-0.9,4.3c-0.2,3.6-0.2,7.2-0.3,10.8c0,0.9,0.2,1.8,0.2,2.8
			c0.1,4.6-1.4,6.9-5.6,8.7c-6.4,2.7-13.1,3.9-20,4.1c-6.8,0.2-13.5-0.2-20.3-0.4C86.7,175.1,80,179,75.1,186c-1.9,2.8-3.2,6-4.9,9
			c-0.3,0.6-0.9,1.4-1.5,1.6c-11.6,3.2-23.1,3.3-33.7-3.2c-5.5-3.4-10.5-7.4-14.5-12.7c-0.7-0.9-1.4-1.9-1.9-3
			c-1.6-2.8-1.6-2.8,0.7-5.1c7.3-7.5,9.4-16.5,7.9-26.6c-1.1-7.5-4.2-14.2-8-20.7c-4-6.7-8.5-13.2-11.8-20.3
			c-9-19.3-9.8-39-0.3-58.5c5.8-11.9,14.6-21.2,25.6-28.4c9.6-6.3,20-10.8,31.4-12.7c13.4-2.3,26.5-0.9,39.2,3.8
			c9.4,3.5,17.8,8.6,24.9,15.9c7.1,7.3,10.3,16.1,9.8,26.2c-0.2,4.4-0.6,8.8-1.1,13.2c-0.4,3.3,0.4,6.1,2.4,8.7
			c4.4,5.6,10,9.4,16.7,11.8c3.9,1.4,5,3.8,3.6,7.7c-0.5,1.3-1.1,2.5-1.9,3.6c-2.6,3.7-6.3,6.2-10.5,7.7c-1.3,0.5-1.7,1.1-1.6,2.4
			c0.3,3.7,0.4,7.5,0.5,11.2c0,0.8-0.3,1.7-0.8,2.3c-4,4.7-9.2,7.1-15.3,7.6C126.9,127.8,123.8,127.6,120.3,127.6z"/>
	</g>
	<g>
		<path class="st0" d="M207.6,195c0-65,0-130.1,0-195c65,0,130,0,195,0c0,65,0,130,0,195C337.6,195,272.5,195,207.6,195z
			 M265.6,139.5c0.3,1.5,0.8,2.8,0.8,4.1c0.2,3.5,0.2,6.9,0.2,10.4c0,0.9-0.2,1.8-0.2,2.7c-0.1,4.4,1.3,6.6,5.4,8.4
			c6.1,2.6,12.6,3.8,19.2,4c6.5,0.2,13-0.2,19.5-0.4c8.5-0.2,14.9,3.5,19.6,10.2c1.9,2.7,3.1,5.8,4.7,8.6c0.3,0.6,0.9,1.4,1.4,1.5
			c11.2,3.1,22.2,3.2,32.5-3.1c5.3-3.3,10.1-7.2,13.9-12.2c0.7-0.9,1.3-1.9,1.9-2.9c1.6-2.7,1.5-2.7-0.6-4.9c-7-7.2-9-15.9-7.6-25.6
			c1.1-7.2,4-13.7,7.7-19.9c3.8-6.5,8.2-12.7,11.3-19.5c8.6-18.6,9.4-37.5,0.3-56.3c-5.6-11.4-14.1-20.4-24.6-27.3
			c-9.2-6.1-19.2-10.4-30.2-12.2c-12.9-2.2-25.5-0.8-37.7,3.7c-9.1,3.4-17.2,8.3-24,15.3c-6.9,7.1-9.9,15.5-9.4,25.2
			c0.2,4.2,0.6,8.5,1.1,12.7c0.4,3.2-0.4,5.9-2.3,8.3c-4.2,5.3-9.6,9.1-16.1,11.4c-3.8,1.3-4.9,3.6-3.5,7.4c0.5,1.2,1.1,2.4,1.8,3.5
			c2.5,3.6,6,6,10.1,7.4c1.3,0.4,1.6,1,1.5,2.3c-0.3,3.6-0.4,7.2-0.5,10.8c0,0.7,0.3,1.6,0.8,2.2c3.8,4.5,8.9,6.9,14.7,7.3
			c3,0.2,6,0,9.4,0C284.8,135,275.8,137.9,265.6,139.5z"/>
		<path d="M286.8,122.8c-2,12.1-11,15.1-21.2,16.7c0.3,1.5,0.8,2.8,0.8,4.1c0.2,3.5,0.2,6.9,0.2,10.4c0,0.9-0.2,1.8-0.2,2.7
			c-0.1,4.4,1.3,6.6,5.4,8.4c6.1,2.6,12.6,3.8,19.2,4c6.5,0.2,13-0.2,19.5-0.4c8.5-0.2,14.9,3.5,19.6,10.2c1.9,2.7,3.1,5.8,4.7,8.6
			c0.3,0.6,0.9,1.4,1.4,1.5c11.2,3.1,22.2,3.2,32.5-3.1c5.3-3.3,10.1-7.2,13.9-12.2c0.7-0.9,1.3-1.9,1.9-2.9
			c1.6-2.7,1.5-2.7-0.6-4.9c-7-7.2-9-15.9-7.6-25.6c1.1-7.2,4-13.7,7.7-19.9c3.8-6.5,8.2-12.7,11.3-19.5c8.6-18.6,9.4-37.5,0.3-56.3
			c-5.6-11.4-14.1-20.4-24.6-27.3c-9.2-6.1-19.2-10.4-30.2-12.2c-12.9-2.2-25.5-0.8-37.7,3.7c-9.1,3.4-17.2,8.3-24,15.3
			c-6.9,7.1-9.9,15.5-9.4,25.2c0.2,4.2,0.6,8.5,1.1,12.7c0.4,3.2-0.4,5.9-2.3,8.3c-4.2,5.3-9.6,9.1-16.1,11.4
			c-3.8,1.3-4.9,3.6-3.5,7.4c0.5,1.2,1.1,2.4,1.8,3.5c2.5,3.6,6,6,10.1,7.4c1.3,0.4,1.6,1,1.5,2.3c-0.3,3.6-0.4,7.2-0.5,10.8
			c0,0.7,0.3,1.6,0.8,2.2c3.8,4.5,8.9,6.9,14.7,7.3C280.4,123,283.5,122.8,286.8,122.8z"/>
	</g>
</g>
</svg>
