<?xml version="1.0" encoding="utf-8"?>
<!-- Generator: Adobe Illustrator 22.1.0, SVG Export Plug-In . SVG Version: 6.00 Build 0)  -->
<svg version="1.1" id="Layer_1" xmlns="http://www.w3.org/2000/svg" xmlns:xlink="http://www.w3.org/1999/xlink" x="0px" y="0px"
	 viewBox="0 0 202 207.1" style="enable-background:new 0 0 202 207.1;" xml:space="preserve">
<style type="text/css">
	.st0{fill:none;stroke:#000000;stroke-width:3;stroke-miterlimit:10;}
	.st1{fill:#FFFFFF;}
	.st2{fill:none;stroke:#FFFFFF;stroke-width:3;stroke-miterlimit:10;}
</style>
<g>
	<g>
		<g>
			<g>
				<path class="st1" d="M71.3,45.4c-0.2-0.1-0.3-0.5-0.1-0.9c0,0,0.5-1.5,0.8-2.6c0.3-1.1,0.4-2.2,0.5-3.2c0.1-1,0.1-1.9,0-2.8
					s-0.3-1.6-0.6-2.2c-0.1-0.3-0.3-0.5-0.4-0.7c-0.2-0.2-0.4-0.4-0.6-0.5c-0.2-0.1-0.5-0.2-0.8-0.2c-0.3,0-0.6,0.1-0.9,0.2
					c-0.7,0.3-1.4,0.9-1.9,1.8c-0.5,0.8-0.9,1.9-1.2,3.2c-0.2,1-0.3,2.1-0.4,3.2c0,1.1,0,2.3,0,3.6c0,1.2,0.1,2.5,0.2,3.9
					c0.1,1.3,0.2,2.7,0.3,4.1c0.1,1.9,0.1,3.7,0.1,5.4c0,1.7-0.1,3.2-0.3,4.6c-0.2,1.4-0.4,2.7-0.7,3.9c-0.3,1.2-0.9,2.5-0.9,2.5
					c-0.2,0.4,0,0.6,0.4,0.6c0,0,0.8-0.1,1.6-0.3c0.9-0.1,1.7-0.3,2.6-0.5c0.9-0.2,1.8-0.5,2.7-0.7c0.9-0.3,1.8-0.6,2.6-1
					c1.5-0.7,2.7-1.4,3.7-2.3c1-0.9,1.7-1.9,2.3-3.1c0.6-1.2,1-2.6,1.3-4.1c0.3-1.5,0.7-4.6,0.7-4.6c0-0.4,0.1-1,0.1-1.4l0.1-0.8
					c0-0.4,0.2-0.7,0.4-0.6c0.2,0,0.3,0.4,0.3,0.8l-0.1,0.8c0,0.4-0.1,1-0.2,1.4c0,0-0.6,4.4-1.1,6.3c-0.5,1.9-1.2,3.5-2,4.8
					c-0.8,1.3-1.6,2.3-2.6,3.1c-1,0.8-2,1.4-3.1,1.9c-0.7,0.3-1.6,0.6-2.5,0.9C71,69.8,70,70,69.1,70.2c-1,0.2-2,0.3-3,0.5
					c-1,0.1-2.4,0.3-2.4,0.3c-0.4,0-0.9,0.3-1.2,0.6c0,0-1.1,1.3-2,2c-0.9,0.7-2,1.4-3.2,1.9c-0.8,0.4-1.5,0.6-2.1,0.7
					c-0.6,0.1-1,0.2-1.4,0.1c-0.4,0-0.7-0.2-0.9-0.4c-0.2-0.2-0.4-0.4-0.5-0.6c-0.2-0.5-0.2-0.9-0.1-1.3c0.2-0.4,0.5-0.8,0.8-1.2
					c0.4-0.4,0.8-0.7,1.4-1c0.5-0.3,1-0.6,1.5-0.8c1.1-0.5,2.2-0.8,3.2-1.1c1.1-0.3,2.3-0.5,2.3-0.5c0.4-0.1,0.8-0.4,0.9-0.8
					c0,0,0.2-0.7,0.3-1.5c0.1-0.8,0.2-1.7,0.3-2.7c0.1-1,0.1-2.1,0.1-3.4c0-1.2,0-3.4,0-3.4c0-0.4,0-1,0-1.4c0,0-0.1-3.8-0.2-5.7
					c-0.1-2-0.1-3.8-0.1-5.4c0-1.6,0.1-3.1,0.3-4.5c0.2-1.4,0.5-2.6,1-3.8c0.5-1.3,1.2-2.3,2-3.2c0.8-0.9,1.7-1.5,2.6-1.9
					c0.6-0.3,1.2-0.4,1.7-0.4c0.5,0,0.9,0.1,1.3,0.3c0.4,0.2,0.7,0.5,1,0.8s0.5,0.8,0.7,1.2c0.7,1.5,0.9,3.3,0.6,5.3
					c-0.3,2-1.9,5.9-1.9,5.9C71.8,45.3,71.5,45.5,71.3,45.4z M57,74.8c1.1-0.5,2-1,2.7-1.6c0.7-0.6,1.4-1.5,1.4-1.5
					c0.2-0.3,0.1-0.5-0.3-0.5c0,0-0.3,0-0.8,0.1c-0.5,0.1-1.1,0.2-1.6,0.3c-0.6,0.1-1.1,0.3-1.7,0.4c-0.5,0.2-1.1,0.3-1.6,0.6
					c-0.8,0.3-1.3,0.7-1.7,1.1c-0.3,0.4-0.4,0.8-0.2,1.3c0.1,0.2,0.2,0.3,0.3,0.4c0.2,0.1,0.4,0.2,0.7,0.2c0.3,0,0.7-0.1,1.1-0.2
					C55.7,75.3,56.3,75.1,57,74.8z"/>
				<path class="st2" d="M71.3,45.4c-0.2-0.1-0.3-0.5-0.1-0.9c0,0,0.5-1.5,0.8-2.6c0.3-1.1,0.4-2.2,0.5-3.2c0.1-1,0.1-1.9,0-2.8
					s-0.3-1.6-0.6-2.2c-0.1-0.3-0.3-0.5-0.4-0.7c-0.2-0.2-0.4-0.4-0.6-0.5c-0.2-0.1-0.5-0.2-0.8-0.2c-0.3,0-0.6,0.1-0.9,0.2
					c-0.7,0.3-1.4,0.9-1.9,1.8c-0.5,0.8-0.9,1.9-1.2,3.2c-0.2,1-0.3,2.1-0.4,3.2c0,1.1,0,2.3,0,3.6c0,1.2,0.1,2.5,0.2,3.9
					c0.1,1.3,0.2,2.7,0.3,4.1c0.1,1.9,0.1,3.7,0.1,5.4c0,1.7-0.1,3.2-0.3,4.6c-0.2,1.4-0.4,2.7-0.7,3.9c-0.3,1.2-0.9,2.5-0.9,2.5
					c-0.2,0.4,0,0.6,0.4,0.6c0,0,0.8-0.1,1.6-0.3c0.9-0.1,1.7-0.3,2.6-0.5c0.9-0.2,1.8-0.5,2.7-0.7c0.9-0.3,1.8-0.6,2.6-1
					c1.5-0.7,2.7-1.4,3.7-2.3c1-0.9,1.7-1.9,2.3-3.1c0.6-1.2,1-2.6,1.3-4.1c0.3-1.5,0.7-4.6,0.7-4.6c0-0.4,0.1-1,0.1-1.4l0.1-0.8
					c0-0.4,0.2-0.7,0.4-0.6c0.2,0,0.3,0.4,0.3,0.8l-0.1,0.8c0,0.4-0.1,1-0.2,1.4c0,0-0.6,4.4-1.1,6.3c-0.5,1.9-1.2,3.5-2,4.8
					c-0.8,1.3-1.6,2.3-2.6,3.1c-1,0.8-2,1.4-3.1,1.9c-0.7,0.3-1.6,0.6-2.5,0.9C71,69.8,70,70,69.1,70.2c-1,0.2-2,0.3-3,0.5
					c-1,0.1-2.4,0.3-2.4,0.3c-0.4,0-0.9,0.3-1.2,0.6c0,0-1.1,1.3-2,2c-0.9,0.7-2,1.4-3.2,1.9c-0.8,0.4-1.5,0.6-2.1,0.7
					c-0.6,0.1-1,0.2-1.4,0.1c-0.4,0-0.7-0.2-0.9-0.4c-0.2-0.2-0.4-0.4-0.5-0.6c-0.2-0.5-0.2-0.9-0.1-1.3c0.2-0.4,0.5-0.8,0.8-1.2
					c0.4-0.4,0.8-0.7,1.4-1c0.5-0.3,1-0.6,1.5-0.8c1.1-0.5,2.2-0.8,3.2-1.1c1.1-0.3,2.3-0.5,2.3-0.5c0.4-0.1,0.8-0.4,0.9-0.8
					c0,0,0.2-0.7,0.3-1.5c0.1-0.8,0.2-1.7,0.3-2.7c0.1-1,0.1-2.1,0.1-3.4c0-1.2,0-3.4,0-3.4c0-0.4,0-1,0-1.4c0,0-0.1-3.8-0.2-5.7
					c-0.1-2-0.1-3.8-0.1-5.4c0-1.6,0.1-3.1,0.3-4.5c0.2-1.4,0.5-2.6,1-3.8c0.5-1.3,1.2-2.3,2-3.2c0.8-0.9,1.7-1.5,2.6-1.9
					c0.6-0.3,1.2-0.4,1.7-0.4c0.5,0,0.9,0.1,1.3,0.3c0.4,0.2,0.7,0.5,1,0.8s0.5,0.8,0.7,1.2c0.7,1.5,0.9,3.3,0.6,5.3
					c-0.3,2-1.9,5.9-1.9,5.9C71.8,45.3,71.5,45.5,71.3,45.4z M57,74.8c1.1-0.5,2-1,2.7-1.6c0.7-0.6,1.4-1.5,1.4-1.5
					c0.2-0.3,0.1-0.5-0.3-0.5c0,0-0.3,0-0.8,0.1c-0.5,0.1-1.1,0.2-1.6,0.3c-0.6,0.1-1.1,0.3-1.7,0.4c-0.5,0.2-1.1,0.3-1.6,0.6
					c-0.8,0.3-1.3,0.7-1.7,1.1c-0.3,0.4-0.4,0.8-0.2,1.3c0.1,0.2,0.2,0.3,0.3,0.4c0.2,0.1,0.4,0.2,0.7,0.2c0.3,0,0.7-0.1,1.1-0.2
					C55.7,75.3,56.3,75.1,57,74.8z"/>
			</g>
			<g>
				<path class="st1" d="M94.8,58.5c-2.4,1-4.5,1.2-6.3,0.6c-1.8-0.7-3.3-2.2-4.4-4.7c-0.3-0.7-0.6-1.4-0.8-2.2
					c-0.2-0.8-0.4-1.8-0.4-1.8c-0.1-0.4-0.2-1-0.2-1.4c0,0-0.3-3.2-0.1-5c0.2-1.9,0.6-3.6,1.2-5.2c0.6-1.6,1.5-3,2.5-4.1
					c1-1.2,2.2-2.1,3.5-2.6c1.3-0.6,2.5-0.7,3.5-0.4c1,0.3,1.8,1,2.3,2.1c0.3,0.6,0.4,1.3,0.4,2c0,0.7-0.1,1.4-0.3,2.2
					c-0.2,0.7-0.6,1.5-1,2.3c-0.5,0.8-1,1.5-1.7,2.2c-0.8,0.9-1.8,1.7-2.9,2.5c-1.1,0.8-3.4,1.9-3.4,1.9c-0.4,0.2-0.6,0.6-0.6,1
					c0,0,0.2,1.7,0.5,3c0.3,1.2,0.7,2.5,1.2,3.7c0.8,1.8,1.8,3,2.9,3.4s2.5,0.3,4.2-0.4c1.4-0.6,2.6-1.5,3.6-2.5
					c1-1.1,1.9-2.3,2.5-3.6s1.2-2.7,1.6-4.2c0.4-1.5,0.7-3.7,0.7-3.7c0.1-0.4,0.1-1,0.2-1.4l0.1-0.8c0-0.4,0.2-0.7,0.4-0.6
					s0.3,0.4,0.3,0.8l-0.1,0.8c0,0.4-0.1,1-0.2,1.4c0,0-0.4,2.8-0.8,4.4c-0.4,1.6-1,3.1-1.8,4.5c-0.7,1.4-1.7,2.6-2.7,3.7
					C97.5,57,96.2,57.8,94.8,58.5z M90.7,32.5c-0.8,0.4-1.6,1-2.2,1.8c-0.6,0.9-1.2,1.9-1.6,3.1c-0.4,1.2-0.7,2.6-0.9,4
					c-0.2,1.5-0.1,3.9-0.1,3.9c0,0.4,0.3,0.6,0.7,0.4c0,0,2-1,2.9-1.7c0.9-0.7,1.7-1.4,2.3-2.1c0.5-0.5,0.9-1.2,1.3-1.8
					c0.4-0.7,0.7-1.4,0.8-2.2c0.2-0.8,0.3-1.5,0.3-2.3c0-0.8-0.2-1.5-0.5-2.2c-0.2-0.4-0.3-0.6-0.5-0.8c-0.2-0.2-0.4-0.3-0.7-0.4
					c-0.3-0.1-0.5-0.1-0.8,0C91.2,32.3,90.9,32.4,90.7,32.5z"/>
				<path class="st2" d="M94.8,58.5c-2.4,1-4.5,1.2-6.3,0.6c-1.8-0.7-3.3-2.2-4.4-4.7c-0.3-0.7-0.6-1.4-0.8-2.2
					c-0.2-0.8-0.4-1.8-0.4-1.8c-0.1-0.4-0.2-1-0.2-1.4c0,0-0.3-3.2-0.1-5c0.2-1.9,0.6-3.6,1.2-5.2c0.6-1.6,1.5-3,2.5-4.1
					c1-1.2,2.2-2.1,3.5-2.6c1.3-0.6,2.5-0.7,3.5-0.4c1,0.3,1.8,1,2.3,2.1c0.3,0.6,0.4,1.3,0.4,2c0,0.7-0.1,1.4-0.3,2.2
					c-0.2,0.7-0.6,1.5-1,2.3c-0.5,0.8-1,1.5-1.7,2.2c-0.8,0.9-1.8,1.7-2.9,2.5c-1.1,0.8-3.4,1.9-3.4,1.9c-0.4,0.2-0.6,0.6-0.6,1
					c0,0,0.2,1.7,0.5,3c0.3,1.2,0.7,2.5,1.2,3.7c0.8,1.8,1.8,3,2.9,3.4s2.5,0.3,4.2-0.4c1.4-0.6,2.6-1.5,3.6-2.5
					c1-1.1,1.9-2.3,2.5-3.6s1.2-2.7,1.6-4.2c0.4-1.5,0.7-3.7,0.7-3.7c0.1-0.4,0.1-1,0.2-1.4l0.1-0.8c0-0.4,0.2-0.7,0.4-0.6
					s0.3,0.4,0.3,0.8l-0.1,0.8c0,0.4-0.1,1-0.2,1.4c0,0-0.4,2.8-0.8,4.4c-0.4,1.6-1,3.1-1.8,4.5c-0.7,1.4-1.7,2.6-2.7,3.7
					C97.5,57,96.2,57.8,94.8,58.5z M90.7,32.5c-0.8,0.4-1.6,1-2.2,1.8c-0.6,0.9-1.2,1.9-1.6,3.1c-0.4,1.2-0.7,2.6-0.9,4
					c-0.2,1.5-0.1,3.9-0.1,3.9c0,0.4,0.3,0.6,0.7,0.4c0,0,2-1,2.9-1.7c0.9-0.7,1.7-1.4,2.3-2.1c0.5-0.5,0.9-1.2,1.3-1.8
					c0.4-0.7,0.7-1.4,0.8-2.2c0.2-0.8,0.3-1.5,0.3-2.3c0-0.8-0.2-1.5-0.5-2.2c-0.2-0.4-0.3-0.6-0.5-0.8c-0.2-0.2-0.4-0.3-0.7-0.4
					c-0.3-0.1-0.5-0.1-0.8,0C91.2,32.3,90.9,32.4,90.7,32.5z"/>
			</g>
			<g>
				<path class="st1" d="M50.8,113c-0.4,0.2-0.9,0.2-1.2,0.1c-0.4-0.1-0.7-0.4-0.8-0.9c-0.2-0.4-0.2-0.8-0.1-1.2
					c0.1-0.4,0.3-0.6,0.7-0.8c0.1-0.1,0.1-0.1,0.1-0.1c0.2,0,0.3,0,0.4,0c0,0,0,0,0,0c0,0,0.1,0,0.1,0c0.1-0.1,0.1-0.2,0.1-0.3
					c-0.1-0.2-0.2-0.3-0.4-0.4c-0.2-0.1-0.4-0.2-0.7-0.2c-0.3,0-0.6,0-0.9,0c-0.3,0.1-0.6,0.2-1,0.3c-0.8,0.4-1.5,1-2.2,1.8
					c-0.6,0.8-1.1,1.8-1.6,3c-0.4,1.2-0.7,2.4-0.9,3.9c-0.2,1.4-0.3,2.8-0.2,4.3c0,1.5,0.2,2.9,0.5,4.4c0.3,1.5,0.7,2.8,1.3,4.1
					c0.4,1,0.9,1.8,1.4,2.4c0.5,0.6,1,1,1.6,1.3c0.6,0.3,1.2,0.4,1.9,0.3c0.7-0.1,1.4-0.3,2.3-0.6c1.2-0.5,2.3-1.3,3.3-2.2
					c1-0.9,1.8-2,2.6-3.3c0.7-1.3,1.3-2.7,1.8-4.3c0.5-1.6,0.9-4.4,0.9-4.4c0.1-0.4,0.1-1,0.2-1.4l0.1-0.8c0-0.4,0.2-0.7,0.4-0.6
					c0.2,0,0.3,0.4,0.3,0.8l-0.1,0.8c0,0.4-0.1,1-0.2,1.4c0,0-1.2,6.8-2.8,9.5c-1.5,2.6-3.7,4.5-6.4,5.7c-2.4,1.1-4.5,1.3-6.3,0.5
					s-3.2-2.3-4.3-4.7c-0.3-0.7-0.6-1.5-0.8-2.3c-0.2-0.8-0.4-1.8-0.4-1.8c-0.1-0.4-0.2-1-0.2-1.4c0,0-0.3-3.2-0.1-5
					c0.2-1.9,0.6-3.6,1.2-5.2c0.6-1.6,1.4-3,2.5-4.1c1-1.2,2.2-2.1,3.5-2.7c1.4-0.6,3-0.4,3-0.4c0.4,0.1,1,0.2,1.4,0.4
					c0,0,0.2,0.1,0.5,0.4c0.3,0.3,0.6,0.6,0.7,1c0.3,0.6,0.3,1.1,0.1,1.6C51.7,112.4,51.4,112.8,50.8,113z"/>
				<path class="st2" d="M50.8,113c-0.4,0.2-0.9,0.2-1.2,0.1c-0.4-0.1-0.7-0.4-0.8-0.9c-0.2-0.4-0.2-0.8-0.1-1.2
					c0.1-0.4,0.3-0.6,0.7-0.8c0.1-0.1,0.1-0.1,0.1-0.1c0.2,0,0.3,0,0.4,0c0,0,0,0,0,0c0,0,0.1,0,0.1,0c0.1-0.1,0.1-0.2,0.1-0.3
					c-0.1-0.2-0.2-0.3-0.4-0.4c-0.2-0.1-0.4-0.2-0.7-0.2c-0.3,0-0.6,0-0.9,0c-0.3,0.1-0.6,0.2-1,0.3c-0.8,0.4-1.5,1-2.2,1.8
					c-0.6,0.8-1.1,1.8-1.6,3c-0.4,1.2-0.7,2.4-0.9,3.9c-0.2,1.4-0.3,2.8-0.2,4.3c0,1.5,0.2,2.9,0.5,4.4c0.3,1.5,0.7,2.8,1.3,4.1
					c0.4,1,0.9,1.8,1.4,2.4c0.5,0.6,1,1,1.6,1.3c0.6,0.3,1.2,0.4,1.9,0.3c0.7-0.1,1.4-0.3,2.3-0.6c1.2-0.5,2.3-1.3,3.3-2.2
					c1-0.9,1.8-2,2.6-3.3c0.7-1.3,1.3-2.7,1.8-4.3c0.5-1.6,0.9-4.4,0.9-4.4c0.1-0.4,0.1-1,0.2-1.4l0.1-0.8c0-0.4,0.2-0.7,0.4-0.6
					c0.2,0,0.3,0.4,0.3,0.8l-0.1,0.8c0,0.4-0.1,1-0.2,1.4c0,0-1.2,6.8-2.8,9.5c-1.5,2.6-3.7,4.5-6.4,5.7c-2.4,1.1-4.5,1.3-6.3,0.5
					s-3.2-2.3-4.3-4.7c-0.3-0.7-0.6-1.5-0.8-2.3c-0.2-0.8-0.4-1.8-0.4-1.8c-0.1-0.4-0.2-1-0.2-1.4c0,0-0.3-3.2-0.1-5
					c0.2-1.9,0.6-3.6,1.2-5.2c0.6-1.6,1.4-3,2.5-4.1c1-1.2,2.2-2.1,3.5-2.7c1.4-0.6,3-0.4,3-0.4c0.4,0.1,1,0.2,1.4,0.4
					c0,0,0.2,0.1,0.5,0.4c0.3,0.3,0.6,0.6,0.7,1c0.3,0.6,0.3,1.1,0.1,1.6C51.7,112.4,51.4,112.8,50.8,113z"/>
			</g>
			<g>
				<path class="st1" d="M60,118.3c-0.1-0.4-0.2-1-0.2-1.4c0,0-0.3-3.2-0.1-5s0.7-3.6,1.3-5.2c0.7-1.6,1.5-3,2.6-4.2
					c1.1-1.2,2.3-2.1,3.6-2.7c1.1-0.5,2.1-0.7,3-0.7c0.9,0,1.7,0.3,2.5,0.7c0.7,0.4,1.4,1,1.9,1.7c0.6,0.7,1,1.6,1.4,2.5
					c0.4,1,0.8,2,1,3.1c0.2,1.1,0.4,2.1,0.5,3.1c0.1,0.6,0.1,1.3,0.1,1.9c0,0.6,0,1.1,0,1.1c0,0.4,0.2,0.9,0.5,1.1
					c0,0,0.2,0.2,0.7,0.3c0.5,0.1,1,0,1.7-0.2c0.4-0.2,0.7-0.4,1.1-0.7c0.4-0.3,0.7-0.7,1-1.1c0.3-0.5,0.6-1,0.8-1.6
					s0.3-1.4,0.3-1.4c0.1-0.4,0.1-1,0.2-1.4l0.1-0.8c0-0.4,0.2-0.7,0.4-0.6c0.2,0,0.3,0.4,0.3,0.8l-0.1,0.8c0,0.4-0.1,1-0.2,1.4
					c0,0-0.2,1.3-0.5,2c-0.3,0.7-0.6,1.3-1,1.8c-0.4,0.5-0.7,0.8-1.1,1.1c-0.4,0.3-0.7,0.5-1,0.6c-0.6,0.3-1.2,0.4-1.8,0.5
					c-0.6,0.1-0.9,0-0.9,0c-0.4-0.1-0.8,0.2-0.8,0.6c0,0-0.4,1.9-0.8,3.1c-0.4,1.2-0.9,2.3-1.5,3.3c-0.6,1-1.3,1.9-2.1,2.6
					c-0.8,0.7-1.7,1.3-2.6,1.7c-0.9,0.4-1.8,0.6-2.7,0.6c-0.9,0-1.7-0.2-2.5-0.6c-0.8-0.4-1.5-1-2.2-1.8c-0.7-0.8-1.3-1.8-1.8-2.9
					c-0.3-0.7-0.6-1.5-0.8-2.3C60.2,119.2,60,118.3,60,118.3z M70.3,125.9c0.8-0.3,1.5-0.8,2.1-1.5c0.6-0.7,1.2-1.5,1.6-2.5
					c0.5-1,0.9-2.1,1.2-3.3c0.3-1.2,0.5-3.2,0.5-3.2c0-0.4-0.2-0.9-0.5-1.2c0,0,0,0-0.2-0.3c-0.2-0.3-0.4-0.6-0.5-0.9
					c-0.2-0.4-0.3-0.8-0.3-1.2c-0.1-0.4-0.1-0.8,0-1.3c0.1-0.4,0.2-0.8,0.4-1.2c0.2-0.4,0.4-0.6,0.4-0.6c0.3-0.3,0.4-0.9,0.4-1.2
					c0,0-0.2-0.9-0.4-1.8c-0.2-0.8-0.5-1.7-0.8-2.4c-0.3-0.6-0.6-1.2-1-1.7s-0.8-0.9-1.3-1.2c-0.5-0.3-1-0.5-1.6-0.5
					c-0.6,0-1.2,0.1-1.9,0.4c-1,0.5-1.9,1.2-2.7,2.2c-0.8,1-1.4,2.2-1.8,3.6c-0.5,1.4-0.8,2.9-0.9,4.6c-0.1,1.7-0.1,3.5,0.2,5.4
					c0.2,1.3,0.4,2.5,0.7,3.7c0.3,1.2,0.7,2.3,1.1,3.2C66.3,125.8,68.1,126.9,70.3,125.9z"/>
				<path class="st2" d="M60,118.3c-0.1-0.4-0.2-1-0.2-1.4c0,0-0.3-3.2-0.1-5s0.7-3.6,1.3-5.2c0.7-1.6,1.5-3,2.6-4.2
					c1.1-1.2,2.3-2.1,3.6-2.7c1.1-0.5,2.1-0.7,3-0.7c0.9,0,1.7,0.3,2.5,0.7c0.7,0.4,1.4,1,1.9,1.7c0.6,0.7,1,1.6,1.4,2.5
					c0.4,1,0.8,2,1,3.1c0.2,1.1,0.4,2.1,0.5,3.1c0.1,0.6,0.1,1.3,0.1,1.9c0,0.6,0,1.1,0,1.1c0,0.4,0.2,0.9,0.5,1.1
					c0,0,0.2,0.2,0.7,0.3c0.5,0.1,1,0,1.7-0.2c0.4-0.2,0.7-0.4,1.1-0.7c0.4-0.3,0.7-0.7,1-1.1c0.3-0.5,0.6-1,0.8-1.6
					s0.3-1.4,0.3-1.4c0.1-0.4,0.1-1,0.2-1.4l0.1-0.8c0-0.4,0.2-0.7,0.4-0.6c0.2,0,0.3,0.4,0.3,0.8l-0.1,0.8c0,0.4-0.1,1-0.2,1.4
					c0,0-0.2,1.3-0.5,2c-0.3,0.7-0.6,1.3-1,1.8c-0.4,0.5-0.7,0.8-1.1,1.1c-0.4,0.3-0.7,0.5-1,0.6c-0.6,0.3-1.2,0.4-1.8,0.5
					c-0.6,0.1-0.9,0-0.9,0c-0.4-0.1-0.8,0.2-0.8,0.6c0,0-0.4,1.9-0.8,3.1c-0.4,1.2-0.9,2.3-1.5,3.3c-0.6,1-1.3,1.9-2.1,2.6
					c-0.8,0.7-1.7,1.3-2.6,1.7c-0.9,0.4-1.8,0.6-2.7,0.6c-0.9,0-1.7-0.2-2.5-0.6c-0.8-0.4-1.5-1-2.2-1.8c-0.7-0.8-1.3-1.8-1.8-2.9
					c-0.3-0.7-0.6-1.5-0.8-2.3C60.2,119.2,60,118.3,60,118.3z M70.3,125.9c0.8-0.3,1.5-0.8,2.1-1.5c0.6-0.7,1.2-1.5,1.6-2.5
					c0.5-1,0.9-2.1,1.2-3.3c0.3-1.2,0.5-3.2,0.5-3.2c0-0.4-0.2-0.9-0.5-1.2c0,0,0,0-0.2-0.3c-0.2-0.3-0.4-0.6-0.5-0.9
					c-0.2-0.4-0.3-0.8-0.3-1.2c-0.1-0.4-0.1-0.8,0-1.3c0.1-0.4,0.2-0.8,0.4-1.2c0.2-0.4,0.4-0.6,0.4-0.6c0.3-0.3,0.4-0.9,0.4-1.2
					c0,0-0.2-0.9-0.4-1.8c-0.2-0.8-0.5-1.7-0.8-2.4c-0.3-0.6-0.6-1.2-1-1.7s-0.8-0.9-1.3-1.2c-0.5-0.3-1-0.5-1.6-0.5
					c-0.6,0-1.2,0.1-1.9,0.4c-1,0.5-1.9,1.2-2.7,2.2c-0.8,1-1.4,2.2-1.8,3.6c-0.5,1.4-0.8,2.9-0.9,4.6c-0.1,1.7-0.1,3.5,0.2,5.4
					c0.2,1.3,0.4,2.5,0.7,3.7c0.3,1.2,0.7,2.3,1.1,3.2C66.3,125.8,68.1,126.9,70.3,125.9z"/>
			</g>
			<g>
				<path class="st1" d="M77.7,95.9c-0.1-0.2,0.1-0.5,0.5-0.7l4.4-1.9c0.4-0.2,0.6-0.6,0.6-1l-0.1-1.1c0-0.4,0-1,0-1.4
					c0,0,0.1-4.9,1-7c0.9-2.1,2.3-3.5,4.2-4.4c0.6-0.3,1.2-0.4,1.7-0.5c0.6-0.1,1.1,0,1.6,0.1s0.9,0.3,1.3,0.6
					c0.4,0.3,0.7,0.6,0.8,1.1c0.3,0.6,0.3,1.2,0.2,1.7c-0.2,0.5-0.5,0.9-1.1,1.1c-0.4,0.2-0.9,0.2-1.2,0.1c-0.4-0.1-0.7-0.4-0.8-0.9
					c-0.2-0.4-0.2-0.8-0.1-1.2c0.1-0.4,0.3-0.6,0.7-0.8c0.1-0.1,0.1-0.1,0.1-0.1c0.2,0,0.3,0,0.4,0c0,0,0,0,0,0c0,0,0.1,0,0.1,0
					c0.1-0.1,0.1-0.2,0.1-0.3c-0.1-0.2-0.2-0.3-0.5-0.4c-0.2-0.1-0.5-0.1-0.8-0.1c-0.3,0-0.6,0.1-0.9,0.1c-0.3,0.1-0.6,0.2-0.9,0.3
					c-0.6,0.3-1.2,0.7-1.6,1.2c-0.4,0.5-0.7,1.1-1,1.9c-0.2,0.8-0.4,1.7-0.4,2.8c-0.1,1.1,0,3.1,0,3.1c0,0.4,0.1,1,0.1,1.4l0.1,1.3
					c0,0.4,0.3,0.6,0.7,0.4l4.6-2c0.4-0.2,0.7-0.1,0.8,0.1c0.1,0.2-0.1,0.5-0.5,0.7l-4.9,2.2c-0.4,0.2-0.6,0.6-0.6,1l2.5,36.7
					c0,0.4-0.2,0.8-0.6,1l-1.6,0.7c-0.4,0.2-0.7,0-0.7-0.4l-2.5-36.7c0-0.4-0.3-0.6-0.7-0.4L78.6,96C78.2,96.2,77.8,96.2,77.7,95.9z
					"/>
				<path class="st2" d="M77.7,95.9c-0.1-0.2,0.1-0.5,0.5-0.7l4.4-1.9c0.4-0.2,0.6-0.6,0.6-1l-0.1-1.1c0-0.4,0-1,0-1.4
					c0,0,0.1-4.9,1-7c0.9-2.1,2.3-3.5,4.2-4.4c0.6-0.3,1.2-0.4,1.7-0.5c0.6-0.1,1.1,0,1.6,0.1s0.9,0.3,1.3,0.6
					c0.4,0.3,0.7,0.6,0.8,1.1c0.3,0.6,0.3,1.2,0.2,1.7c-0.2,0.5-0.5,0.9-1.1,1.1c-0.4,0.2-0.9,0.2-1.2,0.1c-0.4-0.1-0.7-0.4-0.8-0.9
					c-0.2-0.4-0.2-0.8-0.1-1.2c0.1-0.4,0.3-0.6,0.7-0.8c0.1-0.1,0.1-0.1,0.1-0.1c0.2,0,0.3,0,0.4,0c0,0,0,0,0,0c0,0,0.1,0,0.1,0
					c0.1-0.1,0.1-0.2,0.1-0.3c-0.1-0.2-0.2-0.3-0.5-0.4c-0.2-0.1-0.5-0.1-0.8-0.1c-0.3,0-0.6,0.1-0.9,0.1c-0.3,0.1-0.6,0.2-0.9,0.3
					c-0.6,0.3-1.2,0.7-1.6,1.2c-0.4,0.5-0.7,1.1-1,1.9c-0.2,0.8-0.4,1.7-0.4,2.8c-0.1,1.1,0,3.1,0,3.1c0,0.4,0.1,1,0.1,1.4l0.1,1.3
					c0,0.4,0.3,0.6,0.7,0.4l4.6-2c0.4-0.2,0.7-0.1,0.8,0.1c0.1,0.2-0.1,0.5-0.5,0.7l-4.9,2.2c-0.4,0.2-0.6,0.6-0.6,1l2.5,36.7
					c0,0.4-0.2,0.8-0.6,1l-1.6,0.7c-0.4,0.2-0.7,0-0.7-0.4l-2.5-36.7c0-0.4-0.3-0.6-0.7-0.4L78.6,96C78.2,96.2,77.8,96.2,77.7,95.9z
					"/>
			</g>
			<g>
				<path class="st1" d="M92.3,89.5c-0.1-0.2,0.1-0.5,0.5-0.7l4.4-1.9c0.4-0.2,0.6-0.6,0.6-1l-0.1-1.1c0-0.4,0-1,0-1.4
					c0,0,0.1-4.9,1-7c0.9-2.1,2.3-3.5,4.2-4.4c0.6-0.3,1.2-0.4,1.7-0.5c0.6-0.1,1.1,0,1.6,0.1c0.5,0.1,0.9,0.3,1.3,0.6
					c0.4,0.3,0.7,0.6,0.8,1.1c0.3,0.6,0.3,1.2,0.2,1.7c-0.2,0.5-0.5,0.9-1.1,1.1c-0.4,0.2-0.9,0.2-1.2,0.1c-0.4-0.1-0.7-0.4-0.8-0.9
					c-0.2-0.4-0.2-0.8-0.1-1.2c0.1-0.4,0.3-0.6,0.7-0.8c0.1-0.1,0.1-0.1,0.1-0.1c0.2,0,0.3,0,0.4,0c0,0,0,0,0,0c0,0,0.1,0,0.1,0
					c0.1-0.1,0.1-0.2,0.1-0.3c-0.1-0.2-0.2-0.3-0.5-0.4c-0.2-0.1-0.5-0.1-0.8-0.1c-0.3,0-0.6,0.1-0.9,0.1c-0.3,0.1-0.6,0.2-0.9,0.3
					c-0.6,0.3-1.2,0.7-1.6,1.2c-0.4,0.5-0.7,1.1-1,1.9c-0.2,0.8-0.4,1.7-0.4,2.8c-0.1,1.1,0,3.1,0,3.1c0,0.4,0.1,1,0.1,1.4l0.1,1.3
					c0,0.4,0.3,0.6,0.7,0.4l4.6-2c0.4-0.2,0.7-0.1,0.8,0.1c0.1,0.2-0.1,0.5-0.5,0.7l-4.9,2.2c-0.4,0.2-0.6,0.6-0.6,1l2.5,36.7
					c0,0.4-0.2,0.8-0.6,1l-1.6,0.7c-0.4,0.2-0.7,0-0.7-0.4l-2.5-36.7c0-0.4-0.3-0.6-0.7-0.4l-4.1,1.8C92.8,89.8,92.4,89.7,92.3,89.5
					z"/>
				<path class="st2" d="M92.3,89.5c-0.1-0.2,0.1-0.5,0.5-0.7l4.4-1.9c0.4-0.2,0.6-0.6,0.6-1l-0.1-1.1c0-0.4,0-1,0-1.4
					c0,0,0.1-4.9,1-7c0.9-2.1,2.3-3.5,4.2-4.4c0.6-0.3,1.2-0.4,1.7-0.5c0.6-0.1,1.1,0,1.6,0.1c0.5,0.1,0.9,0.3,1.3,0.6
					c0.4,0.3,0.7,0.6,0.8,1.1c0.3,0.6,0.3,1.2,0.2,1.7c-0.2,0.5-0.5,0.9-1.1,1.1c-0.4,0.2-0.9,0.2-1.2,0.1c-0.4-0.1-0.7-0.4-0.8-0.9
					c-0.2-0.4-0.2-0.8-0.1-1.2c0.1-0.4,0.3-0.6,0.7-0.8c0.1-0.1,0.1-0.1,0.1-0.1c0.2,0,0.3,0,0.4,0c0,0,0,0,0,0c0,0,0.1,0,0.1,0
					c0.1-0.1,0.1-0.2,0.1-0.3c-0.1-0.2-0.2-0.3-0.5-0.4c-0.2-0.1-0.5-0.1-0.8-0.1c-0.3,0-0.6,0.1-0.9,0.1c-0.3,0.1-0.6,0.2-0.9,0.3
					c-0.6,0.3-1.2,0.7-1.6,1.2c-0.4,0.5-0.7,1.1-1,1.9c-0.2,0.8-0.4,1.7-0.4,2.8c-0.1,1.1,0,3.1,0,3.1c0,0.4,0.1,1,0.1,1.4l0.1,1.3
					c0,0.4,0.3,0.6,0.7,0.4l4.6-2c0.4-0.2,0.7-0.1,0.8,0.1c0.1,0.2-0.1,0.5-0.5,0.7l-4.9,2.2c-0.4,0.2-0.6,0.6-0.6,1l2.5,36.7
					c0,0.4-0.2,0.8-0.6,1l-1.6,0.7c-0.4,0.2-0.7,0-0.7-0.4l-2.5-36.7c0-0.4-0.3-0.6-0.7-0.4l-4.1,1.8C92.8,89.8,92.4,89.7,92.3,89.5
					z"/>
			</g>
			<g>
				<path class="st1" d="M125.4,102.7c-2.4,1-4.5,1.2-6.3,0.6c-1.8-0.7-3.3-2.2-4.4-4.7c-0.3-0.7-0.6-1.4-0.8-2.2
					c-0.2-0.8-0.4-1.8-0.4-1.8c-0.1-0.4-0.2-1-0.2-1.4c0,0-0.3-3.2-0.1-5c0.2-1.9,0.6-3.6,1.2-5.2c0.6-1.6,1.5-3,2.5-4.1
					c1-1.2,2.2-2.1,3.5-2.6c1.3-0.6,2.5-0.7,3.5-0.4c1,0.3,1.8,1,2.3,2.1c0.3,0.6,0.4,1.3,0.4,2c0,0.7-0.1,1.4-0.3,2.2
					c-0.2,0.7-0.6,1.5-1,2.3c-0.5,0.8-1,1.5-1.7,2.2c-0.8,0.9-1.8,1.7-2.9,2.5c-1.1,0.8-3.4,1.9-3.4,1.9c-0.4,0.2-0.6,0.6-0.6,1
					c0,0,0.2,1.7,0.5,3c0.3,1.2,0.7,2.5,1.2,3.7c0.8,1.8,1.8,3,2.9,3.4c1.1,0.5,2.5,0.3,4.2-0.4c1.4-0.6,2.6-1.5,3.6-2.5
					c1-1.1,1.9-2.3,2.5-3.6c0.7-1.3,1.2-2.7,1.6-4.2c0.4-1.5,0.7-3.7,0.7-3.7c0.1-0.4,0.1-1,0.2-1.4l0.1-0.8c0-0.4,0.2-0.7,0.4-0.6
					c0.2,0,0.3,0.4,0.3,0.8l-0.1,0.8c0,0.4-0.1,1-0.2,1.4c0,0-0.4,2.8-0.8,4.4c-0.4,1.6-1,3.1-1.8,4.5c-0.7,1.4-1.7,2.6-2.7,3.7
					C128.1,101.2,126.8,102,125.4,102.7z M121.3,76.7c-0.8,0.4-1.6,1-2.2,1.8c-0.6,0.9-1.2,1.9-1.6,3.1c-0.4,1.2-0.7,2.6-0.9,4
					c-0.2,1.5-0.1,3.9-0.1,3.9c0,0.4,0.3,0.6,0.7,0.4c0,0,2-1,2.9-1.7c0.9-0.7,1.7-1.4,2.3-2.1c0.5-0.5,0.9-1.2,1.3-1.8
					c0.4-0.7,0.7-1.4,0.8-2.2c0.2-0.8,0.3-1.5,0.3-2.3c0-0.8-0.2-1.5-0.5-2.2c-0.2-0.4-0.3-0.6-0.5-0.8c-0.2-0.2-0.4-0.3-0.7-0.4
					c-0.3-0.1-0.5-0.1-0.8,0C121.8,76.5,121.5,76.6,121.3,76.7z"/>
				<path class="st2" d="M125.4,102.7c-2.4,1-4.5,1.2-6.3,0.6c-1.8-0.7-3.3-2.2-4.4-4.7c-0.3-0.7-0.6-1.4-0.8-2.2
					c-0.2-0.8-0.4-1.8-0.4-1.8c-0.1-0.4-0.2-1-0.2-1.4c0,0-0.3-3.2-0.1-5c0.2-1.9,0.6-3.6,1.2-5.2c0.6-1.6,1.5-3,2.5-4.1
					c1-1.2,2.2-2.1,3.5-2.6c1.3-0.6,2.5-0.7,3.5-0.4c1,0.3,1.8,1,2.3,2.1c0.3,0.6,0.4,1.3,0.4,2c0,0.7-0.1,1.4-0.3,2.2
					c-0.2,0.7-0.6,1.5-1,2.3c-0.5,0.8-1,1.5-1.7,2.2c-0.8,0.9-1.8,1.7-2.9,2.5c-1.1,0.8-3.4,1.9-3.4,1.9c-0.4,0.2-0.6,0.6-0.6,1
					c0,0,0.2,1.7,0.5,3c0.3,1.2,0.7,2.5,1.2,3.7c0.8,1.8,1.8,3,2.9,3.4c1.1,0.5,2.5,0.3,4.2-0.4c1.4-0.6,2.6-1.5,3.6-2.5
					c1-1.1,1.9-2.3,2.5-3.6c0.7-1.3,1.2-2.7,1.6-4.2c0.4-1.5,0.7-3.7,0.7-3.7c0.1-0.4,0.1-1,0.2-1.4l0.1-0.8c0-0.4,0.2-0.7,0.4-0.6
					c0.2,0,0.3,0.4,0.3,0.8l-0.1,0.8c0,0.4-0.1,1-0.2,1.4c0,0-0.4,2.8-0.8,4.4c-0.4,1.6-1,3.1-1.8,4.5c-0.7,1.4-1.7,2.6-2.7,3.7
					C128.1,101.2,126.8,102,125.4,102.7z M121.3,76.7c-0.8,0.4-1.6,1-2.2,1.8c-0.6,0.9-1.2,1.9-1.6,3.1c-0.4,1.2-0.7,2.6-0.9,4
					c-0.2,1.5-0.1,3.9-0.1,3.9c0,0.4,0.3,0.6,0.7,0.4c0,0,2-1,2.9-1.7c0.9-0.7,1.7-1.4,2.3-2.1c0.5-0.5,0.9-1.2,1.3-1.8
					c0.4-0.7,0.7-1.4,0.8-2.2c0.2-0.8,0.3-1.5,0.3-2.3c0-0.8-0.2-1.5-0.5-2.2c-0.2-0.4-0.3-0.6-0.5-0.8c-0.2-0.2-0.4-0.3-0.7-0.4
					c-0.3-0.1-0.5-0.1-0.8,0C121.8,76.5,121.5,76.6,121.3,76.7z"/>
			</g>
			<g>
				<path class="st1" d="M146.1,93.5c-2.4,1-4.5,1.2-6.3,0.6c-1.8-0.7-3.3-2.2-4.4-4.7c-0.3-0.7-0.6-1.4-0.8-2.2
					c-0.2-0.8-0.4-1.8-0.4-1.8c-0.1-0.4-0.2-1-0.2-1.4c0,0-0.3-3.2-0.1-5c0.2-1.9,0.6-3.6,1.2-5.2c0.6-1.6,1.5-3,2.5-4.1
					c1-1.2,2.2-2.1,3.5-2.6c1.3-0.6,2.5-0.7,3.5-0.4c1,0.3,1.8,1,2.3,2.1c0.3,0.6,0.4,1.3,0.4,2c0,0.7-0.1,1.4-0.3,2.2
					c-0.2,0.7-0.6,1.5-1,2.3c-0.5,0.8-1,1.5-1.7,2.2c-0.8,0.9-1.8,1.7-2.9,2.5c-1.1,0.8-3.4,1.9-3.4,1.9c-0.4,0.2-0.6,0.6-0.6,1
					c0,0,0.2,1.7,0.5,3c0.3,1.2,0.7,2.5,1.2,3.7c0.8,1.8,1.8,3,2.9,3.4c1.1,0.5,2.5,0.3,4.2-0.4c1.4-0.6,2.6-1.5,3.6-2.5
					c1-1.1,1.9-2.3,2.5-3.6c0.7-1.3,1.2-2.7,1.6-4.2c0.4-1.5,0.7-3.7,0.7-3.7c0.1-0.4,0.1-1,0.2-1.4l0.1-0.8c0-0.4,0.2-0.7,0.4-0.6
					c0.2,0,0.3,0.4,0.3,0.8l-0.1,0.8c0,0.4-0.1,1-0.2,1.4c0,0-0.4,2.8-0.8,4.4c-0.4,1.6-1,3.1-1.8,4.5c-0.7,1.4-1.7,2.6-2.7,3.7
					C148.9,92,147.6,92.8,146.1,93.5z M142,67.5c-0.8,0.4-1.6,1-2.2,1.8c-0.6,0.9-1.2,1.9-1.6,3.1c-0.4,1.2-0.7,2.6-0.9,4
					c-0.2,1.5-0.1,3.9-0.1,3.9c0,0.4,0.3,0.6,0.7,0.4c0,0,2-1,2.9-1.7c0.9-0.7,1.7-1.4,2.3-2.1c0.5-0.5,0.9-1.2,1.3-1.8
					c0.4-0.7,0.7-1.4,0.8-2.2c0.2-0.8,0.3-1.5,0.3-2.3c0-0.8-0.2-1.5-0.5-2.2c-0.2-0.4-0.3-0.6-0.5-0.8c-0.2-0.2-0.4-0.3-0.7-0.4
					c-0.3-0.1-0.5-0.1-0.8,0C142.6,67.3,142.3,67.4,142,67.5z"/>
				<path class="st2" d="M146.1,93.5c-2.4,1-4.5,1.2-6.3,0.6c-1.8-0.7-3.3-2.2-4.4-4.7c-0.3-0.7-0.6-1.4-0.8-2.2
					c-0.2-0.8-0.4-1.8-0.4-1.8c-0.1-0.4-0.2-1-0.2-1.4c0,0-0.3-3.2-0.1-5c0.2-1.9,0.6-3.6,1.2-5.2c0.6-1.6,1.5-3,2.5-4.1
					c1-1.2,2.2-2.1,3.5-2.6c1.3-0.6,2.5-0.7,3.5-0.4c1,0.3,1.8,1,2.3,2.1c0.3,0.6,0.4,1.3,0.4,2c0,0.7-0.1,1.4-0.3,2.2
					c-0.2,0.7-0.6,1.5-1,2.3c-0.5,0.8-1,1.5-1.7,2.2c-0.8,0.9-1.8,1.7-2.9,2.5c-1.1,0.8-3.4,1.9-3.4,1.9c-0.4,0.2-0.6,0.6-0.6,1
					c0,0,0.2,1.7,0.5,3c0.3,1.2,0.7,2.5,1.2,3.7c0.8,1.8,1.8,3,2.9,3.4c1.1,0.5,2.5,0.3,4.2-0.4c1.4-0.6,2.6-1.5,3.6-2.5
					c1-1.1,1.9-2.3,2.5-3.6c0.7-1.3,1.2-2.7,1.6-4.2c0.4-1.5,0.7-3.7,0.7-3.7c0.1-0.4,0.1-1,0.2-1.4l0.1-0.8c0-0.4,0.2-0.7,0.4-0.6
					c0.2,0,0.3,0.4,0.3,0.8l-0.1,0.8c0,0.4-0.1,1-0.2,1.4c0,0-0.4,2.8-0.8,4.4c-0.4,1.6-1,3.1-1.8,4.5c-0.7,1.4-1.7,2.6-2.7,3.7
					C148.9,92,147.6,92.8,146.1,93.5z M142,67.5c-0.8,0.4-1.6,1-2.2,1.8c-0.6,0.9-1.2,1.9-1.6,3.1c-0.4,1.2-0.7,2.6-0.9,4
					c-0.2,1.5-0.1,3.9-0.1,3.9c0,0.4,0.3,0.6,0.7,0.4c0,0,2-1,2.9-1.7c0.9-0.7,1.7-1.4,2.3-2.1c0.5-0.5,0.9-1.2,1.3-1.8
					c0.4-0.7,0.7-1.4,0.8-2.2c0.2-0.8,0.3-1.5,0.3-2.3c0-0.8-0.2-1.5-0.5-2.2c-0.2-0.4-0.3-0.6-0.5-0.8c-0.2-0.2-0.4-0.3-0.7-0.4
					c-0.3-0.1-0.5-0.1-0.8,0C142.6,67.3,142.3,67.4,142,67.5z"/>
			</g>
			<g>
				<path class="st1" d="M69.9,178.2c-0.3-0.7-0.5-1.4-0.7-2.1c-0.1-0.7-0.2-1.4-0.2-2.1c0-0.7,0.1-1.3,0.2-1.9
					c0.1-0.6,0.3-0.9,0.3-0.9c0.2-0.4,0.4-1,0.4-1.4l2.7-14.3c0.1-0.4,0.1-1,0-1.4c0,0-0.3-1.4-0.2-2.2c0.1-0.8,0.4-1.3,0.9-1.5
					c0.4-0.2,0.8-0.2,1.1-0.1c0.4,0.1,0.6,0.3,0.7,0.6c0.1,0.2,0.1,0.4,0.1,0.7c0,0.2-0.1,0.5-0.3,0.8c-0.2,0.4-0.3,0.7-0.4,1
					c-0.1,0.3-0.2,0.6-0.2,0.9c0,0.3,0,0.6,0,0.8c0.1,0.3,0.2,0.6,0.3,0.8c0.1,0.3,0.3,0.6,0.5,0.9c0.2,0.3,0.4,0.7,0.8,1.1
					c0.3,0.4,0.8,1,1.3,1.6c0.5,0.6,1.2,1.4,2,2.4c0.8,0.9,1.5,1.9,2.1,2.8c0.6,0.9,1.1,1.9,1.5,2.8c1.6,3.6-0.1,9.2-0.1,9.2
					c-0.1,0.4-0.4,1-0.6,1.3c0,0-0.8,1.1-1.5,1.8c-0.8,0.7-1.6,1.2-2.5,1.6c-0.9,0.4-1.7,0.6-2.5,0.6c-0.8,0-1.6-0.1-2.3-0.4
					c-0.7-0.3-1.3-0.7-1.9-1.3C70.8,179.8,70.3,179,69.9,178.2z M73.3,156.4c-0.1-0.1-0.2,0.1-0.2,0.5l-2.2,11.9
					c-0.1,0.4,0.2,0.6,0.6,0.5c0,0,0.1,0,0.5,0.1c0.4,0.2,0.7,0.5,0.9,0.9c0.1,0.2,0.2,0.5,0.2,0.7c0,0.2,0,0.5,0,0.7
					c0,0.2-0.1,0.4-0.2,0.6c-0.1,0.2-0.3,0.3-0.4,0.4c-0.2,0.1-0.4,0.1-0.6,0.1c-0.2,0-0.4,0-0.7,0.1c-0.3,0.1-0.5,0.3-0.6,0.6
					c-0.2,0.3-0.3,0.7-0.3,1.1c0,0.4,0,0.9,0.1,1.4c0.1,0.5,0.3,1,0.5,1.6c0.3,0.7,0.7,1.3,1.2,1.8c0.5,0.5,1,0.9,1.5,1.1
					c0.6,0.2,1.2,0.4,1.8,0.3c0.6,0,1.3-0.2,2-0.5c0.9-0.4,1.7-1,2.3-1.7c0.6-0.7,1.1-1.9,1.1-1.9c0.1-0.4,0.3-1,0.3-1.4
					c0,0,0.1-4.8-1.5-8.4c-0.2-0.4-0.4-0.9-0.6-1.3c-0.2-0.4-0.4-0.9-0.7-1.3c-0.3-0.5-0.5-0.9-0.9-1.5s-0.7-1.1-1.1-1.7
					c-0.7-1.1-1.3-2-1.7-2.7c-0.4-0.7-0.7-1.2-0.7-1.2C73.5,156.9,73.4,156.6,73.3,156.4z"/>
				<path class="st2" d="M69.9,178.2c-0.3-0.7-0.5-1.4-0.7-2.1c-0.1-0.7-0.2-1.4-0.2-2.1c0-0.7,0.1-1.3,0.2-1.9
					c0.1-0.6,0.3-0.9,0.3-0.9c0.2-0.4,0.4-1,0.4-1.4l2.7-14.3c0.1-0.4,0.1-1,0-1.4c0,0-0.3-1.4-0.2-2.2c0.1-0.8,0.4-1.3,0.9-1.5
					c0.4-0.2,0.8-0.2,1.1-0.1c0.4,0.1,0.6,0.3,0.7,0.6c0.1,0.2,0.1,0.4,0.1,0.7c0,0.2-0.1,0.5-0.3,0.8c-0.2,0.4-0.3,0.7-0.4,1
					c-0.1,0.3-0.2,0.6-0.2,0.9c0,0.3,0,0.6,0,0.8c0.1,0.3,0.2,0.6,0.3,0.8c0.1,0.3,0.3,0.6,0.5,0.9c0.2,0.3,0.4,0.7,0.8,1.1
					c0.3,0.4,0.8,1,1.3,1.6c0.5,0.6,1.2,1.4,2,2.4c0.8,0.9,1.5,1.9,2.1,2.8c0.6,0.9,1.1,1.9,1.5,2.8c1.6,3.6-0.1,9.2-0.1,9.2
					c-0.1,0.4-0.4,1-0.6,1.3c0,0-0.8,1.1-1.5,1.8c-0.8,0.7-1.6,1.2-2.5,1.6c-0.9,0.4-1.7,0.6-2.5,0.6c-0.8,0-1.6-0.1-2.3-0.4
					c-0.7-0.3-1.3-0.7-1.9-1.3C70.8,179.8,70.3,179,69.9,178.2z M73.3,156.4c-0.1-0.1-0.2,0.1-0.2,0.5l-2.2,11.9
					c-0.1,0.4,0.2,0.6,0.6,0.5c0,0,0.1,0,0.5,0.1c0.4,0.2,0.7,0.5,0.9,0.9c0.1,0.2,0.2,0.5,0.2,0.7c0,0.2,0,0.5,0,0.7
					c0,0.2-0.1,0.4-0.2,0.6c-0.1,0.2-0.3,0.3-0.4,0.4c-0.2,0.1-0.4,0.1-0.6,0.1c-0.2,0-0.4,0-0.7,0.1c-0.3,0.1-0.5,0.3-0.6,0.6
					c-0.2,0.3-0.3,0.7-0.3,1.1c0,0.4,0,0.9,0.1,1.4c0.1,0.5,0.3,1,0.5,1.6c0.3,0.7,0.7,1.3,1.2,1.8c0.5,0.5,1,0.9,1.5,1.1
					c0.6,0.2,1.2,0.4,1.8,0.3c0.6,0,1.3-0.2,2-0.5c0.9-0.4,1.7-1,2.3-1.7c0.6-0.7,1.1-1.9,1.1-1.9c0.1-0.4,0.3-1,0.3-1.4
					c0,0,0.1-4.8-1.5-8.4c-0.2-0.4-0.4-0.9-0.6-1.3c-0.2-0.4-0.4-0.9-0.7-1.3c-0.3-0.5-0.5-0.9-0.9-1.5s-0.7-1.1-1.1-1.7
					c-0.7-1.1-1.3-2-1.7-2.7c-0.4-0.7-0.7-1.2-0.7-1.2C73.5,156.9,73.4,156.6,73.3,156.4z"/>
			</g>
			<g>
				<path class="st1" d="M88.2,137c0-0.4,0.2-0.8,0.6-1l1.6-0.7c0.4-0.2,0.7,0,0.7,0.4l1.4,20.4c0,0.4,0.1,0.4,0.1,0
					c0,0,0.4-2.8,0.7-4.3c0.3-1.5,0.7-2.7,1.2-3.8c0.5-1.1,1.1-2,1.7-2.7c0.7-0.7,1.5-1.3,2.5-1.7c0.8-0.4,1.6-0.5,2.3-0.5
					c0.7,0,1.4,0.1,2,0.4c0.6,0.3,1.2,0.7,1.7,1.3c0.5,0.6,0.9,1.3,1.3,2.1c0.3,0.6,0.5,1.3,0.6,2.2c0.1,0.9,0.2,1.9,0.3,2.9
					c0.1,1,0.1,2.1,0.2,3.2c0,1.1,0.1,2.2,0.2,3.2c0.1,1,0.2,2,0.3,2.8c0.1,0.9,0.3,1.6,0.5,2.1c0.4,0.9,1,1.5,1.7,1.8
					c0.7,0.3,1.6,0.3,2.6-0.2c0.9-0.4,1.6-1,2.3-1.7c0.6-0.7,1.2-1.7,1.7-2.8c0.5-1.1,0.8-2.4,1.1-4c0.3-1.5,0.7-4.5,0.7-4.5
					c0-0.4,0.1-1,0.2-1.4l0.1-0.8c0-0.4,0.2-0.7,0.4-0.6s0.3,0.4,0.3,0.8l-0.1,0.8c0,0.4-0.1,1-0.2,1.4c0,0-0.4,3.3-0.7,4.9
					c-0.3,1.6-0.7,3-1.3,4.2c-0.5,1.2-1.1,2.2-1.9,3c-0.7,0.8-1.6,1.4-2.6,1.9c-0.8,0.4-1.6,0.5-2.3,0.6c-0.7,0-1.4-0.1-2-0.4
					c-0.6-0.3-1.2-0.7-1.6-1.2c-0.5-0.5-0.9-1.2-1.2-2c-0.2-0.6-0.4-1.3-0.6-2.2c-0.1-0.9-0.2-1.9-0.3-2.9c-0.1-1.1-0.1-2.2-0.2-3.3
					c0-1.1-0.1-2.2-0.2-3.2c-0.1-1-0.2-2-0.3-2.8c-0.1-0.9-0.3-1.5-0.5-2.1c-0.5-1-1.1-1.7-1.8-2.1c-0.7-0.4-1.6-0.4-2.6,0.1
					c-0.9,0.4-1.7,1-2.3,1.8c-0.6,0.8-1.2,1.8-1.7,3.1c-0.5,1.3-0.9,2.9-1.2,4.7c-0.3,1.9-0.7,5.9-0.7,5.9c0,0.4,0,1,0,1.4l0.8,11.7
					c0,0.4-0.2,0.8-0.6,1l-1.6,0.7c-0.4,0.2-0.7,0-0.7-0.4L88.2,137z"/>
				<path class="st2" d="M88.2,137c0-0.4,0.2-0.8,0.6-1l1.6-0.7c0.4-0.2,0.7,0,0.7,0.4l1.4,20.4c0,0.4,0.1,0.4,0.1,0
					c0,0,0.4-2.8,0.7-4.3c0.3-1.5,0.7-2.7,1.2-3.8c0.5-1.1,1.1-2,1.7-2.7c0.7-0.7,1.5-1.3,2.5-1.7c0.8-0.4,1.6-0.5,2.3-0.5
					c0.7,0,1.4,0.1,2,0.4c0.6,0.3,1.2,0.7,1.7,1.3c0.5,0.6,0.9,1.3,1.3,2.1c0.3,0.6,0.5,1.3,0.6,2.2c0.1,0.9,0.2,1.9,0.3,2.9
					c0.1,1,0.1,2.1,0.2,3.2c0,1.1,0.1,2.2,0.2,3.2c0.1,1,0.2,2,0.3,2.8c0.1,0.9,0.3,1.6,0.5,2.1c0.4,0.9,1,1.5,1.7,1.8
					c0.7,0.3,1.6,0.3,2.6-0.2c0.9-0.4,1.6-1,2.3-1.7c0.6-0.7,1.2-1.7,1.7-2.8c0.5-1.1,0.8-2.4,1.1-4c0.3-1.5,0.7-4.5,0.7-4.5
					c0-0.4,0.1-1,0.2-1.4l0.1-0.8c0-0.4,0.2-0.7,0.4-0.6s0.3,0.4,0.3,0.8l-0.1,0.8c0,0.4-0.1,1-0.2,1.4c0,0-0.4,3.3-0.7,4.9
					c-0.3,1.6-0.7,3-1.3,4.2c-0.5,1.2-1.1,2.2-1.9,3c-0.7,0.8-1.6,1.4-2.6,1.9c-0.8,0.4-1.6,0.5-2.3,0.6c-0.7,0-1.4-0.1-2-0.4
					c-0.6-0.3-1.2-0.7-1.6-1.2c-0.5-0.5-0.9-1.2-1.2-2c-0.2-0.6-0.4-1.3-0.6-2.2c-0.1-0.9-0.2-1.9-0.3-2.9c-0.1-1.1-0.1-2.2-0.2-3.3
					c0-1.1-0.1-2.2-0.2-3.2c-0.1-1-0.2-2-0.3-2.8c-0.1-0.9-0.3-1.5-0.5-2.1c-0.5-1-1.1-1.7-1.8-2.1c-0.7-0.4-1.6-0.4-2.6,0.1
					c-0.9,0.4-1.7,1-2.3,1.8c-0.6,0.8-1.2,1.8-1.7,3.1c-0.5,1.3-0.9,2.9-1.2,4.7c-0.3,1.9-0.7,5.9-0.7,5.9c0,0.4,0,1,0,1.4l0.8,11.7
					c0,0.4-0.2,0.8-0.6,1l-1.6,0.7c-0.4,0.2-0.7,0-0.7-0.4L88.2,137z"/>
			</g>
			<g>
				<path class="st1" d="M118.5,150.1c-0.1-0.4-0.2-1-0.2-1.4c0,0-0.3-3.2-0.1-5c0.2-1.9,0.7-3.6,1.3-5.2c0.7-1.6,1.5-3,2.6-4.2
					c1.1-1.2,2.3-2.1,3.6-2.7c1.1-0.5,2.1-0.7,3-0.7c0.9,0,1.7,0.3,2.5,0.7c0.7,0.4,1.4,1,1.9,1.7c0.6,0.7,1,1.6,1.4,2.5
					c0.4,1,0.8,2,1,3.1c0.2,1.1,0.4,2.1,0.5,3.1c0.1,0.6,0.1,1.3,0.1,1.9c0,0.6,0,1.1,0,1.1c0,0.4,0.2,0.9,0.5,1.1
					c0,0,0.2,0.2,0.7,0.3c0.5,0.1,1,0,1.7-0.2c0.4-0.2,0.7-0.4,1.1-0.7c0.4-0.3,0.7-0.7,1-1.1c0.3-0.5,0.6-1,0.8-1.6
					s0.3-1.4,0.3-1.4c0.1-0.4,0.1-1,0.2-1.4l0.1-0.8c0-0.4,0.2-0.7,0.4-0.6c0.2,0,0.3,0.4,0.3,0.8l-0.1,0.8c0,0.4-0.1,1-0.2,1.4
					c0,0-0.2,1.3-0.5,2c-0.3,0.7-0.6,1.3-1,1.8c-0.4,0.5-0.8,0.8-1.1,1.1c-0.4,0.3-0.7,0.5-1,0.6c-0.6,0.3-1.2,0.4-1.8,0.5
					c-0.6,0.1-0.9,0-0.9,0c-0.4-0.1-0.8,0.2-0.8,0.6c0,0-0.4,1.9-0.8,3.1c-0.4,1.2-0.9,2.3-1.5,3.3c-0.6,1-1.3,1.9-2.1,2.6
					c-0.8,0.7-1.7,1.3-2.6,1.7c-0.9,0.4-1.8,0.6-2.7,0.6c-0.9,0-1.7-0.2-2.5-0.6s-1.5-1-2.2-1.8c-0.7-0.8-1.3-1.8-1.8-2.9
					c-0.3-0.7-0.6-1.5-0.8-2.3C118.7,151.1,118.5,150.1,118.5,150.1z M128.8,157.7c0.8-0.3,1.5-0.8,2.1-1.5c0.6-0.7,1.2-1.5,1.6-2.5
					c0.5-1,0.9-2.1,1.2-3.3c0.3-1.2,0.5-3.2,0.5-3.2c0-0.4-0.2-0.9-0.5-1.2c0,0,0,0-0.2-0.3c-0.2-0.3-0.4-0.6-0.5-0.9
					c-0.2-0.4-0.3-0.8-0.3-1.2c-0.1-0.4-0.1-0.8,0-1.3c0.1-0.4,0.2-0.8,0.4-1.2c0.2-0.4,0.4-0.6,0.4-0.6c0.3-0.3,0.4-0.9,0.4-1.2
					c0,0-0.2-0.9-0.4-1.8c-0.2-0.8-0.5-1.7-0.8-2.4c-0.3-0.6-0.6-1.2-1-1.7c-0.4-0.5-0.8-0.9-1.3-1.2c-0.5-0.3-1-0.5-1.6-0.5
					c-0.6,0-1.2,0.1-1.9,0.4c-1,0.5-1.9,1.2-2.7,2.2c-0.8,1-1.4,2.2-1.8,3.6c-0.5,1.4-0.8,2.9-0.9,4.6c-0.1,1.7-0.1,3.5,0.2,5.4
					c0.2,1.3,0.4,2.5,0.7,3.7c0.3,1.2,0.7,2.3,1.1,3.2C124.8,157.6,126.6,158.7,128.8,157.7z"/>
				<path class="st2" d="M118.5,150.1c-0.1-0.4-0.2-1-0.2-1.4c0,0-0.3-3.2-0.1-5c0.2-1.9,0.7-3.6,1.3-5.2c0.7-1.6,1.5-3,2.6-4.2
					c1.1-1.2,2.3-2.1,3.6-2.7c1.1-0.5,2.1-0.7,3-0.7c0.9,0,1.7,0.3,2.5,0.7c0.7,0.4,1.4,1,1.9,1.7c0.6,0.7,1,1.6,1.4,2.5
					c0.4,1,0.8,2,1,3.1c0.2,1.1,0.4,2.1,0.5,3.1c0.1,0.6,0.1,1.3,0.1,1.9c0,0.6,0,1.1,0,1.1c0,0.4,0.2,0.9,0.5,1.1
					c0,0,0.2,0.2,0.7,0.3c0.5,0.1,1,0,1.7-0.2c0.4-0.2,0.7-0.4,1.1-0.7c0.4-0.3,0.7-0.7,1-1.1c0.3-0.5,0.6-1,0.8-1.6
					s0.3-1.4,0.3-1.4c0.1-0.4,0.1-1,0.2-1.4l0.1-0.8c0-0.4,0.2-0.7,0.4-0.6c0.2,0,0.3,0.4,0.3,0.8l-0.1,0.8c0,0.4-0.1,1-0.2,1.4
					c0,0-0.2,1.3-0.5,2c-0.3,0.7-0.6,1.3-1,1.8c-0.4,0.5-0.8,0.8-1.1,1.1c-0.4,0.3-0.7,0.5-1,0.6c-0.6,0.3-1.2,0.4-1.8,0.5
					c-0.6,0.1-0.9,0-0.9,0c-0.4-0.1-0.8,0.2-0.8,0.6c0,0-0.4,1.9-0.8,3.1c-0.4,1.2-0.9,2.3-1.5,3.3c-0.6,1-1.3,1.9-2.1,2.6
					c-0.8,0.7-1.7,1.3-2.6,1.7c-0.9,0.4-1.8,0.6-2.7,0.6c-0.9,0-1.7-0.2-2.5-0.6s-1.5-1-2.2-1.8c-0.7-0.8-1.3-1.8-1.8-2.9
					c-0.3-0.7-0.6-1.5-0.8-2.3C118.7,151.1,118.5,150.1,118.5,150.1z M128.8,157.7c0.8-0.3,1.5-0.8,2.1-1.5c0.6-0.7,1.2-1.5,1.6-2.5
					c0.5-1,0.9-2.1,1.2-3.3c0.3-1.2,0.5-3.2,0.5-3.2c0-0.4-0.2-0.9-0.5-1.2c0,0,0,0-0.2-0.3c-0.2-0.3-0.4-0.6-0.5-0.9
					c-0.2-0.4-0.3-0.8-0.3-1.2c-0.1-0.4-0.1-0.8,0-1.3c0.1-0.4,0.2-0.8,0.4-1.2c0.2-0.4,0.4-0.6,0.4-0.6c0.3-0.3,0.4-0.9,0.4-1.2
					c0,0-0.2-0.9-0.4-1.8c-0.2-0.8-0.5-1.7-0.8-2.4c-0.3-0.6-0.6-1.2-1-1.7c-0.4-0.5-0.8-0.9-1.3-1.2c-0.5-0.3-1-0.5-1.6-0.5
					c-0.6,0-1.2,0.1-1.9,0.4c-1,0.5-1.9,1.2-2.7,2.2c-0.8,1-1.4,2.2-1.8,3.6c-0.5,1.4-0.8,2.9-0.9,4.6c-0.1,1.7-0.1,3.5,0.2,5.4
					c0.2,1.3,0.4,2.5,0.7,3.7c0.3,1.2,0.7,2.3,1.1,3.2C124.8,157.6,126.6,158.7,128.8,157.7z"/>
			</g>
			<g>
				<path class="st1" d="M141.8,124.8c0-0.4,0.2-0.8,0.6-1l1.6-0.7c0.4-0.2,0.7,0,0.7,0.4l0.6,8.6c0,0.4,0.1,0.4,0.2,0
					c0,0,1-5.7,2.1-7.8c1-2.1,2.4-3.6,4.1-4.3c0.8-0.4,1.6-0.5,2.3-0.5c0.7,0,1.4,0.3,2,0.6c0.6,0.4,1.1,0.9,1.6,1.5
					c0.5,0.6,0.9,1.4,1.3,2.2c0.4,0.9,0.7,1.9,1,3c0.3,1.1,0.5,2.7,0.5,2.7c0.1,0.4,0.1,1,0.1,1.4c0,0,0.1,3.8-0.3,5.8
					c-0.4,2-1,3.8-1.8,5.3c-0.8,1.6-1.8,2.9-2.9,4c-1.1,1.1-2.3,1.9-3.5,2.5c-0.7,0.3-1.3,0.5-1.8,0.5c-0.5,0.1-1,0-1.5-0.2
					c-0.5-0.2-0.9-0.5-1.3-1c-0.4-0.5-0.8-1.2-0.8-1.2c-0.2-0.3-0.3-0.3-0.3,0.1l1,15.1c0,0.4-0.2,0.8-0.6,1l-1.6,0.7
					c-0.4,0.2-0.7,0-0.7-0.4L141.8,124.8z M151.5,121.3c-0.7,0.3-1.3,0.8-1.9,1.6c-0.6,0.7-1.1,1.6-1.5,2.6c-0.4,1-0.8,2.1-1.1,3.3
					c-0.3,1.2-0.5,2.5-0.7,3.8s-0.3,2.6-0.3,3.9c-0.1,1.3,0,2.6,0,3.7c0.1,1.2,0.2,2.3,0.4,3.3c0.2,1,0.4,1.8,0.7,2.5
					c0.2,0.5,0.4,0.9,0.7,1.2c0.3,0.4,0.6,0.6,1,0.8c0.4,0.2,0.7,0.3,1.2,0.3c0.4,0,0.9-0.1,1.4-0.3c0.6-0.3,1.3-0.8,2-1.5
					c0.7-0.7,1.4-1.7,2-3c0.6-1.3,1.1-2.9,1.4-4.7c0.4-1.9,0.3-5.9,0.3-5.9c0-0.4,0-1-0.1-1.4c0,0-0.1-1-0.2-1.8
					c-0.1-0.8-0.2-1.6-0.4-2.4c-0.1-0.7-0.3-1.4-0.5-2.1c-0.2-0.6-0.4-1.2-0.6-1.6c-0.4-1-1-1.7-1.7-2.1
					C153.1,120.9,152.3,120.9,151.5,121.3z"/>
				<path class="st2" d="M141.8,124.8c0-0.4,0.2-0.8,0.6-1l1.6-0.7c0.4-0.2,0.7,0,0.7,0.4l0.6,8.6c0,0.4,0.1,0.4,0.2,0
					c0,0,1-5.7,2.1-7.8c1-2.1,2.4-3.6,4.1-4.3c0.8-0.4,1.6-0.5,2.3-0.5c0.7,0,1.4,0.3,2,0.6c0.6,0.4,1.1,0.9,1.6,1.5
					c0.5,0.6,0.9,1.4,1.3,2.2c0.4,0.9,0.7,1.9,1,3c0.3,1.1,0.5,2.7,0.5,2.7c0.1,0.4,0.1,1,0.1,1.4c0,0,0.1,3.8-0.3,5.8
					c-0.4,2-1,3.8-1.8,5.3c-0.8,1.6-1.8,2.9-2.9,4c-1.1,1.1-2.3,1.9-3.5,2.5c-0.7,0.3-1.3,0.5-1.8,0.5c-0.5,0.1-1,0-1.5-0.2
					c-0.5-0.2-0.9-0.5-1.3-1c-0.4-0.5-0.8-1.2-0.8-1.2c-0.2-0.3-0.3-0.3-0.3,0.1l1,15.1c0,0.4-0.2,0.8-0.6,1l-1.6,0.7
					c-0.4,0.2-0.7,0-0.7-0.4L141.8,124.8z M151.5,121.3c-0.7,0.3-1.3,0.8-1.9,1.6c-0.6,0.7-1.1,1.6-1.5,2.6c-0.4,1-0.8,2.1-1.1,3.3
					c-0.3,1.2-0.5,2.5-0.7,3.8s-0.3,2.6-0.3,3.9c-0.1,1.3,0,2.6,0,3.7c0.1,1.2,0.2,2.3,0.4,3.3c0.2,1,0.4,1.8,0.7,2.5
					c0.2,0.5,0.4,0.9,0.7,1.2c0.3,0.4,0.6,0.6,1,0.8c0.4,0.2,0.7,0.3,1.2,0.3c0.4,0,0.9-0.1,1.4-0.3c0.6-0.3,1.3-0.8,2-1.5
					c0.7-0.7,1.4-1.7,2-3c0.6-1.3,1.1-2.9,1.4-4.7c0.4-1.9,0.3-5.9,0.3-5.9c0-0.4,0-1-0.1-1.4c0,0-0.1-1-0.2-1.8
					c-0.1-0.8-0.2-1.6-0.4-2.4c-0.1-0.7-0.3-1.4-0.5-2.1c-0.2-0.6-0.4-1.2-0.6-1.6c-0.4-1-1-1.7-1.7-2.1
					C153.1,120.9,152.3,120.9,151.5,121.3z"/>
			</g>
		</g>
	</g>
	<g>
		<path class="st1" d="M72.8,46.5c-4.6,5.2-10,9.4-15.8,13c-5.8,3.6-12,6.5-18.5,8.7c-3.2,1.1-6.5,2-9.9,2.6
			c-3.4,0.6-6.9,1-10.4,0.8c-1.8-0.1-3.6-0.3-5.4-0.8c-1.8-0.5-3.6-1.2-5.2-2.4c-1.6-1.2-3-2.9-3.8-4.8c-0.4-0.9-0.7-2-0.8-3.1
			c-0.1-1,0-2.1,0.1-3c0.3-1.9,0.9-3.7,1.7-5.3c0.8-1.6,1.6-3.2,2.6-4.6c1.9-2.9,4.1-5.6,6.4-8.1c4.6-5,9.7-9.5,15-13.7
			c5.3-4.2,10.9-8,16.7-11.4c2.9-1.7,5.9-3.3,9-4.7c3.1-1.4,6.2-2.7,9.5-3.8c12.8-4.5,26.6-6.4,40.1-5.6c13.6,0.8,27,4.3,39.2,10.3
			c12.2,5.9,23.3,14.3,32.3,24.5c9,10.2,15.9,22.2,20.4,35c4.4,12.9,6.3,26.6,5.4,40.2c-0.9,13.6-4.5,27-10.5,39.2
			c-6,12.2-14.4,23.2-24.7,32.2c-10.2,9-22.3,15.8-35.2,20.2c-12.9,4.4-26.6,6.1-40.2,5.2c-13.6-0.9-26.9-4.6-39.1-10.7
			c-12.2-6.1-23.1-14.6-32-24.9C10.9,161,4.1,148.9-0.2,136c-0.4-1.2,0.2-2.4,1.4-2.8s2.4,0.2,2.8,1.4c4.1,12.4,10.6,23.9,19.1,33.8
			c8.5,9.9,19,18,30.6,23.8c11.6,5.8,24.4,9.3,37.4,10.2c13,0.9,26.1-0.8,38.5-4.9c12.3-4.2,23.9-10.7,33.7-19.3
			c9.8-8.6,17.9-19.1,23.6-30.8c5.8-11.7,9.2-24.5,10-37.5c0.9-13-0.9-26.1-5.2-38.4c-4.2-12.3-10.9-23.8-19.5-33.5
			c-8.6-9.8-19.2-17.8-30.9-23.4c-11.7-5.7-24.5-9.1-37.5-9.8c-13-0.8-26.1,1.1-38.4,5.4c-3.1,1.1-6.1,2.3-9,3.7
			c-2.9,1.4-5.8,2.9-8.7,4.6c-5.6,3.3-11.1,7-16.2,11c-5.2,4-10.1,8.4-14.5,13.2c-2.2,2.4-4.2,4.9-6,7.5c-1.7,2.6-3.2,5.5-3.6,8.2
			c-0.2,1.4-0.1,2.6,0.4,3.7c0.5,1.2,1.3,2.2,2.3,3c2.1,1.6,5.2,2.3,8.2,2.4c3.1,0.2,6.3-0.1,9.4-0.7c3.2-0.6,6.3-1.4,9.4-2.4
			c6.1-2,12.1-4.8,17.6-8.2c5.6-3.4,10.8-7.3,15.1-12.1l0,0c0.7-0.8,2-0.8,2.8-0.1C73.5,44.5,73.5,45.7,72.8,46.5z"/>
	</g>
</g>
</svg>
