<?xml version="1.0" encoding="utf-8"?>
<!-- Generator: Adobe Illustrator 22.1.0, SVG Export Plug-In . SVG Version: 6.00 Build 0)  -->
<svg version="1.1" id="Layer_1" xmlns="http://www.w3.org/2000/svg" xmlns:xlink="http://www.w3.org/1999/xlink" x="0px" y="0px"
	 viewBox="0 0 202 207.1" style="enable-background:new 0 0 202 207.1;" xml:space="preserve">
<style type="text/css">
	.st0{fill:none;stroke:#000000;stroke-width:3;stroke-miterlimit:10;}
	.st1{fill:#FFFFFF;}
	.st2{fill:none;stroke:#FFFFFF;stroke-width:3;stroke-miterlimit:10;}
</style>
<g>
	<g>
		<g>
			<g>
				<path d="M71.6,45.4c-0.2-0.1-0.3-0.5-0.1-0.9c0,0,0.5-1.5,0.8-2.6c0.3-1.1,0.4-2.2,0.5-3.2c0.1-1,0.1-1.9,0-2.8
					c-0.1-0.9-0.3-1.6-0.6-2.2c-0.1-0.3-0.3-0.5-0.4-0.7c-0.2-0.2-0.4-0.4-0.6-0.5c-0.2-0.1-0.5-0.2-0.8-0.2c-0.3,0-0.6,0.1-0.9,0.2
					c-0.7,0.3-1.4,0.9-1.9,1.8c-0.5,0.8-0.9,1.9-1.2,3.2c-0.2,1-0.3,2.1-0.4,3.2c0,1.1,0,2.3,0,3.6c0,1.2,0.1,2.5,0.2,3.9
					c0.1,1.3,0.2,2.7,0.3,4.1c0.1,1.9,0.1,3.7,0.1,5.4c0,1.7-0.1,3.2-0.3,4.6c-0.2,1.4-0.4,2.7-0.7,3.9c-0.3,1.2-0.9,2.5-0.9,2.5
					c-0.2,0.4,0,0.6,0.4,0.6c0,0,0.8-0.1,1.6-0.3c0.9-0.1,1.7-0.3,2.6-0.5c0.9-0.2,1.8-0.5,2.7-0.7c0.9-0.3,1.8-0.6,2.6-1
					c1.5-0.7,2.7-1.4,3.7-2.3c1-0.9,1.7-1.9,2.3-3.1c0.6-1.2,1-2.6,1.3-4.1c0.3-1.5,0.7-4.6,0.7-4.6c0-0.4,0.1-1,0.1-1.4l0.1-0.8
					c0-0.4,0.2-0.7,0.4-0.6c0.2,0,0.3,0.4,0.3,0.8l-0.1,0.8c0,0.4-0.1,1-0.2,1.4c0,0-0.6,4.4-1.1,6.3c-0.5,1.9-1.2,3.5-2,4.8
					c-0.8,1.3-1.6,2.3-2.6,3.1c-1,0.8-2,1.4-3.1,1.9c-0.7,0.3-1.6,0.6-2.5,0.9c-0.9,0.2-1.8,0.5-2.8,0.6c-1,0.2-2,0.3-3,0.5
					C65.3,70.8,64,71,64,71c-0.4,0-0.9,0.3-1.2,0.6c0,0-1.1,1.3-2,2c-0.9,0.7-2,1.4-3.2,1.9c-0.8,0.4-1.5,0.6-2.1,0.7
					c-0.6,0.1-1,0.2-1.4,0.1c-0.4,0-0.7-0.2-0.9-0.4c-0.2-0.2-0.4-0.4-0.5-0.6c-0.2-0.5-0.2-0.9-0.1-1.3c0.2-0.4,0.5-0.8,0.8-1.2
					c0.4-0.4,0.8-0.7,1.4-1c0.5-0.3,1-0.6,1.5-0.8c1.1-0.5,2.2-0.8,3.2-1.1c1.1-0.3,2.3-0.5,2.3-0.5c0.4-0.1,0.8-0.4,0.9-0.8
					c0,0,0.2-0.7,0.3-1.5c0.1-0.8,0.2-1.7,0.3-2.7c0.1-1,0.1-2.1,0.1-3.4c0-1.2,0-3.4,0-3.4c0-0.4,0-1,0-1.4c0,0-0.1-3.8-0.2-5.7
					c-0.1-2-0.1-3.8-0.1-5.4c0-1.6,0.1-3.1,0.3-4.5c0.2-1.4,0.5-2.6,1-3.8c0.5-1.3,1.2-2.3,2-3.2c0.8-0.9,1.7-1.5,2.6-1.9
					c0.6-0.3,1.2-0.4,1.7-0.4c0.5,0,0.9,0.1,1.3,0.3c0.4,0.2,0.7,0.5,1,0.8s0.5,0.8,0.7,1.2c0.7,1.5,0.9,3.3,0.6,5.3
					c-0.3,2-1.9,5.9-1.9,5.9C72.1,45.3,71.8,45.5,71.6,45.4z M57.3,74.8c1.1-0.5,2-1,2.7-1.6c0.7-0.6,1.4-1.5,1.4-1.5
					c0.2-0.3,0.1-0.5-0.3-0.5c0,0-0.3,0-0.8,0.1c-0.5,0.1-1.1,0.2-1.6,0.3c-0.6,0.1-1.1,0.3-1.7,0.4c-0.5,0.2-1.1,0.3-1.6,0.6
					c-0.8,0.3-1.3,0.7-1.7,1.1c-0.3,0.4-0.4,0.8-0.2,1.3c0.1,0.2,0.2,0.3,0.3,0.4c0.2,0.1,0.4,0.2,0.7,0.2c0.3,0,0.7-0.1,1.1-0.2
					C56.1,75.3,56.6,75.1,57.3,74.8z"/>
				<path class="st0" d="M71.6,45.4c-0.2-0.1-0.3-0.5-0.1-0.9c0,0,0.5-1.5,0.8-2.6c0.3-1.1,0.4-2.2,0.5-3.2c0.1-1,0.1-1.9,0-2.8
					c-0.1-0.9-0.3-1.6-0.6-2.2c-0.1-0.3-0.3-0.5-0.4-0.7c-0.2-0.2-0.4-0.4-0.6-0.5c-0.2-0.1-0.5-0.2-0.8-0.2c-0.3,0-0.6,0.1-0.9,0.2
					c-0.7,0.3-1.4,0.9-1.9,1.8c-0.5,0.8-0.9,1.9-1.2,3.2c-0.2,1-0.3,2.1-0.4,3.2c0,1.1,0,2.3,0,3.6c0,1.2,0.1,2.5,0.2,3.9
					c0.1,1.3,0.2,2.7,0.3,4.1c0.1,1.9,0.1,3.7,0.1,5.4c0,1.7-0.1,3.2-0.3,4.6c-0.2,1.4-0.4,2.7-0.7,3.9c-0.3,1.2-0.9,2.5-0.9,2.5
					c-0.2,0.4,0,0.6,0.4,0.6c0,0,0.8-0.1,1.6-0.3c0.9-0.1,1.7-0.3,2.6-0.5c0.9-0.2,1.8-0.5,2.7-0.7c0.9-0.3,1.8-0.6,2.6-1
					c1.5-0.7,2.7-1.4,3.7-2.3c1-0.9,1.7-1.9,2.3-3.1c0.6-1.2,1-2.6,1.3-4.1c0.3-1.5,0.7-4.6,0.7-4.6c0-0.4,0.1-1,0.1-1.4l0.1-0.8
					c0-0.4,0.2-0.7,0.4-0.6c0.2,0,0.3,0.4,0.3,0.8l-0.1,0.8c0,0.4-0.1,1-0.2,1.4c0,0-0.6,4.4-1.1,6.3c-0.5,1.9-1.2,3.5-2,4.8
					c-0.8,1.3-1.6,2.3-2.6,3.1c-1,0.8-2,1.4-3.1,1.9c-0.7,0.3-1.6,0.6-2.5,0.9c-0.9,0.2-1.8,0.5-2.8,0.6c-1,0.2-2,0.3-3,0.5
					C65.3,70.8,64,71,64,71c-0.4,0-0.9,0.3-1.2,0.6c0,0-1.1,1.3-2,2c-0.9,0.7-2,1.4-3.2,1.9c-0.8,0.4-1.5,0.6-2.1,0.7
					c-0.6,0.1-1,0.2-1.4,0.1c-0.4,0-0.7-0.2-0.9-0.4c-0.2-0.2-0.4-0.4-0.5-0.6c-0.2-0.5-0.2-0.9-0.1-1.3c0.2-0.4,0.5-0.8,0.8-1.2
					c0.4-0.4,0.8-0.7,1.4-1c0.5-0.3,1-0.6,1.5-0.8c1.1-0.5,2.2-0.8,3.2-1.1c1.1-0.3,2.3-0.5,2.3-0.5c0.4-0.1,0.8-0.4,0.9-0.8
					c0,0,0.2-0.7,0.3-1.5c0.1-0.8,0.2-1.7,0.3-2.7c0.1-1,0.1-2.1,0.1-3.4c0-1.2,0-3.4,0-3.4c0-0.4,0-1,0-1.4c0,0-0.1-3.8-0.2-5.7
					c-0.1-2-0.1-3.8-0.1-5.4c0-1.6,0.1-3.1,0.3-4.5c0.2-1.4,0.5-2.6,1-3.8c0.5-1.3,1.2-2.3,2-3.2c0.8-0.9,1.7-1.5,2.6-1.9
					c0.6-0.3,1.2-0.4,1.7-0.4c0.5,0,0.9,0.1,1.3,0.3c0.4,0.2,0.7,0.5,1,0.8s0.5,0.8,0.7,1.2c0.7,1.5,0.9,3.3,0.6,5.3
					c-0.3,2-1.9,5.9-1.9,5.9C72.1,45.3,71.8,45.5,71.6,45.4z M57.3,74.8c1.1-0.5,2-1,2.7-1.6c0.7-0.6,1.4-1.5,1.4-1.5
					c0.2-0.3,0.1-0.5-0.3-0.5c0,0-0.3,0-0.8,0.1c-0.5,0.1-1.1,0.2-1.6,0.3c-0.6,0.1-1.1,0.3-1.7,0.4c-0.5,0.2-1.1,0.3-1.6,0.6
					c-0.8,0.3-1.3,0.7-1.7,1.1c-0.3,0.4-0.4,0.8-0.2,1.3c0.1,0.2,0.2,0.3,0.3,0.4c0.2,0.1,0.4,0.2,0.7,0.2c0.3,0,0.7-0.1,1.1-0.2
					C56.1,75.3,56.6,75.1,57.3,74.8z"/>
			</g>
			<g>
				<path d="M95.1,58.5c-2.4,1-4.5,1.2-6.3,0.6c-1.8-0.7-3.3-2.2-4.4-4.7c-0.3-0.7-0.6-1.4-0.8-2.2c-0.2-0.8-0.4-1.8-0.4-1.8
					C83.1,50,83,49.4,83,49c0,0-0.3-3.2-0.1-5c0.2-1.9,0.6-3.6,1.2-5.2c0.6-1.6,1.5-3,2.5-4.1c1-1.2,2.2-2.1,3.5-2.6
					c1.3-0.6,2.5-0.7,3.5-0.4c1,0.3,1.8,1,2.3,2.1c0.3,0.6,0.4,1.3,0.4,2c0,0.7-0.1,1.4-0.3,2.2c-0.2,0.7-0.6,1.5-1,2.3
					c-0.5,0.8-1,1.5-1.7,2.2c-0.8,0.9-1.8,1.7-2.9,2.5c-1.1,0.8-3.4,1.9-3.4,1.9c-0.4,0.2-0.6,0.6-0.6,1c0,0,0.2,1.7,0.5,3
					c0.3,1.2,0.7,2.5,1.2,3.7c0.8,1.8,1.8,3,2.9,3.4c1.1,0.5,2.5,0.3,4.2-0.4c1.4-0.6,2.6-1.5,3.6-2.5c1-1.1,1.9-2.3,2.5-3.6
					c0.7-1.3,1.2-2.7,1.6-4.2c0.4-1.5,0.7-3.7,0.7-3.7c0.1-0.4,0.1-1,0.2-1.4l0.1-0.8c0-0.4,0.2-0.7,0.4-0.6s0.3,0.4,0.3,0.8
					l-0.1,0.8c0,0.4-0.1,1-0.2,1.4c0,0-0.4,2.8-0.8,4.4c-0.4,1.6-1,3.1-1.8,4.5c-0.7,1.4-1.7,2.6-2.7,3.7
					C97.8,57,96.6,57.8,95.1,58.5z M91,32.5c-0.8,0.4-1.6,1-2.2,1.8c-0.6,0.9-1.2,1.9-1.6,3.1c-0.4,1.2-0.7,2.6-0.9,4
					c-0.2,1.5-0.1,3.9-0.1,3.9c0,0.4,0.3,0.6,0.7,0.4c0,0,2-1,2.9-1.7c0.9-0.7,1.7-1.4,2.3-2.1c0.5-0.5,0.9-1.2,1.3-1.8
					c0.4-0.7,0.7-1.4,0.8-2.2c0.2-0.8,0.3-1.5,0.3-2.3c0-0.8-0.2-1.5-0.5-2.2c-0.2-0.4-0.3-0.6-0.5-0.8c-0.2-0.2-0.4-0.3-0.7-0.4
					c-0.3-0.1-0.5-0.1-0.8,0C91.6,32.3,91.3,32.4,91,32.5z"/>
				<path class="st0" d="M95.1,58.5c-2.4,1-4.5,1.2-6.3,0.6c-1.8-0.7-3.3-2.2-4.4-4.7c-0.3-0.7-0.6-1.4-0.8-2.2
					c-0.2-0.8-0.4-1.8-0.4-1.8C83.1,50,83,49.4,83,49c0,0-0.3-3.2-0.1-5c0.2-1.9,0.6-3.6,1.2-5.2c0.6-1.6,1.5-3,2.5-4.1
					c1-1.2,2.2-2.1,3.5-2.6c1.3-0.6,2.5-0.7,3.5-0.4c1,0.3,1.8,1,2.3,2.1c0.3,0.6,0.4,1.3,0.4,2c0,0.7-0.1,1.4-0.3,2.2
					c-0.2,0.7-0.6,1.5-1,2.3c-0.5,0.8-1,1.5-1.7,2.2c-0.8,0.9-1.8,1.7-2.9,2.5c-1.1,0.8-3.4,1.9-3.4,1.9c-0.4,0.2-0.6,0.6-0.6,1
					c0,0,0.2,1.7,0.5,3c0.3,1.2,0.7,2.5,1.2,3.7c0.8,1.8,1.8,3,2.9,3.4c1.1,0.5,2.5,0.3,4.2-0.4c1.4-0.6,2.6-1.5,3.6-2.5
					c1-1.1,1.9-2.3,2.5-3.6c0.7-1.3,1.2-2.7,1.6-4.2c0.4-1.5,0.7-3.7,0.7-3.7c0.1-0.4,0.1-1,0.2-1.4l0.1-0.8c0-0.4,0.2-0.7,0.4-0.6
					s0.3,0.4,0.3,0.8l-0.1,0.8c0,0.4-0.1,1-0.2,1.4c0,0-0.4,2.8-0.8,4.4c-0.4,1.6-1,3.1-1.8,4.5c-0.7,1.4-1.7,2.6-2.7,3.7
					C97.8,57,96.6,57.8,95.1,58.5z M91,32.5c-0.8,0.4-1.6,1-2.2,1.8c-0.6,0.9-1.2,1.9-1.6,3.1c-0.4,1.2-0.7,2.6-0.9,4
					c-0.2,1.5-0.1,3.9-0.1,3.9c0,0.4,0.3,0.6,0.7,0.4c0,0,2-1,2.9-1.7c0.9-0.7,1.7-1.4,2.3-2.1c0.5-0.5,0.9-1.2,1.3-1.8
					c0.4-0.7,0.7-1.4,0.8-2.2c0.2-0.8,0.3-1.5,0.3-2.3c0-0.8-0.2-1.5-0.5-2.2c-0.2-0.4-0.3-0.6-0.5-0.8c-0.2-0.2-0.4-0.3-0.7-0.4
					c-0.3-0.1-0.5-0.1-0.8,0C91.6,32.3,91.3,32.4,91,32.5z"/>
			</g>
			<g>
				<path d="M51.2,113c-0.4,0.2-0.9,0.2-1.2,0.1c-0.4-0.1-0.7-0.4-0.8-0.9c-0.2-0.4-0.2-0.8-0.1-1.2c0.1-0.4,0.3-0.6,0.7-0.8
					c0.1-0.1,0.1-0.1,0.1-0.1c0.2,0,0.3,0,0.4,0c0,0,0,0,0,0c0,0,0.1,0,0.1,0c0.1-0.1,0.1-0.2,0.1-0.3c-0.1-0.2-0.2-0.3-0.4-0.4
					c-0.2-0.1-0.4-0.2-0.7-0.2c-0.3,0-0.6,0-0.9,0c-0.3,0.1-0.6,0.2-1,0.3c-0.8,0.4-1.5,1-2.2,1.8c-0.6,0.8-1.1,1.8-1.6,3
					c-0.4,1.2-0.7,2.4-0.9,3.9c-0.2,1.4-0.3,2.8-0.2,4.3c0,1.5,0.2,2.9,0.5,4.4c0.3,1.5,0.7,2.8,1.3,4.1c0.4,1,0.9,1.8,1.4,2.4
					c0.5,0.6,1,1,1.6,1.3c0.6,0.3,1.2,0.4,1.9,0.3c0.7-0.1,1.4-0.3,2.3-0.6c1.2-0.5,2.3-1.3,3.3-2.2c1-0.9,1.8-2,2.6-3.3
					c0.7-1.3,1.3-2.7,1.8-4.3c0.5-1.6,0.9-4.4,0.9-4.4c0.1-0.4,0.1-1,0.2-1.4l0.1-0.8c0-0.4,0.2-0.7,0.4-0.6c0.2,0,0.3,0.4,0.3,0.8
					l-0.1,0.8c0,0.4-0.1,1-0.2,1.4c0,0-1.2,6.8-2.8,9.5c-1.5,2.6-3.7,4.5-6.4,5.7c-2.4,1.1-4.5,1.3-6.3,0.5s-3.2-2.3-4.3-4.7
					c-0.3-0.7-0.6-1.5-0.8-2.3c-0.2-0.8-0.4-1.8-0.4-1.8c-0.1-0.4-0.2-1-0.2-1.4c0,0-0.3-3.2-0.1-5c0.2-1.9,0.6-3.6,1.2-5.2
					c0.6-1.6,1.4-3,2.5-4.1c1-1.2,2.2-2.1,3.5-2.7c1.4-0.6,3-0.4,3-0.4c0.4,0.1,1,0.2,1.4,0.4c0,0,0.2,0.1,0.5,0.4
					c0.3,0.3,0.6,0.6,0.7,1c0.3,0.6,0.3,1.1,0.1,1.6C52.1,112.4,51.7,112.8,51.2,113z"/>
				<path class="st0" d="M51.2,113c-0.4,0.2-0.9,0.2-1.2,0.1c-0.4-0.1-0.7-0.4-0.8-0.9c-0.2-0.4-0.2-0.8-0.1-1.2
					c0.1-0.4,0.3-0.6,0.7-0.8c0.1-0.1,0.1-0.1,0.1-0.1c0.2,0,0.3,0,0.4,0c0,0,0,0,0,0c0,0,0.1,0,0.1,0c0.1-0.1,0.1-0.2,0.1-0.3
					c-0.1-0.2-0.2-0.3-0.4-0.4c-0.2-0.1-0.4-0.2-0.7-0.2c-0.3,0-0.6,0-0.9,0c-0.3,0.1-0.6,0.2-1,0.3c-0.8,0.4-1.5,1-2.2,1.8
					c-0.6,0.8-1.1,1.8-1.6,3c-0.4,1.2-0.7,2.4-0.9,3.9c-0.2,1.4-0.3,2.8-0.2,4.3c0,1.5,0.2,2.9,0.5,4.4c0.3,1.5,0.7,2.8,1.3,4.1
					c0.4,1,0.9,1.8,1.4,2.4c0.5,0.6,1,1,1.6,1.3c0.6,0.3,1.2,0.4,1.9,0.3c0.7-0.1,1.4-0.3,2.3-0.6c1.2-0.5,2.3-1.3,3.3-2.2
					c1-0.9,1.8-2,2.6-3.3c0.7-1.3,1.3-2.7,1.8-4.3c0.5-1.6,0.9-4.4,0.9-4.4c0.1-0.4,0.1-1,0.2-1.4l0.1-0.8c0-0.4,0.2-0.7,0.4-0.6
					c0.2,0,0.3,0.4,0.3,0.8l-0.1,0.8c0,0.4-0.1,1-0.2,1.4c0,0-1.2,6.8-2.8,9.5c-1.5,2.6-3.7,4.5-6.4,5.7c-2.4,1.1-4.5,1.3-6.3,0.5
					s-3.2-2.3-4.3-4.7c-0.3-0.7-0.6-1.5-0.8-2.3c-0.2-0.8-0.4-1.8-0.4-1.8c-0.1-0.4-0.2-1-0.2-1.4c0,0-0.3-3.2-0.1-5
					c0.2-1.9,0.6-3.6,1.2-5.2c0.6-1.6,1.4-3,2.5-4.1c1-1.2,2.2-2.1,3.5-2.7c1.4-0.6,3-0.4,3-0.4c0.4,0.1,1,0.2,1.4,0.4
					c0,0,0.2,0.1,0.5,0.4c0.3,0.3,0.6,0.6,0.7,1c0.3,0.6,0.3,1.1,0.1,1.6C52.1,112.4,51.7,112.8,51.2,113z"/>
			</g>
			<g>
				<path d="M60.3,118.3c-0.1-0.4-0.2-1-0.2-1.4c0,0-0.3-3.2-0.1-5s0.7-3.6,1.3-5.2c0.7-1.6,1.5-3,2.6-4.2c1.1-1.2,2.3-2.1,3.6-2.7
					c1.1-0.5,2.1-0.7,3-0.7c0.9,0,1.7,0.3,2.5,0.7c0.7,0.4,1.4,1,1.9,1.7c0.6,0.7,1,1.6,1.4,2.5c0.4,1,0.8,2,1,3.1
					c0.2,1.1,0.4,2.1,0.5,3.1c0.1,0.6,0.1,1.3,0.1,1.9c0,0.6,0,1.1,0,1.1c0,0.4,0.2,0.9,0.5,1.1c0,0,0.2,0.2,0.7,0.3
					c0.5,0.1,1,0,1.7-0.2c0.4-0.2,0.7-0.4,1.1-0.7c0.4-0.3,0.7-0.7,1-1.1c0.3-0.5,0.6-1,0.8-1.6s0.3-1.4,0.3-1.4
					c0.1-0.4,0.1-1,0.2-1.4l0.1-0.8c0-0.4,0.2-0.7,0.4-0.6c0.2,0,0.3,0.4,0.3,0.8l-0.1,0.8c0,0.4-0.1,1-0.2,1.4c0,0-0.2,1.3-0.5,2
					c-0.3,0.7-0.6,1.3-1,1.8c-0.4,0.5-0.7,0.8-1.1,1.1c-0.4,0.3-0.7,0.5-1,0.6c-0.6,0.3-1.2,0.4-1.8,0.5c-0.6,0.1-0.9,0-0.9,0
					c-0.4-0.1-0.8,0.2-0.8,0.6c0,0-0.4,1.9-0.8,3.1c-0.4,1.2-0.9,2.3-1.5,3.3c-0.6,1-1.3,1.9-2.1,2.6c-0.8,0.7-1.7,1.3-2.6,1.7
					c-0.9,0.4-1.8,0.6-2.7,0.6c-0.9,0-1.7-0.2-2.5-0.6s-1.5-1-2.2-1.8c-0.7-0.8-1.3-1.8-1.8-2.9c-0.3-0.7-0.6-1.5-0.8-2.3
					C60.5,119.2,60.3,118.3,60.3,118.3z M70.6,125.9c0.8-0.3,1.5-0.8,2.1-1.5c0.6-0.7,1.2-1.5,1.6-2.5c0.5-1,0.9-2.1,1.2-3.3
					c0.3-1.2,0.5-3.2,0.5-3.2c0-0.4-0.2-0.9-0.5-1.2c0,0,0,0-0.2-0.3c-0.2-0.3-0.4-0.6-0.5-0.9c-0.2-0.4-0.3-0.8-0.3-1.2
					c-0.1-0.4-0.1-0.8,0-1.3c0.1-0.4,0.2-0.8,0.4-1.2c0.2-0.4,0.4-0.6,0.4-0.6c0.3-0.3,0.4-0.9,0.4-1.2c0,0-0.2-0.9-0.4-1.8
					c-0.2-0.8-0.5-1.7-0.8-2.4c-0.3-0.6-0.6-1.2-1-1.7s-0.8-0.9-1.3-1.2c-0.5-0.3-1-0.5-1.6-0.5c-0.6,0-1.2,0.1-1.9,0.4
					c-1,0.5-1.9,1.2-2.7,2.2c-0.8,1-1.4,2.2-1.8,3.6c-0.5,1.4-0.8,2.9-0.9,4.6c-0.1,1.7-0.1,3.5,0.2,5.4c0.2,1.3,0.4,2.5,0.7,3.7
					c0.3,1.2,0.7,2.3,1.1,3.2C66.7,125.8,68.4,126.9,70.6,125.9z"/>
				<path class="st0" d="M60.3,118.3c-0.1-0.4-0.2-1-0.2-1.4c0,0-0.3-3.2-0.1-5s0.7-3.6,1.3-5.2c0.7-1.6,1.5-3,2.6-4.2
					c1.1-1.2,2.3-2.1,3.6-2.7c1.1-0.5,2.1-0.7,3-0.7c0.9,0,1.7,0.3,2.5,0.7c0.7,0.4,1.4,1,1.9,1.7c0.6,0.7,1,1.6,1.4,2.5
					c0.4,1,0.8,2,1,3.1c0.2,1.1,0.4,2.1,0.5,3.1c0.1,0.6,0.1,1.3,0.1,1.9c0,0.6,0,1.1,0,1.1c0,0.4,0.2,0.9,0.5,1.1
					c0,0,0.2,0.2,0.7,0.3c0.5,0.1,1,0,1.7-0.2c0.4-0.2,0.7-0.4,1.1-0.7c0.4-0.3,0.7-0.7,1-1.1c0.3-0.5,0.6-1,0.8-1.6
					s0.3-1.4,0.3-1.4c0.1-0.4,0.1-1,0.2-1.4l0.1-0.8c0-0.4,0.2-0.7,0.4-0.6c0.2,0,0.3,0.4,0.3,0.8l-0.1,0.8c0,0.4-0.1,1-0.2,1.4
					c0,0-0.2,1.3-0.5,2c-0.3,0.7-0.6,1.3-1,1.8c-0.4,0.5-0.7,0.8-1.1,1.1c-0.4,0.3-0.7,0.5-1,0.6c-0.6,0.3-1.2,0.4-1.8,0.5
					c-0.6,0.1-0.9,0-0.9,0c-0.4-0.1-0.8,0.2-0.8,0.6c0,0-0.4,1.9-0.8,3.1c-0.4,1.2-0.9,2.3-1.5,3.3c-0.6,1-1.3,1.9-2.1,2.6
					c-0.8,0.7-1.7,1.3-2.6,1.7c-0.9,0.4-1.8,0.6-2.7,0.6c-0.9,0-1.7-0.2-2.5-0.6s-1.5-1-2.2-1.8c-0.7-0.8-1.3-1.8-1.8-2.9
					c-0.3-0.7-0.6-1.5-0.8-2.3C60.5,119.2,60.3,118.3,60.3,118.3z M70.6,125.9c0.8-0.3,1.5-0.8,2.1-1.5c0.6-0.7,1.2-1.5,1.6-2.5
					c0.5-1,0.9-2.1,1.2-3.3c0.3-1.2,0.5-3.2,0.5-3.2c0-0.4-0.2-0.9-0.5-1.2c0,0,0,0-0.2-0.3c-0.2-0.3-0.4-0.6-0.5-0.9
					c-0.2-0.4-0.3-0.8-0.3-1.2c-0.1-0.4-0.1-0.8,0-1.3c0.1-0.4,0.2-0.8,0.4-1.2c0.2-0.4,0.4-0.6,0.4-0.6c0.3-0.3,0.4-0.9,0.4-1.2
					c0,0-0.2-0.9-0.4-1.8c-0.2-0.8-0.5-1.7-0.8-2.4c-0.3-0.6-0.6-1.2-1-1.7s-0.8-0.9-1.3-1.2c-0.5-0.3-1-0.5-1.6-0.5
					c-0.6,0-1.2,0.1-1.9,0.4c-1,0.5-1.9,1.2-2.7,2.2c-0.8,1-1.4,2.2-1.8,3.6c-0.5,1.4-0.8,2.9-0.9,4.6c-0.1,1.7-0.1,3.5,0.2,5.4
					c0.2,1.3,0.4,2.5,0.7,3.7c0.3,1.2,0.7,2.3,1.1,3.2C66.7,125.8,68.4,126.9,70.6,125.9z"/>
			</g>
			<g>
				<path d="M78.1,95.9c-0.1-0.2,0.1-0.5,0.5-0.7l4.4-1.9c0.4-0.2,0.6-0.6,0.6-1l-0.1-1.1c0-0.4,0-1,0-1.4c0,0,0.1-4.9,1-7
					c0.9-2.1,2.3-3.5,4.2-4.4c0.6-0.3,1.2-0.4,1.7-0.5c0.6-0.1,1.1,0,1.6,0.1c0.5,0.1,0.9,0.3,1.3,0.6c0.4,0.3,0.7,0.6,0.8,1.1
					c0.3,0.6,0.3,1.2,0.2,1.7c-0.2,0.5-0.5,0.9-1.1,1.1c-0.4,0.2-0.9,0.2-1.2,0.1c-0.4-0.1-0.7-0.4-0.8-0.9
					c-0.2-0.4-0.2-0.8-0.1-1.2c0.1-0.4,0.3-0.6,0.7-0.8c0.1-0.1,0.1-0.1,0.1-0.1c0.2,0,0.3,0,0.4,0c0,0,0,0,0,0c0,0,0.1,0,0.1,0
					c0.1-0.1,0.1-0.2,0.1-0.3c-0.1-0.2-0.2-0.3-0.5-0.4c-0.2-0.1-0.5-0.1-0.8-0.1s-0.6,0.1-0.9,0.1c-0.3,0.1-0.6,0.2-0.9,0.3
					c-0.6,0.3-1.2,0.7-1.6,1.2c-0.4,0.5-0.7,1.1-1,1.9c-0.2,0.8-0.4,1.7-0.4,2.8c-0.1,1.1,0,3.1,0,3.1c0,0.4,0.1,1,0.1,1.4l0.1,1.3
					c0,0.4,0.3,0.6,0.7,0.4l4.6-2c0.4-0.2,0.7-0.1,0.8,0.1s-0.1,0.5-0.5,0.7l-4.9,2.2c-0.4,0.2-0.6,0.6-0.6,1l2.5,36.7
					c0,0.4-0.2,0.8-0.6,1l-1.6,0.7c-0.4,0.2-0.7,0-0.7-0.4l-2.5-36.7c0-0.4-0.3-0.6-0.7-0.4L78.9,96C78.5,96.2,78.2,96.2,78.1,95.9z
					"/>
				<path class="st0" d="M78.1,95.9c-0.1-0.2,0.1-0.5,0.5-0.7l4.4-1.9c0.4-0.2,0.6-0.6,0.6-1l-0.1-1.1c0-0.4,0-1,0-1.4
					c0,0,0.1-4.9,1-7c0.9-2.1,2.3-3.5,4.2-4.4c0.6-0.3,1.2-0.4,1.7-0.5c0.6-0.1,1.1,0,1.6,0.1c0.5,0.1,0.9,0.3,1.3,0.6
					c0.4,0.3,0.7,0.6,0.8,1.1c0.3,0.6,0.3,1.2,0.2,1.7c-0.2,0.5-0.5,0.9-1.1,1.1c-0.4,0.2-0.9,0.2-1.2,0.1c-0.4-0.1-0.7-0.4-0.8-0.9
					c-0.2-0.4-0.2-0.8-0.1-1.2c0.1-0.4,0.3-0.6,0.7-0.8c0.1-0.1,0.1-0.1,0.1-0.1c0.2,0,0.3,0,0.4,0c0,0,0,0,0,0c0,0,0.1,0,0.1,0
					c0.1-0.1,0.1-0.2,0.1-0.3c-0.1-0.2-0.2-0.3-0.5-0.4c-0.2-0.1-0.5-0.1-0.8-0.1s-0.6,0.1-0.9,0.1c-0.3,0.1-0.6,0.2-0.9,0.3
					c-0.6,0.3-1.2,0.7-1.6,1.2c-0.4,0.5-0.7,1.1-1,1.9c-0.2,0.8-0.4,1.7-0.4,2.8c-0.1,1.1,0,3.1,0,3.1c0,0.4,0.1,1,0.1,1.4l0.1,1.3
					c0,0.4,0.3,0.6,0.7,0.4l4.6-2c0.4-0.2,0.7-0.1,0.8,0.1s-0.1,0.5-0.5,0.7l-4.9,2.2c-0.4,0.2-0.6,0.6-0.6,1l2.5,36.7
					c0,0.4-0.2,0.8-0.6,1l-1.6,0.7c-0.4,0.2-0.7,0-0.7-0.4l-2.5-36.7c0-0.4-0.3-0.6-0.7-0.4L78.9,96C78.5,96.2,78.2,96.2,78.1,95.9z
					"/>
			</g>
			<g>
				<path d="M92.6,89.5c-0.1-0.2,0.1-0.5,0.5-0.7l4.4-1.9c0.4-0.2,0.6-0.6,0.6-1l-0.1-1.1c0-0.4,0-1,0-1.4c0,0,0.1-4.9,1-7
					c0.9-2.1,2.3-3.5,4.2-4.4c0.6-0.3,1.2-0.4,1.7-0.5c0.6-0.1,1.1,0,1.6,0.1s0.9,0.3,1.3,0.6c0.4,0.3,0.7,0.6,0.8,1.1
					c0.3,0.6,0.3,1.2,0.2,1.7c-0.2,0.5-0.5,0.9-1.1,1.1c-0.4,0.2-0.9,0.2-1.2,0.1c-0.4-0.1-0.7-0.4-0.8-0.9
					c-0.2-0.4-0.2-0.8-0.1-1.2c0.1-0.4,0.3-0.6,0.7-0.8c0.1-0.1,0.1-0.1,0.1-0.1c0.2,0,0.3,0,0.4,0c0,0,0,0,0,0c0,0,0.1,0,0.1,0
					c0.1-0.1,0.1-0.2,0.1-0.3c-0.1-0.2-0.2-0.3-0.5-0.4c-0.2-0.1-0.5-0.1-0.8-0.1c-0.3,0-0.6,0.1-0.9,0.1c-0.3,0.1-0.6,0.2-0.9,0.3
					c-0.6,0.3-1.2,0.7-1.6,1.2c-0.4,0.5-0.7,1.1-1,1.9c-0.2,0.8-0.4,1.7-0.4,2.8c-0.1,1.1,0,3.1,0,3.1c0,0.4,0.1,1,0.1,1.4l0.1,1.3
					c0,0.4,0.3,0.6,0.7,0.4l4.6-2c0.4-0.2,0.7-0.1,0.8,0.1c0.1,0.2-0.1,0.5-0.5,0.7l-4.9,2.2c-0.4,0.2-0.6,0.6-0.6,1l2.5,36.7
					c0,0.4-0.2,0.8-0.6,1l-1.6,0.7c-0.4,0.2-0.7,0-0.7-0.4l-2.5-36.7c0-0.4-0.3-0.6-0.7-0.4l-4.1,1.8C93.1,89.8,92.7,89.7,92.6,89.5
					z"/>
				<path class="st0" d="M92.6,89.5c-0.1-0.2,0.1-0.5,0.5-0.7l4.4-1.9c0.4-0.2,0.6-0.6,0.6-1l-0.1-1.1c0-0.4,0-1,0-1.4
					c0,0,0.1-4.9,1-7c0.9-2.1,2.3-3.5,4.2-4.4c0.6-0.3,1.2-0.4,1.7-0.5c0.6-0.1,1.1,0,1.6,0.1s0.9,0.3,1.3,0.6
					c0.4,0.3,0.7,0.6,0.8,1.1c0.3,0.6,0.3,1.2,0.2,1.7c-0.2,0.5-0.5,0.9-1.1,1.1c-0.4,0.2-0.9,0.2-1.2,0.1c-0.4-0.1-0.7-0.4-0.8-0.9
					c-0.2-0.4-0.2-0.8-0.1-1.2c0.1-0.4,0.3-0.6,0.7-0.8c0.1-0.1,0.1-0.1,0.1-0.1c0.2,0,0.3,0,0.4,0c0,0,0,0,0,0c0,0,0.1,0,0.1,0
					c0.1-0.1,0.1-0.2,0.1-0.3c-0.1-0.2-0.2-0.3-0.5-0.4c-0.2-0.1-0.5-0.1-0.8-0.1c-0.3,0-0.6,0.1-0.9,0.1c-0.3,0.1-0.6,0.2-0.9,0.3
					c-0.6,0.3-1.2,0.7-1.6,1.2c-0.4,0.5-0.7,1.1-1,1.9c-0.2,0.8-0.4,1.7-0.4,2.8c-0.1,1.1,0,3.1,0,3.1c0,0.4,0.1,1,0.1,1.4l0.1,1.3
					c0,0.4,0.3,0.6,0.7,0.4l4.6-2c0.4-0.2,0.7-0.1,0.8,0.1c0.1,0.2-0.1,0.5-0.5,0.7l-4.9,2.2c-0.4,0.2-0.6,0.6-0.6,1l2.5,36.7
					c0,0.4-0.2,0.8-0.6,1l-1.6,0.7c-0.4,0.2-0.7,0-0.7-0.4l-2.5-36.7c0-0.4-0.3-0.6-0.7-0.4l-4.1,1.8C93.1,89.8,92.7,89.7,92.6,89.5
					z"/>
			</g>
			<g>
				<path d="M125.7,102.7c-2.4,1-4.5,1.2-6.3,0.6c-1.8-0.7-3.3-2.2-4.4-4.7c-0.3-0.7-0.6-1.4-0.8-2.2c-0.2-0.8-0.4-1.8-0.4-1.8
					c-0.1-0.4-0.2-1-0.2-1.4c0,0-0.3-3.2-0.1-5c0.2-1.9,0.6-3.6,1.2-5.2c0.6-1.6,1.5-3,2.5-4.1c1-1.2,2.2-2.1,3.5-2.6
					c1.3-0.6,2.5-0.7,3.5-0.4c1,0.3,1.8,1,2.3,2.1c0.3,0.6,0.4,1.3,0.4,2c0,0.7-0.1,1.4-0.3,2.2c-0.2,0.7-0.6,1.5-1,2.3
					c-0.5,0.8-1,1.5-1.7,2.2c-0.8,0.9-1.8,1.7-2.9,2.5c-1.1,0.8-3.4,1.9-3.4,1.9c-0.4,0.2-0.6,0.6-0.6,1c0,0,0.2,1.7,0.5,3
					c0.3,1.2,0.7,2.5,1.2,3.7c0.8,1.8,1.8,3,2.9,3.4c1.1,0.5,2.5,0.3,4.2-0.4c1.4-0.6,2.6-1.5,3.6-2.5c1-1.1,1.9-2.3,2.5-3.6
					c0.7-1.3,1.2-2.7,1.6-4.2c0.4-1.5,0.7-3.7,0.7-3.7c0.1-0.4,0.1-1,0.2-1.4l0.1-0.8c0-0.4,0.2-0.7,0.4-0.6c0.2,0,0.3,0.4,0.3,0.8
					l-0.1,0.8c0,0.4-0.1,1-0.2,1.4c0,0-0.4,2.8-0.8,4.4c-0.4,1.6-1,3.1-1.8,4.5c-0.7,1.4-1.7,2.6-2.7,3.7
					C128.4,101.2,127.2,102,125.7,102.7z M121.6,76.7c-0.8,0.4-1.6,1-2.2,1.8c-0.6,0.9-1.2,1.9-1.6,3.1c-0.4,1.2-0.7,2.6-0.9,4
					c-0.2,1.5-0.1,3.9-0.1,3.9c0,0.4,0.3,0.6,0.7,0.4c0,0,2-1,2.9-1.7c0.9-0.7,1.7-1.4,2.3-2.1c0.5-0.5,0.9-1.2,1.3-1.8
					c0.4-0.7,0.7-1.4,0.8-2.2c0.2-0.8,0.3-1.5,0.3-2.3c0-0.8-0.2-1.5-0.5-2.2c-0.2-0.4-0.3-0.6-0.5-0.8c-0.2-0.2-0.4-0.3-0.7-0.4
					c-0.3-0.1-0.5-0.1-0.8,0C122.2,76.5,121.9,76.6,121.6,76.7z"/>
				<path class="st0" d="M125.7,102.7c-2.4,1-4.5,1.2-6.3,0.6c-1.8-0.7-3.3-2.2-4.4-4.7c-0.3-0.7-0.6-1.4-0.8-2.2
					c-0.2-0.8-0.4-1.8-0.4-1.8c-0.1-0.4-0.2-1-0.2-1.4c0,0-0.3-3.2-0.1-5c0.2-1.9,0.6-3.6,1.2-5.2c0.6-1.6,1.5-3,2.5-4.1
					c1-1.2,2.2-2.1,3.5-2.6c1.3-0.6,2.5-0.7,3.5-0.4c1,0.3,1.8,1,2.3,2.1c0.3,0.6,0.4,1.3,0.4,2c0,0.7-0.1,1.4-0.3,2.2
					c-0.2,0.7-0.6,1.5-1,2.3c-0.5,0.8-1,1.5-1.7,2.2c-0.8,0.9-1.8,1.7-2.9,2.5c-1.1,0.8-3.4,1.9-3.4,1.9c-0.4,0.2-0.6,0.6-0.6,1
					c0,0,0.2,1.7,0.5,3c0.3,1.2,0.7,2.5,1.2,3.7c0.8,1.8,1.8,3,2.9,3.4c1.1,0.5,2.5,0.3,4.2-0.4c1.4-0.6,2.6-1.5,3.6-2.5
					c1-1.1,1.9-2.3,2.5-3.6c0.7-1.3,1.2-2.7,1.6-4.2c0.4-1.5,0.7-3.7,0.7-3.7c0.1-0.4,0.1-1,0.2-1.4l0.1-0.8c0-0.4,0.2-0.7,0.4-0.6
					c0.2,0,0.3,0.4,0.3,0.8l-0.1,0.8c0,0.4-0.1,1-0.2,1.4c0,0-0.4,2.8-0.8,4.4c-0.4,1.6-1,3.1-1.8,4.5c-0.7,1.4-1.7,2.6-2.7,3.7
					C128.4,101.2,127.2,102,125.7,102.7z M121.6,76.7c-0.8,0.4-1.6,1-2.2,1.8c-0.6,0.9-1.2,1.9-1.6,3.1c-0.4,1.2-0.7,2.6-0.9,4
					c-0.2,1.5-0.1,3.9-0.1,3.9c0,0.4,0.3,0.6,0.7,0.4c0,0,2-1,2.9-1.7c0.9-0.7,1.7-1.4,2.3-2.1c0.5-0.5,0.9-1.2,1.3-1.8
					c0.4-0.7,0.7-1.4,0.8-2.2c0.2-0.8,0.3-1.5,0.3-2.3c0-0.8-0.2-1.5-0.5-2.2c-0.2-0.4-0.3-0.6-0.5-0.8c-0.2-0.2-0.4-0.3-0.7-0.4
					c-0.3-0.1-0.5-0.1-0.8,0C122.2,76.5,121.9,76.6,121.6,76.7z"/>
			</g>
			<g>
				<path d="M146.5,93.5c-2.4,1-4.5,1.2-6.3,0.6c-1.8-0.7-3.3-2.2-4.4-4.7c-0.3-0.7-0.6-1.4-0.8-2.2c-0.2-0.8-0.4-1.8-0.4-1.8
					c-0.1-0.4-0.2-1-0.2-1.4c0,0-0.3-3.2-0.1-5c0.2-1.9,0.6-3.6,1.2-5.2c0.6-1.6,1.5-3,2.5-4.1c1-1.2,2.2-2.1,3.5-2.6
					c1.3-0.6,2.5-0.7,3.5-0.4c1,0.3,1.8,1,2.3,2.1c0.3,0.6,0.4,1.3,0.4,2c0,0.7-0.1,1.4-0.3,2.2c-0.2,0.7-0.6,1.5-1,2.3
					c-0.5,0.8-1,1.5-1.7,2.2c-0.8,0.9-1.8,1.7-2.9,2.5c-1.1,0.8-3.4,1.9-3.4,1.9c-0.4,0.2-0.6,0.6-0.6,1c0,0,0.2,1.7,0.5,3
					c0.3,1.2,0.7,2.5,1.2,3.7c0.8,1.8,1.8,3,2.9,3.4c1.1,0.5,2.5,0.3,4.2-0.4c1.4-0.6,2.6-1.5,3.6-2.5c1-1.1,1.9-2.3,2.5-3.6
					c0.7-1.3,1.2-2.7,1.6-4.2c0.4-1.5,0.7-3.7,0.7-3.7c0.1-0.4,0.1-1,0.2-1.4l0.1-0.8c0-0.4,0.2-0.7,0.4-0.6c0.2,0,0.3,0.4,0.3,0.8
					l-0.1,0.8c0,0.4-0.1,1-0.2,1.4c0,0-0.4,2.8-0.8,4.4c-0.4,1.6-1,3.1-1.8,4.5c-0.7,1.4-1.7,2.6-2.7,3.7
					C149.2,92,147.9,92.8,146.5,93.5z M142.3,67.5c-0.8,0.4-1.6,1-2.2,1.8c-0.6,0.9-1.2,1.9-1.6,3.1c-0.4,1.2-0.7,2.6-0.9,4
					c-0.2,1.5-0.1,3.9-0.1,3.9c0,0.4,0.3,0.6,0.7,0.4c0,0,2-1,2.9-1.7c0.9-0.7,1.7-1.4,2.3-2.1c0.5-0.5,0.9-1.2,1.3-1.8
					c0.4-0.7,0.7-1.4,0.8-2.2c0.2-0.8,0.3-1.5,0.3-2.3c0-0.8-0.2-1.5-0.5-2.2c-0.2-0.4-0.3-0.6-0.5-0.8c-0.2-0.2-0.4-0.3-0.7-0.4
					c-0.3-0.1-0.5-0.1-0.8,0C142.9,67.3,142.6,67.4,142.3,67.5z"/>
				<path class="st0" d="M146.5,93.5c-2.4,1-4.5,1.2-6.3,0.6c-1.8-0.7-3.3-2.2-4.4-4.7c-0.3-0.7-0.6-1.4-0.8-2.2
					c-0.2-0.8-0.4-1.8-0.4-1.8c-0.1-0.4-0.2-1-0.2-1.4c0,0-0.3-3.2-0.1-5c0.2-1.9,0.6-3.6,1.2-5.2c0.6-1.6,1.5-3,2.5-4.1
					c1-1.2,2.2-2.1,3.5-2.6c1.3-0.6,2.5-0.7,3.5-0.4c1,0.3,1.8,1,2.3,2.1c0.3,0.6,0.4,1.3,0.4,2c0,0.7-0.1,1.4-0.3,2.2
					c-0.2,0.7-0.6,1.5-1,2.3c-0.5,0.8-1,1.5-1.7,2.2c-0.8,0.9-1.8,1.7-2.9,2.5c-1.1,0.8-3.4,1.9-3.4,1.9c-0.4,0.2-0.6,0.6-0.6,1
					c0,0,0.2,1.7,0.5,3c0.3,1.2,0.7,2.5,1.2,3.7c0.8,1.8,1.8,3,2.9,3.4c1.1,0.5,2.5,0.3,4.2-0.4c1.4-0.6,2.6-1.5,3.6-2.5
					c1-1.1,1.9-2.3,2.5-3.6c0.7-1.3,1.2-2.7,1.6-4.2c0.4-1.5,0.7-3.7,0.7-3.7c0.1-0.4,0.1-1,0.2-1.4l0.1-0.8c0-0.4,0.2-0.7,0.4-0.6
					c0.2,0,0.3,0.4,0.3,0.8l-0.1,0.8c0,0.4-0.1,1-0.2,1.4c0,0-0.4,2.8-0.8,4.4c-0.4,1.6-1,3.1-1.8,4.5c-0.7,1.4-1.7,2.6-2.7,3.7
					C149.2,92,147.9,92.8,146.5,93.5z M142.3,67.5c-0.8,0.4-1.6,1-2.2,1.8c-0.6,0.9-1.2,1.9-1.6,3.1c-0.4,1.2-0.7,2.6-0.9,4
					c-0.2,1.5-0.1,3.9-0.1,3.9c0,0.4,0.3,0.6,0.7,0.4c0,0,2-1,2.9-1.7c0.9-0.7,1.7-1.4,2.3-2.1c0.5-0.5,0.9-1.2,1.3-1.8
					c0.4-0.7,0.7-1.4,0.8-2.2c0.2-0.8,0.3-1.5,0.3-2.3c0-0.8-0.2-1.5-0.5-2.2c-0.2-0.4-0.3-0.6-0.5-0.8c-0.2-0.2-0.4-0.3-0.7-0.4
					c-0.3-0.1-0.5-0.1-0.8,0C142.9,67.3,142.6,67.4,142.3,67.5z"/>
			</g>
			<g>
				<path d="M70.2,178.2c-0.3-0.7-0.5-1.4-0.7-2.1c-0.1-0.7-0.2-1.4-0.2-2.1c0-0.7,0.1-1.3,0.2-1.9c0.1-0.6,0.3-0.9,0.3-0.9
					c0.2-0.4,0.4-1,0.4-1.4l2.7-14.3c0.1-0.4,0.1-1,0-1.4c0,0-0.3-1.4-0.2-2.2c0.1-0.8,0.4-1.3,0.9-1.5c0.4-0.2,0.8-0.2,1.1-0.1
					c0.4,0.1,0.6,0.3,0.7,0.6c0.1,0.2,0.1,0.4,0.1,0.7c0,0.2-0.1,0.5-0.3,0.8c-0.2,0.4-0.3,0.7-0.4,1c-0.1,0.3-0.2,0.6-0.2,0.9
					c0,0.3,0,0.6,0,0.8c0.1,0.3,0.2,0.6,0.3,0.8c0.1,0.3,0.3,0.6,0.5,0.9c0.2,0.3,0.4,0.7,0.8,1.1c0.3,0.4,0.8,1,1.3,1.6
					c0.5,0.6,1.2,1.4,2,2.4c0.8,0.9,1.5,1.9,2.1,2.8c0.6,0.9,1.1,1.9,1.5,2.8c1.6,3.6-0.1,9.2-0.1,9.2c-0.1,0.4-0.4,1-0.6,1.3
					c0,0-0.8,1.1-1.5,1.8c-0.8,0.7-1.6,1.2-2.5,1.6c-0.9,0.4-1.7,0.6-2.5,0.6c-0.8,0-1.6-0.1-2.3-0.4c-0.7-0.3-1.3-0.7-1.9-1.3
					C71.1,179.8,70.6,179,70.2,178.2z M73.6,156.4c-0.1-0.1-0.2,0.1-0.2,0.5l-2.2,11.9c-0.1,0.4,0.2,0.6,0.6,0.5c0,0,0.1,0,0.5,0.1
					c0.4,0.2,0.7,0.5,0.9,0.9c0.1,0.2,0.2,0.5,0.2,0.7c0,0.2,0,0.5,0,0.7c0,0.2-0.1,0.4-0.2,0.6c-0.1,0.2-0.3,0.3-0.4,0.4
					c-0.2,0.1-0.4,0.1-0.6,0.1c-0.2,0-0.4,0-0.7,0.1c-0.3,0.1-0.5,0.3-0.6,0.6c-0.2,0.3-0.3,0.7-0.3,1.1c0,0.4,0,0.9,0.1,1.4
					c0.1,0.5,0.3,1,0.5,1.6c0.3,0.7,0.7,1.3,1.2,1.8c0.5,0.5,1,0.9,1.5,1.1c0.6,0.2,1.2,0.4,1.8,0.3c0.6,0,1.3-0.2,2-0.5
					c0.9-0.4,1.7-1,2.3-1.7c0.6-0.7,1.1-1.9,1.1-1.9c0.1-0.4,0.3-1,0.3-1.4c0,0,0.1-4.8-1.5-8.4c-0.2-0.4-0.4-0.9-0.6-1.3
					c-0.2-0.4-0.4-0.9-0.7-1.3c-0.3-0.5-0.5-0.9-0.9-1.5s-0.7-1.1-1.1-1.7c-0.7-1.1-1.3-2-1.7-2.7c-0.4-0.7-0.7-1.2-0.7-1.2
					C73.9,156.9,73.7,156.6,73.6,156.4z"/>
				<path class="st0" d="M70.2,178.2c-0.3-0.7-0.5-1.4-0.7-2.1c-0.1-0.7-0.2-1.4-0.2-2.1c0-0.7,0.1-1.3,0.2-1.9
					c0.1-0.6,0.3-0.9,0.3-0.9c0.2-0.4,0.4-1,0.4-1.4l2.7-14.3c0.1-0.4,0.1-1,0-1.4c0,0-0.3-1.4-0.2-2.2c0.1-0.8,0.4-1.3,0.9-1.5
					c0.4-0.2,0.8-0.2,1.1-0.1c0.4,0.1,0.6,0.3,0.7,0.6c0.1,0.2,0.1,0.4,0.1,0.7c0,0.2-0.1,0.5-0.3,0.8c-0.2,0.4-0.3,0.7-0.4,1
					c-0.1,0.3-0.2,0.6-0.2,0.9c0,0.3,0,0.6,0,0.8c0.1,0.3,0.2,0.6,0.3,0.8c0.1,0.3,0.3,0.6,0.5,0.9c0.2,0.3,0.4,0.7,0.8,1.1
					c0.3,0.4,0.8,1,1.3,1.6c0.5,0.6,1.2,1.4,2,2.4c0.8,0.9,1.5,1.9,2.1,2.8c0.6,0.9,1.1,1.9,1.5,2.8c1.6,3.6-0.1,9.2-0.1,9.2
					c-0.1,0.4-0.4,1-0.6,1.3c0,0-0.8,1.1-1.5,1.8c-0.8,0.7-1.6,1.2-2.5,1.6c-0.9,0.4-1.7,0.6-2.5,0.6c-0.8,0-1.6-0.1-2.3-0.4
					c-0.7-0.3-1.3-0.7-1.9-1.3C71.1,179.8,70.6,179,70.2,178.2z M73.6,156.4c-0.1-0.1-0.2,0.1-0.2,0.5l-2.2,11.9
					c-0.1,0.4,0.2,0.6,0.6,0.5c0,0,0.1,0,0.5,0.1c0.4,0.2,0.7,0.5,0.9,0.9c0.1,0.2,0.2,0.5,0.2,0.7c0,0.2,0,0.5,0,0.7
					c0,0.2-0.1,0.4-0.2,0.6c-0.1,0.2-0.3,0.3-0.4,0.4c-0.2,0.1-0.4,0.1-0.6,0.1c-0.2,0-0.4,0-0.7,0.1c-0.3,0.1-0.5,0.3-0.6,0.6
					c-0.2,0.3-0.3,0.7-0.3,1.1c0,0.4,0,0.9,0.1,1.4c0.1,0.5,0.3,1,0.5,1.6c0.3,0.7,0.7,1.3,1.2,1.8c0.5,0.5,1,0.9,1.5,1.1
					c0.6,0.2,1.2,0.4,1.8,0.3c0.6,0,1.3-0.2,2-0.5c0.9-0.4,1.7-1,2.3-1.7c0.6-0.7,1.1-1.9,1.1-1.9c0.1-0.4,0.3-1,0.3-1.4
					c0,0,0.1-4.8-1.5-8.4c-0.2-0.4-0.4-0.9-0.6-1.3c-0.2-0.4-0.4-0.9-0.7-1.3c-0.3-0.5-0.5-0.9-0.9-1.5s-0.7-1.1-1.1-1.7
					c-0.7-1.1-1.3-2-1.7-2.7c-0.4-0.7-0.7-1.2-0.7-1.2C73.9,156.9,73.7,156.6,73.6,156.4z"/>
			</g>
			<g>
				<path d="M88.5,137c0-0.4,0.2-0.8,0.6-1l1.6-0.7c0.4-0.2,0.7,0,0.7,0.4l1.4,20.4c0,0.4,0.1,0.4,0.1,0c0,0,0.4-2.8,0.7-4.3
					c0.3-1.5,0.7-2.7,1.2-3.8c0.5-1.1,1.1-2,1.7-2.7c0.7-0.7,1.5-1.3,2.5-1.7c0.8-0.4,1.6-0.5,2.3-0.5c0.7,0,1.4,0.1,2,0.4
					c0.6,0.3,1.2,0.7,1.7,1.3c0.5,0.6,0.9,1.3,1.3,2.1c0.3,0.6,0.5,1.3,0.6,2.2c0.1,0.9,0.2,1.9,0.3,2.9c0.1,1,0.1,2.1,0.2,3.2
					c0,1.1,0.1,2.2,0.2,3.2c0.1,1,0.2,2,0.3,2.8c0.1,0.9,0.3,1.6,0.5,2.1c0.4,0.9,1,1.5,1.7,1.8c0.7,0.3,1.6,0.3,2.6-0.2
					c0.9-0.4,1.6-1,2.3-1.7c0.6-0.7,1.2-1.7,1.7-2.8c0.5-1.1,0.8-2.4,1.1-4c0.3-1.5,0.7-4.5,0.7-4.5c0-0.4,0.1-1,0.2-1.4l0.1-0.8
					c0-0.4,0.2-0.7,0.4-0.6c0.2,0,0.3,0.4,0.3,0.8l-0.1,0.8c0,0.4-0.1,1-0.2,1.4c0,0-0.4,3.3-0.7,4.9c-0.3,1.6-0.7,3-1.3,4.2
					c-0.5,1.2-1.1,2.2-1.9,3c-0.7,0.8-1.6,1.4-2.6,1.9c-0.8,0.4-1.6,0.5-2.3,0.6c-0.7,0-1.4-0.1-2-0.4c-0.6-0.3-1.2-0.7-1.6-1.2
					c-0.5-0.5-0.9-1.2-1.2-2c-0.2-0.6-0.4-1.3-0.6-2.2c-0.1-0.9-0.2-1.9-0.3-2.9c-0.1-1.1-0.1-2.2-0.2-3.3c0-1.1-0.1-2.2-0.2-3.2
					c-0.1-1-0.2-2-0.3-2.8c-0.1-0.9-0.3-1.5-0.5-2.1c-0.5-1-1.1-1.7-1.8-2.1c-0.7-0.4-1.6-0.4-2.6,0.1c-0.9,0.4-1.7,1-2.3,1.8
					c-0.6,0.8-1.2,1.8-1.7,3.1c-0.5,1.3-0.9,2.9-1.2,4.7c-0.3,1.9-0.7,5.9-0.7,5.9c0,0.4,0,1,0,1.4l0.8,11.7c0,0.4-0.2,0.8-0.6,1
					l-1.6,0.7c-0.4,0.2-0.7,0-0.7-0.4L88.5,137z"/>
				<path class="st0" d="M88.5,137c0-0.4,0.2-0.8,0.6-1l1.6-0.7c0.4-0.2,0.7,0,0.7,0.4l1.4,20.4c0,0.4,0.1,0.4,0.1,0
					c0,0,0.4-2.8,0.7-4.3c0.3-1.5,0.7-2.7,1.2-3.8c0.5-1.1,1.1-2,1.7-2.7c0.7-0.7,1.5-1.3,2.5-1.7c0.8-0.4,1.6-0.5,2.3-0.5
					c0.7,0,1.4,0.1,2,0.4c0.6,0.3,1.2,0.7,1.7,1.3c0.5,0.6,0.9,1.3,1.3,2.1c0.3,0.6,0.5,1.3,0.6,2.2c0.1,0.9,0.2,1.9,0.3,2.9
					c0.1,1,0.1,2.1,0.2,3.2c0,1.1,0.1,2.2,0.2,3.2c0.1,1,0.2,2,0.3,2.8c0.1,0.9,0.3,1.6,0.5,2.1c0.4,0.9,1,1.5,1.7,1.8
					c0.7,0.3,1.6,0.3,2.6-0.2c0.9-0.4,1.6-1,2.3-1.7c0.6-0.7,1.2-1.7,1.7-2.8c0.5-1.1,0.8-2.4,1.1-4c0.3-1.5,0.7-4.5,0.7-4.5
					c0-0.4,0.1-1,0.2-1.4l0.1-0.8c0-0.4,0.2-0.7,0.4-0.6c0.2,0,0.3,0.4,0.3,0.8l-0.1,0.8c0,0.4-0.1,1-0.2,1.4c0,0-0.4,3.3-0.7,4.9
					c-0.3,1.6-0.7,3-1.3,4.2c-0.5,1.2-1.1,2.2-1.9,3c-0.7,0.8-1.6,1.4-2.6,1.9c-0.8,0.4-1.6,0.5-2.3,0.6c-0.7,0-1.4-0.1-2-0.4
					c-0.6-0.3-1.2-0.7-1.6-1.2c-0.5-0.5-0.9-1.2-1.2-2c-0.2-0.6-0.4-1.3-0.6-2.2c-0.1-0.9-0.2-1.9-0.3-2.9c-0.1-1.1-0.1-2.2-0.2-3.3
					c0-1.1-0.1-2.2-0.2-3.2c-0.1-1-0.2-2-0.3-2.8c-0.1-0.9-0.3-1.5-0.5-2.1c-0.5-1-1.1-1.7-1.8-2.1c-0.7-0.4-1.6-0.4-2.6,0.1
					c-0.9,0.4-1.7,1-2.3,1.8c-0.6,0.8-1.2,1.8-1.7,3.1c-0.5,1.3-0.9,2.9-1.2,4.7c-0.3,1.9-0.7,5.9-0.7,5.9c0,0.4,0,1,0,1.4l0.8,11.7
					c0,0.4-0.2,0.8-0.6,1l-1.6,0.7c-0.4,0.2-0.7,0-0.7-0.4L88.5,137z"/>
			</g>
			<g>
				<path d="M118.8,150.1c-0.1-0.4-0.2-1-0.2-1.4c0,0-0.3-3.2-0.1-5c0.2-1.9,0.7-3.6,1.3-5.2c0.7-1.6,1.5-3,2.6-4.2
					c1.1-1.2,2.3-2.1,3.6-2.7c1.1-0.5,2.1-0.7,3-0.7c0.9,0,1.7,0.3,2.5,0.7c0.7,0.4,1.4,1,1.9,1.7c0.6,0.7,1,1.6,1.4,2.5
					c0.4,1,0.8,2,1,3.1c0.2,1.1,0.4,2.1,0.5,3.1c0.1,0.6,0.1,1.3,0.1,1.9c0,0.6,0,1.1,0,1.1c0,0.4,0.2,0.9,0.5,1.1
					c0,0,0.2,0.2,0.7,0.3c0.5,0.1,1,0,1.7-0.2c0.4-0.2,0.7-0.4,1.1-0.7c0.4-0.3,0.7-0.7,1-1.1c0.3-0.5,0.6-1,0.8-1.6
					s0.3-1.4,0.3-1.4c0.1-0.4,0.1-1,0.2-1.4l0.1-0.8c0-0.4,0.2-0.7,0.4-0.6c0.2,0,0.3,0.4,0.3,0.8l-0.1,0.8c0,0.4-0.1,1-0.2,1.4
					c0,0-0.2,1.3-0.5,2c-0.3,0.7-0.6,1.3-1,1.8c-0.4,0.5-0.8,0.8-1.1,1.1c-0.4,0.3-0.7,0.5-1,0.6c-0.6,0.3-1.2,0.4-1.8,0.5
					c-0.6,0.1-0.9,0-0.9,0c-0.4-0.1-0.8,0.2-0.8,0.6c0,0-0.4,1.9-0.8,3.1c-0.4,1.2-0.9,2.3-1.5,3.3c-0.6,1-1.3,1.9-2.1,2.6
					c-0.8,0.7-1.7,1.3-2.6,1.7c-0.9,0.4-1.8,0.6-2.7,0.6c-0.9,0-1.7-0.2-2.5-0.6c-0.8-0.4-1.5-1-2.2-1.8c-0.7-0.8-1.3-1.8-1.8-2.9
					c-0.3-0.7-0.6-1.5-0.8-2.3C119,151.1,118.8,150.1,118.8,150.1z M129.1,157.7c0.8-0.3,1.5-0.8,2.1-1.5c0.6-0.7,1.2-1.5,1.6-2.5
					c0.5-1,0.9-2.1,1.2-3.3c0.3-1.2,0.5-3.2,0.5-3.2c0-0.4-0.2-0.9-0.5-1.2c0,0,0,0-0.2-0.3c-0.2-0.3-0.4-0.6-0.5-0.9
					c-0.2-0.4-0.3-0.8-0.3-1.2c-0.1-0.4-0.1-0.8,0-1.3c0.1-0.4,0.2-0.8,0.4-1.2c0.2-0.4,0.4-0.6,0.4-0.6c0.3-0.3,0.4-0.9,0.4-1.2
					c0,0-0.2-0.9-0.4-1.8c-0.2-0.8-0.5-1.7-0.8-2.4c-0.3-0.6-0.6-1.2-1-1.7c-0.4-0.5-0.8-0.9-1.3-1.2c-0.5-0.3-1-0.5-1.6-0.5
					c-0.6,0-1.2,0.1-1.9,0.4c-1,0.5-1.9,1.2-2.7,2.2c-0.8,1-1.4,2.2-1.8,3.6c-0.5,1.4-0.8,2.9-0.9,4.6c-0.1,1.7-0.1,3.5,0.2,5.4
					c0.2,1.3,0.4,2.5,0.7,3.7c0.3,1.2,0.7,2.3,1.1,3.2C125.2,157.6,127,158.7,129.1,157.7z"/>
				<path class="st0" d="M118.8,150.1c-0.1-0.4-0.2-1-0.2-1.4c0,0-0.3-3.2-0.1-5c0.2-1.9,0.7-3.6,1.3-5.2c0.7-1.6,1.5-3,2.6-4.2
					c1.1-1.2,2.3-2.1,3.6-2.7c1.1-0.5,2.1-0.7,3-0.7c0.9,0,1.7,0.3,2.5,0.7c0.7,0.4,1.4,1,1.9,1.7c0.6,0.7,1,1.6,1.4,2.5
					c0.4,1,0.8,2,1,3.1c0.2,1.1,0.4,2.1,0.5,3.1c0.1,0.6,0.1,1.3,0.1,1.9c0,0.6,0,1.1,0,1.1c0,0.4,0.2,0.9,0.5,1.1
					c0,0,0.2,0.2,0.7,0.3c0.5,0.1,1,0,1.7-0.2c0.4-0.2,0.7-0.4,1.1-0.7c0.4-0.3,0.7-0.7,1-1.1c0.3-0.5,0.6-1,0.8-1.6
					s0.3-1.4,0.3-1.4c0.1-0.4,0.1-1,0.2-1.4l0.1-0.8c0-0.4,0.2-0.7,0.4-0.6c0.2,0,0.3,0.4,0.3,0.8l-0.1,0.8c0,0.4-0.1,1-0.2,1.4
					c0,0-0.2,1.3-0.5,2c-0.3,0.7-0.6,1.3-1,1.8c-0.4,0.5-0.8,0.8-1.1,1.1c-0.4,0.3-0.7,0.5-1,0.6c-0.6,0.3-1.2,0.4-1.8,0.5
					c-0.6,0.1-0.9,0-0.9,0c-0.4-0.1-0.8,0.2-0.8,0.6c0,0-0.4,1.9-0.8,3.1c-0.4,1.2-0.9,2.3-1.5,3.3c-0.6,1-1.3,1.9-2.1,2.6
					c-0.8,0.7-1.7,1.3-2.6,1.7c-0.9,0.4-1.8,0.6-2.7,0.6c-0.9,0-1.7-0.2-2.5-0.6c-0.8-0.4-1.5-1-2.2-1.8c-0.7-0.8-1.3-1.8-1.8-2.9
					c-0.3-0.7-0.6-1.5-0.8-2.3C119,151.1,118.8,150.1,118.8,150.1z M129.1,157.7c0.8-0.3,1.5-0.8,2.1-1.5c0.6-0.7,1.2-1.5,1.6-2.5
					c0.5-1,0.9-2.1,1.2-3.3c0.3-1.2,0.5-3.2,0.5-3.2c0-0.4-0.2-0.9-0.5-1.2c0,0,0,0-0.2-0.3c-0.2-0.3-0.4-0.6-0.5-0.9
					c-0.2-0.4-0.3-0.8-0.3-1.2c-0.1-0.4-0.1-0.8,0-1.3c0.1-0.4,0.2-0.8,0.4-1.2c0.2-0.4,0.4-0.6,0.4-0.6c0.3-0.3,0.4-0.9,0.4-1.2
					c0,0-0.2-0.9-0.4-1.8c-0.2-0.8-0.5-1.7-0.8-2.4c-0.3-0.6-0.6-1.2-1-1.7c-0.4-0.5-0.8-0.9-1.3-1.2c-0.5-0.3-1-0.5-1.6-0.5
					c-0.6,0-1.2,0.1-1.9,0.4c-1,0.5-1.9,1.2-2.7,2.2c-0.8,1-1.4,2.2-1.8,3.6c-0.5,1.4-0.8,2.9-0.9,4.6c-0.1,1.7-0.1,3.5,0.2,5.4
					c0.2,1.3,0.4,2.5,0.7,3.7c0.3,1.2,0.7,2.3,1.1,3.2C125.2,157.6,127,158.7,129.1,157.7z"/>
			</g>
			<g>
				<path d="M142.1,124.8c0-0.4,0.2-0.8,0.6-1l1.6-0.7c0.4-0.2,0.7,0,0.7,0.4l0.6,8.6c0,0.4,0.1,0.4,0.2,0c0,0,1-5.7,2.1-7.8
					c1-2.1,2.4-3.6,4.1-4.3c0.8-0.4,1.6-0.5,2.3-0.5c0.7,0,1.4,0.3,2,0.6c0.6,0.4,1.1,0.9,1.6,1.5c0.5,0.6,0.9,1.4,1.3,2.2
					c0.4,0.9,0.7,1.9,1,3c0.3,1.1,0.5,2.7,0.5,2.7c0.1,0.4,0.1,1,0.1,1.4c0,0,0.1,3.8-0.3,5.8c-0.4,2-1,3.8-1.8,5.3
					c-0.8,1.6-1.8,2.9-2.9,4c-1.1,1.1-2.3,1.9-3.5,2.5c-0.7,0.3-1.3,0.5-1.8,0.5c-0.5,0.1-1,0-1.5-0.2c-0.5-0.2-0.9-0.5-1.3-1
					c-0.4-0.5-0.8-1.2-0.8-1.2c-0.2-0.3-0.3-0.3-0.3,0.1l1,15.1c0,0.4-0.2,0.8-0.6,1l-1.6,0.7c-0.4,0.2-0.7,0-0.7-0.4L142.1,124.8z
					 M151.8,121.3c-0.7,0.3-1.3,0.8-1.9,1.6c-0.6,0.7-1.1,1.6-1.5,2.6c-0.4,1-0.8,2.1-1.1,3.3c-0.3,1.2-0.5,2.5-0.7,3.8
					s-0.3,2.6-0.3,3.9c-0.1,1.3,0,2.6,0,3.7c0.1,1.2,0.2,2.3,0.4,3.3c0.2,1,0.4,1.8,0.7,2.5c0.2,0.5,0.4,0.9,0.7,1.2
					c0.3,0.4,0.6,0.6,1,0.8c0.4,0.2,0.7,0.3,1.2,0.3c0.4,0,0.9-0.1,1.4-0.3c0.6-0.3,1.3-0.8,2-1.5c0.7-0.7,1.4-1.7,2-3
					c0.6-1.3,1.1-2.9,1.4-4.7c0.4-1.9,0.3-5.9,0.3-5.9c0-0.4,0-1-0.1-1.4c0,0-0.1-1-0.2-1.8c-0.1-0.8-0.2-1.6-0.4-2.4
					c-0.1-0.7-0.3-1.4-0.5-2.1c-0.2-0.6-0.4-1.2-0.6-1.6c-0.4-1-1-1.7-1.7-2.1C153.4,120.9,152.7,120.9,151.8,121.3z"/>
				<path class="st0" d="M142.1,124.8c0-0.4,0.2-0.8,0.6-1l1.6-0.7c0.4-0.2,0.7,0,0.7,0.4l0.6,8.6c0,0.4,0.1,0.4,0.2,0
					c0,0,1-5.7,2.1-7.8c1-2.1,2.4-3.6,4.1-4.3c0.8-0.4,1.6-0.5,2.3-0.5c0.7,0,1.4,0.3,2,0.6c0.6,0.4,1.1,0.9,1.6,1.5
					c0.5,0.6,0.9,1.4,1.3,2.2c0.4,0.9,0.7,1.9,1,3c0.3,1.1,0.5,2.7,0.5,2.7c0.1,0.4,0.1,1,0.1,1.4c0,0,0.1,3.8-0.3,5.8
					c-0.4,2-1,3.8-1.8,5.3c-0.8,1.6-1.8,2.9-2.9,4c-1.1,1.1-2.3,1.9-3.5,2.5c-0.7,0.3-1.3,0.5-1.8,0.5c-0.5,0.1-1,0-1.5-0.2
					c-0.5-0.2-0.9-0.5-1.3-1c-0.4-0.5-0.8-1.2-0.8-1.2c-0.2-0.3-0.3-0.3-0.3,0.1l1,15.1c0,0.4-0.2,0.8-0.6,1l-1.6,0.7
					c-0.4,0.2-0.7,0-0.7-0.4L142.1,124.8z M151.8,121.3c-0.7,0.3-1.3,0.8-1.9,1.6c-0.6,0.7-1.1,1.6-1.5,2.6c-0.4,1-0.8,2.1-1.1,3.3
					c-0.3,1.2-0.5,2.5-0.7,3.8s-0.3,2.6-0.3,3.9c-0.1,1.3,0,2.6,0,3.7c0.1,1.2,0.2,2.3,0.4,3.3c0.2,1,0.4,1.8,0.7,2.5
					c0.2,0.5,0.4,0.9,0.7,1.2c0.3,0.4,0.6,0.6,1,0.8c0.4,0.2,0.7,0.3,1.2,0.3c0.4,0,0.9-0.1,1.4-0.3c0.6-0.3,1.3-0.8,2-1.5
					c0.7-0.7,1.4-1.7,2-3c0.6-1.3,1.1-2.9,1.4-4.7c0.4-1.9,0.3-5.9,0.3-5.9c0-0.4,0-1-0.1-1.4c0,0-0.1-1-0.2-1.8
					c-0.1-0.8-0.2-1.6-0.4-2.4c-0.1-0.7-0.3-1.4-0.5-2.1c-0.2-0.6-0.4-1.2-0.6-1.6c-0.4-1-1-1.7-1.7-2.1
					C153.4,120.9,152.7,120.9,151.8,121.3z"/>
			</g>
		</g>
	</g>
	<g>
		<path d="M73.2,46.5c0,0-0.1,0.1-0.3,0.3c-0.2,0.2-0.5,0.6-0.9,1c-0.9,0.9-2.2,2.2-4,3.8c-3.6,3.2-9.3,7.5-17.2,11.5
			c-4,2-8.6,4-13.7,5.6c-2.6,0.8-5.3,1.5-8.2,2c-2.9,0.5-6,0.9-9.2,0.8c-3.2-0.1-6.7-0.5-10.1-2.3c-1.7-0.9-3.3-2.3-4.4-4
			c-0.6-0.9-1-1.8-1.3-2.8l-0.1-0.3l-0.1-0.4c-0.1-0.3-0.1-0.6-0.1-0.8c-0.1-0.5-0.1-1.1-0.1-1.6c0-2.1,0.6-4,1.3-5.8
			c0.7-1.8,1.6-3.5,2.6-5.1c2-3.2,4.4-6.2,7-9c5.2-5.7,11.2-10.9,17.7-15.8c6.6-4.9,13.7-9.5,21.6-13.3c2-1,4-1.9,6-2.7
			c2.1-0.8,4.2-1.6,6.3-2.3C70,3.9,74.5,2.7,79,1.8c9-1.7,18.5-2.3,28-1.5c19.1,1.6,38.3,8.7,54.3,20.9c8,6.1,15.1,13.4,21.1,21.7
			c5.9,8.2,10.7,17.4,14,27c3.3,9.6,5.2,19.8,5.5,29.9c0.4,10.2-0.8,20.3-3.4,30c-5.1,19.4-15.9,36.9-30,49.8
			c-14.1,13-31.3,21.4-48.4,25c-17.2,3.7-34.2,2.7-48.9-1.4c-14.8-4-27.3-11-37-18.7c-9.8-7.7-16.8-16.2-21.8-23.6
			c-5-7.4-7.9-13.9-9.7-18.3c-0.9-2.2-1.5-3.9-1.9-5.1c-0.4-1.2-0.6-1.8-0.6-1.8c-0.4-1.2,0.2-2.4,1.4-2.8c1.2-0.4,2.4,0.2,2.8,1.4
			l0,0c0,0,0.2,0.6,0.6,1.7c0.4,1.1,1,2.8,1.9,4.9c1.8,4.2,4.6,10.4,9.3,17.5c4.7,7.1,11.5,15.2,20.8,22.5
			c9.3,7.4,21.3,14,35.4,17.9c14.1,3.9,30.4,4.9,46.8,1.3c16.4-3.5,32.9-11.5,46.3-23.9c13.5-12.4,23.8-29.1,28.7-47.7
			c2.5-9.3,3.6-19,3.2-28.7c-0.3-9.7-2.1-19.4-5.3-28.6c-3.2-9.2-7.7-18-13.4-25.9c-5.7-7.9-12.5-14.9-20.2-20.7
			c-15.3-11.7-33.7-18.5-52-20C97.5,4,88.5,4.6,79.8,6.2c-4.3,0.9-8.5,1.9-12.6,3.3c-2,0.7-4.1,1.4-6,2.2c-2,0.8-3.9,1.7-5.8,2.6
			c-7.5,3.7-14.5,8.2-20.9,12.9c-6.4,4.8-12.2,9.8-17.1,15.2c-2.5,2.7-4.7,5.5-6.5,8.3c-1.8,2.8-3.2,5.9-3.2,8.6c0,0.3,0,0.7,0.1,1
			c0,0.2,0,0.3,0.1,0.4l0,0.2L8,61.2c0.2,0.6,0.4,1.2,0.8,1.7c0.7,1.1,1.6,1.9,2.8,2.5c2.3,1.3,5.3,1.7,8.1,1.8
			c5.7,0.1,11.2-1.1,16.1-2.6c4.9-1.5,9.3-3.3,13.1-5.2c7.6-3.8,13.1-7.8,16.5-10.8c1.7-1.5,3-2.7,3.8-3.5c0.4-0.4,0.7-0.8,0.9-1
			c0.2-0.2,0.3-0.3,0.3-0.3c0.7-0.8,2-0.8,2.8-0.1C73.8,44.5,73.9,45.7,73.2,46.5z"/>
	</g>
</g>
</svg>
