<svg xmlns="http://www.w3.org/2000/svg" xmlns:xlink="http://www.w3.org/1999/xlink" viewBox="0 0 202.52 195.29"><defs><style>.cls-1{mask:url(#mask);filter:url(#luminosity-noclip-3);}.cls-2,.cls-4{mix-blend-mode:multiply;}.cls-2{fill:url(#radial-gradient);}.cls-3{mask:url(#mask-2);filter:url(#luminosity-noclip-4);}.cls-10,.cls-11,.cls-12,.cls-13,.cls-14,.cls-15,.cls-16,.cls-161,.cls-162,.cls-163,.cls-165,.cls-166,.cls-17,.cls-18,.cls-19,.cls-20,.cls-21,.cls-22,.cls-23,.cls-24,.cls-25,.cls-26,.cls-27,.cls-28,.cls-29,.cls-30,.cls-31,.cls-33,.cls-36,.cls-38,.cls-39,.cls-4,.cls-6,.cls-8,.cls-9{fill-rule:evenodd;}.cls-4{fill:url(#radial-gradient-2);}.cls-5{fill:none;}.cls-6{fill:#76ff80;}.cls-7{fill:#26aa35;}.cls-8{fill:#4fc155;}.cls-9{fill:#fc8606;}.cls-10{fill:#ffb91d;}.cls-11{fill:url(#radial-gradient-3);}.cls-12{fill:url(#radial-gradient-4);}.cls-13{fill:#f9e3ac;}.cls-14{fill:url(#radial-gradient-5);}.cls-15,.cls-160{fill:#fff;}.cls-16{fill:#e85d18;}.cls-17{fill:url(#radial-gradient-6);}.cls-18{fill:url(#radial-gradient-7);}.cls-19{fill:url(#radial-gradient-8);}.cls-20{fill:url(#radial-gradient-9);}.cls-21{fill:url(#radial-gradient-10);}.cls-22{fill:url(#radial-gradient-11);}.cls-23{fill:url(#radial-gradient-12);}.cls-24{fill:url(#radial-gradient-13);}.cls-25{fill:url(#radial-gradient-14);}.cls-26{fill:url(#radial-gradient-15);}.cls-27{fill:url(#radial-gradient-16);}.cls-28{fill:url(#radial-gradient-17);}.cls-29{fill:url(#radial-gradient-18);}.cls-30{fill:url(#radial-gradient-19);}.cls-31{fill:#80b7f9;}.cls-32{fill:url(#radial-gradient-20);}.cls-33{fill:url(#radial-gradient-21);}.cls-34{mask:url(#mask-3);}.cls-35{fill:url(#radial-gradient-22);}.cls-36{fill:#d40;}.cls-37{mask:url(#mask-4);}.cls-38{fill:url(#radial-gradient-23);}.cls-39{fill:url(#radial-gradient-24);}.cls-40{fill:url(#radial-gradient-25);}.cls-41{clip-path:url(#clip-path);}.cls-42{fill:#2ca4f4;}.cls-43{fill:#2da5f4;}.cls-44{fill:#2ea5f4;}.cls-45{fill:#2ea6f5;}.cls-46{fill:#2fa6f5;}.cls-47{fill:#2fa7f5;}.cls-48{fill:#30a7f5;}.cls-49{fill:#31a8f5;}.cls-50{fill:#31a8f6;}.cls-51{fill:#32a9f6;}.cls-52{fill:#33aaf6;}.cls-53{fill:#34abf6;}.cls-54{fill:#35abf7;}.cls-55{fill:#36acf7;}.cls-56{fill:#37adf7;}.cls-57{fill:#38aef8;}.cls-58{fill:#39aff8;}.cls-59{fill:#3ab0f8;}.cls-60{fill:#3cb1f9;}.cls-61{fill:#3db2f9;}.cls-62{fill:#3eb3fa;}.cls-63{fill:#3fb4fa;}.cls-64{fill:#41b5fa;}.cls-65{fill:#42b6fb;}.cls-66{fill:#44b7fb;}.cls-67{fill:#45b8fc;}.cls-68{fill:#47b9fc;}.cls-69{fill:#48bbfd;}.cls-70{fill:#4abcfd;}.cls-71{fill:#4bbdfe;}.cls-72{fill:#4dbefe;}.cls-73{fill:#4ec0fe;}.cls-74{fill:#50c1ff;}.cls-75{fill:#55c3ff;}.cls-76{fill:#5ac4ff;}.cls-77{fill:#5ec6ff;}.cls-78{fill:#63c8ff;}.cls-79{fill:#68c9ff;}.cls-80{fill:#6ccbff;}.cls-81{fill:#70ccff;}.cls-82{fill:#74ceff;}.cls-83{fill:#78cfff;}.cls-84{fill:#7cd1ff;}.cls-85{fill:#80d2ff;}.cls-86{fill:#84d3ff;}.cls-87{fill:#88d5ff;}.cls-88{fill:#8bd6ff;}.cls-89{fill:#8fd7ff;}.cls-90{fill:#92d9ff;}.cls-91{fill:#96daff;}.cls-92{fill:#99dbff;}.cls-93{fill:#9cdcff;}.cls-94{fill:#9fddff;}.cls-95{fill:#a2deff;}.cls-96{fill:#a5dfff;}.cls-97{fill:#a8e0ff;}.cls-98{fill:#abe1ff;}.cls-99{fill:#aee2ff;}.cls-100{fill:#b0e3ff;}.cls-101{fill:#b3e4ff;}.cls-102{fill:#b6e5ff;}.cls-103{fill:#b8e6ff;}.cls-104{fill:#bae7ff;}.cls-105{fill:#bde8ff;}.cls-106{fill:#bfe8ff;}.cls-107{fill:#c1e9ff;}.cls-108{fill:#c3eaff;}.cls-109{fill:#c5ebff;}.cls-110{fill:#c7ebff;}.cls-111{fill:#c9ecff;}.cls-112{fill:#cbedff;}.cls-113{fill:#cdedff;}.cls-114{fill:#cfeeff;}.cls-115{fill:#d1efff;}.cls-116{fill:#d2efff;}.cls-117{fill:#d4f0ff;}.cls-118{fill:#d6f0ff;}.cls-119{fill:#d7f1ff;}.cls-120{fill:#d9f1ff;}.cls-121{fill:#daf2ff;}.cls-122{fill:#dcf2ff;}.cls-123{fill:#ddf3ff;}.cls-124{fill:#def3ff;}.cls-125{fill:#e0f4ff;}.cls-126{fill:#e1f4ff;}.cls-127{fill:#e2f5ff;}.cls-128{fill:#e3f5ff;}.cls-129{fill:#e4f6ff;}.cls-130{fill:#e5f6ff;}.cls-131{fill:#e6f6ff;}.cls-132{fill:#e7f7ff;}.cls-133{fill:#e8f7ff;}.cls-134{fill:#e9f7ff;}.cls-135{fill:#eaf8ff;}.cls-136{fill:#ebf8ff;}.cls-137{fill:#ecf8ff;}.cls-138{fill:#edf9ff;}.cls-139{fill:#eef9ff;}.cls-140{fill:#eff9ff;}.cls-141{fill:#f0faff;}.cls-142{fill:#f1faff;}.cls-143{fill:#f2faff;}.cls-144{fill:#f3fbff;}.cls-145{fill:#f4fbff;}.cls-146{fill:#f5fbff;}.cls-147{fill:#f5fcff;}.cls-148{fill:#f6fcff;}.cls-149{fill:#f7fcff;}.cls-150{fill:#f8fcff;}.cls-151{fill:#f8fdff;}.cls-152{fill:#f9fdff;}.cls-153{fill:#fafdff;}.cls-154{fill:#fbfdff;}.cls-155{fill:#fbfeff;}.cls-156{fill:#fcfeff;}.cls-157{fill:#fdfeff;}.cls-158{fill:#fefeff;}.cls-159{fill:#feffff;}.cls-162{fill:#105ac6;}.cls-163{fill:#30b73d;}.cls-164{fill:#0b7c48;}.cls-165{fill:#209623;}.cls-166{fill:#54ef60;}.cls-167{filter:url(#luminosity-noclip-2);}.cls-168{filter:url(#luminosity-noclip);}</style><filter id="luminosity-noclip" x="11.72" y="-8210.14" width="25.98" height="32766" filterUnits="userSpaceOnUse" color-interpolation-filters="sRGB"><feFlood flood-color="#fff" result="bg"/><feBlend in="SourceGraphic" in2="bg"/></filter><mask id="mask" x="11.72" y="-8210.14" width="25.98" height="32766" maskUnits="userSpaceOnUse"><g class="cls-168"/></mask><radialGradient id="radial-gradient" cx="281.81" cy="123.78" r="18.11" gradientTransform="matrix(-1, 0, 0, 1, 313.95, 0)" gradientUnits="userSpaceOnUse"><stop offset="0.03" stop-color="#fff"/><stop offset="0.15" stop-color="#f4f4f4"/><stop offset="0.36" stop-color="#d7d7d7"/><stop offset="0.64" stop-color="#a9a9a9"/><stop offset="0.72" stop-color="#999"/></radialGradient><filter id="luminosity-noclip-2" x="17.3" y="-8210.14" width="25.11" height="32766" filterUnits="userSpaceOnUse" color-interpolation-filters="sRGB"><feFlood flood-color="#fff" result="bg"/><feBlend in="SourceGraphic" in2="bg"/></filter><mask id="mask-2" x="17.3" y="-8210.14" width="25.11" height="32766" maskUnits="userSpaceOnUse"><g class="cls-167"/></mask><radialGradient id="radial-gradient-2" cx="284.25" cy="150.39" fx="244.5727750278021" r="39.71" gradientTransform="matrix(-1, 0, 0, 1, 302.32, 0)" gradientUnits="userSpaceOnUse"><stop offset="0.51" stop-color="#1a1a1a"/><stop offset="0.52" stop-color="#393939"/><stop offset="0.54" stop-color="#626262"/><stop offset="0.56" stop-color="#888"/><stop offset="0.58" stop-color="#a8a8a8"/><stop offset="0.61" stop-color="#c4c4c4"/><stop offset="0.64" stop-color="#dadada"/><stop offset="0.68" stop-color="#eaeaea"/><stop offset="0.72" stop-color="#f6f6f6"/><stop offset="0.78" stop-color="#fdfdfd"/><stop offset="0.95" stop-color="#fff"/></radialGradient><radialGradient id="radial-gradient-3" cx="86.97" cy="11.83" r="135.12" gradientUnits="userSpaceOnUse"><stop offset="0" stop-color="#fff"/><stop offset="0.32" stop-color="#50c1ff"/><stop offset="0.7" stop-color="#2ca4f4"/></radialGradient><radialGradient id="radial-gradient-4" cx="7.16" cy="114.97" r="64.05" gradientUnits="userSpaceOnUse"><stop offset="0" stop-color="#fff"/><stop offset="0.51" stop-color="#ffcf03"/><stop offset="0.9" stop-color="#ff8b00"/></radialGradient><radialGradient id="radial-gradient-5" cx="18.21" cy="78.14" r="107.48" gradientUnits="userSpaceOnUse"><stop offset="0.05" stop-color="#fff"/><stop offset="0.13" stop-color="#fefbf4"/><stop offset="0.66" stop-color="#f9e3ac"/><stop offset="0.84" stop-color="#ffbfa6"/></radialGradient><radialGradient id="radial-gradient-6" cx="101.34" cy="170.01" fx="87.86994940926212" r="31.02" gradientUnits="userSpaceOnUse"><stop offset="0.27" stop-color="#fff"/><stop offset="0.33" stop-color="#fffdf5"/><stop offset="0.43" stop-color="#fff8da"/><stop offset="0.57" stop-color="#fff0ae"/><stop offset="0.73" stop-color="#ffe472"/><stop offset="0.91" stop-color="#ffd625"/><stop offset="0.98" stop-color="#ffcf03"/></radialGradient><radialGradient id="radial-gradient-7" cx="162.28" cy="130.05" r="69.88" gradientUnits="userSpaceOnUse"><stop offset="0" stop-color="#fff"/><stop offset="0.36" stop-color="#50c1ff"/><stop offset="0.51" stop-color="#4ebffe"/><stop offset="0.56" stop-color="#47bafc"/><stop offset="0.6" stop-color="#3cb1f9"/><stop offset="0.63" stop-color="#2ca4f4"/><stop offset="0.78" stop-color="#3772d9"/><stop offset="0.79" stop-color="#3770d8"/><stop offset="0.79" stop-color="#427af4"/><stop offset="0.99" stop-color="#356ed3"/></radialGradient><radialGradient id="radial-gradient-8" cx="188.47" cy="96.14" r="97.4" gradientUnits="userSpaceOnUse"><stop offset="0" stop-color="#fff"/><stop offset="0.32" stop-color="#50c1ff"/><stop offset="0.34" stop-color="#48a9f2"/><stop offset="0.37" stop-color="#4193e7"/><stop offset="0.41" stop-color="#3c82de"/><stop offset="0.45" stop-color="#3877d8"/><stop offset="0.51" stop-color="#3670d4"/><stop offset="0.68" stop-color="#356ed3"/><stop offset="0.97" stop-color="#2ca4f4"/><stop offset="0.98" stop-color="#427af4"/></radialGradient><radialGradient id="radial-gradient-9" cx="192.83" cy="55.91" r="108.02" gradientUnits="userSpaceOnUse"><stop offset="0" stop-color="#fff"/><stop offset="0.05" stop-color="#fbffff"/><stop offset="0.1" stop-color="azure"/><stop offset="0.15" stop-color="#ddfeff"/><stop offset="0.2" stop-color="#c2feff"/><stop offset="0.25" stop-color="#a0fdff"/><stop offset="0.29" stop-color="#76fcff"/><stop offset="0.34" stop-color="#45fbff"/><stop offset="0.37" stop-color="#1ffaff"/><stop offset="0.47" stop-color="#22f7ff"/><stop offset="0.54" stop-color="#2aedff"/><stop offset="0.61" stop-color="#38dcff"/><stop offset="0.67" stop-color="#4cc5ff"/><stop offset="0.68" stop-color="#50c1ff"/><stop offset="0.72" stop-color="#4cbefe"/><stop offset="0.76" stop-color="#42b5fb"/><stop offset="0.8" stop-color="#30a7f5"/><stop offset="0.8" stop-color="#2ca4f4"/><stop offset="0.86" stop-color="#2da2f4"/><stop offset="0.87" stop-color="#319bf4"/><stop offset="0.89" stop-color="#3790f4"/><stop offset="0.9" stop-color="#3f7ff4"/><stop offset="0.9" stop-color="#427af4"/><stop offset="0.99" stop-color="#356ed3"/><stop offset="1" stop-color="#3770d8"/></radialGradient><radialGradient id="radial-gradient-10" cx="196.04" cy="84.84" r="75.8" xlink:href="#radial-gradient-9"/><radialGradient id="radial-gradient-11" cx="170.18" cy="86.1" r="71.24" xlink:href="#radial-gradient-9"/><radialGradient id="radial-gradient-12" cx="156.41" cy="112.73" r="36.61" xlink:href="#radial-gradient-9"/><radialGradient id="radial-gradient-13" cx="192.17" cy="121.58" r="118.83" gradientTransform="translate(2.94 -31.84) rotate(7.71)" gradientUnits="userSpaceOnUse"><stop offset="0.01"/><stop offset="0.78" stop-color="#427af4"/></radialGradient><radialGradient id="radial-gradient-14" cx="188.1" cy="120.48" r="118.83" gradientTransform="translate(2.94 -31.84) rotate(7.71)" gradientUnits="userSpaceOnUse"><stop offset="0" stop-color="#fff"/><stop offset="0.32" stop-color="#50c1ff"/><stop offset="0.38" stop-color="#4cacfc"/><stop offset="0.47" stop-color="#4796f8"/><stop offset="0.57" stop-color="#4486f6"/><stop offset="0.68" stop-color="#437df4"/><stop offset="0.84" stop-color="#427af4"/><stop offset="0.97" stop-color="#2ca4f4"/></radialGradient><radialGradient id="radial-gradient-15" cx="167.73" cy="109.72" r="117.21" gradientTransform="matrix(1, 0, 0, 1, 0, 0)" xlink:href="#radial-gradient-13"/><radialGradient id="radial-gradient-16" cx="164.73" cy="110.26" r="117.21" gradientUnits="userSpaceOnUse"><stop offset="0.07"/><stop offset="0.12" stop-color="#091122"/><stop offset="0.22" stop-color="#182d59"/><stop offset="0.32" stop-color="#254489"/><stop offset="0.42" stop-color="#2f58af"/><stop offset="0.51" stop-color="#3867cd"/><stop offset="0.61" stop-color="#3d71e3"/><stop offset="0.7" stop-color="#4178f0"/><stop offset="0.78" stop-color="#427af4"/></radialGradient><radialGradient id="radial-gradient-17" cx="101.85" cy="27.51" r="119.86" xlink:href="#radial-gradient-3"/><radialGradient id="radial-gradient-18" cx="29.26" cy="47.64" r="30.53" gradientUnits="userSpaceOnUse"><stop offset="0" stop-color="#fff"/><stop offset="0.32" stop-color="#50c1ff"/><stop offset="0.33" stop-color="#4ebcfc"/><stop offset="0.43" stop-color="#45a0ed"/><stop offset="0.53" stop-color="#3e8ae2"/><stop offset="0.64" stop-color="#397ad9"/><stop offset="0.76" stop-color="#3671d5"/><stop offset="0.94" stop-color="#356ed3"/><stop offset="0.97" stop-color="#2ca4f4"/><stop offset="0.98" stop-color="#427af4"/></radialGradient><radialGradient id="radial-gradient-19" cx="209.75" cy="17.97" r="57.95" xlink:href="#radial-gradient-4"/><radialGradient id="radial-gradient-20" cx="329.99" cy="65.6" fx="381.298971269827" fy="86.86357765010976" r="55.54" gradientTransform="matrix(-1, 0, 0, 1, 363.09, 0)" gradientUnits="userSpaceOnUse"><stop offset="0" stop-color="#fff"/><stop offset="0.07" stop-color="#e9f7ff"/><stop offset="0.45" stop-color="#7cd0ff"/><stop offset="0.62" stop-color="#50c1ff"/><stop offset="0.67" stop-color="#42b6fb"/><stop offset="0.76" stop-color="#32a9f6"/><stop offset="0.83" stop-color="#2ca4f4"/></radialGradient><radialGradient id="radial-gradient-21" cx="120.87" cy="210.88" r="7.67" gradientTransform="translate(58.9 -99.62) rotate(37.14)" gradientUnits="userSpaceOnUse"><stop offset="0.05" stop-color="#ffbfa6"/><stop offset="0.08" stop-color="#fdb598"/><stop offset="0.2" stop-color="#f5966a"/><stop offset="0.32" stop-color="#f07d46"/><stop offset="0.42" stop-color="#eb6b2d"/><stop offset="0.52" stop-color="#e9611d"/><stop offset="0.59" stop-color="#e85d18"/></radialGradient><filter id="luminosity-noclip-3" x="11.72" y="117.18" width="25.98" height="15.5" filterUnits="userSpaceOnUse" color-interpolation-filters="sRGB"><feFlood flood-color="#fff" result="bg"/><feBlend in="SourceGraphic" in2="bg"/></filter><mask id="mask-3" x="11.72" y="117.18" width="25.98" height="15.5" maskUnits="userSpaceOnUse"><g class="cls-1"><path class="cls-2" d="M11.89,127.62c-.07,2.27-.3,5.28-.09,5a8.58,8.58,0,0,1,7.89-3.32c3.75.33,15.79-.74,17.59-4,3-5.49-10.78-10.21-16-7.16C17.49,120.39,12,122.81,11.89,127.62Z"/></g></mask><radialGradient id="radial-gradient-22" cx="281.81" cy="123.78" r="18.11" gradientTransform="matrix(-1, 0, 0, 1, 313.95, 0)" gradientUnits="userSpaceOnUse"><stop offset="0.03" stop-color="#ffcf03"/><stop offset="0.09" stop-color="#ffd10e"/><stop offset="0.2" stop-color="#ffd72b"/><stop offset="0.33" stop-color="#ffe05a"/><stop offset="0.5" stop-color="#ffec9b"/><stop offset="0.68" stop-color="#fffced"/><stop offset="0.72" stop-color="#fff"/></radialGradient><filter id="luminosity-noclip-4" x="17.3" y="135.23" width="25.11" height="12.63" filterUnits="userSpaceOnUse" color-interpolation-filters="sRGB"><feFlood flood-color="#fff" result="bg"/><feBlend in="SourceGraphic" in2="bg"/></filter><mask id="mask-4" x="17.3" y="135.23" width="25.11" height="12.63" maskUnits="userSpaceOnUse"><g class="cls-3"><path class="cls-4" d="M20.94,135.23s11.22,4.71,13.73,5.22c6.07,1.23,7.62-2.92,7.62-2.92s1.28,3.73-4.9,7c-.48.26-3.63,3.29-3.63,3.29s-5.26-1-5.52-1.17C7.71,133.8,22.7,136.3,20.94,135.23Z"/></g></mask><radialGradient id="radial-gradient-23" cx="284.25" cy="150.39" fx="244.5727750278021" r="39.71" gradientTransform="matrix(-1, 0, 0, 1, 302.32, 0)" gradientUnits="userSpaceOnUse"><stop offset="0.51" stop-color="#e85d18"/><stop offset="0.57" stop-color="#e85d18"/><stop offset="0.95" stop-color="#e85d18"/></radialGradient><radialGradient id="radial-gradient-24" cx="132.09" cy="123.14" r="24.55" xlink:href="#radial-gradient-3"/><radialGradient id="radial-gradient-25" cx="60.97" cy="127.45" r="42.35" gradientTransform="translate(-4.59) scale(1.02 1)" gradientUnits="userSpaceOnUse"><stop offset="0" stop-color="#fff"/><stop offset="0.4" stop-color="#fdfeff"/><stop offset="0.55" stop-color="#f6fcff"/><stop offset="0.65" stop-color="#eaf8ff"/><stop offset="0.73" stop-color="#daf2ff"/><stop offset="0.8" stop-color="#c4eaff"/><stop offset="0.87" stop-color="#a8e0ff"/><stop offset="0.93" stop-color="#88d5ff"/><stop offset="0.98" stop-color="#63c8ff"/><stop offset="1" stop-color="#50c1ff"/><stop offset="1" stop-color="#42b6fb"/><stop offset="1" stop-color="#32a9f6"/><stop offset="1" stop-color="#2ca4f4"/></radialGradient><clipPath id="clip-path"><path class="cls-5" d="M17.1,95.45c-2.59.64-5.22,6-5.16,10.51.14,9.83,5.77,11.37,8.18,10.24,6.42-3,5.44-10.79,4.37-15.15S19.69,94.82,17.1,95.45Z"/></clipPath></defs><title>oiseau3</title><g id="Calque_2" data-name="Calque 2"><g id="bird_fly_1" data-name="bird fly 1"><path class="cls-6" d="M29.76,91.67a16.31,16.31,0,0,0-.53-2,7.66,7.66,0,0,0,.65-3,7.23,7.23,0,0,0-7-7.47,6.5,6.5,0,0,0-3.58,1.08,11.62,11.62,0,0,0-4-.15,6.61,6.61,0,0,0-4.45-1.75,7.22,7.22,0,0,0-7,7.47s0,.09,0,.14A7.77,7.77,0,0,0,4,98.38,7.83,7.83,0,0,0,2.9,102.3a7.22,7.22,0,0,0,7,7.47,6.53,6.53,0,0,0,2.88-.68,11.79,11.79,0,0,0,4.15.76,12.38,12.38,0,0,0,9.05-4.08,6.4,6.4,0,0,0,.88.09,7.23,7.23,0,0,0,7-7.47A7.48,7.48,0,0,0,29.76,91.67Z"/><path class="cls-7" d="M16.88,110.67a12.37,12.37,0,0,1-4.11-.7,7.3,7.3,0,0,1-2.92.62,8.06,8.06,0,0,1-7.77-8.29,8.61,8.61,0,0,1,.83-3.69,8.62,8.62,0,0,1,.18-13.07,8,8,0,0,1,7.76-8,7.43,7.43,0,0,1,4.71,1.72,11.46,11.46,0,0,1,3.62.14,7.35,7.35,0,0,1,3.74-1,8.06,8.06,0,0,1,7.78,8.29,8.39,8.39,0,0,1-.6,3.08c.15.48.28,1,.38,1.42a8.27,8.27,0,0,1,4.1,7.26,8,8,0,0,1-7.77,8.29,5.46,5.46,0,0,1-.58,0,13.12,13.12,0,0,1-9.35,4Zm-4.19-2.47.33.12a11.31,11.31,0,0,0,12.32-3.11l.29-.31.6.08a3.68,3.68,0,0,0,.58.06A6.42,6.42,0,0,0,33,98.39a6.63,6.63,0,0,0-3.56-6L29,92.22,29,91.83a15,15,0,0,0-.51-1.9l-.1-.3.13-.28a7,7,0,0,0,.58-2.72A6.42,6.42,0,0,0,22.92,80a5.69,5.69,0,0,0-3.14,1l-.28.18L19.17,81a10.72,10.72,0,0,0-3.77-.13L15,81l-.28-.26a5.74,5.74,0,0,0-3.9-1.54,6.41,6.41,0,0,0-6.14,6.65v.42l-.33.38a7,7,0,0,0,0,11.1l.6.44-.37.64a7.06,7.06,0,0,0-1,3.51A6.42,6.42,0,0,0,9.85,109a5.69,5.69,0,0,0,2.52-.6l.32-.15Z"/><path class="cls-8" d="M3.33,87.55c.26-.26-.94,4.33,3.26,5,0,0-2.53,2.79.27,4.77,2.13,1.51,1.87.68,1.87.68l2,7.1s.44,3.12,0,3.73-5.52.72-7-4.21c0,0-1.17-3.83.16-6C3.88,98.69-1,91.64,3.33,87.55Z"/><path class="cls-9" d="M145.91,137c-1.64-1.64-11.46,7.36-11.46,7.36l-11.32,14c-.28,2.73-.69,7,.68,8.05s.82-1.09,1.64-4.09,1-5.8,1.77-6.78,1.5-.59,1.5.23-1.37,6-1.37,8.19.41,5.66,1.91,4.09,6.83-20.46,7.65-22.1,6.54-4.37,8.18-5.73A2.88,2.88,0,0,0,145.91,137Z"/><path class="cls-10" d="M145.36,136.56c-1.63-1.64-11.46,7.36-11.46,7.36L122.58,158c-.27,2.74-.68,7,.68,8.06s.82-1.1,1.64-4.1,1.06-5.8,1.77-6.78,1.5-.58,1.5.23-1.36,6-1.36,8.19.41,5.66,1.91,4.09,6.82-20.46,7.64-22.1,6.55-4.36,8.18-5.73A2.88,2.88,0,0,0,145.36,136.56Z"/><path class="cls-9" d="M145.36,141.79a1.18,1.18,0,0,0-.28-.13c-2.57-1.82-7.85-3.17-12.36-2.94-7,.37-11.79.07-11.59,3.85s9.34,1.18,16.28.82a9.31,9.31,0,0,1,4.44.71,21.89,21.89,0,0,0-1.57,4.15c-2,7.16-5.87,20.89-4.32,21.71s3.64-2.23,3.88-5.33,0-5.17,1-5.92,2-1.19,2.14-.38-.22,4.91-.37,7.09c-.22,3.13-1.91,8.86,1.61,3.73,1.23-1.79,2.84-21.39,3.34-23.15s6.25-5.16,7-7.17c.24-.67-1-2.37-1-2.37C151.13,135.23,145.36,141.79,145.36,141.79Z"/><path class="cls-10" d="M143.9,143.29a1,1,0,0,0-.28-.14c-2.56-1.82-7.85-3.17-12.36-2.93-6.94.36-11.79.06-11.59,3.84s9.34,1.18,16.29.82a9.34,9.34,0,0,1,4.44.72,20.89,20.89,0,0,0-1.58,4.15c-2,7.15-4.74,19.3-3.19,20.12s2.51-.65,2.75-3.75.65-6.1,1.17-7.21,1.69-1.39,1.85-.59-.7,6.45-.29,8.6.44,5.54,1.62,3.72,2.84-21.38,3.33-23.14,5.61-5.53,7-7.17a2.89,2.89,0,0,0,.19-3.37C151.29,135.66,143.9,143.29,143.9,143.29Z"/><path class="cls-11" d="M200.34,31.89c2.45-4.37-.27-5.19-.27-5.19-3-.95-13.24,13.64-13.24,13.64-4.36,6.69-19.23,16.1-19.23,16.1L165,54.8c1.64-.54,8.6-9.68,9.42-11.59s-1.64-3.27-1.64-3.27c-1.09-1.37-9-3.28-9-3.28l11.87-9c7.23-5.87,10-15.69,10-18.42s-1.78-2.73-1.78-2.73c-2.32-1.23-31.65,16.24-31.65,16.24-2.73,1.36-28.78,19-28.78,19-7,3.41-13.24,18.55-14.88,23.46s-5.18,16.1-5.18,16.1c-3.82,2.18-12.28,4.09-12.28,4.09a2.16,2.16,0,0,0-.81-1.09c-.55-.27-1.78-4.36-1.78-4.36l-.27-4.37c-1.64-5.73-9-13.23-10.37-14.05s-1.64,1.36-1.64,1.36c-.14-1.22-3-3.54-2.32-4.36s.55-3.55.55-3.55c-.41-1.5-4.09-1.23-4.09-1.23-.28-1.22-1.91-6.14-1.91-6.14s-.55.69.13-.54-.82-5.59-.82-5.59c-.68-.41-3.68.54-3.68.54-.13-1.5-3.82-8.18-3.82-8.18A155.64,155.64,0,0,0,34.86,2.42C32,.64,32,4.87,32,4.87c.14,5.19,11.32,30,11.32,30l-3.68-1.78c-5.32,0-3.41,7.37-3.41,10.64s5.05,9.69,5.05,9.69a8.8,8.8,0,0,0-4-1.23c-1.64.14-3,4.78-3.14,7s1.78,5.32,1.1,5.73-3.55,1.23-4.51,2.46.14,2.45.14,3.27a5,5,0,0,1-.82,2.05c-7,3.69-12,10.89-14.66,15.73h0A46.91,46.91,0,0,0,13,93.28a14.28,14.28,0,0,0-1.39,4.49c1.16-.9.79-2.81,3.3-2.81-2.51,0-2.14,1.91-3.3,2.81-.88,5.55,0,12.9.76,17.39a11.43,11.43,0,0,0,.9,1.08,11.43,11.43,0,0,1-.9-1.08c.38,2.31.73,3.88.76,4,.1.36.19,1.57.36,2.66a2.28,2.28,0,0,0,1.42-2.35,2.28,2.28,0,0,1-1.42,2.35,8,8,0,0,0,.33,1.43c.41,1.09.81-.14,1.91-1.77s4.77-3.28,4.77-3.28C32.67,112.51,43,124.93,43,124.93c4.91,3.27,4.23,3.95,4.23,3.95-.68.41-2.59,5.73-3,7.37s-2.46,4.78-4.5,6.69S34,148,34,148c.17.15.37.29.56.43,1.06-.25,2.39-.2,3.26-1.07-.87.87-2.2.82-3.26,1.07,6.11,4.34,21,4.09,25.95,3.89,1.77-1.09,4.27-.43,6.78-1.68-2.51,1.25-5,.59-6.78,1.68l1.59-.09c21.56,23.19,46.66,12.28,46.66,12.28,11.18-2.86,23.87-18.69,23.87-18.69,6.41-6.82,14.05-39.29,16.1-43.38S163.1,85.91,163.1,85.91c5.32-4.09,9.68-12.69,8.73-14S174,69.4,174,69.4c12.55-9.41,19.92-20.32,20.33-22.64s-5.87-.55-4.78-1.09S197.88,36.25,200.34,31.89Z"/><path class="cls-12" d="M41.54,138.57l5.73-9.69c.27-.41-2-2.32-2-2.32-1.23-.41-7.64-6.68-13.92-9.14l-.45-.16C24.8,115.16,20,119,16.17,121.65s-5.32,9.55-5.32,9.55l-.28.55c-.82,2.05,2.32,8.87,2.32,8.87l3.28-2.46C17.26,138,30.76,148,30.76,148s3.28-.54,3.82-.68,7.78-7.37,8.33-7.91S41.54,138.57,41.54,138.57Z"/><path class="cls-13" d="M78.73,108.38c0,.09,0,.16,0,.23S78.75,108.48,78.73,108.38Z"/><path class="cls-13" d="M78.48,107.42l.09.34C78.54,107.66,78.51,107.54,78.48,107.42Z"/><path class="cls-13" d="M78.82,108.75Z"/><path class="cls-13" d="M78.41,107.13a.29.29,0,0,1,0,.09A.29.29,0,0,0,78.41,107.13Z"/><path class="cls-13" d="M78.62,108l0,.13Z"/><path class="cls-14" d="M90,108.42C85.33,98.8,78.38,107,78.38,107s0,.06,0,.14a.29.29,0,0,1,0,.09,1,1,0,0,1,0,.2c0,.12.06.24.09.34s0,.14.05.21l0,.13c0,.1,0,.2.08.28s0,.17,0,.23,0,.1,0,.14a.12.12,0,0,0,0,0,.12.12,0,0,1,0,0s0-.08,0-.14,0-.13,0-.23,0-.18-.08-.28l0-.13c0-.07,0-.14-.05-.21s-.06-.22-.09-.34a1,1,0,0,0,0-.2.29.29,0,0,0,0-.09c0-.08,0-.14,0-.14-1-4.1-4.92-12.48-4.92-12.48C62,76.29,43.38,83.66,43.38,83.66,36.63,85.09,27.22,98.8,27.22,98.8L27,98c-4.5-7.16-10.72-8.39-10.72-8.39-2.44,1-3.95,5-4.79,8.28C12.83,97,12.34,95,14.94,95c-2.6,0-2.11,2.06-3.44,2.91a41.16,41.16,0,0,0-.86,4.21c-.61,2.2.82,8.65,2.07,13.49a7.83,7.83,0,0,0,.59.67,7.83,7.83,0,0,1-.59-.67c.77,3,1.48,5.41,1.59,5.76a2.37,2.37,0,0,0,.64-1.82,2.37,2.37,0,0,1-.64,1.82.29.29,0,0,0,0,.08l.62.93c3.68-4.92,13.71-5.53,13.71-5.53,4.91-.2,16.58,9.75,16.58,9.75l2,2.32c-.61.21-2.66,5.73-3,7.37s-1.71,5.73-4.5,6.69S34,148,34,148l.85.37c1-.19,2.18-.22,3-1-.79.79-2,.82-3,1,23.93,10.39,39.19-3.91,39.19-3.91C92.91,131.13,90,108.42,90,108.42Z"/><path class="cls-13" d="M90,108.42l.59,1.21Z"/><path class="cls-15" d="M65.07,104.53c0,7.58-5.72,13.71-12.79,13.71S39.5,112.11,39.5,104.53s5.72-13.71,12.78-13.71S65.07,97,65.07,104.53Z"/><path class="cls-15" d="M18.21,95.12c-4.18,0-7.57,4.9-7.57,10.95s3.34,10.54,7.52,10.54,7.62-4.49,7.62-10.54S22.4,95.12,18.21,95.12Z"/><path class="cls-16" d="M22,135.74l10.54,3.38-3.07,2.55-1.23-.1S22.51,138.3,22,135.74Z"/><path class="cls-17" d="M119.14,160.72s-32.82,14.72-43.79-.82c0,0,.5-3.26,5.48-1.9,0,0-2.69-3-1.65-3.63s4.55-1.72,12.53,2.17S117.17,161.79,119.14,160.72Z"/><path class="cls-18" d="M127.76,112.51c-4.09,10.51-11.18,11.19-22-1.63,0,0,23.82-20.79,27-21.76,27.84-8.49,15.95-.51,18.55,3.47,1.17,1.8-6.62,9-7.91,10.92a7.18,7.18,0,0,1-5.46,3.55C137.18,107.13,128.74,110,127.76,112.51Z"/><path class="cls-19" d="M120.8,77s18.92-7.32,22.11-8.3c27.83-8.48,11.29,1.93,13.89,5.91,1.17,1.8.1,7.66-2.09,8.78s-3,3.19-5.32,3.39S125.74,90.8,120.8,77Z"/><path class="cls-20" d="M140.18,57.4s14.56,2.19,23.46-2.46c3.82-2,11.75-10.57,10.78-11.73s-4.5-5.18-7-5.18-4.09-1.37-6.28-.55S138.27,44,140.18,57.4Z"/><path class="cls-21" d="M130.36,61.39s19.48-3.33,22.79-3.62c5.22-.46,12.49-5.68,14.16.66.39,1.47-1.65,6.67-3.83,7.78s-3.76,5.62-6.08,5.89S134.75,74.16,130.36,61.39Z"/><path class="cls-22" d="M122.38,78.48s20-4.62,23.26-5.12c4.26-.65,11.11-2.93,11.86,1.5.26,1.49.18,7.32-2,8.44s-3.59,2.21-5.91,2.47S126.77,91.25,122.38,78.48Z"/><path class="cls-23" d="M131.87,103.46s2.92,5.78,10.18,2.2c0,0,10.85-11.32,9.69-20.4l-.89.31-5.86,1S136.41,102.61,131.87,103.46Z"/><path class="cls-24" d="M122.61,75.64s4.1,1.79,6.68-.54,11.47-6.91,13.81-19.61S150.77,40,153.13,41s4.51,5,3.42,9.76c0,0-1.9,4.66-2.59,5.19s6.13,9.14-3,14.46a13.93,13.93,0,0,1-6.55,17.19s-.53,13.06-12.69,16c0,0-3,6.8-6.55,8.08-15.41,5.55-16.69-13.91-13.09-16.11,0,0,7.16,2,8.86-2.93s4-9.78,2.65-10.38S121.44,76.72,122.61,75.64Z"/><path class="cls-25" d="M118.73,74s4.09,1.8,6.68-.54,11.47-6.91,13.8-19.6,7.68-15.48,10-14.55,4.51,5,3.42,9.76c0,0-1.9,4.66-2.59,5.19s6.14,9.14-3,14.46a13.93,13.93,0,0,1-6.55,17.19s-.53,13.07-12.69,16c0,0-3,6.8-6.55,8.09-15.41,5.55-16.69-13.92-13.09-16.11,0,0,7.16,2,8.86-2.93s4-9.79,2.65-10.38S117.55,75.08,118.73,74Z"/><path class="cls-26" d="M109.41,83.93s4.3,1.23,6.55-1.43S126.4,74.11,127,61.22s5.53-16.37,8-15.76,6.35,5.53,4.71,9.21c0,0-1,3.27-1.64,3.89s4.71,7-2,11.25c0,0,10.64,10.64-2.66,19.24,0,0,1.63,7.77-10,12.28,0,0-4,9.71-7.37,11.46-14.53,7.57-17.6-5.12-14.32-7.78,0,0,7.36,1,8.39-4.09s2.66-10.24,1.22-10.64S108.39,85.16,109.41,83.93Z"/><path class="cls-27" d="M106.41,84.48s4.3,1.23,6.55-1.43S123.4,74.66,124,61.76s5.53-16.37,8-15.75,6.35,5.52,4.71,9.2c0,0-1,3.28-1.64,3.89s4.71,7-2.05,11.26c0,0,10.65,10.64-2.66,19.23,0,0,1.64,7.78-10,12.28,0,0-4,9.72-7.37,11.46-14.53,7.57-17.6-5.12-14.33-7.78,0,0,7.37,1,8.4-4.09s2.66-10.23,1.22-10.64S105.39,85.71,106.41,84.48Z"/><path class="cls-28" d="M109.86,119.6a16.75,16.75,0,0,1-4.65-2.43c-2.53-1.92-.76-8.64.86-7.66s5.55,1.92,7.58-.24,1.82-11.93,1.62-15.65,1.22-4.89,2.43-5.67,13.58-9.59,14.8-28.77c0,0,41.13-30.46,44-32.61s8.13-6.92,9.54-10.44S187.64,6.36,184.59,6s-10.13,4.11-12.16,5.68S140.72,30.11,135,32.84c-6,2.84-16.68,10.1-21.14,19.69s-10.94,36.79-10.74,43.83-.31,3.06-1.68,5.65C100.37,104,96.9,118.55,109.86,119.6Z"/><path class="cls-29" d="M48.91,60.54s-4.71-7.17-8-8S34.58,51.12,34.17,54s-2.11,7.56.41,9.21-.2,1.63-.81,1.63-2.94.55-3,2.53a3.9,3.9,0,0,0,1.16,3S46.86,64.42,48.91,60.54Z"/><path class="cls-30" d="M195.84,38.43c2-2,4.77-10.77,4.23-11.73s-19.38,23.6-30.84,28.51l-3,1.5s1.78,1.37.14,5.6-5.6,7.5-7.1,7.91a13.27,13.27,0,0,0-3.68,2.32l5.46-1.77-2.46,6.14s11-2.6,13.24-5S191.75,56,193,50.71s.14-6.82-3.41-5S193.79,40.48,195.84,38.43Z"/><path class="cls-31" d="M11.36,103.61s.82-6.75-.1-7.26-2.46.82-2.67,2.25,1.85,9.1,2.87,8.49S11.36,103.61,11.36,103.61Z"/><path class="cls-32" d="M33.8,69.29s8.6-6.44,11.66-6.4c0,0,3.69-2,9.12-5.53,0,0,7-6.75,7.46-7.47,13.2-21.42,1.33,7.81,1,8.19S67.4,57,67.4,57s7.23-2,7.84-1.91-9.17,9.88-8.6,9.68S87.86,76,91.06,86.87c0,0,8,23.26-.54,37.38C92.84,95.39,80.08,105,78.38,107c0,0,.54-6.24-9.18-17.5,0,0-.51-1.43-4.09-4.5,0,0,.51-.92-11.15-2.76,0,0-2.46-1.64-12.59,1.12,0,0-13.21,14.86-14,14.94,0,0-8.39-9.62-12.58-10.54.31-.26,9.84-11.87,10.17-12a5.24,5.24,0,0,0-1,.65,5.84,5.84,0,0,0-.59.2S28.28,70.75,33.8,69.29Z"/><path class="cls-33" d="M25,137.39l8.53,1s-4.41,4.07-5.77,3.64C27.79,142.05,24.52,139.62,25,137.39Z"/><g class="cls-34"><path class="cls-35" d="M11.89,127.62c-.07,2.27-.3,5.28-.09,5a8.58,8.58,0,0,1,7.89-3.32c3.75.33,15.79-.74,17.59-4,3-5.49-10.78-10.21-16-7.16C17.49,120.39,12,122.81,11.89,127.62Z"/></g><path class="cls-36" d="M25.36,140.11s.82-2.5,1.66-3.16c0,0-3.44-.9-5.09-.56Z"/><g class="cls-37"><path class="cls-38" d="M20.94,135.23s11.22,4.71,13.73,5.22c6.07,1.23,7.62-2.92,7.62-2.92s1.28,3.73-4.9,7c-.48.26-3.63,3.29-3.63,3.29s-5.26-1-5.52-1.17C7.71,133.8,22.7,136.3,20.94,135.23Z"/></g><path class="cls-39" d="M109.62,115.07a14,14,0,0,0,6.48-3.38s6.41.89,10.16-1.29c0,0,1.64.13,1.64.82s-1.56,8.65-7.59,9.15C114,120.88,110.47,115.93,109.62,115.07Z"/><path class="cls-40" d="M65.62,104.73A12.72,12.72,0,1,1,52.9,91.65,12.91,12.91,0,0,1,65.62,104.73Z"/><g class="cls-41"><rect class="cls-42" x="11.88" y="94.82" width="14.66" height="22.51"/><polygon class="cls-42" points="17.02 93.82 27.54 93.82 27.54 118.32 10.88 118.32 10.88 93.82 17.02 93.82"/><polygon class="cls-42" points="17.02 93.82 27.54 93.82 27.54 118.32 10.88 118.32 10.88 93.82 17.02 93.82"/><polygon class="cls-42" points="17.02 93.82 27.54 93.82 27.54 118.32 10.88 118.32 10.88 93.82 17.02 93.82"/><polygon class="cls-43" points="17.02 93.82 27.54 93.82 27.54 118.32 10.88 118.32 10.88 93.82 17.02 93.82"/><polygon class="cls-43" points="17.02 93.82 27.54 93.82 27.54 118.32 10.88 118.32 10.88 93.82 17.02 93.82"/><polygon class="cls-44" points="17.02 93.82 27.54 93.82 27.54 118.32 10.88 118.32 10.88 93.82 17.02 93.82"/><polygon class="cls-45" points="17.02 93.82 27.54 93.82 27.54 118.32 10.88 118.32 10.88 93.82 17.02 93.82"/><polygon class="cls-46" points="17.02 93.82 27.54 93.82 27.54 118.32 10.88 118.32 10.88 93.82 17.02 93.82"/><polygon class="cls-47" points="17.02 93.82 27.54 93.82 27.54 118.32 10.88 118.32 10.88 93.82 17.02 93.82"/><polygon class="cls-48" points="17.02 93.82 27.54 93.82 27.54 118.32 10.88 118.32 10.88 93.82 17.02 93.82"/><polygon class="cls-49" points="17.02 93.82 27.54 93.82 27.54 118.32 10.88 118.32 10.88 93.82 17.02 93.82"/><polygon class="cls-50" points="17.02 93.82 27.54 93.82 27.54 118.32 10.88 118.32 10.88 93.82 17.02 93.82"/><polygon class="cls-51" points="17.02 93.82 27.54 93.82 27.54 118.32 10.88 118.32 10.88 93.82 17.02 93.82"/><polygon class="cls-52" points="17.02 93.82 27.54 93.82 27.54 118.32 10.88 118.32 10.88 93.82 17.02 93.82"/><polygon class="cls-53" points="17.02 93.82 27.54 93.82 27.54 118.32 10.88 118.32 10.88 93.82 17.02 93.82"/><polygon class="cls-54" points="17.02 93.82 27.54 93.82 27.54 118.32 10.88 118.32 10.88 93.82 17.02 93.82"/><polygon class="cls-55" points="17.02 93.82 27.54 93.82 27.54 118.32 10.88 118.32 10.88 93.82 17.02 93.82"/><polygon class="cls-56" points="17.02 93.82 27.54 93.82 27.54 118.32 10.88 118.32 10.88 93.82 17.02 93.82"/><polygon class="cls-57" points="17.02 93.82 27.54 93.82 27.54 118.32 10.88 118.32 10.88 93.82 17.02 93.82"/><polygon class="cls-58" points="17.02 93.82 27.54 93.82 27.54 118.32 10.88 118.32 10.88 93.82 17.02 93.82"/><polygon class="cls-59" points="17.02 93.82 27.54 93.82 27.54 118.32 10.88 118.32 10.88 93.82 17.02 93.82"/><polygon class="cls-60" points="17.02 93.82 27.54 93.82 27.54 118.32 10.88 118.32 10.88 93.82 17.02 93.82"/><polygon class="cls-61" points="17.02 93.82 27.54 93.82 27.54 118.32 10.88 118.32 10.88 93.82 17.02 93.82"/><polygon class="cls-62" points="17.02 93.82 27.54 93.82 27.54 118.32 10.88 118.32 10.88 93.82 17.02 93.82"/><polygon class="cls-63" points="17.02 93.82 27.54 93.82 27.54 118.32 10.88 118.32 10.88 93.82 17.02 93.82"/><polygon class="cls-64" points="17.02 93.82 27.54 93.82 27.54 118.32 10.88 118.32 10.88 93.82 17.02 93.82"/><polygon class="cls-65" points="17.02 93.82 27.54 93.82 27.54 118.32 10.88 118.32 10.88 93.82 17.02 93.82"/><polygon class="cls-66" points="17.02 93.82 27.54 93.82 27.54 118.32 10.88 118.32 10.88 93.82 17.02 93.82"/><polygon class="cls-67" points="17.02 93.82 27.54 93.82 27.54 118.32 10.88 118.32 10.88 93.82 17.02 93.82"/><polygon class="cls-68" points="17.02 93.82 27.54 93.82 27.54 118.32 10.88 118.32 10.88 93.82 17.02 93.82"/><polygon class="cls-69" points="17.02 93.82 27.54 93.82 27.54 118.32 10.88 118.32 10.88 93.82 17.02 93.82"/><polygon class="cls-70" points="17.02 93.82 27.54 93.82 27.54 118.32 10.88 118.32 10.88 93.82 17.02 93.82"/><polygon class="cls-71" points="17.02 93.82 27.54 93.82 27.54 118.32 10.88 118.32 10.88 93.82 17.02 93.82"/><polygon class="cls-72" points="17.02 93.82 27.54 93.82 27.54 118.32 10.88 118.32 10.88 93.82 17.02 93.82"/><polygon class="cls-73" points="17.02 93.82 27.54 93.82 27.54 118.32 10.88 118.32 10.88 93.82 17.02 93.82"/><polygon class="cls-74" points="17.02 93.82 27.54 93.82 27.54 118.32 10.88 118.32 10.88 93.82 17.02 93.82"/><polygon class="cls-74" points="17.02 93.82 27.54 93.82 27.54 118.32 10.88 118.32 10.88 93.82 17.02 93.82"/><polygon class="cls-75" points="17.07 93.82 27.54 93.82 27.54 118.32 10.88 118.32 10.88 93.82 17.07 93.82"/><polygon class="cls-76" points="17.11 93.82 27.54 93.82 27.54 118.32 10.88 118.32 10.88 93.82 17.11 93.82"/><polygon class="cls-77" points="17.16 93.82 27.54 93.82 27.54 118.32 10.88 118.32 10.88 93.82 17.16 93.82"/><polygon class="cls-78" points="17.2 93.82 27.54 93.82 27.54 118.32 10.88 118.32 10.88 93.82 17.2 93.82"/><path class="cls-79" d="M17.25,89.4A22.8,22.8,0,0,1,34.46,94H27.54v24.3H10.88V93.82h6.37Z"/><path class="cls-80" d="M17.29,89.68a22.7,22.7,0,0,1,17.12,4.59H27.54v24H10.88V93.82h6.41Z"/><path class="cls-81" d="M17.34,90a22.51,22.51,0,0,1,17,4.56H27.54v23.8H10.88V93.82h6.46Z"/><path class="cls-82" d="M17.38,90.23a22.44,22.44,0,0,1,16.91,4.54H27.54v23.55H10.88V93.82h6.5Z"/><path class="cls-83" d="M17.43,90.51A22.29,22.29,0,0,1,34.24,95h-6.7v23.3H10.88V93.82h6.55Z"/><path class="cls-84" d="M17.47,90.79a22.17,22.17,0,0,1,16.71,4.48H27.54v23H10.88V93.82H9.05A21.74,21.74,0,0,1,17.47,90.79Z"/><path class="cls-85" d="M17.52,91.07a22,22,0,0,1,16.6,4.45H27.54v22.8H10.88V94.07H9.14A21.9,21.9,0,0,1,17.52,91.07Z"/><path class="cls-86" d="M17.56,91.34a21.9,21.9,0,0,1,16.51,4.43H27.54v22.55H10.88v-24H9.24A21.77,21.77,0,0,1,17.56,91.34Z"/><path class="cls-87" d="M17.61,91.62A21.74,21.74,0,0,1,34,96H27.54v22.3H10.88V94.59H9.34A21.73,21.73,0,0,1,17.61,91.62Z"/><path class="cls-88" d="M17.65,91.9A21.65,21.65,0,0,1,34,96.27H27.54v22H10.88V94.85H9.43A21.53,21.53,0,0,1,17.65,91.9Z"/><path class="cls-89" d="M17.7,92.18a21.43,21.43,0,0,1,16.2,4.34H27.54v21.8H10.88V95.11H9.53A21.21,21.21,0,0,1,17.7,92.18Z"/><path class="cls-90" d="M17.74,92.45a21.39,21.39,0,0,1,16.1,4.32h-6.3v21.55H10.88V95.37H9.62A21.25,21.25,0,0,1,17.74,92.45Z"/><path class="cls-91" d="M17.79,92.73a21.24,21.24,0,0,1,16,4.29H27.54v21.3H10.88V95.63H9.72A21.09,21.09,0,0,1,17.79,92.73Z"/><path class="cls-92" d="M17.83,93a21.06,21.06,0,0,1,15.9,4.26H27.54v21H10.88V95.89H9.82A21,21,0,0,1,17.83,93Z"/><path class="cls-93" d="M17.88,93.29a20.91,20.91,0,0,1,15.8,4.23H27.54v20.8H10.88V96.15h-1A20.79,20.79,0,0,1,17.88,93.29Z"/><path class="cls-94" d="M17.92,93.57a20.79,20.79,0,0,1,15.7,4.2H27.54v20.55H10.88V102H4A20.76,20.76,0,0,1,17.92,93.57Z"/><path class="cls-95" d="M18,93.84A20.69,20.69,0,0,1,33.56,98h-6v20.3H10.88V102.18H4.14A20.66,20.66,0,0,1,18,93.84Z"/><path class="cls-96" d="M18,94.12a20.55,20.55,0,0,1,15.5,4.15h-6v20H10.88V102.4H4.27A20.59,20.59,0,0,1,18,94.12Z"/><path class="cls-97" d="M18.05,94.39a20.46,20.46,0,0,1,15.4,4.13H27.54v19.8H10.88V102.63H4.41A20.47,20.47,0,0,1,18.05,94.39Z"/><path class="cls-98" d="M18.1,94.68a20.25,20.25,0,0,1,15.29,4.09H27.54v19.55H10.88V102.85H4.55A20.23,20.23,0,0,1,18.1,94.68Z"/><path class="cls-99" d="M18.15,95A20.14,20.14,0,0,1,33.34,99h-5.8v19.3H10.88V103.07H4.68A20.13,20.13,0,0,1,18.15,95Z"/><path class="cls-100" d="M18.19,95.23a20,20,0,0,1,15.09,4H27.54v19H10.88v-15H4.82A19.94,19.94,0,0,1,18.19,95.23Z"/><path class="cls-101" d="M18.24,95.5a20,20,0,0,1,15,4H27.54v18.8H10.88v-14.8H5A19.88,19.88,0,0,1,18.24,95.5Z"/><path class="cls-102" d="M18.28,95.79a19.73,19.73,0,0,1,14.89,4H27.54v18.55H10.88V103.74H5.09A19.69,19.69,0,0,1,18.28,95.79Z"/><path class="cls-103" d="M18.33,96.06a19.6,19.6,0,0,1,14.78,4H27.54v18.3H10.88V104H5.22A19.59,19.59,0,0,1,18.33,96.06Z"/><path class="cls-104" d="M18.37,96.34a19.42,19.42,0,0,1,14.68,3.93H27.54v18H10.88V104.19H5.35A19.45,19.45,0,0,1,18.37,96.34Z"/><path class="cls-105" d="M18.42,96.61A19.4,19.4,0,0,1,33,100.52H27.54v17.8H10.88V104.41H5.49A19.4,19.4,0,0,1,18.42,96.61Z"/><path class="cls-106" d="M18.46,96.89A19.22,19.22,0,0,1,33,100.78H27.54v17.54H10.88V104.64H5.62A19.16,19.16,0,0,1,18.46,96.89Z"/><path class="cls-107" d="M18.51,97.17A19.05,19.05,0,0,1,32.89,101H27.54v17.29H10.88V104.86H5.76A19.06,19.06,0,0,1,18.51,97.17Z"/><path class="cls-108" d="M18.55,97.45a18.88,18.88,0,0,1,14.28,3.83H27.54v17H10.88V105.08h-5A18.91,18.91,0,0,1,18.55,97.45Z"/><path class="cls-109" d="M18.6,97.73a18.77,18.77,0,0,1,14.17,3.8H27.54v16.79H10.88v-13H6A18.74,18.74,0,0,1,18.6,97.73Z"/><path class="cls-110" d="M18.64,98a18.68,18.68,0,0,1,14.08,3.78H27.54v16.54H10.88V105.53H6.16A18.68,18.68,0,0,1,18.64,98Z"/><path class="cls-111" d="M18.69,98.28a18.49,18.49,0,0,1,14,3.75H27.54v16.29H10.88V105.75H6.3A18.53,18.53,0,0,1,18.69,98.28Z"/><path class="cls-112" d="M18.73,98.56a18.41,18.41,0,0,1,13.88,3.72H27.54v16H10.88V106H6.43A18.38,18.38,0,0,1,18.73,98.56Z"/><path class="cls-113" d="M18.78,98.84a18.22,18.22,0,0,1,13.77,3.69h-5v15.79H10.88V106.2H6.57A18.19,18.19,0,0,1,18.78,98.84Z"/><path class="cls-114" d="M18.82,99.11a18.14,18.14,0,0,1,13.67,3.67h-5v15.54H10.88v-11.9H6.7A18.15,18.15,0,0,1,18.82,99.11Z"/><path class="cls-115" d="M18.87,99.39A18,18,0,0,1,32.44,103h-4.9v15.29H10.88V106.64h-4A18,18,0,0,1,18.87,99.39Z"/><path class="cls-116" d="M18.91,99.67a17.76,17.76,0,0,1,13.47,3.61H27.54v15H10.88V106.87H7A17.85,17.85,0,0,1,18.91,99.67Z"/><path class="cls-117" d="M19,100a17.67,17.67,0,0,1,13.36,3.58H27.54v14.79H10.88V107.09H7.11A17.66,17.66,0,0,1,19,100Z"/><path class="cls-118" d="M19,100.22a17.58,17.58,0,0,1,13.27,3.56H27.54v14.54H10.88v-11H7.24A17.58,17.58,0,0,1,19,100.22Z"/><path class="cls-119" d="M19.05,100.5A17.44,17.44,0,0,1,32.21,104H27.54v14.29H10.88V107.54H7.38A17.39,17.39,0,0,1,19.05,100.5Z"/><path class="cls-120" d="M19.09,100.78a17.3,17.3,0,0,1,13.07,3.5H27.54v14H10.88V107.76H7.51A17.3,17.3,0,0,1,19.09,100.78Z"/><path class="cls-121" d="M19.14,101.05a17.21,17.21,0,0,1,13,3.48H27.54v13.79H10.88V108H7.64A17.24,17.24,0,0,1,19.14,101.05Z"/><path class="cls-122" d="M19.18,101.33A17,17,0,0,1,32,104.78h-4.5v13.54H10.88V108.21H7.78A17,17,0,0,1,19.18,101.33Z"/><path class="cls-123" d="M19.23,101.61A16.89,16.89,0,0,1,32,105H27.54v13.29H10.88v-9.89h-3A16.92,16.92,0,0,1,19.23,101.61Z"/><path class="cls-124" d="M19.27,101.89a16.77,16.77,0,0,1,12.66,3.39H27.54v13H10.88v-9.66H8.05A16.75,16.75,0,0,1,19.27,101.89Z"/><path class="cls-125" d="M19.32,102.16a16.67,16.67,0,0,1,12.56,3.37H27.54v12.79H10.88v-9.44H8.18A16.69,16.69,0,0,1,19.32,102.16Z"/><path class="cls-126" d="M19.36,102.44a16.52,16.52,0,0,1,12.46,3.34H27.54v12.54H10.88V109.1H8.32A16.52,16.52,0,0,1,19.36,102.44Z"/><path class="cls-127" d="M19.41,102.72A16.34,16.34,0,0,1,31.76,106H27.54v12.29H10.88L5.32,122A16.87,16.87,0,0,1,19.41,102.72Z"/><path class="cls-128" d="M19.45,103a16.22,16.22,0,0,1,12.25,3.28H27.54v12H10.88l-5.4,3.78A16.73,16.73,0,0,1,19.45,103Z"/><path class="cls-129" d="M19.5,103.27a16.12,16.12,0,0,1,12.15,3.26H27.54v11.79H10.88l-5.24,3.9A16.6,16.6,0,0,1,19.5,103.27Z"/><path class="cls-130" d="M19.54,103.55a16,16,0,0,1,12.05,3.23H27.54v11.54H10.88l-5.08,4A16.47,16.47,0,0,1,19.54,103.55Z"/><path class="cls-131" d="M19.59,103.83a15.88,15.88,0,0,1,12,3.2h-4v11.29H10.88L6,122.46A16.32,16.32,0,0,1,19.59,103.83Z"/><path class="cls-132" d="M19.63,104.11a15.67,15.67,0,0,1,11.85,3.18H27.54v11H10.88l-4.76,4.26A16.18,16.18,0,0,1,19.63,104.11Z"/><path class="cls-133" d="M19.68,104.38a15.53,15.53,0,0,1,11.74,3.16H27.54v10.78H10.88l-4.6,4.38A16.05,16.05,0,0,1,19.68,104.38Z"/><path class="cls-134" d="M19.72,104.66a15.4,15.4,0,0,1,11.65,3.13H27.54v10.53H10.88l-4.44,4.5A15.92,15.92,0,0,1,19.72,104.66Z"/><path class="cls-135" d="M19.77,104.94A15.29,15.29,0,0,1,31.31,108H27.54v10.28H10.88L6.6,122.94A15.77,15.77,0,0,1,19.77,104.94Z"/><path class="cls-136" d="M19.81,105.21a15.17,15.17,0,0,1,11.44,3.08H27.54v10H10.88l-4.12,4.73A15.64,15.64,0,0,1,19.81,105.21Z"/><path class="cls-137" d="M19.86,105.5a15,15,0,0,1,11.34,3H27.54v9.78H10.88l-4,4.86A15.49,15.49,0,0,1,19.86,105.5Z"/><path class="cls-138" d="M19.9,105.77a14.85,14.85,0,0,1,11.24,3h-3.6v9.53H10.88l-3.79,5A15.35,15.35,0,0,1,19.9,105.77Z"/><path class="cls-139" d="M20,106.05a14.74,14.74,0,0,1,11.14,3H27.54v9.28H10.88l-3.64,5.09A15.22,15.22,0,0,1,20,106.05Z"/><path class="cls-139" d="M20,106.32a14.66,14.66,0,0,1,11,3H27.54v9H10.88l-3.47,5.22A15.08,15.08,0,0,1,20,106.32Z"/><path class="cls-140" d="M20,106.61A14.47,14.47,0,0,1,31,109.54H27.54v8.78H10.88l-3.31,5.33A14.92,14.92,0,0,1,20,106.61Z"/><path class="cls-141" d="M20.08,106.88a14.39,14.39,0,0,1,10.84,2.91H27.54v8.53H10.88l-3.15,5.45A14.8,14.8,0,0,1,20.08,106.88Z"/><path class="cls-142" d="M20.12,107.16A14.22,14.22,0,0,1,30.86,110H27.54v8.28H10.88l-3,5.57A14.66,14.66,0,0,1,20.12,107.16Z"/><path class="cls-142" d="M20.17,107.43a14.07,14.07,0,0,1,10.63,2.86H27.54v8H10.88L8.05,124A14.53,14.53,0,0,1,20.17,107.43Z"/><path class="cls-143" d="M20.22,107.71a14,14,0,0,1,10.53,2.83H27.54v7.78H10.88l-2.67,5.81A14.39,14.39,0,0,1,20.22,107.71Z"/><path class="cls-144" d="M20.26,108a13.79,13.79,0,0,1,10.43,2.8H27.54v7.53H10.88l-2.51,5.93A14.25,14.25,0,0,1,20.26,108Z"/><path class="cls-144" d="M20.31,108.27A13.69,13.69,0,0,1,30.64,111h-3.1v7.28H10.88l-2.35,6.05A14.1,14.1,0,0,1,20.31,108.27Z"/><path class="cls-145" d="M20.35,108.55a13.52,13.52,0,0,1,10.23,2.74h-3v7H10.88l-2.19,6.17A14,14,0,0,1,20.35,108.55Z"/><path class="cls-145" d="M20.4,108.82a13.41,13.41,0,0,1,10.12,2.72h-3v6.78H10.88l-2,6.29A13.85,13.85,0,0,1,20.4,108.82Z"/><path class="cls-146" d="M20.44,109.1a13.29,13.29,0,0,1,10,2.69H27.54v6.53H10.88L9,124.73A13.69,13.69,0,0,1,20.44,109.1Z"/><path class="cls-147" d="M20.49,109.38A13.1,13.1,0,0,1,30.41,112H27.54v6.28H10.88l-1.71,6.53A13.56,13.56,0,0,1,20.49,109.38Z"/><path class="cls-148" d="M20.53,109.65a13.05,13.05,0,0,1,9.83,2.64H27.54v6H10.88L9.33,125A13.44,13.44,0,0,1,20.53,109.65Z"/><path class="cls-148" d="M20.58,109.93a12.91,12.91,0,0,1,9.72,2.61H27.54v5.78H10.88l-1.39,6.77A13.28,13.28,0,0,1,20.58,109.93Z"/><path class="cls-149" d="M20.62,110.21a12.75,12.75,0,0,1,9.62,2.58h-2.7v5.53H10.88l-1.23,6.89A13.15,13.15,0,0,1,20.62,110.21Z"/><path class="cls-149" d="M20.67,110.49A12.6,12.6,0,0,1,30.19,113H27.54v5.28H10.88l-.79,1.79a13.4,13.4,0,0,1,2.14-4.53A12.56,12.56,0,0,1,20.67,110.49Z"/><path class="cls-150" d="M20.71,110.77a12.46,12.46,0,0,1,9.42,2.52H27.54v5H10.88l-.63,2a13.15,13.15,0,0,1,2.11-4.49A12.42,12.42,0,0,1,20.71,110.77Z"/><path class="cls-150" d="M20.76,111a12.36,12.36,0,0,1,9.31,2.5H27.54v4.78H10.88l-.47,2.14A13,13,0,0,1,12.5,116,12.34,12.34,0,0,1,20.76,111Z"/><path class="cls-151" d="M20.8,111.32A12.22,12.22,0,0,1,30,113.79H27.54v4.53H10.88l-.31,2.31a12.69,12.69,0,0,1,2.06-4.38A12.21,12.21,0,0,1,20.8,111.32Z"/><path class="cls-152" d="M20.85,111.6A12.05,12.05,0,0,1,30,114H27.54v4.28H10.88l-.16,2.49a12.57,12.57,0,0,1,2-4.34A12.06,12.06,0,0,1,20.85,111.6Z"/><path class="cls-152" d="M20.89,111.88a11.91,11.91,0,0,1,9,2.41H27.54v4H10.88V121a12.54,12.54,0,0,1,2-4.29A11.91,11.91,0,0,1,20.89,111.88Z"/><path class="cls-152" d="M20.94,112.15a11.86,11.86,0,0,1,8.91,2.39H27.54v3.78H11v2.84a12.26,12.26,0,0,1,2-4.24A11.79,11.79,0,0,1,20.94,112.15Z"/><path class="cls-153" d="M21,112.43a12,12,0,0,1,13.46,10.41l-6.9-4.52H11.2v3a12.14,12.14,0,0,1,2-4.19A11.66,11.66,0,0,1,21,112.43Z"/><path class="cls-153" d="M21,112.71A11.89,11.89,0,0,1,34.33,123l-6.79-4.68H11.35v3.19a12.37,12.37,0,0,1,2-4.15A11.57,11.57,0,0,1,21,112.71Z"/><path class="cls-153" d="M21.07,113a11.76,11.76,0,0,1,13.15,10.18l-6.68-4.84h-16v3.36a11.85,11.85,0,0,1,1.93-4.09A11.43,11.43,0,0,1,21.07,113Z"/><path class="cls-154" d="M21.12,113.26a11.63,11.63,0,0,1,13,10.06l-6.57-5H11.67v3.54a12,12,0,0,1,1.9-4A11.32,11.32,0,0,1,21.12,113.26Z"/><path class="cls-155" d="M21.16,113.54A11.47,11.47,0,0,1,34,123.47l-6.46-5.15H11.82V122a11.61,11.61,0,0,1,1.89-4A11.15,11.15,0,0,1,21.16,113.54Z"/><path class="cls-155" d="M21.21,113.82a11.34,11.34,0,0,1,12.68,9.81l-6.35-5.31H12v3.89a11.81,11.81,0,0,1,1.86-4A11,11,0,0,1,21.21,113.82Z"/><path class="cls-155" d="M21.25,114.09a11.2,11.2,0,0,1,12.53,9.7l-6.24-5.47H14v.16A10.9,10.9,0,0,1,21.25,114.09Z"/><path class="cls-155" d="M21.3,114.37A11.06,11.06,0,0,1,33.67,124l-6.13-5.63H14.11v.38A10.77,10.77,0,0,1,21.3,114.37Z"/><path class="cls-156" d="M21.34,114.65a10.93,10.93,0,0,1,12.22,9.46l-6-5.79H14.25v.61A10.59,10.59,0,0,1,21.34,114.65Z"/><path class="cls-156" d="M21.39,114.93a10.78,10.78,0,0,1,12.06,9.33l-5.91-5.94H14.38v.83A10.49,10.49,0,0,1,21.39,114.93Z"/><path class="cls-156" d="M21.43,115.2a10.65,10.65,0,0,1,11.91,9.22l-5.8-6.1h-13v1.05A10.35,10.35,0,0,1,21.43,115.2Z"/><path class="cls-156" d="M21.48,115.48a10.5,10.5,0,0,1,11.75,9.1l-5.69-6.26H14.65v1.28A10.22,10.22,0,0,1,21.48,115.48Z"/><path class="cls-156" d="M21.52,115.76a10.37,10.37,0,0,1,11.6,9l-5.58-6.41H14.79v1.5A10,10,0,0,1,21.52,115.76Z"/><path class="cls-157" d="M21.57,116A10.23,10.23,0,0,1,33,124.89l-5.48-6.57H14.92V120A9.94,9.94,0,0,1,21.57,116Z"/><path class="cls-157" d="M21.61,116.31a10.11,10.11,0,0,1,11.3,8.74l-5.37-6.73H15.06v2A9.8,9.8,0,0,1,21.61,116.31Z"/><path class="cls-157" d="M21.66,116.59a10,10,0,0,1,11.14,8.62l-5.26-6.89H15.19v2.17A9.67,9.67,0,0,1,21.66,116.59Z"/><path class="cls-157" d="M21.7,116.87a9.57,9.57,0,0,1,7.19,1.92l-1.35-.47H15.33v2.39A9.48,9.48,0,0,1,21.7,116.87Z"/><path class="cls-157" d="M21.75,117.14a9.43,9.43,0,0,1,7.09,1.91l-1.3-.73H15.46v2.61A9.47,9.47,0,0,1,21.75,117.14Z"/><path class="cls-157" d="M21.79,117.42a9.25,9.25,0,0,1,7,1.88l-1.24-1H15.6v2.84A9.29,9.29,0,0,1,21.79,117.42Z"/><path class="cls-157" d="M21.84,117.7a9.07,9.07,0,0,1,6.88,1.85l-1.18-1.23H15.73v3.06A9.14,9.14,0,0,1,21.84,117.7Z"/><path class="cls-158" d="M21.88,118a9,9,0,0,1,6.79,1.82l-1.13-1.48H15.87v3.29A9,9,0,0,1,21.88,118Z"/><path class="cls-159" d="M21.93,118.25a8.88,8.88,0,0,1,6.68,1.8l-1.07-1.73H16v3.51A8.89,8.89,0,0,1,21.93,118.25Z"/><path class="cls-159" d="M22,118.54a8.67,8.67,0,0,1,6.58,1.76l-1-2H22Z"/><path class="cls-159" d="M22,118.32h0Z"/><path class="cls-159" d="M22.06,118.32h0Z"/><path class="cls-159" d="M22.11,118.32h0Z"/><path class="cls-159" d="M22.15,118.32h0Z"/><path class="cls-159" d="M22.2,118.32h0Z"/><path class="cls-159" d="M22.24,118.32h0Z"/><path class="cls-159" d="M22.29,118.32h0Z"/><path class="cls-159" d="M22.33,118.32h0Z"/><path class="cls-159" d="M22.38,118.32h0Z"/><path class="cls-159" d="M22.42,118.32h0Z"/><path class="cls-160" d="M22.47,118.32h0Z"/><path class="cls-160" d="M22.51,118.32h0Z"/><path class="cls-160" d="M22.56,118.32h0Z"/><path class="cls-160" d="M22.6,118.32h0Z"/><path class="cls-160" d="M22.65,118.32h0Z"/><path class="cls-160" d="M22.69,118.32h0Z"/><path class="cls-160" d="M22.74,118.32h0Z"/><path class="cls-160" d="M22.78,118.32h0Z"/><path class="cls-160" d="M22.83,118.32h0Z"/><path class="cls-160" d="M22.87,118.32h0Z"/><path class="cls-160" d="M22.92,118.32h0Z"/><path class="cls-160" d="M23,118.32h0Z"/><path class="cls-160" d="M23,118.32h0Z"/><path class="cls-160" d="M23.05,118.32h0Z"/><path class="cls-160" d="M23.1,118.32h0Z"/><path class="cls-160" d="M23.14,118.32h0Z"/><path class="cls-160" d="M23.19,118.32h0Z"/><path class="cls-160" d="M23.23,118.32h0Z"/><path class="cls-160" d="M23.28,118.32h0Z"/><path class="cls-160" d="M23.32,118.32h0Z"/><path class="cls-160" d="M23.37,118.32h0Z"/><path class="cls-160" d="M23.41,118.32h0Z"/><path class="cls-160" d="M23.46,118.32h0Z"/><path class="cls-160" d="M23.5,118.32h0Z"/><path class="cls-160" d="M23.55,118.32h0Z"/><path class="cls-160" d="M23.59,118.32h0Z"/><path class="cls-160" d="M23.64,118.32h0Z"/><path class="cls-160" d="M23.68,118.32h0Z"/><path class="cls-160" d="M23.73,118.32h0Z"/><path class="cls-160" d="M23.77,118.32h0Z"/><path class="cls-160" d="M23.82,118.32h0Z"/><path class="cls-160" d="M23.86,118.32h0Z"/><path class="cls-160" d="M23.91,118.32h0Z"/><path class="cls-160" d="M24,118.32h0Z"/><path class="cls-160" d="M24,118.32h0Z"/><path class="cls-160" d="M24,118.32h0Z"/><path class="cls-160" d="M24.09,118.32h0Z"/><path class="cls-160" d="M24.13,118.32h0Z"/><path class="cls-160" d="M24.18,118.32h0Z"/><path class="cls-160" d="M24.22,118.32h0Z"/><path class="cls-160" d="M24.27,118.32h0Z"/><path class="cls-160" d="M24.31,118.32h0Z"/><path class="cls-160" d="M24.36,118.32h0Z"/><path class="cls-160" d="M24.4,118.32h0Z"/><path class="cls-160" d="M24.45,118.32h0Z"/><path class="cls-160" d="M24.49,118.32h0Z"/><path class="cls-160" d="M24.54,118.32h0Z"/><path class="cls-160" d="M24.58,118.32h0Z"/><path class="cls-160" d="M24.63,118.32h0Z"/><path class="cls-160" d="M24.67,118.32h0Z"/><path class="cls-160" d="M24.72,118.32h0Z"/><path class="cls-160" d="M24.76,118.32h0Z"/><path class="cls-160" d="M24.81,118.32h0Z"/><path class="cls-160" d="M24.85,118.32h0Z"/></g><path class="cls-31" d="M69.33,96.66c.26,2.18-2.58,2.68-3.14,4.72s.13,4.4,0,5.5c-.79,6.4-6.11,11-10.61,11.78-21.41,3.76-21.92-32.13,0-28.28C61.81,91.47,62.86,98.88,69.33,96.66ZM51.26,117.09c18.43,1.81,16.94-27.93-.79-24.75C36.67,94.82,38.1,115.8,51.26,117.09Z"/><path class="cls-161" d="M51.65,99c6.63-1.68,9.13,13.7,1.18,14.54C46.94,114.18,46.48,100.33,51.65,99Zm1.18,7.46c3.72-.2,3.48-7.74-1.18-5.89C48.42,101.88,49.51,106.67,52.83,106.48Z"/><path class="cls-9" d="M91.33,113.56C91.06,109,89,102.85,83.87,103c-2.72,0-3.29,2.18-5.11,2.36C75.16,91.72,66.32,78.9,48.9,81,38.51,82.17,33,89.83,28.07,97.45a26.93,26.93,0,0,0-10.3-9H14a39.67,39.67,0,0,0-3.14,9.73c1.93-.43,1.06-.46,2.8-1.49.68-1.92,1.69-5.44,2.68-7.06,4.41,2.92,8.54,6.12,11,11C34.36,91.89,40.6,81.73,56,83.3c13.14,1.35,18.64,13,22.4,24.76,2.65-1,3.92-5.67,8.25-2.75,1.38.93,2.46,4,2.75,6.28,2.19,17.59-15.16,38.25-33.79,39.69a43.68,43.68,0,0,1-20.11-3,3.87,3.87,0,0,0-1.87.61,3,3,0,0,1,.76.06c6,3.73,16.54,5.2,25.76,3.69,1-.88,2.38-1,3.86-1.13C76.77,147.07,92.37,131.4,91.33,113.56Z"/><path class="cls-162" d="M193.49,43.23c4.07-4.44,8.9-8.12,9-16.51-4.88-4.85-8.47,2.81-11,6.29-6.9,9.48-16,18.87-25.14,22.4,7.79-3.62,16.34-19.59-.4-18.47,5.81-6.43,22.27-14.12,23.51-25.11.46-4-.9-8.14-2.86-9.82-11.46,5.82-25.25,12.49-36.84,19.24C138.42,27.87,124.85,34,116.23,42.94c-8.43,8.71-10.41,22.24-13.5,36.63-4.1,1.14-6.53,2.76-11,3.48C89.46,80.87,90,79,89.37,76.23c-1.63-7-6.7-12.41-11.4-16.11-.8-1.45-2.46,1.57-2.75-.39,0-2.34,1.72-3,1.18-5.89-.73-1.48-4-.3-4.71-.79-3.87-3.47-.76-8.22-2.75-12.57-1.54-1.29-3.42.84-3.93.39-6.81-11-15.57-28.48-24.36-36.93C39.36,2.7,36.22.09,34.36,0c-9-.41-.8,15,.79,18.86,2.12,5.2,4.5,9.44,6.28,14.14C31.34,29.45,35,46.44,38.29,50.3c-6.56,0-6.73,8.73-4.32,13.36a7.83,7.83,0,0,0-4.32,2.75c-.32,2,.42,3,.78,4.32-6.9,4.48-12.8,10-16.48,17.68h3.82c-.24-.13-.45-.28-.7-.39,11.76-20.2,41.34-22.57,50.29-45.58,1,7.44-4.66,11.58-6.68,17.29,4.25.54,7.63-3.09,12.19-3.54-1,4.75-5.33,6.2-8.65,8.65,12.9,6,24.08,13.64,28.29,28.29,2.16-1.75-.37-5.32-.39-7.47,4.59-.12,7.81-1.61,11-3.14-.33,6.23-2.25,12.92-1.18,19.25,2.24-2.46,1.7-6.25,2-9a128.65,128.65,0,0,1,5.51-27.5c3.7-11.31,8.92-18.56,18.46-25.54,16.7-12.22,36.65-21.8,56.19-31.82C189.9,16.13,173.56,26.81,166,33c-2.25,1.85-5.6,2.89-6.28,5.9,3.7,1.93,11.42-.16,13.75,3.14-1.29,7.35-7.32,10-12.57,13.36,0,2.45,3.48,1.49,4.71,2.75.84,7.66-6.5,10.51-11,14.14.53,3,2.51,3.43,2.36,6.29-.19,3.51-3.78,5-5.9,7.07-.19,16.18-12.73,20-24,25.14.16,3.12-1.8,7.18-.79,8.65,2.42-.86,2.09-4.46,2.36-7.46,11.74-4.77,23.68-9.33,24.36-25.15,4-1.79,9.1-8.76,4.32-13.36,4.94-4.23,11.67-6.66,11-16.5,9.95-5.33,17.24-12.85,24-21.61,2-2.64,3.9-6.38,7.46-7.47-.41,5.72-4.08,9-7.07,12.18s-7.11,5.74-8.64,10.22c4,1.49,4.71-3.62,8.64-3.54C187.82,58.52,177,64.28,168.34,72.3c0,1.26.89,1.73,2.36,1.57a125.75,125.75,0,0,1-11,14.54c-5,5.85-11.81,10.4-14.15,18.47-2.16,7.44-2.87,14.43-5.5,21.21-6.58,17-20.43,36-42.43,37.72-15.46,1.18-25.93-6-34.18-14.14l.54-.19c-1.48.17-2.83.25-3.86,1.13l1-.16c9.83,9,20.34,17.05,36.54,16.11,22-1.26,36.83-19.45,43.61-36.54,2.94-7.41,3.78-15.39,5.89-23.57.41-1.57,2-6.18,2.75-7.07,7.65-9.17,18.31-17.33,24-27.51-.21-3.9,3.43-5.52,6.68-8.25,2-1.72,4.5-3.41,6.29-5.11C191.7,55.88,199.33,47.49,193.49,43.23ZM54.79,55.41A75.19,75.19,0,0,1,43.4,62.87c-4.12,2.34-8.07,5-11.79,5.9-.48-3.63,3.78-2.51,5.5-3.93-1.45-2.73-3.45-8.76-.39-11.4,3.5-.62,4.06,1.7,7.07,1.57,1.09-3.66-3.26-5.77-4.71-9S36.5,38.8,37.9,34.58c9,.65,7.49,11.89,14.14,14.93-.77-3.65-3.3-6.65-5.11-10.21a205,205,0,0,1-13.75-35c-.7-.29-.06-.71,0-1.18H34c9.61,7.34,16.49,18.2,23.57,29.47,1.41,2.24,6.21,8.62,6.29,11C63.94,47.36,57.26,53.28,54.79,55.41ZM64.61,57c-.09-1.68,2.58-4,3.15-6.29a5.56,5.56,0,0,1,2,3.54C68.07,55.19,66.05,55.79,64.61,57Zm3.93,8.25A30.21,30.21,0,0,1,74,60.91c1.48,1.53.45,5.58,2.36,6.68,1.74-.23.15-3.78,1.18-4.72C81,67.16,84.7,71.21,87,76.62A39.34,39.34,0,0,0,68.54,65.23Z"/><path class="cls-9" d="M23,116.31s0-.07,0-.11c-1,.41-2.16.87-3.12,1.3-1.9,1.23-3.44,2.83-5.49,3.91,0,0,0-.06,0-.09-.22-1.85-.63-5.44-.85-7.27a13,13,0,0,1-2.41-3.33,72.13,72.13,0,0,1,1.7,11.55c0,.24,0,.5,0,.72-.16,1.69-2,2.87-2.36,4.71-1.07,5,.48,9.48,2.36,13.75,2.18,0,1.49-3,3.93-2.75,4.75,3.64,9.57,7.19,14.54,10.61,1,.07,1.48-.41,2.38-.45a3.87,3.87,0,0,1,1.87-.61l-.32-.12c2.08-3,5.73-3.61,7.85-6.68,2.69-3.88,1.81-9.6,5.51-13C41.57,123.31,34.2,113.39,23,116.31ZM38.29,143c-1.36,1-5,3.51-6.29,3.53-4.39.06-10.11-8-14.53-8.64a4.35,4.35,0,0,1,3.93-1.18c2.26,1.79,3.92,4.19,6.67,5.5,2.11.14,2.84-1.09,4.33-1.57,2.74-.45,6,2.09,7.85,0C43.25,138.37,39.56,142.08,38.29,143Zm-16-6.68s7.91,2,9,3.18c0,0-1.64,1.84-3.07,2C28.24,141.57,22.71,137.68,22.31,136.35Zm16.37,3.14c-5.7-.28-13-5.44-18.86-4.72-3.05.38-4.47,3.61-7.07,3.93-1.27-5-1.06-10.84,1.57-14.14,2.23-2.81,8.21-7,13-7.08,7.51-.06,13.38,8.16,19.25,10.61A53.65,53.65,0,0,1,38.68,139.49Z"/><path class="cls-31" d="M13.54,96.27a5.76,5.76,0,0,1-2.73,1.87.29.29,0,0,0,0,.09.23.23,0,0,1-.07-.07,3.58,3.58,0,0,1-.69.07,3.58,3.58,0,0,0,.69-.07c-.48-.48-.74-1.07-1.5-.32,1.22,2.62.75,5,.78,7.86.08,7.22,5.91,14.44,12.92,9.58,1.23-1.23,1.5-1.1,2-2.12C29,105.09,23.42,88.29,13.54,96.27Zm5.1,19.64c-8,.24-8.13-17.7-1.57-19.64C26.16,93.57,27,115.67,18.64,115.91Z"/><path class="cls-161" d="M21,100.59c3.17,2.56,5,12.54-1.18,13.36C15.15,114.58,14.12,100.64,21,100.59Zm-2.79,5.48c.72.46.59,1.05,1.22,1.59C27.83,106.37,17.44,96.73,18.21,106.07Z"/><path class="cls-163" d="M91.47,84S108.11,129.88,64,150.66c0,0-5.66.32-5.66,2s2.73,3.55,4.91,3.82,4.37,2.18,4.64,4.09,9.89,2.53,13.17.89,36.08-31.72,19.44-80c0,0-3.79-2.87-4.51-2.25s-1.33,2.45-2.14,2.76-1.23-1-2-.72S90.65,83.42,91.47,84Z"/><path class="cls-164" d="M75.12,163.18h0c-1.29,0-7.71-.12-8.06-2.53-.22-1.55-2.09-3.17-3.93-3.4-2.53-.31-5.63-2.51-5.63-4.63s3.86-2.61,6.27-2.77c41.33-19.57,28.07-62.16,27-65.38a2.23,2.23,0,0,1-.52-1.83,2.69,2.69,0,0,1,1.31-2.19,1.73,1.73,0,0,1,1.77.48,1.84,1.84,0,0,0,.3.22A9.62,9.62,0,0,0,94.39,80a5.64,5.64,0,0,1,1-1.44,1.23,1.23,0,0,1,.82-.29c1.3,0,3.94,1.92,4.71,2.51l.2.15.08.23c16.49,47.83-15,78.59-19.85,81a15.3,15.3,0,0,1-6.28,1Zm17-81.13a2,2,0,0,0-.26.87c0,.26,0,.39.08.41l.16.14.13.25c.17.47,16.38,46.82-27.91,67.68l-.31.08c-2.27.13-4.64.71-4.89,1.19,0,1,2.18,2.71,4.2,3,2.58.32,5,2.51,5.35,4.79.24.37,2.62,1.13,6.44,1.13h0a14.06,14.06,0,0,0,5.55-.86c.39-.2,36.22-28.73,19.11-78.78a13.9,13.9,0,0,0-3.4-2,9.07,9.07,0,0,0-.59.91,4,4,0,0,1-1.68,1.87,1.92,1.92,0,0,1-1.85-.53l-.13-.11Z"/><path class="cls-163" d="M101.7,129.91s5.73,5.52,5.73,19.44,4.92,38.88,7.78,43.79-15.55-5.32-18-5.32S96,148.59,95.29,146.89C94.48,144.85,101.7,129.91,101.7,129.91Z"/><path class="cls-164" d="M114.75,195.29c-1.83,0-5.67-1.65-10.9-4-2.65-1.19-5.95-2.66-6.65-2.66-1.88,0-2.43-3.91-2.47-29.78,0-5.4,0-11-.21-11.7-.85-2.11,4.23-13,6.45-17.61l.49-1,.81.79c.25.23,6,5.93,6,20s5,38.81,7.67,43.38a2,2,0,0,1,.24,1.89,1.46,1.46,0,0,1-1.41.67ZM97.51,187c1.13.16,3.37,1.15,7,2.77s8.26,3.69,10,3.85l-.06-.1c-3-5.21-7.88-30.27-7.88-44.2,0-10.28-3.23-15.88-4.73-17.94-3.14,6.62-6.15,14-5.83,15.19.26.66.29,3.71.31,12.26,0,9.12,0,25.93,1.14,28.17Z"/><path class="cls-165" d="M92,85.23s-1.16-3.35-.07-3.48,2.18.07,2.46-.07,1-2.49,1.56-2.52c1.3-.07,3.41,2.18,3.82,2.66s5.46,15.14,4.51,25.3c0,0-.77,10.89-2.53,11.12-4.09.55-5.52-5-5.45-11C96.38,100.64,92.36,85.3,92,85.23Z"/><path class="cls-166" d="M65.33,156.36l1.59,1s13.5-4.15,19.23-14.74c4.5-7.21,1.28-5.06.1-4.19-10,7.42-15.34,11-22.51,12.69,0,0-5-.41-4.8,1.53A5.26,5.26,0,0,0,65.33,156.36Z"/><path class="cls-166" d="M92.29,83.92c-.13-.14-1.33-1.79.36-2a6.85,6.85,0,0,0,2.1.46c.36-.15,1.69,2.36,1.69,3.58,0,0-.52.31-1.28-.41S92.7,84.32,92.29,83.92Z"/><path class="cls-166" d="M96.25,149.55S96,147.5,96,146.62s1.71-7.91,4.85-13c0,0,3.14,14.67.55,24.29s-4.82,19.4-4.82,19.4Z"/><path class="cls-6" d="M17.91,80S39.7,46.21,79.19,83.66l7-1S47.63,36.2,13.92,78.85C13.92,78.85,16.27,79.57,17.91,80Z"/><path class="cls-7" d="M78.92,84.53l-.29-.28C66.43,72.69,54.74,66.82,43.87,66.82c-16.31,0-25.19,13.46-25.28,13.6l-.31.49-.57-.14c-1.66-.41-4-1.14-4-1.14l-1.15-.35.74-.94C22.89,66.18,33.84,60,45.82,60c22.37,0,40.21,21.2,41,22.1l.93,1.12-8.79,1.3ZM43.87,65.19c11.21,0,23.19,5.92,35.6,17.6l5.06-.74c-4-4.41-20-20.4-38.71-20.4-11.14,0-21.4,5.64-30.5,16.76.65.19,1.48.43,2.24.63,1.84-2.52,11-13.85,26.31-13.85Z"/><path class="cls-6" d="M97.14,89.78a21.82,21.82,0,0,0-.55-2.29A9.42,9.42,0,0,0,97.26,84c0-4.73-3.23-8.55-7.22-8.55a6.31,6.31,0,0,0-3.71,1.24,11.41,11.41,0,0,0-2.55-.31,11.22,11.22,0,0,0-1.64.14,6.5,6.5,0,0,0-4.62-2c-4,0-7.21,3.83-7.21,8.55,0,.06,0,.11,0,.16a9.47,9.47,0,0,0,.05,14.24,9.71,9.71,0,0,0-1.1,4.49c0,4.72,3.24,8.55,7.22,8.55a6.21,6.21,0,0,0,3-.79,11,11,0,0,0,4.3.88,12.32,12.32,0,0,0,9.39-4.68,5.52,5.52,0,0,0,.91.11c4,0,7.21-3.83,7.21-8.55A8.7,8.7,0,0,0,97.14,89.78Z"/><path class="cls-7" d="M83.78,111.42a11.91,11.91,0,0,1-4.26-.8,6.94,6.94,0,0,1-3,.71c-4.43,0-8-4.2-8-9.37a10.63,10.63,0,0,1,.9-4.28,10.35,10.35,0,0,1,.15-14.84c.15-5.14,3.69-9.14,8-9.14a7.28,7.28,0,0,1,4.9,2,11.34,11.34,0,0,1,3.74.16A7.15,7.15,0,0,1,90,74.64c4.44,0,8,4.2,8,9.37a10.3,10.3,0,0,1-.63,3.52c.17.59.31,1.17.43,1.73a9.58,9.58,0,0,1,4.23,8.22c0,5.17-3.6,9.37-8,9.37a3.92,3.92,0,0,1-.59,0,13,13,0,0,1-9.71,4.62Zm-4.35-2.6.36.15c4.45,1.84,9.36.43,12.76-3.57l.29-.35.65.1a3.8,3.8,0,0,0,.59.06c3.53,0,6.4-3.46,6.4-7.73a8,8,0,0,0-3.74-7l-.33-.19-.07-.38a19.44,19.44,0,0,0-.53-2.2l-.08-.27.1-.26A8.73,8.73,0,0,0,96.44,84c0-4.27-2.87-7.74-6.4-7.74a5.55,5.55,0,0,0-3.23,1.09l-.31.22-.36-.09a10.85,10.85,0,0,0-2.36-.28,10,10,0,0,0-1.53.13l-.4.06-.29-.29a5.65,5.65,0,0,0-4-1.77c-3.52,0-6.4,3.47-6.4,7.73v.39l-.29.41a8.65,8.65,0,0,0,0,12.95l.53.42-.31.61a8.89,8.89,0,0,0-1,4.11c0,4.26,2.87,7.73,6.4,7.73a5.39,5.39,0,0,0,2.6-.69l.34-.18Z"/><path class="cls-8" d="M68.2,89.44s.4,4.09,3.78,5.22c0,0,1.54.2,1.64,1.12s-2.15,4.2-.62,6.14c0,0,4.3,3.17,8-.51,0,0-.57,4.09,2.55,4.55,0,0,2.71.21,2,1.44a8.16,8.16,0,0,0,7.34-4.07l1.41.64c.56.25,7.25-3.94,5.61-9.87,0,0,3.27,8.63-4.71,11.18,0,0-2.18.28-2.08-.2,0,0-5.34,7.55-13.47,3.82,0,0-7.61,3.77-9.42-5.44A9.51,9.51,0,0,1,71,97a9.43,9.43,0,0,0-1.23-1C69.56,95.9,67.17,92,68.2,89.44Z"/><path class="cls-8" d="M14.94,78S27.88,62.33,43,65.09c0,0-10.38,1.38-15.11,4.5S20.25,75.14,18,79C18,79,17,79.8,14.94,78Z"/><path class="cls-8" d="M95.87,80.86s-1,4.3-3.36,4.76a1.1,1.1,0,0,0,.57,1.43c1,.57,1.79.36,2,.87s.89.53.73-.13a1.07,1.07,0,0,1,.07-.65C96,86.94,97.2,82.65,95.87,80.86Z"/></g></g></svg>