<svg id="Calque_1" data-name="Calque 1" xmlns="http://www.w3.org/2000/svg" viewBox="0 0 288 287.31"><defs><style>.cls-1{fill:#fff;}</style></defs><title>Sans titre - 1</title><path class="cls-1" d="M25,.61H36.19L61.05,66H48L41.9,49.69H19.06l-6,16.3H0ZM39.6,40.76l-9-25.7-9.39,25.7Z" transform="translate(0 -0.15)"/><path class="cls-1" d="M165.23,17.73A16.43,16.43,0,0,0,162.88,16a28.74,28.74,0,0,0-4.15-2.17A36,36,0,0,0,153.44,12a22.78,22.78,0,0,0-5.8-.74q-5.25,0-7.83,1.93a6.4,6.4,0,0,0-2.58,5.44,5.55,5.55,0,0,0,1,3.36A8.22,8.22,0,0,0,141,24.36a23.38,23.38,0,0,0,4.65,1.85q2.81.83,6.49,1.75,4.78,1.29,8.7,2.76a23.57,23.57,0,0,1,6.63,3.68,15.24,15.24,0,0,1,4.19,5.3,17.59,17.59,0,0,1,1.48,7.59,18.91,18.91,0,0,1-2,9,16.68,16.68,0,0,1-5.35,6,23.22,23.22,0,0,1-7.73,3.37,39.15,39.15,0,0,1-9.16,1.06,49.29,49.29,0,0,1-14.55-2.21,45.22,45.22,0,0,1-12.9-6.27l5.62-11a17.23,17.23,0,0,0,3,2.17,46.1,46.1,0,0,0,5.12,2.67,40.24,40.24,0,0,0,6.53,2.26,29.77,29.77,0,0,0,7.37.92q10.5,0,10.5-6.73a5.52,5.52,0,0,0-1.2-3.59A10.19,10.19,0,0,0,155,42.41a32.67,32.67,0,0,0-5.34-2l-7-2a58.41,58.41,0,0,1-8.14-2.81A21.21,21.21,0,0,1,128.76,32a13.21,13.21,0,0,1-3.45-4.79,16.52,16.52,0,0,1-1.15-6.49A20.31,20.31,0,0,1,126,11.84a17.79,17.79,0,0,1,5.11-6.45,23.34,23.34,0,0,1,7.59-3.91A31.46,31.46,0,0,1,148,.15a36.1,36.1,0,0,1,12.7,2.16,47.23,47.23,0,0,1,10.13,5.11Z" transform="translate(0 -0.15)"/><path class="cls-1" d="M288,11.75H267.1V66H254.48V11.75h-20.9V.61H288Z" transform="translate(0 -0.15)"/><path class="cls-1" d="M0,176.49V111.11H28.92A18.55,18.55,0,0,1,37.25,113a21.61,21.61,0,0,1,6.58,5,23.27,23.27,0,0,1,4.33,7,21.15,21.15,0,0,1,1.57,7.87,21.73,21.73,0,0,1-3.18,11.56,18.29,18.29,0,0,1-8.61,7.51l14.92,24.58H38.58L25.23,154.58H12.71v21.91Zm12.71-33.06H28.64a6.75,6.75,0,0,0,3.27-.82,8.43,8.43,0,0,0,2.62-2.26A11.14,11.14,0,0,0,36.28,137a13,13,0,0,0,.65-4.15,11.82,11.82,0,0,0-.74-4.23,11,11,0,0,0-2-3.36A9,9,0,0,0,31.36,123a7.49,7.49,0,0,0-3.27-.79H12.71Z" transform="translate(0 -0.15)"/><path class="cls-1" d="M147.36,177a29.74,29.74,0,0,1-13-2.8,32.19,32.19,0,0,1-10-7.46,34.61,34.61,0,0,1-8.79-22.89,32.78,32.78,0,0,1,2.44-12.52,34.52,34.52,0,0,1,6.72-10.59,32.11,32.11,0,0,1,10.18-7.32,30.17,30.17,0,0,1,12.8-2.72,28.82,28.82,0,0,1,12.94,2.9,32.62,32.62,0,0,1,10,7.6A34.9,34.9,0,0,1,177,131.83a33.49,33.49,0,0,1,2.3,12.16,32.94,32.94,0,0,1-2.39,12.47,34,34,0,0,1-6.63,10.5,31.92,31.92,0,0,1-10.13,7.28A30.2,30.2,0,0,1,147.36,177Zm-19-33.15a26.29,26.29,0,0,0,1.29,8.2,21.88,21.88,0,0,0,3.73,7,18.7,18.7,0,0,0,6,4.88,18.54,18.54,0,0,0,16.21,0,18.63,18.63,0,0,0,6-5,22.42,22.42,0,0,0,3.68-7,26.16,26.16,0,0,0,1.24-8,25.46,25.46,0,0,0-1.33-8.19,22.48,22.48,0,0,0-3.78-7,18,18,0,0,0-6-4.84,17.49,17.49,0,0,0-8-1.79,17.3,17.3,0,0,0-8.19,1.89,18,18,0,0,0-6,5,22.32,22.32,0,0,0-3.64,7A26.41,26.41,0,0,0,128.39,143.8Z" transform="translate(0 -0.15)"/><path class="cls-1" d="M242,176.49V111.11h12.7v54.24H288v11.14Z" transform="translate(0 -0.15)"/><path class="cls-1" d="M31.86,287.46a29.74,29.74,0,0,1-13-2.81,32,32,0,0,1-10-7.46A34.61,34.61,0,0,1,0,254.31a32.83,32.83,0,0,1,2.44-12.53,34.71,34.71,0,0,1,6.72-10.59,32.11,32.11,0,0,1,10.18-7.32,30.21,30.21,0,0,1,12.8-2.72,28.67,28.67,0,0,1,12.94,2.91,32.31,32.31,0,0,1,10,7.59,34.9,34.9,0,0,1,6.44,10.68,33.59,33.59,0,0,1,2.31,12.16A33,33,0,0,1,61.42,267a33.67,33.67,0,0,1-6.63,10.5,31.93,31.93,0,0,1-10.13,7.27A30.21,30.21,0,0,1,31.86,287.46Zm-19-33.15a26.28,26.28,0,0,0,1.29,8.19,21.88,21.88,0,0,0,3.73,7,18.5,18.5,0,0,0,6,4.88A17.18,17.18,0,0,0,32,276.22a17.16,17.16,0,0,0,8.15-1.88,18.65,18.65,0,0,0,6-5,22.37,22.37,0,0,0,3.68-7.05,26.11,26.11,0,0,0,1.25-8,25.49,25.49,0,0,0-1.34-8.2,22.78,22.78,0,0,0-3.77-7,18.08,18.08,0,0,0-6-4.83,17.34,17.34,0,0,0-8-1.8,17.3,17.3,0,0,0-8.19,1.89,18.26,18.26,0,0,0-6,5,22.3,22.3,0,0,0-3.63,7A26.17,26.17,0,0,0,12.89,254.31Z" transform="translate(0 -0.15)"/><path class="cls-1" d="M165.27,279.63A25,25,0,0,1,147,287.46a28.84,28.84,0,0,1-12.11-2.58,30.51,30.51,0,0,1-9.85-7.09,33.6,33.6,0,0,1-6.63-10.64A35.26,35.26,0,0,1,116,253.94a33.22,33.22,0,0,1,9.16-23.07,32.08,32.08,0,0,1,10.08-7.09,30.25,30.25,0,0,1,12.62-2.63A30.62,30.62,0,0,1,163.66,225a25,25,0,0,1,9.9,10.41l-9.48,7a17.59,17.59,0,0,0-7-7.46,19.07,19.07,0,0,0-9.71-2.58,16.5,16.5,0,0,0-7.6,1.75,17.73,17.73,0,0,0-5.89,4.79,22.48,22.48,0,0,0-3.78,7,26,26,0,0,0-1.33,8.38,24.79,24.79,0,0,0,1.47,8.61,21.81,21.81,0,0,0,4.05,6.95,19.13,19.13,0,0,0,6.12,4.65,17.49,17.49,0,0,0,7.69,1.7q9.5,0,17.13-8.93v-4.6H152.1v-9.3h23.67V287h-10.5Z" transform="translate(0 -0.15)"/><path class="cls-1" d="M241.77,221.62l16.12,31.49,16.39-31.49H288l-23.76,42.54V287H251.63V264L228,221.62Z" transform="translate(0 -0.15)"/></svg>