<?xml version="1.0" encoding="utf-8"?>
<!-- Generator: Adobe Illustrator 22.1.0, SVG Export Plug-In . SVG Version: 6.00 Build 0)  -->
<svg version="1.1" id="Calque_1" xmlns="http://www.w3.org/2000/svg" xmlns:xlink="http://www.w3.org/1999/xlink" x="0px" y="0px"
	 viewBox="0 0 288 332" style="enable-background:new 0 0 288 332;" xml:space="preserve">
<style type="text/css">
	.st0{fill:#FFFFFF;}
	.st1{opacity:0.9;}
	.st2{fill:#DDE9F7;}
	.st3{opacity:0.9;fill:#94C3EB;enable-background:new    ;}
	.st4{fill:#B1D1EF;}
	.st5{fill:#CBE0F5;}
	.st6{fill:#EBF2FB;}
	.st7{fill:none;}
	.st8{fill:#F9FCFE;}
	.st9{fill:none;stroke:#231F20;stroke-miterlimit:10;}
</style>
<g>
	<path class="st0" d="M101.4,198.6h11.6l7.3,21.4l7.3-21.4h11.7l-11,29.4l8.2,20.7l18.3-50.3h13.7L142,263.1h-10.6L120.2,236
		L109,263.1H98.5l-26.2-64.7h13.5l18.4,50.3l8-20.7L101.4,198.6z"/>
	<path class="st0" d="M182.2,198.4h11.1l24.6,64.7H205l-6-16.1h-22.6l-5.9,16.1h-12.9L182.2,198.4z M196.7,238.2l-8.9-25.4
		l-9.3,25.4H196.7z"/>
	<path class="st0" d="M120.8,277.6h-18.6v48.3H90.9v-48.3H72.3v-9.9h48.5V277.6z"/>
	<path class="st0" d="M166,316v9.9h-40.4v-58.2h39.7v9.9h-28.4v14h24.5v9.2h-24.5V316H166z"/>
	<path class="st0" d="M170.8,325.9v-58.2h25.8c2.7,0,5.2,0.6,7.4,1.7c2.3,1.1,4.2,2.6,5.9,4.4c1.6,1.8,2.9,3.9,3.9,6.2
		c0.9,2.3,1.4,4.7,1.4,7c0,3.8-0.9,7.2-2.8,10.3c-1.9,3.1-4.4,5.3-7.7,6.7l13.3,21.9h-12.7l-11.9-19.5h-11.2v19.5H170.8z
		 M182.1,296.4h14.2c1,0,2-0.2,2.9-0.7c0.9-0.5,1.7-1.2,2.3-2c0.7-0.8,1.2-1.8,1.6-3c0.4-1.1,0.6-2.4,0.6-3.7c0-1.4-0.2-2.6-0.7-3.8
		c-0.4-1.1-1-2.1-1.8-3s-1.6-1.5-2.5-2c-1-0.5-1.9-0.7-2.9-0.7h-13.7V296.4z"/>
</g>
<circle class="st0" cx="145.1" cy="89" r="88.3"/>
<g>
	<g>
		<g>
			<g>
				<g>
					<g class="st1">
						<g class="st1">
							<path class="st2" d="M189.7,93.6c-0.3-0.2-1.2-0.1-2.2,0.3c-1,0.4-2.2,1-3.4,1.7c-2.2,1.4-4.1,2.7-4.5,2.9
								c-0.6,0.2-1.1,0.6-1.8,1c-0.3,0.2-0.6,0.4-1,0.7c-0.3,0.3-0.7,0.5-1.1,0.8c-1.5,1.1-3.4,2.3-5.3,3.3c-3.8,2-7.7,3.2-7.8,2.9
								c0-0.5-1-1.6-2.2-2.7c-0.6-0.6-1.2-1.1-1.7-1.5c-0.6-0.4-1-0.7-1.4-0.7c-1.7-0.1-3.4-0.1-5.1,0.1c-1.7,0.2-3.4,0.6-5,1.1
								c-1.6,0.4-2,0.8-2.6,0.6c-0.3-0.1-1.3,1.5-3.6,1.8c-1.5,0.2-3.4-0.5-4.9-0.3c-1.4,0.1-4.3-0.3-7.1-0.9
								c-2.9-0.6-5.8-1.4-7.3-1.7c-5.9-1.4-8.7-2.6-12.7-5c-3-2-5.9-2.7-9.2-4.3c-1.8-0.8-3.4-1.4-4.9-1.9c-0.8-0.3-1.6-0.6-2.4-0.8
								c-0.8-0.3-1.7-0.6-2.7-0.8c-3.5-1.4-6.9-2.4-11-2.8c-0.6,0-1.1,0.1-1.5,0.2c-0.4,0.1-1.5,0-2,0.1c-0.8-0.1-1.7-0.2-2.4-0.3
								c-0.8-0.1-1.6-0.3-2.4-0.3C69.2,87,68.4,87,67.6,87H67l-0.6,0.1c-0.4,0.1-0.8,0.1-1.3,0.3c-0.9,0.2-2.2,0.8-1.8,1.2
								c0.9,0.8,2,1.5,3.3,2c0.3,0.1,0.6,0.3,0.9,0.4c0.3,0.1,0.6,0.3,1,0.4c0.6,0.3,1.3,0.6,2,0.8c0.6,0.2,1.3,0.5,2,0.6
								c0.7,0.1,1.4,0.3,2.2,0.3c1.5,0.3,3.1,0.4,4.7,0.8c0.6,0.1,1,0.3,1.5,0.4c0.5,0.2,1,0.4,1.4,0.7c0.9,0.5,1.7,1,2.3,1.7
								c0.7,0.6,1.3,1.3,1.7,2c0.5,0.7,0.9,1.5,1.3,2.2c0.4,1,0.7,2.3,1.3,3.5c0.6,1.2,1.4,2.1,3.1,2.7c4.1,1.3,8.4,1.7,12.3,4.4
								c2.7,2,5,3.7,8.1,5.5c0.4,0.3,2.2,1.4,2.8,1.7c2,0.7,4.1,1.7,6.1,2.4c2,0.7,4,1.1,5.7,0.8c4.7,0.9,6.9,2.2,11,1.9
								c2.6-0.3,5.1-0.7,7.8-1c2.6-0.3,5.3-0.7,8.1-0.9c3.2-0.3,6.2-0.5,9.4-0.6c0.6-0.1,1.9,0.1,3.3,0.4c0.7,0.1,1.4,0.2,2,0.3
								c0.6,0.1,1.1,0.1,1.5,0.2c2.5,0.3,5.9-1.4,7.8-3c1.5-1.3,2.9-2.7,4.4-4.1c1.5-1.4,3-2.9,4.5-4.4c1.1-1,2.4-1.5,3.6-2.4
								c2.6-2.4,3.4-4.5,5.6-6.2c2.1-1.3,3.8-2.1,5-2.7c1.3-0.6,2-1,2.4-1.2c1-0.5,0.7-0.6,0.9-0.6c1-0.2,1.7,0.7,3,0.7
								c0.9-0.1,1.8-0.3,2.7-0.5c0.8-0.3,1.5-0.6,2.2-0.9c3.6-1.7,8.3-3.1,13.1-2c-0.3-0.2-0.3-0.5-0.7-0.6
								c-3.4-0.8-6.3-1.7-9.5-2.4c-3.1-0.6-6.4-1-10.2-0.3c-0.3,0.1-0.8,0.3-1.2,0.4c-0.4,0.1-0.8,0.3-1.3,0.4
								c-0.8,0.1-1.5,0.3-2.2,0.6c-0.3,0.1-0.7,0.2-1,0.3c-0.3,0.1-0.7,0.3-1,0.4c-0.6,0.2-1.3,0.3-2.1,0.3c-0.8,0.1-1.7,0-2.5,0.1
								c-0.8,0-1.7-0.1-2.4-0.1C190.6,94,190,93.8,189.7,93.6z"/>
							<path class="st3" d="M79.6,93.8c-0.8-0.1-1.6-0.4-2.4-0.5c-0.8-0.1-1.5-0.2-2.3-0.3c-0.8-0.1-1.5-0.2-2.2-0.4
								c-0.7-0.1-1.4-0.4-2-0.6c-0.7-0.3-1.3-0.5-2-0.8c-0.3-0.1-0.6-0.3-1-0.4c-0.3-0.1-0.6-0.3-0.9-0.4c-1.3-0.6-2.4-1.2-3.3-2
								c-0.3-0.3,0.9-1,1.8-1.2c1.6-0.5,3.3-0.4,4.9-0.3c0.8,0,1.6,0.2,2.4,0.3c0.8,0.1,1.6,0.2,2.4,0.3c0.6,0,1.6,0.1,2-0.1
								c0.4-0.1,1-0.2,1.5-0.1c4.1,0.4,7.5,1.4,11,2.8c0.9,0.3,1.8,0.6,2.7,0.8c0.8,0.3,1.6,0.6,2.4,0.8c1.6,0.5,3.1,1.1,4.9,1.9
								c3.3,1.6,6.2,2.4,9.2,4.3c4.1,2.4,6.9,3.6,12.7,5c1.5,0.3,4.5,1.2,7.3,1.7c2.9,0.6,5.7,1,7.1,0.9c1.5-0.2,3.4,0.5,4.9,0.3
								c0,0,0.2,0.2,0.7,0.7c0.5,0.4,1.3,1.1,2.3,1.9c-9.2,0.8-19-0.3-28.7-2.1c-5.9-2.6-11.7-5.3-17.7-7.6
								c-1.5-0.6-2.9-1.1-4.5-1.6l-2.2-0.8l-2.2-0.7l-1.1-0.3L86.5,95c-0.8-0.2-1.5-0.3-2.2-0.6C82.7,94.3,81.1,94,79.6,93.8z"/>
							<path class="st4" d="M140.7,107.6c0,0,0.8,0,1.9-0.1c1.1-0.1,2.6-0.1,4-0.1c2.8,0,5.3,0.2,4.7,2c0,0-2.4,2.2-6.2,4
								c-3.7,1.8-8.7,3.1-12.4,2.1c0,0-0.3-0.1-0.8-0.2c-0.6-0.1-1.3-0.3-2.1-0.6c-1.7-0.5-3.6-1-5-1.5c0,0-1-0.8-2.8-1.7
								c-1.7-1-4.1-2.1-6.9-2.8c0,0-0.3-0.1-0.9-0.3c-0.6-0.2-1.4-0.5-2.4-0.8c-2-0.7-4.7-1.6-7.3-2.6c-2.7-1-5.3-2-7.3-2.7
								c-2-0.8-3.5-1.4-3.7-1.9c0,0-2-0.9-4.1-1.9c-2.2-1-4.6-2-5.6-2.7c0,0-0.6-0.8-1.8-1.7c-0.6-0.5-1.3-0.8-2.2-1.2
								c-0.8-0.3-1.7-0.6-2.7-0.6c0,0-0.7-0.2-1.7-0.6c-0.5-0.2-1.1-0.3-1.7-0.5c-0.6-0.1-1.2-0.3-1.8-0.5c-2.3-0.6-4-1.2-0.8-1.7
								c0,0,0.2-0.1,0.6-0.1c0.3-0.1,0.9-0.1,1.5-0.3c0.6-0.1,1.3-0.2,1.9-0.3s1.3-0.1,1.7-0.1c0,0,0.4,0.1,1.2,0.1s1.8,0.3,3.1,0.5
								c0.3,0.1,0.6,0.1,1,0.2c0.3,0.1,0.7,0.1,1,0.3c0.7,0.2,1.5,0.3,2.3,0.6c0.8,0.2,1.6,0.5,2.4,0.8c0.4,0.1,0.8,0.3,1.3,0.4
								c0.4,0.1,0.8,0.3,1.2,0.4c6.6,2.4,12.7,5.7,13.2,6.4c0,0,1.6,0.9,4.1,2.2s6,3.1,9.9,4.8c3.9,1.7,8.3,3.1,12.4,3.6
								C134,109.2,137.9,108.9,140.7,107.6z"/>
							<path class="st5" d="M141.4,106.6c0,0,0.6-0.1,1.3-0.3c0.8-0.2,2-0.4,3.1-0.6c2.4-0.3,5.2-0.3,7.1,1.2c0,0,2.9,1,5.5,2
								c0.6,0.2,1.3,0.5,1.9,0.8c0.6,0.3,1,0.5,1.5,0.8c0.8,0.6,0.9,1.2,0.1,1.9c0,0-0.2,0.1-0.6,0.5c-0.4,0.3-1,0.7-1.8,1.2
								c-1.6,1-3.9,2.2-6.9,3.3s-6.6,1.9-10.3,2.1c-3.8,0.3-7.8-0.1-11.4-1c0,0-0.3-0.1-1.2-0.2c-0.8-0.1-2-0.1-3.6,0.1
								c0,0-2-0.3-4.3-1s-4.9-2-6.1-3.5c0,0-0.5-0.3-1.3-1s-1.9-1.4-3.1-2.2c-2.4-1.7-5.2-3.6-7.1-4.2c0,0-0.6-0.7-1.5-1.4
								c-0.9-0.7-2.1-1.5-3.2-1.6c0,0,1.3,0.4,3.4,1c2,0.6,4.8,1.5,7.7,2.5c2.9,1,5.8,2.1,8.3,3.1c2.4,1,4.2,1.8,4.8,2.5
								c0,0,0.6,0.3,1.6,0.8s2.6,1.1,4.5,1.6c2,0.5,4.3,0.8,7,0.7c2.7-0.1,5.5-0.6,8.4-1.9c0,0,1-1.1,0.9-2.5
								C145.9,109.6,145,108,141.4,106.6z"/>
							<path class="st6" d="M148.3,102.6c0.6-0.3,1.3-0.6,2-0.8c0.6-0.3,1.3-0.6,2-0.8c0.7-0.1,1.7-0.1,2.5-0.2c0.5-0.1,1,0,1.5,0.1
								c0.5,0.1,1,0.2,1.3,0.3c1.7,0.7,4,0.8,6.2,0.8s4.3-0.1,6,0.3c0.6,0,0.9,0,1.4-0.1c0.1-0.1,0.6-0.5,0.6-0.6
								c1.4-0.7,2.8-1.3,3.9-2.2c0.4-0.4,0.9-0.7,1.4-1c0.5-0.3,1-0.6,1.7-0.9c1.2-0.6,2.6-1.2,4.1-1.7c1.6-0.7,3.6-1.8,5.7-2.6
								c0.9-0.3,1.6-0.4,2.3-0.5c0.7,0,1.3,0.1,1.8,0.2c1.1,0.2,2.2,0.5,3.8,0.1c2.5-0.5,4.8-1.3,7.1-2c2.3-0.6,4.6-1.1,7.1-1
								c2.9,0.3,5.5,0.6,8,1.3c1.9,0.7,3.9,1.3,5.9,2c0.5,0.1,1.6,1,1.5,1.3c-0.2,0.3-1.3,0-2,0.1c-1.9,0.2-2.8-0.9-4-1.4
								c-1.5-0.5-3.6-0.3-5.6-0.4c-0.8-0.1-1.5-0.3-2.2-0.6c-1.1-0.5-2.7,0-4.3,0.3c-1.9,0.6-4.1,0.1-6.1,0.6
								c-1.3,0.3-2.5,1-3.6,1.5c-0.3,0.1-0.6,0.3-0.8,0.4c-0.3,0.1-0.5,0.3-0.8,0.4c-0.5,0.3-1,0.4-1.7,0.6c0.5-0.1,0.3,0.1-0.3,0.4
								c-0.6,0.3-1.5,0.8-2.4,1.3c-1.9,1-3.6,2.1-2.8,1.4c-0.1,0.1-0.8,0.2-1.1,0c-0.1-0.1-0.3-0.3-0.2-0.5c0.8-1.5,0.1-2.3,0.1-3.4
								c-0.1,0-1.5,0.8-2.9,1.7c-1.5,0.9-3,1.9-4,2.2c-1.5,0.4-2.9,0.6-4.3,1.3c-0.3,0.3-0.2,0.8-0.6,1c-0.1,0.1-0.3,0.3-0.6,0.6
								c-0.1,0.1-0.3,0.3-0.5,0.5c-0.2,0.2-0.4,0.4-0.6,0.6c-0.9,0.9-2.2,2-3.7,3c-1.5,1-3,1.9-4.3,2.5c-0.6,0.3-1.3,0.6-1.7,0.7
								c-0.5,0.1-0.8,0.3-1,0.3c-0.9-0.1-2.1-0.6-2-1c0.1-1.3-1.5-1.7-2.2-2.7c-0.1-0.3,0.2-0.6,0.1-0.9c-0.5-0.8-1.4-1.5-2.3-1.7
								c-1.5-0.3-3.4-0.6-4.8-0.3C151.4,103,149.8,102.9,148.3,102.6z"/>
							<path class="st7" d="M95.3,108c0,0,0.4,0.1,1.1,0.2c0.7,0.1,1.7,0.4,2.9,0.8c2.4,0.8,5.5,2.3,8.2,4.8c0,0,1.3,0.8,2.7,1.7
								c1.5,0.9,3,1.9,3.7,2.1l1.7,1.2c0,0,2.2,1,4.8,1.9s5.5,1.5,6.6,1.1c0,0,1.2,0.3,2.5,0.6c1.3,0.3,2.7,0.6,3.1,0.8
								c0,0,1,0.3,2.6,0.5c1.6,0.1,3.9,0.2,6.6-0.5"/>
							<path class="st8" d="M176.9,97.5c0.6-0.3,2.2-1,4.3-2.2c2.1-1.1,4.7-2.3,5.9-2.6c3.9-1,7.6-1.3,11.2-1c0.3-0.1,0.8-0.1,1-0.3
								c1.9-1.3,4.5-1.3,6.4-1.9c0.8-0.2,1.6-0.6,2.6-0.7c5-0.1,9.4,1,13.3,2.6c1.7,0.7,3,1.6,4.5,2.4c0.3,0.2,0.8,0.5,0.7,0.7
								c0.1,0.2-0.7,0.1-1.1,0.1c-0.5-0.1-0.8-0.4-1.5-0.6c-1.1-0.4-2.5-0.6-3.6-1c-1.1-0.4-2-1-3.3-1.3c-0.8-0.2-1.6-0.3-2.5-0.3
								c-3.2-0.3-6.4-0.4-9.7,0.1c-1.2,0.8-3.2,0.7-4.8,1c-0.5,0.1-0.9,0.1-1.5,0.1c-1.4,0.3-2.7,1-3.8,1c-2.2-0.3-4.5-0.3-7.2,0.4
								c-1.1,0.3-3.7,1.4-5.9,2.4c-1,0.5-2.1,1-3,1.5c-0.8,0.4-1.5,0.7-1.8,0.8c-0.5,0.2-0.9,0.4-1.3,0.7c-0.2,0.1-0.4,0.3-0.6,0.4
								l-0.6,0.4c-0.4,0.3-0.8,0.6-1.3,0.8c-0.4,0.2-0.8,0.5-1.3,0.6c-0.1,0,0.1-0.5,0.8-1.3c0.1-0.2,0.3-0.4,0.6-0.6
								c0.2-0.2,0.5-0.4,0.8-0.7c0.3-0.2,0.7-0.5,1-0.7C176,98,176.5,97.8,176.9,97.5z"/>
						</g>
					</g>
				</g>
			</g>
		</g>
		<g>
			<g>
				<g>
					<g class="st1">
						<g class="st1">
							<path class="st2" d="M189.7,122.4c-0.3-0.2-1.2-0.1-2.2,0.3c-1,0.4-2.2,1-3.4,1.7c-2.2,1.4-4.1,2.7-4.5,2.9
								c-0.6,0.2-1.1,0.6-1.8,1c-0.3,0.2-0.6,0.4-1,0.7c-0.3,0.3-0.7,0.5-1.1,0.8c-1.5,1.1-3.4,2.3-5.3,3.3c-3.8,2-7.7,3.2-7.8,2.9
								c0-0.5-1-1.6-2.2-2.7c-0.6-0.6-1.2-1.1-1.7-1.5c-0.6-0.4-1-0.7-1.4-0.7c-1.7-0.1-3.4-0.1-5.1,0.1c-1.7,0.2-3.4,0.6-5,1.1
								c-1.6,0.4-2,0.8-2.6,0.6c-0.3-0.1-1.3,1.5-3.6,1.8c-1.5,0.2-3.4-0.5-4.9-0.3c-1.4,0.1-4.3-0.3-7.1-0.9s-5.8-1.4-7.3-1.7
								c-5.9-1.4-8.7-2.6-12.7-5c-3-2-5.9-2.7-9.2-4.3c-1.8-0.8-3.4-1.4-4.9-1.9c-0.8-0.3-1.6-0.6-2.4-0.8c-0.8-0.3-1.7-0.6-2.7-0.8
								c-3.5-1.4-6.9-2.4-11-2.8c-0.6,0-1.1,0.1-1.5,0.2c-0.4,0.1-1.5,0-2,0.1c-0.8-0.1-1.7-0.2-2.4-0.3c-0.8-0.1-1.6-0.3-2.4-0.3
								c-0.8-0.1-1.6-0.1-2.4-0.1H67l-0.6,0.1c-0.4,0.1-0.8,0.1-1.3,0.3c-0.9,0.2-2.2,0.8-1.8,1.2c0.9,0.8,2,1.5,3.3,2
								c0.3,0.1,0.6,0.3,0.9,0.4c0.3,0.1,0.6,0.3,1,0.4c0.6,0.3,1.3,0.6,2,0.8c0.6,0.2,1.3,0.5,2,0.6c0.7,0.1,1.4,0.3,2.2,0.3
								c1.5,0.3,3.1,0.4,4.7,0.8c0.6,0.1,1,0.3,1.5,0.4c0.5,0.2,1,0.4,1.4,0.7c0.9,0.5,1.7,1,2.3,1.7c0.7,0.6,1.3,1.3,1.7,2
								c0.5,0.7,0.9,1.5,1.3,2.2c0.4,1,0.7,2.3,1.3,3.5c0.6,1.2,1.4,2.1,3.1,2.7c4.1,1.3,8.4,1.7,12.3,4.4c2.7,2,5,3.7,8.1,5.5
								c0.4,0.3,2.2,1.4,2.8,1.7c2,0.7,4.1,1.7,6.1,2.4c2,0.7,4,1.1,5.7,0.8c4.7,0.9,6.9,2.2,11,1.9c2.6-0.3,5.1-0.7,7.8-1
								c2.6-0.3,5.3-0.7,8.1-0.9c3.2-0.3,6.2-0.5,9.4-0.6c0.6-0.1,1.9,0.1,3.3,0.4c0.7,0.1,1.4,0.2,2,0.3c0.6,0.1,1.1,0.1,1.5,0.2
								c2.5,0.3,5.9-1.4,7.8-3c1.5-1.3,2.9-2.7,4.4-4.1c1.5-1.4,3-2.9,4.5-4.4c1.1-1,2.4-1.5,3.6-2.4c2.6-2.4,3.4-4.5,5.6-6.2
								c2.1-1.3,3.8-2.1,5-2.7c1.3-0.6,2-1,2.4-1.2c1-0.5,0.7-0.6,0.9-0.6c1-0.2,1.7,0.7,3,0.7c0.9-0.1,1.8-0.3,2.7-0.5
								c0.8-0.3,1.5-0.6,2.2-0.9c3.6-1.7,8.3-3.1,13.1-2c-0.3-0.2-0.3-0.5-0.7-0.6c-3.4-0.8-6.3-1.7-9.5-2.4
								c-3.1-0.6-6.4-1-10.2-0.3c-0.3,0.1-0.8,0.3-1.2,0.4c-0.4,0.1-0.8,0.3-1.3,0.4c-0.8,0.1-1.5,0.3-2.2,0.6
								c-0.3,0.1-0.7,0.2-1,0.3c-0.3,0.1-0.7,0.3-1,0.4c-0.6,0.2-1.3,0.3-2.1,0.3c-0.8,0.1-1.7,0-2.5,0.1c-0.8,0-1.7-0.1-2.4-0.1
								C190.6,122.7,190,122.6,189.7,122.4z"/>
							<path class="st3" d="M79.6,122.6c-0.8-0.1-1.6-0.4-2.4-0.5c-0.8-0.1-1.5-0.2-2.3-0.3c-0.8-0.1-1.5-0.2-2.2-0.4
								c-0.7-0.1-1.4-0.4-2-0.6c-0.7-0.3-1.3-0.5-2-0.8c-0.3-0.1-0.6-0.3-1-0.4c-0.3-0.1-0.6-0.3-0.9-0.4c-1.3-0.6-2.4-1.2-3.3-2
								c-0.3-0.3,0.9-1,1.8-1.2c1.6-0.5,3.3-0.4,4.9-0.3c0.8,0,1.6,0.2,2.4,0.3c0.8,0.1,1.6,0.2,2.4,0.3c0.6,0,1.6,0.1,2-0.1
								c0.4-0.1,1-0.2,1.5-0.1c4.1,0.4,7.5,1.4,11,2.8c0.9,0.3,1.8,0.6,2.7,0.8c0.8,0.3,1.6,0.6,2.4,0.8c1.6,0.5,3.1,1.1,4.9,1.9
								c3.3,1.6,6.2,2.4,9.2,4.3c4.1,2.4,6.9,3.6,12.7,5c1.5,0.3,4.5,1.2,7.3,1.7c2.9,0.6,5.7,1,7.1,0.9c1.5-0.2,3.4,0.5,4.9,0.3
								c0,0,0.2,0.2,0.7,0.7c0.5,0.4,1.3,1.1,2.3,1.9c-9.2,0.8-19-0.3-28.7-2.1c-5.9-2.6-11.7-5.3-17.7-7.6
								c-1.5-0.6-2.9-1.1-4.5-1.6l-2.2-0.8l-2.2-0.7l-1.1-0.3l-1.1-0.3c-0.8-0.2-1.5-0.3-2.2-0.6C82.7,123.1,81.1,122.7,79.6,122.6z
								"/>
							<path class="st4" d="M140.7,136.3c0,0,0.8,0,1.9-0.1c1.1-0.1,2.6-0.1,4-0.1c2.8,0,5.3,0.2,4.7,2c0,0-2.4,2.2-6.2,4
								c-3.7,1.8-8.7,3.1-12.4,2.1c0,0-0.3-0.1-0.8-0.2c-0.6-0.1-1.3-0.3-2.1-0.6c-1.7-0.5-3.6-1-5-1.5c0,0-1-0.8-2.8-1.7
								c-1.7-1-4.1-2.1-6.9-2.8c0,0-0.3-0.1-0.9-0.3c-0.6-0.2-1.4-0.5-2.4-0.8c-2-0.7-4.7-1.6-7.3-2.6s-5.3-2-7.3-2.7
								s-3.5-1.4-3.7-1.9c0,0-2-0.9-4.1-1.9c-2.2-1-4.6-2-5.6-2.7c0,0-0.6-0.8-1.8-1.7c-0.6-0.5-1.3-0.8-2.2-1.2
								c-0.8-0.3-1.7-0.6-2.7-0.6c0,0-0.7-0.2-1.7-0.6c-0.5-0.2-1.1-0.3-1.7-0.5c-0.6-0.1-1.2-0.3-1.8-0.5c-2.3-0.6-4-1.2-0.8-1.7
								c0,0,0.2-0.1,0.6-0.1c0.3-0.1,0.9-0.1,1.5-0.3c0.6-0.1,1.3-0.2,1.9-0.3c0.6-0.1,1.3-0.1,1.7-0.1c0,0,0.4,0.1,1.2,0.1
								c0.8,0.1,1.8,0.3,3.1,0.5c0.3,0.1,0.6,0.1,1,0.2c0.3,0.1,0.7,0.1,1,0.3c0.7,0.2,1.5,0.3,2.3,0.6c0.8,0.2,1.6,0.5,2.4,0.8
								c0.4,0.1,0.8,0.3,1.3,0.4c0.4,0.1,0.8,0.3,1.2,0.4c6.6,2.4,12.7,5.7,13.2,6.4c0,0,1.6,0.9,4.1,2.2s6,3.1,9.9,4.8
								c3.9,1.7,8.3,3.1,12.4,3.6C134,138,137.9,137.7,140.7,136.3z"/>
							<path class="st5" d="M141.4,135.4c0,0,0.6-0.1,1.3-0.3c0.8-0.2,2-0.4,3.1-0.6c2.4-0.3,5.2-0.3,7.1,1.2c0,0,2.9,1,5.5,2
								c0.6,0.2,1.3,0.5,1.9,0.8c0.6,0.3,1,0.5,1.5,0.8c0.8,0.6,0.9,1.2,0.1,1.9c0,0-0.2,0.1-0.6,0.5c-0.4,0.3-1,0.7-1.8,1.2
								c-1.6,1-3.9,2.2-6.9,3.3c-3,1-6.6,1.9-10.3,2.1c-3.8,0.3-7.8-0.1-11.4-1c0,0-0.3-0.1-1.2-0.2c-0.8-0.1-2-0.1-3.6,0.1
								c0,0-2-0.3-4.3-1c-2.3-0.8-4.9-2-6.1-3.5c0,0-0.5-0.3-1.3-1c-0.8-0.6-1.9-1.4-3.1-2.2c-2.4-1.7-5.2-3.6-7.1-4.2
								c0,0-0.6-0.7-1.5-1.4c-0.9-0.7-2.1-1.5-3.2-1.6c0,0,1.3,0.4,3.4,1c2,0.6,4.8,1.5,7.7,2.5c2.9,1,5.8,2.1,8.3,3.1
								c2.4,1,4.2,1.8,4.8,2.5c0,0,0.6,0.3,1.6,0.8c1,0.5,2.6,1.1,4.5,1.6c2,0.5,4.3,0.8,7,0.7c2.7-0.1,5.5-0.6,8.4-1.9
								c0,0,1-1.1,0.9-2.5C145.9,138.4,145,136.8,141.4,135.4z"/>
							<path class="st6" d="M148.3,131.5c0.6-0.3,1.3-0.6,2-0.8c0.6-0.3,1.3-0.6,2-0.8c0.7-0.1,1.7-0.1,2.5-0.2c0.5-0.1,1,0,1.5,0.1
								s1,0.2,1.3,0.3c1.7,0.7,4,0.8,6.2,0.8s4.3-0.1,6,0.3c0.6,0,0.9,0,1.4-0.1c0.1-0.1,0.6-0.5,0.6-0.6c1.4-0.7,2.8-1.3,3.9-2.2
								c0.4-0.4,0.9-0.7,1.4-1c0.5-0.3,1-0.6,1.7-0.9c1.2-0.6,2.6-1.2,4.1-1.7c1.6-0.7,3.6-1.8,5.7-2.6c0.9-0.3,1.6-0.4,2.3-0.5
								c0.7,0,1.3,0.1,1.8,0.2c1.1,0.2,2.2,0.5,3.8,0.1c2.5-0.5,4.8-1.3,7.1-2c2.3-0.6,4.6-1.1,7.1-1c2.9,0.3,5.5,0.6,8,1.3
								c1.9,0.7,3.9,1.3,5.9,2c0.5,0.1,1.6,1,1.5,1.3c-0.2,0.3-1.3,0-2,0.1c-1.9,0.2-2.8-0.9-4-1.4c-1.5-0.5-3.6-0.3-5.6-0.4
								c-0.8-0.1-1.5-0.3-2.2-0.6c-1.1-0.5-2.7,0-4.3,0.3c-1.9,0.6-4.1,0.1-6.1,0.6c-1.3,0.3-2.5,1-3.6,1.5
								c-0.3,0.1-0.6,0.3-0.8,0.4c-0.3,0.1-0.5,0.3-0.8,0.4c-0.5,0.3-1,0.4-1.7,0.6c0.5-0.1,0.3,0.1-0.3,0.4
								c-0.6,0.3-1.5,0.8-2.4,1.3c-1.9,1-3.6,2.1-2.8,1.4c-0.1,0.1-0.8,0.2-1.1,0c-0.1-0.1-0.3-0.3-0.2-0.5c0.8-1.5,0.1-2.3,0.1-3.4
								c-0.1,0-1.5,0.8-2.9,1.7s-3,1.9-4,2.2c-1.5,0.4-2.9,0.6-4.3,1.3c-0.3,0.3-0.2,0.8-0.6,1c-0.1,0.1-0.3,0.3-0.6,0.6
								c-0.1,0.1-0.3,0.3-0.5,0.5c-0.2,0.2-0.4,0.4-0.6,0.6c-0.9,0.9-2.2,2-3.7,3c-1.5,1-3,1.9-4.3,2.5c-0.6,0.3-1.3,0.6-1.7,0.7
								s-0.8,0.3-1,0.3c-0.9-0.1-2.1-0.6-2-1c0.1-1.3-1.5-1.7-2.2-2.7c-0.1-0.3,0.2-0.6,0.1-0.9c-0.5-0.8-1.4-1.5-2.3-1.7
								c-1.5-0.3-3.4-0.6-4.8-0.3C151.4,131.8,149.8,131.7,148.3,131.5z"/>
							<path class="st7" d="M95.3,136.7c0,0,0.4,0.1,1.1,0.2s1.7,0.4,2.9,0.8c2.4,0.8,5.5,2.3,8.2,4.8c0,0,1.3,0.8,2.7,1.7
								c1.5,0.9,3,1.9,3.7,2.1l1.7,1.2c0,0,2.2,1,4.8,1.9s5.5,1.5,6.6,1.1c0,0,1.2,0.3,2.5,0.6c1.3,0.3,2.7,0.6,3.1,0.8
								c0,0,1,0.3,2.6,0.5c1.6,0.1,3.9,0.2,6.6-0.5"/>
							<path class="st8" d="M176.9,126.3c0.6-0.3,2.2-1,4.3-2.2c2.1-1.1,4.7-2.3,5.9-2.6c3.9-1,7.6-1.3,11.2-1
								c0.3-0.1,0.8-0.1,1-0.3c1.9-1.3,4.5-1.3,6.4-1.9c0.8-0.2,1.6-0.6,2.6-0.7c5-0.1,9.4,1,13.3,2.6c1.7,0.7,3,1.6,4.5,2.4
								c0.3,0.2,0.8,0.5,0.7,0.7c0.1,0.2-0.7,0.1-1.1,0.1c-0.5-0.1-0.8-0.4-1.5-0.6c-1.1-0.4-2.5-0.6-3.6-1c-1.1-0.4-2-1-3.3-1.3
								c-0.8-0.2-1.6-0.3-2.5-0.3c-3.2-0.3-6.4-0.4-9.7,0.1c-1.2,0.8-3.2,0.7-4.8,1c-0.5,0.1-0.9,0.1-1.5,0.1c-1.4,0.3-2.7,1-3.8,1
								c-2.2-0.3-4.5-0.3-7.2,0.4c-1.1,0.3-3.7,1.4-5.9,2.4c-1,0.5-2.1,1-3,1.5c-0.8,0.4-1.5,0.7-1.8,0.8c-0.5,0.2-0.9,0.4-1.3,0.7
								c-0.2,0.1-0.4,0.3-0.6,0.4l-0.6,0.4c-0.4,0.3-0.8,0.6-1.3,0.8s-0.8,0.5-1.3,0.6c-0.1,0,0.1-0.5,0.8-1.3
								c0.1-0.2,0.3-0.4,0.6-0.6c0.2-0.2,0.5-0.4,0.8-0.7c0.3-0.2,0.7-0.5,1-0.7C176,126.8,176.5,126.6,176.9,126.3z"/>
						</g>
					</g>
				</g>
			</g>
		</g>
		<g>
			<g>
				<g>
					<g class="st1">
						<g class="st1">
							<path class="st2" d="M151.1,53.5c-0.7,0.3-0.9,1.1-1.1,2c-0.2,0.9-0.3,1.9-0.6,2.2c-0.3,0.6-0.3,1.4-0.3,2.6
								c0,1.2,0.1,2.8,0.3,4c0.3,2.4,0.3,3.8,0.1,3.7c-0.4-0.2-1.7-0.3-2.9-0.9l-0.4-0.2c-0.1-0.1-0.2-0.1-0.3-0.1
								c0,0,0.1,0,0.1,0.1c0.1,0.1,0.2,0.1,0.3,0.2c0.5,0.4,1.3,1.3,1.7,2.2c0.2,0.4,0.3,0.7,0.3,0.8V70v0.1l0,0v-0.3
								c0-0.1,0-0.2,0-0.3v-0.5c0.1-0.7,0.1-1.4,0.3-2c0-0.1,0.1-0.3,0.1-0.4v0.1l0,0c-0.1-0.1-0.4,1.6-1.7,2.1
								c-0.4,0.1-0.9,0-1.4-0.1s-0.8-0.1-1,0.1c-0.1,0.1-0.3,0.1-0.3,0.2c-0.1,0.1-0.1,0.1-0.1,0.1c-0.1,0.1-0.1,0.2-0.2,0.3
								l0.1-0.1c-0.1,0.1-0.1,0.1-0.3,0.1s-0.3-0.1-0.4-0.1c-0.3-0.2-0.6-0.7-0.8-1.2c-0.2-0.5-0.4-1-0.6-1.4
								c-0.1-0.3-0.2-0.7-0.3-1c-0.1-0.3-0.1-0.7-0.2-1c-0.1-0.6-0.1-1.2-0.1-1.7c0-0.6,0.1-1.1,0.2-1.6c0.1-0.6,0.3-1.1,0.6-1.7
								c0.9-1.7,0.8-3.4,1.4-5.2c0.6-1.9,0.8-3.4,1.6-5.2c1-1.7,1.7-3.3,2.4-5.2c0.1-0.3,0.1-0.6,0-0.8c-0.1-0.3,0.1-0.7,0.2-1
								c0.9-1.5,2.3-2.6,2.7-4.2c0.1-0.4,0-1.3-0.4-1.3c-2.1-0.1-3.9,0.6-5.7,1.5c-1.6,0.9-2.3,2.7-3.3,4.3
								c-1.3,2.4-4.1,3.4-6.7,4.1c-2,0.4-4.9,0.3-5.5,2.9c-0.3,1.5-0.2,3-0.2,4.5c0,0.8-0.1,1.5-0.1,2.2c-0.1,0.8-0.3,1.5-0.6,2.2
								c-1,2.2-1.8,3.9-2.2,6.4c-0.1,0.1-0.2,0.6-0.3,1c-0.1,0.5-0.2,1.1-0.2,1.4c0.1,1.8,0.2,4.1,1.1,6.9c0.4,1.3,1.1,2.8,2,4.1
								c0.9,1.3,2.1,2.3,3.3,2.9c0.8,0.7,1.5,1.3,2.2,1.7c0.7,0.5,1.3,0.8,1.8,1.1c1,0.6,1.8,0.9,2.4,1.2c0.6,0.2,0.9,0.3,1.5,0.4
								c0.5,0.1,1.1,0.1,2,0.1c2-0.1,4.8-0.2,7.8-1c1.5-0.4,3-1.1,4.3-1.9c1.3-0.8,2.4-1.6,3.4-2.5c2.2-2.1,3.6-4.1,5-6.4
								c0.2-0.3,1-1.1,1.7-1.9s1.5-1.5,1.9-1.9c0.6-0.7,0.9-1.6,0.9-2.5c0-0.9-0.2-1.7-0.5-2.4c-0.6-1-1-1.9-1.5-2.9
								c-0.4-1-0.7-2.1-1-3.4c-0.1-0.8,0.4-1.7,0.4-2.7c-0.1-1.2-0.6-2.3-1.1-3.3c-0.6-1-1.1-1.9-1.7-2.9c-0.8-2-1.7-3-2.2-3.8
								c-0.6-0.8-1-1.1-1.3-1.3c-0.6-0.4-0.7-0.2-0.7-0.3c-0.3-0.6,0.3-1.3,0.1-2.2c-0.5-1-1.6-1.7-2.5-2c-2.6-1-5.3-2-6.6-4.5
								c-0.1,0.3-0.2,0.5-0.1,0.6c0.8,1.8,1.3,3.6,1.7,5.3c0.5,1.7,1,3.4,2,4.9c0.3,0.2,0.7,0.6,1,0.9c0.4,0.7,0.8,1.3,1.2,1.8
								c0.3,0.6,0.1,1.5-0.5,2.3C152.5,52.7,151.7,53.3,151.1,53.5z"/>
							<path class="st3" d="M140.8,42.6c1-1.7,1.6-3.4,3.3-4.3c1.7-1,3.6-1.6,5.7-1.5c0.4,0,0.5,0.8,0.4,1.3
								c-0.4,1.6-1.9,2.7-2.7,4.2c-0.1,0.3-0.3,0.8-0.2,1c0.1,0.2,0.1,0.6,0,0.8c-0.7,2-1.5,3.6-2.4,5.2c-0.8,1.9-1,3.4-1.6,5.2
								c-0.7,1.8-0.6,3.4-1.4,5.2c-0.3,0.6-0.4,1.1-0.6,1.7c-0.1,0.6-0.2,1-0.2,1.6c0,0.6,0.1,1.1,0.1,1.7c0.1,0.6,0.3,1.4,0.6,2
								c0.3,0.7,0.8,2.2,1.4,2.6c0.1,0.1,0.3,0.1,0.4,0.1c0.1,0,0.1,0,0.1-0.1c0.1,0,0.1-0.1,0.1-0.1l-0.1,0.1
								c0.1-0.1,0.1-0.1,0.2-0.3c0-0.1,0.1-0.1,0.1-0.1c0.1-0.1,0.2-0.1,0.3-0.2c0.3-0.2,0.6-0.2,1-0.1c0.5,0.1,1,0.2,1.3,0.1
								c0,0,0.1,0.2,0.1,0.6c0.1,0.3,0.3,1,0.5,1.6c-0.8,0.4-2.2,0.5-3.6,0.6c-1.3,0.1-2.2,0.3-3.2-0.2c-1-0.6-2-1.7-2.7-3
								c-0.3-0.6-0.7-1.3-1-2c-0.3-0.7-0.6-1.4-0.8-2.1C136.5,56.7,138.5,49.4,140.8,42.6z"/>
							<path class="st4" d="M146.3,70.3c0,0,0.4-0.1,0.9-0.2c0.5-0.1,0.9-0.3,1-0.6c0,0,0-0.2,0,0.1v0.1V70l0,0v-0.1
								c0-0.1-0.1-0.2-0.1-0.3c0-0.1,0,0,0,0l0.1,0.1c0.1,0.1,0.1,0.2,0.1,0.3c0.1,0.2,0.3,0.6,0.4,1c0,0,0.1,0.1,0.1,0.4
								c0.1,0.3,0.1,0.6,0.1,1.1c0,0.9-0.3,2.2-1.5,3.3c-1,1-2.7,1.8-4.1,2.2c-0.8,0.2-1.4,0.3-2,0.3c-0.6,0-1.3-0.1-2.1-0.5
								c0,0-0.3-0.1-0.7-0.4c-0.4-0.3-1-0.7-1.7-1.3c-0.6-0.6-1.3-1.4-1.7-2.1c-0.4-0.8-0.8-1.5-1-2c0,0,0-1.2,0.1-2.7
								s0.2-3.1-0.2-4.8c0,0,0-0.2-0.1-0.6c-0.1-0.3-0.1-0.9-0.1-1.5c-0.1-1.3-0.1-3-0.1-4.8c0.1-3.5,0.8-7,1.6-7.3
								c0,0,0.5-1.3,1.3-2.6c0.7-1.3,1.6-2.7,2.3-3.2c0,0,0.8-0.3,1.6-0.8c0.8-0.5,1.7-1.3,2-2.4c0,0,1.3-1.3,2.4-2.3
								c1.1-0.9,2.2-1.4,1.7,0.3c0,0-0.1,2.1-0.3,3.1c0,0-1.5,3.3-3,6.7c-0.7,1.7-1.5,3.4-2,4.8c-0.6,1.4-1,2.4-1.3,2.5
								c0,0-0.1,0.2-0.3,0.6c-0.1,0.4-0.4,1-0.6,1.8c-0.4,1.5-0.8,3.7-0.9,6.1c0,1.2,0.1,2.4,0.4,3.6c0.3,1.2,1,2.2,1.8,2.8
								c0.8,0.6,1.7,0.5,2.7,0.3C144.2,71.5,145.5,71.1,146.3,70.3z"/>
							<path class="st5" d="M146.9,69.5c0,0,0.3-0.1,0.6-0.4c0.3-0.2,0.8-0.6,0.8-0.9l-0.1,0.4l-0.1,0.4c0,0.3,0,0.5,0,0.7
								c0,0.1,0,0.1,0,0.2v0.2l0,0l0,0l0,0l0,0l0,0l0,0c0,0,0-0.1,0-0.1c0-0.1-0.1-0.2-0.1-0.3s-0.1-0.2-0.1-0.3
								c-0.1-0.1-0.1-0.2-0.1-0.3c0-0.1-0.1-0.1-0.1-0.2l-0.1-0.1l0,0l0,0l0.1,0.1c0,0,0.1,0.1,0.1,0.1c0.1,0.1,0.2,0.1,0.3,0.3
								c0.3,0.2,0.9,0.3,1.6,0.4c0.7,0.1,1.5,0,2.2,0s1.3,0.2,1.6,0.9c0,0,0.1,0.1,0.2,0.5c0.1,0.3,0.3,0.8,0.3,1.4
								c0.1,1.2,0.2,3.1-1,5.2c-0.6,1-1.6,2.2-3.1,2.9c-1.5,0.8-3.3,1.2-4.9,1.3c-1.6,0.1-3-0.1-4.2-0.2c-0.6-0.1-1-0.1-1.7-0.3
								c-0.7-0.2-1.5-0.6-2.4-1.1c0,0-0.1-0.1-0.3-0.2c-0.2-0.1-0.6-0.3-1-0.6c-0.9-0.6-2.3-1.4-4-2.8c0,0-0.4-0.6-1-1.4
								c-0.5-0.9-1.1-2.1-1.5-3.4c-0.7-2.5-0.6-4.8,0.3-6c0,0,0.1-0.3,0.4-1s0.6-1.4,1-2.3c0.7-1.8,1.5-3.8,1.5-5c0,0,0.4-0.5,0.8-1
								c0.4-0.6,0.8-1.4,0.6-2.2c0,0,0,0.2,0,0.6s0,1,0,1.6c0,1.3,0.1,3.1,0.1,5c0.1,0.9,0.1,1.9,0.1,2.7c0.1,0.9,0.1,1.7,0.1,2.6
								c0.1,1.7,0.1,3.1-0.1,3.8c0,0-0.1,0.6,0.2,1.5c0.1,0.5,0.3,1.1,0.7,1.8s0.9,1.5,1.7,2.2c0.8,0.7,1.8,1.3,2.7,1.5
								c0.9,0.3,1.7,0.3,2.5,0.2c0.8-0.1,1.7-0.2,2.7-0.5c1-0.3,2-0.8,2.8-1.5c0,0,0.1-0.3,0.3-0.8c0.1-0.5,0.2-1.1,0.2-1.8
								s-0.1-1.5-0.1-2.1C147.6,70.6,147.5,70,146.9,69.5z"/>
							<path class="st6" d="M148.2,69.7v0.1l0,0v0.2l0,0l0,0l0,0l0,0l0,0l0,0V70C148.2,69.9,148.2,69.9,148.2,69.7
								c-0.1-0.1-0.1-0.3-0.3-0.6c-0.1-0.3-0.5-0.8-0.8-1.2c-0.4-0.5-0.8-0.9-1-1c-0.2-0.2-0.3-0.2-0.1-0.1l0,0l0,0l0,0l0,0
								c1.6,0.8-2.2-1-1.8-0.9l0,0l0,0h0.1h0.1c0.1,0,0.1,0,0.2,0c0.1,0,0.3-0.1,0.4-0.1c0.6-0.3,1.3-1.2,2.4-1.9
								c0.3-0.3,0.4-0.5,0.5-0.8c-0.1-0.1-0.1-0.5-0.2-0.6c0.1-1.1,0.3-2.1,0.2-3c-0.2-1.5,0.6-2.6,1.5-3.6c0.4-0.6,0.7-1.3,0.9-2
								c0.4-1,2.6-1.8,2.4-3.2c-0.1-1.1-0.8-2.1-1.5-2.9c-0.8-0.9-1.5-1.7-2-2.9c-0.4-1.4-1-2.6-1.3-4.1c-0.1-1.2-0.5-2.3-0.8-3.6
								c-0.1-0.3,0.1-1.3,0.2-1.4c0.3-0.1,0.6,0.5,1,0.7c1,0.6,0.5,1.7,0.6,2.5c0.2,1,1,1.7,1.6,2.7c0.1,0.4,0.1,0.8,0.1,1.4
								c-0.1,0.8,0.6,1.3,1.3,1.9c0.8,0.7,0.7,2,1.3,2.9c0.3,0.6,0.9,1,1.4,1.5s0.8,1,0.8,1.6c0.1-0.6,0.5,0.4,0.7,1.5
								c0.2,1,0.1,2.1-0.1,1.6c0.1,0.1-0.3,0.4-0.6,0.5c-0.2,0-0.5,0.1-0.6,0c-0.8-0.6-1.8-0.3-2.8-0.4c-0.1,0.1,0,0.6-0.1,1.3
								c-0.1,0.7-0.3,1.5-0.7,2c-0.7,0.7-1.4,1.3-1.6,2.2c0.1,0.3,0.5,0.4,0.5,0.7c0,0.1,0.1,0.7,0.4,1.5c0.3,0.8,0.6,2,0.9,2.9
								c0.3,1,0.6,2,0.7,2.7c0.1,0.7,0.1,1.3,0,1.4c-0.3,0.3-1.1,0.4-1.5,0.1c-0.6-0.3-1-0.4-1.5-0.5c-0.4-0.1-0.8-0.2-1.3-0.5
								c-0.3-0.1-0.6-0.3-0.8-0.5c-0.3-0.2-0.7-0.3-1-0.6c0,0,0.1,0.1,0.2,0.1c0.2,0.1,0.5,0.4,0.8,0.8c0.3,0.3,0.6,0.8,0.8,1.1
								c0.2,0.3,0.3,0.7,0.4,0.9c0.1,0.1,0.1,0.2,0.1,0.3v0.1l0,0l0,0l0,0l0,0l0,0l0,0l0,0c0,0.1,0-0.2,0-0.2l0,0L148.2,69.7z"/>
							<path class="st7" d="M128.4,51.7c0,0,0.1,0.3,0.1,0.8c0,0.5,0,1.3-0.1,2.1c-0.2,1.7-0.6,4-2,6.2c0,0-0.3,1-0.7,2.1
								s-0.6,2.4-0.6,2.9c-0.1,0.5-0.3,1-0.4,1.7c0,0,0,0.1,0,0.3s0,0.6,0.1,1c0.1,0.9,0.2,2.2,0.6,3.8c0.4,1.6,1.2,3.5,2.3,5.2
								c1.1,1.6,2.4,2.8,3.3,3.1c0,0,0.4,0.3,1,0.9c0.6,0.6,1.5,1.2,2.4,1.6c0.8,0.5,1.6,0.8,2.1,1c0.6,0.3,0.8,0.4,1,0.6
								c0,0,0.1,0,0.1,0.1c0.1,0.1,0.2,0.1,0.3,0.1c0.3,0.1,0.6,0.2,1,0.3c0.5,0.1,1.1,0.1,2,0.1c0.9,0,2-0.1,3.4-0.3"/>
							<path class="st8" d="M146.9,58.2c0.1-0.3,0.6-1.2,1-2c0.4-0.8,0.9-1.5,1.3-1.9c0.5-0.6,1-1.1,1.3-1.8c0.4-0.7,0.7-1.5,1-2.4
								c0-0.1-0.1-0.3-0.2-0.4c-1.1-0.5-1.3-1.7-2-2.4c-0.3-0.3-0.8-0.4-1-0.8c-1-2.1-1.5-4.3-1.8-6.9c-0.1-1,0-2.2-0.1-3.3
								c0.1-0.3,0-0.6,0.2-0.8c0.1-0.1,0.3,0.2,0.6,0.3c0.1,0.3,0.1,0.6,0.1,1c0.1,0.7,0.6,1.3,0.7,2c0.1,0.7,0.1,1.4,0.2,2.2
								c0.1,0.5,0.3,0.8,0.6,1.3c0.7,1.5,1.4,3,2.3,4.3c0.9,0.2,1,1.3,1.3,2c0.1,0.2,0.1,0.5,0.1,0.8c0.2,0.6,0.8,1.1,0.4,1.7
								c-0.7,1.2-1.5,2.1-2.2,2.9c-0.3,0.3-0.7,1.3-1.3,2.2c-0.5,0.9-1,1.9-1.2,2.3c-0.5,1.1-0.1,2.4-0.5,3.8c0,0.1-0.4-0.2-0.7-0.9
								C146.7,60.6,146.5,59.5,146.9,58.2z"/>
						</g>
					</g>
				</g>
			</g>
		</g>
	</g>
	<path class="st9" d="M226,92.2c0,0-17.5-0.5-30.2,6.2c-12.7,6.7-18.2,9.9-18.2,9.9s-15.8,8.6-32,8.6s-32-8.6-32-8.6
		s-5.5-3.1-18.2-9.9c-12.7-6.7-30.2-6.2-30.2-6.2"/>
	<path class="st9" d="M226,119c0,0-17.5-0.5-30.2,6.2c-12.7,6.7-18.2,9.9-18.2,9.9s-15.9,8.6-32,8.6s-32-8.6-32-8.6
		s-5.5-3.1-18.2-9.9c-12.7-6.7-30.2-6.2-30.2-6.2"/>
	<path class="st9" d="M145.5,25.3c0,0-9.2,10.3-16.2,25.2c-7,14.8-5.2,20.4-5.2,20.4c0.2,1.9,0.6,3.6,1,5.2
		c6.4,20.3,34.5,20.3,40.8,0c0.5-1.5,0.8-3.3,1-5.2c0,0,1.7-5.5-5.2-20.4C154.8,35.7,145.5,25.3,145.5,25.3z"/>
</g>
</svg>
