<?xml version="1.0" encoding="utf-8"?>
<!-- Generator: Adobe Illustrator 22.1.0, SVG Export Plug-In . SVG Version: 6.00 Build 0)  -->
<svg version="1.1" id="Calque_1" xmlns="http://www.w3.org/2000/svg" xmlns:xlink="http://www.w3.org/1999/xlink" x="0px" y="0px"
	 viewBox="0 0 288 288" style="enable-background:new 0 0 288 288;" xml:space="preserve">
<style type="text/css">
	.st0{display:none;fill:#6B1E1E;}
	.st1{fill:#FFFFFF;}
	.st2{opacity:0.9;}
	.st3{fill:#DDEAF8;}
	.st4{opacity:0.9;fill:#93C3EB;enable-background:new    ;}
	.st5{fill:#B1D2F0;}
	.st6{fill:#CAE0F5;}
	.st7{fill:#EBF3FB;}
	.st8{fill:none;}
	.st9{fill:#F9FBFE;}
	.st10{fill:none;stroke:#231F20;stroke-miterlimit:10;}
</style>
<rect x="-11" y="-13" class="st0" width="309" height="320"/>
<g>
	<path class="st1" d="M95.1,8.3l2.5-0.7l6.2,8.5l1.3-10.5l2.5-0.7L106,17.6l8.3,10.7l3.4-26.2l2.9-0.8l-4.3,29.6l-2.3,0.6L104.9,20
		l-2.2,14.7l-2.3,0.6L82.1,11.5l2.8-0.7l15.9,21.1l1.9-13.4L95.1,8.3z"/>
	<path class="st1" d="M132.9,29.6c-1,0-1.9-0.1-2.7-0.4s-1.6-0.7-2.2-1.2c-0.6-0.5-1.1-1.2-1.5-1.9c-0.4-0.7-0.6-1.6-0.6-2.4
		c0-0.9,0.1-1.7,0.5-2.5c0.4-0.8,0.9-1.4,1.7-2c0.7-0.6,1.6-1,2.6-1.4c1-0.3,2.2-0.5,3.4-0.6c1,0,2.1,0,3.2,0.1
		c1.1,0.1,2,0.4,2.9,0.7l-0.1-1.8c-0.1-1.8-0.6-3.2-1.7-4.2c-1.1-1-2.5-1.5-4.3-1.4c-1,0-2.1,0.3-3.2,0.8c-1.1,0.5-2.1,1.1-3.2,1.9
		l-1-1.7c2.5-1.9,5-2.9,7.5-3c2.5-0.1,4.6,0.5,6.1,1.9c1.5,1.4,2.3,3.3,2.4,5.8l0.4,9.1c0,0.7,0.4,1.1,1,1l0.1,2.3
		c-0.4,0.1-0.8,0.1-1,0.2c-0.7,0-1.2-0.1-1.6-0.4c-0.4-0.3-0.6-0.8-0.7-1.4l-0.1-1.6c-0.9,1.3-2,2.2-3.4,2.9
		C136.1,29.1,134.6,29.5,132.9,29.6z M133.5,27.5c1.4-0.1,2.6-0.4,3.8-0.9c1.1-0.6,2-1.3,2.5-2.2c0.2-0.2,0.4-0.5,0.5-0.8
		c0.1-0.3,0.2-0.5,0.1-0.8l-0.1-3.3c-0.9-0.3-1.8-0.5-2.8-0.7c-1-0.1-1.9-0.2-2.9-0.2c-1.9,0.1-3.4,0.5-4.5,1.4s-1.7,1.9-1.6,3.1
		c0,0.6,0.2,1.2,0.4,1.7c0.3,0.5,0.6,1,1.1,1.4c0.4,0.4,1,0.7,1.6,0.9S132.8,27.5,133.5,27.5z"/>
	<path class="st1" d="M157.8,28.9c-0.2,0.1-0.4,0.1-0.7,0.3c-0.3,0.1-0.7,0.2-1.1,0.3c-0.4,0.1-0.8,0.2-1.3,0.2
		c-0.5,0.1-1,0.1-1.6,0c-0.6,0-1.1-0.2-1.6-0.4c-0.5-0.2-0.9-0.5-1.3-0.8c-0.4-0.4-0.6-0.8-0.8-1.3c-0.2-0.5-0.3-1.1-0.2-1.7
		l1.2-14.4l-2.8-0.2l0.2-2.1l2.8,0.2l0.6-6.8l2.6,0.2l-0.6,6.8l4.6,0.4l-0.2,2.1l-4.6-0.4L151.9,25c0,0.8,0.2,1.3,0.7,1.7
		c0.4,0.4,1,0.6,1.6,0.7c0.7,0.1,1.4,0,2-0.2c0.6-0.2,1-0.3,1.1-0.4L157.8,28.9z"/>
	<path class="st1" d="M168.1,32.2c-1.4-0.3-2.7-0.9-3.8-1.7c-1.1-0.8-2-1.8-2.7-2.9c-0.7-1.1-1.1-2.4-1.4-3.7
		c-0.2-1.3-0.2-2.7,0.1-4.1c0.3-1.4,0.8-2.6,1.6-3.8c0.8-1.1,1.7-2.1,2.7-2.8c1.1-0.7,2.3-1.2,3.6-1.5c1.3-0.3,2.7-0.3,4.1,0
		c1.4,0.3,2.7,0.9,3.8,1.7c1.1,0.8,2,1.8,2.6,2.9s1.1,2.3,1.3,3.7c0.2,1.3,0.2,2.7-0.1,4c0,0.2-0.1,0.4-0.1,0.6
		c0,0.2-0.1,0.3-0.1,0.4l-16.9-3.6c-0.2,1.1-0.1,2.1,0.1,3.1c0.2,1,0.6,1.9,1.1,2.7c0.5,0.8,1.2,1.5,1.9,2c0.8,0.5,1.6,0.9,2.6,1.1
		c0.6,0.1,1.3,0.2,2,0.1c0.7,0,1.3-0.2,1.9-0.3c0.6-0.2,1.2-0.5,1.7-0.8s1-0.8,1.3-1.3l2.1,1.1c-0.5,0.7-1,1.2-1.7,1.7
		c-0.7,0.5-1.4,0.9-2.3,1.1c-0.8,0.3-1.7,0.5-2.7,0.5C170,32.5,169.1,32.4,168.1,32.2z M177.9,22.5c0.2-1.1,0.1-2.1-0.1-3.1
		s-0.6-1.8-1.1-2.6c-0.5-0.8-1.2-1.4-1.9-2c-0.8-0.5-1.6-0.9-2.6-1.1c-1-0.2-1.9-0.2-2.8-0.1c-0.9,0.2-1.8,0.5-2.6,1
		c-0.8,0.5-1.5,1.1-2,1.9c-0.6,0.8-1,1.7-1.3,2.7L177.9,22.5z"/>
	<path class="st1" d="M196.6,21.9c-1.7-0.6-3.3-0.6-4.9-0.2s-2.9,1.3-3.9,2.7l-4.3,11.8l-2.5-0.9l6.9-19l2.3,0.8l-1.7,4.6
		c1.2-1.2,2.6-2,4.1-2.4s2.9-0.3,4.3,0.1c0.2,0.1,0.3,0.1,0.5,0.2L196.6,21.9z"/>
</g>
<circle class="st1" cx="141" cy="157" r="128"/>
<g>
	<g>
		<g>
			<g>
				<g>
					<g class="st2">
						<g class="st2">
							<path class="st3" d="M204.8,156.6c-0.5-0.3-1.7-0.1-3.2,0.5s-3.2,1.5-4.8,2.5c-3.2,2-5.8,3.9-6.5,4.1
								c-0.8,0.3-1.6,0.9-2.6,1.5c-0.5,0.3-0.9,0.6-1.5,1c-0.5,0.4-1,0.7-1.6,1.1c-2.2,1.6-4.9,3.3-7.6,4.7
								c-5.4,2.9-11,4.6-11.1,4.2c0-0.7-1.5-2.3-3.2-3.9c-0.8-0.8-1.7-1.6-2.5-2.1c-0.8-0.6-1.5-1-2-1c-2.5-0.2-4.9-0.2-7.3,0.1
								c-2.4,0.3-4.9,0.8-7.2,1.6c-2.3,0.6-2.8,1.1-3.7,0.8c-0.4-0.1-1.9,2.1-5.2,2.6c-2.2,0.3-4.9-0.7-7-0.4
								c-2,0.1-6.1-0.4-10.2-1.3c-4.1-0.9-8.3-2-10.5-2.5c-8.4-2-12.4-3.7-18.2-7.2c-4.3-2.9-8.4-3.9-13.2-6.2c-2.6-1.1-4.8-2-7-2.7
								c-1.1-0.4-2.3-0.8-3.5-1.2s-2.4-0.8-3.8-1.2c-5-2-9.8-3.4-15.7-4c-0.8,0-1.6,0.1-2.2,0.3c-0.6,0.2-2.1,0-2.9,0.1
								c-1.2-0.2-2.4-0.3-3.5-0.4c-1.2-0.1-2.3-0.4-3.5-0.4c-1.2-0.1-2.3-0.1-3.5-0.1h-0.9l-0.9,0.1c-0.6,0.1-1.2,0.2-1.8,0.4
								c-1.3,0.3-3.1,1.2-2.6,1.7c1.3,1.2,2.9,2.1,4.7,2.9c0.4,0.2,0.9,0.4,1.3,0.6c0.5,0.2,0.9,0.4,1.4,0.6
								c0.9,0.4,1.9,0.8,2.9,1.1c0.9,0.3,1.9,0.7,2.9,0.9s2,0.4,3.1,0.5c2.1,0.4,4.4,0.6,6.7,1.2c0.8,0.2,1.5,0.4,2.2,0.6
								c0.7,0.3,1.4,0.6,2,1c1.3,0.7,2.4,1.5,3.3,2.5c1,0.9,1.8,1.9,2.5,2.9s1.3,2.1,1.8,3.1c0.6,1.5,1,3.3,1.8,5s2,3,4.5,3.9
								c5.8,1.8,12,2.4,17.6,6.3c3.9,2.8,7.1,5.3,11.6,7.8c0.6,0.4,3.1,2,4,2.5c2.8,1,5.8,2.4,8.7,3.4c2.9,1,5.7,1.6,8.2,1.1
								c6.7,1.3,9.9,3.2,15.7,2.7c3.7-0.4,7.3-1,11.1-1.5c3.7-0.5,7.6-1,11.6-1.3c4.6-0.4,8.9-0.7,13.4-0.9c0.8-0.1,2.7,0.2,4.7,0.6
								c1,0.2,2,0.3,2.9,0.5c0.9,0.1,1.6,0.2,2.1,0.3c3.6,0.5,8.4-2,11.1-4.3c2.1-1.9,4.1-3.9,6.3-5.8c2.1-2,4.3-4.1,6.4-6.3
								c1.6-1.4,3.5-2.1,5.2-3.4c3.7-3.4,4.9-6.4,8-8.9c3-1.9,5.4-3,7.1-3.9c1.8-0.8,2.8-1.4,3.5-1.7c1.4-0.7,1-0.9,1.3-0.9
								c1.5-0.3,2.4,1,4.3,1c1.3-0.1,2.6-0.4,3.8-0.7c1.2-0.4,2.2-0.8,3.1-1.3c5.1-2.4,11.9-4.5,18.7-2.8c-0.4-0.3-0.5-0.7-1-0.8
								c-4.8-1.1-9-2.5-13.6-3.4c-4.5-0.9-9.2-1.4-14.6-0.4c-0.5,0.2-1.1,0.4-1.7,0.6c-0.6,0.2-1.2,0.5-1.8,0.6
								c-1.1,0.2-2.1,0.5-3.1,0.8c-0.5,0.2-1,0.3-1.5,0.5s-1,0.4-1.4,0.6c-0.8,0.3-1.9,0.4-3,0.5s-2.4,0-3.6,0.1
								c-1.2,0-2.4-0.1-3.4-0.2C206,157.1,205.2,156.9,204.8,156.6z"/>
							<path class="st4" d="M47.3,156.9c-1.1-0.2-2.3-0.6-3.4-0.7c-1.1-0.2-2.2-0.3-3.3-0.5s-2.1-0.3-3.1-0.6c-1-0.2-2-0.6-2.9-0.9
								c-1-0.4-1.9-0.7-2.9-1.1c-0.5-0.2-0.9-0.4-1.4-0.6c-0.5-0.2-0.9-0.4-1.3-0.6c-1.8-0.8-3.4-1.7-4.7-2.9
								c-0.5-0.5,1.3-1.4,2.6-1.7c2.3-0.7,4.7-0.6,7-0.5c1.2,0,2.3,0.3,3.5,0.4c1.2,0.2,2.3,0.3,3.5,0.4c0.8,0,2.3,0.1,2.9-0.1
								c0.6-0.2,1.4-0.3,2.2-0.2c5.9,0.6,10.7,2,15.7,4c1.3,0.5,2.6,0.9,3.8,1.2c1.2,0.4,2.3,0.8,3.5,1.2c2.3,0.7,4.5,1.6,7,2.7
								c4.7,2.3,8.9,3.4,13.2,6.2c5.8,3.5,9.9,5.2,18.2,7.2c2.2,0.5,6.4,1.7,10.5,2.5c4.1,0.9,8.2,1.4,10.2,1.3
								c2.1-0.3,4.8,0.7,7,0.4c0,0,0.3,0.3,1,1c0.7,0.6,1.8,1.6,3.3,2.7c-13.1,1.1-27.2-0.5-41-3c-8.5-3.7-16.8-7.6-25.3-10.9
								c-2.1-0.8-4.2-1.6-6.4-2.3l-3.2-1.1l-3.2-1l-1.6-0.5l-1.6-0.4c-1.1-0.3-2.2-0.5-3.2-0.8C51.7,157.6,49.5,157.1,47.3,156.9z"
								/>
							<path class="st5" d="M134.7,176.6c0,0,1.1,0,2.7-0.1c1.6-0.1,3.7-0.1,5.7-0.1c4,0,7.6,0.3,6.7,2.9c0,0-3.5,3.1-8.9,5.7
								c-5.3,2.6-12.5,4.4-17.8,3c0,0-0.5-0.1-1.2-0.3c-0.8-0.2-1.8-0.5-3-0.8c-2.4-0.7-5.1-1.5-7.1-2.1c0,0-1.5-1.1-4-2.5
								s-5.9-3-9.8-4c0,0-0.5-0.2-1.3-0.4c-0.8-0.3-2-0.7-3.5-1.2c-2.9-1-6.7-2.3-10.5-3.7s-7.6-2.8-10.5-3.9c-2.9-1.1-5-2-5.3-2.7
								c0,0-2.8-1.3-5.9-2.7c-3.1-1.5-6.6-2.9-8-3.9c0,0-0.9-1.1-2.6-2.4c-0.8-0.7-1.9-1.2-3.1-1.7c-1.2-0.4-2.5-0.8-3.9-0.8
								c0,0-1-0.3-2.5-0.8c-0.7-0.3-1.6-0.4-2.4-0.7c-0.9-0.2-1.7-0.5-2.6-0.7c-3.3-0.8-5.7-1.7-1.1-2.5c0,0,0.3-0.1,0.9-0.2
								c0.5-0.1,1.3-0.2,2.2-0.4c0.8-0.1,1.8-0.3,2.7-0.4c0.9-0.1,1.8-0.1,2.5-0.1c0,0,0.6,0.1,1.7,0.2c1.1,0.1,2.6,0.4,4.4,0.7
								c0.5,0.1,0.9,0.2,1.4,0.3s1,0.2,1.5,0.4c1,0.3,2.1,0.5,3.3,0.8c1.1,0.3,2.3,0.7,3.4,1.1c0.6,0.2,1.2,0.4,1.8,0.6
								c0.6,0.2,1.2,0.4,1.7,0.6c9.4,3.4,18.2,8.1,18.9,9.1c0,0,2.3,1.3,5.9,3.2s8.6,4.5,14.2,6.9s11.9,4.4,17.8,5.2
								C125.1,178.9,130.7,178.5,134.7,176.6z"/>
							<path class="st6" d="M135.6,175.2c0,0,0.8-0.2,1.9-0.5c1.2-0.3,2.8-0.6,4.5-0.8c3.5-0.4,7.4-0.5,10.2,1.7
								c0,0,4.2,1.5,7.9,2.8c0.9,0.3,1.9,0.7,2.7,1.1c0.8,0.4,1.5,0.7,2.1,1.1c1.1,0.8,1.3,1.7,0.1,2.7c0,0-0.3,0.2-0.9,0.7
								c-0.6,0.4-1.4,1-2.6,1.7c-2.3,1.4-5.6,3.2-9.9,4.7c-4.3,1.5-9.4,2.7-14.8,3c-5.4,0.4-11.1-0.1-16.3-1.4c0,0-0.5-0.2-1.7-0.3
								c-1.1-0.1-2.9-0.1-5.2,0.1c0,0-2.9-0.4-6.2-1.5c-3.3-1.1-7-2.8-8.7-5c0,0-0.7-0.5-1.8-1.4c-1.1-0.9-2.7-2-4.4-3.2
								c-3.4-2.4-7.4-5.1-10.2-6c0,0-0.9-1-2.1-2c-1.3-1-3-2.1-4.6-2.3c0,0,1.9,0.6,4.9,1.4c2.9,0.9,6.9,2.2,11,3.6
								c4.1,1.4,8.3,3,11.8,4.4c3.4,1.4,6,2.6,6.8,3.6c0,0,0.8,0.5,2.3,1.2s3.7,1.6,6.5,2.3s6.2,1.2,10,1c3.8-0.1,7.9-0.9,12-2.7
								c0,0,1.4-1.6,1.3-3.6C142.1,179.5,140.8,177.2,135.6,175.2z"/>
							<path class="st7" d="M145.5,169.5c0.9-0.4,1.9-0.8,2.8-1.2c0.9-0.4,1.9-0.8,2.8-1.2c1-0.2,2.4-0.1,3.6-0.3
								c0.7-0.1,1.5,0,2.2,0.1s1.4,0.3,1.9,0.5c2.5,1,5.7,1.2,8.8,1.2s6.1-0.2,8.6,0.5c0.8,0,1.3,0,2-0.2c0.2-0.2,0.8-0.7,0.9-0.9
								c2-1,4-1.9,5.6-3.2c0.6-0.6,1.3-1,2-1.5s1.5-0.9,2.4-1.3c1.7-0.9,3.7-1.7,5.9-2.5c2.3-1,5.2-2.6,8.1-3.7
								c1.3-0.5,2.3-0.6,3.3-0.7c1,0,1.8,0.2,2.6,0.3c1.6,0.3,3.1,0.7,5.4,0.1c3.6-0.7,6.8-1.8,10.1-2.8c3.3-0.9,6.6-1.6,10.2-1.4
								c4.1,0.4,7.8,0.8,11.4,1.9c2.7,1,5.6,1.8,8.5,2.8c0.7,0.2,2.3,1.5,2.2,1.8c-0.3,0.4-1.9,0-2.9,0.2c-2.7,0.3-4-1.3-5.7-2
								c-2.2-0.7-5.2-0.5-8-0.6c-1.2-0.2-2.1-0.5-3.2-0.9c-1.6-0.7-3.9,0-6.1,0.5c-2.7,0.8-5.8,0.1-8.7,0.9
								c-1.9,0.5-3.6,1.4-5.1,2.2c-0.4,0.2-0.8,0.4-1.1,0.6c-0.4,0.2-0.7,0.4-1.1,0.6c-0.7,0.4-1.5,0.6-2.4,0.8
								c0.7-0.1,0.4,0.1-0.5,0.6c-0.8,0.5-2.2,1.1-3.5,1.8c-2.7,1.4-5.1,3-4,2c-0.2,0.2-1.2,0.3-1.6,0c-0.1-0.2-0.5-0.5-0.3-0.7
								c1.2-2.1,0.2-3.3,0.2-4.8c-0.1,0-2.1,1.2-4.2,2.5c-2.1,1.3-4.3,2.7-5.7,3.2c-2.2,0.6-4.2,0.8-6.1,1.8
								c-0.4,0.4-0.3,1.1-0.8,1.5c-0.1,0.1-0.5,0.4-0.9,0.8c-0.2,0.2-0.5,0.5-0.7,0.7c-0.3,0.3-0.6,0.6-0.9,0.9
								c-1.3,1.3-3.2,2.8-5.3,4.3c-2.1,1.4-4.3,2.7-6.2,3.6c-0.9,0.5-1.8,0.8-2.5,1s-1.2,0.4-1.5,0.4c-1.3-0.1-3-0.8-2.8-1.5
								c0.1-1.9-2.2-2.4-3.1-3.8c-0.2-0.4,0.3-0.9,0.1-1.3c-0.7-1.1-2-2.2-3.3-2.4c-2.2-0.5-4.9-0.8-6.9-0.5
								C149.9,170,147.7,169.9,145.5,169.5z"/>
							<path class="st8" d="M69.8,177.1c0,0,0.6,0.1,1.6,0.3s2.5,0.6,4.2,1.2c3.4,1.2,7.8,3.3,11.7,6.8c0,0,1.8,1.2,3.8,2.5
								c2.1,1.3,4.3,2.7,5.3,3l2.5,1.7c0,0,3.2,1.5,6.9,2.7c3.7,1.2,7.9,2.2,9.5,1.6c0,0,1.7,0.4,3.6,0.8c1.9,0.4,3.9,0.9,4.4,1.2
								c0,0,1.4,0.4,3.7,0.7c2.3,0.2,5.6,0.3,9.4-0.7"/>
							<path class="st9" d="M186.5,162.1c0.8-0.4,3.2-1.5,6.2-3.1s6.7-3.3,8.5-3.7c5.6-1.5,10.8-1.9,16-1.5c0.5-0.1,1.2-0.2,1.5-0.4
								c2.7-1.9,6.5-1.8,9.2-2.7c1.2-0.3,2.3-0.9,3.7-1c7.1-0.2,13.5,1.4,19,3.7c2.4,1,4.3,2.3,6.5,3.5c0.4,0.3,1.1,0.7,1,1
								c0.1,0.3-1,0.1-1.6,0.1c-0.7-0.2-1.2-0.6-2.1-0.9c-1.6-0.6-3.6-0.8-5.1-1.5c-1.6-0.6-2.9-1.4-4.7-1.9
								c-1.2-0.3-2.3-0.5-3.6-0.5c-4.6-0.5-9.2-0.6-13.9,0.2c-1.7,1.2-4.6,1-6.8,1.5c-0.7,0.1-1.3,0.1-2.2,0.2
								c-2,0.5-3.9,1.5-5.4,1.4c-3.2-0.5-6.5-0.4-10.3,0.6c-1.6,0.4-5.3,2-8.4,3.5c-1.5,0.7-3,1.5-4.3,2.1c-1.2,0.6-2.1,1-2.6,1.2
								c-0.7,0.3-1.3,0.6-1.9,1c-0.3,0.2-0.6,0.4-0.9,0.6l-0.9,0.6c-0.6,0.4-1.2,0.8-1.8,1.1s-1.2,0.7-1.9,0.9
								c-0.1,0,0.1-0.7,1.1-1.8c0.2-0.3,0.5-0.6,0.9-0.8c0.3-0.3,0.7-0.6,1.2-1c0.5-0.3,1-0.7,1.5-1
								C185.1,162.9,185.8,162.6,186.5,162.1z"/>
						</g>
					</g>
				</g>
			</g>
		</g>
		<g>
			<g>
				<g>
					<g class="st2">
						<g class="st2">
							<path class="st3" d="M204.8,197.8c-0.5-0.3-1.7-0.1-3.2,0.5s-3.2,1.5-4.8,2.5c-3.2,2-5.8,3.9-6.5,4.1
								c-0.8,0.3-1.6,0.9-2.6,1.5c-0.5,0.3-0.9,0.6-1.5,1c-0.5,0.4-1,0.7-1.6,1.1c-2.2,1.6-4.9,3.3-7.6,4.7
								c-5.4,2.9-11,4.6-11.1,4.2c0-0.7-1.5-2.3-3.2-3.9c-0.8-0.8-1.7-1.6-2.5-2.1c-0.8-0.6-1.5-1-2-1c-2.5-0.2-4.9-0.2-7.3,0.1
								c-2.4,0.3-4.9,0.8-7.2,1.6c-2.3,0.6-2.8,1.1-3.7,0.8c-0.4-0.1-1.9,2.1-5.2,2.6c-2.2,0.3-4.9-0.7-7-0.4
								c-2,0.1-6.1-0.4-10.2-1.3c-4.1-0.9-8.3-2-10.5-2.5c-8.4-2-12.4-3.7-18.2-7.2c-4.3-2.9-8.4-3.9-13.2-6.2c-2.6-1.1-4.8-2-7-2.7
								c-1.1-0.4-2.3-0.8-3.5-1.2s-2.4-0.8-3.8-1.2c-5-2-9.8-3.4-15.7-4c-0.8,0-1.6,0.1-2.2,0.3c-0.6,0.2-2.1,0-2.9,0.1
								c-1.2-0.2-2.4-0.3-3.5-0.4c-1.2-0.1-2.3-0.4-3.5-0.4c-1.2-0.1-2.3-0.1-3.5-0.1h-0.9l-0.9,0.1c-0.6,0.1-1.2,0.2-1.8,0.4
								c-1.3,0.3-3.1,1.2-2.6,1.7c1.3,1.2,2.9,2.1,4.7,2.9c0.4,0.2,0.9,0.4,1.3,0.6c0.5,0.2,0.9,0.4,1.4,0.6
								c0.9,0.4,1.9,0.8,2.9,1.1c0.9,0.3,1.9,0.7,2.9,0.9s2,0.4,3.1,0.5c2.1,0.4,4.4,0.6,6.7,1.2c0.8,0.2,1.5,0.4,2.2,0.6
								c0.7,0.3,1.4,0.6,2,1c1.3,0.7,2.4,1.5,3.3,2.5c1,0.9,1.8,1.9,2.5,2.9s1.3,2.1,1.8,3.1c0.6,1.5,1,3.3,1.8,5s2,3,4.5,3.9
								c5.8,1.8,12,2.4,17.6,6.3c3.9,2.8,7.1,5.3,11.6,7.8c0.6,0.4,3.1,2,4,2.5c2.8,1,5.8,2.4,8.7,3.4c2.9,1,5.7,1.6,8.2,1.1
								c6.7,1.3,9.9,3.2,15.7,2.7c3.7-0.4,7.3-1,11.1-1.5c3.7-0.5,7.6-1,11.6-1.3c4.6-0.4,8.9-0.7,13.4-0.9c0.8-0.1,2.7,0.2,4.7,0.6
								c1,0.2,2,0.3,2.9,0.5c0.9,0.1,1.6,0.2,2.1,0.3c3.6,0.5,8.4-2,11.1-4.3c2.1-1.9,4.1-3.9,6.3-5.8c2.1-2,4.3-4.1,6.4-6.3
								c1.6-1.4,3.5-2.1,5.2-3.4c3.7-3.4,4.9-6.4,8-8.9c3-1.9,5.4-3,7.1-3.9c1.8-0.8,2.8-1.4,3.5-1.7c1.4-0.7,1-0.9,1.3-0.9
								c1.5-0.3,2.4,1,4.3,1c1.3-0.1,2.6-0.4,3.8-0.7c1.2-0.4,2.2-0.8,3.1-1.3c5.1-2.4,11.9-4.5,18.7-2.8c-0.4-0.3-0.5-0.7-1-0.8
								c-4.8-1.1-9-2.5-13.6-3.4c-4.5-0.9-9.2-1.4-14.6-0.4c-0.5,0.2-1.1,0.4-1.7,0.6c-0.6,0.2-1.2,0.5-1.8,0.6
								c-1.1,0.2-2.1,0.5-3.1,0.8c-0.5,0.2-1,0.3-1.5,0.5s-1,0.4-1.4,0.6c-0.8,0.3-1.9,0.4-3,0.5s-2.4,0-3.6,0.1
								c-1.2,0-2.4-0.1-3.4-0.2C206,198.2,205.2,198,204.8,197.8z"/>
							<path class="st4" d="M47.3,198c-1.1-0.2-2.3-0.6-3.4-0.7c-1.1-0.2-2.2-0.3-3.3-0.5s-2.1-0.3-3.1-0.6c-1-0.2-2-0.6-2.9-0.9
								c-1-0.4-1.9-0.7-2.9-1.1c-0.5-0.2-0.9-0.4-1.4-0.6c-0.5-0.2-0.9-0.4-1.3-0.6c-1.8-0.8-3.4-1.7-4.7-2.9
								c-0.5-0.5,1.3-1.4,2.6-1.7c2.3-0.7,4.7-0.6,7-0.5c1.2,0,2.3,0.3,3.5,0.4c1.2,0.2,2.3,0.3,3.5,0.4c0.8,0,2.3,0.1,2.9-0.1
								c0.6-0.2,1.4-0.3,2.2-0.2c5.9,0.6,10.7,2,15.7,4c1.3,0.5,2.6,0.9,3.8,1.2c1.2,0.4,2.3,0.8,3.5,1.2c2.3,0.7,4.5,1.6,7,2.7
								c4.7,2.3,8.9,3.4,13.2,6.2c5.8,3.5,9.9,5.2,18.2,7.2c2.2,0.5,6.4,1.7,10.5,2.5c4.1,0.9,8.2,1.4,10.2,1.3
								c2.1-0.3,4.8,0.7,7,0.4c0,0,0.3,0.3,1,1c0.7,0.6,1.8,1.6,3.3,2.7c-13.1,1.1-27.2-0.5-41-3c-8.5-3.7-16.8-7.6-25.3-10.9
								c-2.1-0.8-4.2-1.6-6.4-2.3l-3.2-1.1l-3.2-1l-1.6-0.5l-1.6-0.4c-1.1-0.3-2.2-0.5-3.2-0.8C51.7,198.7,49.5,198.2,47.3,198z"/>
							<path class="st5" d="M134.7,217.7c0,0,1.1,0,2.7-0.1c1.6-0.1,3.7-0.1,5.7-0.1c4,0,7.6,0.3,6.7,2.9c0,0-3.5,3.1-8.9,5.7
								c-5.3,2.6-12.5,4.4-17.8,3c0,0-0.5-0.1-1.2-0.3c-0.8-0.2-1.8-0.5-3-0.8c-2.4-0.7-5.1-1.5-7.1-2.1c0,0-1.5-1.1-4-2.5
								s-5.9-3-9.8-4c0,0-0.5-0.2-1.3-0.4c-0.8-0.3-2-0.7-3.5-1.2c-2.9-1-6.7-2.3-10.5-3.7s-7.6-2.8-10.5-3.9c-2.9-1.1-5-2-5.3-2.7
								c0,0-2.8-1.3-5.9-2.7c-3.1-1.5-6.6-2.9-8-3.9c0,0-0.9-1.1-2.6-2.4c-0.8-0.7-1.9-1.2-3.1-1.7c-1.2-0.4-2.5-0.8-3.9-0.8
								c0,0-1-0.3-2.5-0.8c-0.7-0.3-1.6-0.4-2.4-0.7c-0.9-0.2-1.7-0.5-2.6-0.7c-3.3-0.8-5.7-1.7-1.1-2.5c0,0,0.3-0.1,0.9-0.2
								c0.5-0.1,1.3-0.2,2.2-0.4c0.8-0.1,1.8-0.3,2.7-0.4c0.9-0.1,1.8-0.1,2.5-0.1c0,0,0.6,0.1,1.7,0.2c1.1,0.1,2.6,0.4,4.4,0.7
								c0.5,0.1,0.9,0.2,1.4,0.3s1,0.2,1.5,0.4c1,0.3,2.1,0.5,3.3,0.8c1.1,0.3,2.3,0.7,3.4,1.1c0.6,0.2,1.2,0.4,1.8,0.6
								c0.6,0.2,1.2,0.4,1.7,0.6c9.4,3.4,18.2,8.1,18.9,9.1c0,0,2.3,1.3,5.9,3.2s8.6,4.5,14.2,6.9s11.9,4.4,17.8,5.2
								C125.1,220,130.7,219.7,134.7,217.7z"/>
							<path class="st6" d="M135.6,216.4c0,0,0.8-0.2,1.9-0.5c1.2-0.3,2.8-0.6,4.5-0.8c3.5-0.4,7.4-0.5,10.2,1.7
								c0,0,4.2,1.5,7.9,2.8c0.9,0.3,1.9,0.7,2.7,1.1c0.8,0.4,1.5,0.7,2.1,1.1c1.1,0.8,1.3,1.7,0.1,2.7c0,0-0.3,0.2-0.9,0.7
								c-0.6,0.4-1.4,1-2.6,1.7c-2.3,1.4-5.6,3.2-9.9,4.7c-4.3,1.5-9.4,2.7-14.8,3c-5.4,0.4-11.1-0.1-16.3-1.4c0,0-0.5-0.2-1.7-0.3
								c-1.1-0.1-2.9-0.1-5.2,0.1c0,0-2.9-0.4-6.2-1.5c-3.3-1.1-7-2.8-8.7-5c0,0-0.7-0.5-1.8-1.4c-1.1-0.9-2.7-2-4.4-3.2
								c-3.4-2.4-7.4-5.1-10.2-6c0,0-0.9-1-2.1-2c-1.3-1-3-2.1-4.6-2.3c0,0,1.9,0.6,4.9,1.4c2.9,0.9,6.9,2.2,11,3.6
								c4.1,1.4,8.3,3,11.8,4.4c3.4,1.4,6,2.6,6.8,3.6c0,0,0.8,0.5,2.3,1.2s3.7,1.6,6.5,2.3s6.2,1.2,10,1c3.8-0.1,7.9-0.9,12-2.7
								c0,0,1.4-1.6,1.3-3.6C142.1,220.7,140.8,218.3,135.6,216.4z"/>
							<path class="st7" d="M145.5,210.7c0.9-0.4,1.9-0.8,2.8-1.2c0.9-0.4,1.9-0.8,2.8-1.2c1-0.2,2.4-0.1,3.6-0.3
								c0.7-0.1,1.5,0,2.2,0.1s1.4,0.3,1.9,0.5c2.5,1,5.7,1.2,8.8,1.2s6.1-0.2,8.6,0.5c0.8,0,1.3,0,2-0.2c0.2-0.2,0.8-0.7,0.9-0.9
								c2-1,4-1.9,5.6-3.2c0.6-0.6,1.3-1,2-1.5s1.5-0.9,2.4-1.3c1.7-0.9,3.7-1.7,5.9-2.5c2.3-1,5.2-2.6,8.1-3.7
								c1.3-0.5,2.3-0.6,3.3-0.7c1,0,1.8,0.2,2.6,0.3c1.6,0.3,3.1,0.7,5.4,0.1c3.6-0.7,6.8-1.8,10.1-2.8c3.3-0.9,6.6-1.6,10.2-1.4
								c4.1,0.4,7.8,0.8,11.4,1.9c2.7,1,5.6,1.8,8.5,2.8c0.7,0.2,2.3,1.5,2.2,1.8c-0.3,0.4-1.9,0-2.9,0.2c-2.7,0.3-4-1.3-5.7-2
								c-2.2-0.7-5.2-0.5-8-0.6c-1.2-0.2-2.1-0.5-3.2-0.9c-1.6-0.7-3.9,0-6.1,0.5c-2.7,0.8-5.8,0.1-8.7,0.9
								c-1.9,0.5-3.6,1.4-5.1,2.2c-0.4,0.2-0.8,0.4-1.1,0.6c-0.4,0.2-0.7,0.4-1.1,0.6c-0.7,0.4-1.5,0.6-2.4,0.8
								c0.7-0.1,0.4,0.1-0.5,0.6c-0.8,0.5-2.2,1.1-3.5,1.8c-2.7,1.4-5.1,3-4,2c-0.2,0.2-1.2,0.3-1.6,0c-0.1-0.2-0.5-0.5-0.3-0.7
								c1.2-2.1,0.2-3.3,0.2-4.8c-0.1,0-2.1,1.2-4.2,2.5c-2.1,1.3-4.3,2.7-5.7,3.2c-2.2,0.6-4.2,0.8-6.1,1.8
								c-0.4,0.4-0.3,1.1-0.8,1.5c-0.1,0.1-0.5,0.4-0.9,0.8c-0.2,0.2-0.5,0.5-0.7,0.7c-0.3,0.3-0.6,0.6-0.9,0.9
								c-1.3,1.3-3.2,2.8-5.3,4.3c-2.1,1.4-4.3,2.7-6.2,3.6c-0.9,0.5-1.8,0.8-2.5,1s-1.2,0.4-1.5,0.4c-1.3-0.1-3-0.8-2.8-1.5
								c0.1-1.9-2.2-2.4-3.1-3.8c-0.2-0.4,0.3-0.9,0.1-1.3c-0.7-1.1-2-2.2-3.3-2.4c-2.2-0.5-4.9-0.8-6.9-0.5
								C149.9,211.2,147.7,211,145.5,210.7z"/>
							<path class="st8" d="M69.8,218.2c0,0,0.6,0.1,1.6,0.3s2.5,0.6,4.2,1.2c3.4,1.2,7.8,3.3,11.7,6.8c0,0,1.8,1.2,3.8,2.5
								c2.1,1.3,4.3,2.7,5.3,3l2.5,1.7c0,0,3.2,1.5,6.9,2.7c3.7,1.2,7.9,2.2,9.5,1.6c0,0,1.7,0.4,3.6,0.8c1.9,0.4,3.9,0.9,4.4,1.2
								c0,0,1.4,0.4,3.7,0.7c2.3,0.2,5.6,0.3,9.4-0.7"/>
							<path class="st9" d="M186.5,203.3c0.8-0.4,3.2-1.5,6.2-3.1s6.7-3.3,8.5-3.7c5.6-1.5,10.8-1.9,16-1.5c0.5-0.1,1.2-0.2,1.5-0.4
								c2.7-1.9,6.5-1.8,9.2-2.7c1.2-0.3,2.3-0.9,3.7-1c7.1-0.2,13.5,1.4,19,3.7c2.4,1,4.3,2.3,6.5,3.5c0.4,0.3,1.1,0.7,1,1
								c0.1,0.3-1,0.1-1.6,0.1c-0.7-0.2-1.2-0.6-2.1-0.9c-1.6-0.6-3.6-0.8-5.1-1.5c-1.6-0.6-2.9-1.4-4.7-1.9
								c-1.2-0.3-2.3-0.5-3.6-0.5c-4.6-0.5-9.2-0.6-13.9,0.2c-1.7,1.2-4.6,1-6.8,1.5c-0.7,0.1-1.3,0.1-2.2,0.2
								c-2,0.5-3.9,1.5-5.4,1.4c-3.2-0.5-6.5-0.4-10.3,0.6c-1.6,0.4-5.3,2-8.4,3.5c-1.5,0.7-3,1.5-4.3,2.1c-1.2,0.6-2.1,1-2.6,1.2
								c-0.7,0.3-1.3,0.6-1.9,1c-0.3,0.2-0.6,0.4-0.9,0.6l-0.9,0.6c-0.6,0.4-1.2,0.8-1.8,1.1s-1.2,0.7-1.9,0.9
								c-0.1,0,0.1-0.7,1.1-1.8c0.2-0.3,0.5-0.6,0.9-0.8c0.3-0.3,0.7-0.6,1.2-1c0.5-0.3,1-0.7,1.5-1
								C185.1,204.1,185.8,203.7,186.5,203.3z"/>
						</g>
					</g>
				</g>
			</g>
		</g>
		<g>
			<g>
				<g>
					<g class="st2">
						<g class="st2">
							<path class="st3" d="M149.5,99.2c-1,0.4-1.3,1.6-1.6,2.8c-0.3,1.3-0.5,2.7-0.8,3.1c-0.4,0.8-0.5,2-0.5,3.7s0.2,4,0.4,5.7
								c0.4,3.5,0.5,5.4,0.1,5.3c-0.6-0.3-2.5-0.5-4.1-1.3l-0.6-0.3c-0.1-0.1-0.3-0.2-0.4-0.2c0,0,0.1,0,0.1,0.1
								c0.1,0.1,0.3,0.2,0.4,0.3c0.7,0.6,1.9,1.9,2.4,3.1c0.3,0.6,0.4,1,0.5,1.2v0.1v0.1l0,0v-0.4c0-0.2,0-0.3,0-0.5v-0.7
								c0.1-1,0.2-2,0.4-2.8c0-0.2,0.1-0.4,0.1-0.6v0.1l0,0c-0.1-0.1-0.6,2.3-2.4,3c-0.6,0.2-1.3,0-2-0.1s-1.1-0.2-1.5,0.2
								c-0.2,0.1-0.4,0.2-0.5,0.3c-0.1,0.1-0.1,0.1-0.2,0.2c-0.1,0.1-0.2,0.3-0.3,0.4l0.1-0.2c-0.1,0.1-0.2,0.2-0.4,0.2
								s-0.4-0.1-0.6-0.2c-0.5-0.3-0.9-1-1.2-1.7s-0.6-1.5-0.8-2s-0.3-1-0.5-1.5c-0.1-0.5-0.2-1-0.3-1.4c-0.2-0.9-0.2-1.7-0.2-2.5
								s0.1-1.6,0.3-2.3c0.2-0.8,0.4-1.6,0.8-2.4c1.3-2.5,1.1-4.8,2-7.4c0.9-2.7,1.2-4.8,2.3-7.5c1.4-2.4,2.5-4.7,3.5-7.5
								c0.1-0.4,0.1-0.8,0-1.2c-0.1-0.4,0.2-1,0.3-1.4c1.3-2.1,3.3-3.7,3.9-6c0.2-0.6,0-1.8-0.6-1.8c-3-0.1-5.6,0.9-8.1,2.2
								c-2.3,1.3-3.3,3.8-4.7,6.2c-1.8,3.4-5.9,4.9-9.6,5.9c-2.8,0.6-7,0.5-7.8,4.1c-0.4,2.1-0.3,4.3-0.3,6.4c0,1.1-0.1,2.2-0.2,3.2
								c-0.2,1.1-0.4,2.2-0.9,3.2c-1.4,3.1-2.6,5.6-3.1,9.1c-0.1,0.2-0.3,0.8-0.4,1.5c-0.2,0.7-0.3,1.6-0.3,2
								c0.2,2.6,0.3,5.9,1.6,9.8c0.6,1.9,1.6,4,2.9,5.8s3,3.3,4.7,4.2c1.1,1,2.2,1.9,3.2,2.5c1,0.7,1.9,1.2,2.6,1.6
								c1.5,0.8,2.6,1.3,3.5,1.7c0.9,0.3,1.3,0.5,2.1,0.6c0.7,0.1,1.6,0.2,2.8,0.2c2.9-0.2,6.9-0.3,11.2-1.5
								c2.2-0.6,4.3-1.6,6.1-2.7c1.8-1.1,3.4-2.3,4.8-3.6c3.2-3,5.2-5.9,7.2-9.1c0.3-0.5,1.4-1.6,2.5-2.7s2.2-2.2,2.7-2.7
								c0.9-1,1.3-2.3,1.3-3.6c0-1.3-0.3-2.5-0.7-3.4c-0.8-1.5-1.5-2.7-2.1-4.2s-1-3-1.4-4.8c-0.1-1.2,0.6-2.4,0.6-3.9
								c-0.2-1.7-0.8-3.3-1.6-4.7c-0.8-1.4-1.6-2.7-2.5-4.2c-1.2-2.8-2.4-4.3-3.2-5.4c-0.9-1.1-1.5-1.6-1.9-1.9
								c-0.9-0.6-1-0.3-1-0.5c-0.5-0.8,0.5-1.9,0.1-3.1c-0.7-1.5-2.3-2.5-3.6-2.9c-3.7-1.4-7.6-2.8-9.4-6.5
								c-0.1,0.4-0.3,0.7-0.1,0.9c1.2,2.6,1.8,5.1,2.5,7.6s1.4,4.8,2.9,7c0.4,0.3,1,0.8,1.4,1.3c0.6,1,1.1,1.8,1.7,2.6
								c0.4,0.8,0.1,2.2-0.7,3.3C151.5,98,150.4,98.9,149.5,99.2z"/>
							<path class="st4" d="M134.8,83.6c1.4-2.4,2.3-4.9,4.7-6.2c2.5-1.4,5.1-2.3,8.1-2.2c0.6,0,0.7,1.1,0.6,1.8
								c-0.6,2.3-2.7,3.9-3.9,6c-0.1,0.4-0.4,1.1-0.3,1.4c0.1,0.3,0.1,0.8,0,1.2c-1,2.8-2.1,5.1-3.5,7.5c-1.1,2.7-1.4,4.8-2.3,7.5
								c-1,2.6-0.8,4.9-2,7.4c-0.4,0.8-0.6,1.6-0.8,2.4s-0.3,1.5-0.3,2.3s0.1,1.6,0.2,2.5c0.2,0.9,0.4,2,0.8,2.9
								c0.4,1,1.1,3.1,2,3.7c0.2,0.2,0.4,0.2,0.6,0.2c0.1,0,0.2,0,0.2-0.1c0.1,0,0.2-0.1,0.1-0.1l-0.1,0.1c0.1-0.1,0.2-0.2,0.3-0.4
								c0-0.1,0.1-0.1,0.2-0.2c0.1-0.1,0.3-0.2,0.5-0.3c0.4-0.3,0.8-0.3,1.5-0.1c0.7,0.1,1.4,0.3,1.9,0.1c0,0,0.1,0.3,0.2,0.9
								c0.1,0.5,0.4,1.4,0.7,2.3c-1.1,0.6-3.1,0.7-5.1,0.8c-1.9,0.1-3.1,0.4-4.6-0.3c-1.5-0.8-2.9-2.4-3.9-4.3
								c-0.5-0.9-1-1.9-1.4-2.9s-0.8-2-1.2-3C128.6,103.8,131.5,93.4,134.8,83.6z"/>
							<path class="st5" d="M142.7,123.3c0,0,0.6-0.1,1.3-0.3c0.7-0.2,1.3-0.5,1.4-0.8c0,0,0-0.3,0,0.1v0.2v0.3l0,0v-0.1
								c0-0.1-0.1-0.3-0.1-0.5c0-0.1,0,0,0,0l0.1,0.2c0.1,0.1,0.1,0.3,0.2,0.4c0.2,0.3,0.4,0.8,0.6,1.4c0,0,0.1,0.2,0.1,0.6
								c0.1,0.4,0.1,0.9,0.1,1.6c0,1.3-0.5,3.1-2.1,4.7c-1.5,1.5-3.9,2.6-5.9,3.1c-1.1,0.3-2,0.5-2.9,0.5s-1.9-0.2-3-0.7
								c0,0-0.4-0.2-1-0.6c-0.6-0.4-1.5-1-2.5-1.9c-0.9-0.9-1.8-2-2.4-3c-0.6-1.1-1.1-2.1-1.4-2.9c0,0,0-1.7,0.1-3.8
								c0.1-2.1,0.3-4.5-0.3-6.9c0,0,0-0.3-0.1-0.8s-0.1-1.3-0.2-2.2c-0.1-1.8-0.2-4.3-0.1-6.8c0.2-5,1.2-10,2.3-10.4
								c0,0,0.7-1.8,1.8-3.7c1-1.9,2.3-3.9,3.3-4.6c0,0,1.1-0.4,2.3-1.1s2.5-1.9,2.9-3.5c0,0,1.8-1.9,3.4-3.3c1.6-1.3,3.1-2,2.5,0.4
								c0,0-0.2,3-0.5,4.4c0,0-2.2,4.7-4.3,9.6c-1,2.4-2.1,4.9-2.9,6.9c-0.8,2-1.4,3.4-1.8,3.6c0,0-0.1,0.3-0.4,0.9
								c-0.2,0.6-0.6,1.5-0.8,2.6c-0.6,2.2-1.2,5.3-1.3,8.7c0,1.7,0.1,3.5,0.6,5.1c0.5,1.7,1.4,3.2,2.6,4c1.2,0.8,2.5,0.7,3.9,0.4
								C139.7,124.9,141.5,124.4,142.7,123.3z"/>
							<path class="st6" d="M143.5,122.1c0,0,0.4-0.2,0.9-0.6c0.5-0.3,1.1-0.9,1.1-1.3l-0.1,0.6l-0.1,0.6c0,0.4,0,0.7,0,1
								c0,0.1,0,0.2,0,0.3v0.3l0,0l0,0l0,0l0,0l0,0l0,0c0,0,0-0.1,0-0.2s-0.1-0.3-0.1-0.4s-0.1-0.3-0.2-0.5
								c-0.1-0.2-0.2-0.3-0.2-0.5c0-0.1-0.1-0.2-0.1-0.3l-0.1-0.1l0,0l0,0l0.1,0.1c0,0,0.1,0.1,0.1,0.2c0.1,0.1,0.3,0.2,0.5,0.4
								c0.5,0.3,1.3,0.5,2.3,0.6s2.1,0,3.1,0s1.9,0.3,2.3,1.3c0,0,0.1,0.2,0.3,0.7c0.2,0.4,0.4,1.1,0.5,2c0.2,1.7,0.3,4.5-1.5,7.5
								c-0.9,1.5-2.3,3.1-4.4,4.2c-2.1,1.2-4.7,1.7-7,1.9c-2.3,0.1-4.3-0.1-6-0.3c-0.8-0.1-1.5-0.2-2.5-0.5s-2.2-0.8-3.5-1.6
								c0,0-0.1-0.1-0.4-0.3c-0.3-0.2-0.8-0.4-1.4-0.8c-1.3-0.8-3.3-2-5.7-4c0,0-0.6-0.8-1.4-2c-0.7-1.3-1.6-3-2.1-4.8
								c-1-3.6-0.9-6.9,0.5-8.6c0,0,0.2-0.5,0.6-1.4s0.8-2,1.4-3.3c1-2.6,2.2-5.4,2.1-7.2c0,0,0.6-0.7,1.2-1.5
								c0.6-0.9,1.1-2,0.9-3.1c0,0,0,0.3,0,0.9s0,1.4,0,2.3c0,1.9,0.1,4.5,0.2,7.1c0.1,1.3,0.1,2.7,0.2,3.9c0.1,1.3,0.1,2.5,0.2,3.7
								c0.1,2.4,0.2,4.5-0.2,5.5c0,0-0.1,0.8,0.3,2.2c0.2,0.7,0.5,1.6,1,2.6c0.5,1,1.3,2.1,2.5,3.1c1.1,1,2.6,1.8,3.9,2.2
								c1.3,0.4,2.5,0.4,3.6,0.3c1.1-0.1,2.4-0.3,3.8-0.7c1.4-0.4,2.8-1.1,4-2.2c0,0,0.2-0.4,0.4-1.1s0.3-1.6,0.3-2.6
								s-0.1-2.1-0.2-3C144.6,123.7,144.4,122.8,143.5,122.1z"/>
							<path class="st7" d="M145.4,122.4v0.2l0,0v0.3l0,0l0,0l0,0l0,0l0,0l0,0v-0.1C145.4,122.7,145.4,122.6,145.4,122.4
								c-0.1-0.2-0.2-0.5-0.4-0.9c-0.2-0.5-0.7-1.2-1.1-1.7c-0.6-0.7-1.2-1.3-1.5-1.5c-0.3-0.3-0.5-0.3-0.2-0.2l0,0l0,0l0,0l0,0
								c2.3,1.1-3.1-1.5-2.6-1.3l0,0l0,0h0.1h0.1c0.1,0,0.2,0,0.3,0c0.2,0,0.4-0.1,0.6-0.2c0.8-0.4,1.8-1.7,3.4-2.7
								c0.4-0.4,0.6-0.7,0.7-1.1c-0.1-0.1-0.2-0.7-0.3-0.8c0.1-1.6,0.4-3,0.3-4.3c-0.3-2.1,0.9-3.7,2.2-5.2c0.6-0.9,1-1.9,1.3-2.8
								c0.6-1.5,3.7-2.6,3.4-4.6c-0.1-1.6-1.1-3-2.2-4.2c-1.1-1.3-2.2-2.4-2.8-4.1c-0.6-2-1.4-3.7-1.8-5.8c-0.1-1.7-0.7-3.3-1.2-5.1
								c-0.1-0.4,0.1-1.9,0.3-2c0.4-0.1,0.8,0.7,1.4,1c1.4,0.8,0.7,2.4,0.9,3.6c0.3,1.4,1.5,2.4,2.3,3.8c0.2,0.6,0.2,1.2,0.2,2
								c-0.2,1.1,0.9,1.8,1.8,2.7c1.2,1,1,2.9,1.8,4.2c0.5,0.9,1.3,1.5,2,2.2s1.2,1.4,1.1,2.3c0.1-0.8,0.7,0.6,1,2.1s0.2,3-0.1,2.3
								c0.1,0.1-0.4,0.6-0.8,0.7c-0.3,0-0.7,0.1-0.8,0c-1.1-0.9-2.6-0.5-4-0.6c-0.1,0.1,0,0.8-0.2,1.8c-0.1,1-0.4,2.1-1,2.8
								c-1,1-2,1.8-2.3,3.1c0.1,0.4,0.7,0.6,0.7,1c0,0.2,0.2,1,0.6,2.2c0.4,1.2,0.8,2.8,1.3,4.2c0.4,1.4,0.8,2.8,1,3.8s0.2,1.8,0,2
								c-0.5,0.4-1.6,0.6-2.1,0.2c-0.8-0.4-1.5-0.6-2.1-0.7c-0.6-0.2-1.2-0.3-1.9-0.7c-0.4-0.2-0.8-0.5-1.1-0.7
								c-0.5-0.3-1-0.5-1.4-0.8c0,0,0.2,0.1,0.3,0.2c0.3,0.2,0.7,0.6,1.2,1.1c0.4,0.5,0.9,1.1,1.1,1.6c0.3,0.5,0.5,1,0.6,1.3
								c0.1,0.2,0.1,0.3,0.1,0.4v0.1l0,0l0,0l0,0l0,0l0,0l0,0l0,0c0,0.2,0-0.3,0-0.3l0,0L145.4,122.4z"/>
							<path class="st8" d="M117.1,96.7c0,0,0.1,0.4,0.1,1.2c0,0.7,0,1.8-0.1,3c-0.3,2.5-0.9,5.7-2.8,8.9c0,0-0.5,1.4-1,3
								s-0.8,3.4-0.8,4.1c-0.2,0.7-0.4,1.5-0.6,2.4c0,0,0,0.2,0,0.5s0,0.9,0.1,1.5c0.1,1.3,0.3,3.2,0.9,5.5c0.6,2.3,1.7,5,3.3,7.4
								c1.6,2.3,3.5,4,4.7,4.5c0,0,0.6,0.5,1.5,1.3s2.2,1.7,3.4,2.3c1.2,0.7,2.3,1.2,3,1.5c0.8,0.4,1.2,0.6,1.4,0.8
								c0,0,0.1,0,0.2,0.1c0.1,0.1,0.3,0.1,0.5,0.2c0.4,0.2,0.8,0.3,1.5,0.4c0.7,0.1,1.6,0.2,2.9,0.2c1.3,0,2.9-0.1,4.8-0.5"/>
							<path class="st9" d="M143.6,106c0.2-0.4,0.8-1.7,1.4-2.8c0.6-1.1,1.3-2.2,1.8-2.7c0.7-0.8,1.4-1.6,1.9-2.6
								c0.6-1,1-2.2,1.4-3.5c0-0.2-0.1-0.5-0.3-0.6c-1.6-0.7-1.8-2.5-2.9-3.4c-0.5-0.4-1.1-0.6-1.4-1.2c-1.4-3-2.1-6.2-2.6-9.8
								c-0.2-1.5,0-3.1-0.1-4.7c0.1-0.4,0-0.9,0.3-1.1c0.2-0.2,0.5,0.3,0.8,0.5c0.1,0.4,0.1,0.9,0.2,1.4c0.2,1,0.9,1.9,1,2.9
								c0.2,1,0.1,2,0.3,3.1c0.2,0.7,0.4,1.2,0.8,1.8c1,2.2,2,4.3,3.3,6.2c1.3,0.3,1.4,1.9,1.9,2.9c0.1,0.3,0.1,0.7,0.1,1.1
								c0.3,0.9,1.1,1.6,0.6,2.4c-1,1.7-2.1,3-3.1,4.2c-0.4,0.5-1,1.8-1.8,3.1c-0.7,1.3-1.5,2.7-1.7,3.3c-0.7,1.6-0.2,3.5-0.7,5.4
								c0,0.1-0.6-0.3-1-1.3C143.3,109.3,143,107.8,143.6,106z"/>
						</g>
					</g>
				</g>
			</g>
		</g>
	</g>
	<path class="st10" d="M256.7,154.6c0,0-25-0.7-43.2,8.9s-26.1,14.1-26.1,14.1s-22.6,12.3-45.8,12.3s-45.8-12.3-45.8-12.3
		s-7.9-4.5-26.1-14.1s-43.2-8.9-43.2-8.9"/>
	<path class="st10" d="M256.7,192.9c0,0-25-0.7-43.2,8.9c-18.2,9.6-26.1,14.1-26.1,14.1s-22.7,12.3-45.8,12.3s-45.8-12.3-45.8-12.3
		s-7.9-4.5-26.1-14.1s-43.2-8.9-43.2-8.9"/>
	<path class="st10" d="M141.6,58.9c0,0-13.2,14.8-23.2,36s-7.5,29.2-7.5,29.2c0.3,2.7,0.8,5.1,1.5,7.4c9.1,29.1,49.3,29.1,58.3,0
		c0.7-2.2,1.2-4.7,1.5-7.4c0,0,2.4-7.9-7.5-29.2C154.8,73.7,141.6,58.9,141.6,58.9z"/>
</g>
</svg>
