<svg id="Layer_2" data-name="Layer 2" xmlns="http://www.w3.org/2000/svg" viewBox="0 0 119.94 115"><defs><style>.cls-1,.cls-2,.cls-3{fill:none;}.cls-2{stroke:#000;}.cls-2,.cls-3{stroke-miterlimit:10;}.cls-3{stroke:#231f20;}</style></defs><path class="cls-1" d="M75.23,42.44A32.56,32.56,0,0,0,43.55,67.51h3.39v15H43.55a32.55,32.55,0,0,0,63.35,0h-3.84v-15h3.84A32.55,32.55,0,0,0,75.23,42.44Z" transform="translate(-15.03 -17.5)"/><path class="cls-2" d="M131.72,82.48a57,57,0,0,1-113,0H43.55a32.55,32.55,0,0,0,63.35,0Z" transform="translate(-15.03 -17.5)"/><path class="cls-2" d="M131.72,67.51H106.9a32.55,32.55,0,0,0-63.35,0H18.73a57,57,0,0,1,113,0Z" transform="translate(-15.03 -17.5)"/><polyline class="cls-2" points="28.52 64.98 31.91 64.98 31.91 50.01 28.52 50.01"/><polyline class="cls-2" points="3.7 64.98 0.5 64.98 0.5 50.01 3.7 50.01"/><line class="cls-2" x1="28.52" y1="50.01" x2="3.7" y2="50.01"/><line class="cls-2" x1="28.52" y1="64.98" x2="3.7" y2="64.98"/><polyline class="cls-2" points="91.87 64.98 88.03 64.98 88.03 50.01 91.87 50.01"/><polyline class="cls-2" points="116.69 64.98 119.44 64.98 119.44 50.01 116.69 50.01"/><path class="cls-3" d="M86.67,71.08c.1.23-10.32,31.36-10.32,31.36a1.1,1.1,0,0,1-2.09,0s-10.46-31-10.34-31.27c-1.47-.81-2.41-1.85-2.41-2.9s.91-2.09,2.46-2.91a12.77,12.77,0,0,1-.68-4.13c0-6.71,5.12-12.14,11.43-12.14s11.44,5.43,11.44,12.14a12.61,12.61,0,0,1-.55,3.71c2.08.9,3.33,2.06,3.33,3.33C88.94,69.34,88.18,70.26,86.67,71.08Z" transform="translate(-15.03 -17.5)"/><path class="cls-3" d="M71.37,52.3c-.63.45-5.53,2.88-5.09,8.41" transform="translate(-15.03 -17.5)"/><path class="cls-3" d="M63.92,65.21c.88,2.5,5.51,2.53,6.75,1.55" transform="translate(-15.03 -17.5)"/><path class="cls-3" d="M63.84,71.11c2,1.6,4.36.7,4.73-.85,1.58,2.49,3.6,2.86,5.58,1.33a2.46,2.46,0,0,0,.64-.82c.26-.45,1-4.18,2.16-4.33s2.27,4.52,2.6,5.26c.55,1.27,4.16,2.07,4.79-.32s2.09-2.34,2.33-.3" transform="translate(-15.03 -17.5)"/><path class="cls-3" d="M78.71,69.18c-1.29.49-3.49,1.89-5.76,5.4-1.5,2.32-7.25,2.22-7.35,1.92" transform="translate(-15.03 -17.5)"/><path class="cls-3" d="M82.76,72.92c-3,2-4.46,0-7.5,4.44-1.38,2-1.9,3.06-4.11,3.89a6.82,6.82,0,0,1-3.85.39" transform="translate(-15.03 -17.5)"/><path class="cls-3" d="M84.74,77.18c-3.34,1.4-4.72,1.56-6.49,3.5S75.5,85,73.06,85.82s-4.21.5-4.25.37" transform="translate(-15.03 -17.5)"/><path class="cls-3" d="M82.47,84.06a5.75,5.75,0,0,0-4.94,3.48c-1,2.78-4.47,4.64-6.92,4" transform="translate(-15.03 -17.5)"/><path class="cls-3" d="M79.86,91.91c-2.19-.6-2.87,1.93-4.64,3.57a4.11,4.11,0,0,1-3.06.71" transform="translate(-15.03 -17.5)"/><path d="M24.58,76.68a3.61,3.61,0,0,1-.72-.25v-.77a3,3,0,0,0,1.39.42.84.84,0,0,0,.5-.13.42.42,0,0,0,.19-.37.44.44,0,0,0-.11-.29.88.88,0,0,0-.26-.19l-.44-.18a6,6,0,0,1-.64-.28,1.22,1.22,0,0,1-.42-.37,1.09,1.09,0,0,1-.17-.63,1.08,1.08,0,0,1,.39-.88,1.66,1.66,0,0,1,1.07-.31,2.56,2.56,0,0,1,.62.07,2,2,0,0,1,.56.2v.75a2.33,2.33,0,0,0-1.16-.34.94.94,0,0,0-.49.11.36.36,0,0,0-.18.32.37.37,0,0,0,.18.32,2.68,2.68,0,0,0,.57.25,5.53,5.53,0,0,1,.66.29,1.41,1.41,0,0,1,.45.4,1.27,1.27,0,0,1,.2.68,1.19,1.19,0,0,1-.4.93,1.61,1.61,0,0,1-1.08.34A3.07,3.07,0,0,1,24.58,76.68Z" transform="translate(-15.03 -17.5)"/><path d="M27.78,72.52h.79V76.7h-.79Z" transform="translate(-15.03 -17.5)"/><path d="M33.32,72.52V76.7h-.79l-2-2.76V76.7h-.8V72.52h.8l2,2.75V72.52Z" transform="translate(-15.03 -17.5)"/><path d="M35.43,76.5a1.77,1.77,0,0,1-.76-.75,2.43,2.43,0,0,1-.26-1.14,2.35,2.35,0,0,1,.27-1.15,1.83,1.83,0,0,1,.76-.75,2.67,2.67,0,0,1,1.21-.26,3.68,3.68,0,0,1,.58,0,1.92,1.92,0,0,1,.51.18v.73h0a1.69,1.69,0,0,0-.5-.2,2.31,2.31,0,0,0-.5-.07,1.5,1.5,0,0,0-1.08.38,1.45,1.45,0,0,0-.39,1.09,1.42,1.42,0,0,0,.38,1.08,1.45,1.45,0,0,0,1,.38A1.88,1.88,0,0,0,37.2,76a2.71,2.71,0,0,0,.52-.24h0v.74a2.15,2.15,0,0,1-1.13.28A2.42,2.42,0,0,1,35.43,76.5Z" transform="translate(-15.03 -17.5)"/><path d="M39.67,73.22v1h1.8v.65h-1.8V76H41.6v.7H38.88V72.52H41.6v.7Z" transform="translate(-15.03 -17.5)"/><path d="M111.62,76v.7h-2.91V76h1.17V73.44l-.77.34h0l-.16-.51v0l1.19-.73h.56V76Z" transform="translate(-15.03 -17.5)"/><path d="M115,73a2.48,2.48,0,0,1,.4,1.54A2.66,2.66,0,0,1,115,76.2a1.64,1.64,0,0,1-1.35.57,2.14,2.14,0,0,1-.58-.08,1.87,1.87,0,0,1-.54-.25v-.73h0a1.88,1.88,0,0,0,.55.27,1.67,1.67,0,0,0,.57.1.79.79,0,0,0,.66-.28,1.53,1.53,0,0,0,.28-.86,1.53,1.53,0,0,1-.84.23,1.47,1.47,0,0,1-1-.36,1.3,1.3,0,0,1-.38-1,1.48,1.48,0,0,1,.19-.74,1.26,1.26,0,0,1,.54-.48,1.71,1.71,0,0,1,.8-.17A1.39,1.39,0,0,1,115,73Zm-1.7,1.34a.69.69,0,0,0,.51.18,1.41,1.41,0,0,0,.75-.24,1.72,1.72,0,0,0-.21-.85.61.61,0,0,0-.54-.27.67.67,0,0,0-.51.19.74.74,0,0,0,0,1Z" transform="translate(-15.03 -17.5)"/><path d="M116.78,76.61a1.22,1.22,0,0,1-.57-.44,1,1,0,0,1-.21-.63,1,1,0,0,1,.19-.61,1,1,0,0,1,.48-.38.76.76,0,0,1-.43-.36,1.11,1.11,0,0,1-.16-.59,1,1,0,0,1,.19-.61,1.21,1.21,0,0,1,.55-.4,2.27,2.27,0,0,1,1.57,0,1.24,1.24,0,0,1,.54.4,1,1,0,0,1,.2.6,1.1,1.1,0,0,1-.17.59.82.82,0,0,1-.43.37.89.89,0,0,1,.5.39,1.06,1.06,0,0,1,.18.6,1,1,0,0,1-.21.64,1.27,1.27,0,0,1-.57.43,1.94,1.94,0,0,1-.82.16A2,2,0,0,1,116.78,76.61Zm1.4-.67a.54.54,0,0,0,.21-.45.52.52,0,0,0-.21-.45.89.89,0,0,0-.58-.16A.91.91,0,0,0,117,75a.54.54,0,0,0-.2.45.51.51,0,0,0,.2.45.91.91,0,0,0,.58.16A.89.89,0,0,0,118.18,75.94Zm-.05-1.87a.48.48,0,0,0,.19-.41.5.5,0,0,0-.18-.41.94.94,0,0,0-.54-.14.88.88,0,0,0-.53.14.54.54,0,0,0,0,.82,1.07,1.07,0,0,0,1.06,0Z" transform="translate(-15.03 -17.5)"/><path d="M122.18,74.25a1.19,1.19,0,0,1,.49.48,1.4,1.4,0,0,1,.17.68,1.34,1.34,0,0,1-.2.72,1.36,1.36,0,0,1-.58.47,2.13,2.13,0,0,1-.86.16,2.76,2.76,0,0,1-.75-.1,2.24,2.24,0,0,1-.65-.28v-.77h0a2.21,2.21,0,0,0,.65.34,2,2,0,0,0,.7.13,1,1,0,0,0,.62-.18.64.64,0,0,0,.23-.5.62.62,0,0,0-.2-.47.76.76,0,0,0-.53-.18,1.31,1.31,0,0,0-.82.32h0l-.52-.16v0l.27-2.36h2.43v.69h-1.77l-.12,1a1.8,1.8,0,0,1,.72-.16A1.41,1.41,0,0,1,122.18,74.25Z" transform="translate(-15.03 -17.5)"/><path d="M33.35,55.5l-.78,1.66-1-.46,2.07-4.44,1,.46-.77,1.67,4.69,2.18L38,57.67Z" transform="translate(-15.03 -17.5)"/><path d="M37.78,45.77,43,49.27l-.68,1L40,48.75l-1.7,2.53,2.28,1.54-.68,1-5.2-3.49.69-1,2,1.38,1.71-2.54-2-1.37Z" transform="translate(-15.03 -17.5)"/><path d="M41.08,43.53l1.15,1.07,1.89-2,.72.67-1.89,2,1.19,1.11,2-2.19.77.71L44.07,48l-4.59-4.27,2.87-3.08.77.72Z" transform="translate(-15.03 -17.5)"/><path d="M46.14,37.36l1-.74,3.82,5-1,.75Z" transform="translate(-15.03 -17.5)"/><path d="M53.23,39.63a2.78,2.78,0,0,1-1.58-.37A3.38,3.38,0,0,1,50.41,38a3.55,3.55,0,0,1-.53-1.68,2.71,2.71,0,0,1,.42-1.58,4,4,0,0,1,1.39-1.3,5.08,5.08,0,0,1,.81-.4,3.64,3.64,0,0,1,.81-.19l.57.94,0,0A3.28,3.28,0,0,0,53,34a4,4,0,0,0-.72.32,2.38,2.38,0,0,0-1.13,1.35,2.52,2.52,0,0,0,1.67,2.79,2.21,2.21,0,0,0,1.68-.36,2.81,2.81,0,0,0,.63-.52,3.24,3.24,0,0,0,.5-.71l0,0,.58.95A3.6,3.6,0,0,1,55,39,4.08,4.08,0,0,1,53.23,39.63Z" transform="translate(-15.03 -17.5)"/><path d="M56.91,32.07l.61,1.45,2.56-1.09.38.9L57.9,34.42l.64,1.5,2.75-1.17.4,1-3.87,1.65-2.45-5.77L59.25,30l.4,1Z" transform="translate(-15.03 -17.5)"/><path d="M66.75,34a2.78,2.78,0,0,1-1.36-.88,3.57,3.57,0,0,1-.73-1.61,3.46,3.46,0,0,1,.06-1.76,2.75,2.75,0,0,1,1-1.34,4.06,4.06,0,0,1,1.75-.75,4.41,4.41,0,0,1,.89-.09,3.15,3.15,0,0,1,.83.1l.21,1.07h0a3.13,3.13,0,0,0-.81-.14,4,4,0,0,0-.79.05,2.35,2.35,0,0,0-1.52.89,2.11,2.11,0,0,0-.28,1.71,2.14,2.14,0,0,0,.9,1.47,2.19,2.19,0,0,0,1.7.24,2.83,2.83,0,0,0,.77-.27,3.5,3.5,0,0,0,.71-.5h0l.21,1.08a3.48,3.48,0,0,1-1.62.75A3.94,3.94,0,0,1,66.75,34Z" transform="translate(-15.03 -17.5)"/><path d="M75.53,33.24l-1.42-2.32L73,31l.1,2.39-1.22,0-.26-6.26,2.33-.1a3,3,0,0,1,1.89.41,1.69,1.69,0,0,1,.67,1.39A1.94,1.94,0,0,1,76.22,30a1.81,1.81,0,0,1-.88.72l1.53,2.51Zm-2.61-3.32,1.11,0a1.58,1.58,0,0,0,.9-.25.79.79,0,0,0,.26-.71.77.77,0,0,0-.32-.67,1.72,1.72,0,0,0-.92-.16l-1.1.05Z" transform="translate(-15.03 -17.5)"/><path d="M79.83,28.21l-.16,1.56,2.76.29-.1,1-2.77-.29-.16,1.62,3,.31-.1,1-4.19-.44.65-6.23,4.19.44-.11,1Z" transform="translate(-15.03 -17.5)"/><path d="M87.79,33.55l-2.66-.69-.88,1.24-1.18-.31,4-5.44,1.38.36.78,6.68L88,35.07Zm-.11-1.07-.29-2.83L85.75,32Z" transform="translate(-15.03 -17.5)"/><path d="M96.56,38.77l-1.11-.53,2.06-4.3-3.6,3.56L92.76,37l.48-5-2,4.29-1.1-.53L92.79,30l1.73.83-.47,4.92,3.5-3.47,1.71.82Z" transform="translate(-15.03 -17.5)"/><path d="M100.64,41.71a5.75,5.75,0,0,1-.61-1l.73-.89A4.76,4.76,0,0,0,102,41.69a1.32,1.32,0,0,0,.72.34.66.66,0,0,0,.73-.68,1.23,1.23,0,0,0-.13-.47,6.58,6.58,0,0,0-.35-.65,8,8,0,0,1-.49-.95,1.86,1.86,0,0,1-.14-.85,1.75,1.75,0,0,1,1.7-1.52,2.56,2.56,0,0,1,1.57.69,4.5,4.5,0,0,1,.68.7,3.74,3.74,0,0,1,.47.79l-.72.86A3.77,3.77,0,0,0,105,38.41a1.44,1.44,0,0,0-.69-.36.52.52,0,0,0-.51.19.54.54,0,0,0-.09.55,4.49,4.49,0,0,0,.43.86,7.62,7.62,0,0,1,.5,1,1.94,1.94,0,0,1,.15.9A1.86,1.86,0,0,1,103,43.19a2.57,2.57,0,0,1-1.6-.67A4.57,4.57,0,0,1,100.64,41.71Z" transform="translate(-15.03 -17.5)"/><path d="M112.59,44.94,107.84,49l-.8-.93,2.09-1.79-2-2.32L105,45.77l-.79-.92L109,40.76l.8.93-1.87,1.6,2,2.32,1.86-1.6Z" transform="translate(-15.03 -17.5)"/><path d="M109.64,51.25a2.61,2.61,0,0,1,.44-1.5,3.77,3.77,0,0,1,1.31-1.17,3.62,3.62,0,0,1,1.67-.53,2.62,2.62,0,0,1,1.52.38,3.84,3.84,0,0,1,1.69,3,2.61,2.61,0,0,1-.44,1.5,3.67,3.67,0,0,1-1.31,1.17,3.76,3.76,0,0,1-1.67.54,2.62,2.62,0,0,1-1.52-.39,3.52,3.52,0,0,1-1.19-1.28A3.45,3.45,0,0,1,109.64,51.25Zm2.62,2a2.26,2.26,0,0,0,1.62-.35A2.34,2.34,0,0,0,115,51.72a1.76,1.76,0,0,0-.21-1.46,1.73,1.73,0,0,0-1.16-.92,2.28,2.28,0,0,0-1.62.36,2.32,2.32,0,0,0-1.14,1.22,1.76,1.76,0,0,0,.21,1.46A1.73,1.73,0,0,0,112.26,53.3Z" transform="translate(-15.03 -17.5)"/><path d="M118.21,54.8l.72,2a3.24,3.24,0,0,1,.19,2A1.86,1.86,0,0,1,117.91,60a2,2,0,0,1-1.7-.08A2.86,2.86,0,0,1,115,58.34l-.34-1-2,.71-.41-1.15ZM116,57.89a1.75,1.75,0,0,0,.58.88,1,1,0,0,0,.88,0,.94.94,0,0,0,.64-.58,1.83,1.83,0,0,0-.14-1l-.31-.86-2,.71Z" transform="translate(-15.03 -17.5)"/><path d="M42,99.53l-1.27.76,1.07,1.78-.75.45L40,100.75l-2,1.18-.55-.91,4.77-2.87,1.89,3.13-.8.48Z" transform="translate(-15.03 -17.5)"/><path d="M42.34,108l.94-2.22-.63-.77L41,106.33l-.67-.82,4.33-3.5,1.26,1.56a2.58,2.58,0,0,1,.69,1.53,1.55,1.55,0,0,1-.64,1.21,1.92,1.92,0,0,1-.94.42,1.57,1.57,0,0,1-1-.23l-1,2.39Zm1-3.57.6.74a1.35,1.35,0,0,0,.63.5.76.76,0,0,0,.65-.2.7.7,0,0,0,.31-.57,1.53,1.53,0,0,0-.36-.73l-.6-.74Z" transform="translate(-15.03 -17.5)"/><path d="M48.3,107.53l-.95,1,1.76,1.63-.6.64-1.75-1.63-1,1.06L47.66,112l-.63.68-2.66-2.47,3.79-4.08,2.66,2.47-.64.68Z" transform="translate(-15.03 -17.5)"/><path d="M49.23,114.36a4.59,4.59,0,0,1-.59-.82l.59-.83a4,4,0,0,0,1.19,1.52,1.14,1.14,0,0,0,.64.24.6.6,0,0,0,.5-.26.55.55,0,0,0,.1-.39,1,1,0,0,0-.13-.41c-.08-.13-.19-.31-.35-.54a7.28,7.28,0,0,1-.48-.79,1.78,1.78,0,0,1-.17-.73,1.62,1.62,0,0,1,1.4-1.48,2.18,2.18,0,0,1,1.4.48,4.2,4.2,0,0,1,.63.56,2.85,2.85,0,0,1,.46.65l-.58.82a3.2,3.2,0,0,0-1-1.27,1.24,1.24,0,0,0-.62-.25.47.47,0,0,0-.44.2.48.48,0,0,0,0,.49,3.75,3.75,0,0,0,.42.72,6.74,6.74,0,0,1,.49.82,1.66,1.66,0,0,1,.18.78,1.51,1.51,0,0,1-.3.89,1.53,1.53,0,0,1-1.15.7,2.16,2.16,0,0,1-1.43-.45A4.27,4.27,0,0,1,49.23,114.36Z" transform="translate(-15.03 -17.5)"/><path d="M60.08,114.28l-2.49,5-1-.47,1.1-2.19-2.36-1.18-1.1,2.19-1-.47,2.5-5,.94.47-1,2,2.37,1.18,1-2Z" transform="translate(-15.03 -17.5)"/><path d="M68,116.59,66.64,122l-1-.25.58-2.38-2.57-.62L63,121.13l-1-.24,1.31-5.42,1,.25-.52,2.13,2.57.62.51-2.12Z" transform="translate(-15.03 -17.5)"/><path d="M70.08,122.19a2.21,2.21,0,0,1-.87-1.06,3.43,3.43,0,0,1-.23-1.54,3.47,3.47,0,0,1,.42-1.51,2.33,2.33,0,0,1,1-.94,3.06,3.06,0,0,1,1.49-.26,2.92,2.92,0,0,1,1.44.45,2.31,2.31,0,0,1,.88,1,3.62,3.62,0,0,1,.22,1.55,3.39,3.39,0,0,1-.42,1.5,2.32,2.32,0,0,1-1,.95,3,3,0,0,1-1.49.25A2.85,2.85,0,0,1,70.08,122.19Zm2.72-1a2.07,2.07,0,0,0,.52-1.38,2.12,2.12,0,0,0-.34-1.44,1.68,1.68,0,0,0-2.37-.14,2.05,2.05,0,0,0-.52,1.38,2,2,0,0,0,.35,1.43,1.47,1.47,0,0,0,1.15.57A1.5,1.5,0,0,0,72.8,121.24Z" transform="translate(-15.03 -17.5)"/><path d="M82.67,121.86l-1,.14-.55-4.2-.91,4.39-1.1.14-2-4,.55,4.19-1,.14-.73-5.53,1.64-.21,2,3.9.88-4.28,1.62-.21Z" transform="translate(-15.03 -17.5)"/><path d="M84.57,116.5l.41,1.33,2.29-.71.26.83-2.29.71.43,1.38,2.46-.76.27.89-3.47,1.07-1.64-5.32,3.46-1.07.28.89Z" transform="translate(-15.03 -17.5)"/><path d="M96,116.62l-.94.48-1.93-3.77.62,4.44-1,.5-3.26-3.08L91.42,119l-.94.48-2.53-5,1.48-.76,3.18,3L92,112.4l1.45-.74Z" transform="translate(-15.03 -17.5)"/><path d="M99.84,112.24,98,113.68l.4,1.29-.83.64-1.72-5.7,1-.75,5.07,3.13L101,113Zm-.8-.52-2.12-1.35.75,2.4Z" transform="translate(-15.03 -17.5)"/><path d="M101.69,105a2.3,2.3,0,0,1,1.35,0,3.15,3.15,0,0,1,1.29.78,3.24,3.24,0,0,1,.86,1.25,2.19,2.19,0,0,1,.06,1.34,3,3,0,0,1-.76,1.31l-1.41,1.49-4-3.81,1.41-1.5A3.14,3.14,0,0,1,101.69,105Zm2.59,2.83a2,2,0,0,0-.71-1.26,2,2,0,0,0-1.3-.63,1.49,1.49,0,0,0-1.15.54l-.69.73,2.69,2.53.69-.73A1.5,1.5,0,0,0,104.28,107.8Z" transform="translate(-15.03 -17.5)"/><path d="M104.4,102.49l1.15.79,1.36-2,.72.49-1.37,2,1.19.82,1.47-2.12.76.53-2.06,3L103,102.83l2.06-3,.77.53Z" transform="translate(-15.03 -17.5)"/></svg>