<?xml version="1.0" encoding="utf-8"?>
<!-- Generator: Adobe Illustrator 22.1.0, SVG Export Plug-In . SVG Version: 6.00 Build 0)  -->
<svg version="1.1" id="Calque_1" xmlns="http://www.w3.org/2000/svg" xmlns:xlink="http://www.w3.org/1999/xlink" x="0px" y="0px"
	 viewBox="0 0 288 288" style="enable-background:new 0 0 288 288;" xml:space="preserve">
<style type="text/css">
	.st0{display:none;fill:#6B1E1E;}
	.st1{fill:#FFFFFF;}
	.st2{clip-path:url(#SVGID_2_);}
	.st3{clip-path:url(#SVGID_4_);}
	.st4{opacity:0.9;clip-path:url(#SVGID_6_);}
	.st5{opacity:0.9;clip-path:url(#SVGID_8_);}
	.st6{clip-path:url(#SVGID_10_);fill:#EEC7B3;}
	.st7{opacity:0.9;clip-path:url(#SVGID_10_);}
	.st8{clip-path:url(#SVGID_12_);fill:#DA7F63;}
	.st9{clip-path:url(#SVGID_10_);fill:#E0957A;}
	.st10{clip-path:url(#SVGID_10_);fill:#E7AE96;}
	.st11{clip-path:url(#SVGID_10_);fill:#F4DCCE;}
	.st12{clip-path:url(#SVGID_10_);fill:none;stroke:#E5A88F;stroke-width:0;}
	.st13{clip-path:url(#SVGID_10_);fill:#FBF1EB;}
	.st14{opacity:0.9;clip-path:url(#SVGID_14_);}
	.st15{clip-path:url(#SVGID_16_);fill:#EEC7B3;}
	.st16{opacity:0.9;clip-path:url(#SVGID_16_);}
	.st17{clip-path:url(#SVGID_18_);fill:#DA7F63;}
	.st18{clip-path:url(#SVGID_16_);fill:#E0957A;}
	.st19{clip-path:url(#SVGID_16_);fill:#E7AE96;}
	.st20{clip-path:url(#SVGID_16_);fill:#F4DCCE;}
	.st21{clip-path:url(#SVGID_16_);fill:none;stroke:#E5A88F;stroke-width:0;}
	.st22{clip-path:url(#SVGID_16_);fill:#FBF1EB;}
	.st23{opacity:0.9;clip-path:url(#SVGID_20_);}
	.st24{clip-path:url(#SVGID_22_);fill:#EEC7B3;}
	.st25{opacity:0.9;clip-path:url(#SVGID_22_);}
	.st26{clip-path:url(#SVGID_24_);fill:#DA7F63;}
	.st27{clip-path:url(#SVGID_22_);fill:#E0957A;}
	.st28{clip-path:url(#SVGID_22_);fill:#E7AE96;}
	.st29{clip-path:url(#SVGID_22_);fill:#F4DCCE;}
	.st30{clip-path:url(#SVGID_22_);fill:none;stroke:#E5A88F;stroke-width:0;}
	.st31{clip-path:url(#SVGID_22_);fill:#FBF1EB;}
	.st32{clip-path:url(#SVGID_6_);fill:none;stroke:#272525;stroke-width:1.3264;stroke-linejoin:round;stroke-miterlimit:10;}
	.st33{clip-path:url(#SVGID_6_);fill:none;stroke:#272525;stroke-width:1.3264;stroke-miterlimit:10;}
</style>
<rect x="-11" y="-13" class="st0" width="309" height="320"/>
<g>
	<path class="st1" d="M102.7,6.3l2.2-0.6l17.8,24l-2.8,0.7l-5.6-7.5l-12,3l-1.3,9.2l-2.8,0.7L102.7,6.3z M113.2,21l-8.7-11.9
		l-2.2,14.6L113.2,21z"/>
	<path class="st1" d="M133.6,11.1c-1.8,0.2-3.3,0.9-4.5,1.9s-2,2.4-2.4,4.1l1.2,12.5l-2.6,0.3l-1.9-20.1l2.5-0.2l0.5,4.8
		c0.6-1.6,1.5-2.9,2.7-3.9c1.2-1,2.5-1.6,3.9-1.7c0.2,0,0.4,0,0.5,0L133.6,11.1z"/>
	<path class="st1" d="M137.9,4.5l-0.1-3.9l2.6,0l0.1,3.9L137.9,4.5z M138.3,29L138,8.7l2.6,0l0.3,20.2L138.3,29z"/>
	<path class="st1" d="M154.7,30c-1.5-0.1-2.8-0.6-4-1.2s-2.2-1.5-3-2.6s-1.4-2.2-1.8-3.6c-0.4-1.3-0.5-2.7-0.3-4.1
		c0.1-1.4,0.5-2.7,1.2-3.9c0.6-1.2,1.4-2.2,2.4-3.1c1-0.9,2.1-1.5,3.4-1.9c1.3-0.4,2.7-0.6,4.1-0.4c1.5,0.1,2.8,0.6,4,1.2
		c1.2,0.7,2.1,1.5,2.9,2.6c0.8,1,1.4,2.2,1.7,3.5c0.4,1.3,0.5,2.6,0.3,4c0,0.2,0,0.4-0.1,0.6c0,0.2,0,0.3-0.1,0.4l-17.2-1.7
		c0,1.1,0.1,2.1,0.5,3.1c0.3,1,0.8,1.8,1.4,2.5c0.6,0.7,1.3,1.3,2.1,1.8c0.8,0.5,1.7,0.7,2.7,0.8c0.6,0.1,1.3,0,2-0.1
		c0.7-0.1,1.3-0.3,1.9-0.6c0.6-0.3,1.1-0.6,1.6-1c0.5-0.4,0.9-0.9,1.2-1.4l2.2,0.8c-0.4,0.7-0.9,1.3-1.5,1.9c-0.6,0.5-1.3,1-2.1,1.4
		c-0.8,0.4-1.7,0.6-2.6,0.8C156.6,30.1,155.7,30.1,154.7,30z M163.3,19.2c0-1.1-0.1-2.1-0.5-3s-0.8-1.8-1.4-2.5
		c-0.6-0.7-1.3-1.3-2.1-1.7c-0.8-0.4-1.7-0.7-2.7-0.8c-1-0.1-1.9,0-2.8,0.3c-0.9,0.3-1.7,0.7-2.5,1.3c-0.7,0.6-1.3,1.3-1.8,2.2
		s-0.8,1.8-1,2.9L163.3,19.2z"/>
	<path class="st1" d="M174,33.5c-1.5-0.4-3-1-4.3-1.9s-2.4-1.9-3.2-3.2l1.6-1.4c0.9,1.2,1.8,2.2,2.8,2.9c1,0.7,2.2,1.3,3.5,1.6
		c1.6,0.4,2.9,0.4,4,0c1.1-0.4,1.8-1.2,2.1-2.4c0.1-0.6,0.1-1,0-1.5c-0.2-0.4-0.4-0.8-0.9-1.2c-0.4-0.4-1-0.8-1.7-1.2
		s-1.5-0.8-2.4-1.3c-1.1-0.6-2-1.1-2.7-1.6c-0.8-0.5-1.4-1-1.8-1.5c-0.4-0.5-0.7-1-0.9-1.6c-0.1-0.6-0.1-1.3,0.1-2
		c0.3-1,0.7-1.8,1.3-2.4c0.6-0.7,1.3-1.1,2.1-1.4c0.8-0.3,1.7-0.5,2.6-0.5c1,0,1.9,0.1,2.9,0.4c1.5,0.4,2.8,1,3.9,1.8
		c1.1,0.8,1.9,1.7,2.5,2.7l-1.6,1.2c-0.5-0.9-1.3-1.7-2.2-2.4c-0.9-0.6-2-1.1-3.1-1.4c-0.7-0.2-1.3-0.3-1.9-0.3
		c-0.6,0-1.2,0.1-1.7,0.3c-0.5,0.2-1,0.5-1.3,0.9c-0.4,0.4-0.6,0.9-0.8,1.5c-0.1,0.5-0.2,1-0.1,1.3c0.1,0.4,0.3,0.7,0.6,1.1
		s0.8,0.7,1.4,1s1.3,0.7,2.1,1.2c1.2,0.6,2.2,1.2,3.1,1.8s1.6,1.1,2.1,1.7c0.5,0.6,0.9,1.2,1.1,1.8c0.2,0.7,0.2,1.4-0.1,2.2
		c-0.5,1.8-1.5,3.1-3.2,3.7S176.4,34.1,174,33.5z"/>
</g>
<circle class="st1" cx="141.6" cy="157" r="128"/>
<g>
	<g>
		<defs>
			<rect id="SVGID_1_" x="-49.4" y="-68" width="382" height="382"/>
		</defs>
		<clipPath id="SVGID_2_">
			<use xlink:href="#SVGID_1_"  style="overflow:visible;"/>
		</clipPath>
		<g class="st2">
			<defs>
				<rect id="SVGID_3_" x="-49.4" y="-68" width="382" height="382"/>
			</defs>
			<clipPath id="SVGID_4_">
				<use xlink:href="#SVGID_3_"  style="overflow:visible;"/>
			</clipPath>
			<g class="st3">
				<defs>
					<rect id="SVGID_5_" x="-49.4" y="-68" width="382" height="382"/>
				</defs>
				<clipPath id="SVGID_6_">
					<use xlink:href="#SVGID_5_"  style="overflow:visible;"/>
				</clipPath>
				<g class="st4">
					<g>
						<defs>
							<rect id="SVGID_7_" x="77.2" y="129.1" width="66.4" height="121.1"/>
						</defs>
						<clipPath id="SVGID_8_">
							<use xlink:href="#SVGID_7_"  style="overflow:visible;"/>
						</clipPath>
						<g class="st5">
							<g>
								<defs>
									<rect id="SVGID_9_" x="77.2" y="129.1" width="66.4" height="121.1"/>
								</defs>
								<clipPath id="SVGID_10_">
									<use xlink:href="#SVGID_9_"  style="overflow:visible;"/>
								</clipPath>
								<path class="st6" d="M87.7,145.3c-1.4-0.1-3,2.3-4,5c-1,2.8-1.3,5.4-1.6,6.1c-0.6,1.4-0.6,3.7-0.1,6.2
									c0.5,2.4,1.5,5,2.5,7.2c1,2.2,2.1,4,2.8,5.3c0.7,1.3,1.1,2.2,0.8,2.3c-0.9,0.2-3,1.7-5,3.4c-1.9,1.7-3.6,3.6-3.5,4.4
									c0.2,4.1,2.9,7.3,6.7,9.2c1.7,1,2.6,0.9,2.6,1.6c0.1,0.3,3.3-0.2,5.6,0.9c1.5,0.8,1.9,2.6,3.5,3.2c1.3,0.7,3.2,2.5,5.1,4.3
									c1.9,1.8,3.6,3.5,4.6,4.3c3.9,3.1,5.2,4.9,5.6,8.5c-0.1,2.7,1.5,4.4,1.9,7.1c0.6,2.7,1.5,4.6,2,7.4c0,2.8,0.2,5.4,1.1,8.2
									c0.2,0.4,0.4,0.7,0.8,0.9c0.4,0.2,0.5,1,0.7,1.3c0.1,2.5-1,5-0.1,7.2c0.2,0.6,1.2,1.3,1.9,1c3.3-1.9,5.5-4.4,7.3-7.1
									c1.7-2.5,1-5,0.9-7.7c-0.2-3.7,3.4-7.4,7.1-10.4c2.9-2.2,7.7-4.6,6.5-8c-1.8-4-5.6-6.9-6.1-12c-0.2-3.6-0.4-6.5-1.3-9.4
									c0-0.5-0.2-2.2-0.4-2.7c-0.9-1.3-1.5-2.7-2.2-3.8c-0.8-1.1-1.7-1.8-3.5-1.9c-2.2-2-1.6-3.8-4.5-4.9c-3.9-1.4-8.2-2.9-10.1-6
									c-1.2-1.7-1.8-3.5-1.8-5.5c-0.1-0.7,2.2-3.9,3-4.8c1.4-1.7-0.2-3.1-1.7-3.9c-2.9-1.2-4.9-2.7-6.3-4.5
									c-0.2-0.7,0.7-1.2,0.7-1.9c-0.2-0.8-0.7-1.4-1.3-2.2c-0.6-0.8-1.1-1.6-1.4-2.5c0.2-2.8,0.5-4.1,0.4-4.9c0-0.8-0.4-1-0.2-1
									c0.4-0.4,1.8,0.8,2.4,0.8c0.7-0.2,0.9-1.4,1.2-2.6c0.4-1.7,1.5-3.5,3-4.5c1.5-1.1,3.4-1.5,5.1-0.6c-0.2-0.4-0.3-0.9-0.5-1
									c-2.6-1.1-5-2.6-8-3.2c-1.5-0.3-3.1-0.4-4.7-0.1c-1.6,0.3-3.3,1.1-4.7,2.3c-0.4,0.7-0.8,1.6-1.3,2.2c-1,1.1-1.7,2.2-2.3,3.4
									c-0.6,0.9-2.3,1.6-4.2,2.3C91,144.8,88.9,145.4,87.7,145.3"/>
								<g class="st7">
									<g>
										<defs>
											<rect id="SVGID_11_" x="94.5" y="192.5" width="35.4" height="57.7"/>
										</defs>
										<clipPath id="SVGID_12_">
											<use xlink:href="#SVGID_11_"  style="overflow:visible;"/>
										</clipPath>
										<path class="st8" d="M129.8,235.3c0.1,2.7,0.8,5.2-0.9,7.7c-1.8,2.7-4,5.2-7.3,7.1c-0.7,0.4-1.6-0.3-1.9-1
											c-0.9-2.2,0.2-4.7,0.1-7.2c-0.2-0.4-0.3-1.1-0.7-1.3c-0.4-0.2-0.6-0.5-0.8-0.9c-0.8-2.8-1.1-5.4-1.1-8.2
											c-0.5-2.9-1.4-4.7-2-7.4c-0.4-2.7-1.9-4.3-1.9-7c-0.3-3.5-1.7-5.4-5.6-8.5c-1-0.8-2.8-2.5-4.6-4.3
											c-1.9-1.8-3.8-3.6-5.1-4.3c-1.7-0.6-2-2.4-3.5-3.2c0,0,0.8-1.5,2.1-4.3c3.6,2.7,7.3,5.2,11,7.5c3.7,2.3,7.5,4.2,11.2,6.5
											c1.3,2.2,2.5,4.6,3.6,7c1.1,2.4,2,4.9,2.9,7.3C127,225.8,128.3,230.6,129.8,235.3"/>
									</g>
								</g>
								<path class="st9" d="M97.4,195.4c0,0-2.6-1.8-4.2-3.8c-1.6-2.1-2.3-4.4,1.2-5.2c0,0,4.8,0.5,9.9,1.3
									c5.1,0.8,10.5,1.8,11.8,4.1c0,0,0.5,0.8,1.1,1.8c0.6,1,1.4,2.2,2.1,3c0,0-0.2,1.1,0,2.6c0.3,1.5,1,3.4,2.9,4.9
									c0,0,0.8,0.8,1.9,2.2c1.1,1.4,2.6,3.4,4,5.6c2.7,4.4,4.5,9.1,3.5,10c0,0,0.2,1.9,0.3,4c0,2.1-0.2,4.4-0.8,5.5
									c0,0-4.1,3.9-2.8,6.8c0,0-2.5,10.5-4.6,6.1c0,0-1.9-2.4-2.5-3.7c0,0-0.8-5.1-1.5-10.3c-0.6-5.2-1.5-10.4-1-11.3
									c0,0-0.1-1.4-0.6-3.6c-0.5-2.2-1.6-5.1-3.3-7.9c-1.7-2.8-4-5.6-6.8-7.8C105.1,197.5,101.7,195.9,97.4,195.4"/>
								<path class="st10" d="M95.5,195.9c0,0-2.5-0.8-4.6-2.4c-2-1.6-3.6-4-1.6-6.8c0,0,0.6-3.2,2-6.2c1.4-2.9,3.5-5.5,6-4.6
									c0,0,4.9,1.8,10.4,4.2c5.5,2.5,11.6,5.4,14.1,9.4c0,0,0.1,0.2,0.6,0.5c0.5,0.3,1.4,0.7,3.1,0.9c0,0,1.2,0.8,2.2,2.1
									c1,1.3,1.9,3.2,0.9,5.3c0,0-0.1,2.2,0,4.9c0.2,2.7,0.6,5.9,1.7,7.4c0,0-0.4,1-0.5,2.1c-0.1,1.1-0.1,2.4,0.9,3.1
									c0,0-0.8-1.1-1.9-2.6c-1.2-1.6-2.8-3.8-4.4-5.8c-3.2-4.1-6.2-8-5.2-9.7c0,0,0-0.5-0.2-1.4c-0.2-0.8-0.7-1.9-1.6-3
									c-1.8-2.2-5.3-4.6-12.7-5.9c0,0-2.4,0.3-4.8,1.5C97.5,190.2,95.1,192.3,95.5,195.9"/>
								<path class="st11" d="M84.2,194.1c-1.6-0.8-3.6-1.4-5.1-2.5c-0.7-0.6-0.9-1.8-1.5-2.6c-0.6-1.1-0.3-2.6-0.2-3.5
									c1.6-4.7,0-10.5,3-15c0.3-0.7,0.4-1.2,0.4-1.8c-0.2-0.1-0.6-0.8-0.8-0.9c-0.5-2-0.5-4.1-1-6.2c-1-3.4,0.7-7.2,2.9-10.4
									c1.1-1.9,2.2-4,3.6-5.8c1.2-1.6,2.8-1.9,4.4-2.2c1.6-0.3,3-0.5,4.1-1.6c1.9-1.7,3-3.7,4.5-5.6c1.5-1.9,3.6-3.8,6.2-4.3
									c3.1-0.3,5.6-0.3,8,0.8c1.8,1.1,3.5,1.8,5.1,3c0.4,0.2,1.2,1.8,1.2,2.2c-0.2,0.5-1,0.2-1.6,0.4c-1.4,0.7-2.1-1.4-3.2-2.2
									c-1.3-0.8-2.9-0.1-4.6,0c-0.7-0.1-1.3-0.4-2.2-0.7c-1.2-0.7-2.4,0.6-3.4,1.6c-0.6,0.7-1.4,1-2.3,1.4
									c-0.9,0.4-1.8,0.8-2.4,1.5c-0.9,0.9-1.1,2.2-1.3,3.3c-0.2,1.1-0.4,2-1.2,2.7c0.8-0.5,0,1-0.6,2.6c-0.7,1.5-1.3,3.2-1.3,2.3
									c0.1,0.2-0.8,0.5-1.3,0.5c-0.3-0.1-0.9-0.1-1-0.3c-0.9-1.6-3-2.1-4.5-3.1c-0.1,0.1-0.6,1.5-1.2,3.1c-0.6,1.7-1.2,3.6-2,4.6
									c-1.3,1.6-2.7,3.1-2.8,5.3c0.1,0.5,1,0.7,1.2,1.3c0.1,0.6,2.2,4.3,4.6,7.1c2.3,2.9,4.7,5.4,4.6,6.2c-0.2,0.9-1.1,2.2-2,2.2
									c-2.4,0.5-3,2.2-4.8,3.3c-0.5,0.2-1.2,0.1-1.7,0.4c-1.3,0.9-2.7,2.2-2.6,3.2c-0.4,1.9,0,3.9,1,5.2
									C83.1,191,83.6,192.6,84.2,194.1"/>
								<path class="st12" d="M141.7,214.1c0,0-1.3-1.3-2.5-3.5c-1.2-2.2-2.4-5.7-2.1-9.6c0,0-0.2-1.5-0.4-3c-0.3-1.5-0.6-3.1-1-3.5
									l-0.1-1.7c0,0-0.8-1.7-1.8-3.1c-1-1.4-2.3-2.6-3.8-2.4c0,0-0.6-0.5-1.1-1.1c-0.5-0.6-1-1.3-0.9-1.6c0,0-0.2-0.6-0.9-1.2
									c-0.8-0.7-2.2-1.4-4.7-2"/>
								<path class="st13" d="M77.3,158.4c0.2-0.9,0.9-3.6,2.2-6.3c1.2-2.8,2.9-5.5,4-6.4c3.3-3.1,6.9-5.3,10.9-6.6
									c0.3-0.2,0.7-0.5,0.7-0.9c0.1-1.3,0.9-2.3,1.8-3.2c0.9-0.9,1.9-1.6,2.7-2.6c0.7-0.8,1.2-1.8,2.2-2.2
									c2.7-1.1,5.4-1.3,7.8-0.8c2.4,0.4,4.4,1.4,6.1,2.6c1.5,1.1,2.6,2.7,3.8,4.1c0.2,0.4,0.6,0.8,0.5,1.3c0,0.4-0.5,0.1-0.8,0.3
									c-0.4-0.2-0.6-0.8-1.1-1.1c-0.9-0.7-2-0.8-2.9-1.6c-1-0.7-1.8-1.6-3-2c-0.8-0.2-1.5-0.3-2.3-0.3c-3-0.1-6.3,0.8-8.9,2.9
									c-0.3,1.8-2.3,2.3-3.3,3.4c-0.3,0.3-0.8,0.5-1.3,0.8c-0.9,1-1.2,2.5-2.4,2.8c-2.7,0.6-5.3,1.7-7.5,3.7
									c-0.9,0.8-2.7,3.2-4.1,5.9c-1.4,2.6-2.3,5.4-2.5,6.5c-0.7,3,0.5,5.7,0.5,8.3c0,0.1-0.9-0.2-1.7-1.4
									C77.7,164.4,76.9,162.2,77.3,158.4"/>
							</g>
						</g>
					</g>
				</g>
				<g class="st4">
					<g>
						<defs>
							<rect id="SVGID_13_" x="136.5" y="86.3" width="97.6" height="125.2"/>
						</defs>
						<clipPath id="SVGID_14_">
							<use xlink:href="#SVGID_13_"  style="overflow:visible;"/>
						</clipPath>
						<g class="st14">
							<g>
								<defs>
									<rect id="SVGID_15_" x="136.5" y="86.3" width="97.6" height="125.2"/>
								</defs>
								<clipPath id="SVGID_16_">
									<use xlink:href="#SVGID_15_"  style="overflow:visible;"/>
								</clipPath>
								<path class="st15" d="M179.3,179c1,1.1,5.4,0.4,9.8-1.1c4.4-1.5,8.7-3.9,9.8-4.3c2.4-0.9,6-3.4,9.5-7.1
									c1.8-1.9,3.5-4,5.1-6.4c1.6-2.4,3-5,4.2-7.6c2.3-5.2,3.4-10.4,3.9-14.2c0.5-3.8,0.4-6.3,0.8-6.3c0.4,0.1,1.3-0.3,2.4-1.1
									c1.1-0.8,2.4-2.1,3.5-3.7c1.2-1.6,2.1-3.5,2.8-5.3c0.6-1.9,0.9-3.7,0.7-4.9c-0.8-6.4-3.7-12.6-7.4-17.2
									c-3.8-4.6-8.4-7.8-12.8-9.6c-4.3-1.9-5.3-1.4-6.7-2.6c-0.3-0.2-1.4,0-3,0.3c-1.6,0.2-3.8,0.4-6.4,0.2
									c-3.6-0.5-7.8-2.1-11.1-1.5c-0.8,0.1-1.7,0.1-2.9,0.2c-1.1,0.1-2.4,0.1-3.7,0.3c-2.7,0.3-5.7,0.7-8.6,1.5
									c-2.9,0.7-5.8,1.7-8.2,2.8c-2.4,1.1-4.4,2.3-5.7,3.2c-2.4,1.7-4.3,3.5-6,5.2c-1.6,1.7-3,3.3-4.2,4.9
									c-2.4,3.2-4.4,6.3-6.3,10.5c-1.6,3.1-2.1,6.4-2,9.7c0.1,3.3,0.8,6.6,2,10.2c1.4,3.8,3.7,6.7,6.2,8.9
									c2.6,2.3,5.5,4.1,9.2,5.5c3.4,1.6,7.2,2.5,11.2,2.2c4-0.2,8.2-1.7,11.8-4.6c0.8-0.9,1.7-1.7,2-2.6c0.4-0.8,1.8-2.4,2.3-3.5
									c2.1-2.7,3.8-5.6,4.9-8.8c1.1-3.2,1.5-6.9,0.4-10.5c-0.5-2.1-2.5-4.6-2.9-3.7c-1.1,2.2-1.9,4.5-3.1,6.6
									c-1.1,2.2-2.5,4.2-4.1,5.9c-1.5,1.6-2.7,3.2-4.1,4.6c-1.3,1.5-3,2.7-4.7,3.4c-1.3,0.4-2.5,0.4-3.6,0
									c-0.5-0.2-1.1-0.6-1.5-0.9c-0.5-0.4-0.9-0.8-1.2-1.3c-1.4-1.9-1.7-4.5-1.3-6.7c0.2-0.9,0.5-1.8,0.9-2.7
									c0.4-0.9,0.9-1.8,1.4-2.5c0.1-0.2,0.3-0.4,0.4-0.5c0.1-0.1,0,0,0,0l-0.1,0.1c-0.1,0.1-0.2,0.3-0.4,0.4
									c-0.3,0.3-0.8,0.7-1.4,1.1c-0.2,0.1-0.3,0.2-0.5,0.3l-0.3,0.1l2.5-1.2c0.1-0.1,0.1-0.1,0.3-0.1c0.2-0.1,0.3-0.1,0.4-0.1
									c0.1,0,0.4-0.1,0.5-0.1l0.3,0c0,0,0.1,0,0.1,0l0,0c-0.1,0-0.2,0-0.2,0l-0.2-0.1c-0.6-0.3-0.7-1.4,0.5-1.8
									c0.8-0.3,1.6-0.3,2.2-0.1c0.5,0.2,1.1,0.3,1.7,0.3c0.3,0.1,1.1,0.3,1.3,0.3c0.6-0.5,1.6-0.6,2.7-0.9
									c1.1-0.3,2.1-0.8,3.1-2.4c1.5-0.4,2.5-0.2,3.6,0c1,0.2,2,0.3,3.6-0.1c2.1-0.6,4.5-1,6.8-0.7c2.2,0.3,4.4,1.3,5.7,3.1
									c0.7,1,1.2,2,1.5,3.2c0.2,1.2,0.2,2.4-0.1,3.7c-0.1,0.5-0.9,1.5-2,2.3c-0.5,0.4-1.1,0.8-1.6,1.1c-0.5,0.3-1,0.6-1.3,0.7
									c-1.1,0.5-1.6,1.4-1.8,2.4c-0.2,1-0.2,2.3-0.1,3.4c0.4,1.8,0.2,3.9-0.5,5.9c-0.6,2-1.7,4-3.3,5.9c-1.3,1.2-3.1,1.3-4.8,2.3
									c-3.8,2.6-6.2,5.9-10.4,8.3c-2.1,0.9-4.1,1.7-5.8,2.5c-0.9,0.4-1.7,0.8-2.5,1.2c-0.4,0.2-0.7,0.4-1.1,0.6
									c-0.4,0.2-0.8,0.4-1.1,0.6c-2.7,1.6-4.1,2.9-4.9,3.8c-1.5,1.8-0.8,1.7-1.3,1.9c-0.1,0.1-0.1,0.1-0.2,0.2
									c-1.7,1.3-3.6,0.7-5.8,2.8c-1.4,1.6-2.4,3.4-3,5.3c-0.6,1.8-0.7,3.6-0.7,5c0,8.2,2.9,15.6,1.6,23.6c0.4-0.5,0.9-0.7,0.9-1.2
									c0.9-5.6,2.6-10.6,4.8-14.8c0.5-1.1,1.1-2.1,1.7-3.1c0.6-0.9,1.2-1.9,1.8-2.7c1.3-1.8,2.6-3.5,4.2-5.2c0.3-0.5,0.6-1,1-1.6
									c0.3-0.4,0.6-0.7,1-1c1.7-1.1,3.2-2,5-2.9c1.6-0.7,4.3-0.3,6.9,0.4C175.8,177.1,178.3,178.1,179.3,179"/>
								<g class="st16">
									<g>
										<defs>
											<rect id="SVGID_17_" x="136.5" y="86.3" width="64.2" height="65.5"/>
										</defs>
										<clipPath id="SVGID_18_">
											<use xlink:href="#SVGID_17_"  style="overflow:visible;"/>
										</clipPath>
										<path class="st17" d="M167.9,138.6c1.8-0.6,3.4-1.9,4.8-3.3c1.4-1.5,2.6-3,4.1-4.6c1.6-1.7,3-3.7,4.1-5.9
											c1.2-2.2,2.1-4.5,3.2-6.6c0.4-0.9,2.4,1.6,2.9,3.7c1,3.7,0.6,7.3-0.5,10.5c-1.1,3.2-2.9,6.1-5,8.8
											c-0.3,0.5-0.8,1.2-1.2,1.8c-0.5,0.6-1,1.2-1.1,1.6c-0.3,0.8-1.2,1.7-2,2.6c-3.6,2.9-7.9,4.3-11.9,4.5
											c-4,0.2-7.8-0.7-11.2-2.3c-3.7-1.5-6.6-3.3-9.2-5.6c-2.5-2.3-4.8-5.2-6.2-9c-1.2-3.6-1.9-6.9-2-10.3
											c-0.1-3.3,0.5-6.6,2.1-9.7c2-4.2,4-7.3,6.4-10.5c1.2-1.6,2.6-3.3,4.2-4.9c1.6-1.7,3.6-3.4,6-5.1c1.3-0.9,3.3-2.1,5.7-3.2
											c2.4-1.1,5.3-2.1,8.2-2.8c2.9-0.7,6-1.2,8.6-1.4c2.7-0.3,5-0.3,6.6-0.4c3.3-0.6,7.5,1.1,11.1,1.5c0,0,0.5,0.6,1.4,1.7
											c0.5,0.6,1,1.2,1.7,2.1c0.7,0.9,1.4,1.9,2.2,3.1c-9.3-3.3-18.9-3.3-27.1-0.9c-8.2,2.4-15.1,7.3-18.8,13.3
											c-3.4,2.9-5.9,6.7-7.1,11c-1.2,4.2-1.1,8.8,0.5,12.5c1.5,3.6,4.7,6.6,8.5,8.1C160.6,140.4,164.8,140.4,167.9,138.6"/>
									</g>
								</g>
								<path class="st18" d="M194.5,91c0,0,0.4,0.1,1.1,0.2c0.7,0.2,1.7,0.4,2.9,0.8c2.4,0.7,5.5,2.1,8.3,3.9
									c2.8,1.8,5.2,4.2,6.4,6.2c1.1,2.1,1.1,3.6-0.8,4.1c0,0-0.4-0.1-1.2-0.3c-0.7-0.2-1.8-0.5-3.1-0.7c-2.6-0.6-6.2-0.9-9.7-0.9
									c-3.6,0-7.2,0.4-10.4,0.9c-3.2,0.5-5.9,0.9-8.2,0.6c0,0-0.4-0.1-1.1-0.1c-0.3,0-0.7-0.1-1.2-0.1c-0.4,0-0.9,0-1.5,0
									c-2.1,0-4.6,0.3-6.2,0.8c0,0-0.4-0.1-1.1-0.2c-0.7-0.1-1.7-0.2-3-0.1c-2.4,0.2-5.7,1.3-7.8,4c0,0-0.3,0.3-0.7,0.8
									c-0.5,0.5-1.1,1.3-1.6,2.3c-1.2,1.9-2.3,4.8-2.6,7.7c-0.3,2.9,0.2,5.5,0.9,7c0.1,0.4,0.3,0.8,0.4,1.1
									c0.2,0.3,0.2,0.5,0.3,0.8c0.1,0.2,0.2,0.5,0.2,0.7c0,0.2,0,0.4,0,0.5c0,0,0.1,0.1,0.1,0.3c0.1,0.2,0.3,0.4,0.5,0.7
									c0.4,0.6,1.1,1.4,2,2.2c1.8,1.7,4.3,2.8,5.4,3.7c0,0,0.2,0.3,0.6,0.7c0.4,0.5,1.1,0.9,2,1.4c0.4,0.2,1,0.3,1.5,0.4
									c0.5,0,1.2,0.1,1.7,0c1.2-0.2,2.4-0.9,3.3-1.9c0,0,0.2-0.1,0.6-0.4c0.4-0.2,0.9-0.6,1.6-1.1c1.3-1,2.8-2.5,4-4.1
									c0.6-0.8,1.1-1.6,1.6-2.2c0.4-0.7,0.8-1.2,1.1-1.4c0.3-0.2,0.6-0.1,0.8,0.4c0.2,0.5,0.3,1.5,0,3c0,0,0,0.4-0.1,1.1
									c-0.1,0.7-0.3,1.7-0.5,2.8c-0.6,2.2-1.8,4.7-3,6.3c0,0-0.2,0.2-0.4,0.4c-0.3,0.3-0.7,0.7-1.3,1.2c-1.1,1-3,2.3-5.4,3.2
									c-2.4,1-5.4,1.6-8.6,1.4c-3.1-0.2-6.3-1-9.2-2.5c-2.9-1.5-5.4-3.5-7.4-5.8c-2-2.3-3.3-4.9-4-7.3c-1.4-4.7-0.8-8.2-0.5-8.8
									c0,0,0.1-0.8,0.3-2.1c0.3-1.3,0.7-3.3,1.5-5.5c1.6-4.4,5.1-10,10.8-14.1c5.5-4.2,12.7-6.9,19.8-8.4
									c3.6-0.8,7.2-1.4,10.6-1.9C187.9,92,191.3,91.6,194.5,91"/>
								<path class="st19" d="M196.1,89.6c0,0,0.3,0,0.8,0c0.5,0,1.3,0.1,2.3,0.2c1.9,0.3,4.6,0.9,7.4,2.2c2.8,1.3,5.8,3.3,8.1,5.9
									c2.3,2.6,3.8,5.8,4,8.9c0,0,0.2,0.5,0.4,1.3c0.2,0.9,0.6,2,0.8,3.5c0.5,2.9,0.6,6.7,0,9.9c-0.5,3.3-1.8,6-3,7.3
									c-1.3,1.3-2.5,1.4-3.5-0.4c0,0-0.3-0.4-0.7-1.2c-0.5-0.8-1.2-1.9-2.2-3.1c-1.9-2.5-5-5.6-8.7-7.6c-3.8-2.1-8-3.4-12.2-4
									c-4.1-0.7-8.1-0.7-11.6-1c0,0-0.4-0.1-1.1,0.2c-0.8,0.3-1.9,0.8-3.1,2.2c0,0-1.7,0.7-3.5,1.4c-1.8,0.6-3.6,1.2-5.5,0.2
									c0,0-0.5,0-1.4,0c-0.8,0-2,0.2-3.1,0.6c-1.1,0.3-2.2,1-3.1,2c-0.9,0.9-1.4,2-1.4,2.9c0,0-0.2,0.1-0.5,0.4
									c-0.3,0.2-0.7,0.6-1,1.1c-0.7,0.9-1.1,2.3-0.3,3.1c0,0-0.6-1.1-0.8-3.2c-0.1-1.1-0.1-2.4,0.1-3.9c0.2-1.5,0.7-3,1.5-4.5
									c1.4-2.9,4.2-5.6,7-7c2.8-1.4,5.4-1.8,6.4-1.1c0,0,0.2,0,0.6,0c0.4,0,0.9,0,1.7,0c1.4,0,3.4-0.1,5.8-0.2
									c2.4-0.1,5.3-0.4,8.9-0.6c3.6-0.3,7.8-0.6,13.1-0.5c0,0,0.6-0.3,1.4-0.8c0.8-0.6,1.8-1.4,2.4-2.5c0.7-1.2,1-2.7,0.3-4.7
									C201.6,94.4,199.8,91.9,196.1,89.6"/>
								<path class="st20" d="M215.1,90.7c3.7,1.7,7.7,3.8,11.3,7.3c0.9,1,1.8,2.4,2.7,3.9c0.8,1.5,1.7,3.1,2.4,4.6
									c1.9,3.8,2.4,8.4,2.5,11.3c-0.1,3.4-0.3,7-0.8,10.7c-0.5,3.7-1.3,7.4-2.4,10.8c-1.1,3.4-2.6,6.6-4.3,9.3
									c-1.7,2.7-3.6,4.9-5.5,6.3c-1.1,1.1-1.9,1.9-2.8,3.2c-0.1,0.5-0.8,1.9-1,2.4c-2.7,3.9-6,7-8.9,10
									c-4.7,5.1-11.3,7.3-17.1,8.2c-3.2,0.6-7,1.6-10.4,2c-3,0.4-4.7-0.6-6.4-1.4c-1.6-0.9-3.2-1.7-5.4-1.4
									c-0.9,0.1-1.7,0.3-2.4,0.5c-0.7,0.2-1.3,0.4-1.9,0.8c-1.2,0.6-2.3,1.5-3.2,2.4c-1.9,2-3,4.4-4.7,6.7c-0.5,0.6-1,1.3-1.4,2
									c-0.4,0.7-0.9,1.5-1.2,2.3c-0.8,1.6-1.5,3.3-2.3,5.1c-1.5,2.7-2.3,6-3.3,9.4c-0.2,0.8-1.7,2.7-2,2.7
									c-0.5-0.3-0.3-2.2-0.6-3.3c-0.7-3.1,1.3-4.7,2.3-6.7c1-2.5,0.9-5.8,1.8-8.7c0.6-1.1,1.3-2,2.2-2.8c1.5-1.1,1.7-3.3,2.7-5.4
									c0.7-1.9,2.6-3.1,4.3-4c0.8-0.4,1.6-0.8,2.3-1.3c1.6-1,2.9-2.1,4.5-3.2c1.6-1,3.2-1.9,5.1-1.9c-1.6,0,1.5-1,4.8-1.9
									c3.3-1,6.5-2.1,5-1.2c0.2-0.3,1.4,0.1,1.8,0.5c0.1,0.3,0.5,0.8,0.2,1c-1.9,2.1-0.9,4.1-1.2,6c0.2,0.1,2.6-0.7,5.4-1.7
									c2.9-1,6.1-2.3,8.2-2.8c3.2-0.5,6.3-0.9,9.7-3.5c0.7-0.8,0.6-1.8,1.3-2.6c0.9-0.8,5.7-7.6,8-15.5c1.2-3.9,1.8-7.8,2.1-10.9
									c0.3-3.1,0.3-5.4,0.5-6.2c0.7-1.8,2-4.2,2.8-3.6c1.2,0.3,2.2-0.4,3-1.5c0.8-1.1,1.6-2.5,2.5-3.3c0.5-0.3,1.3,0.7,1.8,0.4
									c0.7-0.7,1.4-1.7,1.9-3c0.5-1.3,0.8-2.8,0.6-4.4c-0.1-2.7-0.6-5.7-1.6-8.5c-0.5-1.4-1-2.8-1.7-4c-0.7-1.2-1.3-2.4-2.1-3.3
									C221.9,97.9,218.6,94,215.1,90.7"/>
								<path class="st21" d="M163.5,124.6c0,0,0.3-0.1,0.8-0.2c-0.1,0-0.2,0-0.4,0c-0.1-0.1-0.3-0.1-0.3-0.3
									c-0.2-0.3-0.1-0.8,0.3-1.3c0.4-0.5,1.3-0.8,2.3-0.5c0,0,0.2,0,0.4,0.1c0.1,0,0.2,0.1,0.3,0.1l0.2,0.1l0.2,0
									c0.6,0.1,1.3,0.2,1.4-0.1c0.3,0.1,0.6,0.2,1,0.4c0,0,0.2-0.1,0.6-0.2c0.4-0.1,0.9-0.3,1.5-0.6c1.2-0.5,2.9-1.1,3.6-2.5
									c0,0,0.2-0.1,0.5-0.1c0.3-0.1,0.7-0.1,1.1-0.2c0.8-0.1,1.7,0,1.9,0.3c0,0,0.1,0.1,0.4,0.1c0.3,0.1,0.7,0.1,1.2,0.1
									c1.1,0,2.8-0.4,5.4-1.1"/>
								<path class="st22" d="M204.5,175.5c-1.5,0.9-5.9,3-10.4,4.3c-4.5,1.4-9.2,2.1-11.2,2c-6.7,0.1-11.6-1.2-16.1-2
									c-0.4,0-0.9,0.2-1,0.4c-0.7,1.2-1.8,1.9-2.8,2.7c-0.8,0.6-1.5,1.3-1.8,2.2c-0.4,0.8-0.3,1.8-0.8,2.5
									c-0.7,0.9-1.4,1.9-2.1,2.9c-0.7,1-1.4,2.3-2.1,3.5c-1.4,2.6-2.7,5.5-4,8.5c-1.2,2.6-2.6,4.9-3.9,7.6
									c-0.4,0.5-0.7,1.3-1.2,1.3c-0.4,0.1-0.2-1.1-0.4-1.8c0.2-0.8,0.7-1.4,1-2.5c0.7-1.9,0.7-4.2,1.5-5.9c0.8-1.8,1.8-3.2,2.6-5
									c0.5-1.2,0.9-2.3,1.2-3.5c0.4-1.1,0.8-2.1,1.3-3.1c0.5-0.9,0.9-1.8,1.4-2.7c1-1.7,2.1-3.4,3.5-4.8c0.1-0.9,0.6-1.6,1.4-2.2
									c1-0.7,2.2-1.1,3.1-1.5c0.5-0.2,1.1-0.2,1.8-0.3c0.4-0.2,0.7-0.3,1.2-0.5c0.4-0.2,0.9-0.4,1.3-0.5c0.9-0.3,1.7-0.5,2.5-0.2
									c3.2,1.2,6.6,2.2,11.1,2.2c1.8,0,6.3-0.5,10.9-1.8c4.6-1.2,9.3-3.3,11.1-4.4c5-2.8,8.5-7.4,12.4-11.6
									c0.1-0.2,0.2,1.1-1.2,3.8C213.5,167.8,210.5,171.8,204.5,175.5"/>
							</g>
						</g>
					</g>
				</g>
				<g class="st4">
					<g>
						<defs>
							<rect id="SVGID_19_" x="76" y="129.1" width="90.6" height="85.8"/>
						</defs>
						<clipPath id="SVGID_20_">
							<use xlink:href="#SVGID_19_"  style="overflow:visible;"/>
						</clipPath>
						<g class="st23">
							<g>
								<defs>
									<rect id="SVGID_21_" x="76" y="129.1" width="90.6" height="85.8"/>
								</defs>
								<clipPath id="SVGID_22_">
									<use xlink:href="#SVGID_21_"  style="overflow:visible;"/>
								</clipPath>
								<path class="st24" d="M96.5,148.9c-0.3,1.4,0.4,2.4,1.2,3.3c0.8,0.9,1.6,1.6,1.7,2.1c0.4,1.5,3.3,2.1,6.2,3.1
									c3,1,5.8,2.1,5.4,2.5c-0.6,0.6-1.9,2.8-3.1,5c-1.1,2.1-2.1,4.2-1.9,4.7c0.9,2.4,3.3,3.1,6.7,2.9c1.5,0,2.3-0.4,2.4,0.2
									c0.1,0.2,2.9-1.4,5.1-1.2c1.4,0.2,1.8,1.5,3.3,1.5c1.2,0.2,2.9,1.3,4.6,2.6c1.6,1.3,3.2,2.7,4.1,3.4
									c3.4,2.7,4.5,4.5,4.5,7.8c-0.2,1.3,0.1,2.3,0.4,3.3c0.3,1,0.7,2,0.7,3.2c0.2,1.2,0.4,2.2,0.6,3.2c0.2,1,0.5,2,0.4,3.2
									c-0.3,1.2-0.4,2.3-0.5,3.4c-0.2,1.1-0.2,2.2-0.1,3.4c0.1,0.3,0.2,0.6,0.5,0.9c0.3,0.2,0.1,0.8,0.3,1.2
									c-0.3,1-0.9,1.8-1.4,2.7c-0.6,0.8-1,1.7-1,2.6c0,0.5,0.7,1.4,1.4,1.3c3.7-0.2,6.7-1.4,9.4-3.1c1.2-0.8,1.8-1.9,2.2-3.1
									c0.2-0.6,0.4-1.2,0.5-1.8c0.1-0.6,0.2-1.3,0.3-1.9c0.7-3.6,4.7-6.6,8.8-9.3c3.1-1.8,8.1-3.9,7.2-7.6c-0.8-2.1-2-3.9-3.1-5.8
									c-1.1-1.8-2-3.7-1.9-6c0.1-3.2,0.4-6.1-0.5-9.1c0-0.5-0.2-2.4-0.4-2.9c-1-1.5-1.7-3.3-2.7-4.8c-1-1.5-2.3-2.6-4.3-2.8
									c-1.4-1.3-2.2-2.6-3-3.6c-0.8-1-1.7-1.9-3.5-2.5c-2.4-0.6-4.7-1.1-6.9-1.7c-2.2-0.6-4.3-1.4-5.9-2.6c-2-1.3-3.4-2.9-4.8-4.8
									c-0.5-0.6-0.5-4.9-0.5-6.2c0-2.5-2.8-3.2-5.1-3.2c-3.8,0.4-7,0.2-10.5-0.3c-1.1-0.4-1.7-1.7-2.9-2.3c-3.1-1-6.2,0.1-9.1,0.3
									c-2.6-0.3-4.6-0.2-5.9,0.1c-1.4,0.2-2.2,0.6-2.7,0.8c-1,0.6-0.8,0.9-1,0.8c-1,0-1.4-1.8-2.7-2.1c-1.8-0.1-3.5,1.1-4.3,2.4
									c-1.3,1.7-2.6,3.6-3.8,5.1c-1.3,1.5-2.5,2.6-4.5,3c0.4,0.2,0.8,0.6,1,0.5c2.7-0.5,5.2,0.2,7.3,0.8c2.1,0.7,3.9,1.3,5.9,1.1
									c0.4-0.3,0.9-0.7,1.4-0.7c0.9,0.1,1.7,0,2.5-0.1c0.7,0.1,1.4,1.4,1.8,2.9C96.8,145.9,96.8,147.7,96.5,148.9"/>
								<g class="st25">
									<g>
										<defs>
											<rect id="SVGID_23_" x="120.1" y="167.4" width="30.3" height="47.5"/>
										</defs>
										<clipPath id="SVGID_24_">
											<use xlink:href="#SVGID_23_"  style="overflow:visible;"/>
										</clipPath>
										<path class="st26" d="M150.4,204.9c-0.1,0.7-0.2,1.3-0.3,1.9c-0.1,0.6-0.3,1.2-0.5,1.8c-0.4,1.2-1,2.2-2.2,3.1
											c-2.7,1.8-5.6,3-9.4,3.1c-0.7,0-1.4-0.8-1.4-1.3c-0.1-0.9,0.4-1.7,1-2.6c0.5-0.8,1.1-1.7,1.4-2.7c-0.1-0.3,0-0.9-0.3-1.2
											c-0.3-0.2-0.4-0.5-0.5-0.9c-0.1-1.2,0-2.3,0.1-3.4c0.1-1.1,0.2-2.2,0.5-3.4c0-1.2-0.2-2.2-0.4-3.2c-0.2-1-0.4-2-0.6-3.2
											c-0.1-1.2-0.4-2.2-0.7-3.2c-0.4-1-0.6-2-0.4-3.3c0-3.2-1.1-5.1-4.5-7.8c-0.9-0.7-2.5-2-4.1-3.4c-1.7-1.2-3.4-2.4-4.6-2.6
											c-1.5,0-1.9-1.3-3.3-1.5c0,0,0.2-0.3,0.5-1c0.3-0.7,0.6-1.7,1-3c7.2,2,14.5,5.1,21.5,9.6c2,4.3,3.8,8.8,5,13.5
											C149.3,195.1,150.2,200,150.4,204.9"/>
									</g>
								</g>
								<path class="st27" d="M122.6,169.4c0,0-0.6-0.2-1.5-0.4c-0.8-0.3-1.9-0.7-2.7-1.2c-1.7-1-2.8-2.3,0.2-4.4c0,0,1.1-0.4,2.8-1
									c1.7-0.5,4.1-1.2,6.5-1.6c2.5-0.4,5.1-0.7,7.4-0.5c2.2,0.2,4,0.8,4.9,1.9c0,0,0.2,0.2,0.4,0.5c0.2,0.3,0.6,0.8,1,1.3
									c0.7,1,1.7,2.2,2.4,3.1c0,0-0.2,1.2,0.1,2.7c0.1,0.8,0.4,1.6,0.8,2.5c0.4,0.9,1,1.7,1.8,2.5c0,0,0.2,0.2,0.5,0.6
									c0.3,0.4,0.7,0.9,1.2,1.6c0.9,1.4,2.3,3.2,3.3,5.3c0.5,1,1.1,2.1,1.5,3.1c0.4,1,0.8,2,1,2.9c0.3,0.9,0.4,1.7,0.5,2.3
									c0,0.6-0.1,1.1-0.4,1.3c0,0,0,1.9-0.2,4c-0.3,2.1-0.8,4.4-1.7,5.4c0,0-0.3,0.2-0.7,0.5c-0.4,0.3-1,0.8-1.6,1.4
									c-1.2,1.1-2.2,2.5-1.9,4c0,0-1.4,2.2-2.9,3.7c-1.5,1.5-3.2,2.3-3.3,0.2c0,0-1.1-2.5-1.3-3.6c0,0,0-0.3,0.1-0.7
									c0-0.5,0.1-1.1,0.2-2c0.1-0.8,0.2-1.8,0.3-2.8c0-1,0.1-2.2,0.1-3.3c0.1-4.5-0.3-9.4,0.3-10.1c0,0,0-1.3-0.3-3.3
									c-0.1-1-0.4-2.2-0.8-3.4c-0.2-0.6-0.4-1.3-0.7-2c-0.3-0.7-0.6-1.3-1-2C136.3,172.5,130.5,167.6,122.6,169.4"/>
								<path class="st28" d="M120.9,170.4c0,0-2.4,0.2-4.3-0.2c-1.9-0.5-3.6-1.4-2.3-4.3c0,0,0-0.7,0-1.6c0-1,0.1-2.3,0.2-3.8
									c0.4-2.8,1-5.9,3.5-6.5c0,0,0.3-0.1,0.8-0.2c0.5-0.1,1.4-0.3,2.3-0.4c1.9-0.3,4.7-0.6,7.7-0.5c3,0.1,6.3,0.6,9.3,1.7
									c3.1,1,5.7,2.8,7.5,5c0,0,0.2,0.3,0.8,0.6c0.6,0.3,1.6,0.7,3.4,1c0,0,1.5,1,2.6,2.6c1.2,1.6,2.1,3.7,1.1,5.8
									c0,0-0.2,2.3-0.3,4.9c-0.1,2.6,0,5.5,0.9,6.9c0,0-0.5,0.9-0.7,1.9c-0.3,1-0.2,2.2,0.6,3c0,0-0.2-0.3-0.4-0.7
									c-0.3-0.4-0.7-1.1-1.2-1.8c-0.5-0.8-1.1-1.6-1.7-2.6c-0.6-0.9-1.3-1.9-2-2.9c-1.3-2-2.8-4-3.7-5.7c-0.9-1.7-1.5-3.1-1-4
									c0,0,0-0.6-0.3-1.4c-0.3-0.9-0.8-2-1.9-3.1c-1-1.1-2.6-2.2-4.8-2.9c-2.2-0.7-5.1-1-8.7-0.5c0,0-2.2,1.1-4.2,2.9
									C122.1,165.2,120.3,167.7,120.9,170.4"/>
								<path class="st29" d="M110.8,173.2c-1.5,0.2-3.2,0.6-4.5,0.7c-0.6-0.1-0.9-0.7-1.4-0.9c-0.6-0.4-0.6-1.4-0.6-2
									c0.6-3.7-2.1-6.3-1.2-10.4c0-0.5,0-0.9-0.3-1.2c-0.2,0.1-0.6,0.1-0.8,0.1c-0.9-0.5-1.5-1.3-2.4-1.5
									c-1.5-0.2-1.8-2.1-2.1-4.2c-0.2-1.1-0.8-2-1.3-2.9c-0.8-1.6,0.2-5.7-1.2-6.8c-1.1-1-2.4-0.7-3.6-0.4
									c-1.2,0.4-2.2,0.9-3.5,0.5c-1.5-0.6-2.8-0.8-4.6-1.5c-1.4-0.8-3-0.9-4.7-1.1c-0.4-0.1-2-0.8-2.2-1.1c-0.2-0.5,0.7-0.8,1-1.3
									c0.9-1.4,2.5,0.1,3.6,0.5c1.3,0.4,2.4-0.5,3.7-0.6c0.6,0.1,1.1,0.4,1.7,1c0.8,0.9,1.6,0,2.6-0.4c1.2-0.8,2.5,0.7,3.7,0.7
									c0.8,0,1.6-0.4,2.4-0.7c0.8-0.3,1.6-0.5,2.2,0.2c-0.5-0.6,0.8-0.4,2.1,0.2c1.2,0.5,2.4,1.3,1.6,1.3c0.2-0.1,0.2,0.8,0.1,1.3
									c-0.2,0.3-0.3,0.8-0.5,0.9c-1.3,0.8-2,2.8-2.8,4.3c0,0.2,2.4,1.5,2.6,3.3c0.1,1.5-0.1,3,0.6,3.7c0.3,0,0.8-0.6,1.1-0.6
									c0.3,0.1,2.9-0.2,5.7,0c2.8,0.1,5.8,0.7,6,1.3c0.1,0.8-0.1,2.2-0.9,2.7c-1.8,1.7-1.8,3.2-3,4.8c-0.3,0.4-1,0.7-1.3,1.2
									c-0.8,1.2-1.7,2.9-1.5,3.5c0,1.4,0.7,2.4,1.7,2.8L110.8,173.2z"/>
								<path class="st30" d="M165,185.1c0,0-0.3-0.3-0.7-1c-0.4-0.6-0.9-1.5-1.5-2.6c-0.5-1.1-1-2.4-1.2-3.9
									c-0.2-1.5-0.3-3.1,0.1-5c0,0,0-0.4,0-0.9c0-0.5,0-1.3-0.1-2.1c-0.2-1.5-0.5-3.2-0.9-3.7l-0.1-1.9c0,0-0.9-1.9-2.2-3.8
									c-1.3-1.9-3.1-3.7-4.7-3.6c0,0-0.7-0.7-1.5-1.5c-0.7-0.8-1.5-1.6-1.5-2c0,0-0.4-0.7-1.4-1.5c-1.1-0.8-2.9-1.6-5.7-1.8"/>
								<path class="st31" d="M97.7,158.7c-0.2-0.3-0.5-1.4-0.9-2.6c-0.4-1.2-0.8-2.5-0.9-3.3c-0.2-1.3-0.5-2.5-0.8-3.8
									c-0.3-1.3-0.7-2.6-1.3-3.9c-0.1-0.2-0.4-0.3-0.5-0.1c-1.1,1.3-2.1,0.3-3,1c-0.4,0.3-0.6,0.9-1,0.8c-2-0.3-4.1-1.7-7.3-3
									c-0.7-0.3-1.4-0.6-2.2-1c-0.8-0.3-1.6-0.7-2.5-0.8c-0.4-0.2-0.9-0.3-1.2-0.7c-0.3-0.2,0.3-0.4,0.4-0.7
									c0.4,0,0.9,0.2,1.5,0.2c1.1,0.1,1.9-0.3,2.9,0.1c1,0.3,1.9,0.9,2.8,1.3c0.6,0.1,1,0.2,1.5,0.2c1.9,0.2,3.5,0.4,5.2,0.2
									c0.7-1.3,1.8-0.3,2.6-0.2c0.2,0.1,0.4,0.4,0.7,0.6c0.7,0.2,1.6-0.1,1.8,0.9c0.5,2.3,0.8,4.3,1.2,6.1
									c0.2,0.7,0.7,2.1,1.2,3.5c0.5,1.4,0.9,2.7,1.2,3.1c0.6,1.3,2.1,1.2,2.8,2.3C101.9,159.1,99.2,161,97.7,158.7"/>
							</g>
						</g>
					</g>
				</g>
				<path class="st32" d="M66.2,141.3c0,0,7.1,0.4,21.7,20.8s23.2,40,23.2,40s12.8,23.7,17.2,51.1c0,0,1.5-0.4,2.2-6.2
					c0.6-5,1-19,1.1-22.8c0-0.6,0-1.2-0.1-1.8c-0.4-3.8-2-18.5-2.8-19.9c-0.9-1.5-0.9-5.5-7.5-12.4c-6.6-6.9-7.3-14.8-7.3-14.8
					s0.4-7.5,2.7-10.8c2.2-3.3,4.4-5.7,4.4-5.7s-3.3,9.3-2.4,12.2c0.9,2.9,4.9,11.5,17.7,16.8c0,0-4.2,17.2-2.7,23.4
					c1.5,6.2,4.9,9.9,4.9,9.9s3.5,3.3,6.9,0.9c3.3-2.4,7.3-6.4,10.2-11.7c2.9-5.3,11.5-14.1,11.5-14.1s5.3-4.2,7.5-4.4l-8.4-3.1
					c-1.2-0.4-2.3-1.2-3.2-2.2c-1.2-1.4-2.3-3.5-1.2-6c0.1-0.3,0.2-0.5,0.4-0.8c1.5-2.9,5.8-2.9,7.3,0c0,0,0,0.1,0,0.1
					c0.8,1.6,2.6,3.5,3.8,4.6c0.9,0.8,1.9,1.4,3.1,1.6c0.6,0.1,1.4,0.2,2,0.2c1.5,0,4-2.9,5.3-4c1.3-1.1,8-8.2,9.3-11.1
					c1.3-2.9,4-6.9,4.4-12.4c0,0,10.2-5.5,15.5-17.5c5.3-11.9,4.2-20.1,4.2-20.1s-1.2-10.5-5.5-17.7c-4.3-7.1-8.2-12.9-13.3-16.6
					c-3.4-2.5-5.3-4.4-15.9-6.9c-6.1-1.4-13.4-0.2-18.5,1c-4,1-7.7,2.7-11,5.1c-4.8,3.5-11.8,9.3-14.5,15.1
					c-4.2,9.1-7.5,22.1-7.1,30.1c0.4,8,3.8,12.2,3.8,12.2s3.2,5.1,10,7.7c0.7,0.3,1.4,0.6,2.1,0.9c2.2,1.1,8.4,3.8,17.7,2.4
					c11.7-1.8,17.5-13,17.5-13s3.5-6.2,2.7-14.6c-0.4-3.4-1.5-5.8-2.7-7.4c-1.5-2-3.9-3.2-6.4-3.3c-1.4-0.1-3.1-0.1-4.3,0.3
					c0,0,3.3,5.3,3.5,8.6c0.2,3.3,0.7,6.9-2.9,9.1c-2.2,1.3-5.5,1.3-7.9,1.1c-2.2-0.2-4.2-1.3-5.6-3c-0.6-0.8-1.2-1.7-1.7-2.9
					c-1.2-3-1-6.4,0.2-9.4c1.4-3.4,4.1-9.2,7.6-12.5c5.1-4.9,14.6-3.3,16.8-2c2.2,1.3,8.2,6.6,10.2,11.3c2,4.6,4.6,12.2,2.4,19.5
					c-2.2,7.3-7.3,13.9-12.6,18.1c-5.3,4.2-14.1,6.4-19.7,7.1c-5.5,0.7-14.4,0.4-18.8-0.7c-4.4-1.1-9.5-4.4-14.1-9.1
					c-4.6-4.6-7.5-17.9-7.5-17.9s-0.5-4.7-0.9-8.5c-0.3-3.8-2.4-7.3-5.7-9.3c0,0-0.1,0-0.1-0.1c-1.6-0.9-3.5-1.2-5.3-0.9
					c-0.8,0.1-1.7,0.3-2.6,0.6l5.1,5.5c0,0,2.7,2.9,1.5,5.5c-1.1,2.7-6.4-0.2-9.1,0c-2.7,0.2-9.5,1.7-13.3,2.4
					c-3.9,0.8-17.9,7.3-20.3,8.4C68.4,138.7,66.2,141.3,66.2,141.3z"/>
				<path class="st33" d="M149,81.5c1.3-2.6,2.1-4.8,2.5-6.7c0.8-3.4,0.3-7-1.4-10c-3-5.4-7.3-4.5-10.5-2.7c-2.6,1.5-4.7,3.8-6,6.5
					c-8.1,16.2-9.4,46.7-9.4,46.7s-1.3-30.5-9.4-46.7c-1.4-2.7-3.4-5-6-6.5c-3.2-1.8-7.5-2.8-10.5,2.7c-1.7,3-2.1,6.6-1.4,10
					c0.4,1.9,1.2,4.1,2.5,6.7"/>
			</g>
		</g>
	</g>
</g>
</svg>
