<?xml version="1.0" encoding="utf-8"?>
<!-- Generator: Adobe Illustrator 22.1.0, SVG Export Plug-In . SVG Version: 6.00 Build 0)  -->
<svg version="1.1" id="Calque_1" xmlns="http://www.w3.org/2000/svg" xmlns:xlink="http://www.w3.org/1999/xlink" x="0px" y="0px"
	 viewBox="0 0 288 288" style="enable-background:new 0 0 288 288;" xml:space="preserve">
<style type="text/css">
	.st0{display:none;fill:#6B1E1E;}
	.st1{fill:#FFFFFF;}
	.st2{opacity:0.9;}
	.st3{fill:#FBE6D7;}
	.st4{opacity:0.9;fill:#F5BC94;enable-background:new    ;}
	.st5{fill:#F7CAAB;}
	.st6{fill:#F9D9C2;}
	.st7{fill:#FDF0E7;}
	.st8{fill:none;}
	.st9{fill:#FEFAF7;}
	.st10{fill:none;stroke:#231F20;stroke-miterlimit:10;}
</style>
<rect x="-11" y="-13" class="st0" width="309" height="320"/>
<g>
	<path class="st1" d="M111.8,32.2L107.2,5L125,1.9l0.4,2.4l-15.2,2.6l1.7,10l12.8-2.2l0.4,2.2l-12.8,2.2l2.2,12.6L111.8,32.2z"/>
	<path class="st1" d="M131.9,4.8l-0.2-3.9l2.6-0.1l0.2,3.9L131.9,4.8z M133.2,29.2L132.1,9l2.6-0.1l1.1,20.2L133.2,29.2z"/>
	<path class="st1" d="M151.7,11.3c-1.8,0-3.4,0.5-4.7,1.4c-1.3,0.9-2.3,2.2-2.9,3.8L143.8,29l-2.6-0.1l0.5-20.2l2.5,0.1l-0.1,4.9
		c0.8-1.5,1.8-2.7,3.1-3.6c1.3-0.8,2.7-1.3,4.1-1.2c0.2,0,0.4,0,0.5,0.1L151.7,11.3z"/>
	<path class="st1" d="M161.5,30.9c-1.5-0.2-2.8-0.7-3.9-1.4c-1.1-0.7-2.1-1.7-2.8-2.8s-1.3-2.3-1.6-3.6c-0.3-1.3-0.3-2.7-0.1-4.1
		c0.2-1.4,0.7-2.7,1.4-3.9c0.7-1.2,1.6-2.1,2.6-2.9c1-0.8,2.2-1.4,3.5-1.7c1.3-0.4,2.7-0.4,4.1-0.2c1.5,0.2,2.8,0.7,3.9,1.4
		c1.1,0.7,2.1,1.6,2.8,2.7c0.7,1.1,1.2,2.3,1.5,3.6c0.3,1.3,0.3,2.6,0.1,4c0,0.2-0.1,0.4-0.1,0.6c0,0.2-0.1,0.3-0.1,0.4l-17.1-2.7
		c-0.1,1.1,0,2.1,0.3,3.1c0.3,1,0.7,1.8,1.3,2.6s1.2,1.4,2,1.9c0.8,0.5,1.7,0.8,2.7,1c0.6,0.1,1.3,0.1,2,0c0.7-0.1,1.3-0.2,1.9-0.5
		s1.1-0.5,1.6-0.9c0.5-0.4,0.9-0.8,1.2-1.3l2.2,1c-0.4,0.7-1,1.3-1.6,1.8c-0.7,0.5-1.4,0.9-2.2,1.3s-1.7,0.6-2.6,0.7
		C163.4,31.1,162.5,31,161.5,30.9z M170.7,20.6c0.1-1.1,0-2.1-0.3-3.1s-0.7-1.8-1.3-2.5c-0.6-0.7-1.2-1.4-2-1.8
		c-0.8-0.5-1.7-0.8-2.7-1c-1-0.2-1.9-0.1-2.8,0.1c-0.9,0.2-1.8,0.6-2.5,1.1c-0.8,0.5-1.4,1.2-1.9,2.1c-0.5,0.8-0.9,1.8-1.2,2.8
		L170.7,20.6z"/>
</g>
<circle class="st1" cx="141.6" cy="157" r="128"/>
<g>
	<g>
		<g>
			<g>
				<g>
					<g class="st2">
						<g class="st2">
							<path class="st3" d="M102.9,91.4c-0.9,0-1.7,0.7-2.5,1.7c-0.8,1-1.5,2.3-2.1,3.7c-0.7,1.4-1.3,2.7-1.8,3.9
								c-0.5,1.1-0.9,2.1-1.3,2.3c-1.1,1.4-1.9,4-2.4,7.1c-0.5,3-0.9,6.4-1.3,9.5c-0.7,6.3-1.5,11.4-2.3,11.1
								c-0.9-0.6-4.4-1.1-7.6-1.5c-3.3-0.3-6.4-0.4-7.2,0.3c-1.8,1.6-3.2,3.9-4,6.5c-0.5,1.4-0.8,2.7-1,4.3
								c-0.1,0.8-0.2,1.5-0.3,2.3c-0.1,0.8-0.1,1.6-0.1,2.4c-0.1,1.5,0.1,2.5,0.1,3.3c0,0.8,0,1.2-0.5,1.5c-0.3,0.3,2.4,3.8,2.3,8
								c-0.2,2.8-2.3,5.5-2,8.4c-0.1,2.6-1.1,7.5-1.8,12.5c-0.3,2.5-0.5,5.1-0.5,7.3c0,1.1,0,2.1,0,3c0.1,0.9,0.1,1.7,0.2,2.3
								c0.6,4.8,1.2,8.2,1.5,11.2c0.2,3.1,0,5.9-0.5,9.4c-0.6,2.6-0.5,4.9-0.3,7.2c0.3,2.3,0.6,4.6,0.6,7.2c0.2,2.7,0.5,5.2,1,7.6
								c0.5,2.4,1,4.9,1.7,7.8c0.3,2.8,0.9,5.7,2,8.4c1.1,2.8,2.6,5.6,4.6,8.2c0.7,0.6,1.4,1.2,2.1,1.5c0.7,0.3,1.7,1.5,2.5,2.1
								c1.6,2.1,3.2,4.4,5.1,6.3c1.9,1.9,4.1,3.6,6.8,4.3c0.8,0.3,1.7,0.3,2.6,0.1c0.8-0.2,1.4-0.5,1.3-1c-0.2-1.3-0.4-2.5-0.7-3.7
								c-0.3-1.2-0.6-2.3-0.9-3.5c-0.7-2.3-1.5-4.6-2.1-6.8c-0.6-2.1-1.5-3.8-2.4-5.3c-0.9-1.6-2-3.3-2.7-5.1
								c-1.1-2.6-0.5-5.3,0.9-7.9c1.5-2.6,3.8-4.7,6.3-6.5c1.9-1.3,4.5-2.6,6.5-3.9c2-1.4,3.3-2.7,2.9-4.7c-0.6-2.3-2-4.9-2.8-7.8
								c-0.9-2.8-1.5-5.6-0.5-8.3c0.8-1.9,1.5-3.5,2.2-5c0.7-1.5,1.4-2.8,1.9-4.1c0.3-0.3,1.3-1.7,1.5-2.1c-0.1-2.9,2-4-0.9-7.6
								c0-0.9,0.2-1.6,0.5-2.4c0.2-0.3,0.3-0.7,0.4-1c0.2-0.3,0.3-0.7,0.5-1c0.3-0.7,0.5-1.3,0.8-2.1c0.2-0.9,0.2-1.7,0.1-3
								c-0.1-0.8-0.2-1.5-0.3-2.4c0-0.9-0.1-1.6-0.1-2.5s-0.1-1.7,0-2.6c0-0.9,0.1-1.7,0.1-2.6c0.3-3.5,1.1-7,2.7-10.5
								c1.8-4,3.9-7.6,6.7-11.3c0.4-0.7,2.2-1.9,4.1-3.1c1.9-1.2,3.9-2.5,4.9-3.1c1.7-1.1,2.7-3,3.2-5.1s0.3-4.2,0-6
								c-1.7-5.8-2.6-10.9-2.7-16.6c0.3-1.9,1.8-3.4,2.4-5.5c0.7-5.2-1.2-9.7-1.7-14.5c0.1-2.2,0.1-4.1,0-5.8
								c-0.1-1.6-0.2-3-0.3-4.2c-0.2-1.2-0.3-2.1-0.5-2.8c-0.2-0.8-0.3-1.3-0.5-1.8c-0.7-1.7-1.1-1.3-1-1.7c0.1-1.7,2.3-2.5,2.7-4.8
								c0.2-3.2-1.5-6.3-3.2-8c-1.1-1.4-2.4-2.7-3.6-4c-0.3-0.3-0.6-0.7-0.9-1c-0.3-0.3-0.6-0.7-0.9-1c-0.6-0.7-1.2-1.4-1.7-2.1
								c-0.5-0.7-1.1-1.4-1.6-2.1c-0.5-0.7-0.9-1.5-1.4-2.1c-0.4-0.7-0.9-1.5-1.2-2.2c-0.2-0.4-0.3-0.9-0.5-1.2
								c-0.2-0.4-0.3-0.9-0.5-1.3c-0.2,0.6-0.7,1.1-0.4,1.5c1.4,4.9,0.9,9.4,0.3,13.6c-0.6,4.2-1.4,8-1.1,12.5
								c0.4,0.9,0.9,2,0.9,3.1c0,0.5,0,0.9,0,1.4s0,0.9,0,1.4c0,0.9,0.1,1.8,0.1,2.7c-0.2,1.5-1.8,3.4-3.9,4.9
								c-1,0.7-2.2,1.4-3.3,1.8C104.7,91.1,103.7,91.4,102.9,91.4z"/>
							<path class="st4" d="M88.8,247.4c0.8,1.9,1.8,3.5,2.7,5.1c0.9,1.6,1.8,3.3,2.4,5.4c1.1,4.6,3,9,3.7,14c0.1,0.5-0.5,0.9-1.3,1
								c-0.4,0.1-0.9,0.1-1.3,0.1s-0.9-0.1-1.3-0.2c-2.7-0.8-5-2.4-6.8-4.4c-1.9-2-3.4-4.1-5.1-6.4c-0.8-0.5-1.8-1.9-2.5-2.1
								c-0.7-0.3-1.4-0.9-2.1-1.5c-2.1-2.7-3.5-5.4-4.6-8.2c-1-2.7-1.6-5.6-2-8.4c-0.7-2.9-1.3-5.4-1.7-7.8c-0.5-2.4-0.9-4.8-1-7.6
								c0-2.7-0.3-5-0.6-7.2c-0.3-2.3-0.3-4.6,0.3-7.2c0.5-3.4,0.7-6.3,0.5-9.4s-0.8-6.4-1.4-11.3c-0.3-2.5-0.3-7.6,0.3-12.6
								c0.6-5.1,1.7-10,1.8-12.5c-0.3-2.9,1.8-5.6,2-8.4c0,0,0.6-0.2,1.8-0.5s2.9-0.9,5.2-1.7c-0.7,3.7-1.3,7.5-1.8,11.2
								c-0.3,1.9-0.3,3.9-0.5,5.7c-0.1,1.9-0.2,3.8-0.1,5.7c0,1.9,0.2,3.8,0.3,5.5c0.1,0.9,0.3,1.8,0.4,2.7c0.2,0.9,0.3,1.7,0.5,2.7
								c0.8,3.4,1.9,6.7,3.2,9.9c-0.2,4.2,0,8.4,0.3,12.8c0.3,4.3,0.8,8.8,1.4,13.1c0.6,4.3,1.3,8.4,2.5,12.2
								c0.6,1.9,1.3,3.8,2.1,5.5C86.9,244.2,87.8,245.8,88.8,247.4z"/>
							<path class="st5" d="M74.5,159.7c0,0,0.1-0.3,0.2-0.9c0.1-0.5,0.3-1.4,0.4-2.2c0.2-0.9,0.4-2,0.8-3c0.3-1.1,0.7-2.1,1.1-3.2
								c1.6-4.2,3.9-7.2,7.3-3.9c0,0,0.7,1.5,1.6,3.9c0.9,2.4,2.1,5.8,3.2,9.4c1,3.6,2,7.4,2.6,10.7c0.5,3.3,0.6,6.2-0.2,8.2
								c0,0-0.2,0.3-0.4,0.9c-0.3,0.6-0.5,1.4-0.9,2.2c-0.3,0.9-0.6,1.9-0.9,2.8c-0.3,0.9-0.3,1.8-0.5,2.6c0,0-0.1,0.1-0.3,0.2
								s-0.3,0.3-0.6,0.5c-0.4,0.5-1.1,1.2-1.6,2.1c-1.1,2-2,5-1,8.3c0,0,0.3,1.6,0.7,4.2s1.1,6,1.9,9.7c0.8,3.6,1.5,7.6,1.9,10.5
								c0.4,2.9,0.4,4.9-0.3,5.5c0,0,0,2.7,0,5.7c0,2.9,0.1,6.1-0.5,7.7c0,0-0.3,0.3-0.6,1c-0.3,0.6-0.8,1.5-1.1,2.6
								c-0.6,2.1-0.5,5,1.4,6.7c0,0,0.1,0.3,0.2,0.7c0.2,0.4,0.3,1,0.5,1.7c0.5,1.4,1.2,3.3,2,4.9c0.3,0.9,0.7,1.6,0.9,2.3
								c0.3,0.7,0.4,1.3,0.4,1.7s-0.3,0.7-0.8,0.8c-0.5,0-1.3-0.1-2.4-0.7c0,0-0.3-0.1-0.9-0.3c-0.5-0.3-1.3-0.5-2.1-0.9
								c-1.7-0.8-3.6-2.1-4.7-3.1c0,0-0.4-0.5-1.1-1.5c-0.3-0.5-0.7-1.1-1.2-1.8c-0.4-0.7-0.9-1.5-1.4-2.4c-0.9-1.7-1.9-3.9-2.7-6.3
								c-0.8-2.3-1.4-4.8-1.9-7.3c-0.9-5-1-10-0.9-13.8c0.1-3.9,0.4-6.5,0.9-7.1c0,0,0.3-2.6,0.4-6.5c0.2-3.9,0.4-9.4,0.7-15.4
								c0.2-2.9,0.3-6,0.5-9.1c0.3-3.2,0.5-6.4,0.7-9.4C76.5,172,76.5,165.6,74.5,159.7z"/>
							<path class="st6" d="M72.7,157.8c0,0-0.2-1-0.2-2.6s0.1-3.6,0.4-5.7c0.8-4.2,2.7-8.2,7.4-8.7c0,0,0.3-0.2,0.7-0.4
								s1.1-0.6,1.9-1c0.8-0.4,1.7-0.9,2.7-1.3c0.9-0.4,2.1-0.9,3.1-1.3c2.1-0.8,4.3-1.4,6.1-1.5c1.8,0,3.3,0.6,3.9,2.4
								c0,0,0.2,0.4,0.4,1.3c0.3,0.9,0.5,2,0.9,3.5c0.6,3,1.2,7.4,1.3,12.3c0.2,4.9-0.1,10.2-0.7,15.2c-0.6,5-1.4,9.4-2.7,12.7
								c0,0-0.2,0.3-0.1,1.2c0.1,0.4,0.2,0.9,0.3,1.6c0.3,0.7,0.7,1.5,1.2,2.3c0,0,0,0.1,0,0.3c0,0.2,0,0.5,0.1,0.9
								c0.1,0.7,0.1,1.5,0,2.4c-0.2,1.8-0.8,3.9-3.3,5.2c0,0-0.4,0.5-1.1,1.4c-0.7,0.9-1.5,2.2-2.2,3.8c-1.5,3.1-2.7,7.3-1.9,9.9
								c0,0-0.9,1.1-1.5,2.7c-0.6,1.5-0.9,3.4,0,4.9c0,0-0.2-0.4-0.4-1.3c-0.3-0.9-0.7-2-1.1-3.3c-0.9-2.8-1.9-6.5-2.7-10.2
								c-0.7-3.8-1-7.6-0.7-10.5s1.2-5.1,2.5-5.5c0,0,0.1-0.2,0.3-0.4c0.2-0.3,0.4-0.7,0.8-1.3c0.6-1.1,1.3-2.7,1.9-4.8
								c0.5-2.1,0.9-5,0.9-8.6c0-3.6-0.4-8.1-1.8-13.4c0,0-2-2.7-5-4.3C81.4,154,77.2,153.3,72.7,157.8z"/>
							<path class="st7" d="M67.9,142.2c-0.1-1.3-0.3-2.7-0.4-4c-0.2-1.4-0.3-2.7-0.3-3.9c0.1-0.7,0.3-1.2,0.8-1.9
								c0.3-0.6,0.8-1.3,0.9-1.8c0.3-0.7,0.9-1.3,1.5-1.8c0.6-0.4,1.2-0.8,1.7-1c0.8-0.3,1.4-0.5,2-0.9s1.3-0.8,1.8-1.1
								c0.5-0.4,1.1-0.8,1.6-1.3c0.5-0.4,1-0.9,1.5-1.4c2.1-1.9,4.3-4.1,7.4-5.3c0.8-0.5,1.2-0.9,1.5-1.6c-0.1-0.3-0.2-1.2-0.3-1.5
								c0.6-2.3,1.6-4.6,1.9-7c0.1-1,0.3-2,0.7-2.9c0.3-0.9,0.9-1.9,1.5-2.7c0.6-0.9,1.2-1.6,2-2.4c0.7-0.8,1.5-1.5,2.2-2.2
								c0.8-0.9,1.5-1.8,2.2-2.7c0.7-1,1.4-2,2.1-3c1.2-1.7,3.1-2.3,4.9-3c1.8-0.7,3.6-1.5,4.3-3.3c0.3-0.7,0.6-1.5,0.7-2.1
								c0.2-0.7,0.3-1.5,0.3-2.1c0.1-1.5-0.2-2.8-0.3-4.1c-0.2-1.4-0.5-2.7-0.7-4c-0.1-0.7-0.2-1.3-0.2-2c0-0.7,0.1-1.4,0.1-2.1
								c0.2-0.8,0.3-1.6,0.4-2.4c0.2-0.8,0.2-1.5,0.3-2.3c0.3-1.5,0.3-3.1,0.7-4.8c0.4-1.3,0.5-2.7,0.6-4.1c0-1.4-0.1-2.8-0.2-4.5
								c-0.1-0.7,0.6-3.1,1-3.3c0.7-0.1,1.4,1.5,2.1,2.1c1,1,1.2,2.1,0.9,3.3c-0.2,1.1-0.8,2.2-0.9,3.2c-0.1,0.6,0,1.2,0.1,1.8
								c0.1,0.6,0.3,1.2,0.4,1.8c0.2,0.6,0.4,1.2,0.6,1.9c0.2,0.6,0.3,1.3,0.3,2c-0.1,0.6-0.2,1-0.3,1.5c-0.2,0.5-0.5,1-0.8,1.5
								c-0.5,0.8-0.5,1.6-0.3,2.5c0.2,0.9,0.6,1.9,0.9,2.8c0.5,1.2,0.3,2.6-0.1,3.9c-0.3,1.3-0.9,2.6-0.9,3.9
								c-0.1,1.7,0.5,3.4,0.9,5.1c0.3,1.6,0.6,3.2-0.3,4.6c0.8-1.2,0.5,1.5-0.2,4.3c-0.7,2.7-1.6,5.3-1.6,3.9c0.2,0.3-1,0.9-1.7,0.9
								c-0.4-0.2-1.1-0.2-1.3-0.4c-1.1-2.2-3.9-2.7-5.9-3.8c-0.2,0.1-0.7,1.7-1.5,3.7c-0.9,2-2,4.1-3.3,5.2
								c-2.1,1.5-4.3,2.8-5.3,5.2c0,0.7,0.9,1.3,0.9,2c-0.2,0.8,0.6,6.1,1,11.3c0.2,2.7,0.3,5.2,0.3,7.3s-0.3,3.6-0.7,3.9
								c-1,0.8-3.2,1.4-3.9,0.6c-2.7-1.7-4.8-0.7-7.5-1.4c-0.7-0.3-1.2-1-1.9-1.3c-0.9-0.3-2.1-0.3-3-0.4c-0.5,0-0.9,0-1.3,0.1
								c-0.4,0.1-0.8,0.3-1,0.4c-0.5,0.3-1,0.6-1.5,1c-0.5,0.4-0.9,0.9-1.3,1.3c-0.8,0.9-1.5,2.1-1.7,3.1L67.9,142.2z"/>
							<path class="st8" d="M104.2,220.5c0,0-0.3-0.5-0.8-1.4c-0.4-0.9-0.9-2.3-1.3-3.9c-0.7-3.3-0.8-7.5,1.9-11
								c0,0,0.2-0.3,0.4-0.9c0.3-0.6,0.6-1.3,0.9-2c0.7-1.5,1.4-2.7,1.3-3.3c0.3-0.4,0.8-0.9,1.2-1.2c0,0,0.1-0.3,0.2-0.9
								c0.1-0.3,0.1-0.6,0.2-0.9s0.1-0.7,0.1-1c0-0.3,0-0.7,0-1.1s-0.2-0.8-0.2-1.2c-0.2-0.9-0.6-1.6-1.3-2.3c0,0,0-0.3,0.1-0.6
								c0.1-0.3,0.1-0.9,0.2-1.4s0.3-1,0.4-1.5c0.2-0.4,0.4-0.8,0.7-0.9c0,0,0.2-0.2,0.3-0.5c0.2-0.3,0.3-0.9,0.4-1.7
								c0.2-0.8,0.2-1.8,0.2-3.1c0-0.7-0.1-1.4-0.2-2.1c-0.1-0.8-0.2-1.6-0.4-2.6"/>
							<path class="st9" d="M88.7,103.5c0.5-0.9,2.2-3.3,4-5.8c0.9-1.2,1.8-2.4,2.7-3.4c0.9-1,1.6-1.9,2.2-2.3c3.6-3.1,7-6,10.6-9.5
								c0.3-0.3,0.3-0.9,0.1-1.2c-0.4-0.6-0.6-1.3-0.7-1.9c-0.2-0.6-0.2-1.3-0.2-1.9c0.1-1.3,0.1-2.5-0.4-3.5
								c-0.3-0.9-1.2-1.7-1.1-2.7c0.2-2.6,0.5-4.9,1.1-7.5c0.3-1.3,0.5-2.5,0.9-3.9c0.2-1.3,0.5-2.7,0.8-4c0.2-1.2,0.5-2.4,0.9-3.7
								c0.3-1.3,0.5-2.6,0.6-4c0.2-0.6,0.2-1.5,0.7-1.9c0.3-0.3,0.7,0.7,1.2,1c0.2,0.8-0.1,1.5,0.1,2.5c0.1,0.9,0.2,1.8,0.4,2.7
								c0.2,0.9,0.3,1.7,0.1,2.6c-0.2,0.9-0.3,1.7-0.6,2.5c-0.2,0.8-0.4,1.6-0.6,2.5c-0.1,1.1,0,2.1,0,3.1c0,3.9-0.1,7.6,0.1,11.4
								c0.9,0.8,0.9,1.7,0.8,2.8c-0.2,1-0.5,2.1-0.6,3c-0.1,0.5-0.5,1-0.9,1.7c-0.3,1.6,0.1,3.5-1.2,4.5c-3,1.9-5.8,3.7-8.3,5.9
								c-0.5,0.4-1.3,1.3-2.1,2.3c-0.4,0.5-0.9,1.1-1.4,1.7c-0.5,0.6-1,1.2-1.5,1.9c-2,2.5-3.9,5.2-4.6,6.4c-1.9,3-1.7,6.4-3.1,9.2
								c-0.1,0.1-0.9-0.7-1.3-2.4C86.8,110,86.9,107.4,88.7,103.5z"/>
						</g>
					</g>
				</g>
			</g>
		</g>
		<g>
			<g>
				<g>
					<g class="st2">
						<g class="st2">
							<path class="st3" d="M118.4,87.4c-3.5,0.8-3.3,5.9-4.3,6.7c-1.4,1.5,0.1,4.9,1.4,8.1c0.7,1.5,1.5,3.1,1.8,4.2
								c0.3,1.1,0.5,1.8,0.1,1.8c-1.1-0.2-4.4,0.3-7.5,0.7c-3.1,0.4-5.9,1-6.2,1.5c-0.8,1.1-0.9,2.3-0.3,3.5
								c0.6,1.2,1.8,2.6,3.3,3.9c1.3,1.3,2.4,1.6,2,2.1c-0.1,0.2,3.9,1.5,5.7,3.3c1.1,1.3,0.3,2.4,1.7,3.7c0.9,1.1,1.5,3.3,2.1,5.4
								c0.1,0.5,0.3,1.1,0.3,1.6s0.2,1,0.3,1.5c0.2,0.9,0.3,1.8,0.4,2.4c1.3,4.6,0.8,6.7-1.6,9.1c-1,0.9-1.6,1.8-2,2.7
								c-0.4,1-0.7,2.1-1.5,3c-0.3,0.5-0.6,1-0.9,1.5c-0.3,0.5-0.5,0.9-0.8,1.5c-0.4,0.9-0.9,2-1.6,3c-1.9,1.6-3.5,3.2-4.7,5.4
								c0,0.3-0.1,0.8,0.2,1.1c0.3,0.4-0.3,0.9-0.3,1.3c-1.7,1.3-4.6,1.5-5.4,3.4c-0.3,0.5,0.1,1.7,0.9,2.1c4.3,2.1,8.2,2.8,11.9,3
								c1.7,0,3-0.4,4-1.2c1-0.8,1.8-1.7,2.7-2.6c1.3-1.3,3.5-1.7,6.2-1.8c2.6-0.1,5.7,0.3,8.6,0.7c4.5,0.9,11.2,3,12.4-0.3
								c0.5-2,0.4-4.2,0.5-6.3c0.1-1,0.3-2,0.6-2.9c0.3-0.9,0.9-1.8,1.7-2.6c1.3-1,2.5-2,3.6-3c0.5-0.5,1.1-1,1.6-1.5
								c0.5-0.6,0.9-1.1,1.3-1.8c0.4-0.3,1.6-1.7,1.9-2.2c0.3-1.7,1.1-3.3,1.4-5.1s0-3.4-1.7-5c-0.3-2,0.2-3.3,0.3-4.6
								c0.2-1.3,0.1-2.6-1-4.2c-1.5-2.1-3.3-4.3-4.6-6.4c-1.5-2.1-2.5-4.1-2.7-6.3c-0.3-2.4-0.3-4.5,0.6-6.6
								c0.2-0.8,4.5-3.3,5.8-4.1c2.4-1.5,0.9-4.1-0.9-5.8c-3.3-2.6-5.7-5.1-7.5-8c-0.3-1,0.8-2.1,0.8-3.3c-0.9-2.7-3.9-4.6-5.4-6.7
								c-0.3-1-0.8-2-1.2-2.7s-0.8-1.4-1.1-1.9c-0.7-1-1.2-1.6-1.7-2c-0.9-0.7-1.3-0.4-1.2-0.6c-0.2-0.9,2.1-1.6,2.3-2.7
								c0-1.5-1.6-2.7-3.2-3.3c-2.1-0.9-4.3-2.1-5.8-3.3c-1.5-1.3-2.4-2.7-1.9-4.7c-0.4,0.3-1.1,0.6-1,0.9c-0.3,1.4-0.9,2.7-1.5,3.9
								c-0.6,1.3-1.1,2.5-1.7,3.7c-1.1,2.4-1.8,4.7-1.1,7c0.4,0.4,1,0.9,1.2,1.5c0.2,1,0.5,1.9,0.9,2.7c0.2,0.8-1.1,2.1-2.8,3.2
								C122.1,86.1,120,87.1,118.4,87.4z"/>
							<path class="st4" d="M120.2,171.1c-0.9,0.9-1.8,1.9-2.7,2.6c-1,0.7-2.3,1.2-4,1.2c-3.8-0.2-7.6-0.9-11.9-3
								c-0.9-0.4-1.2-1.6-0.9-2.1c0.7-1.9,3.6-2.1,5.4-3.4c0.1-0.3,0.5-0.9,0.3-1.3s-0.2-0.8-0.2-1.1c1.2-2.2,2.8-3.7,4.7-5.4
								c0.8-1,1.2-2,1.6-3c0.3-0.5,0.4-0.9,0.7-1.5c0.3-0.5,0.5-1,0.9-1.5c0.8-0.9,1-2.1,1.5-3c0.4-1,0.9-2,2-2.7
								c2.4-2.4,2.8-4.6,1.6-9.1c-0.2-0.6-0.3-1.5-0.4-2.4c-0.1-0.5-0.2-1-0.3-1.5c-0.1-0.5-0.3-1.1-0.3-1.6
								c-0.5-2.1-1.1-4.3-2.1-5.4c-1.3-1.2-0.6-2.4-1.7-3.7c0,0,1.9-0.3,5.1-1.5c1.1,1.7,2.3,3.6,3.4,5.4c1.1,1.9,2.1,3.8,3.1,5.7
								l1.5,2.9c0.5,1,0.9,2,1.4,3c0.9,2.1,1.8,4.1,2.7,6.3C128.6,153.9,124.9,162.7,120.2,171.1z"/>
							<path class="st5" d="M118.4,123.7c0,0-1.7-2.4-2.2-4.4c-0.7-2.1-0.3-3.8,4.3-2.7c0,0,1.4,0.6,3.3,1.6c2,1,4.7,2.5,7.3,4.1
								c2.6,1.6,5.2,3.6,7,5.5c1.9,1.9,3.1,3.7,2.8,5.1c0,0-0.6,3.9-0.7,6.1c0,0-1.1,0.7-2.1,1.9c-1,1.2-2,2.9-1.5,5.3
								c0,0,0.1,1.1-0.1,2.7c-0.1,1.6-0.3,3.9-0.6,6.2c-0.3,2.2-0.9,4.5-1.5,6.2c-0.7,1.6-1.4,2.7-2.3,2.7c0,0-1.2,1.4-2.7,2.8
								c-1.5,1.4-3.3,2.8-4.9,3c0,0-1.7-0.3-3.6-0.1c-1.8,0.1-3.8,0.5-4.2,2c0,0-0.6,0.3-1.5,0.6c-0.9,0.3-2.2,0.6-3.4,0.8
								c-2.4,0.3-4.6,0.1-3.9-2c0,0,0-0.7,0.1-1.5c0-0.4,0.1-0.9,0.2-1.4c0.1-0.4,0.1-0.9,0.2-1.2c0,0,0.7-0.9,1.8-2.1
								c0.6-0.7,1.2-1.4,1.9-2.2c0.7-0.9,1.4-1.7,2.1-2.7c3.1-3.6,6-7.6,7.1-7.6c0,0,0.3-0.3,0.6-0.7c0.2-0.3,0.4-0.5,0.7-0.9
								c0.3-0.3,0.5-0.7,0.8-1.1c0.6-0.9,1.2-1.9,1.8-3.1c0.6-1.2,1.2-2.5,1.5-4c0.7-2.9,0.9-6.3-0.3-9.5c-0.6-1.6-1.5-3.3-2.7-4.8
								C122.3,126.4,120.6,124.9,118.4,123.7z"/>
							<path class="st6" d="M116,122.9c0,0-2.3-1.8-3.6-3.6c-0.6-0.9-1.1-1.9-0.9-2.7c0.2-0.9,1-1.5,2.9-2c0,0,0.6-0.4,1.6-1
								c0.5-0.3,1.1-0.7,1.7-1c0.7-0.3,1.4-0.8,2.1-1.2c3-1.5,6.7-2.8,9.4-1.3c0,0,1.3,0.8,3.3,2.1c0.9,0.7,2.1,1.5,3.3,2.5
								c1.2,0.9,2.4,2.1,3.7,3.3s2.5,2.6,3.7,3.9c0.6,0.7,1.1,1.5,1.6,2.1c0.5,0.8,0.9,1.5,1.4,2.2c0.9,1.5,1.5,3.1,2,4.6
								c0.3,0.8,0.3,1.5,0.4,2.2c0.1,0.8,0,1.5-0.1,2.1c0,0-0.1,0.3,0.2,0.9c0.3,0.7,0.9,1.7,2.3,3.3c0,0,0.5,1.7,0.3,3.6
								c-0.3,1.9-1.1,3.9-3.8,4.6c0,0-0.5,0.3-1.3,0.9c-0.8,0.5-1.7,1.3-2.8,2.1c-2.1,1.7-4.2,3.7-4.3,5.4c0,0-0.3,0.1-0.7,0.2
								c-0.4,0.2-0.9,0.3-1.5,0.6c-1,0.5-1.9,1.4-1.5,2.5c0,0,0-1.2,0.1-3c0.1-1.8,0.1-4.2,0.3-6.6c0.3-2.4,0.3-4.8,0.9-6.7
								c0.4-1.9,1.2-3.2,2.4-3.3c0,0,0.1-0.1,0.3-0.3c0.2-0.2,0.3-0.5,0.6-0.9c0.4-0.8,0.9-2,0.9-3.4c0-1.5-0.3-3.4-1.9-5.6
								c-1.5-2.1-3.8-4.6-7.5-7.1c0,0-2.9-1-6.4-1.5C121.8,120.5,117.8,120.6,116,122.9z"/>
							<path class="st7" d="M104.4,116.6c-1.5-1-3.4-2.1-4.6-3.3c-0.5-0.5-0.2-1.2-0.4-1.8c-0.2-0.8,0.9-1.4,1.5-1.8
								c2-0.9,3.1-2.4,4.4-3.9c0.7-0.7,1.2-1.5,2-2.1s1.7-1.3,3-1.8c0.6-0.3,0.9-0.6,0.9-1c-0.2-0.1-0.5-0.5-0.8-0.6
								c-0.1-1.2,0.2-2.3-0.3-3.4c-0.5-0.9-0.3-1.8,0.4-2.7c0.7-0.9,1.7-1.8,2.7-2.7c1-1,1.7-2.2,2.6-3.4c1.5-2,7-2.8,7.6-4.8
								c0.7-1.6,0-3-0.7-4.4l-0.5-1c-0.2-0.3-0.3-0.7-0.5-1c-0.3-0.7-0.4-1.5-0.2-2.2c0.3-1,0.6-1.9,0.9-2.8
								c0.2-0.4,0.3-0.9,0.6-1.5c0.2-0.5,0.4-0.9,0.8-1.5c1.3-1.6,1.9-3.3,2.9-5.1c0.2-0.4,1.9-1.8,2.3-1.9c0.7,0,0.5,0.9,0.9,1.2
								c1.2,1.1-1.2,2.5-2.1,3.6c-0.9,1.4,0.2,2.6,0.1,3.9c-0.3,0.6-0.7,1.2-1.4,1.9c-1.1,0.9,0,1.8,0.6,2.7c0.5,0.5,0.4,1.3,0.2,2
								c-0.3,0.8-0.6,1.5-0.4,2.1c0.3,1.8,3.3,2.9,2.3,4.6c1.1-1.5,0.9,5.6,0.1,4.2c0.2,0.1-0.8,0.6-1.5,0.7c-0.4,0-1.1,0.2-1.4,0
								c-1.7-0.9-4.5-0.5-6.7-0.6c-0.1,0.1-0.2,0.9-0.4,2c-0.2,0.5-0.3,1-0.6,1.5c-0.3,0.5-0.7,0.9-1.1,1.3c-1.5,1-3.3,2-3.6,3.1
								c0.2,0.3,1.3,0.4,1.5,0.8c0,0.2,0.6,0.9,1.5,1.7c0.8,0.9,1.9,2.1,2.9,3.3s2.1,2.6,2.7,3.6s1,1.9,0.9,2.1
								c-0.7,0.6-2.2,1.2-3.3,1c-3.2-0.4-4.6,0.5-7.3,0.7c-0.7,0-1.5-0.3-2.2-0.3c-1.9,0.2-4.2,0.5-4.6,1.1c-0.6,0.5-1.1,1-1.4,1.5
								c-0.3,0.5-0.3,1.1,0,1.6L104.4,116.6z"/>
							<path class="st8" d="M147.9,166.7c0,0-0.4-1.8,0.1-4c0.1-0.5,0.3-1.1,0.6-1.7c0.3-0.6,0.5-1.2,0.9-1.8c0.8-1.2,2-2.3,3.8-3.3
								c0,0,1-0.9,2.1-2.1c1-1.1,2-2.5,2-3l1.5-1.3c0,0,0.8-1.9,1.1-4c0.3-2.2,0.1-4.7-1.5-5.8c0,0-0.1-1-0.1-2.1
								c0-1,0.1-2.1,0.5-2.4c0,0,0.3-0.7-0.1-2.1c-0.3-1.3-1.2-3.3-3.5-5.5"/>
							<path class="st9" d="M108.1,95.3c0.3-0.4,1.2-1.7,2.3-3.1c1-1.4,2.2-2.8,3.2-3.5c1.4-1.1,2.7-2.1,4.1-3.3
								c1.4-1.1,2.7-2.2,4.1-3.4c0.2-0.3,0.2-0.5-0.1-0.6c-2-0.9-0.9-2.7-2.1-3.6c-0.4-0.4-1.3-0.8-1.3-1.3c0.1-1.5,0.5-3,1.4-4.6
								c0.8-1.6,1.8-3.3,3.1-5c1.1-1.5,2.8-2.9,4.2-4.6c0.4-0.3,0.9-0.9,1.5-1c0.4-0.2,0.3,0.4,0.5,0.6c-0.2,0.4-0.8,0.9-1,1.4
								c-0.7,1-0.5,2.1-1.4,3c-0.7,1-1.7,1.9-2.2,2.9c-0.3,0.7-0.4,1.2-0.4,1.8c-0.5,2.3-0.5,4.4,0,6.4c1.7,0.5,0.8,2,0.8,2.9
								c0,0.3-0.3,0.6-0.5,1c-0.1,0.9,0.8,1.7-0.3,2.5c-2.5,1.5-4.9,2.9-6.7,4.5c-0.8,0.6-2.1,2.1-3.3,3.6c-1.2,1.5-2.4,2.9-2.7,3.5
								c-0.5,0.8-0.4,1.5-0.3,2.2c0.1,0.8,0.3,1.5,0,2.2c0,0.1-1-0.2-1.9-0.9C108.1,98.2,107.4,97.1,108.1,95.3z"/>
						</g>
					</g>
				</g>
			</g>
		</g>
		<g>
			<g>
				<g>
					<g class="st2">
						<g class="st2">
							<path class="st3" d="M127.5,139.7c-1.5,0.9-1.7,3.7-1.5,6.4c0.3,2.7,0.9,5.4,0.8,6.1c-0.3,3.1,3.3,8.6,6.9,13
								c3.5,4.4,7,7.8,6.3,8.2c-2.1,0.8-9.9,9.4-9.5,11.2c0.7,4.6,4.1,7.5,8.8,9c2.1,0.9,3.2,0.6,3.2,1.5c0.1,0.3,4.2-0.7,7,0.5
								c1.8,0.9,2.1,2.9,4.1,3.5c1.5,0.8,3.7,3,5.6,5.3c1.9,2.3,3.6,4.8,4.6,6.1c2,2.4,3.2,4.3,3.8,6.2c0.3,0.9,0.5,1.9,0.5,2.9
								c0.1,1,0,2.1-0.3,3.2c-0.3,0.9-0.3,1.6-0.4,2.4c-0.1,0.8,0,1.5,0.1,2.2c0.1,0.8,0.2,1.5,0.2,2.2s0.1,1.5-0.1,2.4
								c-0.1,0.9-0.2,1.6-0.2,2.4s-0.1,1.5-0.1,2.2c0,1.5-0.3,2.9-0.6,4.6c-1.5,3-2.7,5.6-3.5,8.7c0,0.4,0,0.9,0.3,1.3
								s-0.2,1.2-0.2,1.6c-0.4,0.5-0.9,1-1.5,1.5s-1.1,0.9-1.6,1.2c-0.5,0.3-1,0.8-1.5,1.2s-0.9,0.9-1,1.5c-0.3,0.6,0,2,0.9,2.4
								c4.5,1.9,8.8,2.1,13,0.9c1-0.3,1.8-0.7,2.5-1.3c0.7-0.5,1.4-1.2,2-1.9c1-1.5,2-3.2,2.9-5c0.3-0.6,0.7-1.2,1.1-1.7
								c0.4-0.5,0.9-1,1.4-1.5c1-0.9,2.2-1.8,3.5-2.6c2.6-1.5,5.8-2.9,8.7-4.1c2.3-0.8,5.2-1.5,7.6-2.7c1.1-0.6,2.1-1.4,2.9-2.3
								c0.8-0.9,1.2-2.1,1.1-3.6c-0.3-3.3-1.4-6.4-2.2-9.5c-0.4-1.5-0.8-3-1-4.6s-0.3-3.1,0.1-4.7c0.4-2.3,0.9-4.5,1.2-6.6
								c0.1-1,0.3-2.1,0.3-3.3s0-2.2-0.1-3.4c0.2-0.8,0.2-3.3,0.1-4.2c-1.9-4.6-2.3-10.6-7.4-12.1c-3.2-4.2-2.6-7.2-6.8-9.6
								c-5.6-2.8-11.4-5.2-14.7-9.4c-1.9-2.4-3.2-4.8-3.8-7.6c-0.3-0.9,1.8-5.8,2.5-7.3c0.7-1.4,0.3-2.5-0.4-3.4
								c-0.8-0.9-2.1-1.6-3.2-2.1c-4.3-1.2-7.6-3-10.4-5.7c-0.7-1.1,0-2.6-0.5-3.8c-1.6-2.8-5.1-4.1-7.1-6.4c-2.6-4.8-4-6.8-5-7.7
								c-0.9-0.9-1.3-0.5-1.2-0.8c-0.3-1,2-1.9,2.2-3.3c0-0.9-0.3-1.7-0.9-2.5c-0.5-0.8-1.3-1.4-2.1-1.9c-1-0.8-2-1.6-2.9-2.6
								c-0.9-0.9-1.7-2-2.2-3.1c-0.3-0.5-0.5-1.1-0.7-1.7c-0.2-0.6-0.3-1.1-0.3-1.7s0-1.2,0.2-1.7c0.2-0.6,0.4-1.1,0.7-1.7
								c-0.5,0.3-1.2,0.3-1.4,0.6c-0.4,0.8-0.9,1.6-1.4,2.4c-0.5,0.8-0.9,1.6-1.4,2.4c-0.9,1.6-1.8,3.3-2.5,4.9
								c-1.5,3.3-2.2,7-1.4,10.8c0.5,0.7,1.2,1.5,1.5,2.4c0.3,1.5,0.9,2.9,1.5,4.3c0.3,1.2-0.7,3.2-2.1,5.1
								C130.7,137,128.9,138.9,127.5,139.7z"/>
							<path class="st4" d="M178.8,253c-0.9,1.7-1.8,3.4-2.9,4.9c-0.6,0.7-1.2,1.4-2,1.9c-0.8,0.5-1.5,1-2.5,1.3
								c-1,0.3-2.1,0.5-3.2,0.6c-0.5,0.1-1,0.1-1.5,0.2c-0.5,0-1.1,0-1.6,0c-2.1-0.2-4.4-0.6-6.6-1.5c-0.9-0.4-1.1-1.8-0.9-2.3
								c0.5-1.1,1.4-1.9,2.5-2.6c0.6-0.3,1.1-0.8,1.6-1.2s1-0.9,1.5-1.5c0-0.4,0.4-1.2,0.2-1.6c-0.3-0.4-0.3-0.9-0.3-1.3
								c0.9-3.1,2.1-5.7,3.5-8.7c0.3-1.6,0.5-3.1,0.6-4.6c0-0.8,0.1-1.5,0.1-2.2c0-0.8,0.1-1.5,0.2-2.4c0.2-0.9,0.1-1.6,0.1-2.4
								c0-0.8-0.1-1.5-0.2-2.2c-0.1-0.8-0.1-1.5-0.1-2.2s0.1-1.5,0.4-2.4c0.3-1.1,0.3-2.1,0.3-3.2c0-1-0.2-2-0.5-2.9
								c-0.3-0.9-0.8-1.9-1.4-2.9c-0.6-1-1.4-2.1-2.4-3.3c-0.5-0.6-1.2-1.5-2-2.7c-0.4-0.5-0.9-1.1-1.3-1.7
								c-0.4-0.6-0.9-1.2-1.4-1.7c-1.9-2.3-4-4.6-5.6-5.3c-2-0.7-2.2-2.7-4.1-3.5c0,0,0.3-0.4,0.8-1.3c0.5-0.9,1.2-2.1,2-3.9
								c9.1,6,18,12.3,26.1,20.8c0.9,3.3,1.6,6.8,2.1,10.2c0.5,3.4,0.9,7,0.9,10.5C181.5,238.8,180.8,246,178.8,253z"/>
							<path class="st5" d="M153,193.6c0,0-3.2-2-5.2-4.2c-2.1-2.2-3.2-4.9,1.3-6.4c0,0,1.5-0.1,3.9,0c2.4,0,5.6,0.2,8.9,0.5
								c6.7,0.7,13.8,2.6,15.5,6.1c0,0,2.4,5.1,3.8,7.7c0,0-0.4,1.5-0.4,3.8c0,1.1,0.2,2.3,0.5,3.7c0.2,0.7,0.4,1.3,0.8,2
								c0.3,0.7,0.7,1.4,1.1,2.1c0,0,0.8,1.4,1.7,3.7c0.3,0.6,0.5,1.2,0.8,1.8c0.3,0.7,0.5,1.4,0.8,2.1c0.5,1.5,1,3.1,1.5,4.7
								c0.5,1.6,0.8,3.3,1.1,4.9c0.3,1.6,0.4,3.2,0.5,4.6c0.1,2.7-0.2,4.8-1,5.2c0,0-0.2,0.7-0.4,1.7c-0.2,0.5-0.3,1.1-0.4,1.8
								c-0.2,0.7-0.4,1.4-0.7,2.1c-0.3,0.8-0.5,1.5-0.9,2.2c-0.3,0.7-0.7,1.5-1,2.1c-0.7,1.3-1.5,2.3-2.2,2.8c0,0-1.8,0.7-3.7,1.7
								c-0.9,0.5-1.9,1.2-2.7,2c-0.3,0.4-0.7,0.9-0.9,1.3c-0.3,0.4-0.5,0.9-0.6,1.5c0,0-0.7,0.6-1.7,1.5c-1,0.8-2.4,1.7-3.7,2.3
								c-2.7,1.3-5.1,1.4-4.1-1.4c0,0,0-0.3,0-0.6c0-0.3,0-0.9,0.1-1.5c0-0.6,0.1-1.2,0.1-1.7c0-0.6,0-1.1,0.1-1.5
								c0,0,0.2-0.3,0.5-0.9c0.3-0.6,0.7-1.5,1.2-2.5c0.5-1,0.9-2.3,1.5-3.7c0.3-0.7,0.4-1.5,0.7-2.1c0.3-0.8,0.5-1.5,0.7-2.3
								c0.3-0.8,0.4-1.5,0.6-2.3c0.2-0.8,0.3-1.5,0.5-2.3c0.4-1.5,0.6-3,0.9-4.3c0.5-2.6,0.9-4.6,1.5-5c0,0,0.1-0.4,0.2-1.3
								c0.1-0.4,0.1-0.9,0.2-1.5c0-0.6,0.1-1.3,0.1-2c0.1-2.9-0.2-7-1.5-11.1c-1.3-4.1-3.4-8.3-6.8-11.6
								C162.8,196.2,158.5,194,153,193.6z"/>
							<path class="st6" d="M150.6,194.3c0,0-0.8-0.2-1.9-0.6c-1.1-0.3-2.5-0.9-3.8-1.7c-2.6-1.5-4.6-4-2.2-7.6c0,0,0.5-3.9,1.8-7.8
								s3.4-7.6,6.9-7c0,0,1.6,0.3,4.3,0.9c2.6,0.6,6.2,1.5,10,2.9s7.8,3.2,11.3,5.5c3.5,2.4,6.6,5.3,8.3,8.8c0,0,0.2,0.4,0.9,0.9
								c0.7,0.6,1.9,1.5,4.1,2.3c0,0,0.4,0.4,0.9,1.2c0.5,0.8,1.3,1.8,1.9,3c0.6,1.3,1,2.7,1.2,4.1c0.1,1.5-0.2,2.9-1,4.1
								c0,0-0.2,0.8-0.4,2.1s-0.6,3-0.9,4.8c-0.2,0.9-0.3,1.9-0.4,2.8c-0.2,0.9-0.3,1.9-0.3,2.7c-0.1,1.8-0.1,3.4,0.3,4.6
								c0,0-0.2,0.3-0.4,0.8c-0.3,0.4-0.6,1.1-0.9,1.8c-0.6,1.5-0.9,3.1-0.1,4.5c0,0,0-0.1-0.1-0.3c-0.1-0.2-0.2-0.5-0.3-0.9
								c-0.3-0.7-0.6-1.8-1-3c-0.4-1.3-1-2.7-1.5-4.2c-0.6-1.5-1.3-3.2-1.9-4.8c-1.4-3.3-2.7-6.5-3.6-9.2c-0.9-2.7-1.3-4.7-0.4-5.8
								c0,0,0.1-0.8-0.1-2c-0.1-0.6-0.3-1.4-0.5-2.1c-0.3-0.8-0.7-1.7-1.2-2.6c-2.2-3.7-7-7.7-16.7-9.1c0,0-3.1,0.6-6.2,2.2
								C153.2,187.3,150.3,190.1,150.6,194.3z"/>
							<path class="st7" d="M136.4,193.5c-2.1-0.6-4.5-0.9-6.4-1.8c-0.9-0.5-1.2-1.7-2-2.5c-0.8-1.1-0.6-2.7-0.5-3.9
								c0.4-1.4,0.5-2.8,0.4-4.4c0-1.5-0.2-3-0.3-4.6c-0.3-3.1-0.3-6.3,1-9.1c0.3-0.9,0.3-1.5,0.1-2.1c-0.3-0.1-0.9-0.7-1.2-0.8
								c-1-2-1.6-4.1-2.8-5.9c-2.1-2.9-1.5-6.9-0.4-10.7c0.5-2.1,0.5-4.5,0.9-6.6c0.5-3.9,5.8-5.5,5.9-8.8c0.1-1.4,0-2.6-0.3-3.8
								c-0.3-1.2-0.8-2.3-1.3-3.5l-0.7-1.7c-0.2-0.6-0.4-1.2-0.5-1.8c-0.3-1.2-0.4-2.5-0.2-3.9c0.2-0.8,0.3-1.5,0.5-2.3
								s0.4-1.5,0.6-2.2c0.3-0.7,0.4-1.5,0.8-2.1c0.3-0.7,0.7-1.4,1.1-2.1c0.4-0.5,0.8-1,1.1-1.5c0.3-0.5,0.8-1,1.1-1.5
								c0.7-1,1.4-2.1,2.2-3.1c0.3-0.5,2.5-1.5,2.9-1.3c0.6,0.3,0.1,1.4,0.3,2.1c0.7,1.9-2,2.7-3.2,3.9c-1.1,1.6-0.6,3.8-0.8,5.8
								c-0.3,0.9-0.9,1.5-1.5,2.4c-1.2,1.2-0.2,2.8,0.5,4.4c1.1,1.9-0.4,4.2,0.1,6.4c0.3,1.4,1.3,2.5,2.1,3.5c0.9,1,1.5,2.1,1.2,3.3
								c0.3-1.1,0.9,0.9,1.5,2.9c0.5,2.1,0.8,4.1,0.2,3.2c0.3,0.1-0.5,1-1.1,1.4c-0.4,0.1-1,0.4-1.3,0.3c-2-0.9-4.6,0-6.9,0.1
								c-0.2,0.3,1.3,5.9,0.3,8.7c-0.9,2.1-2.1,4.2-1.5,6.4c0.3,0.5,1.5,0.3,1.8,0.8c0.2,0.3,1.1,1.2,2.5,2.3
								c1.5,1.1,3.3,2.6,5.1,3.9c3.6,2.7,7.2,5.5,7.3,6.4c-0.1,1.1-0.9,2.9-2.1,3.2c-3,1.1-3.4,3.3-5.6,5.1
								c-0.6,0.4-1.5,0.4-2.1,0.9c-1.5,1.3-3,3.2-2.9,4.4c-0.3,2.2,0.4,4.5,1.7,5.7L136.4,193.5z"/>
							<path class="st8" d="M204.2,229.6c0,0-0.3-0.6-0.7-1.6c-0.2-0.5-0.4-1.1-0.6-1.9c-0.2-0.7-0.4-1.5-0.6-2.4
								c-0.7-3.5-1-8.1,0.7-13.1c0,0,0.3-2.1,0.3-4.4c0.1-2.2,0-4.8-0.3-5.5l0.3-2.7c0,0-0.2-0.8-0.5-1.8c-0.3-1.1-0.9-2.5-1.5-4
								c-0.7-1.5-1.5-2.8-2.3-4c-0.9-1.1-1.9-1.9-2.9-2c0,0-0.8-1.1-1.5-2.3c-0.8-1.2-1.5-2.6-1.4-3c0,0-0.3-0.9-1.5-2.3
								c-0.6-0.7-1.4-1.4-2.5-2.1c-1.1-0.7-2.5-1.4-4.2-1.9"/>
							<path class="st9" d="M121.8,156.2c-0.1-0.9-0.1-3.6,0.2-6.4c0.1-1.5,0.3-2.8,0.5-4.1c0.3-1.3,0.5-2.3,0.8-3
								c0.9-2.1,1.8-4.2,2.7-6.3c1-2.1,2.1-4,3.3-6.1c0.1-0.4,0.1-0.9-0.3-1.1c-1.1-0.9-1.5-2-1.7-3.2c-0.3-1.2-0.4-2.3-0.9-3.3
								c-0.4-0.9-1.4-1.6-1.4-2.7c0.1-5.4,2.4-10.6,6-14.8c1.5-1.7,3.8-3,5.8-4.5c0.5-0.3,1.1-0.7,1.7-0.5c0.5,0,0.1,0.7,0.3,1.1
								c-0.3,0.4-1,0.8-1.5,1.4c-1.1,1-1.2,2.6-2.3,3.5c-1,1.1-2.2,2.1-3,3.4c-0.3,0.4-0.4,0.9-0.5,1.4c-0.1,0.4-0.2,0.9-0.3,1.4
								c-0.2,0.9-0.3,1.7-0.5,2.6c-0.1,0.9-0.2,1.7-0.2,2.6c-0.1,1.7,0.2,3.4,0.4,5.1c1.9,1,1,3.3,1.3,4.8c0,0.5-0.3,1-0.3,1.6
								c0.1,1.5,1.2,2.7,0.3,3.9c-1.1,1.3-2.1,2.6-2.9,3.9c-0.9,1.4-1.6,2.7-2.2,4.2c-0.5,1.2-1.1,4.1-1.5,7c-0.3,2.9-0.5,5.9-0.3,7
								c0.2,3.1,2.3,5.3,2.9,8.1C127.9,163.7,123.1,163.4,121.8,156.2z"/>
						</g>
					</g>
				</g>
			</g>
		</g>
		<g>
			<g>
				<g>
					<g class="st2">
						<g class="st2">
							<path class="st3" d="M170.8,139.9c-3.4,1-2.9,7.8-3.5,8.7c-1.1,2.1,0.9,6.2,3,9.6c1,1.7,2.1,3.3,2.7,4.4s1,1.9,0.6,2
								c-2.2,0.3-12.3,5-12.6,6.1c-0.4,1.5-0.1,2.8,0.8,4c0.9,1.2,2.4,2.2,4.3,3.2c1.7,0.9,2.8,1,2.5,1.5c0,0.3,4.1,0.3,6.4,1.6
								c1.5,0.9,1,2.4,2.7,3.3c1.3,0.9,2.5,2.8,3.7,4.8c1.1,2.1,2.1,4.1,2.8,5.2c2.6,4.1,3.1,6.4,1.6,9.6c-1.5,2.5-0.4,4.6-1.1,7
								c-0.3,1.3-0.3,2.5-0.3,3.6c-0.1,1.1-0.1,2.2-0.4,3.6c-1.2,2.4-2,4.6-2.2,7.3c0.1,0.3,0.2,0.8,0.6,1c0.3,0.3,0.1,0.9,0.3,1.4
								c-1,2.1-3.5,3.6-3.4,5.8c0,0.6,0.8,1.6,1.8,1.5c4.8-0.1,8.7-1.1,12.1-2.7c3.2-1.5,3.6-3.9,4.6-6.4c1.4-3.4,7.4-5.4,13.1-6.8
								c4.5-0.9,11.4-1.5,11.2-4.9c-0.4-3.9-3.8-7.6-1.6-11.5c1.6-2.7,3.3-5,3.9-7.9c0.3-0.4,1-2.1,1.1-2.6c-0.3-1.6-0.2-3.3-0.4-5
								s-1-3.1-3.2-4c-1.6-3.4-0.1-5.4-3.3-7.9c-4.3-3.1-9-6-10.6-9.8c-1-2.1-1.5-4.2-1.1-6.4c0-0.8,3.4-4,4.6-5.1
								c2.1-1.9,0.1-3.7-1.9-4.8c-1.9-0.8-3.4-1.6-4.9-2.6c-1.4-0.9-2.6-2-3.6-3.1c-0.4-0.9,0.6-1.9,0.4-2.9c-0.4-1.1-1.5-2-2.6-2.8
								c-1-0.9-2.2-1.6-3-2.6c-1.6-3.7-2.7-5.2-3.6-6c-0.9-0.7-1.2-0.5-1.1-0.7c-0.1-0.8,2.2-1.2,2.7-2.1c0.3-1.3-1-2.5-2.4-3.3
								c-1.9-1.3-3.7-2.8-4.7-4.5c-0.5-0.9-0.9-1.7-0.9-2.5c-0.1-0.9,0.3-1.6,0.9-2.4c-0.5,0.1-1.2,0.1-1.3,0.3
								c-0.4,0.5-0.9,1.1-1.4,1.6c-0.5,0.5-0.9,1.1-1.5,1.6s-1,1.1-1.5,1.6s-0.9,1.1-1.4,1.7c-0.4,0.6-0.9,1.2-1.2,1.8
								c-0.3,0.6-0.6,1.2-0.9,1.9c-0.3,0.6-0.4,1.3-0.5,2c-0.1,0.7-0.1,1.4,0,2.1c0.3,0.5,0.9,1.2,1.1,1.8c0.1,1.1,0.4,2.1,0.8,3.2
								c0.2,0.9-1.2,2.2-2.9,3.4C174.4,138.3,172.4,139.5,170.8,139.9z"/>
							<path class="st4" d="M197.7,226.1c-1,2.5-1.5,4.9-4.6,6.4c-3.4,1.5-7.3,2.6-12.1,2.7c-0.9,0-1.8-1-1.8-1.5
								c-0.1-2.1,2.4-3.7,3.4-5.8c-0.1-0.3,0.2-1-0.3-1.4c-0.3-0.3-0.5-0.7-0.6-1c0.3-2.7,0.9-4.9,2.2-7.3c0.3-1.3,0.3-2.4,0.4-3.6
								c0-1.1,0.1-2.2,0.3-3.6c0.7-2.5-0.4-4.6,1.1-7c1.5-3.3,1-5.5-1.6-9.6c-1.4-2.1-3.9-8.3-6.5-10c-1.7-0.9-1.2-2.3-2.7-3.3
								c0,0,1.6-0.9,4.4-3c6.5,5.8,12.8,12.2,18.8,19.1C198.6,206.7,198.5,216.5,197.7,226.1z"/>
							<path class="st5" d="M179.2,180.5c0,0-0.6-0.5-1.3-1.2s-1.6-1.7-2.2-2.7c-1.2-1.9-1.3-3.9,3.3-4c0,0,1.5,0.3,3.7,0.7
								s5.2,1.1,8.2,2c6,1.7,12.1,4.5,12.5,7.2c0,0,0.2,0.9,0.4,2.2c0.3,1.2,0.5,2.7,0.9,3.8c0,0-0.9,0.9-1.5,2.5
								c-0.6,1.5-0.9,3.4,0.3,5.5c0,0,1.5,4.2,2.5,8.7c0.5,2.2,0.8,4.5,0.8,6.3s-0.3,3.1-1.1,3.3c0,0-0.5,1.7-1.4,3.6
								c-0.9,1.9-2.1,3.9-3.3,4.7c0,0-1.7,0.5-3.3,1.4c-1.6,0.9-3.3,2.1-3,3.6c0,0-0.5,0.5-1.2,1.2c-0.8,0.7-1.7,1.5-2.7,2.2
								c-2.1,1.4-4.1,2.1-4.3-0.2c0,0-1.1-2.7-1.4-4.1c0,0,1.3-4.6,2.6-9.3c1.4-4.7,2.7-9.7,3.8-10.2c0,0,0.5-1.3,1-3.3
								c0.3-1,0.5-2.2,0.6-3.6c0.1-1.4,0.2-2.8,0-4.4C192.5,190.1,189,183.1,179.2,180.5z"/>
							<path class="st6" d="M176.6,180.5c0,0-0.7-0.3-1.5-0.8c-0.9-0.4-2.1-1.1-3-1.9c-1.9-1.5-2.8-3.4,0.5-5.5c0,0,0.4-0.6,1.2-1.5
								c0.8-0.9,1.8-2.1,3.1-3.3c2.5-2.4,5.7-4.7,8.7-3.9c0,0,1.5,0.4,3.7,1.3c2.2,0.9,5.2,2.1,8.3,3.8c3.1,1.6,6.3,3.8,8.8,6.1
								c2.5,2.4,4.4,5.1,4.9,7.8c0,0,0,0.3,0.5,0.9c0.5,0.5,1.4,1.3,3.2,2.3c0,0,1,1.5,1.5,3.3c0.4,1.8,0.3,4-2.1,5.4
								c0,0-1.5,1.9-2.9,4.2c-1.4,2.2-2.7,4.9-2.1,6.4c0,0-0.9,0.6-1.7,1.5c-0.7,0.9-1.3,2-0.4,2.8c0,0-0.4-1.1-1-2.8
								c-0.6-1.7-1.4-3.9-2.1-6.3c-0.7-2.3-1.3-4.6-1.5-6.6c-0.2-1.9,0.1-3.4,1.1-4c0,0,0.3-0.5,0.5-1.4s0.3-2.1-0.3-3.6
								c-0.5-1.5-1.5-3.1-3.5-4.8c-2.1-1.6-4.9-3.3-9.3-4.7c0,0-3.1-0.2-6.5,0.4C181.4,176.2,177.7,177.6,176.6,180.5z"/>
							<path class="st7" d="M163.5,177.4c-1.7-0.7-3.9-1.4-5.3-2.1c-0.6-0.4-0.5-1.3-0.9-1.9c-0.3-0.8,0.3-1.8,0.9-2.5
								c3.3-3.3,2.6-8.2,6.9-11.8c0.4-0.5,0.7-0.9,0.7-1.5c-0.3-0.1-0.7-0.5-0.9-0.6c-0.4-1.5-0.3-2.9-1-4.3c-0.7-1-0.6-2.3-0.1-3.6
								s1.4-2.6,2.3-3.9c0.9-1.4,1.5-3,2.2-4.6c1.3-2.7,6.8-3.4,7.5-5.8c0.8-1.9,0.2-3.5-0.4-5.2c-0.6-1.7-1.2-3.5-0.5-5.4
								c0.3-0.5,0.5-1.1,0.8-1.6c0.3-0.5,0.5-1,0.8-1.5c0.6-1,1.2-2,2.1-2.8c1.8-1.3,2.9-2.8,4.6-4.1c0.3-0.3,2.5-0.9,2.9-0.8
								c0.6,0.3,0.1,1,0.3,1.5c0.6,1.5-2.1,1.8-3.3,2.6c-0.6,0.5-0.9,1.2-0.9,1.9c-0.1,0.7,0,1.5-0.2,2.1c-0.3,0.6-0.9,1-1.8,1.6
								c-1.3,0.8-0.4,2,0.1,3.2c0.9,1.4-0.9,3-0.7,4.6c0.1,1,0.9,1.9,1.5,2.7c0.7,0.9,1.1,1.6,0.6,2.5c1-1.5,1.1,5.9,0.3,4.6
								c0.3,0.1-0.7,0.7-1.4,0.9c-0.4,0-1.1,0.3-1.4,0.1c-1.7-0.9-4.5-0.4-6.7-0.5c-0.3,0.2,0,4.3-1.6,6.1c-1.4,1.4-3,2.7-3.1,4.3
								c0.2,0.3,1.4,0.3,1.5,0.7c0.1,0.4,2.8,2.8,5.4,5.2c2.7,2.3,5.2,4.7,4.9,5.3c-0.5,0.8-1.9,1.9-3,1.9c-3.2,0.3-4.3,1.8-6.9,2.7
								c-0.7,0.2-1.5,0.1-2.2,0.3c-1.8,0.7-3.9,1.7-4.2,2.5c-0.5,0.7-0.8,1.5-0.9,2.1c-0.1,0.7,0.1,1.3,0.5,1.8
								C163.4,175.2,163.4,176.3,163.5,177.4z"/>
							<path class="st8" d="M221.4,211.6c0,0-1-1.5-1.4-3.7c-0.4-2.1-0.1-5,2.6-7.9c0,0,0.7-1.2,1.3-2.6c0.6-1.4,1.1-2.8,0.9-3.4
								l0.9-1.6c0,0,0.1-1.9-0.3-4c-0.4-2.1-1.3-4.3-3.2-4.8c0,0-0.4-0.9-0.8-1.9c-0.3-0.9-0.6-2-0.3-2.3c0,0,0.1-0.8-0.6-1.9
								c-0.7-1.1-2.1-2.7-5-4"/>
							<path class="st9" d="M161.5,150.9c0.3-1.3,2.7-7.5,4.6-9.4c2.6-2.8,5.2-5.5,8.2-8.2c0.2-0.3,0.3-0.6-0.1-0.8
								c-0.9-0.7-1.2-1.5-1.3-2.4c-0.1-0.9,0-1.7-0.5-2.5c-0.3-0.6-1.2-1.2-1-2c0.2-0.9,0.4-1.9,0.9-2.8c0.4-0.9,0.9-1.8,1.5-2.7
								c1.2-1.7,2.8-3.3,4.6-4.6c1.6-1.1,3.9-1.9,5.8-2.8c0.5-0.2,1.1-0.4,1.7-0.3c0.4,0,0.1,0.5,0.3,0.9c-0.3,0.3-1,0.4-1.5,0.9
								c-1,0.7-1.3,1.7-2.4,2.4c-1,0.8-2.3,1.4-3.2,2.2c-0.5,0.6-0.8,1.2-0.9,1.9c-0.3,0.6-0.5,1.2-0.7,1.8
								c-0.2,0.6-0.3,1.2-0.4,1.8c-0.1,0.6-0.2,1.2-0.3,1.8c0,0.6,0,1.2,0.1,1.8c1.6,0.9,0.5,2.4,0.5,3.5c-0.1,0.3-0.4,0.7-0.6,1.1
								c-0.2,1,0.7,2.1-0.4,2.8c-1.3,0.9-2.5,1.6-3.6,2.6c-1.1,0.9-2.1,1.8-3,2.7c-1.5,1.6-4.7,8.1-5.1,9.7
								c-0.7,2.1,0.8,3.9,0.6,5.8C165.2,156.6,160.9,156,161.5,150.9z"/>
						</g>
					</g>
				</g>
			</g>
		</g>
	</g>
	<path class="st10" d="M135.6,155.7c-9.9,43.8,4.1,31.9,24,60.3s2.8,55.4,2.8,55.4c46.8-18.5,49.6-62.4,49.6-62.4
		c11.3-89.4-38.3-107.8-38.3-107.8c-4.3,34.1-14.2,34.1-14.2,34.1C158.2,44.3,97.2,40,97.2,40c14.2,24.1,14.2,45.4,4.3,68.1
		c-5.2,11.8-15.4,27.1-24,39.1c-11.2,15.5-18.1,33.7-19.6,52.7c-1.2,15.1-0.7,32,5.2,43c12.8,24.1,49.6,28.4,49.6,28.4
		s-8.8-3.8-12.2-26.9c-4-28,5.5-56.2,24.6-77.2L135.6,155.7z"/>
</g>
</svg>
