<?xml version="1.0" encoding="utf-8"?>
<!-- Generator: Adobe Illustrator 22.1.0, SVG Export Plug-In . SVG Version: 6.00 Build 0)  -->
<svg version="1.1" id="Calque_1" xmlns="http://www.w3.org/2000/svg" xmlns:xlink="http://www.w3.org/1999/xlink" x="0px" y="0px"
	 viewBox="0 0 288 332" style="enable-background:new 0 0 288 332;" xml:space="preserve">
<style type="text/css">
	.st0{fill:#FFFFFF;}
	.st1{display:none;}
	.st2{display:inline;}
	.st3{opacity:0.9;}
	.st4{fill:#DDE9F7;}
	.st5{opacity:0.9;fill:#94C3EB;enable-background:new    ;}
	.st6{fill:#B1D1EF;}
	.st7{fill:#CBE0F5;}
	.st8{fill:#EBF2FB;}
	.st9{fill:none;}
	.st10{fill:#F9FCFE;}
	.st11{display:inline;fill:none;stroke:#231F20;stroke-miterlimit:10;}
	.st12{display:none;fill:#0E0C0C;stroke:#010101;stroke-miterlimit:10;}
	.st13{fill:#F8E7D6;}
	.st14{opacity:0.9;fill:#E9B487;}
	.st15{fill:#EFC9A6;}
	.st16{fill:#F4DAC1;}
	.st17{fill:#FBF1E7;}
	.st18{fill:none;stroke:#F3D6BB;stroke-width:0;}
	.st19{fill:#FEFAF7;}
	.st20{fill:none;stroke:#231F20;stroke-miterlimit:10;}
</style>
<circle class="st0" cx="140.1" cy="89" r="88.3"/>
<g class="st1">
	<g class="st2">
		<g>
			<g>
				<g>
					<g class="st3">
						<g class="st3">
							<path class="st4" d="M189.7,93.6c-0.3-0.2-1.2-0.1-2.2,0.3c-1,0.4-2.2,1-3.4,1.7c-2.2,1.4-4.1,2.7-4.5,2.9
								c-0.6,0.2-1.1,0.6-1.8,1c-0.3,0.2-0.6,0.4-1,0.7c-0.3,0.3-0.7,0.5-1.1,0.8c-1.5,1.1-3.4,2.3-5.3,3.3c-3.8,2-7.7,3.2-7.8,2.9
								c0-0.5-1-1.6-2.2-2.7c-0.6-0.6-1.2-1.1-1.7-1.5c-0.6-0.4-1-0.7-1.4-0.7c-1.7-0.1-3.4-0.1-5.1,0.1c-1.7,0.2-3.4,0.6-5,1.1
								c-1.6,0.4-2,0.8-2.6,0.6c-0.3-0.1-1.3,1.5-3.6,1.8c-1.5,0.2-3.4-0.5-4.9-0.3c-1.4,0.1-4.3-0.3-7.1-0.9
								c-2.9-0.6-5.8-1.4-7.3-1.7c-5.9-1.4-8.7-2.6-12.7-5c-3-2-5.9-2.7-9.2-4.3c-1.8-0.8-3.4-1.4-4.9-1.9c-0.8-0.3-1.6-0.6-2.4-0.8
								c-0.8-0.3-1.7-0.6-2.7-0.8c-3.5-1.4-6.9-2.4-11-2.8c-0.6,0-1.1,0.1-1.5,0.2c-0.4,0.1-1.5,0-2,0.1c-0.8-0.1-1.7-0.2-2.4-0.3
								c-0.8-0.1-1.6-0.3-2.4-0.3C69.2,87,68.4,87,67.6,87H67l-0.6,0.1c-0.4,0.1-0.8,0.1-1.3,0.3c-0.9,0.2-2.2,0.8-1.8,1.2
								c0.9,0.8,2,1.5,3.3,2c0.3,0.1,0.6,0.3,0.9,0.4c0.3,0.1,0.6,0.3,1,0.4c0.6,0.3,1.3,0.6,2,0.8c0.6,0.2,1.3,0.5,2,0.6
								c0.7,0.1,1.4,0.3,2.2,0.3c1.5,0.3,3.1,0.4,4.7,0.8c0.6,0.1,1,0.3,1.5,0.4c0.5,0.2,1,0.4,1.4,0.7c0.9,0.5,1.7,1,2.3,1.7
								c0.7,0.6,1.3,1.3,1.7,2c0.5,0.7,0.9,1.5,1.3,2.2c0.4,1,0.7,2.3,1.3,3.5c0.6,1.2,1.4,2.1,3.1,2.7c4.1,1.3,8.4,1.7,12.3,4.4
								c2.7,2,5,3.7,8.1,5.5c0.4,0.3,2.2,1.4,2.8,1.7c2,0.7,4.1,1.7,6.1,2.4c2,0.7,4,1.1,5.7,0.8c4.7,0.9,6.9,2.2,11,1.9
								c2.6-0.3,5.1-0.7,7.8-1c2.6-0.3,5.3-0.7,8.1-0.9c3.2-0.3,6.2-0.5,9.4-0.6c0.6-0.1,1.9,0.1,3.3,0.4c0.7,0.1,1.4,0.2,2,0.3
								c0.6,0.1,1.1,0.1,1.5,0.2c2.5,0.3,5.9-1.4,7.8-3c1.5-1.3,2.9-2.7,4.4-4.1c1.5-1.4,3-2.9,4.5-4.4c1.1-1,2.4-1.5,3.6-2.4
								c2.6-2.4,3.4-4.5,5.6-6.2c2.1-1.3,3.8-2.1,5-2.7c1.3-0.6,2-1,2.4-1.2c1-0.5,0.7-0.6,0.9-0.6c1-0.2,1.7,0.7,3,0.7
								c0.9-0.1,1.8-0.3,2.7-0.5c0.8-0.3,1.5-0.6,2.2-0.9c3.6-1.7,8.3-3.1,13.1-2c-0.3-0.2-0.3-0.5-0.7-0.6
								c-3.4-0.8-6.3-1.7-9.5-2.4c-3.1-0.6-6.4-1-10.2-0.3c-0.3,0.1-0.8,0.3-1.2,0.4c-0.4,0.1-0.8,0.3-1.3,0.4
								c-0.8,0.1-1.5,0.3-2.2,0.6c-0.3,0.1-0.7,0.2-1,0.3c-0.3,0.1-0.7,0.3-1,0.4c-0.6,0.2-1.3,0.3-2.1,0.3c-0.8,0.1-1.7,0-2.5,0.1
								c-0.8,0-1.7-0.1-2.4-0.1C190.6,94,190,93.8,189.7,93.6z"/>
							<path class="st5" d="M79.6,93.8c-0.8-0.1-1.6-0.4-2.4-0.5c-0.8-0.1-1.5-0.2-2.3-0.3c-0.8-0.1-1.5-0.2-2.2-0.4
								c-0.7-0.1-1.4-0.4-2-0.6c-0.7-0.3-1.3-0.5-2-0.8c-0.3-0.1-0.6-0.3-1-0.4c-0.3-0.1-0.6-0.3-0.9-0.4c-1.3-0.6-2.4-1.2-3.3-2
								c-0.3-0.3,0.9-1,1.8-1.2c1.6-0.5,3.3-0.4,4.9-0.3c0.8,0,1.6,0.2,2.4,0.3c0.8,0.1,1.6,0.2,2.4,0.3c0.6,0,1.6,0.1,2-0.1
								c0.4-0.1,1-0.2,1.5-0.1c4.1,0.4,7.5,1.4,11,2.8c0.9,0.3,1.8,0.6,2.7,0.8c0.8,0.3,1.6,0.6,2.4,0.8c1.6,0.5,3.1,1.1,4.9,1.9
								c3.3,1.6,6.2,2.4,9.2,4.3c4.1,2.4,6.9,3.6,12.7,5c1.5,0.3,4.5,1.2,7.3,1.7c2.9,0.6,5.7,1,7.1,0.9c1.5-0.2,3.4,0.5,4.9,0.3
								c0,0,0.2,0.2,0.7,0.7c0.5,0.4,1.3,1.1,2.3,1.9c-9.2,0.8-19-0.3-28.7-2.1c-5.9-2.6-11.7-5.3-17.7-7.6
								c-1.5-0.6-2.9-1.1-4.5-1.6l-2.2-0.8l-2.2-0.7l-1.1-0.3L86.5,95c-0.8-0.2-1.5-0.3-2.2-0.6C82.7,94.3,81.1,94,79.6,93.8z"/>
							<path class="st6" d="M140.7,107.6c0,0,0.8,0,1.9-0.1c1.1-0.1,2.6-0.1,4-0.1c2.8,0,5.3,0.2,4.7,2c0,0-2.4,2.2-6.2,4
								c-3.7,1.8-8.7,3.1-12.4,2.1c0,0-0.3-0.1-0.8-0.2c-0.6-0.1-1.3-0.3-2.1-0.6c-1.7-0.5-3.6-1-5-1.5c0,0-1-0.8-2.8-1.7
								c-1.7-1-4.1-2.1-6.9-2.8c0,0-0.3-0.1-0.9-0.3c-0.6-0.2-1.4-0.5-2.4-0.8c-2-0.7-4.7-1.6-7.3-2.6c-2.7-1-5.3-2-7.3-2.7
								c-2-0.8-3.5-1.4-3.7-1.9c0,0-2-0.9-4.1-1.9c-2.2-1-4.6-2-5.6-2.7c0,0-0.6-0.8-1.8-1.7c-0.6-0.5-1.3-0.8-2.2-1.2
								c-0.8-0.3-1.7-0.6-2.7-0.6c0,0-0.7-0.2-1.7-0.6c-0.5-0.2-1.1-0.3-1.7-0.5c-0.6-0.1-1.2-0.3-1.8-0.5c-2.3-0.6-4-1.2-0.8-1.7
								c0,0,0.2-0.1,0.6-0.1c0.3-0.1,0.9-0.1,1.5-0.3c0.6-0.1,1.3-0.2,1.9-0.3s1.3-0.1,1.7-0.1c0,0,0.4,0.1,1.2,0.1s1.8,0.3,3.1,0.5
								c0.3,0.1,0.6,0.1,1,0.2c0.3,0.1,0.7,0.1,1,0.3c0.7,0.2,1.5,0.3,2.3,0.6c0.8,0.2,1.6,0.5,2.4,0.8c0.4,0.1,0.8,0.3,1.3,0.4
								c0.4,0.1,0.8,0.3,1.2,0.4c6.6,2.4,12.7,5.7,13.2,6.4c0,0,1.6,0.9,4.1,2.2s6,3.1,9.9,4.8c3.9,1.7,8.3,3.1,12.4,3.6
								C134,109.2,137.9,108.9,140.7,107.6z"/>
							<path class="st7" d="M141.4,106.6c0,0,0.6-0.1,1.3-0.3c0.8-0.2,2-0.4,3.1-0.6c2.4-0.3,5.2-0.3,7.1,1.2c0,0,2.9,1,5.5,2
								c0.6,0.2,1.3,0.5,1.9,0.8c0.6,0.3,1,0.5,1.5,0.8c0.8,0.6,0.9,1.2,0.1,1.9c0,0-0.2,0.1-0.6,0.5c-0.4,0.3-1,0.7-1.8,1.2
								c-1.6,1-3.9,2.2-6.9,3.3s-6.6,1.9-10.3,2.1c-3.8,0.3-7.8-0.1-11.4-1c0,0-0.3-0.1-1.2-0.2c-0.8-0.1-2-0.1-3.6,0.1
								c0,0-2-0.3-4.3-1s-4.9-2-6.1-3.5c0,0-0.5-0.3-1.3-1s-1.9-1.4-3.1-2.2c-2.4-1.7-5.2-3.6-7.1-4.2c0,0-0.6-0.7-1.5-1.4
								c-0.9-0.7-2.1-1.5-3.2-1.6c0,0,1.3,0.4,3.4,1c2,0.6,4.8,1.5,7.7,2.5c2.9,1,5.8,2.1,8.3,3.1c2.4,1,4.2,1.8,4.8,2.5
								c0,0,0.6,0.3,1.6,0.8s2.6,1.1,4.5,1.6c2,0.5,4.3,0.8,7,0.7c2.7-0.1,5.5-0.6,8.4-1.9c0,0,1-1.1,0.9-2.5
								C145.9,109.6,145,108,141.4,106.6z"/>
							<path class="st8" d="M148.3,102.6c0.6-0.3,1.3-0.6,2-0.8c0.6-0.3,1.3-0.6,2-0.8c0.7-0.1,1.7-0.1,2.5-0.2c0.5-0.1,1,0,1.5,0.1
								c0.5,0.1,1,0.2,1.3,0.3c1.7,0.7,4,0.8,6.2,0.8s4.3-0.1,6,0.3c0.6,0,0.9,0,1.4-0.1c0.1-0.1,0.6-0.5,0.6-0.6
								c1.4-0.7,2.8-1.3,3.9-2.2c0.4-0.4,0.9-0.7,1.4-1c0.5-0.3,1-0.6,1.7-0.9c1.2-0.6,2.6-1.2,4.1-1.7c1.6-0.7,3.6-1.8,5.7-2.6
								c0.9-0.3,1.6-0.4,2.3-0.5c0.7,0,1.3,0.1,1.8,0.2c1.1,0.2,2.2,0.5,3.8,0.1c2.5-0.5,4.8-1.3,7.1-2c2.3-0.6,4.6-1.1,7.1-1
								c2.9,0.3,5.5,0.6,8,1.3c1.9,0.7,3.9,1.3,5.9,2c0.5,0.1,1.6,1,1.5,1.3c-0.2,0.3-1.3,0-2,0.1c-1.9,0.2-2.8-0.9-4-1.4
								c-1.5-0.5-3.6-0.3-5.6-0.4c-0.8-0.1-1.5-0.3-2.2-0.6c-1.1-0.5-2.7,0-4.3,0.3c-1.9,0.6-4.1,0.1-6.1,0.6
								c-1.3,0.3-2.5,1-3.6,1.5c-0.3,0.1-0.6,0.3-0.8,0.4c-0.3,0.1-0.5,0.3-0.8,0.4c-0.5,0.3-1,0.4-1.7,0.6c0.5-0.1,0.3,0.1-0.3,0.4
								c-0.6,0.3-1.5,0.8-2.4,1.3c-1.9,1-3.6,2.1-2.8,1.4c-0.1,0.1-0.8,0.2-1.1,0c-0.1-0.1-0.3-0.3-0.2-0.5c0.8-1.5,0.1-2.3,0.1-3.4
								c-0.1,0-1.5,0.8-2.9,1.7c-1.5,0.9-3,1.9-4,2.2c-1.5,0.4-2.9,0.6-4.3,1.3c-0.3,0.3-0.2,0.8-0.6,1c-0.1,0.1-0.3,0.3-0.6,0.6
								c-0.1,0.1-0.3,0.3-0.5,0.5c-0.2,0.2-0.4,0.4-0.6,0.6c-0.9,0.9-2.2,2-3.7,3c-1.5,1-3,1.9-4.3,2.5c-0.6,0.3-1.3,0.6-1.7,0.7
								c-0.5,0.1-0.8,0.3-1,0.3c-0.9-0.1-2.1-0.6-2-1c0.1-1.3-1.5-1.7-2.2-2.7c-0.1-0.3,0.2-0.6,0.1-0.9c-0.5-0.8-1.4-1.5-2.3-1.7
								c-1.5-0.3-3.4-0.6-4.8-0.3C151.4,103,149.8,102.9,148.3,102.6z"/>
							<path class="st9" d="M95.3,108c0,0,0.4,0.1,1.1,0.2c0.7,0.1,1.7,0.4,2.9,0.8c2.4,0.8,5.5,2.3,8.2,4.8c0,0,1.3,0.8,2.7,1.7
								c1.5,0.9,3,1.9,3.7,2.1l1.7,1.2c0,0,2.2,1,4.8,1.9s5.5,1.5,6.6,1.1c0,0,1.2,0.3,2.5,0.6c1.3,0.3,2.7,0.6,3.1,0.8
								c0,0,1,0.3,2.6,0.5c1.6,0.1,3.9,0.2,6.6-0.5"/>
							<path class="st10" d="M176.9,97.5c0.6-0.3,2.2-1,4.3-2.2c2.1-1.1,4.7-2.3,5.9-2.6c3.9-1,7.6-1.3,11.2-1
								c0.3-0.1,0.8-0.1,1-0.3c1.9-1.3,4.5-1.3,6.4-1.9c0.8-0.2,1.6-0.6,2.6-0.7c5-0.1,9.4,1,13.3,2.6c1.7,0.7,3,1.6,4.5,2.4
								c0.3,0.2,0.8,0.5,0.7,0.7c0.1,0.2-0.7,0.1-1.1,0.1c-0.5-0.1-0.8-0.4-1.5-0.6c-1.1-0.4-2.5-0.6-3.6-1c-1.1-0.4-2-1-3.3-1.3
								c-0.8-0.2-1.6-0.3-2.5-0.3c-3.2-0.3-6.4-0.4-9.7,0.1c-1.2,0.8-3.2,0.7-4.8,1c-0.5,0.1-0.9,0.1-1.5,0.1c-1.4,0.3-2.7,1-3.8,1
								c-2.2-0.3-4.5-0.3-7.2,0.4c-1.1,0.3-3.7,1.4-5.9,2.4c-1,0.5-2.1,1-3,1.5c-0.8,0.4-1.5,0.7-1.8,0.8c-0.5,0.2-0.9,0.4-1.3,0.7
								c-0.2,0.1-0.4,0.3-0.6,0.4l-0.6,0.4c-0.4,0.3-0.8,0.6-1.3,0.8c-0.4,0.2-0.8,0.5-1.3,0.6c-0.1,0,0.1-0.5,0.8-1.3
								c0.1-0.2,0.3-0.4,0.6-0.6c0.2-0.2,0.5-0.4,0.8-0.7c0.3-0.2,0.7-0.5,1-0.7C176,98,176.5,97.8,176.9,97.5z"/>
						</g>
					</g>
				</g>
			</g>
		</g>
		<g>
			<g>
				<g>
					<g class="st3">
						<g class="st3">
							<path class="st4" d="M189.7,122.4c-0.3-0.2-1.2-0.1-2.2,0.3c-1,0.4-2.2,1-3.4,1.7c-2.2,1.4-4.1,2.7-4.5,2.9
								c-0.6,0.2-1.1,0.6-1.8,1c-0.3,0.2-0.6,0.4-1,0.7c-0.3,0.3-0.7,0.5-1.1,0.8c-1.5,1.1-3.4,2.3-5.3,3.3c-3.8,2-7.7,3.2-7.8,2.9
								c0-0.5-1-1.6-2.2-2.7c-0.6-0.6-1.2-1.1-1.7-1.5c-0.6-0.4-1-0.7-1.4-0.7c-1.7-0.1-3.4-0.1-5.1,0.1c-1.7,0.2-3.4,0.6-5,1.1
								c-1.6,0.4-2,0.8-2.6,0.6c-0.3-0.1-1.3,1.5-3.6,1.8c-1.5,0.2-3.4-0.5-4.9-0.3c-1.4,0.1-4.3-0.3-7.1-0.9s-5.8-1.4-7.3-1.7
								c-5.9-1.4-8.7-2.6-12.7-5c-3-2-5.9-2.7-9.2-4.3c-1.8-0.8-3.4-1.4-4.9-1.9c-0.8-0.3-1.6-0.6-2.4-0.8c-0.8-0.3-1.7-0.6-2.7-0.8
								c-3.5-1.4-6.9-2.4-11-2.8c-0.6,0-1.1,0.1-1.5,0.2c-0.4,0.1-1.5,0-2,0.1c-0.8-0.1-1.7-0.2-2.4-0.3c-0.8-0.1-1.6-0.3-2.4-0.3
								c-0.8-0.1-1.6-0.1-2.4-0.1H67l-0.6,0.1c-0.4,0.1-0.8,0.1-1.3,0.3c-0.9,0.2-2.2,0.8-1.8,1.2c0.9,0.8,2,1.5,3.3,2
								c0.3,0.1,0.6,0.3,0.9,0.4c0.3,0.1,0.6,0.3,1,0.4c0.6,0.3,1.3,0.6,2,0.8c0.6,0.2,1.3,0.5,2,0.6c0.7,0.1,1.4,0.3,2.2,0.3
								c1.5,0.3,3.1,0.4,4.7,0.8c0.6,0.1,1,0.3,1.5,0.4c0.5,0.2,1,0.4,1.4,0.7c0.9,0.5,1.7,1,2.3,1.7c0.7,0.6,1.3,1.3,1.7,2
								c0.5,0.7,0.9,1.5,1.3,2.2c0.4,1,0.7,2.3,1.3,3.5c0.6,1.2,1.4,2.1,3.1,2.7c4.1,1.3,8.4,1.7,12.3,4.4c2.7,2,5,3.7,8.1,5.5
								c0.4,0.3,2.2,1.4,2.8,1.7c2,0.7,4.1,1.7,6.1,2.4c2,0.7,4,1.1,5.7,0.8c4.7,0.9,6.9,2.2,11,1.9c2.6-0.3,5.1-0.7,7.8-1
								c2.6-0.3,5.3-0.7,8.1-0.9c3.2-0.3,6.2-0.5,9.4-0.6c0.6-0.1,1.9,0.1,3.3,0.4c0.7,0.1,1.4,0.2,2,0.3c0.6,0.1,1.1,0.1,1.5,0.2
								c2.5,0.3,5.9-1.4,7.8-3c1.5-1.3,2.9-2.7,4.4-4.1c1.5-1.4,3-2.9,4.5-4.4c1.1-1,2.4-1.5,3.6-2.4c2.6-2.4,3.4-4.5,5.6-6.2
								c2.1-1.3,3.8-2.1,5-2.7c1.3-0.6,2-1,2.4-1.2c1-0.5,0.7-0.6,0.9-0.6c1-0.2,1.7,0.7,3,0.7c0.9-0.1,1.8-0.3,2.7-0.5
								c0.8-0.3,1.5-0.6,2.2-0.9c3.6-1.7,8.3-3.1,13.1-2c-0.3-0.2-0.3-0.5-0.7-0.6c-3.4-0.8-6.3-1.7-9.5-2.4
								c-3.1-0.6-6.4-1-10.2-0.3c-0.3,0.1-0.8,0.3-1.2,0.4c-0.4,0.1-0.8,0.3-1.3,0.4c-0.8,0.1-1.5,0.3-2.2,0.6
								c-0.3,0.1-0.7,0.2-1,0.3c-0.3,0.1-0.7,0.3-1,0.4c-0.6,0.2-1.3,0.3-2.1,0.3c-0.8,0.1-1.7,0-2.5,0.1c-0.8,0-1.7-0.1-2.4-0.1
								C190.6,122.7,190,122.6,189.7,122.4z"/>
							<path class="st5" d="M79.6,122.6c-0.8-0.1-1.6-0.4-2.4-0.5c-0.8-0.1-1.5-0.2-2.3-0.3c-0.8-0.1-1.5-0.2-2.2-0.4
								c-0.7-0.1-1.4-0.4-2-0.6c-0.7-0.3-1.3-0.5-2-0.8c-0.3-0.1-0.6-0.3-1-0.4c-0.3-0.1-0.6-0.3-0.9-0.4c-1.3-0.6-2.4-1.2-3.3-2
								c-0.3-0.3,0.9-1,1.8-1.2c1.6-0.5,3.3-0.4,4.9-0.3c0.8,0,1.6,0.2,2.4,0.3c0.8,0.1,1.6,0.2,2.4,0.3c0.6,0,1.6,0.1,2-0.1
								c0.4-0.1,1-0.2,1.5-0.1c4.1,0.4,7.5,1.4,11,2.8c0.9,0.3,1.8,0.6,2.7,0.8c0.8,0.3,1.6,0.6,2.4,0.8c1.6,0.5,3.1,1.1,4.9,1.9
								c3.3,1.6,6.2,2.4,9.2,4.3c4.1,2.4,6.9,3.6,12.7,5c1.5,0.3,4.5,1.2,7.3,1.7c2.9,0.6,5.7,1,7.1,0.9c1.5-0.2,3.4,0.5,4.9,0.3
								c0,0,0.2,0.2,0.7,0.7c0.5,0.4,1.3,1.1,2.3,1.9c-9.2,0.8-19-0.3-28.7-2.1c-5.9-2.6-11.7-5.3-17.7-7.6
								c-1.5-0.6-2.9-1.1-4.5-1.6l-2.2-0.8l-2.2-0.7l-1.1-0.3l-1.1-0.3c-0.8-0.2-1.5-0.3-2.2-0.6C82.7,123.1,81.1,122.7,79.6,122.6z
								"/>
							<path class="st6" d="M140.7,136.3c0,0,0.8,0,1.9-0.1c1.1-0.1,2.6-0.1,4-0.1c2.8,0,5.3,0.2,4.7,2c0,0-2.4,2.2-6.2,4
								c-3.7,1.8-8.7,3.1-12.4,2.1c0,0-0.3-0.1-0.8-0.2c-0.6-0.1-1.3-0.3-2.1-0.6c-1.7-0.5-3.6-1-5-1.5c0,0-1-0.8-2.8-1.7
								c-1.7-1-4.1-2.1-6.9-2.8c0,0-0.3-0.1-0.9-0.3c-0.6-0.2-1.4-0.5-2.4-0.8c-2-0.7-4.7-1.6-7.3-2.6s-5.3-2-7.3-2.7
								s-3.5-1.4-3.7-1.9c0,0-2-0.9-4.1-1.9c-2.2-1-4.6-2-5.6-2.7c0,0-0.6-0.8-1.8-1.7c-0.6-0.5-1.3-0.8-2.2-1.2
								c-0.8-0.3-1.7-0.6-2.7-0.6c0,0-0.7-0.2-1.7-0.6c-0.5-0.2-1.1-0.3-1.7-0.5c-0.6-0.1-1.2-0.3-1.8-0.5c-2.3-0.6-4-1.2-0.8-1.7
								c0,0,0.2-0.1,0.6-0.1c0.3-0.1,0.9-0.1,1.5-0.3c0.6-0.1,1.3-0.2,1.9-0.3c0.6-0.1,1.3-0.1,1.7-0.1c0,0,0.4,0.1,1.2,0.1
								c0.8,0.1,1.8,0.3,3.1,0.5c0.3,0.1,0.6,0.1,1,0.2c0.3,0.1,0.7,0.1,1,0.3c0.7,0.2,1.5,0.3,2.3,0.6c0.8,0.2,1.6,0.5,2.4,0.8
								c0.4,0.1,0.8,0.3,1.3,0.4c0.4,0.1,0.8,0.3,1.2,0.4c6.6,2.4,12.7,5.7,13.2,6.4c0,0,1.6,0.9,4.1,2.2s6,3.1,9.9,4.8
								c3.9,1.7,8.3,3.1,12.4,3.6C134,138,137.9,137.7,140.7,136.3z"/>
							<path class="st7" d="M141.4,135.4c0,0,0.6-0.1,1.3-0.3c0.8-0.2,2-0.4,3.1-0.6c2.4-0.3,5.2-0.3,7.1,1.2c0,0,2.9,1,5.5,2
								c0.6,0.2,1.3,0.5,1.9,0.8c0.6,0.3,1,0.5,1.5,0.8c0.8,0.6,0.9,1.2,0.1,1.9c0,0-0.2,0.1-0.6,0.5c-0.4,0.3-1,0.7-1.8,1.2
								c-1.6,1-3.9,2.2-6.9,3.3c-3,1-6.6,1.9-10.3,2.1c-3.8,0.3-7.8-0.1-11.4-1c0,0-0.3-0.1-1.2-0.2c-0.8-0.1-2-0.1-3.6,0.1
								c0,0-2-0.3-4.3-1c-2.3-0.8-4.9-2-6.1-3.5c0,0-0.5-0.3-1.3-1c-0.8-0.6-1.9-1.4-3.1-2.2c-2.4-1.7-5.2-3.6-7.1-4.2
								c0,0-0.6-0.7-1.5-1.4c-0.9-0.7-2.1-1.5-3.2-1.6c0,0,1.3,0.4,3.4,1c2,0.6,4.8,1.5,7.7,2.5c2.9,1,5.8,2.1,8.3,3.1
								c2.4,1,4.2,1.8,4.8,2.5c0,0,0.6,0.3,1.6,0.8c1,0.5,2.6,1.1,4.5,1.6c2,0.5,4.3,0.8,7,0.7c2.7-0.1,5.5-0.6,8.4-1.9
								c0,0,1-1.1,0.9-2.5C145.9,138.4,145,136.8,141.4,135.4z"/>
							<path class="st8" d="M148.3,131.5c0.6-0.3,1.3-0.6,2-0.8c0.6-0.3,1.3-0.6,2-0.8c0.7-0.1,1.7-0.1,2.5-0.2c0.5-0.1,1,0,1.5,0.1
								s1,0.2,1.3,0.3c1.7,0.7,4,0.8,6.2,0.8s4.3-0.1,6,0.3c0.6,0,0.9,0,1.4-0.1c0.1-0.1,0.6-0.5,0.6-0.6c1.4-0.7,2.8-1.3,3.9-2.2
								c0.4-0.4,0.9-0.7,1.4-1c0.5-0.3,1-0.6,1.7-0.9c1.2-0.6,2.6-1.2,4.1-1.7c1.6-0.7,3.6-1.8,5.7-2.6c0.9-0.3,1.6-0.4,2.3-0.5
								c0.7,0,1.3,0.1,1.8,0.2c1.1,0.2,2.2,0.5,3.8,0.1c2.5-0.5,4.8-1.3,7.1-2c2.3-0.6,4.6-1.1,7.1-1c2.9,0.3,5.5,0.6,8,1.3
								c1.9,0.7,3.9,1.3,5.9,2c0.5,0.1,1.6,1,1.5,1.3c-0.2,0.3-1.3,0-2,0.1c-1.9,0.2-2.8-0.9-4-1.4c-1.5-0.5-3.6-0.3-5.6-0.4
								c-0.8-0.1-1.5-0.3-2.2-0.6c-1.1-0.5-2.7,0-4.3,0.3c-1.9,0.6-4.1,0.1-6.1,0.6c-1.3,0.3-2.5,1-3.6,1.5
								c-0.3,0.1-0.6,0.3-0.8,0.4c-0.3,0.1-0.5,0.3-0.8,0.4c-0.5,0.3-1,0.4-1.7,0.6c0.5-0.1,0.3,0.1-0.3,0.4
								c-0.6,0.3-1.5,0.8-2.4,1.3c-1.9,1-3.6,2.1-2.8,1.4c-0.1,0.1-0.8,0.2-1.1,0c-0.1-0.1-0.3-0.3-0.2-0.5c0.8-1.5,0.1-2.3,0.1-3.4
								c-0.1,0-1.5,0.8-2.9,1.7s-3,1.9-4,2.2c-1.5,0.4-2.9,0.6-4.3,1.3c-0.3,0.3-0.2,0.8-0.6,1c-0.1,0.1-0.3,0.3-0.6,0.6
								c-0.1,0.1-0.3,0.3-0.5,0.5c-0.2,0.2-0.4,0.4-0.6,0.6c-0.9,0.9-2.2,2-3.7,3c-1.5,1-3,1.9-4.3,2.5c-0.6,0.3-1.3,0.6-1.7,0.7
								s-0.8,0.3-1,0.3c-0.9-0.1-2.1-0.6-2-1c0.1-1.3-1.5-1.7-2.2-2.7c-0.1-0.3,0.2-0.6,0.1-0.9c-0.5-0.8-1.4-1.5-2.3-1.7
								c-1.5-0.3-3.4-0.6-4.8-0.3C151.4,131.8,149.8,131.7,148.3,131.5z"/>
							<path class="st9" d="M95.3,136.7c0,0,0.4,0.1,1.1,0.2s1.7,0.4,2.9,0.8c2.4,0.8,5.5,2.3,8.2,4.8c0,0,1.3,0.8,2.7,1.7
								c1.5,0.9,3,1.9,3.7,2.1l1.7,1.2c0,0,2.2,1,4.8,1.9s5.5,1.5,6.6,1.1c0,0,1.2,0.3,2.5,0.6c1.3,0.3,2.7,0.6,3.1,0.8
								c0,0,1,0.3,2.6,0.5c1.6,0.1,3.9,0.2,6.6-0.5"/>
							<path class="st10" d="M176.9,126.3c0.6-0.3,2.2-1,4.3-2.2c2.1-1.1,4.7-2.3,5.9-2.6c3.9-1,7.6-1.3,11.2-1
								c0.3-0.1,0.8-0.1,1-0.3c1.9-1.3,4.5-1.3,6.4-1.9c0.8-0.2,1.6-0.6,2.6-0.7c5-0.1,9.4,1,13.3,2.6c1.7,0.7,3,1.6,4.5,2.4
								c0.3,0.2,0.8,0.5,0.7,0.7c0.1,0.2-0.7,0.1-1.1,0.1c-0.5-0.1-0.8-0.4-1.5-0.6c-1.1-0.4-2.5-0.6-3.6-1c-1.1-0.4-2-1-3.3-1.3
								c-0.8-0.2-1.6-0.3-2.5-0.3c-3.2-0.3-6.4-0.4-9.7,0.1c-1.2,0.8-3.2,0.7-4.8,1c-0.5,0.1-0.9,0.1-1.5,0.1c-1.4,0.3-2.7,1-3.8,1
								c-2.2-0.3-4.5-0.3-7.2,0.4c-1.1,0.3-3.7,1.4-5.9,2.4c-1,0.5-2.1,1-3,1.5c-0.8,0.4-1.5,0.7-1.8,0.8c-0.5,0.2-0.9,0.4-1.3,0.7
								c-0.2,0.1-0.4,0.3-0.6,0.4l-0.6,0.4c-0.4,0.3-0.8,0.6-1.3,0.8s-0.8,0.5-1.3,0.6c-0.1,0,0.1-0.5,0.8-1.3
								c0.1-0.2,0.3-0.4,0.6-0.6c0.2-0.2,0.5-0.4,0.8-0.7c0.3-0.2,0.7-0.5,1-0.7C176,126.8,176.5,126.6,176.9,126.3z"/>
						</g>
					</g>
				</g>
			</g>
		</g>
		<g>
			<g>
				<g>
					<g class="st3">
						<g class="st3">
							<path class="st4" d="M151.1,53.5c-0.7,0.3-0.9,1.1-1.1,2c-0.2,0.9-0.3,1.9-0.6,2.2c-0.3,0.6-0.3,1.4-0.3,2.6
								c0,1.2,0.1,2.8,0.3,4c0.3,2.4,0.3,3.8,0.1,3.7c-0.4-0.2-1.7-0.3-2.9-0.9l-0.4-0.2c-0.1-0.1-0.2-0.1-0.3-0.1
								c0,0,0.1,0,0.1,0.1c0.1,0.1,0.2,0.1,0.3,0.2c0.5,0.4,1.3,1.3,1.7,2.2c0.2,0.4,0.3,0.7,0.3,0.8V70v0.1l0,0v-0.3
								c0-0.1,0-0.2,0-0.3v-0.5c0.1-0.7,0.1-1.4,0.3-2c0-0.1,0.1-0.3,0.1-0.4v0.1l0,0c-0.1-0.1-0.4,1.6-1.7,2.1
								c-0.4,0.1-0.9,0-1.4-0.1s-0.8-0.1-1,0.1c-0.1,0.1-0.3,0.1-0.3,0.2c-0.1,0.1-0.1,0.1-0.1,0.1c-0.1,0.1-0.1,0.2-0.2,0.3
								l0.1-0.1c-0.1,0.1-0.1,0.1-0.3,0.1s-0.3-0.1-0.4-0.1c-0.3-0.2-0.6-0.7-0.8-1.2c-0.2-0.5-0.4-1-0.6-1.4
								c-0.1-0.3-0.2-0.7-0.3-1c-0.1-0.3-0.1-0.7-0.2-1c-0.1-0.6-0.1-1.2-0.1-1.7c0-0.6,0.1-1.1,0.2-1.6c0.1-0.6,0.3-1.1,0.6-1.7
								c0.9-1.7,0.8-3.4,1.4-5.2c0.6-1.9,0.8-3.4,1.6-5.2c1-1.7,1.7-3.3,2.4-5.2c0.1-0.3,0.1-0.6,0-0.8c-0.1-0.3,0.1-0.7,0.2-1
								c0.9-1.5,2.3-2.6,2.7-4.2c0.1-0.4,0-1.3-0.4-1.3c-2.1-0.1-3.9,0.6-5.7,1.5c-1.6,0.9-2.3,2.7-3.3,4.3
								c-1.3,2.4-4.1,3.4-6.7,4.1c-2,0.4-4.9,0.3-5.5,2.9c-0.3,1.5-0.2,3-0.2,4.5c0,0.8-0.1,1.5-0.1,2.2c-0.1,0.8-0.3,1.5-0.6,2.2
								c-1,2.2-1.8,3.9-2.2,6.4c-0.1,0.1-0.2,0.6-0.3,1c-0.1,0.5-0.2,1.1-0.2,1.4c0.1,1.8,0.2,4.1,1.1,6.9c0.4,1.3,1.1,2.8,2,4.1
								c0.9,1.3,2.1,2.3,3.3,2.9c0.8,0.7,1.5,1.3,2.2,1.7c0.7,0.5,1.3,0.8,1.8,1.1c1,0.6,1.8,0.9,2.4,1.2c0.6,0.2,0.9,0.3,1.5,0.4
								c0.5,0.1,1.1,0.1,2,0.1c2-0.1,4.8-0.2,7.8-1c1.5-0.4,3-1.1,4.3-1.9c1.3-0.8,2.4-1.6,3.4-2.5c2.2-2.1,3.6-4.1,5-6.4
								c0.2-0.3,1-1.1,1.7-1.9s1.5-1.5,1.9-1.9c0.6-0.7,0.9-1.6,0.9-2.5c0-0.9-0.2-1.7-0.5-2.4c-0.6-1-1-1.9-1.5-2.9
								c-0.4-1-0.7-2.1-1-3.4c-0.1-0.8,0.4-1.7,0.4-2.7c-0.1-1.2-0.6-2.3-1.1-3.3c-0.6-1-1.1-1.9-1.7-2.9c-0.8-2-1.7-3-2.2-3.8
								c-0.6-0.8-1-1.1-1.3-1.3c-0.6-0.4-0.7-0.2-0.7-0.3c-0.3-0.6,0.3-1.3,0.1-2.2c-0.5-1-1.6-1.7-2.5-2c-2.6-1-5.3-2-6.6-4.5
								c-0.1,0.3-0.2,0.5-0.1,0.6c0.8,1.8,1.3,3.6,1.7,5.3c0.5,1.7,1,3.4,2,4.9c0.3,0.2,0.7,0.6,1,0.9c0.4,0.7,0.8,1.3,1.2,1.8
								c0.3,0.6,0.1,1.5-0.5,2.3C152.5,52.7,151.7,53.3,151.1,53.5z"/>
							<path class="st5" d="M140.8,42.6c1-1.7,1.6-3.4,3.3-4.3c1.7-1,3.6-1.6,5.7-1.5c0.4,0,0.5,0.8,0.4,1.3
								c-0.4,1.6-1.9,2.7-2.7,4.2c-0.1,0.3-0.3,0.8-0.2,1c0.1,0.2,0.1,0.6,0,0.8c-0.7,2-1.5,3.6-2.4,5.2c-0.8,1.9-1,3.4-1.6,5.2
								c-0.7,1.8-0.6,3.4-1.4,5.2c-0.3,0.6-0.4,1.1-0.6,1.7c-0.1,0.6-0.2,1-0.2,1.6c0,0.6,0.1,1.1,0.1,1.7c0.1,0.6,0.3,1.4,0.6,2
								c0.3,0.7,0.8,2.2,1.4,2.6c0.1,0.1,0.3,0.1,0.4,0.1c0.1,0,0.1,0,0.1-0.1c0.1,0,0.1-0.1,0.1-0.1l-0.1,0.1
								c0.1-0.1,0.1-0.1,0.2-0.3c0-0.1,0.1-0.1,0.1-0.1c0.1-0.1,0.2-0.1,0.3-0.2c0.3-0.2,0.6-0.2,1-0.1c0.5,0.1,1,0.2,1.3,0.1
								c0,0,0.1,0.2,0.1,0.6c0.1,0.3,0.3,1,0.5,1.6c-0.8,0.4-2.2,0.5-3.6,0.6c-1.3,0.1-2.2,0.3-3.2-0.2c-1-0.6-2-1.7-2.7-3
								c-0.3-0.6-0.7-1.3-1-2c-0.3-0.7-0.6-1.4-0.8-2.1C136.5,56.7,138.5,49.4,140.8,42.6z"/>
							<path class="st6" d="M146.3,70.3c0,0,0.4-0.1,0.9-0.2c0.5-0.1,0.9-0.3,1-0.6c0,0,0-0.2,0,0.1v0.1V70l0,0v-0.1
								c0-0.1-0.1-0.2-0.1-0.3c0-0.1,0,0,0,0l0.1,0.1c0.1,0.1,0.1,0.2,0.1,0.3c0.1,0.2,0.3,0.6,0.4,1c0,0,0.1,0.1,0.1,0.4
								c0.1,0.3,0.1,0.6,0.1,1.1c0,0.9-0.3,2.2-1.5,3.3c-1,1-2.7,1.8-4.1,2.2c-0.8,0.2-1.4,0.3-2,0.3c-0.6,0-1.3-0.1-2.1-0.5
								c0,0-0.3-0.1-0.7-0.4c-0.4-0.3-1-0.7-1.7-1.3c-0.6-0.6-1.3-1.4-1.7-2.1c-0.4-0.8-0.8-1.5-1-2c0,0,0-1.2,0.1-2.7
								s0.2-3.1-0.2-4.8c0,0,0-0.2-0.1-0.6c-0.1-0.3-0.1-0.9-0.1-1.5c-0.1-1.3-0.1-3-0.1-4.8c0.1-3.5,0.8-7,1.6-7.3
								c0,0,0.5-1.3,1.3-2.6c0.7-1.3,1.6-2.7,2.3-3.2c0,0,0.8-0.3,1.6-0.8c0.8-0.5,1.7-1.3,2-2.4c0,0,1.3-1.3,2.4-2.3
								c1.1-0.9,2.2-1.4,1.7,0.3c0,0-0.1,2.1-0.3,3.1c0,0-1.5,3.3-3,6.7c-0.7,1.7-1.5,3.4-2,4.8c-0.6,1.4-1,2.4-1.3,2.5
								c0,0-0.1,0.2-0.3,0.6c-0.1,0.4-0.4,1-0.6,1.8c-0.4,1.5-0.8,3.7-0.9,6.1c0,1.2,0.1,2.4,0.4,3.6c0.3,1.2,1,2.2,1.8,2.8
								c0.8,0.6,1.7,0.5,2.7,0.3C144.2,71.5,145.5,71.1,146.3,70.3z"/>
							<path class="st7" d="M146.9,69.5c0,0,0.3-0.1,0.6-0.4c0.3-0.2,0.8-0.6,0.8-0.9l-0.1,0.4l-0.1,0.4c0,0.3,0,0.5,0,0.7
								c0,0.1,0,0.1,0,0.2v0.2l0,0l0,0l0,0l0,0l0,0l0,0c0,0,0-0.1,0-0.1c0-0.1-0.1-0.2-0.1-0.3s-0.1-0.2-0.1-0.3
								c-0.1-0.1-0.1-0.2-0.1-0.3c0-0.1-0.1-0.1-0.1-0.2l-0.1-0.1l0,0l0,0l0.1,0.1c0,0,0.1,0.1,0.1,0.1c0.1,0.1,0.2,0.1,0.3,0.3
								c0.3,0.2,0.9,0.3,1.6,0.4c0.7,0.1,1.5,0,2.2,0s1.3,0.2,1.6,0.9c0,0,0.1,0.1,0.2,0.5c0.1,0.3,0.3,0.8,0.3,1.4
								c0.1,1.2,0.2,3.1-1,5.2c-0.6,1-1.6,2.2-3.1,2.9c-1.5,0.8-3.3,1.2-4.9,1.3c-1.6,0.1-3-0.1-4.2-0.2c-0.6-0.1-1-0.1-1.7-0.3
								c-0.7-0.2-1.5-0.6-2.4-1.1c0,0-0.1-0.1-0.3-0.2c-0.2-0.1-0.6-0.3-1-0.6c-0.9-0.6-2.3-1.4-4-2.8c0,0-0.4-0.6-1-1.4
								c-0.5-0.9-1.1-2.1-1.5-3.4c-0.7-2.5-0.6-4.8,0.3-6c0,0,0.1-0.3,0.4-1s0.6-1.4,1-2.3c0.7-1.8,1.5-3.8,1.5-5c0,0,0.4-0.5,0.8-1
								c0.4-0.6,0.8-1.4,0.6-2.2c0,0,0,0.2,0,0.6s0,1,0,1.6c0,1.3,0.1,3.1,0.1,5c0.1,0.9,0.1,1.9,0.1,2.7c0.1,0.9,0.1,1.7,0.1,2.6
								c0.1,1.7,0.1,3.1-0.1,3.8c0,0-0.1,0.6,0.2,1.5c0.1,0.5,0.3,1.1,0.7,1.8s0.9,1.5,1.7,2.2c0.8,0.7,1.8,1.3,2.7,1.5
								c0.9,0.3,1.7,0.3,2.5,0.2c0.8-0.1,1.7-0.2,2.7-0.5c1-0.3,2-0.8,2.8-1.5c0,0,0.1-0.3,0.3-0.8c0.1-0.5,0.2-1.1,0.2-1.8
								s-0.1-1.5-0.1-2.1C147.6,70.6,147.5,70,146.9,69.5z"/>
							<path class="st8" d="M148.2,69.7v0.1l0,0v0.2l0,0l0,0l0,0l0,0l0,0l0,0V70C148.2,69.9,148.2,69.9,148.2,69.7
								c-0.1-0.1-0.1-0.3-0.3-0.6c-0.1-0.3-0.5-0.8-0.8-1.2c-0.4-0.5-0.8-0.9-1-1c-0.2-0.2-0.3-0.2-0.1-0.1l0,0l0,0l0,0l0,0
								c1.6,0.8-2.2-1-1.8-0.9l0,0l0,0h0.1h0.1c0.1,0,0.1,0,0.2,0c0.1,0,0.3-0.1,0.4-0.1c0.6-0.3,1.3-1.2,2.4-1.9
								c0.3-0.3,0.4-0.5,0.5-0.8c-0.1-0.1-0.1-0.5-0.2-0.6c0.1-1.1,0.3-2.1,0.2-3c-0.2-1.5,0.6-2.6,1.5-3.6c0.4-0.6,0.7-1.3,0.9-2
								c0.4-1,2.6-1.8,2.4-3.2c-0.1-1.1-0.8-2.1-1.5-2.9c-0.8-0.9-1.5-1.7-2-2.9c-0.4-1.4-1-2.6-1.3-4.1c-0.1-1.2-0.5-2.3-0.8-3.6
								c-0.1-0.3,0.1-1.3,0.2-1.4c0.3-0.1,0.6,0.5,1,0.7c1,0.6,0.5,1.7,0.6,2.5c0.2,1,1,1.7,1.6,2.7c0.1,0.4,0.1,0.8,0.1,1.4
								c-0.1,0.8,0.6,1.3,1.3,1.9c0.8,0.7,0.7,2,1.3,2.9c0.3,0.6,0.9,1,1.4,1.5s0.8,1,0.8,1.6c0.1-0.6,0.5,0.4,0.7,1.5
								c0.2,1,0.1,2.1-0.1,1.6c0.1,0.1-0.3,0.4-0.6,0.5c-0.2,0-0.5,0.1-0.6,0c-0.8-0.6-1.8-0.3-2.8-0.4c-0.1,0.1,0,0.6-0.1,1.3
								c-0.1,0.7-0.3,1.5-0.7,2c-0.7,0.7-1.4,1.3-1.6,2.2c0.1,0.3,0.5,0.4,0.5,0.7c0,0.1,0.1,0.7,0.4,1.5c0.3,0.8,0.6,2,0.9,2.9
								c0.3,1,0.6,2,0.7,2.7c0.1,0.7,0.1,1.3,0,1.4c-0.3,0.3-1.1,0.4-1.5,0.1c-0.6-0.3-1-0.4-1.5-0.5c-0.4-0.1-0.8-0.2-1.3-0.5
								c-0.3-0.1-0.6-0.3-0.8-0.5c-0.3-0.2-0.7-0.3-1-0.6c0,0,0.1,0.1,0.2,0.1c0.2,0.1,0.5,0.4,0.8,0.8c0.3,0.3,0.6,0.8,0.8,1.1
								c0.2,0.3,0.3,0.7,0.4,0.9c0.1,0.1,0.1,0.2,0.1,0.3v0.1l0,0l0,0l0,0l0,0l0,0l0,0l0,0c0,0.1,0-0.2,0-0.2l0,0L148.2,69.7z"/>
							<path class="st9" d="M128.4,51.7c0,0,0.1,0.3,0.1,0.8c0,0.5,0,1.3-0.1,2.1c-0.2,1.7-0.6,4-2,6.2c0,0-0.3,1-0.7,2.1
								s-0.6,2.4-0.6,2.9c-0.1,0.5-0.3,1-0.4,1.7c0,0,0,0.1,0,0.3s0,0.6,0.1,1c0.1,0.9,0.2,2.2,0.6,3.8c0.4,1.6,1.2,3.5,2.3,5.2
								c1.1,1.6,2.4,2.8,3.3,3.1c0,0,0.4,0.3,1,0.9c0.6,0.6,1.5,1.2,2.4,1.6c0.8,0.5,1.6,0.8,2.1,1c0.6,0.3,0.8,0.4,1,0.6
								c0,0,0.1,0,0.1,0.1c0.1,0.1,0.2,0.1,0.3,0.1c0.3,0.1,0.6,0.2,1,0.3c0.5,0.1,1.1,0.1,2,0.1c0.9,0,2-0.1,3.4-0.3"/>
							<path class="st10" d="M146.9,58.2c0.1-0.3,0.6-1.2,1-2c0.4-0.8,0.9-1.5,1.3-1.9c0.5-0.6,1-1.1,1.3-1.8c0.4-0.7,0.7-1.5,1-2.4
								c0-0.1-0.1-0.3-0.2-0.4c-1.1-0.5-1.3-1.7-2-2.4c-0.3-0.3-0.8-0.4-1-0.8c-1-2.1-1.5-4.3-1.8-6.9c-0.1-1,0-2.2-0.1-3.3
								c0.1-0.3,0-0.6,0.2-0.8c0.1-0.1,0.3,0.2,0.6,0.3c0.1,0.3,0.1,0.6,0.1,1c0.1,0.7,0.6,1.3,0.7,2c0.1,0.7,0.1,1.4,0.2,2.2
								c0.1,0.5,0.3,0.8,0.6,1.3c0.7,1.5,1.4,3,2.3,4.3c0.9,0.2,1,1.3,1.3,2c0.1,0.2,0.1,0.5,0.1,0.8c0.2,0.6,0.8,1.1,0.4,1.7
								c-0.7,1.2-1.5,2.1-2.2,2.9c-0.3,0.3-0.7,1.3-1.3,2.2c-0.5,0.9-1,1.9-1.2,2.3c-0.5,1.1-0.1,2.4-0.5,3.8c0,0.1-0.4-0.2-0.7-0.9
								C146.7,60.6,146.5,59.5,146.9,58.2z"/>
						</g>
					</g>
				</g>
			</g>
		</g>
	</g>
	<path class="st11" d="M226,92.2c0,0-17.5-0.5-30.2,6.2c-12.7,6.7-18.2,9.9-18.2,9.9s-15.8,8.6-32,8.6s-32-8.6-32-8.6
		s-5.5-3.1-18.2-9.9c-12.7-6.7-30.2-6.2-30.2-6.2"/>
	<path class="st11" d="M226,119c0,0-17.5-0.5-30.2,6.2c-12.7,6.7-18.2,9.9-18.2,9.9s-15.9,8.6-32,8.6s-32-8.6-32-8.6
		s-5.5-3.1-18.2-9.9c-12.7-6.7-30.2-6.2-30.2-6.2"/>
	<path class="st11" d="M145.5,25.3c0,0-9.2,10.3-16.2,25.2c-7,14.8-5.2,20.4-5.2,20.4c0.2,1.9,0.6,3.6,1,5.2
		c6.4,20.3,34.5,20.3,40.8,0c0.5-1.5,0.8-3.3,1-5.2c0,0,1.7-5.5-5.2-20.4C154.8,35.7,145.5,25.3,145.5,25.3z"/>
</g>
<line class="st12" x1="36.9" y1="198.4" x2="233.4" y2="198.4"/>
<line class="st12" x1="38.3" y1="325.9" x2="235.6" y2="325.9"/>
<g>
	<path class="st0" d="M98.5,264.8v-66.4h44.6v11.3h-31.7v17.1h26.4v10.5h-26.4v27.5H98.5z"/>
	<path class="st0" d="M168.7,264.8v-66.4h12.9v66.4H168.7z"/>
	<path class="st0" d="M98.5,325.5v-51H121c2.3,0,4.5,0.5,6.5,1.5c2,1,3.7,2.3,5.1,3.9c1.4,1.6,2.6,3.4,3.4,5.5
		c0.8,2,1.2,4.1,1.2,6.1c0,3.3-0.8,6.3-2.5,9c-1.7,2.7-3.9,4.7-6.7,5.9l11.6,19.2h-11.1l-10.4-17.1h-9.8v17.1H98.5z M108.4,299.7
		h12.4c0.9,0,1.8-0.2,2.5-0.6c0.8-0.4,1.5-1,2-1.8c0.6-0.7,1-1.6,1.4-2.6c0.3-1,0.5-2.1,0.5-3.2c0-1.2-0.2-2.3-0.6-3.3
		c-0.4-1-0.9-1.9-1.5-2.6c-0.6-0.7-1.4-1.3-2.2-1.7c-0.8-0.4-1.7-0.6-2.5-0.6h-12V299.7z"/>
	<path class="st0" d="M181.6,316.8v8.7h-35.4v-51H181v8.7h-24.8v12.3h21.5v8h-21.5v13.3H181.6z"/>
</g>
<g>
	<g>
		<g>
			<g>
				<g>
					<g class="st3">
						<g class="st3">
							<path class="st13" d="M111.5,42.4c-1-0.1-1.9,0.3-2.7,0.8c-0.8,0.5-1.4,1.3-2,2.1c-1.2,1.6-2,3.3-2.6,3.6
								c-1.1,0.8-1.6,2.5-1.7,4.4c-0.2,1.9,0,4.1,0.2,6c0.4,3.9,0.8,7.1-0.1,6.7c-1.1-0.6-4.8-1.8-8.2-3c-3.4-1.1-6.6-2.2-7.1-1.9
								c-1.3,0.6-2,2-2.2,3.8c-0.1,1-0.1,2,0,3.2c0.1,0.6,0.2,1.2,0.3,1.8c0.1,0.6,0.3,1.3,0.4,2c0.3,1.2,0.6,2.1,0.8,2.7
								c0.2,0.6,0.2,1-0.2,1.2c-0.2,0.2,3.2,3.7,4,7.2c0.4,2.3-1.4,4.1-0.5,6.6c0.1,0.6,0.2,1.3,0.2,2.2c0,0.9,0,1.8,0,2.8
								c0,1-0.1,2.1-0.1,3.2c0,1.1,0,2.2,0,3.3c0.1,3.2,0.4,6.2,0.9,7.7c1,3.5,1.8,5.8,2,7.9c0.3,2.1,0,4-0.7,6.3
								c-0.8,1.8-0.7,3.3-0.6,4.9c0.2,1.5,0.5,3,0.4,4.9c0,1.9,0.3,3.6,0.6,5.2c0.4,1.7,0.8,3.4,1.2,5.5c0.1,4.2,1.1,8.1,3.8,11.7
								c0.5,0.4,1,0.8,1.7,0.8c0.6,0.1,1.2,1,1.8,1.3c0.9,1.5,1.4,3.2,2.3,4.7c0.8,1.5,1.9,2.8,3.7,3.4c1,0.4,3,0,3.5-1
								c2.3-4.9,3.1-8.9,3.7-12.4c0.3-1.7,0.1-2.9-0.3-4.1c-0.4-1.2-1-2.3-1.3-3.5c-0.5-1.7,0.7-3.9,2.8-5.8c2.1-2,5.1-3.5,8.2-4.8
								c2.4-1,5.5-2,8-2.8c2.5-0.9,4.3-1.6,4-2.5c-0.5-1.1-1.9-2.5-2.8-4.3c-0.9-1.7-1.4-3.3-0.3-4.8c0.9-1,1.9-1.8,2.7-2.4
								c0.8-0.6,1.5-1.1,2-1.5c0.4-0.1,1.3-0.3,1.4-0.3c-0.3,0,0,0-0.2,0c-0.1-0.1-0.9-0.2-3.1-1.4c-0.3-0.3-0.4-0.6-0.3-0.9
								c0-0.1,0.1-0.3,0.1-0.4c0.1-0.2,0.1-0.3,0.2-0.4c0.1-0.3,0.1-0.6,0.1-1.1c-0.1-0.5-0.3-1.1-0.7-2c-0.3-0.6-0.6-1.2-0.9-1.8
								l-0.8-1.9c-0.3-0.6-0.5-1.3-0.7-2c-0.2-0.7-0.4-1.4-0.5-2c-0.5-2.8-0.6-5.5,0.4-8c1-3,2.5-5.5,4.8-8.2c0.4-0.5,2.1-1.2,4-1.9
								c1.9-0.7,3.9-1.5,4.8-1.8c1.8-0.6,2.6-2.1,2.8-3.6c0.2-1.6-0.3-3.3-0.9-4.7c-2.6-4.6-4.3-8.5-5.2-12.5c0.1-1.3,1.6-2.2,2-3.6
								c0.2-3.7-2.4-7.1-3.4-10.5c-0.1-1.6-0.2-2.9-0.4-4.1c-0.2-1.2-0.4-2.1-0.6-3c-0.4-1.6-0.9-2.6-1.4-3.3
								c-0.8-1.2-1.4-0.9-1.2-1.2c0-1.2,2.7-1.7,3.2-3.4c0.3-2.3-1.5-4.5-3.3-5.7c-2.5-1.8-5.2-3.5-7.2-5.2c-1-0.8-1.9-1.7-2.5-2.6
								c-0.7-0.9-1-2.1-1.2-3.4c-0.3,0.6-0.9,1.1-0.8,1.4c0.3,3.6-1,6.9-2.3,9.6c-1.2,2.7-2.4,5-2.1,7.7c0.4,0.5,1,1.2,1.1,1.9
								c0,1.2,0.1,2.3,0.3,3.4c-0.1,1-1.9,2.1-4.2,2.8C116,42.2,113.3,42.5,111.5,42.4z"/>
							<path class="st14" d="M112.5,144.6c0.3,1.3,0.9,2.4,1.3,3.5c0.4,1.2,0.6,2.4,0.3,4.1c-0.2,0.9-0.4,1.8-0.5,2.7
								c-0.1,0.4-0.2,1-0.3,1.5c-0.1,0.5-0.3,1-0.4,1.5c-0.3,1-0.6,2.1-1,3.2c-0.4,1.1-0.9,2.3-1.5,3.5c-0.5,1-2.5,1.4-3.5,1
								c-1.8-0.6-2.9-2-3.7-3.5c-0.8-1.5-1.4-3.2-2.3-4.8c-0.5-0.3-1.1-1.3-1.8-1.4c-0.7-0.1-1.2-0.4-1.7-0.8
								c-2.7-3.6-3.7-7.5-3.8-11.7c-0.4-2.1-0.8-3.8-1.2-5.5c-0.4-1.7-0.6-3.3-0.6-5.2c0.1-1.8-0.2-3.3-0.4-4.9
								c-0.2-1.5-0.2-3.1,0.6-4.9c0.7-2.3,0.9-4.2,0.7-6.4c-0.2-2.1-1-4.4-2-8c-0.4-1.6-0.8-4.5-0.8-7.6c0-1.1,0-2.2,0-3.3
								c0-1.1,0.1-2.2,0.1-3.2c0.1-1,0.1-2,0.1-2.8c0-0.8-0.1-1.6-0.2-2.2c-0.9-2.4,0.9-4.2,0.5-6.6c0,0,0.6,0,1.8-0.1
								c1.1-0.1,2.8-0.2,5-0.3c0.2,3.6,0.3,7.4,0.8,11.1c0.5,3.7,1.2,7.4,2.5,10.6c1.5,3.9,3.6,7.2,6,10.2c-0.1,2.6,0.1,5.3,0.3,8
								c0.3,2.7,0.6,5.7,1,8.4C108.5,136.2,109.7,140.7,112.5,144.6z"/>
							<path class="st15" d="M94.6,85.2c0,0,0-0.3,0-0.7c0-0.4,0-1,0-1.8c0-0.7,0-1.5,0.1-2.3c0.1-0.8,0.2-1.7,0.4-2.4
								c0.7-3.1,2.3-4.9,6.4-1.5c0,0,1.1,1.4,2.6,3.6c1.5,2.2,3.5,5.2,5.4,8.4c1.9,3.2,3.8,6.4,5.1,9.2c1.4,2.7,2.2,4.8,1.8,6
								c0,0-0.3,0.8-0.6,1.8c-0.3,1-0.4,2.1-0.4,3c0,0-0.1,0-0.4,0.1c-0.5,0.2-1.6,0.7-2.3,1.7c-0.4,0.5-0.6,1-0.6,1.8
								c0,0.7,0.1,1.5,0.7,2.3c0,0,0.3,1,0.9,2.5c0.5,1.5,1.3,3.6,2,5.8c0.7,2.2,1.5,4.8,1.7,6.5c0.3,1.8,0.2,2.9-0.7,3.3
								c0,0-0.2,1.6-0.7,3.3c-0.2,0.8-0.5,1.7-0.8,2.5c-0.3,0.9-0.7,1.7-1.2,2.3c0,0-1.5,1.2-2.7,2.9c-1.1,1.6-1.8,3.8-0.3,4.8
								c0,0,0,0.7,0,1.8c0,1,0.1,2.4,0.2,3.7c0,1.3,0,2.5-0.4,3.3c-0.4,0.8-1.3,1.1-2.9,0.4c0,0-0.3-0.1-0.7-0.2
								c-0.4-0.1-1-0.3-1.7-0.5c-1.3-0.5-2.7-1.2-3.6-1.9c0,0-0.2-0.4-0.6-1c-0.4-0.7-0.9-1.6-1.5-2.8c-1.1-2.4-2.1-5.8-2.5-9.4
								c-0.4-3.5-0.3-6.9,0.1-9.5c0.3-2.6,0.9-4.4,1.4-4.8c0,0,0.2-0.8,0.4-2.1c0.2-1.3,0.5-3.2,0.7-5.4c0.2-2.2,0.4-4.7,0.4-7.3
								c0-2.6,0-5.4-0.2-8.4C99.7,98.5,98.9,92,94.6,85.2z"/>
							<path class="st16" d="M92.3,83.3c0,0-0.3-0.9-0.7-2.2c-0.3-1.3-0.7-3-0.8-4.7c-0.1-3.3,0.8-6.1,5.4-5.3c0,0,0.2-0.1,0.6-0.1
								c0.4-0.1,1-0.2,1.7-0.3c0.7-0.1,1.5-0.2,2.4-0.3c0.9-0.1,1.8-0.1,2.8-0.2c1.9,0,4.1,0,5.9,0.4c1.9,0.4,3.6,1.2,4.6,2.7
								c0,0,0.3,0.4,0.7,1c0.4,0.7,1,1.7,1.7,2.9c1.3,2.5,2.9,6.1,4.1,10.2c1.3,4,2.3,8.4,2.9,12.1c0.7,3.7,1.1,6.7,0.6,8.4
								c0,0-0.1,0.2,0.2,0.7c0.3,0.5,1,1.3,2.8,2.4c0,0,0.1,0.2,0.3,0.4c0.2,0.2,0.4,0.5,0.6,0.8c0.2,0.4,0.3,0.7-0.1,1
								c-0.2,0.1-0.5,0.2-0.9,0.3c-0.5,0.1-1,0.3-1.8,0.4c0,0-0.5,0.2-1.2,0.5c-0.7,0.4-1.6,1-2.5,1.8c-1.7,1.6-3.1,4.1-2.3,5.6
								c0,0-1,0.7-1.8,1.7c-0.8,1-1.3,2.2-0.2,3.1c0,0-0.2-0.3-0.4-0.8c-0.3-0.5-0.7-1.2-1.1-2.1c-0.9-1.7-2-4-2.8-6.2
								c-0.8-2.2-1.3-4.5-1.2-6.1c0.1-1.6,0.8-2.7,2.1-2.8c0,0,0.3-0.1,0.6-0.4c0.4-0.3,0.8-0.8,1.1-1.5c0.3-0.7,0.4-1.6,0.2-3
								c-0.2-1.4-0.6-3.2-1.5-5.7c-0.9-2.5-2.3-5.6-4.5-9.4c0,0-2.6-2.6-6-4.6C100.4,82.1,96.1,80.4,92.3,83.3z"/>
							<path class="st17" d="M84,69.2c-0.4-1.1-0.9-2.3-1.3-3.4c-0.5-1.1-1-2.2-1.2-3.2c0-0.5,0.1-0.8,0.2-1.2
								c0.2-0.4,0.4-0.8,0.4-1.1c0.1-0.4,0.5-0.7,1-0.9c0.4-0.1,1-0.2,1.4-0.2c0.7,0,1.2,0.1,1.7,0c0.5,0,1.1-0.1,1.5-0.1
								c0.4,0,0.9-0.1,1.3-0.2c0.4-0.1,0.8-0.2,1.2-0.3c1.7-0.4,3.5-1.3,6.6-1.4c0.7-0.2,1.2-0.3,1.4-0.7c-0.2-0.2-0.4-0.8-0.6-1
								c0.3-1.4,1-2.7,1-4.3c-0.2-1.3,0.5-2.5,1.6-3.5c0.5-0.5,1.2-0.9,1.9-1.3c0.7-0.4,1.5-0.8,2.2-1.1c0.8-0.4,1.5-0.9,2.2-1.5
								c0.7-0.5,1.3-1.1,2-1.6c1.1-0.9,3.3-1.1,5.3-1.4c2.1-0.3,4-0.6,4.7-1.7c1.3-1.7,0.9-3.5,0.4-5.1c-0.3-0.8-0.6-1.6-0.8-2.3
								c-0.2-0.7-0.2-1.5,0.1-2.3c0.3-0.5,0.5-0.9,0.7-1.4c0.2-0.5,0.4-0.9,0.6-1.4c0.4-1,0.8-1.9,1.5-3.1c0.7-0.9,1.1-1.9,1.5-2.9
								c0.3-1,0.5-2.1,0.8-3.3c0.1-0.5,1.4-2.7,1.8-3c0.7-0.3,1,0.9,1.7,1.3c0.9,0.6,0.8,1.5,0.3,2.4c-0.4,0.9-1.3,1.8-1.7,2.6
								c-0.2,0.4-0.2,0.8-0.2,1.2c0,0.4,0.1,0.8,0.2,1.2c0.1,0.4,0.2,0.8,0.4,1.2c0.1,0.4,0.2,0.8,0.2,1.3c-0.2,0.7-0.8,1.4-1.6,2.1
								c-0.7,0.5-0.7,1-0.5,1.6c0.2,0.6,0.6,1.1,0.9,1.7c0.6,0.7,0.2,1.6-0.2,2.4c-0.4,0.8-1,1.6-0.9,2.4c0,1.1,0.7,2.2,1.2,3.3
								c0.5,1.1,0.9,2.1,0,3c0.8-0.7,0.7,1.1,0.2,2.8c-0.5,1.7-1.3,3.4-1.5,2.4c0.2,0.2-1.1,0.5-1.9,0.4c-0.5-0.1-1.3-0.2-1.5-0.4
								c-1.6-1.6-4.7-2.2-7.2-3.1c-0.2,0-0.6,1-1.3,2.2c-0.7,1.2-1.7,2.4-3,2.9c-2.1,0.7-4.5,1.3-5.3,2.8c0.1,0.5,1.2,1,1.3,1.5
								c-0.1,0.5,1.6,4.1,3,7.7c1.4,3.5,2.4,7.2,1.7,7.5c-0.9,0.3-3,0.2-4-0.5c-3.2-1.8-5.1-1.7-8-2.9c-0.7-0.3-1.5-1-2.2-1.4
								c-1-0.4-2.2-0.8-3.2-1.1c-0.5-0.1-0.9-0.3-1.3-0.3c-0.4,0-0.7,0-0.9,0.1c-0.5,0.1-0.9,0.2-1.2,0.3c-0.4,0.2-0.7,0.4-1,0.6
								c-0.5,0.4-0.9,1.2-0.9,1.9L84,69.2z"/>
							<path class="st18" d="M134.2,126.8c0,0-0.3-0.3-0.8-0.8c-0.4-0.5-1-1.3-1.3-2.3c-0.7-1.9-0.6-4.4,2.6-6c0,0,0.2-0.2,0.5-0.4
								c0.3-0.3,0.7-0.5,1-0.8c0.7-0.5,1.4-0.8,1.2-0.9c0.4-0.1,0.8-0.1,1.2-0.1c0,0,0.2,0.1-0.3-0.1c-0.4-0.1-1.2-0.5-2.9-1.4
								c0,0-0.3-0.3-0.4-0.8c0-0.2-0.1-0.5,0-0.6c0-0.2,0.2-0.3,0.4-0.3c0,0,0.1-0.1,0.1-0.2c0-0.2,0-0.4-0.1-0.9
								c-0.1-0.5-0.3-1.1-0.7-2.1c-0.2-0.5-0.4-1-0.8-1.6c-0.3-0.6-0.6-1.3-1.1-2.1"/>
							<path class="st19" d="M97,48.4c1-1.2,6.1-5.3,8.6-6.2c3.8-1.5,7.4-2.9,11.4-4.8c0.3-0.2,0.4-0.5,0.1-0.7
								c-1-0.8-1.1-1.5-1.1-2.2c0-0.7,0.1-1.4-0.5-2c-0.4-0.5-1.4-0.9-1.2-1.4c0.3-1.4,1-2.6,2.1-4l1.6-2.3c0.5-0.8,1.2-1.8,1.8-2.8
								c0.6-1,1.2-1.9,1.8-2.9c0.6-1,1.2-2.2,1.6-3.4c0.3-0.6,0.6-1.3,1.1-1.7c0.4-0.4,0.6,0.4,0.9,0.6c0,0.6-0.5,1.3-0.5,2
								c-0.2,0.7-0.2,1.4-0.2,2c0,0.6,0,1.2-0.5,1.9c-0.6,1.3-1.6,2.4-2.3,3.6c-0.3,0.7-0.4,1.3-0.5,2c-0.5,2.4-0.9,4.5-0.7,6.8
								c1,0.4,1.1,1.1,0.9,1.7c-0.2,0.6-0.5,1.2-0.6,1.8c-0.1,0.3-0.6,0.6-0.9,1c-0.3,1,0.3,2.2-1.1,2.7c-3.3,0.9-6.3,1.8-9,2.9
								c-0.5,0.2-1.3,0.7-2.2,1.2c-0.9,0.5-1.9,1.2-2.8,1.9c-1.9,1.3-3.8,2.8-4.4,3.5c-1.7,1.8-1,4.1-2.1,5.6c0,0.1-1.1-0.6-1.8-1.7
								C95.8,52.3,95.5,50.7,97,48.4z"/>
						</g>
					</g>
				</g>
			</g>
		</g>
		<g>
			<g>
				<g>
					<g class="st3">
						<g class="st3">
							<path class="st13" d="M121.6,41.9c-4.1,0.7-4.2,3.7-5.3,4.1c-1.6,0.9,0,2.7,1.5,4.6c1.6,1.8,3.3,3.6,2.4,3.6
								c-1.3-0.1-5.1,0-8.7,0.1c-3.5,0.1-6.8,0.2-7.1,0.4c-1.7,1.1,0.2,2.5,4.2,4.3c1.7,0.8,2.9,1.2,2.5,1.3c0,0,1.1,0.4,2.6,0.8
								c1.4,0.5,3.2,1.1,4.3,1.8c1.4,0.9,0.7,1.5,2.3,2.5c1.2,0.8,2.2,2.2,3,3.7c0.9,1.5,1.4,3,2,3.8c2.1,3.3,2,4.7-0.2,6
								c-2.1,0.8-1.4,2.3-2.6,3.5c-0.3,0.3-0.4,0.6-0.6,0.9c-0.2,0.3-0.3,0.6-0.4,0.9c-0.3,0.6-0.5,1.2-1.1,1.8
								c-1.7,0.8-2.9,1.6-3.6,3c0,0.3,0.1,0.5,0.4,0.9c0.3,0.4,0,0.6,0,0.9c-1.4,0.6-4.2,0-4.5,1.3c-0.1,0.3,0.5,1.4,1.5,2
								c4.8,2.8,8.8,4.4,12.6,5.3c1.8,0.4,2.9,0.3,3.8-0.1c0.9-0.4,1.5-1,2.3-1.5c1.1-0.7,3.3-0.6,6.1-0.2c2.7,0.5,6,1.3,9.3,2.2
								c4.9,1.5,12.5,4.4,13.3,1.9c0.3-1.6-0.2-3.4-0.4-5c-0.1-0.8-0.1-1.6,0.2-2.3c0.2-0.7,0.7-1.3,1.5-1.8c2.5-1.3,5-2.3,6.5-4.2
								c0.4-0.2,1.7-1.1,1.9-1.5c0.1-1.3,0.8-2.6,0.9-3.9c0.1-1.3-0.3-2.7-2.4-4.1c-0.5-1.5-0.1-2.5,0-3.5c0.1-1-0.1-1.9-1.6-3.3
								c-2-1.8-4.1-3.5-5.8-5.1c-1.8-1.6-3.2-3.2-3.6-4.7c-0.6-1.7-0.5-3.2,0.4-4.7c0.2-0.5,5-2.3,6.6-2.8c2.8-1.1,1-3-1-4.2
								c-3.9-1.9-6.6-3.7-8.7-5.7c-0.3-0.7,1-1.5,0.9-2.3c-0.9-2-4.3-3.1-6-4.5c-1.7-2.9-3.2-4-4.2-4.4c-1-0.4-1.5-0.2-1.3-0.3
								c-0.1-0.6,2.5-1.3,2.9-2.1c0.1-1.1-1.6-1.8-3.3-2.1c-2.4-0.5-4.7-1-6.3-1.7c-1.6-0.7-2.4-1.6-1.5-3.1
								c-0.5,0.3-1.3,0.6-1.3,0.7c-1.2,2-3.1,3.9-4.6,5.6c-1.5,1.7-2.6,3.3-2,4.7c0.4,0.2,1.1,0.5,1.3,0.8c0.1,0.6,0.5,1.2,0.8,1.7
								c0.1,0.5-1.4,1.4-3.5,2.2C126,40.9,123.4,41.6,121.6,41.9z"/>
							<path class="st14" d="M132.9,97.7c-0.8,0.5-1.5,1.1-2.3,1.5c-0.9,0.4-2,0.5-3.8,0.1c-3.8-1-7.8-2.5-12.6-5.3
								c-1-0.6-1.6-1.6-1.5-2c0.2-1.3,3-0.7,4.5-1.3c0-0.3,0.3-0.5,0-0.9c-0.3-0.4-0.4-0.6-0.4-0.9c0.7-1.4,1.9-2.2,3.6-2.9
								c1.1-1.2,1.1-2.4,2.1-3.7c0.6-0.5,0.7-1.2,1-1.9c0.2-0.6,0.6-1.2,1.6-1.6c2.2-1.2,2.3-2.7,0.2-6c-0.6-0.9-1.1-2.3-2-3.8
								c-0.9-1.5-1.9-2.9-3-3.7c-1.7-0.9-0.9-1.6-2.3-2.5c0,0,2.1,0,5.6-0.4c1.5,1.2,3,2.5,4.4,3.8c1.4,1.3,2.8,2.7,4.2,4.1
								c2.8,2.9,5.3,6,7.9,9.3C138.2,85.9,135.9,91.9,132.9,97.7z"/>
							<path class="st15" d="M122.5,63.7c0,0-2.2-1.7-3-2.9c-0.9-1.3-0.6-2.3,4.7-1.3c0,0,1.6,0.5,4,1.3c2.4,0.8,5.6,2,8.8,3.3
								c3.1,1.3,6.3,2.9,8.6,4.4c2.3,1.5,3.9,2.9,3.7,3.9c0,0-0.3,2.8-0.1,4.3c0,0-1.2,0.3-2.2,1.1c-1,0.8-1.8,1.9-0.9,3.7
								c0,0,0.2,0.8,0.3,2.1c0.1,1.2,0.3,2.9,0.3,4.6c-0.1,3.3-0.8,6.7-2.7,6.2c0,0-1,0.9-2.4,1.7c-1.4,0.8-3.1,1.6-4.6,1.4
								c0,0-1.9-0.5-3.8-0.8c-1.9-0.3-3.8-0.4-3.9,0.7c0,0-0.6,0.1-1.5,0.1c-0.9,0-2.1,0-3.3-0.2c-2.4-0.3-4.6-1.1-4.4-2.5
								c0,0-0.1-0.6-0.3-1.2c-0.1-0.7-0.3-1.5-0.3-1.9c0,0,0.5-0.5,1.4-1.2c0.4-0.4,0.9-0.8,1.5-1.3c0.5-0.5,1.1-1,1.7-1.5
								c2.4-2.1,4.8-4.4,6.1-4.2c0,0,0.2-0.1,0.6-0.4c0.4-0.3,0.8-0.6,1.3-1.2c0.9-1,2.1-2.6,2.5-4.5c0.4-2,0.2-4.3-1.6-6.7
								c-0.9-1.2-2.1-2.4-3.7-3.5C127.3,65.8,125.2,64.7,122.5,63.7z"/>
							<path class="st16" d="M119.7,62.9c0,0-2.8-1.3-4.5-2.6c-1.7-1.2-2.5-2.4,1.9-2.6c0,0,0.7-0.2,1.8-0.5
								c1.1-0.3,2.6-0.7,4.3-1.1c3.4-0.7,7.6-1.5,10.8-0.4c0,0,1.6,0.5,3.9,1.5c1.2,0.5,2.5,1.1,4,1.8c1.4,0.7,3,1.5,4.5,2.4
								c3,1.8,6.2,4,8.3,6.4c1.1,1.2,2,2.3,2.6,3.5c0.3,0.6,0.6,1.1,0.7,1.7c0.1,0.6,0.2,1.1,0.2,1.6c0,0-0.1,0.2,0.3,0.7
								c0.4,0.5,1.2,1.4,3,2.7c0,0,0.8,1.4,0.8,2.8c0,1.4-0.8,2.9-3.7,3c0,0-0.5,0.2-1.3,0.5c-0.8,0.3-1.8,0.8-2.9,1.3
								c-2.1,1-4.2,2.2-3.9,3.6c0,0-1.2,0-2.2,0.3c-1,0.3-1.9,0.7-1.2,1.7c0,0-0.2-0.9-0.4-2.3c-0.2-1.4-0.6-3.2-0.8-5
								c-0.2-1.8-0.3-3.5,0-4.8c0.3-1.3,0.9-2.2,2.3-2.2c0,0,0.5-0.2,0.9-0.7c0.4-0.5,0.8-1.3,0.6-2.4c-0.3-2.2-2.9-5.8-11.9-9.8
								c0,0-3.5-0.9-7.5-1.5C126.1,62,121.6,61.8,119.7,62.9z"/>
							<path class="st17" d="M105.7,58c-1.8-0.7-4.1-1.5-5.6-2.1c-0.6-0.3-0.3-0.6-0.6-0.9c-0.2-0.4,0.9-0.6,1.6-0.8
								c2.3-0.4,3.5-1.1,4.9-1.8c1.4-0.7,2.8-1.5,5.7-2c0.7-0.2,1-0.3,1.1-0.5c-0.2-0.1-0.6-0.3-0.9-0.4c-0.1-0.6,0.2-1.3-0.3-1.9
								c-1.1-0.9,1.3-2,3.9-3.1c1.3-0.6,2.1-1.4,3.2-2.1c1.8-1.3,8.2-2.1,9.1-3.4c0.9-1.1,0.3-1.9-0.5-2.7c-0.7-0.8-1.6-1.5-1-2.6
								c1-1.3,1.6-2.5,3.2-4c1.7-1.2,2.6-2.4,3.9-3.8c0.3-0.3,2.4-1.5,2.9-1.6c0.8-0.1,0.4,0.5,0.9,0.7c1.2,0.6-1.7,1.9-2.8,2.7
								c-1.1,1-0.2,1.7-0.4,2.7c-0.3,0.4-0.9,0.9-1.8,1.4c-1.4,0.8-0.2,1.2,0.4,1.8c1.2,0.6-0.9,1.9-0.6,2.7
								c0.2,1.1,3.7,1.6,2.4,2.8c1.3-1,0.7,3.6-0.1,2.7c0.2,0.1-0.9,0.4-1.7,0.5c-0.5,0-1.3,0.1-1.6,0.1c-1.9-0.5-5.1-0.1-7.7-0.1
								c-0.3,0.1-0.5,2.1-2.7,3c-1.9,0.7-4,1.2-4.3,1.9c0.2,0.2,1.5,0.2,1.7,0.4c0,0.1,0.7,0.5,1.7,1c1,0.5,2.2,1.3,3.4,2
								c1.2,0.8,2.4,1.6,3.3,2.2c0.8,0.7,1.3,1.2,1,1.3c-0.7,0.3-2.6,0.7-3.9,0.5c-3.7-0.4-5.4,0.1-8.4,0.1c-0.8,0-1.8-0.3-2.6-0.3
								c-2.2,0-4.8,0-5.3,0.3c-1.4,0.4-2,1-1.3,1.6L105.7,58z"/>
							<path class="st18" d="M161.6,99.2c0,0-0.7-1.6-0.5-3.3c0.2-1.7,1.2-3.6,4.9-4.7c0,0,1.1-0.6,2.1-1.4c1-0.8,2-1.7,1.9-2.2
								l1.5-0.9c0,0,0.6-1.4,0.8-3.1c0.1-1.7-0.3-3.7-2.3-4.7c0,0-0.2-0.8-0.3-1.6c-0.1-0.8-0.1-1.7,0.3-1.8c0,0,0.2-0.5-0.2-1.6
								c-0.5-1-1.6-2.6-4.5-4.4"/>
							<path class="st19" d="M109.2,46.8c0.3-0.2,1.5-1,2.8-1.8c1.3-0.8,2.8-1.7,3.9-2.1c1.6-0.7,3.3-1.4,5-2.2
								c1.6-0.7,3.3-1.5,5.1-2.4c0.2-0.2,0.3-0.3-0.1-0.4c-2.2-0.4-0.9-1.6-2.1-2.1c-0.4-0.2-1.4-0.3-1.3-0.7c0.2-0.9,1-2,2.1-3.1
								c1.1-1.1,2.5-2.3,4.2-3.7c1.5-1.1,3.6-2.4,5.4-3.7c0.5-0.3,1.1-0.7,1.7-0.9c0.5-0.2,0.3,0.2,0.5,0.4c-0.3,0.3-1,0.7-1.4,1.1
								c-0.9,0.8-0.8,1.5-1.9,2.2c-0.9,0.8-2.2,1.5-2.9,2.3c-0.4,0.5-0.6,0.9-0.7,1.3c-0.8,1.6-1.1,2.9-0.7,4.1
								c2,0.2,0.7,1.2,0.7,1.8c-0.1,0.2-0.5,0.4-0.7,0.7c-0.2,0.6,0.7,1-0.6,1.6c-3,1.1-5.8,2.1-8.1,3.1c-0.9,0.4-2.5,1.4-4,2.3
								c-1.5,0.9-2.9,1.7-3.2,2.1c-1.2,0.9,0.2,1.7-0.4,2.5c0,0-0.3,0-0.8-0.1c-0.4-0.1-1-0.2-1.5-0.4
								C109.2,48.4,108.4,47.8,109.2,46.8z"/>
						</g>
					</g>
				</g>
			</g>
		</g>
		<g>
			<g>
				<g>
					<g class="st3">
						<g class="st3">
							<path class="st13" d="M127.9,77.5c-1.9,0.8-2.4,3-2.5,5c-0.1,2,0.2,4-0.1,4.5c-0.8,2.4,2.3,6.1,5.3,8.8c3,2.7,6,4.6,5.2,5
								c-2.4,1-12.4,9-12.4,10.3c-0.2,3.3,2.9,4.7,7.5,4.8c2.1,0.2,3.3-0.2,3.1,0.4c0,0.2,4.6-1.3,7.5-1.1c1.8,0.2,1.7,1.6,3.7,1.7
								c1.6,0.2,3.4,1.4,5.1,2.6c1.7,1.2,3.2,2.6,4.2,3.3c3.7,2.5,4.6,4.4,3.3,7.3c-1.4,2.2,0,3.7-0.6,5.7c-0.4,2.1,0,3.5-0.6,5.5
								c-1.5,1.7-2.4,3-2.8,4.7c0.1,0.3,0.1,0.6,0.5,0.9c0.4,0.3,0,0.7,0.1,1c-0.7,0.5-1.8,0.9-2.7,1.1c-1,0.3-1.7,0.6-1.9,1.3
								c-0.1,0.4,0.5,1.4,1.5,1.9c5,2.5,9.4,3.4,13.6,3.3c2-0.1,3.2-0.8,4.2-1.7c0.9-0.9,1.7-2.1,2.5-3.3c0.6-0.8,1.4-1.5,2.5-2.1
								c1.1-0.6,2.4-1.1,3.8-1.6c2.9-1,6.4-1.8,9.8-2.6c2.6-0.5,6-0.9,8.7-1.8c2.6-0.9,4.7-2.4,4.6-4.7c-0.3-2.7-1.6-5.2-2.5-7.5
								c-1-2.4-1.6-4.6-0.7-7.3c1.4-3.7,2.6-6.9,2.5-10.7c0.2-0.6,0.5-2.7,0.5-3.4c-1.7-3.5-1.3-8.2-6.7-8.7
								c-2.9-2.9-1.7-5.3-5.9-6.5c-5.6-1.3-11.5-1.9-14.1-4.5c-1.6-1.4-2.4-3-2.5-4.9c-0.1-0.7,3.1-4.7,4.2-5.9c2-2.3-0.4-3-2.8-3.2
								c-4.3,0.1-7.5-0.6-10.1-1.8c-0.6-0.6,0.4-1.7,0.1-2.5c-1.3-1.5-4.8-1.8-6.8-3c-2.2-2.7-3.7-3.8-4.7-4.2
								c-1-0.4-1.5-0.2-1.3-0.4c-0.2-0.7,2.5-1.4,2.9-2.2c0.2-1.1-1.4-1.9-3.1-2.5c-1.2-0.4-2.3-0.9-3.3-1.5c-1-0.6-1.9-1.2-2.6-1.9
								c-0.7-0.7-1.1-1.4-1.2-2.2c-0.1-0.4,0-0.8,0.1-1.1c0.1-0.4,0.4-0.7,0.7-1.1c-0.6,0.1-1.4,0.1-1.5,0.3c-1.9,2-4.3,4.1-6,6.4
								c-1.8,2.3-2.9,4.9-2.2,7.6c0.5,0.4,1.2,1,1.5,1.6c0.2,1.1,0.7,2,1.2,2.9c0.3,0.8-1.1,2.3-2.9,3.9
								C131.8,75.1,129.5,76.7,127.9,77.5z"/>
							<path class="st14" d="M171.5,150.7c-0.8,1.2-1.5,2.3-2.5,3.3c-1,0.9-2.3,1.6-4.2,1.7c-4.2,0.1-8.6-0.8-13.6-3.3
								c-1-0.5-1.6-1.6-1.5-1.9c0.2-0.7,0.9-1,1.9-1.3c1-0.3,2-0.6,2.7-1.1c-0.1-0.3,0.3-0.7-0.1-1c-0.4-0.3-0.4-0.6-0.5-0.9
								c0.4-1.7,1.4-3,2.8-4.7c0.7-1.9,0.2-3.4,0.6-5.4c0.3-1,0.1-1.9,0-2.8c-0.1-0.9-0.1-1.8,0.6-2.9c1.3-2.9,0.4-4.8-3.3-7.3
								c-1-0.7-2.5-2-4.2-3.3c-1.7-1.2-3.6-2.4-5.1-2.6c-2-0.1-1.9-1.4-3.7-1.7c0,0,1.6-1.4,4.1-4.3c8.6,2.5,17.1,5.3,25.4,10.5
								c1.3,4.6,2.1,9.3,2.3,14.2C173.3,140.6,172.9,145.6,171.5,150.7z"/>
							<path class="st15" d="M145.7,113.3c0,0-3-0.8-4.8-2c-1.8-1.2-2.4-2.9,2.6-4.9c0,0,1.7-0.3,4.2-0.8c2.5-0.5,6-1,9.5-1.4
								c7-0.8,14.5-0.6,15.7,1.8c0,0,1.8,3.4,3,5.2c0,0-0.7,1.2-1,2.8c-0.1,0.8-0.1,1.7,0.1,2.6c0.1,0.5,0.3,0.9,0.6,1.4
								c0.3,0.5,0.6,0.9,1.1,1.4c0,0,0.7,1,1.6,2.5c0.5,0.8,1,1.7,1.5,2.7c0.5,1,1,2.2,1.4,3.3c0.9,2.3,1.5,4.9,1.7,6.9
								c0.1,2-0.2,3.5-1.2,3.8c0,0-0.1,0.5-0.4,1.3c-0.3,0.8-0.7,1.8-1.2,2.9c-0.3,0.5-0.6,1.1-0.9,1.6c-0.3,0.5-0.7,1-1.1,1.5
								c-0.7,0.9-1.5,1.6-2.3,1.9c0,0-2,0.3-4,0.9c-1,0.3-2,0.7-2.8,1.1c-0.8,0.5-1.3,1.1-1.3,1.8c0,0-0.7,0.4-1.6,0.8
								c-1,0.4-2.3,0.8-3.6,1.1c-2.6,0.5-5,0-4.7-1.8c0,0,0-0.2-0.1-0.4c-0.1-0.3-0.1-0.6-0.2-1c-0.1-0.4-0.2-0.8-0.3-1.2
								c-0.1-0.4-0.2-0.8-0.2-1c0,0,0.5-0.8,1.2-2c0.7-1.2,1.6-2.9,2.4-4.8c0.8-1.9,1.5-3.9,2.2-5.6c0.6-1.7,1.2-2.9,1.8-3.2
								c0,0,0.1-0.3,0.3-0.8c0.2-0.5,0.4-1.3,0.5-2.3c0.3-1.9,0.3-4.6-0.6-7.3c-0.9-2.7-2.8-5.3-5.8-7.1
								C155.7,113.3,151.4,112.5,145.7,113.3z"/>
							<path class="st16" d="M142.9,114.2c0,0-0.8,0-1.9,0c-1.1,0-2.5-0.2-3.7-0.5c-2.4-0.6-4-2-0.8-5.1c0,0,1.3-3,3.5-6.2
								c2.2-3.2,5.2-6.4,8.7-6.6c0,0,1.7-0.1,4.4-0.2c2.7-0.1,6.2-0.1,10,0.2c3.8,0.3,7.7,0.8,11.1,2c3.4,1.2,6.2,2.9,7.6,5.4
								c0,0,0.4,1.1,5,1.8c0,0,0.4,0.3,0.9,0.8c0.5,0.5,1.2,1.2,1.7,2.1c0.5,0.9,0.9,1.9,0.8,3c0,1.1-0.5,2.3-1.6,3.3
								c0,0-0.1,0.2-0.2,0.4c-0.1,0.3-0.3,0.7-0.5,1.2c-0.4,1-1,2.4-1.5,3.8c-0.5,1.4-1,2.9-1.3,4.3c-0.3,1.3-0.3,2.6,0.2,3.4
								c0,0-1,0.9-1.7,1.9c-0.8,1.1-1.2,2.3-0.2,3.3c0,0-0.6-1.2-1.5-3c-0.9-1.8-2.2-4.1-3.5-6.3c-1.3-2.2-2.5-4.5-3.2-6.3
								c-0.6-1.8-0.8-3.3,0.3-4.2c0,0,0.2-0.6,0.2-1.5c0-0.9-0.3-2.1-1.2-3.3c-1.8-2.4-6.4-4.7-16.5-3.8c0,0-3.5,1-7,2.9
								C147.1,108.7,143.4,111.3,142.9,114.2z"/>
							<path class="st17" d="M127.9,116.6c-2.1,0-4.6,0.3-6.4,0.1c-0.8-0.2-0.9-1-1.5-1.5c-0.6-0.6-0.1-1.9,0.3-2.8
								c0.7-1.1,1.1-2.3,1.4-3.4c0.3-1.1,0.4-2.3,0.6-3.4c0.3-2.3,0.8-4.8,2.8-7.2c0.4-0.7,0.6-1.1,0.5-1.7c-0.3,0-0.9-0.4-1.1-0.4
								c-0.8-1.3-1.1-2.9-2.1-4.1c-1.9-1.9-0.6-5.1,1.1-8.2c0.8-1.7,1.2-3.5,1.8-5.1c1.1-3,7.2-4.8,7.7-7.2c0.3-1,0.3-1.9,0-2.7
								c-0.3-0.8-0.7-1.6-1.1-2.4c-0.5-0.8-0.9-1.6-1.2-2.5c-0.3-0.9-0.4-1.8,0-2.8c0.5-1.1,1-2.2,1.5-3.2c0.5-1,1.2-2,2.3-3
								c1-0.7,1.8-1.4,2.6-2.1c0.8-0.7,1.5-1.4,2.5-2c0.4-0.3,2.8-0.8,3.3-0.7c0.7,0.2,0.2,0.9,0.6,1.4c0.9,1.3-2.2,1.7-3.6,2.5
								c-1.4,1-0.7,2.5-0.9,3.9c-0.4,0.6-1,1.1-1.9,1.7c-1.4,0.9-0.3,2,0.4,3c1.1,1.2-0.8,2.9-0.4,4.4c0.2,0.9,1.2,1.6,2.1,2.2
								c0.8,0.6,1.5,1.3,1,2.2c0.5-0.8,1,0.5,1.2,1.9c0.3,1.4,0.3,2.8-0.3,2.3c0.3,0-0.7,0.8-1.5,1.1c-0.5,0.1-1.3,0.5-1.5,0.4
								c-2.1-0.4-5.1,0.6-7.7,1.1c-0.3,0.2,0.6,4.2-0.9,6.4c-1.3,1.8-2.9,3.5-2.7,5.1c0.3,0.3,1.6,0,1.9,0.3
								c0.2,0.4,3.7,2.1,7.1,3.5c3.4,1.4,6.7,2.8,6.6,3.4c-0.4,0.9-1.6,2.4-2.9,2.8c-3.4,1.5-4.4,3.2-6.9,4.9
								c-0.7,0.4-1.7,0.6-2.4,1c-1.8,1.3-3.9,3-4,3.9c-0.7,1.8-0.5,3.2,0.7,3.9L127.9,116.6z"/>
							<path class="st18" d="M199.8,134c0,0-0.3-0.5-0.7-1.3c-0.4-0.8-0.9-2-1.3-3.3c-0.7-2.8-0.9-6.2,1.5-10.4c0,0,0.4-1.6,0.8-3.5
								c0.3-1.8,0.5-3.9,0.1-4.4l0.6-2.1c0,0-0.1-0.6-0.4-1.4c-0.3-0.8-0.6-1.9-1.2-3c-0.5-1.1-1.2-2.1-2.1-2.9
								c-0.8-0.7-1.8-1.2-3-1.2c0,0-0.7-0.8-1.4-1.6c-0.7-0.8-1.3-1.8-1-2.2c0,0-0.2-0.7-1.2-1.6c-1.1-0.8-3-1.7-6.6-1.9"/>
							<path class="st19" d="M119.1,90.9c0.1-0.7,0.5-2.8,1.1-5c0.6-2.2,1.5-4.5,2.4-5.7c1.2-1.7,2.5-3.4,3.9-5
								c1.4-1.6,2.8-3.2,4.4-4.8c0.2-0.3,0.2-0.6-0.2-0.8c-1.2-0.5-1.6-1.3-1.7-2.1c-0.2-0.8-0.2-1.7-0.9-2.3
								c-0.5-0.6-1.5-1.1-1.4-1.8c0.3-4,3.2-7.8,7.2-10.6c1.8-1.2,4.3-2,6.5-2.8c0.6-0.1,1.3-0.4,2-0.2c0.5,0,0.2,0.5,0.3,0.7
								c-0.4,0.3-1.2,0.4-1.7,0.8c-1.2,0.7-1.3,1.6-2.6,2.3c-1.2,0.8-2.5,1.4-3.5,2.3c-0.5,0.6-0.8,1.2-0.9,1.9
								c-1,2.4-1.3,4.9-0.8,7.2c2.1,0.6,0.9,2.2,1,3.3c0,0.3-0.4,0.7-0.5,1.2c0,1,1,1.8-0.2,2.8c-2.7,2.1-5,4.2-6.8,6.6
								c-0.7,1-1.8,3.3-2.6,5.6c-0.8,2.3-1.4,4.6-1.5,5.4c-0.3,2.4,1.7,3.7,1.9,5.8C124.6,95.8,119.4,96.4,119.1,90.9z"/>
						</g>
					</g>
				</g>
			</g>
		</g>
		<g>
			<g>
				<g>
					<g class="st3">
						<g class="st3">
							<path class="st13" d="M156,76.5c-4,0.9-3.8,5.7-4.7,6.4c-1.4,1.6,0.6,4.3,2.6,6.4c1,1.1,2.1,2,2.8,2.7c0.7,0.7,1,1.1,0.5,1.2
								c-2.6,0.4-14.6,4.4-15.1,5c-0.6,1-0.4,1.7,0.6,2.3c1,0.6,2.6,1.1,4.8,1.5c1.9,0.4,3.2,0.4,2.8,0.8c0,0.1,1.2,0,2.7,0.1
								c1.5,0.1,3.4,0.2,4.7,0.5c1.6,0.5,1.1,1.4,3,1.9c2.8,0.9,5.7,4.7,7.2,6.1c3,2.6,3.5,4,1.8,6.1c-1.7,1.6-0.4,2.9-1.2,4.5
								c-0.5,1.7,0,2.9-0.6,4.6c-1.3,1.5-2,2.8-2.2,4.5c0.1,0.2,0.3,0.5,0.7,0.7c0.4,0.2,0.2,0.6,0.3,0.9c-1,1.3-3.8,2.1-3.5,3.4
								c0.1,0.4,1.1,1.1,2.2,1.2c5.6,0.4,9.9,0,13.7-0.8c3.5-0.8,3.9-2.4,4.9-4c1.4-2.2,8.3-3.3,14.9-4.1c5.2-0.5,13.2-0.7,13-3.1
								c-0.6-2.9-4.5-5.5-2-8.2c1.9-2,3.8-3.6,4.6-5.7c0.3-0.3,1.2-1.5,1.3-1.9c-0.4-1.2-0.1-2.5-0.4-3.6c-0.3-1.2-1.1-2.2-3.6-2.8
								c-1.8-2.4,0.1-3.9-3.5-5.5c-4.8-2-10.1-3.8-11.8-6.3c-1-1.4-1.3-2.8-0.8-4.4c0.1-0.5,4.3-3.1,5.7-3.9
								c2.5-1.5,0.4-2.5-1.7-3.1c-2.1-0.3-3.8-0.7-5.3-1.2c-1.5-0.5-2.8-1-3.9-1.7c-0.4-0.5,0.8-1.3,0.7-1.9
								c-0.5-0.7-1.5-1.1-2.7-1.6c-1.2-0.4-2.4-0.8-3.3-1.4c-3.2-4.3-5.4-3.7-5.1-3.9c-0.1-0.5,2.7-0.8,3.2-1.4
								c0.3-0.8-1.2-1.4-2.8-2c-2.2-0.8-4.4-1.8-5.7-2.9c-1.3-1.1-1.7-2.3-0.3-3.2c-0.6,0-1.4,0-1.5,0.1c-1,0.7-2,1.3-3.1,2
								c-1.1,0.7-2.2,1.4-3.2,2.2c-1,0.8-1.8,1.6-2.3,2.5c-0.6,0.9-0.8,1.8-0.6,2.8c0.4,0.4,1.1,0.8,1.2,1.2
								c0.1,0.8,0.4,1.5,0.7,2.1c0.1,0.6-1.5,1.6-3.5,2.5C160.3,75.1,157.8,76.1,156,76.5z"/>
							<path class="st14" d="M184,132.4c-1.1,1.6-1.4,3.3-4.9,4c-3.9,0.8-8.2,1.2-13.7,0.8c-1.1-0.1-2.1-0.8-2.2-1.2
								c-0.3-1.4,2.5-2.2,3.5-3.4c-0.1-0.2,0.1-0.7-0.3-0.9c-0.4-0.2-0.6-0.5-0.7-0.7c0.1-1.7,0.8-3,2.2-4.5
								c0.6-1.7,0.1-2.9,0.6-4.6c0.7-1.6-0.6-2.9,1.2-4.5c1.7-2.1,1.2-3.5-1.8-6.1c-1.6-1.4-4.4-5.2-7.2-6.1c-1.9-0.4-1.3-1.4-3-1.9
								c0,0,2-0.7,5.3-2.2c7.2,3.3,14.3,7.2,21.2,11.8C184.4,119.4,184.4,125.9,184,132.4z"/>
							<path class="st15" d="M162.2,102.8c0,0-0.6-0.3-1.4-0.7c-0.8-0.4-1.8-1-2.4-1.5c-1.2-1.1-1.2-2.3,4.1-2.8
								c0,0,6.7,0.1,13.5,0.9c6.8,0.8,13.8,2.4,14.2,4.2c0,0,0.2,0.7,0.4,1.5c0.2,0.8,0.5,1.9,0.9,2.6c0,0-1.1,0.7-1.8,1.7
								c-0.7,1-1.1,2.4,0.3,3.8c0,0,1.7,2.8,2.9,5.9c1.2,3.1,1.7,6.3-0.2,6.6c0,0-0.5,1.2-1.5,2.4c-0.9,1.3-2.2,2.6-3.7,3.1
								c0,0-1.9,0.3-3.8,0.7c-1.8,0.5-3.6,1.2-3.3,2.2c0,0-2.1,1.2-4.4,2c-2.2,0.8-4.6,1.1-5-0.4c0,0-1.5-1.9-1.8-2.8
								c0,0,1.2-2.8,2.5-5.9c1.4-3,2.9-6.2,4.1-6.5c0,0,0.6-0.8,1.2-2.2c0.6-1.4,1-3.2,0.7-5.3C177.3,108.4,173.6,103.8,162.2,102.8
								z"/>
							<path class="st16" d="M159.3,102.9c0,0-3.1-0.5-5.1-1.4c-2-0.8-3.1-1.9,1-3.4c0,0,0.6-0.4,1.5-1.1c1-0.6,2.3-1.5,3.8-2.4
								c3.1-1.8,6.9-3.6,10.3-3.3c0,0,1.6,0.2,4.2,0.5c2.5,0.4,5.9,1,9.3,1.9c3.5,0.9,7,2.1,9.8,3.7c2.8,1.5,4.9,3.3,5.4,5.2
								c0,0,0.1,0.8,4.2,2.1c0,0,1.1,1,1.6,2.3c0.4,1.3,0.2,2.8-2.4,3.8c0,0-1.8,1.4-3.4,2.9c-1.6,1.6-3.1,3.4-2.4,4.5
								c0,0-1.1,0.4-1.9,1c-0.8,0.6-1.5,1.3-0.5,2c0,0-2.1-3.1-3.7-6.3c-1.6-3.2-2.7-6.4-0.3-7.2c0,0,0.4-0.4,0.6-1
								c0.2-0.6,0.3-1.5-0.2-2.4c-1-1.9-4.5-4.5-14.3-5.8c0,0-3.6,0.1-7.6,0.7C165.1,99.9,160.8,101,159.3,102.9z"/>
							<path class="st17" d="M144.4,101.9c-1.9-0.3-4.4-0.5-6-0.8c-0.7-0.2-0.5-0.7-0.9-1c-0.4-0.4,0.6-1.1,1.2-1.6
								c4.2-2.3,3.7-5.4,9-8.3c0.6-0.4,0.9-0.7,0.9-1c-0.2,0-0.7-0.3-1-0.4c-0.3-0.9-0.2-2-0.8-2.9c-0.7-0.7-0.5-1.6,0.2-2.5
								c0.7-0.9,1.8-1.9,3-2.9c1.2-1.1,1.9-2.3,2.9-3.4c1.6-1.9,8-2.8,8.9-4.5c1-1.3,0.3-2.5-0.3-3.7c-0.7-1.2-1.4-2.4-0.5-3.8
								c0.6-0.8,1.2-1.5,1.8-2.2c0.6-0.7,1.3-1.3,2.4-1.9c2-0.9,3.3-1.8,5.1-2.6c0.4-0.2,2.8-0.4,3.3-0.3c0.7,0.2,0.2,0.7,0.6,1
								c0.8,1-2.3,1-3.6,1.5c-1.4,0.7-0.8,1.7-1.2,2.7c-0.4,0.4-1.1,0.7-2,1.1c-1.5,0.5-0.5,1.4,0.1,2.1c1,0.9-1.2,2-0.9,3.1
								c0.1,1.4,3.6,2.2,2.2,3.4c1.3-1.1,0.9,3.9,0.1,3c0.2,0.1-0.9,0.5-1.7,0.7c-0.5,0.1-1.3,0.2-1.6,0.2c-2-0.5-5.1,0-7.7,0.1
								c-0.3,0.1-0.3,3-2.3,4.4c-1.7,1.1-3.7,2.2-3.9,3.2c0.2,0.2,1.5,0.1,1.7,0.4c0.1,0.3,3,1.7,5.8,3.1c2.8,1.4,5.5,2.7,5.1,3.1
								c-0.6,0.6-2.3,1.4-3.6,1.5c-3.7,0.5-5.1,1.6-8.1,2.4c-0.8,0.2-1.8,0.2-2.6,0.4c-2.1,0.6-4.6,1.4-5,1.9c-0.6,0.5-1,1-1.1,1.4
								c-0.1,0.4,0,0.7,0.4,1C144.4,100.6,144.4,101.3,144.4,101.9z"/>
							<path class="st18" d="M211,123.2c0,0-1.2-1.1-1.7-2.6c-0.5-1.6-0.2-3.6,2.9-5.6c0,0,0.8-0.9,1.5-1.9c0.7-1,1.3-2.1,1.1-2.5
								l1.1-1.2c0,0,0.1-1.4-0.3-2.9c-0.4-1.5-1.4-3.1-3.6-3.4c0,0-0.4-0.6-0.8-1.3c-0.4-0.7-0.6-1.4-0.2-1.7c0,0,0.1-0.5-0.7-1.3
								c-0.7-0.8-2.3-1.8-5.6-2.7"/>
							<path class="st19" d="M144.4,84.9c0.5-0.9,3.7-5.5,5.9-7c3.1-2.2,6.3-4.2,9.9-6.2c0.2-0.2,0.3-0.4,0-0.6
								c-2.2-0.9-0.8-2.3-1.9-3.4c-0.4-0.5-1.4-0.9-1.2-1.4c0.8-2.8,3.9-5.3,8-7c1.8-0.7,4.3-1.1,6.5-1.6c0.6,0,1.3-0.2,1.9,0
								c0.5,0.1,0.2,0.4,0.4,0.6c-0.4,0.2-1.2,0.2-1.7,0.4c-1.2,0.4-1.4,1.1-2.6,1.5c-1.1,0.5-2.6,0.8-3.6,1.4
								c-0.5,0.4-0.9,0.8-1,1.3c-0.6,0.8-1,1.7-1.3,2.5c-0.3,0.9-0.4,1.7-0.2,2.5c1.9,0.6,0.6,1.7,0.6,2.4c-0.1,0.2-0.5,0.5-0.7,0.8
								c-0.2,0.7,0.7,1.4-0.6,2c-3.1,1.3-5.7,2.6-7.9,4.1c-1.8,1.2-6,6-6.5,7.2c-0.9,1.5,0.6,2.6,0.2,4c0,0.1-1.3,0.1-2.4-0.4
								C144.8,87.7,143.8,86.7,144.4,84.9z"/>
						</g>
					</g>
				</g>
			</g>
		</g>
	</g>
	<path class="st20" d="M140.1,85.9c-6.5,28.7,2.7,20.9,15.7,39.5s1.9,36.3,1.9,36.3c30.7-12.1,32.5-40.9,32.5-40.9
		c7.4-58.6-25.1-70.7-25.1-70.7c-2.8,22.3-9.3,22.3-9.3,22.3c-0.9-59.5-40.9-62.3-40.9-62.3c9.3,15.8,9.3,29.8,2.8,44.6
		c-3.4,7.8-10.1,17.8-15.7,25.6c-7.3,10.2-11.9,22.1-12.8,34.5c-0.8,9.9-0.4,21,3.4,28.2c8.4,15.8,32.5,18.6,32.5,18.6
		s-5.8-2.5-8-17.6c-2.7-18.3,3.6-36.9,16.1-50.6L140.1,85.9z"/>
</g>
</svg>
