<?xml version="1.0" encoding="utf-8"?>
<!-- Generator: Adobe Illustrator 22.1.0, SVG Export Plug-In . SVG Version: 6.00 Build 0)  -->
<svg version="1.1" id="Calque_1" xmlns="http://www.w3.org/2000/svg" xmlns:xlink="http://www.w3.org/1999/xlink" x="0px" y="0px"
	 viewBox="0 0 288 288" style="enable-background:new 0 0 288 288;" xml:space="preserve">
<style type="text/css">
	.st0{display:none;fill:#6B1E1E;}
	.st1{fill:#FFFFFF;}
	.st2{clip-path:url(#SVGID_2_);}
	.st3{clip-path:url(#SVGID_4_);}
	.st4{opacity:0.9;clip-path:url(#SVGID_6_);}
	.st5{opacity:0.9;clip-path:url(#SVGID_8_);}
	.st6{clip-path:url(#SVGID_10_);fill:#F2D3B9;}
	.st7{opacity:0.9;clip-path:url(#SVGID_10_);}
	.st8{clip-path:url(#SVGID_12_);fill:#E29B6C;}
	.st9{clip-path:url(#SVGID_10_);fill:#E7AC82;}
	.st10{clip-path:url(#SVGID_10_);fill:#ECC09E;}
	.st11{clip-path:url(#SVGID_10_);fill:#F7E3D2;}
	.st12{clip-path:url(#SVGID_10_);fill:none;stroke:#EBBC97;stroke-width:0;}
	.st13{clip-path:url(#SVGID_10_);fill:#FCF4EC;}
	.st14{opacity:0.9;clip-path:url(#SVGID_14_);}
	.st15{clip-path:url(#SVGID_16_);fill:#F2D3B9;}
	.st16{opacity:0.9;clip-path:url(#SVGID_16_);}
	.st17{clip-path:url(#SVGID_18_);fill:#E29B6C;}
	.st18{clip-path:url(#SVGID_16_);fill:#E7AC82;}
	.st19{clip-path:url(#SVGID_16_);fill:#ECC09E;}
	.st20{clip-path:url(#SVGID_16_);fill:#F7E3D2;}
	.st21{clip-path:url(#SVGID_16_);fill:none;stroke:#EBBC97;stroke-width:0;}
	.st22{clip-path:url(#SVGID_16_);fill:#FCF4EC;}
	.st23{opacity:0.9;clip-path:url(#SVGID_20_);}
	.st24{clip-path:url(#SVGID_22_);fill:#F2D3B9;}
	.st25{opacity:0.9;clip-path:url(#SVGID_22_);}
	.st26{clip-path:url(#SVGID_24_);fill:#E29B6C;}
	.st27{clip-path:url(#SVGID_22_);fill:#E7AC82;}
	.st28{clip-path:url(#SVGID_22_);fill:#ECC09E;}
	.st29{clip-path:url(#SVGID_22_);fill:#F7E3D2;}
	.st30{clip-path:url(#SVGID_22_);fill:none;stroke:#EBBC97;stroke-width:0;}
	.st31{clip-path:url(#SVGID_22_);fill:#FCF4EC;}
	.st32{opacity:0.9;clip-path:url(#SVGID_26_);}
	.st33{clip-path:url(#SVGID_28_);fill:#F6DFBF;}
	.st34{opacity:0.9;clip-path:url(#SVGID_28_);}
	.st35{clip-path:url(#SVGID_30_);fill:#EBB875;}
	.st36{clip-path:url(#SVGID_28_);fill:#EEC48B;}
	.st37{clip-path:url(#SVGID_28_);fill:#F3D2A6;}
	.st38{clip-path:url(#SVGID_28_);fill:#F9EBD6;}
	.st39{clip-path:url(#SVGID_28_);fill:none;stroke:#F2CF9F;stroke-width:0;}
	.st40{clip-path:url(#SVGID_28_);fill:#FDF6EE;}
	.st41{opacity:0.9;clip-path:url(#SVGID_32_);}
	.st42{clip-path:url(#SVGID_34_);fill:#F6DFBF;}
	.st43{opacity:0.9;clip-path:url(#SVGID_34_);}
	.st44{clip-path:url(#SVGID_36_);fill:#EBB875;}
	.st45{clip-path:url(#SVGID_34_);fill:#EEC48B;}
	.st46{clip-path:url(#SVGID_34_);fill:#F3D2A6;}
	.st47{clip-path:url(#SVGID_34_);fill:#F9EBD6;}
	.st48{clip-path:url(#SVGID_34_);fill:none;stroke:#F2CF9F;stroke-width:0;}
	.st49{clip-path:url(#SVGID_34_);fill:#FDF6EE;}
	.st50{opacity:0.9;clip-path:url(#SVGID_38_);}
	.st51{clip-path:url(#SVGID_40_);fill:#F6DFBF;}
	.st52{opacity:0.9;clip-path:url(#SVGID_40_);}
	.st53{clip-path:url(#SVGID_42_);fill:#EBB875;}
	.st54{clip-path:url(#SVGID_40_);fill:#EEC48B;}
	.st55{clip-path:url(#SVGID_40_);fill:#F3D2A6;}
	.st56{clip-path:url(#SVGID_40_);fill:#F9EBD6;}
	.st57{clip-path:url(#SVGID_40_);fill:none;stroke:#F2CF9F;stroke-width:0;}
	.st58{clip-path:url(#SVGID_40_);fill:#FDF6EE;}
	.st59{opacity:0.9;clip-path:url(#SVGID_44_);}
	.st60{clip-path:url(#SVGID_46_);fill:#F6DFBF;}
	.st61{opacity:0.9;clip-path:url(#SVGID_46_);}
	.st62{clip-path:url(#SVGID_48_);fill:#EBB875;}
	.st63{clip-path:url(#SVGID_46_);fill:#EEC48B;}
	.st64{clip-path:url(#SVGID_46_);fill:#F3D2A6;}
	.st65{clip-path:url(#SVGID_46_);fill:#F9EBD6;}
	.st66{clip-path:url(#SVGID_46_);fill:none;stroke:#F2CF9F;stroke-width:0;}
	.st67{clip-path:url(#SVGID_46_);fill:#FDF6EE;}
	.st68{opacity:0.9;clip-path:url(#SVGID_50_);}
	.st69{clip-path:url(#SVGID_52_);fill:#F6DFBF;}
	.st70{opacity:0.9;clip-path:url(#SVGID_52_);}
	.st71{clip-path:url(#SVGID_54_);fill:#EBB875;}
	.st72{clip-path:url(#SVGID_52_);fill:#EEC48B;}
	.st73{clip-path:url(#SVGID_52_);fill:#F3D2A6;}
	.st74{clip-path:url(#SVGID_52_);fill:#F9EBD6;}
	.st75{clip-path:url(#SVGID_52_);fill:none;stroke:#F2CF9F;stroke-width:0;}
	.st76{clip-path:url(#SVGID_52_);fill:#FDF6EE;}
	.st77{opacity:0.9;clip-path:url(#SVGID_56_);}
	.st78{clip-path:url(#SVGID_58_);fill:#FCF4E9;}
	.st79{clip-path:url(#SVGID_58_);fill:#FBF2E5;}
	.st80{clip-path:url(#SVGID_58_);fill:#FCF3E6;}
	.st81{clip-path:url(#SVGID_58_);fill:#F3D5AA;}
	.st82{clip-path:url(#SVGID_58_);fill:#F5DAB5;}
	.st83{clip-path:url(#SVGID_58_);fill:#F4D7AE;}
	.st84{clip-path:url(#SVGID_58_);fill:#F5DCB9;}
	.st85{clip-path:url(#SVGID_58_);fill:#F8E5CA;}
	.st86{clip-path:url(#SVGID_58_);fill:#F7E2C4;}
	.st87{clip-path:url(#SVGID_58_);fill:#F9E8D1;}
	.st88{clip-path:url(#SVGID_58_);fill:#FAEEDD;}
	.st89{opacity:0.9;clip-path:url(#SVGID_60_);}
	.st90{clip-path:url(#SVGID_62_);fill:#F2D3B9;}
	.st91{opacity:0.9;clip-path:url(#SVGID_62_);}
	.st92{clip-path:url(#SVGID_64_);fill:#E29B6C;}
	.st93{clip-path:url(#SVGID_62_);fill:#E7AC82;}
	.st94{clip-path:url(#SVGID_62_);fill:#ECC09E;}
	.st95{clip-path:url(#SVGID_62_);fill:#F7E3D2;}
	.st96{clip-path:url(#SVGID_62_);fill:none;stroke:#EBBC97;stroke-width:0;}
	.st97{clip-path:url(#SVGID_62_);fill:#FCF4EC;}
	.st98{clip-path:url(#SVGID_6_);fill:none;stroke:#272525;stroke-width:1.498;stroke-miterlimit:10;}
</style>
<rect x="-11" y="-13" class="st0" width="309" height="320"/>
<g>
	<path class="st1" d="M111.4,32.3l-4.8-27.2l2.7-0.5l4.4,24.8l15.7-2.8l0.4,2.4L111.4,32.3z"/>
	<path class="st1" d="M140.1,29.3c-1.5,0-2.8-0.2-4.1-0.8c-1.2-0.5-2.3-1.3-3.2-2.2c-0.9-1-1.6-2.1-2.2-3.3
		c-0.5-1.3-0.8-2.6-0.8-4.1c0-1.4,0.2-2.8,0.7-4c0.5-1.3,1.2-2.4,2-3.3c0.9-1,1.9-1.7,3.2-2.3c1.2-0.6,2.6-0.9,4-0.9
		c1.5,0,2.8,0.2,4.1,0.8c1.2,0.5,2.3,1.3,3.2,2.2c0.9,0.9,1.6,2,2.1,3.3s0.8,2.6,0.8,4c0,0.2,0,0.4,0,0.6c0,0.2,0,0.3,0,0.4
		l-17.3,0.3c0.1,1.1,0.4,2.1,0.8,3c0.4,0.9,1,1.7,1.7,2.4c0.7,0.7,1.5,1.2,2.3,1.5c0.9,0.4,1.8,0.5,2.8,0.5c0.6,0,1.3-0.1,1.9-0.3
		c0.6-0.2,1.2-0.4,1.8-0.8c0.5-0.3,1-0.7,1.5-1.2c0.4-0.5,0.8-1,1-1.5l2.3,0.6c-0.3,0.8-0.7,1.4-1.3,2.1c-0.6,0.6-1.2,1.2-2,1.6
		c-0.7,0.5-1.6,0.8-2.5,1.1C142,29.2,141.1,29.3,140.1,29.3z M147.4,17.6c-0.1-1.1-0.4-2.1-0.8-3c-0.4-0.9-1-1.6-1.7-2.3
		c-0.7-0.6-1.4-1.1-2.3-1.5s-1.8-0.5-2.8-0.5c-1,0-1.9,0.2-2.8,0.6c-0.9,0.4-1.6,0.9-2.3,1.6c-0.6,0.7-1.2,1.4-1.6,2.4
		c-0.4,0.9-0.6,1.9-0.7,3L147.4,17.6z"/>
	<path class="st1" d="M161.5,30.9c-1.5-0.2-2.7-0.7-3.9-1.5c-1.1-0.7-2-1.7-2.8-2.7c-0.7-1.1-1.2-2.3-1.5-3.6
		c-0.3-1.3-0.3-2.7-0.1-4.1c0.2-1.4,0.7-2.7,1.4-3.9c0.7-1.2,1.6-2.2,2.6-3c1-0.8,2.2-1.4,3.5-1.8c1.3-0.4,2.7-0.4,4.1-0.2
		c1.4,0.2,2.7,0.7,3.8,1.5s2.1,1.7,2.8,2.8c0.7,1.1,1.3,2.3,1.6,3.6c0.3,1.3,0.3,2.7,0.1,4.1c-0.2,1.4-0.7,2.7-1.4,3.8
		c-0.7,1.2-1.5,2.2-2.6,3c-1,0.8-2.2,1.4-3.5,1.8C164.4,31.1,163,31.1,161.5,30.9z M155.9,19.5c-0.2,1.1-0.1,2.2,0.1,3.2
		c0.2,1,0.6,1.9,1.2,2.8c0.5,0.8,1.2,1.5,2,2.1c0.8,0.5,1.7,0.9,2.7,1.1c1,0.2,2,0.1,2.9-0.2c0.9-0.3,1.8-0.7,2.6-1.4
		c0.8-0.6,1.4-1.4,2-2.3c0.5-0.9,0.9-1.9,1.1-3.1c0.2-1.1,0.1-2.2-0.1-3.2c-0.2-1-0.6-2-1.2-2.8c-0.6-0.8-1.2-1.5-2.1-2.1
		c-0.8-0.6-1.7-0.9-2.7-1.1c-1-0.2-2-0.1-2.9,0.2c-0.9,0.3-1.8,0.7-2.6,1.4c-0.8,0.6-1.4,1.4-2,2.3
		C156.4,17.3,156.1,18.3,155.9,19.5z"/>
</g>
<circle class="st1" cx="141.6" cy="157" r="128"/>
<g>
	<g>
		<defs>
			<rect id="SVGID_1_" x="-94.4" y="-76" width="431.4" height="431.4"/>
		</defs>
		<clipPath id="SVGID_2_">
			<use xlink:href="#SVGID_1_"  style="overflow:visible;"/>
		</clipPath>
		<g class="st2">
			<defs>
				<rect id="SVGID_3_" x="-94.4" y="-76" width="431.4" height="431.4"/>
			</defs>
			<clipPath id="SVGID_4_">
				<use xlink:href="#SVGID_3_"  style="overflow:visible;"/>
			</clipPath>
			<g class="st3">
				<defs>
					<rect id="SVGID_5_" x="-94.4" y="-76" width="431.4" height="431.4"/>
				</defs>
				<clipPath id="SVGID_6_">
					<use xlink:href="#SVGID_5_"  style="overflow:visible;"/>
				</clipPath>
				<g class="st4">
					<g>
						<defs>
							<rect id="SVGID_7_" x="51.8" y="74.7" width="57.9" height="100"/>
						</defs>
						<clipPath id="SVGID_8_">
							<use xlink:href="#SVGID_7_"  style="overflow:visible;"/>
						</clipPath>
						<g class="st5">
							<g>
								<defs>
									<rect id="SVGID_9_" x="51.8" y="74.7" width="57.9" height="100"/>
								</defs>
								<clipPath id="SVGID_10_">
									<use xlink:href="#SVGID_9_"  style="overflow:visible;"/>
								</clipPath>
								<path class="st6" d="M94.9,151.4c1.4-0.7,2-1.6,2.3-2.6c0.3-1,0.4-2.2,0.7-2.6c0.5-0.7,0.4-1.8-0.1-3.3
									c-0.5-1.5-1.3-3.2-2.2-4.8c-1.7-3.2-3.5-5.9-2.8-6c2-0.2,10.8-4.2,11.1-5.4c0.4-1.5,0.1-2.9-0.8-4.2
									c-0.5-0.9-0.9-0.6-1.5-0.7c-0.6-0.1-1.3-0.1-2.1-0.3c-1.4-0.3-2.4-0.4-2.1-0.5c0,0-0.2,0-0.6-0.1c-0.4-0.1-0.9-0.1-1.5-0.2
									c-1.2-0.2-2.6-0.5-3.5-1c-1.2-0.7-0.7-1.4-2.1-2.2c-0.9-0.7-1.7-2.1-2.1-3.6c-0.5-1.7-0.3-3.5-0.3-4.4
									c0-3.5,1.4-5.1,4.2-5.6c2.1,0,3.3-2.1,5.7-3.4c2.4-1.6,3.8-3.5,5.9-5.7c2.5-1.8,4.2-4.1,4.9-7.3c0-0.5-0.1-0.9-0.3-1.4
									c-0.3-0.4,0-1.2-0.1-1.6c0.4-1.1,1.1-2.2,1.5-3.2c0.4-1.1,0.6-2.2,0-3.3c-0.3-0.6-1.6-1.6-2.4-1.5c-2,0.2-3.6,0.4-5,0.8
									c-0.7,0.2-1.4,0.4-1.9,0.6c-0.5,0.3-1,0.5-1.5,0.7c-1.8,0.9-1.9,2.7-3,4.2c-0.7,1-2.4,1.3-4.4,0.8c-2-0.5-4.3-1.6-6.4-2.9
									c-1.6-1.1-3.6-2.5-5-3.8c-1.5-1.3-2.5-2.3-2.7-1.9c-0.2,0.6-0.4,1.8-1,3.1c-0.1,0.3-0.4,0.6-0.6,0.9
									c-0.4,0.4-0.9,0.8-1.4,1.3c-1.1,0.9-2.3,1.6-3.7,2.2c-4.1,1.5-7.7,3-11,6.1c-0.6,0.3-2.6,1.9-3.2,2.6
									c-1.5,2.8-3.6,5.8-4.1,8.8c-0.3,1.7-0.1,3.4,0.8,4.9c-0.1,2.7-0.5,4.6-0.6,6.5c-0.1,1.8,0,3.6,1.3,5.8
									c1.7,2.7,3.7,5.2,5.5,7.6c0.9,1.2,1.7,2.3,2.4,3.5c0.6,0.7,1.2,1.4,1.5,2.2c0.9,1.8,1.2,3.5,0.8,5.4c0,0.7-3.2,3.4-4.2,4.3
									c-1.9,1.6-0.2,3.3,1.5,4.4c3.2,1.7,5.4,3.3,7.4,5.9c0.4,1-0.4,2.1-0.2,3.4c1,2.5,3.5,4.3,5.5,6c0.3,0.2,0.5,0.5,0.8,0.7
									c1.5,2.2,2.8,3.5,3.8,4.4c1,0.8,1.8,1.2,2.3,1.4c1,0.4,1.2-0.1,1.2,0.2c0.5,0.7-0.9,2.2-0.5,3.4c0.8,1.4,2.6,1.8,4.1,1.7
									c4.3-0.1,8.8-0.4,9.8,3.2c0.2-0.5,0.5-0.9,0.4-1.1c-0.7-2.5-0.9-5.1-1.3-7.5c-0.3-2.4-0.8-4.4-2.1-5.9
									c-0.5-0.1-1.2-0.3-1.5-0.6c-0.5-0.7-1.1-1.2-1.6-1.8c-0.3-0.5,0.2-1.5,1-2.6c0.9-1.1,2.2-2.2,3.4-2.9
									C94,151.8,94.5,151.5,94.9,151.4"/>
								<g class="st7">
									<g>
										<defs>
											<rect id="SVGID_11_" x="79" y="76.4" width="30.7" height="44.5"/>
										</defs>
										<clipPath id="SVGID_12_">
											<use xlink:href="#SVGID_11_"  style="overflow:visible;"/>
										</clipPath>
										<path class="st8" d="M95.6,82.7c1.1-1.5,1.1-3.3,3-4.2c0.5-0.2,1-0.5,1.5-0.7c0.5-0.2,1.2-0.4,1.9-0.6
											c1.4-0.4,3-0.7,5-0.8c0.8-0.1,2.1,0.9,2.4,1.5c0.6,1.1,0.4,2.3,0,3.3c-0.4,1.1-1.1,2.1-1.5,3.2c0.1,0.5-0.2,1.2,0.1,1.6
											c0.3,0.4,0.3,0.9,0.3,1.4c-0.7,3.2-2.5,5.5-5,7.3c-2.1,2.2-3.6,4.2-5.9,5.7c-2.4,1.3-3.5,3.4-5.7,3.4
											c-2.8,0.6-4.1,2.1-4.1,5.6c0,1-0.1,2.7,0.3,4.4c0.4,1.5,1.2,2.9,2.1,3.7c1.4,0.8,0.9,1.5,2.1,2.2c0,0-0.4,0-1.1,0.2
											c-0.7,0.2-1.7,0.4-3,0.9c-3.1-2.3-6.2-5.8-7.8-10c-1.3-3.3-1.4-6.8-1.1-10.4c3.2-3.6,7.9-6.8,10.5-9.2
											c1.5-1.3,2.6-2.5,3.6-3.9C94.4,86,95.2,84.4,95.6,82.7"/>
									</g>
								</g>
								<path class="st9" d="M88.4,119.4c0,0,0.5,0.4,1.1,0.9c0.6,0.5,1.3,1.1,1.8,1.6c0.5,0.5,0.7,1,0.3,1.4
									c-0.2,0.2-0.5,0.4-1.1,0.7c-0.5,0.2-1.3,0.4-2.3,0.4c0,0-0.3-0.1-0.9-0.2c-0.6-0.1-1.4-0.1-2.3-0.3c-1.9-0.3-4.5-0.9-7.2-2
									c-2.6-1.1-5.3-2.6-7.2-4.4c-1.9-1.8-3.1-3.8-3-5.4c0,0,0.1-0.8,0.2-2c0.1-1.1,0.4-2.6,0.7-3.7c0.1-0.5,0.2-0.9,0.3-1.2
									c0,0,1.2-0.7,2.5-1.9c1.3-1.2,2.8-2.8,3.6-5.1c0,0,0.5-1.1,1.6-2.6c1-1.6,2.6-3.6,4.4-5.5c0.5-0.5,0.9-0.9,1.3-1.4
									c0.3-0.3,0.6-0.7,0.9-1c0.6-0.6,1.1-1.2,1.5-1.6c0.9-0.8,1.5-1.1,2.1-0.7c0,0,0.2-0.1,0.6-0.2c0.4-0.1,0.8-0.3,1.4-0.5
									c1.2-0.4,2.5-0.9,3.7-0.9c0,0,1.4,0.4,2.8,0.4c1.4,0,2.8-0.6,2.7-1.9c0,0,0.4-0.3,0.9-0.8c0.5-0.5,1.2-1.1,1.7-1.6
									c0.6-0.5,1.3-1,1.9-1c0.6,0,1.3,0.4,1.7,1.5c0,0,0.1,0.2,0.3,0.5c0.2,0.3,0.4,0.7,0.6,1.2c0.4,1,0.7,2.2,0.8,2.9
									c0,0-0.3,1.2-1.1,2.9c-0.8,1.7-2.3,3.8-4.3,5.5c-1.9,1.7-4.1,3.1-5.9,3.9c-1.7,0.8-3.1,1.2-3.5,1c0,0-0.6,0.2-1.6,0.6
									c-1,0.4-2.4,1-3.8,2c-1.5,1-3,2.3-4.2,4c-1.2,1.7-1.8,3.8-1.5,6C80.5,114.3,83.5,117.7,88.4,119.4"/>
								<path class="st10" d="M90.7,119.8c0,0,2.1,0.9,3.9,1.7c0.8,0.4,1.3,0.7,1.3,1c0,0.1,0,0.2-0.1,0.3c-0.1,0.1-0.2,0.2-0.4,0.5
									c-0.3,0.5-0.8,1-1.5,1.5c0,0-6.2,9.8-11.4,7.9c0,0-5.1-1.9-10.5-4.8c-0.7-0.4-1.4-0.8-2-1.2c-0.7-0.5-1.4-1.1-2.1-1.8
									c-1.4-1.3-2.7-2.8-3.7-4.4c-2.2-3.3-3.5-7.3-3.1-10.8c0,0,0.1-0.4-0.1-1.2c-0.2-0.8-0.7-2.1-1.6-4.1c0,0,0-0.6,0.1-1.6
									c0.2-1.3,0.5-3.3,1.6-4.9c1-1.7,2.6-3.1,4.6-3.3c0,0,2.7-1.3,5.7-2.5c3-1.3,6.3-2.5,7.6-4.2c0,0,0.3,0,0.8,0
									c0.5,0,1.1,0,1.6,0c0.7-0.1,1.1-0.1,1.5-0.3c0.4-0.2,0.6-0.5,0.7-1c0,0-0.1,0.2-0.3,0.6c-0.1,0.2-0.2,0.4-0.4,0.7
									c-0.2,0.3-0.3,0.5-0.6,1c-1.2,1.6-2.9,3.8-4.5,6c-1.5,2.2-3,4.4-4.2,6.2c-1.2,1.8-2.2,3.1-3.4,3.3c0,0-0.9,0.6-1.6,2
									c-0.7,1.5-1.3,3.9-0.2,6.9c1.1,2.9,3.9,6.4,9.1,8.7c0,0,0.7,0.1,1.8,0.2c1.1,0.1,2.5,0.1,4,0
									C86.3,121.8,89.5,121.1,90.7,119.8"/>
								<path class="st11" d="M101.9,121.6c0.7,0,1.5,0,2.3,0c0.4,0,0.8,0,1.1-0.1c0.1,0,0.2,0,0.3,0l0.3,0.2
									c0.2,0.1,0.4,0.2,0.5,0.3c0.6,0.5,0.5,1.4,0.9,2c0.3,0.9-0.3,1.9-0.7,2.6c-2.9,3.3-2.4,7.9-6.3,10.9
									c-0.4,0.5-0.6,0.8-0.7,1.3c0.2,0.1,0.6,0.5,0.7,0.6c0.3,1.3,0.2,2.7,0.7,3.7c1,1.7-0.5,3.3-2.2,4.8
									c-0.8,0.9-1.3,1.5-1.9,2.4c-0.1,0.2-0.4,0.4-0.6,0.6c-1.5,1.3-4.8,3-4.8,4.5c-0.2,1.4,0.8,2.2,1.8,2.9
									c1,0.7,2.2,1.3,2.6,2.7c0.3,1.8,0.9,3.3,0.9,5.5c-0.2,1.9,0.2,3.4,0.2,5.3c0,0.4-0.6,2.2-0.9,2.5c-0.5,0.3-0.8-0.5-1.3-0.6
									c-1.4-0.3-0.3-2.5-0.2-3.7c0-1.4-1.3-2-2-3.1c-0.1-0.6,0-1.2,0.2-2c0.4-1.3-0.8-1.5-1.7-2c-1.3-0.5-0.7-2.5-1.5-3.4
									c-0.5-0.6-1.3-0.9-2.1-1.3c-0.8-0.4-1.4-0.8-1.2-1.7c-0.2,0.7-0.8-0.2-1.1-1.3c-0.4-1.3-0.4-2.8,0-2.2
									c-0.2-0.1,0.6-0.6,1.1-0.9c0.4-0.1,1-0.3,1.2-0.3c1.6,0.4,3.9-0.4,5.8-0.8c0.1-0.1,0.1-0.6,0.2-1.4c0.1-0.8,0.4-1.8,1.2-2.4
									c1.2-1,2.7-2,2.8-3.2c-0.2-0.3-1.2-0.3-1.3-0.6c-0.1-0.7-9.1-8.8-8.7-9.9c0.4-0.7,1.7-1.7,2.6-1.6c2.8-0.2,3.8-1.5,6-2.2
									c0.6-0.2,1.4,0,2-0.2c1.6-0.6,3.4-1.5,3.7-2.3c0.9-1.4,1-2.9,0.2-4C101.8,121.6,101.9,122,101.9,121.6"/>
								<path class="st12" d="M76.6,76.1c0,0,0,0.3-0.1,0.7c-0.1,0.4-0.3,1-0.8,1.7l-0.2,0.2c-0.1,0.1-0.1,0.1-0.3,0.3
									c-0.3,0.3-0.6,0.5-0.9,0.8c-0.7,0.5-1.5,1.1-2.4,1.6c-1.7,1-3.8,1.9-6.2,2.6c0,0-1.8,0.9-3.6,2c-1.8,1.2-3.6,2.7-4,3.5
									c-0.7,0.5-1.4,1-2.1,1.6c0,0-0.8,1.1-1.7,2.8c-0.9,1.6-1.8,3.9-2.2,6c-0.3,2-0.2,3.7,0.6,4.7c0,0-0.1,1.4-0.2,2.9
									c-0.1,1.5-0.1,3.1-0.5,3.4c0,0-0.3,1.1,0.1,2.9c0.4,1.8,1.4,4.4,3.9,6.9"/>
								<path class="st13" d="M103,144.5c-0.2,0.4-0.9,1.6-1.7,2.6c-0.8,1.1-1.8,1.9-2.5,2.4c-0.4,0.3-0.9,0.7-1.3,1
									c-1.6,1.4-3.1,3.1-4.5,5.2c-0.1,0.2,0,0.4,0.2,0.4c1.8-0.1,1.5,1.5,2.8,1.8c0.5,0.1,1.3,0,1.5,0.4c1,2.2,1.2,5.5,1,9.4
									c-0.1,1.7-0.7,3.6-1,5.5c-0.2,0.5-0.2,1-0.6,1.4c-0.2,0.3-0.4-0.2-0.7-0.3c0-0.4,0.2-1,0.1-1.6c0-1.1-0.6-1.8-0.4-3
									c0-1.1,0.4-2.3,0.3-3.3c-0.1-0.7-0.3-1.2-0.5-1.6c-0.7-2-1.6-3.6-2.7-4.9c-1.6,0.3-1.3-1.2-1.7-1.9
									c-0.1-0.2,0.1-0.6,0.1-0.9c-0.2-0.7-1.1-1-0.3-1.9c1.3-1.3,2.5-2.5,3.6-3.5c0.4-0.4,0.8-0.7,1.2-1.1
									c0.6-0.6,1.6-1.5,2.5-2.8c0.9-1.2,1.8-2.5,2-3.1c0.7-1.5-0.6-3.1-0.3-4.8c0-0.1,1,0.1,1.8,0.8
									C102.6,141.5,103.4,142.8,103,144.5"/>
							</g>
						</g>
					</g>
				</g>
				<g class="st4">
					<g>
						<defs>
							<rect id="SVGID_13_" x="51" y="144.4" width="37.3" height="37"/>
						</defs>
						<clipPath id="SVGID_14_">
							<use xlink:href="#SVGID_13_"  style="overflow:visible;"/>
						</clipPath>
						<g class="st14">
							<g>
								<defs>
									<rect id="SVGID_15_" x="51" y="144.4" width="37.3" height="37"/>
								</defs>
								<clipPath id="SVGID_16_">
									<use xlink:href="#SVGID_15_"  style="overflow:visible;"/>
								</clipPath>
								<path class="st15" d="M83.2,170.1c0.7-1.4-0.5-2.5-0.5-3c0-0.8-1.2-1.1-2.3-1.4c-1.1-0.3-2.3-0.7-2-0.9
									c0.8-0.6,3.9-4.2,3.9-4.6c-0.1-1.1-1.3-1.4-3.1-1.3c-0.8,0-1.2,0.2-1.2,0c0-0.1-1.6,0.8-2.8,0.8c-0.7,0-0.8-0.6-1.6-0.5
									c-1.2,0-3.3-1.5-4.1-1.9c-1.7-0.8-2.2-1.5-2.1-2.8c0.2-1-0.5-1.5-0.5-2.4c-0.1-0.9-0.5-1.5-0.5-2.4c0.3-0.9,0.4-1.6,0.3-2.4
									c-0.1-0.1-0.1-0.2-0.3-0.3c-0.2-0.1-0.1-0.3-0.2-0.4c0.3-0.7,1.3-1.2,1.2-1.8c0-0.2-0.4-0.5-0.8-0.5c-2.1-0.1-3.7,0.3-5.2,1
									c-1.3,0.7-1.4,1.7-1.6,2.8c-0.3,1.5-2.6,2.9-4.8,4.3c-1.7,1-4.5,2.2-3.9,3.8c0.8,1.8,2.8,2.7,2.7,4.7
									c-0.2,1.4-0.3,2.6-0.1,3.8c0,0.2,0,1,0.1,1.2c0.9,1.1,1.1,2.8,3.1,2.6c1.2,0.9,1,1.8,2.6,2c2.2,0.2,4.4,0.1,5.7,1.1
									c0.8,0.5,1.3,1.2,1.6,2.1c0.1,0.3-0.4,2.3-0.6,3c-0.3,1.2,1,1.6,2,1.5c1.8-0.2,3.3-0.3,4.7,0c0.4,0.2,0.4,0.8,0.8,1.1
									c1.1,0.5,2.5,0,3.6,0c1.8,0.6,2.7,0.5,3.2,0.4c0.5-0.1,0.5-0.3,0.5-0.3c0.3,0.1,0,1.1,0.3,1.5c0.5,0.4,1.3,0.1,1.9-0.3
									c1.7-1,3.4-2.2,4.4-0.9c0-0.2,0-0.5,0-0.6c-1.4-1.8-1.8-4.4-3.4-5c-0.2,0.1-0.5,0.2-0.7,0.1c-0.3-0.2-0.7-0.2-1-0.3
									C82,173.9,82.5,171.2,83.2,170.1"/>
								<g class="st16">
									<g>
										<defs>
											<rect id="SVGID_17_" x="59.9" y="144.4" width="15.4" height="17.3"/>
										</defs>
										<clipPath id="SVGID_18_">
											<use xlink:href="#SVGID_17_"  style="overflow:visible;"/>
										</clipPath>
										<path class="st17" d="M59.9,148.2c0.3-1.1,0.3-2.2,1.6-2.8c1.4-0.7,3.1-1.1,5.2-1c0.4,0,0.8,0.3,0.8,0.5
											c0.1,0.6-0.9,1.1-1.2,1.8c0.1,0.1,0,0.3,0.2,0.4c0.2,0.1,0.2,0.2,0.3,0.3c0.1,0.8-0.1,1.5-0.3,2.4c0,0.9,0.4,1.4,0.5,2.3
											c0,0.9,0.7,1.4,0.5,2.4c-0.1,1.3,0.4,2,2.1,2.8c0.9,0.4,2.9,1.9,4.1,1.9c0.8-0.1,0.9,0.5,1.6,0.5c0,0-0.5,0.7-1.2,1.9
											c-3.5-0.6-7-1.3-10.5-2.6C61.9,155.9,60.4,152.3,59.9,148.2"/>
									</g>
								</g>
								<path class="st18" d="M73.8,160.8c0,0,1.2,0.2,2,0.6c0.8,0.4,1.1,1-0.6,2.1c0,0-2.4,0.9-5,1.5c-2.6,0.7-5.4,1-6,0.2
									c0,0-0.9-1.2-1.5-1.8c0,0,0.2-0.5,0.1-1.1c0-0.6-0.3-1.4-1.1-1.9c0,0-1.3-1.2-2.4-2.7c-1.1-1.5-2-3.4-1.4-3.8
									c0,0,0-0.8,0.1-1.7c0.1-0.9,0.4-1.9,0.9-2.4c0,0,0.7-0.4,1.3-0.9c0.6-0.5,1.2-1.1,1-1.7c0,0,0.7-0.9,1.5-1.5
									c0.8-0.6,1.7-0.8,1.9-0.1c0,0,0.1,0.2,0.3,0.5c0.2,0.3,0.4,0.6,0.5,0.8c0,0-0.3,1.5-0.3,3.3c-0.1,1.7,0.1,3.6-0.3,4
									c0,0,0,0.5,0.1,1.3c0.1,0.8,0.4,1.8,1,2.8C67.1,160.4,69.6,162,73.8,160.8"/>
								<path class="st19" d="M74.8,160.3c0,0,4.9-0.8,2.9,1.9c0,0-0.3,1.2-0.9,2.5c-0.6,1.3-1.4,2.7-2.7,3.1c0,0-2.5,0.7-5.4,0.8
									c-2.9,0.1-6.2-0.2-7.6-1.8c0,0-0.2-0.4-2-0.3c0,0-0.6-0.3-1.1-0.9c-0.5-0.6-0.8-1.4-0.2-2.3c0,0,0.2-1,0.4-2.1
									c0.1-1.1,0.2-2.3-0.3-2.9c0,0,0.3-0.4,0.4-0.9c0.1-0.5,0.2-1-0.3-1.2c0,0,1.5,1.5,2.8,2.9c1.3,1.4,2.6,2.8,2,3.7
									c0,0-0.1,1,0.8,1.8c0.9,0.8,2.7,1.4,6.5,0.5c0,0,1.2-0.6,2.4-1.5C73.7,162.7,74.9,161.5,74.8,160.3"/>
								<path class="st20" d="M80.3,158.6c0.8-0.1,1.7-0.3,2.4-0.4c0.3,0,0.4,0.3,0.6,0.4c0.3,0.2,0.1,0.6,0,0.9
									c-0.8,1.7-0.1,2.6-1.2,4.6c-0.1,0.2-0.1,0.4-0.1,0.5c0.1,0,0.3-0.1,0.4-0.1c0.3,0.2,0.5,0.6,0.8,0.6
									c0.7,0.1,0.5,1.1,0.3,2.2c-0.1,0.6,0.1,1.1,0.1,1.6c0.1,0.9-1.1,3-0.8,3.7c0.6,1.3,2.2,0.3,2.9,1.3c0.4,0.7,0.8,1.2,1.2,2.1
									c0.2,0.8,0.5,1.4,0.9,2.2c0.1,0.2,0.1,1.1,0.1,1.3c-0.1,0.3-0.4,0-0.6,0.1c-0.6,0.2-0.5-1-0.7-1.6c-0.2-0.6-0.8-0.6-1.2-0.9
									c-0.1-0.2-0.2-0.5-0.2-0.9c0-0.6-0.5-0.4-1-0.4c-0.6,0.1-0.7-0.9-1.2-1.1c-0.6-0.3-1.7,0.5-1.9-0.3c0.1,0.7-1.9-1.1-1.3-1
									c-0.1,0,0-0.4,0.2-0.7c0.1-0.2,0.3-0.4,0.4-0.5c0.7-0.4,1.4-1.4,2-2.1c0-0.1-0.8-0.9-0.6-1.9c0.2-0.8,0.5-1.5,0.3-1.9
									c-0.1,0-0.5,0.3-0.6,0.3c-0.1-0.1-1.3,0.1-2.6,0.2c-1.2,0-2.5-0.1-2.6-0.4c0.1-0.3,0.4-1,0.8-1.3c1.1-0.8,1.3-1.5,2.2-2.3
									c0.2-0.2,0.6-0.4,0.8-0.6c0.6-0.6,1.2-1.4,1.2-1.6c0.2-0.6,0-1.1-0.4-1.3L80.3,158.6z"/>
								<path class="st21" d="M51.9,157.6c0,0,0.7,0.5,1.2,1.4c0.5,0.9,0.9,2.1,0.4,3.7c0,0,0,0.6,0,1.3c0,0.6,0.1,1.3,0.3,1.5
									l-0.1,0.8c0,0,0.3,0.8,0.9,1.4c0.5,0.7,1.3,1.3,2.1,1.1c0,0,1.3,0.9,1.1,1.2c0,0,0.5,1.1,3.1,0.8"/>
								<path class="st22" d="M84.2,164.9c0,0.3,0.1,2.3,0,3.2c-0.2,1.4-0.4,2.8-0.5,4.4c0,0.1,0.1,0.2,0.2,0.1
									c0.8-0.5,1,0.3,1.5,0.1c0.2,0,0.5-0.3,0.7-0.2c0.8,0.7,1.3,2.1,1.7,3.8c0.2,0.8,0.3,1.7,0.5,2.6c0,0.2,0.1,0.5,0,0.7
									c0,0.2-0.2,0-0.3,0.1c-0.1-0.2-0.1-0.5-0.2-0.7c-0.2-0.5-0.5-0.6-0.6-1.2c-0.2-0.5-0.2-1.1-0.4-1.5
									c-0.1-0.3-0.3-0.4-0.4-0.6c-0.6-0.7-1.2-1.2-1.9-1.5c-0.6,0.5-0.8-0.2-1.1-0.4c-0.1-0.1-0.1-0.3-0.1-0.4
									c-0.2-0.2-0.7-0.2-0.6-0.7c0.3-1.2,0.5-2.3,0.6-3.3c0.1-0.8,0-3.2,0-3.6c-0.1-0.6-0.7-0.6-0.9-1.1c0,0,0.4-0.3,0.8-0.4
									C83.6,164.3,84,164.3,84.2,164.9"/>
							</g>
						</g>
					</g>
				</g>
				<g class="st4">
					<g>
						<defs>
							<rect id="SVGID_19_" x="93.7" y="76" width="78.5" height="125.9"/>
						</defs>
						<clipPath id="SVGID_20_">
							<use xlink:href="#SVGID_19_"  style="overflow:visible;"/>
						</clipPath>
						<g class="st23">
							<g>
								<defs>
									<rect id="SVGID_21_" x="93.7" y="76" width="78.5" height="125.9"/>
								</defs>
								<clipPath id="SVGID_22_">
									<use xlink:href="#SVGID_21_"  style="overflow:visible;"/>
								</clipPath>
								<path class="st24" d="M116,188c0.5,1.5,1.7,2.1,3.8,2.5c0.5,0.1,1.1,0.2,1.7,0.2c0.5,0.1,1.5,0,2.1,0c1.4,0,2.5,0,2.9,0.1
									c1.9,0.3,4.9-0.4,8-1.9c3.1-1.5,6.3-4,8.7-6.7c5.1-5.4,7.3-11.3,7.9-10.8c0.7,0.7,3.8,1.3,7,1.3c3.2,0,6.4-0.8,7.3-1.9
									c4.3-5.6,4.6-11.9,2.8-17.1c-0.8-2.5-1.7-2.9-1.2-3.8c0.1-0.4-3.2-2.2-4.6-5c-0.9-1.9-0.1-4-1.2-5.6c-0.8-1.6-1.4-4.6-2-7.5
									c-0.3-1.4-0.5-2.9-0.8-4.3c-0.2-1.6-0.5-3-0.7-3.9c-1-3.4-1.8-5.8-2.5-8c-0.6-2.2-1.1-4.2-1.7-6.8c-0.3-2-1.3-3.6-2.5-5
									c-1.2-1.4-2.5-2.7-3.8-4.3c-1.5-1.7-2.6-2.6-3.7-3.6c-1.1-1-2.2-1.9-3.2-3.1c-1.4-2.7-2.6-4.8-4.3-7.3
									c-0.3-0.3-0.6-0.5-1.1-0.6c-0.5-0.1-0.7-0.8-1-1.1c-0.7-2.5,0.3-5.2-0.8-7.1c-0.3-0.5-1.4-1.2-2.1-0.8
									c-3.7,2.2-6,5.2-7.4,8.8c-1.3,3.4,0.3,6.5,1.8,9.8c1.1,2.3,1.2,4.8,1,7.6c-0.2,2.8-0.8,5.7-1.5,8.4c-0.7,2-1.8,4.3-2.3,6.5
									c-0.6,2.1-0.5,4.1,0.6,5c0.2,0.2,0.1,0,0.2,0l0.2-0.1l0.5-0.2c0.3-0.1,0.7-0.2,1.1-0.3c0.7-0.1,1.2,0.2,0.5,0.9
									c-1.2,1-2.6,1.5-3.2,1.7c-0.3,0.1-0.9,0.1-1,0.1c0.1,0,0.1,0,0.1,0l0,0c0,0,0,0,0,0.2c-0.1,0.6-0.2,1.5-0.2,2.3
									c0,1.8,0.3,3.4,2,4.7c0.8,3.6-0.9,4.9,1.1,7.6c1.4,1.8,2.9,3.5,3.9,5.3c1,1.8,1.7,3.6,1.5,5.2c-0.1,1.8-0.8,3.1-2.1,4
									c-0.2,0.2-1.2,0.1-2.3-0.3c-1.1-0.3-2.1-0.9-2.6-1.2c-1.8-1.1-1.2,0.3-0.9,1.9c0.9,3,0.4,5.6-1.1,7.4
									c-0.6,0.4-1.4-0.5-2.1-0.4c-0.4,0.2-1.3,0.5-1.9,0.9c-0.7,0.4-1.4,0.9-2.2,1.4c-1.5,1-3.1,2.2-4.9,3.3
									c-1.8,0.8-3.4,1.5-4.8,2.5c-1.4,0.9-2.3,1.9-3.1,2.7c-1.5,1.7-2.1,2.8-2.3,3.6c-0.5,1.5,0,1.5-0.3,1.7
									c-0.5,0.6-1.1,0.7-2,0.8c-0.8,0.1-1.7,0.4-2.4,1.1c-0.9,1.1-1.2,2.4-1.3,3.7c0,1.3,0.2,2.4,0.6,3.4c0.9,2.7,2.3,5.3,3.5,7.6
									c1.2,2.3,2,4.3,2.3,6.9c0.2-0.5,0.8-0.8,0.7-1.2c-0.2-3.6,1.4-6.4,3-8.5c1.7-2.1,3.3-3.6,4.3-5.4c0-0.5-0.1-1.3,0.3-1.7
									c0.6-0.7,1.1-1.4,1.7-2c0.6-0.4,2,0.3,3.3,1.6C114.6,185,115.6,186.8,116,188"/>
								<g class="st25">
									<g>
										<defs>
											<rect id="SVGID_23_" x="123.3" y="76" width="39.2" height="72.2"/>
										</defs>
										<clipPath id="SVGID_24_">
											<use xlink:href="#SVGID_23_"  style="overflow:visible;"/>
										</clipPath>
										<path class="st26" d="M125.5,94.7c-1.5-3.3-3.1-6.4-1.8-9.7c1.4-3.6,3.7-6.6,7.4-8.8c0.7-0.4,1.8,0.2,2.1,0.8
											c1.1,1.9,0.1,4.6,0.8,7.1c0.3,0.3,0.6,1,1,1.1c0.4,0.1,0.8,0.3,1.1,0.6c1.7,2.4,2.9,4.6,4.3,7.2c1,1.2,2.1,2.2,3.2,3.1
											c1.1,1,2.2,1.9,3.7,3.7c1.3,1.6,2.6,2.9,3.8,4.3c1.2,1.4,2.1,3,2.5,5c0.6,2.6,1.1,4.6,1.7,6.8c0.6,2.2,1.5,4.5,2.4,8
											c0.3,0.9,0.5,2.3,0.7,3.9c0.2,1.3,0.5,2.8,0.8,4.3c0.6,2.9,1.2,5.9,2,7.5c1.2,1.6,0.4,3.7,1.2,5.6c0,0-1.7,1-4.8,3.1
											c-1.4-5.4-3.3-10.3-5.4-14.9c-1-2.3-2-4.7-3.1-6.9c-1.1-2.2-2.3-4.1-3.7-5.8c-0.2-2.5-0.9-4.9-2.1-7c-1.3-2.1-3-4-4.8-5.6
											l-1.4-1.3l-1.7-1.5c-1.1-1-2.3-2-3.5-3.1C129.8,99.9,127.5,97.4,125.5,94.7"/>
									</g>
								</g>
								<path class="st27" d="M158.9,144.7c0,0,1.2,3.6,1.2,7.1c0,3.5-1.4,6.7-4.9,4.7c0,0-3.7-4.4-7.8-8.6
									c-4.1-4.4-8.5-8.6-8.3-11.7c0,0,0.1-1.1,0.1-2.6c0-1.5,0.1-3.2,0-4.5c0,0,0.9-1,1.7-2.6c0.3-0.7,0.6-1.3,0.7-2.1
									c0.1-0.8-0.1-1.7-0.7-2.4c0,0-0.3-0.8-0.9-2c-0.6-1.1-1.6-2.5-2.9-3.7c-1.2-1.2-2.6-2.1-3.4-2.9c-0.2-0.2-0.4-0.4-0.6-0.6
									c-0.2-0.2-0.2-0.3-0.4-0.6c-0.4-0.5-0.5-1-0.4-1.4c0,0-1.2-1.6-2.7-3.8c-1.5-2.3-3.1-5.3-3-6.9c0,0,0.5-1.6,0.7-3.6
									c0.2-2,0.2-4.1-1.2-5.7c0,0-0.1-0.8-0.1-2c0-1.2,0.1-2.7,0.3-3.9c0.5-2.6,1.7-4.4,3.2-2.1c0,0,0.6,0.6,1.4,1.2
									c0.8,0.7,1.7,1.5,2.2,2c0,0,2.2,5,5.9,9.6c0.9,1.2,1.9,2.4,2.9,3.6c0.5,0.6,0.9,1.2,1.4,1.7c0.4,0.6,0.9,1.2,1.3,1.7
									c1.6,2.2,2.4,4,2.2,4.5l0.5,1.1c0.3,0.7,0.8,1.7,1.3,3c0.5,1.3,0.9,2.8,1.2,4.5c0.3,1.7,0.5,3.6,0.6,5.5
									c0.3,3.8,0.4,8.2,1.6,12.2C153.1,137.4,155.3,141.3,158.9,144.7"/>
								<path class="st28" d="M161,145.5c0,0,1.8,2.5,2.5,5.8c0.7,3.3,0.1,7.4-3.9,8.9c0,0-0.8,0.8-2.1,1.8
									c-1.3,1.1-3.1,2.3-5.1,3.2c-3.9,1.8-7.9,1.9-8.7-1.2c0,0-0.4-1.5-1.2-3.8c-0.8-2.3-2-5.2-3.5-8.1c-2.9-6-6.9-11.9-6.7-17.7
									c0,0,0.2-1.2-2.5-4c0,0-0.2-0.4-0.3-1.1c-0.2-0.7-0.3-1.7-0.4-2.7c0-0.5,0-1,0-1.4c0-0.3,0.1-0.3,0.1-0.4
									c0-0.1,0.1-0.1,0.2-0.2c0.3-0.3,0.9-0.6,1.9-0.9c0,0,1.4-0.8,2.5-2.2c1.1-1.4,1.6-3.4,0.6-3.9c0,0,0.6-0.7,0.8-1.5
									c0.2-0.8,0.1-1.7-0.9-1.7c0,0,0.8,0.3,2,0.9c1.2,0.7,2.7,1.8,3.7,3.5c1,1.6,1.5,3.6,1.5,5.2c0,0.8-0.1,1.5-0.3,2.1
									c-0.2,0.7-0.6,1.3-1.1,1.5c0,0-0.3,0.5-0.7,1.5c-0.3,1-0.6,2.4-0.5,4.2c0.1,1.7,0.6,3.8,1.9,6.1c1.2,2.3,3.2,4.9,6.1,8.1
									c0,0,2.4,1.4,5.4,1.9C155.3,150.1,158.9,149.6,161,145.5"/>
								<path class="st29" d="M169.9,155.8c0.8,2.2,2,4.7,2.3,7.3c0,1.4-0.9,3.1-1.2,4.6c-0.7,2.1-2.4,3.8-3.6,4.9
									c-3.1,2.2-6.1,5.3-10,8.4c-3.7,2.9-7.8,5.1-11.4,5.1c-1.1,0.2-1.8,0.4-2.7,0.9c-0.1,0.3-0.9,1.1-1,1.4
									c-2.6,1.7-5.5,2.8-8.1,4.1c-2.1,1.1-4.5,1.6-6.9,1.4c-1.2-0.1-2.4-0.3-3.5-0.6c-0.6-0.1-1.2-0.3-1.6-0.5
									c-0.4-0.2-0.8-0.4-1.1-0.6c-1.6-0.8-3.1-1.3-4.1-2c-0.9-0.6-1.5-2-2.2-3.3c-0.7-1.3-1.7-2.5-2.3-2.6c-1.3-0.3-2,0.8-2.3,1.9
									c-0.4,1.2-0.4,2.3-1.4,3.2c-1.4,1.1-2.1,2.4-3.6,4.1c-1.4,1.3-2,3.1-2.4,5.1c-0.1,0.5-1.1,2.2-1.5,2.4
									c-0.3,0-0.5-0.2-0.7-0.6c-0.2-0.4-0.4-0.8-0.6-1.1c-0.8-0.8-0.5-1.6-0.1-2.4c0.4-0.7,1.2-1.4,1.6-2c0.8-1.5,0.2-3.1,0.8-4.7
									c0.4-0.6,1-1,1.8-1.4c1.3-0.5,0.9-1.7,1.1-3c0-0.8,0.6-1.4,1.3-1.8c0.7-0.4,1.4-0.7,1.9-1.2c0.3-0.3,0.6-0.7,0.8-1.2
									c0.2-0.5,0.4-0.9,0.7-1.3c0.5-0.8,1.2-1.6,2.2-1.3c-0.9-0.2,0.6-0.9,2.4-1.1c1.7-0.2,3.6-0.1,2.7,0.3
									c0.1-0.2,0.8,0.6,0.9,1.2c0,0.4,0.2,1,0,1.2c-1.1,1.5-0.6,3.9-0.7,5.9c0.1,0.1,3.8,0.2,7.6,1.3c2.3,1.1,4.6,2.2,7.4,1.6
									c0.7-0.3,0.7-1.4,1.3-1.8c0.4-0.1,1.6-1.2,3.2-2.7c1.5-1.6,3.2-3.7,4.6-6c2.9-4.5,4.3-9.3,5.1-9.8c1.1-0.5,3-1,3.6-0.2
									c2.1,1.9,4.3,0.8,6.7,1.2c0.6,0.2,0.9,1.1,1.5,1.3c1.8,0.3,4.2,0,5.3-1.3c1.1-1,2.1-2.2,2.9-3.6c0.8-1.3,1.2-2.6,1.4-3.9
									C168.4,160.4,169.2,158.1,169.9,155.8"/>
								<path class="st30" d="M124.2,121.9c0,0,0.9-0.5,1.5-0.4c0.6,0.1,0.8,1-1.4,2c0,0-0.5,0.3-1.1,0.5c-0.5,0.2-1,0.3-0.9,0.3
									c-0.3,0-0.6,0-0.9,0c0,0,0,0,0,0h0c0,0,0,0,0,0.3c0,0.4,0,0.8,0,1.3c0,1,0.1,2.3,0.4,3.3c0.3,1,0.8,1.8,1.5,2.2
									c0,0,0.2,0.9,0.3,1.9c0.1,1,0.1,2-0.2,2.2c0,0-0.2,0.6,0.1,1.7c0.3,1.1,1.2,2.6,3.1,4.5"/>
								<path class="st31" d="M130.3,195.5c-0.6,0-1.8,0-3.4-0.1c-0.8-0.1-1.6-0.1-2.4-0.2c-0.4-0.1-0.9-0.1-1.3-0.2
									c-0.5-0.1-0.9-0.1-1.1-0.2c-2.5-0.8-4-1.8-4.6-2.5c-1-1.1-1.8-2.3-2.6-3.4c-0.2-0.3-0.4-0.5-0.6-0.8
									c-0.2-0.3-0.4-0.5-0.6-0.8c-0.4-0.6-1-1-1.6-1.5c-0.2-0.1-0.4-0.1-0.3,0.2c0.1,0.4,0.1,0.7,0.1,0.9c0,0.2-0.1,0.4-0.3,0.5
									c-0.1,0.1-0.2,0.3-0.3,0.5c-0.1,0.2-0.1,0.4,0,0.6c0,0.2,0.2,0.5,0.3,0.7c0.1,0.2,0.2,0.4,0.1,0.5c-1.2,1.3-3.7,2.6-6,5.7
									c-0.5,0.6-1.1,1.4-1.6,2.2c-0.3,0.4-0.5,0.8-0.8,1.3c-0.2,0.4-0.4,0.9-0.5,1.4c-0.2,0.4-0.4,1.1-0.8,1.4
									c-0.3,0.3-0.5-0.5-0.8-0.7c0-0.5,0.3-1.1,0.4-1.8c0.3-1.3,0-2.5,0.7-3.5c0.3-0.5,0.7-1,1.1-1.4c0.4-0.4,0.8-0.9,1.2-1.3
									c0.4-0.6,0.6-1.1,0.8-1.6c1.1-2,2.1-3.5,3-5.1c-0.4-0.7-0.2-1.2,0.2-1.5c0.4-0.3,0.9-0.5,1.2-0.7c0.2-0.1,0.6,0,0.9,0
									c0.3-0.1,0.5-0.4,0.8-0.5c0.3-0.1,0.6-0.2,1,0.2c1.8,1.8,2.9,3.7,4.5,5.3c0.6,0.6,2.2,1.7,4.7,2.6c0.5,0.2,1.6,0.4,2.4,0.5
									c0.9,0.1,1.7,0.3,2.5,0.4c1.6,0.2,2.9,0.2,3.6,0.1c4.1-0.2,7.4-2.6,10.9-4.1c0.1-0.1,0,1.1-1.4,2.7
									C138.2,192.8,135.4,194.9,130.3,195.5"/>
							</g>
						</g>
					</g>
				</g>
				<g class="st4">
					<g>
						<defs>
							<rect id="SVGID_25_" x="97.1" y="155.1" width="26.3" height="25.4"/>
						</defs>
						<clipPath id="SVGID_26_">
							<use xlink:href="#SVGID_25_"  style="overflow:visible;"/>
						</clipPath>
						<g class="st32">
							<g>
								<defs>
									<rect id="SVGID_27_" x="97.1" y="155.1" width="26.3" height="25.4"/>
								</defs>
								<clipPath id="SVGID_28_">
									<use xlink:href="#SVGID_27_"  style="overflow:visible;"/>
								</clipPath>
								<path class="st33" d="M114.1,159.3c-1-1.1-1.4-1.1-1.7-1.4c-0.4-0.5-0.3,0.1-0.3,0.8c0,0.7-0.1,1.4-0.2,1.1
									c-0.1-0.5-0.6-1.8-0.9-3.1c-0.1-0.5-0.2-1-0.3-1.4c0,0,0,0.1,0,0.1c0,0.1,0,0.2,0.1,0.4c0,0.1,0,0.1,0,0.2c0,0,0,0.1,0,0.1
									v0.1v0v0l0-0.6v0v0v0l0,0.1l0,0.1c0,0.7,0,1.2-0.1,1c0,0,0,0.4-0.1,1c0,0.6-0.1,1.3-0.2,1.7c-0.1,0.6-0.3,0.3-0.5,1
									c-0.3,1-1.4,1.8-2,2.2c-1,0.9-1.5,0.9-1.8,0.1c-0.2-0.8-0.7-0.4-1-0.9c-0.3-0.4-0.8-0.3-1.1-0.7c-0.2-0.6-0.4-1-0.8-1.3
									c-0.1,0-0.2,0-0.3,0.1c-0.1,0.1-0.2,0-0.3,0c-0.1-0.5,0.2-1.5-0.2-1.6c-0.1,0-0.5,0.2-0.7,0.5c-1.2,1.7-2,3.1-2.5,4.5
									c-0.5,1.3,0,1.6,0.3,2.2c0.4,0.8-0.4,3.2-1.3,5.6c-0.7,1.8-1.9,4.6-0.9,4.9c1.2,0.3,2.7-0.6,3.5,0.7c0.5,1,1,1.9,1.9,2.5
									c0.1,0.2,0.5,0.6,0.7,0.7c1.1,0.1,2.4,1,3.4-0.7c1.3-0.4,1.9,0.4,3-0.9c1.3-1.7,2.4-3.6,3.6-4.3c0.7-0.4,1.3-0.6,2.1-0.5
									c0.2,0,1.6,1.4,2.1,1.8c0.9,0.8,1.5-0.2,1.6-1.1c0.2-1.7,0.4-2.9,0.8-4.1c0.2-0.3,0.7,0,1-0.2c0.6-0.7,0.3-2.1,0.4-3
									c0.6-1.3,0.6-2,0.4-2.4c-0.1-0.4-0.3-0.5-0.2-0.5c0.1-0.2,1,0.4,1.4,0.2c0.4-0.3,0.1-1-0.3-1.5c-1-1.6-2.3-2.8-1.2-3.2
									c-0.2,0-0.5-0.1-0.6,0c-0.7,0.3-1.7,0.4-2.5,0.4c-0.8,0-1.4,0-1.5,0.3c0.1,0.1,0.2,0.4,0.2,0.5c-0.1,0.1-0.1,0.3-0.1,0.5
									C117,161.9,115,160.3,114.1,159.3"/>
								<g class="st34">
									<g>
										<defs>
											<rect id="SVGID_29_" x="99.2" y="158.5" width="11.5" height="9.8"/>
										</defs>
										<clipPath id="SVGID_30_">
											<use xlink:href="#SVGID_29_"  style="overflow:visible;"/>
										</clipPath>
										<path class="st35" d="M99.7,165.7c-0.3-0.6-0.7-1-0.3-2.2c0.5-1.4,1.3-2.8,2.5-4.5c0.2-0.3,0.6-0.6,0.7-0.5
											c0.4,0.1,0.1,1.1,0.2,1.6c0.1,0,0.2,0.1,0.3,0c0.1-0.1,0.2-0.1,0.3-0.1c0.4,0.2,0.6,0.7,0.8,1.3c0.3,0.4,0.7,0.4,1.1,0.7
											c0.3,0.4,0.8,0.1,1,0.9c0.3,0.8,0.8,0.8,1.8-0.1c0.5-0.4,1.6-1.2,1.9-2.2c0.2-0.7,0.3-0.4,0.5-1c0,0,0,0.8,0.2,2
											c-0.9,2.6-2.6,4.9-5,6.8C103.6,167.8,101.5,166.9,99.7,165.7"/>
									</g>
								</g>
								<path class="st36" d="M110.4,161.2c0,0,0.3-0.9,0.5-1.3c0.2-0.4,0.3-0.3,0.5,1.6c0,0,0.1,2.5-0.4,5c-0.4,2.5-1.5,5-2.3,5
									c0,0-1.1,0-1.7,0.1c0,0-0.2-0.4-0.5-0.8c-0.3-0.4-0.7-0.6-1.4-0.3c0,0-1.2,0.3-2.5,0.3c-1.2,0-2.4-0.4-2.2-1
									c0,0-0.3-0.4-0.6-0.9c-0.3-0.5-0.5-1.2-0.3-1.7c0,0,0.3-0.7,0.4-1.4c0.2-0.7,0.3-1.4-0.1-1.4c0,0,0-0.9,0.2-1.7
									c0.2-0.8,0.6-1.6,1.1-1.5c0,0,0.8-0.2,1.1-0.2c0,0,0.5,0.7,1.1,1.6c0.6,0.8,1.3,1.7,1.2,2.2c0,0,0.1,0.3,0.5,0.7
									c0.3,0.3,0.8,0.7,1.5,0.8C107.9,166.4,109.8,165.4,110.4,161.2"/>
								<path class="st37" d="M110.5,160.1c0,0,0.2-1.1,0.3-1.8c0.2-0.7,0.1-1.1,0.4,0.5c0,0,0.3,0.9,0.7,2.1
									c0.5,1.2,1.2,2.6,1.2,3.8c0,0,0,0.6,0,1.5c0,0.9-0.2,2.2-0.6,3.5c-0.8,2.6-2.6,5.2-4.4,5.2c0,0-0.3,0-1.3,1.3
									c0,0-0.5,0.3-1.2,0.3c-0.6,0-1.3-0.2-1.4-1.3c0,0-0.4-0.8-0.8-1.6c-0.4-0.8-0.9-1.6-1.4-1.5c0,0,0-0.4-0.1-0.8
									c-0.1-0.4-0.3-0.7-0.6-0.5c0,0,1.4-0.3,2.7-0.4c1.3-0.2,2.6-0.3,2.6,0.7c0,0,0.4,0.7,1.3,0.5c0.8-0.2,2.1-1.3,2.9-5
									c0,0,0.1-1.3,0-2.8C110.9,162.4,110.8,160.8,110.5,160.1"/>
								<path class="st38" d="M110.8,156c0-0.1,0-0.2,0-0.3c0-0.1,0-0.1,0-0.2c0,0,0-0.1,0-0.2c0-0.1,0-0.2-0.1-0.2l0,0
									c0,0.1,0.1,0.2,0.1,0.3c0.1,0.3,0.3,0.7,0.5,1.2c0.1,0.2,0.2,0.3,0.2,0.4c0-0.1-0.1-0.2-0.1-0.3c0-0.1,0.1,0,0-0.1
									c-0.1-0.4,0.3,0.4,1,1.2c0.3,0.4,0.6,0.6,0.9,0.9c0.5,0.4,2.2,2.2,2.7,2.3c0.5,0.1,0.5-0.2,0.4-0.5c0-0.3-0.2-0.6,0.2-0.6
									c0.5,0.1,0.9,0,1.7,0.1c0.7,0.1,1.3,0,1.9-0.1c0.1,0,1,0.1,1.2,0.1c0.3,0.1,0,0.2,0.2,0.4c0.3,0.4-0.9,0.2-1.4,0.2
									c-0.6,0-0.4,0.4-0.7,0.5c-0.2,0-0.4,0-0.8-0.1c-0.5-0.2-0.3,0.2-0.3,0.4c0.2,0.4-0.7,0.1-0.7,0.3c-0.2,0.2,0.5,1.3-0.1,1.1
									c0.6,0.2-0.7,0.8-0.7,0.4c0,0.1-0.3-0.2-0.5-0.5c-0.1-0.2-0.3-0.4-0.4-0.5c-0.3-0.7-1.1-1.6-1.7-2.3c-0.1-0.1-0.5,0-1.1-0.6
									c-0.5-0.5-0.9-1.2-1.1-1.3c0,0.1,0.2,0.5,0.3,0.6c0,0,0.1,0.3,0.2,0.6c0.1,0.4,0.2,0.8,0.2,1.3c0.1,1,0,2-0.1,1.8
									c-0.2-0.2-0.4-0.9-0.5-1.3c-0.3-1.3-0.6-1.9-0.9-3c-0.1-0.3-0.2-0.7-0.2-1c-0.2-0.7-0.4-1.6-0.4-1.7c0,0.1,0,0.2,0.1,0.3
									C110.8,155.7,110.8,155.9,110.8,156"/>
								<path class="st39" d="M98.4,176.3c0,0,0.6-0.2,1.3-0.1c0.7,0.1,1.4,0.5,1.9,1.9c0,0,0.3,0.4,0.6,0.8c0.3,0.4,0.8,0.8,1,0.7
									l0.4,0.6c0,0,0.6,0.2,1.4,0.3c0.8,0,1.6-0.2,2-0.9c0,0,1.4-0.4,1.5-0.1c0,0,0.3,0.1,0.7-0.2c0.4-0.2,1-0.7,1.6-1.9"/>
								<path class="st40" d="M111,155.6c0.1,0.2,1,1.4,1.6,2c0.9,0.9,1.9,1.7,3.1,2.5c0.1,0,0.1,0,0.1-0.1c-0.5-0.6,0-0.4-0.2-0.8
									c-0.1-0.1-0.4-0.4-0.3-0.4c0.4,0,1.5,0.3,3,0.4c0.7,0.1,1.6,0.2,2.4,0.1c0.2,0,0.5,0,0.7,0.1c0.2,0,0.1,0.1,0.1,0.2
									c-0.1,0-0.4,0-0.6,0.1c-0.4,0-0.5,0.2-1,0.2c-0.4,0-1-0.1-1.3-0.1c-0.2,0-0.3,0-0.4,0.1c-0.5,0.1-0.8,0.2-1,0.5
									c0.5,0.5-0.1,0.4-0.2,0.5c0,0-0.2-0.1-0.3-0.1c-0.2,0,0,0.3-0.5,0c-0.9-0.7-1.8-1.4-2.4-2c-0.6-0.4-1.8-1.8-2-2
									c-0.3-0.4-0.1,0.1-0.2-0.1c0,0-0.2-0.4-0.3-0.8C111,155.6,110.8,155.4,111,155.6"/>
							</g>
						</g>
					</g>
				</g>
				<g class="st4">
					<g>
						<defs>
							<rect id="SVGID_31_" x="86.6" y="101.9" width="30.9" height="59.7"/>
						</defs>
						<clipPath id="SVGID_32_">
							<use xlink:href="#SVGID_31_"  style="overflow:visible;"/>
						</clipPath>
						<g class="st41">
							<g>
								<defs>
									<rect id="SVGID_33_" x="86.6" y="101.9" width="30.9" height="59.7"/>
								</defs>
								<clipPath id="SVGID_34_">
									<use xlink:href="#SVGID_33_"  style="overflow:visible;"/>
								</clipPath>
								<path class="st42" d="M105.9,147.2c1.4-0.7,0.8-3.3,1.2-3.8c0.4-0.9-0.4-2.5-1.2-4.1c-0.8-1.6-1.5-3-1.1-3.1
									c0.5,0,1.9-0.3,3.2-0.7c1.3-0.4,2.6-0.7,2.7-1c0.6-1.2,0-2.3-1.4-3.6c-0.6-0.6-1-0.8-0.8-1c0-0.1-1.7-0.7-2.5-1.6
									c-0.5-0.6-0.1-1.3-0.6-1.9c-0.8-1.2-0.7-4.5-0.8-5.8c-0.1-2.4,0.2-3.6,1.6-4.8c1.2-0.8,1.3-2,2.3-2.9c0.9-1,1.3-1.9,2.3-2.9
									c1.2-0.7,2.1-1.4,3-2.4c0.1-0.2,0.2-0.3,0.1-0.6c0-0.2,0.3-0.4,0.4-0.6c1-0.5,2.4-0.4,3.1-1.2c0.2-0.2,0.3-0.8,0-1.1
									c-1.6-1.4-3.3-2-5-2.4c-1.6-0.3-2.7,0.6-3.9,1.4c-1.7,1.1-4.5,0.5-7.1-0.1c-2-0.6-4.7-1.9-5.8-0.2c-1.2,2.1-1,4.7-2.9,6.3
									c-1.4,1.1-2.7,2-3.7,3.5c-0.2,0.2-0.9,0.9-1.1,1.3c-0.5,1.9-2,4-0.6,5.8c0,2.2-1,3.2-0.1,5.1c1.3,2.5,2.8,4.7,3.1,7.1
									c0.2,1.4,0.2,2.6-0.1,3.8c-0.1,0.4-1.8,2.1-2.3,2.7c-1,1-0.2,2.4,0.7,3.3c1.6,1.3,2.8,2.6,3.9,4.1c0.2,0.6-0.1,1.2,0,1.9
									c0.7,1.5,2.1,2.3,3.1,3.3c1.3,2.2,2.2,3,2.7,3.3c0.5,0.3,0.6,0.1,0.6,0.2c0.2,0.4-0.7,1-0.6,1.7c0.3,0.8,1.1,1.3,1.9,1.5
									c2.2,0.7,4.5,1.3,4.9,3.4c0.1-0.2,0.3-0.4,0.3-0.5c-0.5-2.9,0.6-5.7-0.7-8c-0.2-0.2-0.6-0.4-0.7-0.6
									c-0.2-0.5-0.5-0.9-0.8-1.3C102.7,149.9,104.7,147.7,105.9,147.2"/>
								<g class="st43">
									<g>
										<defs>
											<rect id="SVGID_35_" x="99.7" y="101.9" width="17.8" height="27.3"/>
										</defs>
										<clipPath id="SVGID_36_">
											<use xlink:href="#SVGID_35_"  style="overflow:visible;"/>
										</clipPath>
										<path class="st44" d="M108.3,103.4c1.2-0.8,2.3-1.7,3.9-1.4c1.7,0.3,3.4,1,5,2.4c0.3,0.3,0.2,0.9,0,1.1
											c-0.7,0.8-2.1,0.7-3.1,1.2c-0.1,0.2-0.4,0.4-0.4,0.6c0,0.2-0.1,0.4-0.1,0.6c-0.9,1-1.9,1.7-3,2.4c-1,1-1.4,1.9-2.3,2.9
											c-1,0.9-1.1,2.1-2.3,2.9c-1.4,1.2-1.7,2.4-1.6,4.8c0.1,1.3,0,4.6,0.8,5.8c0.5,0.6,0.2,1.3,0.6,1.9c0,0-0.8,0.2-2.2,0.8
											c-2-3.6-3.3-7.9-4-12.5C101.8,111.9,104.7,107.4,108.3,103.4"/>
									</g>
								</g>
								<path class="st45" d="M104.2,128.1c0,0,0.2,0.3,0.4,0.8c0.2,0.4,0.5,1,0.6,1.5c0.3,1,0.1,1.9-1.9,1.5c0,0-2.4-1.1-4.6-2.8
									c-2.3-1.7-4.4-4.1-4-5.6c0,0,0.1-0.6,0.2-1.3c0.1-0.7,0.3-1.5,0.4-2.1c0,0,0.5-0.4,1.1-1c0.5-0.7,1.1-1.6,1.1-2.9
									c0,0,0.4-2.4,1.3-4.9c0.9-2.4,2.2-4.7,3-4.6c0,0,0.7-0.7,1.7-1.4c1-0.7,2.1-1.3,2.8-1.3c0,0,0.8,0.2,1.7,0.2
									c0.9,0,1.8-0.1,2.3-0.7c0,0,0.4-0.1,0.8-0.2c0.5-0.1,1.2-0.1,1.8-0.1c1.2,0,2.1,0.3,1.4,1.2c0,0-0.2,0.3-0.3,0.8
									c-0.2,0.4-0.4,0.9-0.6,1.2c0,0-2,1.4-3.9,3.2c-1.9,1.7-3.8,3.6-4.3,3.7c0,0-0.1,0.1-0.4,0.3c-0.2,0.2-0.6,0.6-0.9,1
									c-0.7,0.9-1.6,2.2-2.2,3.7C100.3,121.3,100.4,125.5,104.2,128.1"/>
								<path class="st46" d="M105.2,128.5c0,0,1,0.9,1.5,1.8c0.6,0.9,0.8,1.9-0.9,2.5c0,0-0.3,0.2-0.7,0.6c-0.4,0.4-1,0.8-1.6,1.3
									c-1.3,0.9-2.8,1.8-4,1.1c0,0-0.6-0.4-1.5-1c-0.9-0.7-2.1-1.7-3.2-2.9c-2.3-2.5-4.2-6.4-3.6-9.6c0,0,0-0.2,0-0.5
									c-0.1-0.4-0.3-1-0.8-1.8c0,0-0.1-1,0.1-2.1c0.3-1.1,0.8-2.3,2.1-2.6c0,0,1-0.8,2.2-1.7c1.1-0.9,2.3-2,2.6-2.9
									c0,0,0.5-0.1,1.1-0.4c0.5-0.3,1-0.7,1-1.3c0,0-0.7,2.6-1.3,5.2c-0.7,2.6-1.3,5.3-2.4,5.5c0,0-0.9,0.9-1.1,2.6
									c-0.2,1.7,0.5,4.3,3.7,6.9c0,0,1.3,0.5,2.8,0.6C102.7,129.9,104.3,129.7,105.2,128.5"/>
								<path class="st47" d="M110.3,131.5c0.6,0.5,1.5,1,2,1.5c0.2,0.2,0.1,0.6,0.2,0.8c0.1,0.4-0.3,0.7-0.6,0.9
									c-1.8,1.1-1.7,3-3.7,4.4c-0.2,0.2-0.3,0.4-0.3,0.6c0.1,0,0.3,0.2,0.4,0.3c0.1,0.6,0.1,1.2,0.4,1.7c0.5,0.8-0.2,1.9-0.9,3
									c-0.4,0.6-0.5,1.3-0.7,2c-0.4,1.1-2.7,2-2.7,3.1c-0.2,1.9,1.9,2.6,2.1,4.3c0,1.1,0.2,2,0,3.2c-0.3,1-0.2,1.9-0.3,2.9
									c0,0.2-0.5,1.1-0.6,1.2c-0.3,0.1-0.4-0.4-0.7-0.5c-0.7-0.4,0-1.4,0.2-2c0.1-0.8-0.5-1.3-0.8-2c0-0.3,0.1-0.7,0.3-1.1
									c0.3-0.6-0.3-1-0.7-1.4c-0.7-0.5-0.2-1.5-0.5-2.2c-0.4-0.9-1.8-1.3-1.6-2.2c-0.3,0.9-1.1-2.9-0.6-2.2
									c-0.1,0,0.3-0.4,0.5-0.5c0.2,0,0.5-0.2,0.6-0.1c0.8,0.3,2-0.1,2.9-0.2c0.1-0.1-0.3-1.9,0.4-2.7c0.6-0.7,1.2-1.2,1.3-1.9
									c-0.1-0.1-0.6-0.1-0.7-0.3c-0.1-0.2-1.2-1.2-2.3-2.4c-1.1-1.2-2-2.6-1.8-2.8c0.3-0.3,0.9-0.8,1.4-0.7c1.4,0.1,2-0.5,3.1-0.7
									c0.3,0,0.7,0.1,1,0.1c0.8-0.1,1.8-0.4,2-0.7c0.5-0.5,0.8-1.1,0.5-1.6C110.1,132.5,110.2,132,110.3,131.5"/>
								<path class="st48" d="M94.8,104.7c0,0-0.1,1-0.6,2.2c-0.5,1.2-1.4,2.6-3.3,3.7c0,0-0.6,0.5-1.2,1.2
									c-0.6,0.6-1.2,1.4-1.2,1.7c-0.3,0.2-0.5,0.5-0.8,0.7c0,0-0.5,1.1-0.8,2.3c-0.3,1.3-0.4,2.7,0.2,3.3c0,0,0,2.3-0.4,2.6
									c0,0-0.1,0.4-0.1,1.2c0.1,0.8,0.4,1.8,1.4,3.1"/>
								<path class="st49" d="M109.6,142.3c-0.2,0.5-1.1,2.9-1.7,3.8c-0.9,1.3-1.8,2.6-2.7,4.1c0,0.1,0,0.3,0.1,0.3
									c1,0.3,0.8,1.3,1.4,1.7c0.3,0.2,0.7,0.3,0.8,0.6c0.4,1.5,0.2,3.3-0.3,5.3c-0.2,0.8-0.7,1.8-0.9,2.7
									c-0.1,0.2-0.2,0.5-0.4,0.7c-0.1,0.1-0.2-0.2-0.4-0.3c0-0.2,0.2-0.5,0.2-0.8c0.1-0.6-0.2-1.1,0-1.7c0.1-0.6,0.4-1.2,0.5-1.7
									c0-0.4,0-0.7-0.1-1c-0.2-1.2-0.5-2.3-1-3.3c-0.8-0.1-0.6-1-0.8-1.5c0-0.2,0-0.4,0.1-0.6c-0.1-0.5-0.5-0.8-0.2-1.3
									c0.9-1,1.7-1.9,2.3-2.9c0.5-0.8,1.7-3.5,1.9-4.1c0.3-0.9-0.3-1.5-0.2-2.3c0,0,0.5,0,0.9,0.4
									C109.3,140.8,109.7,141.4,109.6,142.3"/>
							</g>
						</g>
					</g>
				</g>
				<g class="st4">
					<g>
						<defs>
							<rect id="SVGID_37_" x="99.3" y="100.1" width="38.6" height="63.6"/>
						</defs>
						<clipPath id="SVGID_38_">
							<use xlink:href="#SVGID_37_"  style="overflow:visible;"/>
						</clipPath>
						<g class="st50">
							<g>
								<defs>
									<rect id="SVGID_39_" x="99.3" y="100.1" width="38.6" height="63.6"/>
								</defs>
								<clipPath id="SVGID_40_">
									<use xlink:href="#SVGID_39_"  style="overflow:visible;"/>
								</clipPath>
								<path class="st51" d="M124.9,153.5c1.6,0.4,3.4-3.5,3.9-4c1-1,1.4-4,1.3-6.7c0-2.7-0.5-5.1-0.2-5c0.5,0.1,1.9-0.3,3.3-0.9
									c1.4-0.6,2.6-1.4,2.7-1.9c0.4-1.3,0.2-2.6-0.1-3.9c-0.4-1.2-1.1-2.4-2-3.3c-0.8-0.9-1.3-1-1.2-1.5c0-0.2-1.9-0.4-3.1-1.4
									c-0.7-0.7-0.8-1.8-1.7-2.4c-0.7-0.6-1.6-1.8-2.6-3.1c-1-1.2-2-2.4-2.6-2.9c-1.2-1-2-1.8-2.7-2.5c-0.6-0.8-1.1-1.5-1.6-2.6
									c-0.6-1.7-2-2.4-3.1-3.7c-0.6-0.7-1.3-1.1-2-1.6c-0.7-0.4-1.4-0.9-2.1-1.4c-1.3-1.2-2.7-2.2-4.6-2.8c-0.3,0-0.5,0-0.8,0.1
									c-0.2,0.1-0.7-0.1-1-0.1c-1.4-0.7-2.8-1.9-4.5-1.8c-0.5,0-1.2,0.4-1,0.9c0.7,2.1,1.7,3.7,2.6,5.2c0.8,1.4,2,1.7,3.1,2.5
									c0.8,0.5,1.2,1.5,1.2,2.7c0.1,1.2-0.1,2.4-0.5,3.7c-0.6,1.9-2.1,4.5-1.4,4.9c0.9,0.4,2.8,0.1,2.8,1.6
									c-0.1,1.1-0.3,2-0.2,2.9c0,0.2-0.1,0.7-0.1,0.9c0.3,0.3,0.4,0.8,0.7,1.2c0.3,0.4,0.7,0.7,1.6,0.7c0.9,0.9,0.4,1.6,1.8,2.2
									c1.9,0.8,4,2,4.5,3.6c0.2,0.5,0.2,0.9,0.2,1.4c0,0.5-0.1,0.9-0.3,1.4c-0.1,0.3-1.9,1.3-2.6,1.5c-1.1,0.5-0.6,1.5,0,2.3
									c0.6,0.7,1.1,1.3,1.4,2c0.3,0.7,0.6,1.4,0.7,2.2c-0.1,0.5-0.7,0.8-0.9,1.3c-0.2,1.3,0.5,2.7,0.5,4c-1.2,4.5-0.3,4.4-0.4,4.5
									c-0.2,0.4-1.2,0-1.7,0.4c-0.5,0.6-0.5,1.5-0.3,2.3c0.5,2.2,0.6,4.9-1.5,5.9c0.2,0,0.5,0.2,0.6,0.1c2.8-1.4,6.1-2.1,7.7-5
									c0-0.4,0-0.8,0.2-1.2c0.3-0.6,0.5-1.2,0.7-1.8C120.4,153.8,123.6,153.3,124.9,153.5"/>
								<g class="st52">
									<g>
										<defs>
											<rect id="SVGID_41_" x="99.3" y="100.1" width="30.3" height="27.3"/>
										</defs>
										<clipPath id="SVGID_42_">
											<use xlink:href="#SVGID_41_"  style="overflow:visible;"/>
										</clipPath>
										<path class="st53" d="M105,108.7c-1.1-0.8-2.3-1.1-3.1-2.5c-0.9-1.5-1.9-3.2-2.6-5.2c-0.1-0.4,0.5-0.8,1-0.8
											c1.7-0.1,3.1,1.1,4.5,1.8c0.3,0,0.7,0.2,1,0.1c0.2-0.1,0.5-0.1,0.8-0.1c1.9,0.6,3.3,1.6,4.6,2.8c0.7,0.6,1.4,1,2.1,1.4
											c0.6,0.5,1.3,0.9,2,1.6c1.2,1.3,2.5,2,3.1,3.8c0.5,1.1,0.9,1.9,1.6,2.6c0.7,0.7,1.5,1.5,2.7,2.5c0.6,0.5,1.6,1.7,2.6,2.9
											c1,1.2,1.9,2.5,2.6,3.1c0.9,0.5,1,1.7,1.7,2.4c0,0-0.1,0.2-0.4,0.6c-0.3,0.4-0.7,1-1.2,1.7c-3.3-4.3-7.3-7.4-11.5-9.3
											C113.7,113.8,109.6,110.4,105,108.7"/>
									</g>
								</g>
								<path class="st54" d="M127.9,125.6c0,0,0.3,0.3,0.7,0.9c0.4,0.5,0.8,1.3,1.2,2c0.6,1.5,0.6,3.1-1.4,2.9c0,0-0.6-0.3-1.6-0.7
									c-1-0.4-2.3-1-3.6-1.6c-2.7-1.2-5.5-2.1-6-3.3c0,0-0.1-0.5-0.4-1c-0.3-0.5-0.6-1.2-0.9-1.6c0,0,0.2-0.6,0.2-1.3
									c-0.1-0.7-0.4-1.7-1.3-2.3c0,0-1.6-1.4-3.2-2.6c-1.6-1.2-3.3-2.1-3.1-2.8c0.1-0.1-2-2.3-2.4-3.6c0,0,0-0.8-0.2-1.6
									c-0.2-0.8-0.7-1.7-1.5-1.8c0,0-0.9-1-1.8-2c-0.8-0.9-1.5-1.9,0-1.9c0,0,0.5-0.1,1-0.2c0.6-0.1,1.3-0.1,1.7,0
									c0,0,0.8,0.3,1.8,0.8c1.1,0.5,2.4,1.4,3.7,2.4c2.5,2,4.4,4.6,4.3,5.2c0,0,0.1,0.2,0.3,0.5c0.2,0.3,0.5,0.7,0.8,1.3
									c0.6,1.1,1.5,2.5,2.5,4.1C120.8,120.4,123.2,123.9,127.9,125.6"/>
								<path class="st55" d="M129,125.6c0,0,1.4,0.8,2.3,2.1c1,1.3,1.4,3.1-0.1,4.4c0,0-0.9,1.9-2.2,3.2c-1.3,1.4-3,2.3-4.1,1.3
									c0,0-0.6-0.5-1.4-1.3c-0.9-0.8-2-1.8-3.3-2.8c-2.5-2.1-5.4-4.1-6.4-6.1c0,0,0-0.1-0.3-0.3c-0.3-0.2-0.7-0.4-1.6-0.5
									c0,0-0.1-0.1-0.3-0.3c-0.2-0.2-0.4-0.4-0.6-0.7c-0.4-0.6-0.7-1.2,0-2.2c0,0,0.2-0.9,0.3-2c0-0.5,0-1.1-0.2-1.6
									c-0.1-0.5-0.4-0.9-0.7-1c0,0,0.1-0.5,0.1-0.9c0-0.5-0.2-1-0.7-1c0,0,1.9,0.7,3.7,2.1c1.8,1.4,3.2,3.5,2.5,4.3
									c0,0,0,0.3,0,0.7c0.1,0.4,0.2,1,0.6,1.6c0.8,1.2,2.5,2.6,6.3,4.3c0,0,1.4,0.2,2.9-0.2C127.2,128.6,128.8,127.8,129,125.6"/>
								<path class="st56" d="M135.1,128.5c0.8,0.8,1.8,1.6,2.4,2.6c0.3,0.5,0.2,1.4,0.3,2c0.1,0.9-0.3,1.7-0.6,2.3
									c-1.7,2.5-2.3,6.5-4.9,8c-0.3,0.3-0.5,0.5-0.6,0.8c0.1,0.1,0.1,0.5,0.2,0.6c-0.2,1.1-0.6,2.1-0.7,3.1
									c-0.1,1.7-1.5,2.9-3,3.9c-0.8,0.6-1.4,1.3-2.2,1.9c-1.3,1.1-3.5,0.1-4.5,1.1c-1.7,1.5-1.3,4-3.1,5.5c-1.1,0.8-2,1.5-3.3,2
									c-1.1,0.2-2,0.7-3.1,1c-0.2,0.1-1.2-0.1-1.4-0.2c-0.2-0.3,0.3-0.5,0.4-0.8c0.2-0.9,1.4-0.5,2.1-0.6c0.8-0.2,1.2-1.1,1.8-1.7
									c0.3-0.2,0.7-0.3,1.2-0.4c0.7-0.1,0.8-0.9,1-1.6c0.1-0.9,1.3-1.2,1.7-2.1c0.6-1.1,0-2.5,0.9-3.1c-0.8,0.5,1.4-3.3,1.3-2.4
									c0-0.1,0.5-0.2,0.8-0.1c0.2,0.1,0.5,0.2,0.5,0.3c0.4,0.9,1.5,1.3,2.3,2c0.1,0,1.3-2.3,2.4-3c0.9-0.5,1.9-0.9,2.3-1.8
									c0-0.3-0.4-0.5-0.4-0.8c0.1-0.3-0.3-2.4-0.8-4.5c-0.5-2.1-1.2-4-1-4.4c0.3-0.4,1-1,1.5-0.8c1.4,0.3,2.1-0.6,3.2-0.8
									c0.3,0,0.7,0.2,1,0.2c0.8-0.2,1.8-0.7,2-1.4c0.6-1.1,0.7-2.5,0.4-3.5C135.2,130.6,135.1,129.6,135.1,128.5"/>
								<path class="st57" d="M105.1,120.2c0,0,0.2,0,0.4,0c0.2,0,0.5,0.1,0.8,0.2c0.6,0.3,1.1,1.1,0.6,2.5c0,0,0,0.4,0,0.9
									c0,0.5,0,1,0.1,1l-0.2,0.6c0,0,0.2,0.5,0.5,1c0.4,0.5,0.9,1,1.7,0.9c0,0,0.9,0.9,0.7,1.2c0,0,0,0.2,0.3,0.5
									c0.3,0.3,1,0.7,2.2,1.1"/>
								<path class="st58" d="M131.6,149.6c-0.3,0.3-1,1.3-1.9,2.2c-0.9,0.9-1.9,1.7-2.5,2c-1.8,0.9-3.6,1.6-5.5,2.2
									c-0.2,0.1-0.3,0.3-0.2,0.4c0.3,1.2-0.8,1.9-0.9,2.8c-0.1,0.4,0,0.9-0.2,1.2c-1.5,1.7-3.5,2.6-5.8,3.1
									c-1,0.2-2.1,0.1-3.1,0.1c-0.2,0-0.6,0-0.8-0.2c-0.2-0.1,0.1-0.3,0.2-0.5c0.2-0.1,0.6,0,0.9-0.1c0.6-0.1,1.1-0.6,1.7-0.6
									c0.6-0.1,1.3-0.1,1.9-0.4c0.4-0.2,0.7-0.4,1-0.7c1.2-0.9,2.1-2,2.8-3.2c-0.3-0.9,0.6-1.3,0.9-1.9c0.1-0.2,0.4-0.2,0.6-0.4
									c0.4-0.5,0.4-1.2,1.1-1.3c1.4-0.2,2.8-0.5,4-1.1c0.5-0.2,1.5-1,2.5-1.9c1-0.9,1.9-1.9,2.2-2.3c0.8-1.2,0.8-2.6,1.3-3.8
									C131.7,145,133.3,146.6,131.6,149.6"/>
							</g>
						</g>
					</g>
				</g>
				<g class="st4">
					<g>
						<defs>
							<rect id="SVGID_43_" x="131.1" y="76.5" width="35.2" height="28.5"/>
						</defs>
						<clipPath id="SVGID_44_">
							<use xlink:href="#SVGID_43_"  style="overflow:visible;"/>
						</clipPath>
						<g class="st59">
							<g>
								<defs>
									<rect id="SVGID_45_" x="131.1" y="76.5" width="35.2" height="28.5"/>
								</defs>
								<clipPath id="SVGID_46_">
									<use xlink:href="#SVGID_45_"  style="overflow:visible;"/>
								</clipPath>
								<path class="st60" d="M147.3,102.5c0.3,0.7,1.4,0.9,2.5,0.7c1.1-0.1,2.2-0.6,2.5-0.5c1.3,0,3.5-2.2,4.7-4.8
									c1.2-2.7,1.1-5.3,1.4-5.2c0.5,0.2,2-0.1,3.4-0.7c1.4-0.6,2.7-1.8,2.8-2.5c0.3-1.7-0.1-3.3-0.7-4.6c-0.7-1.2-1.7-2.2-2.7-2.7
									c-1-0.6-1.5-0.4-1.5-0.8c-0.1-0.1-1.8,0.3-3.1,0.1c-0.8-0.2-1-0.9-1.9-0.9c-0.7-0.1-1.7-0.5-2.6-0.9c-0.9-0.3-1.8-0.8-2.4-1
									c-2.3-0.7-3.6-1-5.4-1.8c-1.3-0.7-2.3-0.1-3.3-0.1c-1.1,0-1.8,0.4-2.9,0.6c-1.1-0.1-2.1,0-3.2,0.5c-0.1,0.1-0.2,0.2-0.3,0.4
									c0,0.2-0.3,0.3-0.4,0.4c-0.9,0.1-2.2-0.4-2.9,0.2c-0.2,0.2-0.3,0.7,0,1c1.4,1.6,2.7,2.6,3.9,3.6c1.1,0.8,1.8,0.6,2.7,0.6
									c1.2,0,2.7,2.2,3.7,4.5c0.8,1.8,1.7,4.6,2.1,4.4c0.1-0.1,0.2-0.3,0.3-0.5c0-0.1,0.1-0.2,0.1-0.3c0-0.1,0,0,0-0.2
									c-0.1-0.5-0.1-1-0.2-1.5c-0.2-1.7-0.2-2.8-0.2-3.7c0-0.9,0.1-1.5,0.1-2c0.1-0.3,0.1-0.6,0.2-0.8l0.1-0.2c0,0,0,0.1-0.1,0.2
									c-0.2,0.4-0.4,0.9-1.3,1.9c-0.1,0.1-0.4,0.5-0.9,1c-0.4,0.5-1.1,1.2-1.5,1.6c-0.3,0.3-0.7,0.7-1,1c-0.4,0.4-0.9,0.9-1.3,1.3
									l-0.8,0.7c-0.1,0.1,0,0-0.1,0.1l0,0c0,0,0.2,0.2,0.3,0.3c0.3,0.2,0.6,0.2,1.4-0.2c0.8,0.1,0.3,0.6,1.4,0
									c0.8-0.4,1.6-0.7,2.3-1c0.2-0.1,0.3-0.1,0.5-0.2c0.3-0.1,0.5-0.2,0.7-0.2c0.2-0.1,0.4-0.1,0.6-0.2c0.2,0,0.4-0.1,0.6-0.1
									c0.7-0.1,1.1-0.1,1-0.1l0,0h0l0.3,0.1h0l0,0c0,0,0,0,0,0c0,0,0,0-0.1,0c-0.1,0-0.2-0.1-0.2-0.1c-0.2-0.1-0.6-0.3-1-0.6
									c-0.1-0.1-0.3-0.2-0.4-0.3l-0.2-0.2l-0.1-0.1c0,0-0.1-0.1,0,0c0.3,0.4,0.5,0.8,0.6,1.2c0,0.1-0.3-0.2-0.4-0.2
									c-0.1,0.3,0.1,1.6-0.2,2.2c-0.8,0.7-1.3,1.1-1.5,1.5c-0.2,0.3-0.2,0.5-0.2,0.5c-0.2,0-0.3-1-0.6-1.2c-0.4-0.1-0.8,0.4-1.2,1
									c-1,1.6-2.4,3.1-3.5,2c0,0.2,0,0.5,0.1,0.6c1.5,1.5,2.6,4,4.8,3.8c0.2-0.2,0.5-0.4,0.7-0.4c0.4,0,0.8-0.1,1.2-0.3
									c0.3-0.1,0.9,0.5,1.5,1.2C146.4,101.1,147,101.9,147.3,102.5"/>
								<g class="st61">
									<g>
										<defs>
											<rect id="SVGID_47_" x="131.1" y="76.5" width="25.5" height="7.5"/>
										</defs>
										<clipPath id="SVGID_48_">
											<use xlink:href="#SVGID_47_"  style="overflow:visible;"/>
										</clipPath>
										<path class="st62" d="M137.8,84c-0.8,0-1.5,0.3-2.7-0.6c-1.2-0.9-2.5-2-3.9-3.6c-0.3-0.3-0.2-0.9,0-1
											c0.7-0.6,1.9-0.1,2.9-0.2c0.1-0.1,0.4-0.2,0.4-0.4c0-0.2,0.1-0.3,0.3-0.4c1-0.5,2-0.6,3.2-0.5c1.1-0.2,1.8-0.5,2.9-0.6
											c1,0.1,2-0.6,3.4,0.1c1.7,0.8,3,1.1,5.4,1.8c0.6,0.2,1.6,0.6,2.4,1c0.9,0.4,1.9,0.8,2.6,0.9c0.9,0,1.1,0.7,1.9,0.9
											c0,0-0.4,0.8-1.1,2.2c-1.9-0.9-3.8-1.3-5.6-1.4c-1.7-0.1-3.7-0.4-5,0.3c-0.4-0.2-0.6-0.2-1.1-0.2c-0.5,0-1.1,0.1-1.8,0.3
											C140.6,82.9,139.2,83.4,137.8,84"/>
									</g>
								</g>
								<path class="st63" d="M155,82.4c0,0,1.4,0.4,2.3,1.5c0.9,1,1.2,2.4-0.8,2.7c0,0-2.7-0.4-5.3-0.1c-2.7,0.2-5.2,1.1-5.7,0.6
									c0,0-0.7-0.7-1.3-1c0,0,0-0.1,0.1-0.3c0-0.2,0-0.4,0-0.7c0-0.5-0.3-0.9-0.7-0.6c0,0,0,0-0.1,0.1c0,0,0,0,0,0
									c0-0.1,0.1-0.1,0.1-0.2c0.1-0.1,0.2-0.3,0.2-0.4l0.1-0.2l0-0.1l0,0.1c0,0.1-0.1,0.2-0.1,0.4c0,0.2-0.1,0.5-0.1,0.8l0,0.5
									c0,0,0,0.1,0,0.1c-0.1,0.4-1.5,0.9-1.7,0.3c0,0-0.5-0.1-1-0.3c-0.6-0.2-1.3-0.4-1.7-0.8c0,0-0.4-0.6-0.9-1.1
									c-0.5-0.5-1.2-0.9-1.6-0.6c0,0-1-0.4-1.8-0.8c-0.9-0.4-1.7-1-1-1.6c0,0,0.6-1,1-1.4c0,0,1.8-0.5,3.7-0.6
									c1.9-0.1,3.8,0.1,4.1,0.6c0,0,0.5,0.2,1.2,0.4c0.8,0.2,1.6,0.6,2.5,1.2c0.9,0.6,1.9,1.3,3.2,1.6
									C151.1,82.7,152.8,82.8,155,82.4"/>
								<path class="st64" d="M156.1,82c0,0,1.4,0,2.5,0.8c1.2,0.7,2.1,2.3,0.8,3.9c0,0-0.1,0.5-0.4,1.2c-0.3,0.7-0.8,1.5-1.4,2.2
									c-0.6,0.7-1.4,1.2-2.1,1.4c-0.7,0.2-1.4,0-2-0.4c0,0-0.5-0.4-1.4-0.9c-0.9-0.5-2.1-0.9-3.4-1c-2.6-0.3-5,0.6-5.9-0.1
									c0,0-0.1-0.2-1.6,0.4c0,0-0.5,0-0.9-0.2c-0.2-0.1-0.3-0.2-0.2-0.3c-0.4,0.3,1.5-1.5,1.9-2c0,0,0.1-0.1,0.3-0.3
									c0.1-0.2,0.4-0.4,0.6-0.7c0.4-0.6,0.9-1.2,1.1-1.6c0.1-0.2,0.2-0.4,0.2-0.4c0,0.1-0.1,0.3-0.1,0.5c-0.1,0.4-0.2,1.1-0.2,1.8
									c0,0,0,0.2,0,0.4v0.2c0,0,0-0.1,0-0.1c0-0.1,0-0.2,0-0.2c0-0.3-0.2-0.5-0.3-0.1c0,0,0.2-0.2,0.3-0.5c0-0.1,0.1-0.1,0.1-0.2
									c0,0,0-0.1,0-0.1c0-0.1,0,0,0-0.2c0.1-0.7,0.2-1.1,0.3-1.4c0,0-0.1,0.2-0.2,0.4c-0.2,0.4-0.1,0.1,0,0.1
									c0.1-0.1,0.3,0,0.4,0.1c0.3,0.2,0.5,0.6,0.2,1.1c0,0,0,0.8,0.7,1.2c0.4,0.2,0.9,0.3,1.9,0.3c0.9,0,2.2-0.2,4.1-0.4
									c0,0,1.3-0.4,2.6-1.1C155,84.8,156.3,83.7,156.1,82"/>
								<path class="st65" d="M162.4,82.3c1,0.5,2.1,1.1,3,2c0.4,0.6,0.5,1.5,0.8,2.3c0.3,1-0.1,2.3-0.3,3.1c-0.8,1.8-1.6,4-2.8,6
									c-1.2,1.9-2.7,3.3-4.3,3.6c-0.4,0.2-0.7,0.3-1,0.6c0,0.1-0.2,0.6-0.2,0.7c-0.8,1-1.7,1.6-2.4,2.4c-1.1,1.4-3.1,1.4-4.7,1
									c-0.9-0.2-1.8-0.2-2.7-0.4c-1.5-0.4-1.9-2.8-3-3c-0.8-0.3-1.5-0.1-2.1,0.2c-0.7,0.2-1.4,0.5-2.1,0.1c-0.8-0.5-1.4-0.9-2-1.7
									c-0.4-0.8-0.9-1.3-1.3-2c-0.1-0.2-0.3-1.1-0.2-1.3c0.1-0.3,0.4-0.1,0.6-0.2c0.5-0.3,0.6,0.9,0.8,1.4
									c0.3,0.6,0.9,0.4,1.4,0.6c0.2,0.2,0.3,0.4,0.5,0.8c0.2,0.6,0.7,0.2,1.1,0.1c0.5-0.4,1.1,0.5,1.7,0.4
									c0.8-0.1,1.3-1.4,1.9-0.9c-0.3-0.2,0.2-0.3,0.8-0.4c0.6-0.1,1.2-0.1,0.9,0.1c0-0.1,0.3,0.3,0.5,0.5c0.1,0.2,0.2,0.5,0.2,0.6
									c-0.2,0.8,0.2,2,0.3,2.9c0.1,0.1,2.1-0.4,3.3-0.2c0.9,0.3,1.9,0.7,2.8,0.2c0.2-0.2,0-0.7,0.1-0.9c0.2-0.2,1.1-2.1,1.4-4.1
									c0.3-2,0-3.9,0.2-4.2c0.4-0.3,1.1-0.7,1.6-0.5c1.3,0.4,2.1-0.4,3.3-0.7c0.3,0,0.7,0.3,1,0.2c0.9-0.2,1.9-0.9,2.1-1.7
									c0.5-1.4,0.4-3.1-0.1-4.1C163.1,84.3,162.7,83.3,162.4,82.3"/>
								<path class="st66" d="M143.9,92.4c0,0,0-0.1,0-0.3c0-0.1,0-0.1,0-0.3l-0.2-1.4c0-0.4-0.1-0.9-0.1-1.3
									c-0.3-3.2,0.1-4.9,0.3-5.4c0,0,0,0.2-0.4,0.8c-0.2,0.3-0.5,0.7-0.8,1.1c-0.3,0.4-0.7,0.9-0.9,1.1c-0.3,0.3-0.5,0.5-0.8,0.9
									l-1,1.1c0,0-0.2,0.2-0.5,0.5c-0.4,0.4-1.1,1-1.8,1.8c-0.2,0.2-0.4,0.4-0.6,0.6l0,0c0,0,0,0,0,0c0.1,0,0.1,0.1,0.2,0.1
									c0.4,0.2,0.9,0.3,1.5-0.1c0,0,0.8,0.1,0.6,0.2c0,0,0,0.1,0.3,0c0.3-0.1,0.7-0.3,1.8-0.8"/>
								<path class="st67" d="M154.4,104.6c-0.4,0.1-1.7,0.4-2.9,0.4c-1.3,0-2.5-0.2-3.1-0.5c-1.8-0.8-3-1.9-4.2-3.2
									c-0.1-0.1-0.3-0.1-0.3,0c-0.6,0.8-1.4,0.3-2,0.7c-0.3,0.1-0.5,0.5-0.8,0.4c-1.5-0.4-2.5-1.6-3.3-3.2
									c-0.3-0.7-0.5-1.6-0.8-2.5c0-0.2-0.1-0.5-0.1-0.7c0-0.2,0.2-0.1,0.3-0.1c0.1,0.1,0.1,0.5,0.3,0.7c0.2,0.5,0.6,0.5,0.8,1
									c0.2,0.4,0.4,1,0.7,1.4c0.2,0.2,0.4,0.4,0.6,0.4c0.8,0.5,1.7,0.8,2.6,0.7c0.4-0.7,0.9-0.2,1.4-0.2c0.1,0,0.3,0.2,0.4,0.3
									c0.4,0.1,0.8-0.3,1.2,0.2c0.8,1.1,1.6,2,2.7,2.6c0.5,0.2,1.6,0.6,2.9,0.6c1.2,0.1,2.6-0.1,3.1-0.3c1.4-0.4,2.2-1.7,3.4-2.6
									c0-0.1,0.2,0.5-0.1,1.3C156.9,102.8,156.1,103.9,154.4,104.6"/>
							</g>
						</g>
					</g>
				</g>
				<g class="st4">
					<g>
						<defs>
							<rect id="SVGID_49_" x="61.1" y="65.5" width="34" height="35.2"/>
						</defs>
						<clipPath id="SVGID_50_">
							<use xlink:href="#SVGID_49_"  style="overflow:visible;"/>
						</clipPath>
						<g class="st68">
							<g>
								<defs>
									<rect id="SVGID_51_" x="61.1" y="65.5" width="34" height="35.2"/>
								</defs>
								<clipPath id="SVGID_52_">
									<use xlink:href="#SVGID_51_"  style="overflow:visible;"/>
								</clipPath>
								<path class="st69" d="M78.3,89.4c0.3-0.7,0.2-1.2,0.3-1.5l0-0.1c-0.1,0.1-0.1,0.2-0.2,0.3c-0.2,0.2-0.3,0.5-0.5,0.6
									c-0.3,0.4-0.4,0.5-0.5,0.6c-0.1,0.1-0.3,0.3-0.5,0.5c-0.1,0.1-0.1,0.1-0.2,0.2c-0.1,0.1,0,0-0.2,0.1c0.3-0.2,1-0.5,2.2-0.7
									l0.4-0.1l0.2,0l-0.1,0c-0.1,0-0.2,0-0.2,0c-0.1,0-0.3-0.1-0.4-0.2c-0.2-0.2-0.3-0.3-0.1-0.3c0.5,0.1,1.9,0.1,3.2,0.4
									c0.3,0,0.5,0.1,0.7,0.1c0.1,0,0.1,0,0.1,0c0.3,0.1,0.1,0.1-0.2-0.1c-0.1-0.1-0.2-0.1-0.2-0.1C82.2,89.1,82.1,89,82,89
									c-0.2-0.1-0.2-0.2-0.2-0.1c0,0-0.3-0.3-0.8-0.6c-0.4-0.4-1-0.8-1.2-1.2c-0.4-0.5-0.1-0.4-0.4-1c-0.2-0.4-0.3-1.1-0.2-1.6
									c0.1-0.6,0.4-1.1,0.5-1.4c0.5-1.2,1.2-1.3,1.1-0.6c0,0.4,0.1,0.5,0.3,0.7c0.2,0.2,0.6,0.5,0.7,0.8c0.4,0.7,1,1.1,1.3,1.9
									c0.1,0.9,0.3,1.6,0.7,2.3c0.1,0.1,0.2,0.1,0.4,0.1c0.2,0,0.2,0.2,0.3,0.3c0,0.8-0.7,1.7-0.3,2.2c0.1,0.1,0.6,0.3,1,0.1
									c1.9-0.9,3.2-2,4.2-3.2c0.9-1.2,0.5-2.1,0.3-3.1c-0.3-1.4,1.2-3.6,2.7-5.8c1.2-1.6,3.3-3.8,2.1-5.1c-0.8-0.7-1.7-1-2.6-1.5
									c-1.1-0.6-2.4-1.7-4.6-3.4c-3.4-2.4-6.6-3.2-9.6-3.2c-0.4-0.1-2.1-0.1-2.6,0c-1.4,0.5-2.9,0.9-4.2,1.6
									c-1.2,0.7-2.2,1.6-2.4,2.9c-1,1.1-1.8,1.7-2.4,2.4c-0.7,0.7-1.1,1.4-1.3,2.6c-0.3,3,0.4,5.8,0,8c-0.1,1.3-0.4,2.5-0.9,3.7
									c-0.2,0.4-2,1.9-2.6,2.6c-1.1,1.1-0.2,3,0.9,4.1c1.9,1.7,3.9,3.5,6,4.6c0.6,0.5,0.8,1.3,1.5,1.8c1.7,0.9,3.2,0.2,4.4,0.1
									c2,0.2,2.7-0.1,3.2-0.3c0.4-0.2,0.4-0.4,0.4-0.4c0.3,0.1,0.2,1.1,0.5,1.4c0.5,0.3,1.2-0.1,1.7-0.6c1.4-1.3,2.9-2.8,4.1-1.6
									c0-0.2,0-0.5-0.1-0.6c-1.6-1.5-2.4-4-4.1-4.3c-0.2,0.1-0.5,0.3-0.7,0.3c-0.4-0.1-0.7-0.1-1.1-0.1c-0.3-0.1-0.4-0.8-0.4-1.6
									C77.8,91,78,90.1,78.3,89.4"/>
								<g class="st70">
									<g>
										<defs>
											<rect id="SVGID_53_" x="77.2" y="76.9" width="12.9" height="14.1"/>
										</defs>
										<clipPath id="SVGID_54_">
											<use xlink:href="#SVGID_53_"  style="overflow:visible;"/>
										</clipPath>
										<path class="st71" d="M89.8,84.6c0.2,1,0.6,2-0.3,3.1c-1,1.2-2.3,2.3-4.2,3.2c-0.4,0.2-0.9,0.1-1-0.1
											c-0.4-0.5,0.3-1.4,0.3-2.2c-0.1-0.1-0.1-0.3-0.3-0.3c-0.2,0-0.3-0.1-0.4-0.1c-0.4-0.7-0.6-1.4-0.7-2.3
											c-0.4-0.8-0.9-1.1-1.3-1.9c-0.2-0.4-0.5-0.6-0.7-0.8c-0.2-0.2-0.4-0.4-0.3-0.7c0.1-0.7-0.6-0.6-1.1,0.6
											c-0.1,0.3-0.4,0.8-0.5,1.4c-0.1,0.5,0,1.2,0.2,1.6c0.4,0.6,0.1,0.5,0.4,1c0,0-0.6-0.5-1.8-1c-0.7-1.2-1-2.8-0.8-4.4
											c0.2-1.6,1-3.4,2.7-4.8c0.6,0,1.3,0,2,0.1c0.7,0.2,1.4,0.5,2,0.8c1.1,0.7,1.7,1.4,2.4,2.1C87.6,81.4,88.8,82.9,89.8,84.6"
											/>
									</g>
								</g>
								<path class="st72" d="M78.5,85.9c0,0,0.4,0.8,0.7,1.3c0.2,0.5,0,0.6-1.8-0.2c0,0-2.2-1.3-3.8-3.4c-0.8-1.1-1.5-2.3-1.7-3.5
									c-0.3-1.2-0.1-2.2,0.4-2.7c0,0,0.4-0.4,0.9-0.8c0.5-0.5,1.2-0.9,1.7-1.3c0,0,0.7,0.1,1.5,0.1c0.9,0,1.8-0.2,3.1-0.8
									c0,0,0.6-0.2,1.8-0.3c0.6,0,1.4,0,2.3,0.2c0.9,0.2,1.8,0.6,2.5,1c0.7,0.4,1.3,0.8,1.7,1.1c0.4,0.3,0.7,0.6,1,0.9
									c0.6,0.6,0.8,1.1,0.6,1.4c0,0,0.3,0.7,0.6,1.6c0.2,0.9,0.4,1.9,0.1,2.4c0,0-0.5,0.6-0.8,1.3c-0.4,0.7-0.7,1.4-0.3,1.9
									c0,0-0.3,1.1-0.8,2c-0.5,0.9-1.2,1.5-1.7,0.9c0,0-0.9-0.5-1.3-0.8c0,0-0.4-1.5-1-3.1c-0.6-1.6-1.5-3.2-1.3-3.6
									c0,0-0.1-0.5-0.6-1.1c-0.5-0.6-1.6-1.1-2.7-0.9c-1.1,0.2-2.2,1-2.6,2.3C76.7,82.7,77.1,84.3,78.5,85.9"/>
								<path class="st73" d="M79.3,86.6c0,0,0.2,0.2,0.4,0.5c0.2,0.3,0.6,0.6,0.8,0.9c0.5,0.5,0.8,0.7-0.7,0.2c0,0-1-0.1-2.3-0.1
									c-1.3,0-2.9,0.4-4-0.2c0,0-0.6-0.3-1.4-0.9c-0.8-0.6-1.8-1.6-2.6-3c-0.8-1.3-1.3-3.1-1.3-4.8c0-1.8,0.7-3.6,2-4.8
									c0,0,0.1-0.1,0.3-0.5c0.2-0.4,0.4-1,0.7-2.1c0,0,0.2-0.2,0.5-0.5c0.3-0.3,0.8-0.7,1.4-1.1c1.2-0.7,2.9-1.1,4.1-0.3
									c0,0,0.4,0.1,1,0.3c0.7,0.2,1.5,0.4,2.6,0.8c1,0.4,2.2,0.9,3.2,1.5c1.1,0.6,1.9,1.2,2.5,1.5c0,0,0.2,0.7,0.5,1.3
									c0.2,0.6,0.5,1.2,1,1.2c0,0-0.4-0.2-1.4-0.7c-0.5-0.2-1.1-0.5-2-0.8c-0.8-0.3-1.9-0.5-2.8-0.5c-1.9-0.1-3.3,0.4-4.3,0.7
									c-1,0.3-1.8,0.5-2.3,0.2c0,0-0.3,0-0.8,0.1c-0.5,0.1-1.1,0.4-1.7,1c-1.2,1.1-1.9,3.8,0.3,7c0,0,1,0.9,2.3,1.6
									C77.1,85.8,78.6,86.5,79.3,86.6"/>
								<path class="st74" d="M82.6,89.3c0.1,0.1,0.2,0.1,0.2,0.1c0,0,0,0,0,0C82.8,89.4,82.7,89.4,82.6,89.3c-0.1,0-0.4,0-0.7,0
									l0,0h0c-0.2,0,1.8,0.1,0.9,0h0l0,0l0,0L82.6,89.3l-0.4,0c-0.2,0-0.4,0-0.7,0c-0.4,0-0.8,0-1.2,0c-0.7,0-1.3,0.1-1.7,0.2
									c-0.3,0-0.5,0.1-0.7,0.1c-0.1,0-0.3,0.1-0.4,0.1c-0.3,0.1-0.6,0.2-0.8,0.3l-0.2,0.1c0.1-0.1,0.1-0.1,0.1-0.1
									c0.3-0.2,1.1-0.9,2-2.3c0.1-0.1,0.1-0.2,0.2-0.3l0.1-0.1c0,0,0,0,0,0c0,0,0,0,0,0.1c0,0.1-0.1,0.2-0.1,0.3
									c0,0.2-0.1,0.4-0.1,0.6c0,0.8-0.8,3.1-0.3,3.7c0.8,1.1,2.2-0.1,3.2,0.7c0.5,0.6,1,1,1.5,1.9c0.3,0.8,0.8,1.3,1.2,2
									c0.1,0.2,0.3,1.1,0.2,1.3c-0.1,0.3-0.4,0-0.6,0.2c-0.6,0.3-0.6-0.9-0.8-1.4c-0.3-0.6-0.9-0.4-1.3-0.7
									c-0.2-0.2-0.3-0.5-0.4-0.9c-0.1-0.6-0.6-0.3-1-0.2c-0.6,0.2-0.8-0.7-1.3-0.8c-0.6-0.2-1.6,0.8-1.9,0.1
									c0.1,0.3-0.4,0.2-0.8-0.1c-0.4-0.3-0.8-0.6-0.5-0.6c-0.1,0.1,0-0.4,0.1-0.7c0.1-0.2,0.2-0.4,0.3-0.5
									c0.6-0.5,1.1-1.6,1.6-2.4c0-0.1-0.1-0.2-0.2-0.4c0-0.1,0-0.2,0-0.3c0-0.1,0.1-0.1,0.1-0.2l0-0.1c0,0,0,0-0.1,0.1l-0.1,0.1
									c-0.4,0.5-0.7,0.7-0.9,0.9c0,0-0.1,0.1-0.1,0.1c0,0,0,0,0,0l0,0l-0.1,0.1l0,0l0,0l0,0c0.1,0,0.2-0.1,0.3-0.2
									c0.2-0.1,0.4-0.2,0.7-0.2l0.2-0.1l0.1,0l-0.1,0c-0.1,0-0.2,0-0.4,0c-1,0-1.9-0.9-1.7-1c0.3-0.1,1-0.2,1.4-0.1
									c1.4,0.2,2,0.1,3.1,0.3c0.3,0.1,0.7,0.1,1,0.2C81.8,89.2,82.2,89.3,82.6,89.3C82.6,89.4,82.6,89.4,82.6,89.3
									c0.2,0.1,0.2,0.1,0.2,0.1C82.8,89.4,82.7,89.4,82.6,89.3"/>
								<path class="st75" d="M93.4,72.9c0,0-0.2-0.1-0.5-0.2c-0.3-0.1-0.7-0.3-1.4-0.8c-0.6-0.5-1.5-1.2-2.8-2.2
									c-1.3-1-3.3-2.2-5.1-3.1c0,0-1.6-0.6-3.2-0.9c-1.6-0.3-3.2-0.3-3.7-0.1c-0.5,0-1.1-0.1-1.6-0.1c0,0-0.4,0.1-1.1,0.3
									c-0.6,0.2-1.5,0.5-2.3,0.9c-1.7,0.8-3.1,2.2-3.1,3.2c-0.1,0-1.9,2.2-2.4,2.3c0,0-0.5,0.3-0.9,1.1c-0.4,0.8-0.8,2.1-0.5,3.7"
									/>
								<path class="st76" d="M77,89.8c0.1-0.1,0.6-0.5,1.3-1.6c0.2-0.2,0.4-0.5,0.5-0.9l0.3-0.5l0.1-0.3l0,0.1
									c-0.1,0.2-0.2,0.5-0.2,0.7c-0.3,1.3-0.3,2.6,0,4.2c0,0.1,0.1,0.2,0.2,0.1c0.7-0.6,1,0.1,1.6-0.2c0.2-0.1,0.5-0.4,0.7-0.3
									c1,0.6,1.7,1.8,2.4,3.5c0.3,0.7,0.5,1.6,0.8,2.5c0,0.2,0.1,0.5,0.1,0.7c0,0.2-0.2,0.1-0.3,0.1c-0.1-0.1-0.2-0.5-0.3-0.7
									c-0.2-0.5-0.6-0.6-0.8-1.1c-0.2-0.5-0.3-1-0.6-1.4c-0.2-0.2-0.3-0.4-0.5-0.5c-0.7-0.6-1.3-1-2.1-1.1c-0.5,0.6-0.8,0-1.1-0.2
									c-0.1-0.1-0.1-0.2-0.2-0.4c-0.3-0.2-0.7,0-0.7-0.6c0-1.2,0.1-2.4,0.2-3.3c0-0.2,0.1-0.4,0.1-0.7c0-0.2,0.5-0.9-0.1,0
									C77.6,89.2,77.1,89.7,77,89.8c-0.3,0.3-0.4,0.3-0.5,0.4c0.2-0.1,0.4-0.2,0.8-0.3c0,0-0.1,0-0.4,0.2c-0.1,0-0.2,0.1-0.2,0.1
									l-0.1,0.1l-0.1,0l0,0l0,0l0.1-0.1C76.7,90.1,76.7,90.1,77,89.8"/>
							</g>
						</g>
					</g>
				</g>
				<g class="st4">
					<g>
						<defs>
							<rect id="SVGID_55_" x="88.9" y="70.5" width="52" height="86.7"/>
						</defs>
						<clipPath id="SVGID_56_">
							<use xlink:href="#SVGID_55_"  style="overflow:visible;"/>
						</clipPath>
						<g class="st77">
							<g>
								<defs>
									<rect id="SVGID_57_" x="88.9" y="70.5" width="52" height="86.7"/>
								</defs>
								<clipPath id="SVGID_58_">
									<use xlink:href="#SVGID_57_"  style="overflow:visible;"/>
								</clipPath>
								<path class="st78" d="M117.2,150.3l-0.3,0.5c0.7,0,1.4,0.1,2.2,0.3c1,0.7,1.3-1.1,1.9-3.1
									C119.6,147.8,118.3,148.4,117.2,150.3"/>
								<path class="st79" d="M101.7,156.4l0.7,0.7c0.1,0,0.1,0,0.2-0.1C102.3,156.9,102,156.7,101.7,156.4"/>
								<path class="st78" d="M112.5,155.5c0.5-1.2,0-2-0.1-2.9c-0.7,0.4-1.5,0.8-2.4,1c-1,0.3-1.9,0.7-2.8,1.1
									c0.2,0.4,0.5,1,0.3,1.5c0.4-0.2,0.4-0.2,0.1-0.6c0.2,0.4,0.6,1.1,0.6,1.1c0.9-0.1,1.6-1.5,1.5-2.5c0.3,0.6,0.8,1.5,1.2,2.2
									c0.3-0.2,0.6-0.3,1-0.5c0.1-0.3,0.2-0.5,0.3-0.7L112.5,155.5z"/>
								<path class="st78" d="M130.5,144l-0.4,0.3c0.4,0.4,0.7,0.9,1,1.4l1.2-1c-0.2-0.2-0.3-0.5-0.5-0.8l0.5-0.1
									c0.2,0.1,0.4,0.1,0.6,0.4l0,0c0.2-0.2,0.5-0.4,0.7-0.6l-0.7,0.1c0.2-0.6,0.7-1.2-0.1-1.4C132.1,142.4,131.4,143.3,130.5,144
									"/>
								<path class="st80" d="M133.4,133.9c-0.9,0-1.8,0-2.7-0.2c0.5,0.8-0.9,1.8-0.5,2.6c-4.6-1-6.8,4.4-9.7,5.4
									c-3,1.3-4.2,4.1-6.5,5.8c0.4,0.4,1.2,0.4,1.2,1.1c0.6-0.4,0.8-0.9,0.6-1.5c0-0.1-0.1-0.2-0.2-0.3c0.1,0.1,0.1,0.2,0.2,0.3
									c0.2,0.4,0.2,0.9,0.2,1.4c0.1-0.2,0.3-0.3,0.5-0.2c0.2,0.1,0.2,0.2,0.3,0.3c2.2-1.5,4.4-3,7.6-2.8l0.3-0.5
									c1.1-2,2.3-2.6,3.7-2.4c0.3-1.2,0.7-2.5,1.3-3.4c1.3-1.4,2.9-2.6,4.4-3.9c-0.3-0.5-0.7-0.9-1.1-1.3
									C133.2,134.1,133.3,134,133.4,133.9"/>
								<path class="st81" d="M110.6,70.6c-4.7,0.9-9.6,5.5-9.4,9.8c-0.3,4.5-0.7,9-1,13.8c2.1-0.8,4.5-0.4,6,1.6
									c0.8,1-0.9,3-0.1,3.4c1.8,2.4,3.8,3,4.9,6c0.7-0.5,2.1-0.6,2.2-1.3c1.4-1.7,1.9-3.9,0.1-6.3c-0.5-0.7,2-2.3,2.7-0.6
									c0.5-2.2-0.5-3.6-0.6-5.2c-0.8-4.5,4-1.8,6.5-3.4c0.7-0.3,1.2-0.7,1.5-1.1c-2.2-3.1-5.1-5.9-7.4-8.8
									c-0.5-0.7,0.7-1.8,0.2-2.5C115.1,73.5,112.4,70.1,110.6,70.6"/>
								<path class="st82" d="M101.5,112.7c-0.7-0.8-1.1-1.7-1.4-2.6c-0.9,1.4-1.8,2.7-2.6,4.1c0.5,0.4,0.9,0.7,1.4,1.1
									C99.3,114.2,100.1,113.3,101.5,112.7"/>
								<path class="st82" d="M124.6,91.5c-2.3-0.3-2.4,1-4.3,2c1.5,2.1,1.1,3.7-1.1,5c0.6,0.1,0.2,1,0.4,1.3
									c-0.6-0.1-1.6,0.7-2.1,0c0.5,0.7-0.5,1.5,0.4,2c-0.7,1.2-1.7-0.9-2.6-0.1c3.4,4-1.5,7.4-4.6,6c-1.4-0.5-2.2-1.6-4.1-2.2
									c-2-0.6-0.8-2.6-0.4-4.1c-1.2,0.5-1.8,2.6-3.1,1.4c-0.8-1.1-1.8-2.3-3.1-3c0.4,3,2,6.7,1.2,8.3c-0.4,0.6-0.8,1.3-1.2,1.9
									c0.3,0.9,0.8,1.8,1.4,2.6c-1.4,0.6-2.2,1.5-2.6,2.6c0.6,0.4,1.2,0.8,1.8,1c2.2,1,2.2-2.7,4.1-3.7c1.2,3.9,5.2,4.7,8.4,3.3
									c1.9-0.9,3.3-2,4.7-3.7c0.4-0.9,0.6-2.2-0.1-3.2c0.2,0.4,1,1.4,1.3,1.2c1.2-2.1,3.6-3,2.8-5.7c0.6,0.1,0.9-0.2,1.4,0.5
									c-1-1.4,2.1-0.7,1.1-2.1c1.6-0.7,4.8-0.6,4.4-2.6c-0.2-0.6-0.2-1-0.1-1.4c-1-1.4-1.8-3-2.2-4.8c-0.3-1.3-0.7-2.6-1.3-3.8
									C125.1,90.8,125.1,91.3,124.6,91.5"/>
								<path class="st83" d="M122,88.5c-2.5,1.6-7.2-1.2-6.5,3.4c0.1,1.6,1.2,3,0.6,5.2c-0.7-1.7-3.2-0.1-2.7,0.6
									c1.8,2.5,1.2,4.6-0.1,6.3c-0.1,0.6-1.6,0.7-2.2,1.3c-1.1-3-3.1-3.6-4.9-6c-0.8-0.4,0.9-2.4,0.1-3.4c-1.5-2-4-2.4-6-1.6
									c-0.1,1.7-0.2,3.4-0.2,5.2c0,0.2,0,0.3,0,0.5c1.2,0.7,2.3,1.9,3.1,3c1.3,1.1,1.9-1,3.1-1.4c-0.5,1.5-1.6,3.5,0.4,4.1
									c2,0.6,2.7,1.7,4.1,2.2c3.1,1.4,7.9-2,4.6-6c1-0.8,1.9,1.2,2.6,0.1c-0.8-0.4,0.1-1.3-0.4-2c0.5,0.7,1.5-0.1,2.1,0
									c-0.3-0.4,0.1-1.3-0.4-1.3c2.2-1.3,2.6-2.9,1.1-5c1.9-1.1,2-2.3,4.3-2c0.5-0.1,0.5-0.7,0.5-1.3c-0.5-0.9-1.1-1.9-1.7-2.7
									C123.1,87.9,122.6,88.3,122,88.5"/>
								<path class="st84" d="M128.7,100.2c0.4,2-2.9,1.9-4.4,2.6c1,1.5-2.1,0.7-1.1,2.1c-0.5-0.7-0.8-0.4-1.4-0.5
									c0.8,2.7-1.6,3.6-2.8,5.7c-0.3,0.3-1.1-0.8-1.3-1.2c0.7,1.1,0.6,2.3,0.1,3.2c-1.4,1.7-2.7,2.7-4.7,3.7
									c-3.2,1.4-7.2,0.6-8.4-3.3c-1.9,0.9-1.9,4.7-4.1,3.7c-0.6-0.2-1.2-0.5-1.8-1c-1,2.5,0.4,5.9,0.9,8.7c0.8,0.1,1.5,0,1.8-0.4
									c2.9-3.2,6.7-1.3,10.1-3.8c0.7-0.5,1.2-2,1.5-2.3c2.2-1.2,4.7,0.2,7-1c0.6,0.1-0.3-2,0.6-2.2c1.6-0.7,3.9-0.3,4.4-1.9
									c1.7-4.2,5.2-5.6,8.5-7.5c-1.5-2.1-3.5-4-5-6.1C128.6,99.2,128.6,99.6,128.7,100.2"/>
								<path class="st85" d="M89.5,143.2c0.2,0.8,0.3,1.6,0.3,2.3c2.1-3.3,5.2-4.7,8.8-5.8c1.3-0.3,0.3-5.9,3.4-6.5
									c1.1,0.2,1.8,1.3,2.2,2.7c3.9-4.9,10.1-4.6,13.7-8.3c3.6-3.8,9.1-7,14.5-7.4c2.3-0.1,3.6-2.8,5.3-5.1
									c-0.6-0.9-1.2-1.8-1.8-2.7c-1.4,1.3-2.7,2.3-4.3,2.6c-5.1,0.7-8.6,2.4-11.4,6.8c-1.1,1.4-5.4,0.3-6.4,1.1
									c-4.6,3-8.7,4.4-13.5,6.2c-1.2,0.4-2.7,1.1-4.2,2.1c-0.2,1.8-0.1,3.6-0.9,5.3C95.5,141.8,88.9,139.9,89.5,143.2"/>
								<path class="st86" d="M125.2,112.4c-0.5,1.5-2.8,1.2-4.4,1.9c-0.9,0.2,0,2.3-0.6,2.2c-2.2,1.2-4.7-0.2-7,1
									c-0.3,0.3-0.9,1.8-1.5,2.3c-3.4,2.6-7.2,0.6-10.1,3.8c-0.3,0.4-1,0.5-1.8,0.4l0,0c-1.6-0.5-1.7,1.3-1.7,1.7
									c-0.1,2.2-0.9,3-1.8,4.7c-0.1,0.3-0.1,0.7-0.2,1c1.5-1,3-1.8,4.2-2.1c4.8-1.9,8.9-3.3,13.5-6.2c1-0.8,5.3,0.4,6.4-1.1
									c2.8-4.3,6.2-6,11.4-6.8c1.5-0.3,2.9-1.3,4.3-2.6c-0.5-0.7-0.9-1.5-1.2-2.2c-0.5-0.7,0.8-1.9,0.8-1.9
									c-0.4-1.3-1-2.5-1.8-3.6C130.4,106.8,126.8,108.1,125.2,112.4"/>
								<path class="st87" d="M89.4,148.1c0.2,0.5,0.4,1,0.5,1.4c0.3,1.3-0.8,1-1,1.6l0.4-0.2c0,0.1-0.1,0.3-0.1,0.4
									c1.4-0.5,2.8-0.7,4.2-0.6c0.1-0.8,0.4-1.4,1.1-1.6c4.9-1.6,10.4-2.2,13.4-7.9c1.1-2.3,6.4,0.8,8.8-2.5
									c0.8-1.1,1-3.4,2.8-3.6c2.4-0.1,5,1.8,6.6-0.5c3.5-5.8,8.7-10.4,14.6-11.1c0.7-2.4-1.1-5.4-3.1-8.3c-1.7,2.3-3,5-5.3,5.1
									c-5.4,0.3-10.9,3.6-14.5,7.4c-3.6,3.8-9.8,3.5-13.7,8.3c-0.3-1.3-1-2.4-2.2-2.7c-3.1,0.6-2.1,6.1-3.4,6.5
									c-3.6,1.1-6.6,2.6-8.8,5.8C89.8,146.4,89.6,147.3,89.4,148.1"/>
								<path class="st88" d="M126.1,134.5c-1.6,2.3-4.2,0.4-6.6,0.5c-1.8,0.3-2,2.5-2.8,3.6c-2.4,3.3-7.8,0.2-8.8,2.5
									c-3,5.7-8.5,6.3-13.4,7.9c-0.7,0.2-1,0.9-1.1,1.6c0.6,0.1,1.2,0.2,1.8,0.4c1.1,0.3,2.8-1.8,4.2-2.7c2.3-0.4,3.8,1,5.3,2.4
									c0.3,0.2,0.6,0.4,0.9,0.7c-0.1,0-0.1,0-0.2,0.1c0.2,0.2,0.4,0.4,0.6,0.5c0.6-0.4,1.1-0.8,1.7-1.2c0-0.2,0.1-0.3,0.2-0.5
									c0,0.1,0.1,0.2,0.2,0.3c0.9-0.5,1.8-0.9,2.7-1.2c0.9-0.2,1.7-0.5,2.4-1c0-0.2,0-0.4,0-0.7c0,0.2,0.1,0.4,0.2,0.5
									c2.4-1.7,3.6-4.4,6.6-5.7c2.9-1,5.1-6.4,9.7-5.4c-0.4-0.8,0.9-1.8,0.5-2.6c0.9,0.2,1.8,0.2,2.7,0.2c0.9-0.7,1.6-1.7,2.4-1.8
									c0.8,0.2,0.3,0.8,0.2,1.4l0.7-0.2l0.2-0.2c0-0.4-0.2-0.8-0.5-1.1c-0.6-0.4-1.3-0.8-1.8-1.2c0.8,0.2,1.4,0.6,1.8,1.2
									c0.3,0.2,0.7,0.4,1,0.6c0.8-0.8,1.5-1.6,2.1-2.6c-0.1-0.2-0.2-0.4-0.3-0.6c0.1,0.2,0.2,0.3,0.3,0.5l0.2-0.4
									c-0.5-0.8-1.4-2.3-2.3-3.9c2.3-0.9,3.4-2.1,3.8-3.4C134.8,124.1,129.6,128.7,126.1,134.5"/>
							</g>
						</g>
					</g>
				</g>
				<g class="st4">
					<g>
						<defs>
							<rect id="SVGID_59_" x="86.3" y="59" width="49.6" height="30"/>
						</defs>
						<clipPath id="SVGID_60_">
							<use xlink:href="#SVGID_59_"  style="overflow:visible;"/>
						</clipPath>
						<g class="st89">
							<g>
								<defs>
									<rect id="SVGID_61_" x="86.3" y="59" width="49.6" height="30"/>
								</defs>
								<clipPath id="SVGID_62_">
									<use xlink:href="#SVGID_61_"  style="overflow:visible;"/>
								</clipPath>
								<path class="st90" d="M128.1,70.1c0.2-1.5-2.1-2.4-2.4-2.9c-0.6-0.8-2.5-0.8-4.3-0.5c-1.8,0.2-3.5,0.7-3.4,0.3
									c0.1-0.5,0-1.9-0.3-3.3c-0.3-1.4-0.8-2.7-1.1-2.8c-1.8-0.8-3.8,0-5.2,1.6c-0.7,0.7-0.8,1.2-1.1,1.1c-0.1,0-0.4,1.8-1.1,2.8
									c-0.5,0.6-1.3,0.5-1.7,1.2c-0.9,1.1-3.5,2.6-4.3,3.4c-1.6,1.5-2.4,1.9-3.9,1.6c-1.2-0.4-1.9,0.3-3,0.3
									c-1.1,0.1-1.8,0.5-2.9,0.6c-1.1-0.2-2.1-0.2-3.2,0.1c-0.1,0.1-0.3,0.2-0.3,0.4c-0.1,0.2-0.4,0.2-0.5,0.3
									c-1-0.1-2-0.8-2.8-0.4c-0.2,0.1-0.5,0.6-0.3,1c0.9,1.9,1.9,3.3,3,4.4c1,1.1,2,0.8,3,0.9c1.4,0.1,3,2.3,4.3,4.5
									c0.9,1.7,2,4.5,3.1,4.1c1.3-0.6,2.1-2.4,3.7-1.8c1.1,0.5,1.9,1,2.8,1.1c0.1,0.1,0.7,0.3,0.8,0.3c0.9-0.4,1.9,0.1,2.2-1.8
									c0.8-0.7,1.3,0,1.8-1.4c0.7-1.8,1.5-3.7,2.6-4.1c0.6-0.3,1.2-0.2,1.8,0.1c0.2,0.1,0.7,1.9,0.8,2.5c0.2,1.1,1,0.5,1.6-0.1
									c1.1-1.3,2.1-2,3.4-2.5c0.4,0,0.6,0.6,1,0.7c1.1,0,2.1-1,3.1-1.3c3.3-0.1,3.2-1,3.3-0.8c0.3,0.1,0.1,1.1,0.4,1.4
									c0.4,0.3,1.1,0,1.6-0.5c1.5-1.1,3.6-2,4.2-0.4c0.1-0.2,0.2-0.5,0.1-0.6c-0.9-2.1-1.6-4.9-3.9-5.5c-0.3,0.1-0.6,0.2-0.9,0.2
									c-0.4-0.1-0.9-0.2-1.3-0.2C128.3,74.3,127.9,71.5,128.1,70.1"/>
								<g class="st91">
									<g>
										<defs>
											<rect id="SVGID_63_" x="86.3" y="66.4" width="24.4" height="13.9"/>
										</defs>
										<clipPath id="SVGID_64_">
											<use xlink:href="#SVGID_63_"  style="overflow:visible;"/>
										</clipPath>
										<path class="st92" d="M92.4,80.2c-1.1-0.1-2,0.1-3-0.9c-1.1-1.2-2.2-2.5-3-4.4c-0.2-0.4,0.1-0.9,0.3-1
											c0.8-0.4,1.8,0.4,2.8,0.4c0.1-0.1,0.4-0.1,0.5-0.3c0.1-0.2,0.2-0.3,0.3-0.4c1.1-0.3,2.1-0.3,3.2-0.1
											c1.1-0.1,1.8-0.5,2.9-0.6c1.1,0,1.8-0.7,3-0.3c1.5,0.3,2.3-0.1,3.9-1.6c0.8-0.8,3.5-2.3,4.3-3.4c0.4-0.8,1.2-0.6,1.7-1.2
											c0,0,0.5,0.7,1.5,1.9c-3.1,2.7-5.3,5.8-7.4,8.8L92.4,80.2z"/>
									</g>
								</g>
								<path class="st93" d="M109.5,68.1c0,0,1-1,2.1-1.5c1.1-0.5,2.2-0.3,1.9,1.7c0,0-1,2.4-1.9,5c-0.9,2.5-1.8,5.2-2.6,5.4
									c0,0-1.3,0.3-2,0.7c0,0-0.4-0.3-0.9-0.5c-0.6-0.2-1.3-0.2-1.9,0.5c0,0-1.4,0.9-2.9,1.8c-1.5,0.8-3.1,1.5-3.5,0.9
									c0,0-2.7-0.1-3.6-0.9c0,0-1.7-2.5-2.7-1.9c0,0-4.2-2-2.5-2.9c0,0,0.9-0.9,1.4-1.2c0,0,7.8-0.7,8.4,0.1c0,0,2.3,0.3,4.6-0.4
									C105.6,74.1,108.1,72.5,109.5,68.1"/>
								<path class="st94" d="M109.5,67c0,0,0.6-1.2,1.6-2c0.9-0.8,2.3-1.1,3.1,0.6c0,0,1.2,1,2.1,2.4c0.9,1.3,1.3,3,0.5,4.1
									c0,0-0.4,0.5-1,1.4c-0.6,0.8-1.4,2-2.1,3.2c-1.6,2.4-2.9,5-4.5,5.5c0,0-0.4,0-0.8,1.6c0,0-1.4,1.9-2.7,0.1
									c0,0-0.7-0.5-1.6-1c-0.9-0.4-2-0.7-2.5-0.3c0,0-1.3-1.3-1.8-0.5c0,0,1.4-1.2,2.9-2.2c1.5-1,3.2-1.7,3.7-0.8
									c0,0,0.8,0.4,1.7,0c1-0.5,2-1.8,3.4-5.5c0,0,0.2-1.4,0.1-2.9C111.5,69.2,111,67.5,109.5,67"/>
								<path class="st95" d="M111.9,61.4c0.6-0.7,1.2-1.6,2-2.2c0.4-0.2,1-0.1,1.5-0.2c0.6-0.1,1.2,0.4,1.6,0.7
									c1.7,1.9,4.3,2.4,5.1,4.8c0.2,0.3,0.3,0.4,0.5,0.5c0.1-0.1,0.3-0.2,0.4-0.2c0.7,0.1,1.3,0.4,1.9,0.4c1.1-0.1,1.7,1,2.2,2.2
									c0.3,0.6,0.8,1.1,1.2,1.6c0.7,0.9,0.1,3.3,0.8,3.9c1.1,1.2,2.9,0.1,4.1,1.3c0.7,0.8,1.3,1.4,1.7,2.5
									c0.2,0.9,0.5,1.6,0.7,2.5c0.1,0.2-0.2,1.1-0.3,1.3c-0.2,0.2-0.4-0.1-0.6-0.1c-0.6,0-0.3-1.1-0.3-1.7
									c-0.2-0.7-0.8-0.7-1.3-1.1c-0.2-0.2-0.2-0.5-0.3-1c-0.1-0.7-0.7-0.5-1.2-0.5c-0.7,0.1-1-0.9-1.6-1c-0.8-0.2-1.8,0.8-2.3,0
									c0.4,0.7-2.4-0.5-1.7-0.6c-0.1,0.1-0.1-0.4-0.1-0.7c0.1-0.2,0.1-0.5,0.2-0.6c0.6-0.6,0.9-1.7,1.3-2.6c0-0.1-1.5-0.7-1.8-1.7
									c-0.3-0.8-0.4-1.7-1-2c-0.2,0-0.4,0.5-0.5,0.5c-0.2,0-1.6,0.6-3,1.2c-1.4,0.6-2.8,1.3-3.1,1.1c-0.3-0.3-0.6-1-0.4-1.5
									c0.3-1.4-0.2-2-0.3-3.2c0-0.3,0.2-0.7,0.2-1c-0.1-0.8-0.4-1.9-0.8-2.1c-0.7-0.6-1.7-0.8-2.5-0.6
									C113.4,61.4,112.6,61.4,111.9,61.4"/>
								<path class="st96" d="M100.7,88.3c0,0,0.4-0.6,1.1-1c0.7-0.4,1.7-0.5,2.9,0.4c0,0,0.5,0.2,0.9,0.4c0.5,0.2,0.9,0.3,1.1,0.2
									l0.5,0.3c0,0,0.5,0,1.1-0.3c0.5-0.2,1-0.6,1.1-1.5c0,0,0.8-0.7,1-0.4c0,0,0.2,0,0.4-0.2c0.2-0.3,0.6-0.8,0.9-2"/>
								<path class="st97" d="M125.9,64.6c0.4,0.4,2.1,2.4,2.4,3.4c0.6,1.5,1.1,2.9,1.6,4.6c0.1,0.1,0.2,0.2,0.3,0.1
									c0.8-0.6,1.4,0.2,2.1,0c0.3,0,0.7-0.3,0.9-0.1c1.4,0.9,2.3,2.6,2.7,4.5c0.1,0.8,0,1.8,0,2.7c-0.1,0.2-0.1,0.5-0.2,0.7
									c-0.1,0.2-0.2,0-0.3,0c0-0.2,0-0.5,0-0.7c-0.1-0.5-0.4-0.8-0.4-1.3c-0.1-0.5-0.1-1.1-0.3-1.6c-0.2-0.3-0.3-0.5-0.6-0.7
									c-0.7-0.8-1.6-1.4-2.5-1.7c-0.6,0.5-1-0.2-1.4-0.3c-0.1-0.1-0.2-0.3-0.3-0.4c-0.4-0.2-0.9,0-1-0.6c-0.2-1.3-0.4-2.5-0.8-3.5
									c-0.3-0.8-1.9-3.2-2.5-3.6c-0.7-0.6-1.6-0.4-2.4-0.8C123,65,124.2,63.4,125.9,64.6"/>
							</g>
						</g>
					</g>
				</g>
				<path class="st98" d="M131.8,85.3c0,0,3-8.7,9-9.2c6-0.5,11.2,1.2,13.5,4.6c2.2,3.4,4,10.9,1.2,14.4c-2.7,3.5-6,5.2-9.5,6"/>
				<path class="st98" d="M93.9,85.3c0,0-3-8.7-9-9.2c-6-0.5-11.2,1.2-13.5,4.6c-2.2,3.4-4,10.9-1.2,14.4c2.7,3.5,6,5.2,9.5,6"/>
				<path class="st98" d="M86.7,76c0,0,2-2.7,7.2-5.2c5.2-2.5,14.7-2.7,14.7-2.7c1.7,0,3.6,2.7,3.6,2.7s0.2,0.4,1.2,0
					c0,0,1.9-2.7,3.6-2.7c0,0,9.5,0.3,14.7,2.7C137,73.3,139,76,139,76"/>
				<path class="st98" d="M156.2,93.9c0,0,5.8,6.4,6.1,22.1c0.3,15.7,0,26.7,0,26.7"/>
				<path class="st98" d="M156.2,120.7c0,0-0.9,10.2,9.6,29.5c10.5,19.2-6.5,35.2-6.5,35.2s-7.4,6.7-14.9,8.5
					c-7.6,1.7-26.5,0-26.5,0s-5.5-1.5-8.5,2.5c-3,4-2.2,7-2.2,7s-8.5-1.7-13.7-7c-5.2-5.2-2.2-17.5,1.7-21.2"/>
				<path class="st98" d="M70.9,109.5c0,0,1.5,13.5-4.5,22c-6,8.5-8.7,17.2-8.5,20.5c0.3,3.2-0.2,11.5,3.2,17.2
					c3.5,5.7,11.5,12,11.5,12s5.4,4.7,17.9,5"/>
				<path class="st98" d="M64.7,133.9v-22.4c0,0,0.6-11.1,5.1-17.6"/>
				<path class="st98" d="M103.1,81.8c0,0,0.3,7.5-2.5,10.7c-2.7,3.2-12.3,11.2-13.9,13c-1.6,1.7-3.8,3.8-3.8,8.4v21.3
					c0,0-1.5,7.5,8,10.7"/>
				<path class="st98" d="M123.4,81.8c0,0-0.3,7.5,2.5,10.7c2.7,3.2,12.3,11.2,13.9,13c1.6,1.7,3.8,3.8,3.8,8.4v21.3
					c0,0,1.5,7.5-8,10.7"/>
				<line class="st98" x1="93.1" y1="116.8" x2="87.5" y2="116.8"/>
				<path class="st98" d="M136,142v12c0,0-1.6,6-4.6,6.5c-3,0.5-16.5-7.2-16.5-7.2L101.3,142v-17.7"/>
				<path class="st98" d="M101.3,116.8v7.5c-0.6,0.2-1.3,0.3-2,0.3c-3.5,0-6.3-2.8-6.3-6.3c0-0.5,0.1-1,0.2-1.5H101.3z"/>
				<line class="st98" x1="139" y1="116.8" x2="133.4" y2="116.8"/>
				<path class="st98" d="M125.3,124.3V142l-13.7,11.2c0,0-13.5,7.7-16.5,7.2c-3-0.5-4.6-6.5-4.6-6.5v-12"/>
				<path class="st98" d="M125.3,116.8v7.5c0.6,0.2,1.3,0.3,2,0.3c3.5,0,6.3-2.8,6.3-6.3c0-0.5-0.1-1-0.2-1.5H125.3z"/>
				<line class="st98" x1="101.3" y1="142" x2="125.3" y2="142"/>
				<path class="st98" d="M128.3,160.1c0,0-1.1,6.8-4.2,8.8c0,0-5.4,1.7-13.1,1.7h3.3c-7.7,0-13.1-1.7-13.1-1.7
					c-3.1-2-4.2-8.8-4.2-8.8"/>
				<circle class="st98" cx="169.8" cy="203.1" r="13.6"/>
				<path class="st98" d="M179,193.1c0,0-6.9-18.4-3.4-27.6c3.5-9.2,11.2-13.6,18.2-13.4c7,0.2,17,1,21.5,7.9c4.5,7,2.2,18.7,0,24
					c-2.2,5.2-10.5,21.7-11,24.2c-0.5,2.5-2.2,10.7,0.7,15.2c3,4.5,7.7,8.2,12.8,7.2c5.1-1,8.6-5.2,9.6-7c1-1.7,1.2-4.5,0.7-7"/>
			</g>
		</g>
	</g>
</g>
</svg>
