<?xml version="1.0" encoding="utf-8"?>
<!-- Generator: Adobe Illustrator 22.1.0, SVG Export Plug-In . SVG Version: 6.00 Build 0)  -->
<svg version="1.1" id="Calque_1" xmlns="http://www.w3.org/2000/svg" xmlns:xlink="http://www.w3.org/1999/xlink" x="0px" y="0px"
	 viewBox="0 0 288 288" style="enable-background:new 0 0 288 288;" xml:space="preserve">
<style type="text/css">
	.st0{display:none;fill:#6B1E1E;}
	.st1{fill:#FFFFFF;}
	.st2{opacity:0.9;}
	.st3{fill:#D0ECC9;}
	.st4{opacity:0.9;fill:#91D182;}
	.st5{fill:#A5D998;}
	.st6{fill:#BBE3B1;}
	.st7{fill:#E2F3DE;}
	.st8{fill:none;stroke:#B6E1AB;stroke-width:0;}
	.st9{fill:#F4FAF2;}
	.st10{fill:#DFCAEB;}
	.st11{opacity:0.9;fill:#B582D0;}
	.st12{fill:#C298D9;}
	.st13{fill:#D1B1E2;}
	.st14{fill:#EBDEF3;}
	.st15{fill:none;stroke:#CEABE0;stroke-width:0;}
	.st16{fill:#F7F2FA;}
	.st17{fill:#F9CCF0;}
	.st18{opacity:0.9;fill:#F288DB;}
	.st19{fill:#F49DE1;}
	.st20{fill:#F7B5E9;}
	.st21{fill:#FCDFF5;}
	.st22{fill:none;stroke:#F6AFE7;stroke-width:0;}
	.st23{fill:#FEF3FB;}
	.st24{fill:none;stroke:#1E1719;stroke-miterlimit:10;}
	.st25{fill:none;stroke:#231F20;stroke-miterlimit:10;}
</style>
<rect x="-11" y="-13" class="st0" width="309" height="320"/>
<g>
	<path class="st1" d="M91.8,9.2L107.6,30l3.2-25.9l2.7-0.7l-4,29.6l-2.3,0.6L89,9.9L91.8,9.2z"/>
	<path class="st1" d="M120.1,6l-0.5-3.9l2.6-0.3l0.5,3.9L120.1,6z M123.3,30.2l-2.7-20.1l2.6-0.3l2.7,20.1L123.3,30.2z"/>
	<path class="st1" d="M140.4,10.9c-1.8,0.1-3.3,0.7-4.6,1.7c-1.3,1-2.1,2.3-2.6,4l0.6,12.6l-2.6,0.1l-1-20.2l2.5-0.1l0.2,4.9
		c0.7-1.6,1.6-2.9,2.8-3.8c1.2-0.9,2.6-1.4,4-1.5c0.2,0,0.4,0,0.5,0L140.4,10.9z"/>
	<path class="st1" d="M151.1,29.6c-1.4-0.1-2.6-0.5-3.7-1.2s-2-1.5-2.8-2.5c-0.8-1-1.3-2.2-1.7-3.5s-0.5-2.6-0.4-3.9
		c0.1-1.4,0.4-2.7,1-4c0.6-1.2,1.3-2.3,2.2-3.2c0.9-0.9,2-1.6,3.1-2c1.2-0.5,2.5-0.7,3.9-0.5c1.7,0.1,3.2,0.7,4.4,1.7
		c1.2,1,2.2,2.1,3,3.5l0.3-4.2l2.4,0.2l-1.6,20.3c-0.1,1.4-0.5,2.6-1.1,3.6c-0.6,1-1.4,1.9-2.3,2.5c-0.9,0.6-2,1.1-3.3,1.4
		c-1.2,0.3-2.5,0.3-3.9,0.2c-2.3-0.2-4.2-0.8-5.5-1.7c-1.4-0.9-2.4-2.1-3.2-3.6l1.7-1.1c0.7,1.4,1.7,2.4,2.9,3.1
		c1.3,0.7,2.7,1.1,4.2,1.3c1,0.1,1.9,0,2.8-0.2c0.9-0.2,1.7-0.5,2.4-1c0.7-0.5,1.3-1.1,1.7-1.9s0.7-1.7,0.8-2.8l0.3-4
		c-0.9,1.2-2,2.2-3.4,2.8C154,29.4,152.5,29.7,151.1,29.6z M152,27.4c0.8,0.1,1.5,0,2.3-0.2c0.8-0.2,1.5-0.5,2.1-1
		c0.6-0.4,1.2-0.9,1.7-1.5c0.5-0.6,0.8-1.1,1-1.8l0.5-6.2c-0.2-0.7-0.6-1.4-1-2.1c-0.4-0.7-1-1.2-1.5-1.7s-1.2-0.9-1.9-1.2
		c-0.7-0.3-1.4-0.5-2.1-0.6c-1.1-0.1-2.2,0.1-3.1,0.5c-0.9,0.4-1.7,1-2.4,1.7c-0.7,0.7-1.2,1.6-1.6,2.5c-0.4,1-0.6,1.9-0.7,2.9
		c-0.1,1.1,0,2.1,0.3,3.1c0.3,1,0.8,1.9,1.4,2.7c0.6,0.8,1.4,1.4,2.2,1.9C150,27,150.9,27.3,152,27.4z"/>
	<path class="st1" d="M174,33.5c-1.4-0.4-2.7-1-3.7-1.8c-1-0.8-1.9-1.8-2.5-3c-0.6-1.2-1-2.4-1.2-3.8c-0.2-1.4-0.1-2.7,0.3-4.1
		c0.4-1.4,0.9-2.6,1.8-3.7c0.8-1.1,1.8-2,2.9-2.7s2.3-1.2,3.6-1.4c1.3-0.2,2.7-0.2,4.1,0.2c1.4,0.4,2.6,1,3.7,1.8
		c1,0.9,1.9,1.9,2.5,3c0.6,1.2,1,2.4,1.2,3.8s0.1,2.7-0.3,4.1c-0.4,1.4-0.9,2.6-1.7,3.7c-0.8,1.1-1.8,2-2.9,2.7
		c-1.1,0.7-2.3,1.2-3.7,1.4S175.4,33.9,174,33.5z M169.5,21.6c-0.3,1.1-0.4,2.2-0.2,3.2s0.4,2,0.9,2.9c0.5,0.9,1.1,1.6,1.8,2.3
		c0.8,0.6,1.6,1.1,2.6,1.3c1,0.3,2,0.3,2.9,0.1s1.9-0.6,2.7-1.1s1.6-1.2,2.2-2.1c0.6-0.9,1.1-1.8,1.4-2.9c0.3-1.1,0.4-2.1,0.2-3.2
		c-0.1-1.1-0.4-2-0.9-2.9s-1.1-1.6-1.8-2.3c-0.8-0.6-1.6-1.1-2.6-1.3c-1-0.3-1.9-0.3-2.9-0.1c-1,0.2-1.9,0.6-2.7,1.1
		c-0.8,0.6-1.6,1.3-2.2,2.1C170.3,19.5,169.8,20.5,169.5,21.6z"/>
</g>
<circle class="st1" cx="141.6" cy="157" r="128"/>
<g>
	<g>
		<g>
			<g>
				<g>
					<g class="st2">
						<g class="st2">
							<path class="st3" d="M91.5,113.9c0.2-2-2.4-2.9-2.6-3.5c-0.6-1-2.5-0.7-4.3-0.3c-1.8,0.4-3.4,0.8-3.2,0.4
								c0.4-1.2,1.1-7.6,0.7-8c-0.9-1.1-2.3-0.5-4,1.1c-0.8,0.7-1.1,1.2-1.2,1c-0.1-0.1-1.2,2.1-2.3,3c-0.7,0.6-1.2,0-2,0.7
								c-1.3,0.9-4.4,0.9-5.6,1.1c-2.3,0.4-3.4,0.1-4.2-1.5c-0.5-1.3-1.6-1.3-2.3-2.2c-0.8-0.9-1.6-1.2-2.3-2.1
								c-0.4-1.2-0.9-2.1-1.7-2.8c-0.2-0.1-0.3-0.1-0.6,0c-0.2,0.1-0.4-0.2-0.5-0.3c-0.3-1,0.2-2.4-0.5-2.9
								c-0.2-0.2-0.9-0.1-1.3,0.3c-2,1.9-3.3,3.8-4.1,5.7c-0.7,1.8,0.1,2.8,0.6,4c0.4,0.8,0.3,2.1-0.2,3.5c-0.4,1.4-1.1,3.1-1.8,4.6
								c-1.2,2.4-3.3,5.8-1.7,6.9c2,1.1,4.7,0.5,5.8,2.7c0.7,1.6,1.3,3,2.5,4.2c0.1,0.3,0.7,1.1,0.9,1.3c1.7,0.6,3.1,2.3,5.2,0.6
								c2,0,2.5,1.3,4.4,0.3c2.5-1.4,5-3.2,7-3.2c1.2,0,2.1,0.2,3,0.9c0.3,0.2,0.9,2.8,1.1,3.6c0.3,1.5,1.7,0.9,2.7,0.1
								c1.6-1.6,3.1-2.6,4.6-3.3c0.5,0,0.8,0.7,1.3,0.8c1.3-0.1,2.5-1.4,3.8-2c4.2-0.5,3.9-1.8,4-1.6c0.4,0.1,0.3,1.4,0.7,1.8
								c0.6,0.3,1.5-0.3,2.2-1c1-0.9,2-1.9,2.9-2.6c0.9-0.7,1.7-1,2.8-0.8c-0.2-0.2-0.4-0.6-0.5-0.6c-1.5-0.4-2.3-1.7-3.1-2.7
								c-0.4-0.5-0.7-1-1.2-1.4c-0.4-0.4-1-0.6-1.6-0.7c-0.3,0.2-0.6,0.4-0.9,0.4c-0.5-0.1-1-0.1-1.5,0
								C91.9,119.3,91.3,115.7,91.5,113.9z"/>
							<path class="st4" d="M50.2,107.4c-0.6-1.2-1.4-2.2-0.6-4c0.8-1.9,2.1-3.8,4.1-5.7c0.4-0.4,1.1-0.4,1.3-0.3
								c0.7,0.5,0.2,2,0.5,2.9c0.2,0.1,0.3,0.3,0.5,0.3c0.2-0.1,0.4,0,0.6,0c0.8,0.8,1.3,1.7,1.7,2.8c0.7,0.9,1.5,1.2,2.3,2.1
								c0.7,0.9,1.8,0.9,2.3,2.2c0.8,1.5,1.8,1.8,4.2,1.4c1.2-0.2,4.3-0.2,5.6-1.1c0.8-0.7,1.2-0.1,2-0.7c0,0-0.1,1.1,0.1,3
								c-4,2.1-8.2,3.9-12.9,5.1C57.6,113.4,53.7,110.7,50.2,107.4z"/>
							<path class="st5" d="M73.7,109.7c0,0,1.4-0.8,2.4-1c1-0.2,1.8,0.2,0.8,2.7c0,0-1.8,2.9-4.1,5.6c-2.3,2.7-5,5.2-6.3,4.8
								c0,0-1.9-0.6-2.9-0.8c0,0-0.2-0.7-0.6-1.3c-0.5-0.7-1.2-1.3-2.5-1.2c0,0-2.2-0.3-4.4-1.1c-2.2-0.7-4.3-2-4-2.9
								c0,0-0.1-0.2-0.3-0.5c-0.2-0.3-0.5-0.7-0.7-1.2c-0.5-1-0.9-2.2-0.7-3c0,0,0.4-0.9,0.7-1.9c0.3-1,0.4-2-0.2-2.4
								c0,0,0-1.5,0.3-2.8c0.3-1.3,0.9-2.3,1.8-1.8c0,0,1.4,0.3,2,0.6c0,0,1.1,1.8,2.3,3.6c1.3,1.8,2.7,3.8,2.6,4.4
								c0,0,0.3,0.6,1,1.3c0.7,0.8,1.7,1.7,3,2.3C66.3,114.4,70.2,114.3,73.7,109.7z"/>
							<path class="st6" d="M74.4,108.4c0,0,1.1-1.2,2.2-1.8c1.1-0.6,2.1-0.7,2,1.5c0,0,0.5,1.5,0.9,3.4c0.3,1.9,0.5,4.1-0.6,5.4
								c0,0-2.1,2.7-5.1,5.1c-2.9,2.5-6.8,4.6-9.5,3.8c0,0-0.5-0.2-2.4,1.1c0,0-0.9,0.2-1.9-0.1c-0.9-0.2-1.9-0.9-1.8-2.4
								c0,0-0.4-1.3-1-2.6c-0.6-1.3-1.3-2.6-2.2-2.8c0,0,0-0.6-0.1-1.2c-0.1-0.6-0.4-1.2-1.1-1c0,0,2.5,0.4,4.9,0.9
								c2.4,0.5,4.7,1.2,4.6,2.5c0,0,0.5,1.1,2,1.3c1.5,0.2,4-0.5,7.4-4.4c0,0,0.9-1.6,1.5-3.5C74.8,111.9,75.2,109.6,74.4,108.4z"
								/>
							<path class="st7" d="M78.9,102.3c0.7-0.7,1.5-1.7,2.1-2.3c0.3-0.2,0.6,0,0.9-0.1c0.4,0,0.6,0.6,0.7,1
								c0.5,2.5,2.4,3.1,2.7,6.2c0.1,0.4,0.2,0.6,0.4,0.7c0.1-0.1,0.3-0.2,0.4-0.3c0.6,0.1,1.2,0.4,1.8,0.3c1.1-0.3,1.7,1.1,2.3,2.6
								c0.3,0.8,0.9,1.3,1.3,2c0.8,1.1,0.1,4.3,1,5c0.6,0.7,1.4,0.6,2.2,0.5c0.4-0.1,0.8-0.1,1.2-0.1c0.4,0,0.8,0.1,1,0.4
								c0.6,0.8,1.1,1.2,1.6,2.2c0.4,1,0.9,1.5,1.7,2.2c0.2,0.1,1,1,1.1,1.3c0.1,0.4-0.4,0.4-0.6,0.6c-0.3,0.4-0.7,0.2-1-0.2
								c-0.3-0.4-0.5-0.9-0.7-1.2c-0.5-0.6-1.1-0.3-1.7-0.6c-0.2-0.2-0.4-0.6-0.5-1.1c-0.2-0.8-0.7-0.4-1.3-0.2
								c-0.7,0.3-1.2-0.9-1.9-0.9c-0.9-0.2-2,1.3-2.6,0.4c0.5,0.8-2.7-0.4-2-0.6C89,120,89,119.4,89,119c0.1-0.3,0.1-0.7,0.2-0.8
								c0.7-0.8,1-2.4,1.5-3.6c0-0.2-1.7-0.8-2.1-2c-0.3-1-0.4-2.2-1-2.5c-0.2,0-0.4,0.6-0.6,0.7c-0.2,0-1.7,0.9-3.2,1.8
								c-1.5,0.9-3.1,1.7-3.3,1.4c-0.2-0.4-0.3-1.4,0-2c0.6-1.7,0.3-2.7,0.6-4.2c0.1-0.4,0.4-0.8,0.4-1.2c0.2-1.1,0.3-2.4,0.1-2.7
								c-0.3-0.8-0.8-1.2-1.4-1L78.9,102.3z"/>
							<path class="st8" d="M48.2,122.9c0,0,1,0,2.1,0.4c1.1,0.5,2.3,1.4,2.8,3.6c0,0,0.4,0.7,0.8,1.4c0.5,0.7,1,1.4,1.3,1.4
								l0.5,0.9c0,0,0.9,0.6,1.9,0.9c1.1,0.4,2.4,0.5,3.1-0.4c0,0,0.5,0,1.1,0.1c0.5,0.1,1.1,0.2,1.1,0.4c0,0,0.3,0.2,1,0.1
								c0.7-0.1,1.7-0.4,3.1-1.6"/>
							<path class="st9" d="M89.2,106.8c0.4,0.4,2.1,2.9,2.5,4.1c0.6,1.9,1.2,3.7,1.8,5.8c0.1,0.1,0.2,0.2,0.3,0.1
								c0.9-0.9,1.5,0,2.2-0.4c0.3-0.1,0.6-0.5,0.9-0.4c1.3,0.7,1.4,2.2,2.2,4.1c0.3,0.8,0.9,1.9,1.8,2.6c0.2,0.2,0.5,0.4,0.7,0.7
								c0.2,0.2-0.2,0.2-0.3,0.4c-0.3-0.1-0.5-0.4-0.8-0.5c-0.5-0.4-1-0.3-1.3-0.9c-0.4-0.5-0.6-1.2-0.9-1.7
								c-0.2-0.3-0.3-0.4-0.5-0.5c-0.7-0.6-1.5-1.1-2.6-1.3c-0.6,0.8-1.1,0-1.6-0.1c-0.1-0.1-0.2-0.3-0.4-0.5
								c-0.4-0.2-1,0.1-1.1-0.7c-0.2-1.7-0.5-3.2-1-4.5c-0.4-1.1-2.1-4-2.6-4.5c-0.7-0.8-1.6-0.3-2.3-0.8
								C86.3,107.7,87.5,105.5,89.2,106.8z"/>
						</g>
					</g>
				</g>
			</g>
		</g>
		<g>
			<g>
				<g>
					<g class="st2">
						<g class="st2">
							<path class="st3" d="M134.7,113.9c0.2-2-2.4-2.9-2.6-3.5c-0.6-1-2.5-0.7-4.3-0.3c-1.8,0.4-3.4,0.8-3.2,0.4
								c0.4-1.2,1.1-7.6,0.7-8c-0.9-1.1-2.3-0.5-4,1.1c-0.8,0.7-1.1,1.2-1.2,1c-0.1-0.1-1.2,2.1-2.3,3c-0.7,0.6-1.2,0-2,0.7
								c-1.3,0.9-4.4,0.9-5.6,1.1c-2.3,0.4-3.4,0.1-4.2-1.5c-0.5-1.3-1.6-1.3-2.3-2.2c-0.8-0.9-1.6-1.2-2.3-2.1
								c-0.4-1.2-0.9-2.1-1.7-2.8c-0.2-0.1-0.3-0.1-0.6,0c-0.2,0.1-0.4-0.2-0.5-0.3c-0.3-1,0.2-2.4-0.5-2.9
								c-0.2-0.2-0.9-0.1-1.3,0.3c-2,1.9-3.3,3.8-4.1,5.7c-0.7,1.8,0.1,2.8,0.6,4c0.4,0.8,0.3,2.1-0.2,3.5c-0.4,1.4-1.1,3.1-1.8,4.6
								c-1.2,2.4-3.3,5.8-1.7,6.9c2,1.1,4.7,0.5,5.8,2.7c0.7,1.6,1.3,3,2.5,4.2c0.1,0.3,0.7,1.1,0.9,1.3c1.7,0.6,3.1,2.3,5.2,0.6
								c2,0,2.5,1.3,4.4,0.3c2.5-1.4,5-3.2,7-3.2c1.2,0,2.1,0.2,3,0.9c0.3,0.2,0.9,2.8,1.1,3.6c0.3,1.5,1.7,0.9,2.7,0.1
								c1.6-1.6,3.1-2.6,4.6-3.3c0.5,0,0.8,0.7,1.3,0.8c1.3-0.1,2.5-1.4,3.8-2c4.2-0.5,3.9-1.8,4-1.6c0.4,0.1,0.3,1.4,0.7,1.8
								c0.6,0.3,1.5-0.3,2.2-1c1-0.9,2-1.9,2.9-2.6c0.9-0.7,1.7-1,2.8-0.8c-0.2-0.2-0.4-0.6-0.5-0.6c-1.5-0.4-2.3-1.7-3.1-2.7
								c-0.4-0.5-0.7-1-1.2-1.4c-0.4-0.4-1-0.6-1.6-0.7c-0.3,0.2-0.6,0.4-0.9,0.4c-0.5-0.1-1-0.1-1.5,0
								C135,119.3,134.5,115.7,134.7,113.9z"/>
							<path class="st4" d="M93.4,107.4c-0.6-1.2-1.4-2.2-0.6-4c0.8-1.9,2.1-3.8,4.1-5.7c0.4-0.4,1.1-0.4,1.3-0.3
								c0.7,0.5,0.2,2,0.5,2.9c0.2,0.1,0.3,0.3,0.5,0.3c0.2-0.1,0.4,0,0.6,0c0.8,0.8,1.3,1.7,1.7,2.8c0.7,0.9,1.5,1.2,2.3,2.1
								c0.7,0.9,1.8,0.9,2.3,2.2c0.8,1.5,1.8,1.8,4.2,1.4c1.2-0.2,4.3-0.2,5.6-1.1c0.8-0.7,1.2-0.1,2-0.7c0,0-0.1,1.1,0.1,3
								c-4,2.1-8.2,3.9-12.9,5.1C100.8,113.4,96.9,110.7,93.4,107.4z"/>
							<path class="st5" d="M116.9,109.7c0,0,1.4-0.8,2.4-1c1-0.2,1.8,0.2,0.8,2.7c0,0-1.8,2.9-4.1,5.6c-2.3,2.7-5,5.2-6.3,4.8
								c0,0-1.9-0.6-2.9-0.8c0,0-0.2-0.7-0.6-1.3c-0.5-0.7-1.2-1.3-2.5-1.2c0,0-2.2-0.3-4.4-1.1c-2.2-0.7-4.3-2-4-2.9
								c0,0-0.1-0.2-0.3-0.5c-0.2-0.3-0.5-0.7-0.7-1.2c-0.5-1-0.9-2.2-0.7-3c0,0,0.4-0.9,0.7-1.9c0.3-1,0.4-2-0.2-2.4
								c0,0,0-1.5,0.3-2.8c0.3-1.3,0.9-2.3,1.8-1.8c0,0,1.4,0.3,2,0.6c0,0,1.1,1.8,2.3,3.6c1.3,1.8,2.7,3.8,2.6,4.4
								c0,0,0.3,0.6,1,1.3c0.7,0.8,1.7,1.7,3,2.3C109.5,114.4,113.3,114.3,116.9,109.7z"/>
							<path class="st6" d="M117.6,108.4c0,0,1.1-1.2,2.2-1.8c1.1-0.6,2.1-0.7,2,1.5c0,0,0.5,1.5,0.9,3.4c0.3,1.9,0.5,4.1-0.6,5.4
								c0,0-2.1,2.7-5.1,5.1c-2.9,2.5-6.8,4.6-9.5,3.8c0,0-0.5-0.2-2.4,1.1c0,0-0.9,0.2-1.9-0.1c-0.9-0.2-1.9-0.9-1.8-2.4
								c0,0-0.4-1.3-1-2.6c-0.6-1.3-1.3-2.6-2.2-2.8c0,0,0-0.6-0.1-1.2c-0.1-0.6-0.4-1.2-1.1-1c0,0,2.5,0.4,4.9,0.9
								c2.4,0.5,4.7,1.2,4.6,2.5c0,0,0.5,1.1,2,1.3c1.5,0.2,4-0.5,7.4-4.4c0,0,0.9-1.6,1.5-3.5C118,111.9,118.4,109.6,117.6,108.4z"
								/>
							<path class="st7" d="M122.1,102.3c0.7-0.7,1.5-1.7,2.1-2.3c0.3-0.2,0.6,0,0.9-0.1c0.4,0,0.6,0.6,0.7,1
								c0.5,2.5,2.4,3.1,2.7,6.2c0.1,0.4,0.2,0.6,0.4,0.7c0.1-0.1,0.3-0.2,0.4-0.3c0.6,0.1,1.2,0.4,1.8,0.3c1.1-0.3,1.7,1.1,2.3,2.6
								c0.3,0.8,0.9,1.3,1.3,2c0.8,1.1,0.1,4.3,1,5c0.6,0.7,1.4,0.6,2.2,0.5c0.4-0.1,0.8-0.1,1.2-0.1c0.4,0,0.8,0.1,1,0.4
								c0.6,0.8,1.1,1.2,1.6,2.2c0.4,1,0.9,1.5,1.7,2.2c0.2,0.1,1,1,1.1,1.3c0.1,0.4-0.4,0.4-0.6,0.6c-0.3,0.4-0.7,0.2-1-0.2
								c-0.3-0.4-0.5-0.9-0.7-1.2c-0.5-0.6-1.1-0.3-1.7-0.6c-0.2-0.2-0.4-0.6-0.5-1.1c-0.2-0.8-0.7-0.4-1.3-0.2
								c-0.7,0.3-1.2-0.9-1.9-0.9c-0.9-0.2-2,1.3-2.6,0.4c0.5,0.8-2.7-0.4-2-0.6c-0.1,0.1-0.1-0.5-0.1-0.9c0.1-0.3,0.1-0.7,0.2-0.8
								c0.7-0.8,1-2.4,1.5-3.6c0-0.2-1.7-0.8-2.1-2c-0.3-1-0.4-2.2-1-2.5c-0.2,0-0.4,0.6-0.6,0.7c-0.2,0-1.7,0.9-3.2,1.8
								c-1.5,0.9-3.1,1.7-3.3,1.4c-0.2-0.4-0.3-1.4,0-2c0.6-1.7,0.3-2.7,0.6-4.2c0.1-0.4,0.4-0.8,0.4-1.2c0.2-1.1,0.3-2.4,0.1-2.7
								c-0.3-0.8-0.8-1.2-1.4-1L122.1,102.3z"/>
							<path class="st8" d="M91.3,122.9c0,0,1,0,2.1,0.4c1.1,0.5,2.3,1.4,2.8,3.6c0,0,0.4,0.7,0.8,1.4c0.5,0.7,1,1.4,1.3,1.4
								l0.5,0.9c0,0,0.9,0.6,1.9,0.9c1.1,0.4,2.4,0.5,3.1-0.4c0,0,0.5,0,1.1,0.1c0.5,0.1,1.1,0.2,1.1,0.4c0,0,0.3,0.2,1,0.1
								c0.7-0.1,1.7-0.4,3.1-1.6"/>
							<path class="st9" d="M132.4,106.8c0.4,0.4,2.1,2.9,2.5,4.1c0.6,1.9,1.2,3.7,1.8,5.8c0.1,0.1,0.2,0.2,0.3,0.1
								c0.9-0.9,1.5,0,2.2-0.4c0.3-0.1,0.6-0.5,0.9-0.4c1.3,0.7,1.4,2.2,2.2,4.1c0.3,0.8,0.9,1.9,1.8,2.6c0.2,0.2,0.5,0.4,0.7,0.7
								c0.2,0.2-0.2,0.2-0.3,0.4c-0.3-0.1-0.5-0.4-0.8-0.5c-0.5-0.4-1-0.3-1.3-0.9c-0.4-0.5-0.6-1.2-0.9-1.7
								c-0.2-0.3-0.3-0.4-0.5-0.5c-0.7-0.6-1.5-1.1-2.6-1.3c-0.6,0.8-1.1,0-1.6-0.1c-0.1-0.1-0.2-0.3-0.4-0.5
								c-0.4-0.2-1,0.1-1.1-0.7c-0.2-1.7-0.5-3.2-1-4.5c-0.4-1.1-2.1-4-2.6-4.5c-0.7-0.8-1.6-0.3-2.3-0.8
								C129.5,107.7,130.7,105.5,132.4,106.8z"/>
						</g>
					</g>
				</g>
			</g>
		</g>
		<g>
			<g>
				<g>
					<g class="st2">
						<g class="st2">
							<path class="st3" d="M177,116.9c0.2-2-2.4-2.9-2.6-3.5c-0.6-1-2.5-0.7-4.3-0.3c-1.8,0.4-3.4,0.8-3.2,0.4
								c0.4-1.2,1.1-7.6,0.7-8c-0.9-1.1-2.3-0.5-4,1.1c-0.8,0.7-1.1,1.2-1.2,1c-0.1-0.1-1.2,2.1-2.3,3c-0.7,0.6-1.2,0-2,0.7
								c-1.3,0.9-4.4,0.9-5.6,1.1c-2.3,0.4-3.4,0.1-4.2-1.5c-0.5-1.3-1.6-1.3-2.3-2.2c-0.8-0.9-1.6-1.2-2.3-2.1
								c-0.4-1.2-0.9-2.1-1.7-2.8c-0.2-0.1-0.3-0.1-0.6,0c-0.2,0.1-0.4-0.2-0.5-0.3c-0.3-1,0.2-2.4-0.5-2.9
								c-0.2-0.2-0.9-0.1-1.3,0.3c-2,1.9-3.3,3.8-4.1,5.7c-0.7,1.8,0.1,2.8,0.6,4c0.4,0.8,0.3,2.1-0.2,3.5c-0.4,1.4-1.1,3.1-1.8,4.6
								c-1.2,2.4-3.3,5.8-1.7,6.9c2,1.1,4.7,0.5,5.8,2.7c0.7,1.6,1.3,3,2.5,4.2c0.1,0.3,0.7,1.1,0.9,1.3c1.7,0.6,3.1,2.3,5.2,0.6
								c2,0,2.5,1.3,4.4,0.3c2.5-1.4,5-3.2,7-3.2c1.2,0,2.1,0.2,3,0.9c0.3,0.2,0.9,2.8,1.1,3.6c0.3,1.5,1.7,0.9,2.7,0.1
								c1.6-1.6,3.1-2.6,4.6-3.3c0.5,0,0.8,0.7,1.3,0.8c1.3-0.1,2.5-1.4,3.8-2c4.2-0.5,3.9-1.8,4-1.6c0.4,0.1,0.3,1.4,0.7,1.8
								c0.6,0.3,1.5-0.3,2.2-1c1-0.9,2-1.9,2.9-2.6c0.9-0.7,1.7-1,2.8-0.8c-0.2-0.2-0.4-0.6-0.5-0.6c-1.5-0.4-2.3-1.7-3.1-2.7
								c-0.4-0.5-0.7-1-1.2-1.4c-0.4-0.4-1-0.6-1.6-0.7c-0.3,0.2-0.6,0.4-0.9,0.4c-0.5-0.1-1-0.1-1.5,0
								C177.4,122.4,176.8,118.7,177,116.9z"/>
							<path class="st4" d="M135.7,110.4c-0.6-1.2-1.4-2.2-0.6-4c0.8-1.9,2.1-3.8,4.1-5.7c0.4-0.4,1.1-0.4,1.3-0.3
								c0.7,0.5,0.2,2,0.5,2.9c0.2,0.1,0.3,0.3,0.5,0.3c0.2-0.1,0.4,0,0.6,0c0.8,0.8,1.3,1.7,1.7,2.8c0.7,0.9,1.5,1.2,2.3,2.1
								c0.7,0.9,1.8,0.9,2.3,2.2c0.8,1.5,1.8,1.8,4.2,1.4c1.2-0.2,4.3-0.2,5.6-1.1c0.8-0.7,1.2-0.1,2-0.7c0,0-0.1,1.1,0.1,3
								c-4,2.1-8.2,3.9-12.9,5.1C143.2,116.4,139.2,113.8,135.7,110.4z"/>
							<path class="st5" d="M159.3,112.7c0,0,1.4-0.8,2.4-1c1-0.2,1.8,0.2,0.8,2.7c0,0-1.8,2.9-4.1,5.6c-2.3,2.7-5,5.2-6.3,4.8
								c0,0-1.9-0.6-2.9-0.8c0,0-0.2-0.7-0.6-1.3c-0.5-0.7-1.2-1.3-2.5-1.2c0,0-2.2-0.3-4.4-1.1c-2.2-0.7-4.3-2-4-2.9
								c0,0-0.1-0.2-0.3-0.5c-0.2-0.3-0.5-0.7-0.7-1.2c-0.5-1-0.9-2.2-0.7-3c0,0,0.4-0.9,0.7-1.9c0.3-1,0.4-2-0.2-2.4
								c0,0,0-1.5,0.3-2.8c0.3-1.3,0.9-2.3,1.8-1.8c0,0,1.4,0.3,2,0.6c0,0,1.1,1.8,2.3,3.6c1.3,1.8,2.7,3.8,2.6,4.4
								c0,0,0.3,0.6,1,1.3c0.7,0.8,1.7,1.7,3,2.3C151.8,117.4,155.7,117.3,159.3,112.7z"/>
							<path class="st6" d="M159.9,111.4c0,0,1.1-1.2,2.2-1.8c1.1-0.6,2.1-0.7,2,1.5c0,0,0.5,1.5,0.9,3.4c0.3,1.9,0.5,4.1-0.6,5.4
								c0,0-2.1,2.7-5.1,5.1c-2.9,2.5-6.8,4.6-9.5,3.8c0,0-0.5-0.2-2.4,1.1c0,0-0.9,0.2-1.9-0.1c-0.9-0.2-1.9-0.9-1.8-2.4
								c0,0-0.4-1.3-1-2.6c-0.6-1.3-1.3-2.6-2.2-2.8c0,0,0-0.6-0.1-1.2c-0.1-0.6-0.4-1.2-1.1-1c0,0,2.5,0.4,4.9,0.9
								c2.4,0.5,4.7,1.2,4.6,2.5c0,0,0.5,1.1,2,1.3c1.5,0.2,4-0.5,7.4-4.4c0,0,0.9-1.6,1.5-3.5C160.4,114.9,160.8,112.7,159.9,111.4
								z"/>
							<path class="st7" d="M164.4,105.3c0.7-0.7,1.5-1.7,2.1-2.3c0.3-0.2,0.6,0,0.9-0.1c0.4,0,0.6,0.6,0.7,1
								c0.5,2.5,2.4,3.1,2.7,6.2c0.1,0.4,0.2,0.6,0.4,0.7c0.1-0.1,0.3-0.2,0.4-0.3c0.6,0.1,1.2,0.4,1.8,0.3c1.1-0.3,1.7,1.1,2.3,2.6
								c0.3,0.8,0.9,1.3,1.3,2c0.8,1.1,0.1,4.3,1,5c0.6,0.7,1.4,0.6,2.2,0.5c0.4-0.1,0.8-0.1,1.2-0.1c0.4,0,0.8,0.1,1,0.4
								c0.6,0.8,1.1,1.2,1.6,2.2c0.4,1,0.9,1.5,1.7,2.2c0.2,0.1,1,1,1.1,1.3c0.1,0.4-0.4,0.4-0.6,0.6c-0.3,0.4-0.7,0.2-1-0.2
								c-0.3-0.4-0.5-0.9-0.7-1.2c-0.5-0.6-1.1-0.3-1.7-0.6c-0.2-0.2-0.4-0.6-0.5-1.1c-0.2-0.8-0.7-0.4-1.3-0.2
								c-0.7,0.3-1.2-0.9-1.9-0.9c-0.9-0.2-2,1.3-2.6,0.4c0.5,0.8-2.7-0.4-2-0.6c-0.1,0.1-0.1-0.5-0.1-0.9c0.1-0.3,0.1-0.7,0.2-0.8
								c0.7-0.8,1-2.4,1.5-3.6c0-0.2-1.7-0.8-2.1-2c-0.3-1-0.4-2.2-1-2.5c-0.2,0-0.4,0.6-0.6,0.7c-0.2,0-1.7,0.9-3.2,1.8
								c-1.5,0.9-3.1,1.7-3.3,1.4c-0.2-0.4-0.3-1.4,0-2c0.6-1.7,0.3-2.7,0.6-4.2c0.1-0.4,0.4-0.8,0.4-1.2c0.2-1.1,0.3-2.4,0.1-2.7
								c-0.3-0.8-0.8-1.2-1.4-1L164.4,105.3z"/>
							<path class="st8" d="M133.7,126c0,0,1,0,2.1,0.4c1.1,0.5,2.3,1.4,2.8,3.6c0,0,0.4,0.7,0.8,1.4c0.5,0.7,1,1.4,1.3,1.4l0.5,0.9
								c0,0,0.9,0.6,1.9,0.9c1.1,0.4,2.4,0.5,3.1-0.4c0,0,0.5,0,1.1,0.1c0.5,0.1,1.1,0.2,1.1,0.4c0,0,0.3,0.2,1,0.1
								c0.7-0.1,1.7-0.4,3.1-1.6"/>
							<path class="st9" d="M174.7,109.8c0.4,0.4,2.1,2.9,2.5,4.1c0.6,1.9,1.2,3.7,1.8,5.8c0.1,0.1,0.2,0.2,0.3,0.1
								c0.9-0.9,1.5,0,2.2-0.4c0.3-0.1,0.6-0.5,0.9-0.4c1.3,0.7,1.4,2.2,2.2,4.1c0.3,0.8,0.9,1.9,1.8,2.6c0.2,0.2,0.5,0.4,0.7,0.7
								c0.2,0.2-0.2,0.2-0.3,0.4c-0.3-0.1-0.5-0.4-0.8-0.5c-0.5-0.4-1-0.3-1.3-0.9c-0.4-0.5-0.6-1.2-0.9-1.7
								c-0.2-0.3-0.3-0.4-0.5-0.5c-0.7-0.6-1.5-1.1-2.6-1.3c-0.6,0.8-1.1,0-1.6-0.1c-0.1-0.1-0.2-0.3-0.4-0.5
								c-0.4-0.2-1,0.1-1.1-0.7c-0.2-1.7-0.5-3.2-1-4.5c-0.4-1.1-2.1-4-2.6-4.5c-0.7-0.8-1.6-0.3-2.3-0.8
								C171.9,110.7,173.1,108.5,174.7,109.8z"/>
						</g>
					</g>
				</g>
			</g>
		</g>
		<g>
			<g>
				<g>
					<g class="st2">
						<g class="st2">
							<path class="st3" d="M218.2,119c0.2-2-2.4-2.9-2.6-3.5c-0.6-1-2.5-0.7-4.3-0.3c-1.8,0.4-3.4,0.8-3.2,0.4
								c0.4-1.2,1.1-7.6,0.7-8c-0.9-1.1-2.3-0.5-4,1.1c-0.8,0.7-1.1,1.2-1.2,1c-0.1-0.1-1.2,2.1-2.3,3c-0.7,0.6-1.2,0-2,0.7
								c-1.3,0.9-4.4,0.9-5.6,1.1c-2.3,0.4-3.4,0.1-4.2-1.5c-0.5-1.3-1.6-1.3-2.3-2.2c-0.8-0.9-1.6-1.2-2.3-2.1
								c-0.4-1.2-0.9-2.1-1.7-2.8c-0.2-0.1-0.3-0.1-0.6,0c-0.2,0.1-0.4-0.2-0.5-0.3c-0.3-1,0.2-2.4-0.5-2.9
								c-0.2-0.2-0.9-0.1-1.3,0.3c-2,1.9-3.3,3.8-4.1,5.7c-0.7,1.8,0.1,2.8,0.6,4c0.4,0.8,0.3,2.1-0.2,3.5c-0.4,1.4-1.1,3.1-1.8,4.6
								c-1.2,2.4-3.3,5.8-1.7,6.9c2,1.1,4.7,0.5,5.8,2.7c0.7,1.6,1.3,3,2.5,4.2c0.1,0.3,0.7,1.1,0.9,1.3c1.7,0.6,3.1,2.3,5.2,0.6
								c2,0,2.5,1.3,4.4,0.3c2.5-1.4,5-3.2,7-3.2c1.2,0,2.1,0.2,3,0.9c0.3,0.2,0.9,2.8,1.1,3.6c0.3,1.5,1.7,0.9,2.7,0.1
								c1.6-1.6,3.1-2.6,4.6-3.3c0.5,0,0.8,0.7,1.3,0.8c1.3-0.1,2.5-1.4,3.8-2c4.2-0.5,3.9-1.8,4-1.6c0.4,0.1,0.3,1.4,0.7,1.8
								c0.6,0.3,1.5-0.3,2.2-1c1-0.9,2-1.9,2.9-2.6c0.9-0.7,1.7-1,2.8-0.8c-0.2-0.2-0.4-0.6-0.5-0.6c-1.5-0.4-2.3-1.7-3.1-2.7
								c-0.4-0.5-0.7-1-1.2-1.4c-0.4-0.4-1-0.6-1.6-0.7c-0.3,0.2-0.6,0.4-0.9,0.4c-0.5-0.1-1-0.1-1.5,0
								C218.6,124.4,218,120.7,218.2,119z"/>
							<path class="st4" d="M176.9,112.4c-0.6-1.2-1.4-2.2-0.6-4c0.8-1.9,2.1-3.8,4.1-5.7c0.4-0.4,1.1-0.4,1.3-0.3
								c0.7,0.5,0.2,2,0.5,2.9c0.2,0.1,0.3,0.3,0.5,0.3c0.2-0.1,0.4,0,0.6,0c0.8,0.8,1.3,1.7,1.7,2.8c0.7,0.9,1.5,1.2,2.3,2.1
								c0.7,0.9,1.8,0.9,2.3,2.2c0.8,1.5,1.8,1.8,4.2,1.4c1.2-0.2,4.3-0.2,5.6-1.1c0.8-0.7,1.2-0.1,2-0.7c0,0-0.1,1.1,0.1,3
								c-4,2.1-8.2,3.9-12.9,5.1C184.4,118.5,180.4,115.8,176.9,112.4z"/>
							<path class="st5" d="M200.4,114.8c0,0,1.4-0.8,2.4-1c1-0.2,1.8,0.2,0.8,2.7c0,0-1.8,2.9-4.1,5.6c-2.3,2.7-5,5.2-6.3,4.8
								c0,0-1.9-0.6-2.9-0.8c0,0-0.2-0.7-0.6-1.3c-0.5-0.7-1.2-1.3-2.5-1.2c0,0-2.2-0.3-4.4-1.1c-2.2-0.7-4.3-2-4-2.9
								c0,0-0.1-0.2-0.3-0.5c-0.2-0.3-0.5-0.7-0.7-1.2c-0.5-1-0.9-2.2-0.7-3c0,0,0.4-0.9,0.7-1.9c0.3-1,0.4-2-0.2-2.4
								c0,0,0-1.5,0.3-2.8c0.3-1.3,0.9-2.3,1.8-1.8c0,0,1.4,0.3,2,0.6c0,0,1.1,1.8,2.3,3.6c1.3,1.8,2.7,3.8,2.6,4.4
								c0,0,0.3,0.6,1,1.3c0.7,0.8,1.7,1.7,3,2.3C193,119.5,196.9,119.4,200.4,114.8z"/>
							<path class="st6" d="M201.1,113.4c0,0,1.1-1.2,2.2-1.8c1.1-0.6,2.1-0.7,2,1.5c0,0,0.5,1.5,0.9,3.4c0.3,1.9,0.5,4.1-0.6,5.4
								c0,0-2.1,2.7-5.1,5.1c-2.9,2.5-6.8,4.6-9.5,3.8c0,0-0.5-0.2-2.4,1.1c0,0-0.9,0.2-1.9-0.1c-0.9-0.2-1.9-0.9-1.8-2.4
								c0,0-0.4-1.3-1-2.6c-0.6-1.3-1.3-2.6-2.2-2.8c0,0,0-0.6-0.1-1.2c-0.1-0.6-0.4-1.2-1.1-1c0,0,2.5,0.4,4.9,0.9
								c2.4,0.5,4.7,1.2,4.6,2.5c0,0,0.5,1.1,2,1.3c1.5,0.2,4-0.5,7.4-4.4c0,0,0.9-1.6,1.5-3.5C201.6,116.9,201.9,114.7,201.1,113.4
								z"/>
							<path class="st7" d="M205.6,107.3c0.7-0.7,1.5-1.7,2.1-2.3c0.3-0.2,0.6,0,0.9-0.1c0.4,0,0.6,0.6,0.7,1
								c0.5,2.5,2.4,3.1,2.7,6.2c0.1,0.4,0.2,0.6,0.4,0.7c0.1-0.1,0.3-0.2,0.4-0.3c0.6,0.1,1.2,0.4,1.8,0.3c1.1-0.3,1.7,1.1,2.3,2.6
								c0.3,0.8,0.9,1.3,1.3,2c0.8,1.1,0.1,4.3,1,5c0.6,0.7,1.4,0.6,2.2,0.5c0.4-0.1,0.8-0.1,1.2-0.1c0.4,0,0.8,0.1,1,0.4
								c0.6,0.8,1.1,1.2,1.6,2.2c0.4,1,0.9,1.5,1.7,2.2c0.2,0.1,1,1,1.1,1.3c0.1,0.4-0.4,0.4-0.6,0.6c-0.3,0.4-0.7,0.2-1-0.2
								c-0.3-0.4-0.5-0.9-0.7-1.2c-0.5-0.6-1.1-0.3-1.7-0.6c-0.2-0.2-0.4-0.6-0.5-1.1c-0.2-0.8-0.7-0.4-1.3-0.2
								c-0.7,0.3-1.2-0.9-1.9-0.9c-0.9-0.2-2,1.3-2.6,0.4c0.5,0.8-2.7-0.4-2-0.6c-0.1,0.1-0.1-0.5-0.1-0.9c0.1-0.3,0.1-0.7,0.2-0.8
								c0.7-0.8,1-2.4,1.5-3.6c0-0.2-1.7-0.8-2.1-2c-0.3-1-0.4-2.2-1-2.5c-0.2,0-0.4,0.6-0.6,0.7c-0.2,0-1.7,0.9-3.2,1.8
								c-1.5,0.9-3.1,1.7-3.3,1.4c-0.2-0.4-0.3-1.4,0-2c0.6-1.7,0.3-2.7,0.6-4.2c0.1-0.4,0.4-0.8,0.4-1.2c0.2-1.1,0.3-2.4,0.1-2.7
								c-0.3-0.8-0.8-1.2-1.4-1L205.6,107.3z"/>
							<path class="st8" d="M174.9,128c0,0,1,0,2.1,0.4c1.1,0.5,2.3,1.4,2.8,3.6c0,0,0.4,0.7,0.8,1.4c0.5,0.7,1,1.4,1.3,1.4l0.5,0.9
								c0,0,0.9,0.6,1.9,0.9c1.1,0.4,2.4,0.5,3.1-0.4c0,0,0.5,0,1.1,0.1c0.5,0.1,1.1,0.2,1.1,0.4c0,0,0.3,0.2,1,0.1
								c0.7-0.1,1.7-0.4,3.1-1.6"/>
							<path class="st9" d="M215.9,111.9c0.4,0.4,2.1,2.9,2.5,4.1c0.6,1.9,1.2,3.7,1.8,5.8c0.1,0.1,0.2,0.2,0.3,0.1
								c0.9-0.9,1.5,0,2.2-0.4c0.3-0.1,0.6-0.5,0.9-0.4c1.3,0.7,1.4,2.2,2.2,4.1c0.3,0.8,0.9,1.9,1.8,2.6c0.2,0.2,0.5,0.4,0.7,0.7
								c0.2,0.2-0.2,0.2-0.3,0.4c-0.3-0.1-0.5-0.4-0.8-0.5c-0.5-0.4-1-0.3-1.3-0.9c-0.4-0.5-0.6-1.2-0.9-1.7
								c-0.2-0.3-0.3-0.4-0.5-0.5c-0.7-0.6-1.5-1.1-2.6-1.3c-0.6,0.8-1.1,0-1.6-0.1c-0.1-0.1-0.2-0.3-0.4-0.5
								c-0.4-0.2-1,0.1-1.1-0.7c-0.2-1.7-0.5-3.2-1-4.5c-0.4-1.1-2.1-4-2.6-4.5c-0.7-0.8-1.6-0.3-2.3-0.8
								C213.1,112.8,214.2,110.6,215.9,111.9z"/>
						</g>
					</g>
				</g>
			</g>
		</g>
		<g>
			<g>
				<g>
					<g class="st2">
						<g class="st2">
							<path class="st3" d="M70.9,118.5c0.7,2,3.7,1.5,4.2,1.9c1.1,0.6,2.9-0.6,4.5-1.9c1.6-1.3,2.9-2.6,3-2.2
								c0.3,1.3,3.6,6.8,4.4,6.9c1.9,0.2,3.3-1.4,3.9-3.8c0.4-1.1,0.2-1.7,0.6-1.7c0.1,0-0.4-2.4,0-3.9c0.3-1,1.2-1,1.3-2.1
								c0.5-1.7,3-4.3,3.6-5.6c1.2-2.4,2-3.1,3.9-3.4c1.6,0,2.1-1.2,3.3-1.7c1.3-0.7,1.9-1.6,3.1-2.4c1.4-0.5,2.5-1.1,3.5-2.3
								c0.1-0.2,0.1-0.4,0.1-0.7c-0.1-0.3,0.2-0.5,0.3-0.7c1.1-0.6,2.8-0.7,3.3-1.8c0.2-0.3,0-1-0.5-1.3c-2.6-1.2-4.7-1.8-6.7-2.3
								c-1.8-0.4-2.5,0.3-3.6,0.8c-0.7,0.3-1.8,0.1-3.1-0.6c-1.3-0.6-2.7-1.6-4-2.6c-2-1.6-4.8-4.5-5.3-3.9
								c-0.5,0.9-0.2,3.1-1.8,2.7c-1.2-0.4-2.2-0.9-3.1-0.9c-0.2-0.1-0.8-0.3-0.9-0.3c-0.6,0.7-2,0.3-1.6,2.8
								c-0.6,1.2-1.5,0.5-1.7,2.4c-0.2,2.5-0.5,5.4-1.8,6.4c-0.7,0.7-1.5,0.9-2.4,0.8c-0.3,0-2-1.9-2.5-2.6c-0.9-1.2-1.5,0-1.9,1.1
								c-0.4,2.2-1.1,3.7-2,4.9c-0.4,0.2-0.9-0.3-1.4-0.2c-1,0.6-1.5,2.4-2.3,3.4c-3.5,2.2-2.8,3.2-2.9,3.1
								c-0.4,0.1-0.8-1.2-1.4-1.4c-0.7,0-1.1,0.8-1.3,1.7c-0.3,1.2-0.7,2.4-1.3,3.1c-0.6,0.7-1.5,0.8-1.8,0
								c-0.1,0.3-0.2,0.7-0.1,0.8c0.7,1.2,2,2.4,3.3,3.1c0.7,0.4,1.4,0.7,2,0.8c0.7,0.1,1.2,0.2,1.8,0c0.2-0.3,0.4-0.6,0.7-0.7
								c0.5-0.1,0.9-0.3,1.3-0.6C68.2,113.7,70.3,116.8,70.9,118.5z"/>
							<path class="st4" d="M103,90.6c1.1-0.5,1.7-1.2,3.6-0.8c2,0.5,4.2,1,6.7,2.3c0.5,0.2,0.7,1,0.5,1.3c-0.5,1.1-2.3,1.2-3.3,1.8
								c-0.1,0.2-0.4,0.4-0.3,0.7c0.1,0.3,0,0.5-0.1,0.7c-1,1.1-2.1,1.8-3.5,2.3c-1.2,0.8-1.8,1.7-3.1,2.4c-1.3,0.5-1.8,1.7-3.3,1.7
								c-1.9,0.3-2.6,1-3.9,3.4c-0.6,1.3-3.1,3.9-3.6,5.6c-0.1,1.1-1,1.1-1.3,2.1c0,0-0.8-0.8-2.3-2c2.1-4.4,3.7-9,4.6-13.4
								C97.2,96.2,100.4,93.6,103,90.6z"/>
							<path class="st5" d="M90.5,111.6c0,0-0.7,1.6-1.5,2.5c-0.9,0.9-2,1.2-2.6-1.4c0,0-0.2-3.4-0.3-7c-0.1-3.5-0.1-7.2,0.8-7.7
								c0,0,1.4-0.8,2-1.5c0,0,0.6,0.3,1.3,0.4c0.7,0.1,1.5-0.1,1.9-1.1c0,0,1.1-1.5,2.1-3c1-1.4,2.1-2.7,2.8-2.1c0,0,0.2,0,0.4-0.1
								c0.3-0.1,0.6-0.2,1-0.2c0.8-0.2,1.8-0.3,2.5,0c0,0,0.8,0.5,1.8,0.8c0.9,0.3,2,0.5,2.2-0.2c0,0,1.4-0.1,2.7,0
								c1.3,0.1,2.6,0.3,2.1,1.4c0,0-0.2,1.6-0.5,2.2c0,0-1.9,1.6-4.1,2.8c-2.2,1.2-4.6,2.1-5.2,1.7c0,0-0.7,0.1-1.6,0.4
								c-1,0.3-2.2,0.8-3.4,1.6C92.5,102.9,90.2,105.7,90.5,111.6z"/>
							<path class="st6" d="M90.9,113.1c0,0-0.2,1.7-0.8,3c-0.6,1.3-1.7,2.1-3.2,0.4c0,0-1.6-0.8-3.1-2.1c-1.5-1.3-2.9-3-2.7-4.8
								c0,0,0.4-3.4,1-7.1c0.7-3.7,1.5-7.6,3.1-8.7c0,0,0.4-0.2,0.2-2.3c0,0,0.2-0.7,0.7-1.1c0.5-0.4,1.1-0.6,2.1,0.3
								c0,0,1,0.5,2.1,0.8c1.1,0.3,2.3,0.4,2.5-0.2c0,0,0.5,0.3,1,0.5c0.5,0.2,1,0.2,1-0.4c0,0-0.6,1.8-1.8,3.5
								c-1.1,1.6-2.7,3-3.6,2c0,0-1-0.3-1.9,0.5c-0.9,0.9-1.6,3-1.6,8.1c0,0,0.4,1.8,1.2,3.6C87.9,110.9,89.1,112.9,90.9,113.1z"/>
							<path class="st7" d="M90.9,120.9c-0.2,1.1-0.4,2.4-0.8,3.4c-0.2,0.4-0.8,0.5-1.1,0.8c-0.5,0.3-1.2,0-1.7-0.2
								c-2.4-1.6-4.9-0.9-7.1-3.3c-0.3-0.3-0.5-0.4-0.8-0.4c0,0.1-0.2,0.4-0.3,0.5c-0.7,0.3-1.5,0.3-2.1,0.7c-1,0.8-2.3-0.1-3.6-1.2
								c-0.7-0.5-1.5-0.8-2.2-1.2c-1.2-0.7-2-3.8-3.1-4.1c-0.9-0.4-1.6,0.1-2.3,0.5c-0.3,0.2-0.7,0.5-1,0.6
								c-0.4,0.1-0.7,0.2-1.3,0.1c-1.2-0.4-2.4-0.6-3.6-1.6c-0.9-1-1.8-1.7-2.3-2.8c-0.2-0.2,0-1.5,0.1-1.7c0.2-0.3,0.4,0,0.6-0.1
								c0.3-0.2,0.4,0.1,0.5,0.6c0.1,0.4,0.3,1,0.5,1.3c0.6,0.7,1.4,0.3,2.1,0.4c0.3,0.2,0.6,0.4,1,0.9c0.5,0.7,1,0,1.4-0.3
								c0.5-0.6,1.4,0.3,2.1,0.1c0.9-0.2,1.3-2,2.2-1.5c-0.8-0.5,2.7-0.8,2.1-0.3c0-0.1,0.4,0.4,0.5,0.8c0,0.3,0.2,0.6,0.1,0.8
								c-0.3,1,0.1,2.6,0.2,3.9c0.1,0.1,1.9-0.1,2.9,0.8c0.7,0.8,1.5,1.7,2.2,1.7c0.2-0.1,0.1-0.8,0.3-0.9c0.2-0.1,1.2-1.7,2.2-3.2
								c1-1.6,2-3.1,2.3-3c0.4,0.2,1.1,1,1.2,1.6c0.4,1.8,1.3,2.4,2,3.8c0.2,0.4,0.2,0.9,0.3,1.3c0.5,1,1.3,2.1,1.8,2.2
								c0.9,0.5,1.9,0.3,2.4-0.2L90.9,120.9z"/>
							<path class="st8" d="M90.4,84.3c0,0,0.1,0.7-0.3,1.3c-0.3,0.6-1.1,0.9-2.6,0c0,0-0.5-0.1-1-0.3c-0.5-0.1-1-0.2-1.1,0L84.7,85
								c0,0-0.5,0.2-0.9,0.6c-0.4,0.4-0.8,1.1-0.6,2.1c0,0-0.2,0.3-0.4,0.6c-0.2,0.3-0.5,0.5-0.6,0.3c0,0-0.9,0.1-0.9,3.5"/>
							<path class="st9" d="M76.5,123.7c-0.6-0.2-3.6-1.5-4.5-2.5c-1.4-1.4-2.8-2.8-4.2-4.5c-0.1-0.1-0.3-0.1-0.3,0.1
								c-0.4,1.2-1.4,0.6-1.9,1.3c-0.2,0.2-0.4,0.8-0.7,0.7c-0.9,0-2-0.3-3.1-0.8c-1.1-0.5-2.4-1.4-3.3-2.5c-0.8-1-1.1-2.4-1.2-3.6
								c0-0.3,0.1-0.7,0.3-1c0.1-0.2,0.2,0,0.4,0c0,0.2,0,0.6,0.1,0.9c0.2,0.7,0.7,0.8,1.1,1.5c0.4,0.6,0.8,1.3,1.4,1.8
								c0.4,0.2,0.8,0.4,1.1,0.4c1.4,0.4,2.6,0.4,3.6,0.1c0.2-1,1-0.5,1.5-0.5c0.2,0,0.3,0.2,0.5,0.3c0.5,0,0.8-0.5,1.3,0.1
								c0.9,1.4,1.9,2.7,2.9,3.6c0.8,0.8,3.9,2.6,4.7,2.8c1.1,0.3,1.8-0.5,2.8-0.4C79,121.4,78.9,124,76.5,123.7z"/>
						</g>
					</g>
				</g>
			</g>
		</g>
		<g>
			<g>
				<g>
					<g class="st2">
						<g class="st2">
							<path class="st3" d="M112.5,121.5c0.7,2,3.7,1.5,4.2,1.9c1.1,0.6,2.9-0.6,4.5-1.9c1.6-1.3,2.9-2.6,3-2.2
								c0.3,1.3,3.6,6.8,4.4,6.9c1.9,0.2,3.3-1.4,3.9-3.8c0.4-1.1,0.2-1.7,0.6-1.7c0.1,0-0.4-2.4,0-3.9c0.3-1,1.2-1,1.3-2.1
								c0.5-1.7,3-4.3,3.6-5.6c1.2-2.4,2-3.1,3.9-3.4c1.6,0,2.1-1.2,3.3-1.7c1.3-0.7,1.9-1.6,3.1-2.4c1.4-0.5,2.5-1.1,3.5-2.3
								c0.1-0.2,0.1-0.4,0.1-0.7c-0.1-0.3,0.2-0.5,0.3-0.7c1.1-0.6,2.8-0.7,3.3-1.8c0.2-0.3,0-1-0.5-1.3c-2.6-1.2-4.7-1.8-6.7-2.3
								c-1.8-0.4-2.5,0.3-3.6,0.8c-0.7,0.3-1.8,0.1-3.1-0.6c-1.3-0.6-2.7-1.6-4-2.6c-2-1.6-4.8-4.5-5.3-3.9
								c-0.5,0.9-0.2,3.1-1.8,2.7c-1.2-0.4-2.2-0.9-3.1-0.9c-0.2-0.1-0.8-0.3-0.9-0.3c-0.6,0.7-2,0.3-1.6,2.8
								c-0.6,1.2-1.5,0.5-1.7,2.4c-0.2,2.5-0.5,5.4-1.8,6.4c-0.7,0.7-1.5,0.9-2.4,0.8c-0.3,0-2-1.9-2.5-2.6c-0.9-1.2-1.5,0-1.9,1.1
								c-0.4,2.2-1.1,3.7-2,4.9c-0.4,0.2-0.9-0.3-1.4-0.2c-1,0.6-1.5,2.4-2.3,3.4c-3.5,2.2-2.8,3.2-2.9,3.1
								c-0.4,0.1-0.8-1.2-1.4-1.4c-0.7,0-1.1,0.8-1.3,1.7c-0.3,1.2-0.7,2.4-1.3,3.1c-0.6,0.7-1.5,0.8-1.8,0
								c-0.1,0.3-0.2,0.7-0.1,0.8c0.7,1.2,2,2.4,3.3,3.1c0.7,0.4,1.4,0.7,2,0.8c0.7,0.1,1.2,0.2,1.8,0c0.2-0.3,0.4-0.6,0.7-0.7
								c0.5-0.1,0.9-0.3,1.3-0.6C109.8,116.7,111.9,119.8,112.5,121.5z"/>
							<path class="st4" d="M144.7,93.6c1.1-0.5,1.7-1.2,3.6-0.8c2,0.5,4.2,1,6.7,2.3c0.5,0.2,0.7,1,0.5,1.3
								c-0.5,1.1-2.3,1.2-3.3,1.8c-0.1,0.2-0.4,0.4-0.3,0.7c0.1,0.3,0,0.5-0.1,0.7c-1,1.1-2.1,1.8-3.5,2.3c-1.2,0.8-1.8,1.7-3.1,2.4
								c-1.3,0.5-1.8,1.7-3.3,1.7c-1.9,0.3-2.6,1-3.9,3.4c-0.6,1.3-3.1,3.9-3.6,5.6c-0.1,1.1-1,1.1-1.3,2.1c0,0-0.8-0.8-2.3-2
								c2.1-4.4,3.7-9,4.6-13.4C138.9,99.2,142.1,96.6,144.7,93.6z"/>
							<path class="st5" d="M132.1,114.7c0,0-0.7,1.6-1.5,2.5c-0.9,0.9-2,1.2-2.6-1.4c0,0-0.2-3.4-0.3-7c-0.1-3.5-0.1-7.2,0.8-7.7
								c0,0,1.4-0.8,2-1.5c0,0,0.6,0.3,1.3,0.4c0.7,0.1,1.5-0.1,1.9-1.1c0,0,1.1-1.5,2.1-3c1-1.4,2.1-2.7,2.8-2.1c0,0,0.2,0,0.4-0.1
								c0.3-0.1,0.6-0.2,1-0.2c0.8-0.2,1.8-0.3,2.5,0c0,0,0.8,0.5,1.8,0.8c0.9,0.3,2,0.5,2.2-0.2c0,0,1.4-0.1,2.7,0
								c1.3,0.1,2.6,0.3,2.1,1.4c0,0-0.2,1.6-0.5,2.2c0,0-1.9,1.6-4.1,2.8c-2.2,1.2-4.6,2.1-5.2,1.7c0,0-0.7,0.1-1.6,0.4
								c-1,0.3-2.2,0.8-3.4,1.6C134.1,105.9,131.8,108.7,132.1,114.7z"/>
							<path class="st6" d="M132.5,116.1c0,0-0.2,1.7-0.8,3c-0.6,1.3-1.7,2.1-3.2,0.4c0,0-1.6-0.8-3.1-2.1c-1.5-1.3-2.9-3-2.7-4.8
								c0,0,0.4-3.4,1-7.1c0.7-3.7,1.5-7.6,3.1-8.7c0,0,0.4-0.2,0.2-2.3c0,0,0.2-0.7,0.7-1.1c0.5-0.4,1.1-0.6,2.1,0.3
								c0,0,1,0.5,2.1,0.8c1.1,0.3,2.3,0.4,2.5-0.2c0,0,0.5,0.3,1,0.5c0.5,0.2,1,0.2,1-0.4c0,0-0.6,1.8-1.8,3.5
								c-1.1,1.6-2.7,3-3.6,2c0,0-1-0.3-1.9,0.5c-0.9,0.9-1.6,3-1.6,8.1c0,0,0.4,1.8,1.2,3.6C129.5,114,130.8,115.9,132.5,116.1z"/>
							<path class="st7" d="M132.6,123.9c-0.2,1.1-0.4,2.4-0.8,3.4c-0.2,0.4-0.8,0.5-1.1,0.8c-0.5,0.3-1.2,0-1.7-0.2
								c-2.4-1.6-4.9-0.9-7.1-3.3c-0.3-0.3-0.5-0.4-0.8-0.4c0,0.1-0.2,0.4-0.3,0.5c-0.7,0.3-1.5,0.3-2.1,0.7c-1,0.8-2.3-0.1-3.6-1.2
								c-0.7-0.5-1.5-0.8-2.2-1.2c-1.2-0.7-2-3.8-3.1-4.1c-0.9-0.4-1.6,0.1-2.3,0.5c-0.3,0.2-0.7,0.5-1,0.6
								c-0.4,0.1-0.7,0.2-1.3,0.1c-1.2-0.4-2.4-0.6-3.6-1.6c-0.9-1-1.8-1.7-2.3-2.8c-0.2-0.2,0-1.5,0.1-1.7c0.2-0.3,0.4,0,0.6-0.1
								c0.3-0.2,0.4,0.1,0.5,0.6c0.1,0.4,0.3,1,0.5,1.3c0.6,0.7,1.4,0.3,2.1,0.4c0.3,0.2,0.6,0.4,1,0.9c0.5,0.7,1,0,1.4-0.3
								c0.5-0.6,1.4,0.3,2.1,0.1c0.9-0.2,1.3-2,2.2-1.5c-0.8-0.5,2.7-0.8,2.1-0.3c0-0.1,0.4,0.4,0.5,0.8c0,0.3,0.2,0.6,0.1,0.8
								c-0.3,1,0.1,2.6,0.2,3.9c0.1,0.1,1.9-0.1,2.9,0.8c0.7,0.8,1.5,1.7,2.2,1.7c0.2-0.1,0.1-0.8,0.3-0.9c0.2-0.1,1.2-1.7,2.2-3.2
								c1-1.6,2-3.1,2.3-3c0.4,0.2,1.1,1,1.2,1.6c0.4,1.8,1.3,2.4,2,3.8c0.2,0.4,0.2,0.9,0.3,1.3c0.5,1,1.3,2.1,1.8,2.2
								c0.9,0.5,1.9,0.3,2.4-0.2L132.6,123.9z"/>
							<path class="st8" d="M132,87.4c0,0,0.1,0.7-0.3,1.3c-0.3,0.6-1.1,0.9-2.6,0c0,0-0.5-0.1-1-0.3c-0.5-0.1-1-0.2-1.1,0l-0.7-0.3
								c0,0-0.5,0.2-0.9,0.6c-0.4,0.4-0.8,1.1-0.6,2.1c0,0-0.2,0.3-0.4,0.6c-0.2,0.3-0.5,0.5-0.6,0.3c0,0-0.9,0.1-0.9,3.5"/>
							<path class="st9" d="M118.1,126.7c-0.6-0.2-3.6-1.5-4.5-2.5c-1.4-1.4-2.8-2.8-4.2-4.5c-0.1-0.1-0.3-0.1-0.3,0.1
								c-0.4,1.2-1.4,0.6-1.9,1.3c-0.2,0.2-0.4,0.8-0.7,0.7c-0.9,0-2-0.3-3.1-0.8c-1.1-0.5-2.4-1.4-3.3-2.5c-0.8-1-1.1-2.4-1.2-3.6
								c0-0.3,0.1-0.7,0.3-1c0.1-0.2,0.2,0,0.4,0c0,0.2,0,0.6,0.1,0.9c0.2,0.7,0.7,0.8,1.1,1.5c0.4,0.6,0.8,1.3,1.4,1.8
								c0.4,0.2,0.8,0.4,1.1,0.4c1.4,0.4,2.6,0.4,3.6,0.1c0.2-1,1-0.5,1.5-0.5c0.2,0,0.3,0.2,0.5,0.3c0.5,0,0.8-0.5,1.3,0.1
								c0.9,1.4,1.9,2.7,2.9,3.6c0.8,0.8,3.9,2.6,4.7,2.8c1.1,0.3,1.8-0.5,2.8-0.4C120.7,124.5,120.5,127,118.1,126.7z"/>
						</g>
					</g>
				</g>
			</g>
		</g>
		<g>
			<g>
				<g>
					<g class="st2">
						<g class="st2">
							<path class="st3" d="M159,123.5c0.7,2,3.7,1.5,4.2,1.9c1.1,0.6,2.9-0.6,4.5-1.9c1.6-1.3,2.9-2.6,3-2.2
								c0.3,1.3,3.6,6.8,4.4,6.9c1.9,0.2,3.3-1.4,3.9-3.8c0.4-1.1,0.2-1.7,0.6-1.7c0.1,0-0.4-2.4,0-3.9c0.3-1,1.2-1,1.3-2.1
								c0.5-1.7,3-4.3,3.6-5.6c1.2-2.4,2-3.1,3.9-3.4c1.6,0,2.1-1.2,3.3-1.7c1.3-0.7,1.9-1.6,3.1-2.4c1.4-0.5,2.5-1.1,3.5-2.3
								c0.1-0.2,0.1-0.4,0.1-0.7c-0.1-0.3,0.2-0.5,0.3-0.7c1.1-0.6,2.8-0.7,3.3-1.8c0.2-0.3,0-1-0.5-1.3c-2.6-1.2-4.7-1.8-6.7-2.3
								c-1.8-0.4-2.5,0.3-3.6,0.8c-0.7,0.3-1.8,0.1-3.1-0.6c-1.3-0.6-2.7-1.6-4-2.6c-2-1.6-4.8-4.5-5.3-3.9
								c-0.5,0.9-0.2,3.1-1.8,2.7c-1.2-0.4-2.2-0.9-3.1-0.9c-0.2-0.1-0.8-0.3-0.9-0.3c-0.6,0.7-2,0.3-1.6,2.8
								c-0.6,1.2-1.5,0.5-1.7,2.4c-0.2,2.5-0.5,5.4-1.8,6.4c-0.7,0.7-1.5,0.9-2.4,0.8c-0.3,0-2-1.9-2.5-2.6c-0.9-1.2-1.5,0-1.9,1.1
								c-0.4,2.2-1.1,3.7-2,4.9c-0.4,0.2-0.9-0.3-1.4-0.2c-1,0.6-1.5,2.4-2.3,3.4c-3.5,2.2-2.8,3.2-2.9,3.1
								c-0.4,0.1-0.8-1.2-1.4-1.4c-0.7,0-1.1,0.8-1.3,1.7c-0.3,1.2-0.7,2.4-1.3,3.1c-0.6,0.7-1.5,0.8-1.8,0
								c-0.1,0.3-0.2,0.7-0.1,0.8c0.7,1.2,2,2.4,3.3,3.1c0.7,0.4,1.4,0.7,2,0.8c0.7,0.1,1.2,0.2,1.8,0c0.2-0.3,0.4-0.6,0.7-0.7
								c0.5-0.1,0.9-0.3,1.3-0.6C156.3,118.8,158.4,121.8,159,123.5z"/>
							<path class="st4" d="M191.1,95.6c1.1-0.5,1.7-1.2,3.6-0.8c2,0.5,4.2,1,6.7,2.3c0.5,0.2,0.7,1,0.5,1.3
								c-0.5,1.1-2.3,1.2-3.3,1.8c-0.1,0.2-0.4,0.4-0.3,0.7c0.1,0.3,0,0.5-0.1,0.7c-1,1.1-2.1,1.8-3.5,2.3c-1.2,0.8-1.8,1.7-3.1,2.4
								c-1.3,0.5-1.8,1.7-3.3,1.7c-1.9,0.3-2.6,1-3.9,3.4c-0.6,1.3-3.1,3.9-3.6,5.6c-0.1,1.1-1,1.1-1.3,2.1c0,0-0.8-0.8-2.3-2
								c2.1-4.4,3.7-9,4.6-13.4C185.3,101.2,188.5,98.6,191.1,95.6z"/>
							<path class="st5" d="M178.6,116.7c0,0-0.7,1.6-1.5,2.5c-0.9,0.9-2,1.2-2.6-1.4c0,0-0.2-3.4-0.3-7c-0.1-3.5-0.1-7.2,0.8-7.7
								c0,0,1.4-0.8,2-1.5c0,0,0.6,0.3,1.3,0.4c0.7,0.1,1.5-0.1,1.9-1.1c0,0,1.1-1.5,2.1-3c1-1.4,2.1-2.7,2.8-2.1c0,0,0.2,0,0.4-0.1
								c0.3-0.1,0.6-0.2,1-0.2c0.8-0.2,1.8-0.3,2.5,0c0,0,0.8,0.5,1.8,0.8c0.9,0.3,2,0.5,2.2-0.2c0,0,1.4-0.1,2.7,0
								c1.3,0.1,2.6,0.3,2.1,1.4c0,0-0.2,1.6-0.5,2.2c0,0-1.9,1.6-4.1,2.8c-2.2,1.2-4.6,2.1-5.2,1.7c0,0-0.7,0.1-1.6,0.4
								c-1,0.3-2.2,0.8-3.4,1.6C180.6,108,178.3,110.8,178.6,116.7z"/>
							<path class="st6" d="M179,118.1c0,0-0.2,1.7-0.8,3c-0.6,1.3-1.7,2.1-3.2,0.4c0,0-1.6-0.8-3.1-2.1c-1.5-1.3-2.9-3-2.7-4.8
								c0,0,0.4-3.4,1-7.1c0.7-3.7,1.5-7.6,3.1-8.7c0,0,0.4-0.2,0.2-2.3c0,0,0.2-0.7,0.7-1.1c0.5-0.4,1.1-0.6,2.1,0.3
								c0,0,1,0.5,2.1,0.8c1.1,0.3,2.3,0.4,2.5-0.2c0,0,0.5,0.3,1,0.5c0.5,0.2,1,0.2,1-0.4c0,0-0.6,1.8-1.8,3.5
								c-1.1,1.6-2.7,3-3.6,2c0,0-1-0.3-1.9,0.5c-0.9,0.9-1.6,3-1.6,8.1c0,0,0.4,1.8,1.2,3.6C176,116,177.2,117.9,179,118.1z"/>
							<path class="st7" d="M179.1,125.9c-0.2,1.1-0.4,2.4-0.8,3.4c-0.2,0.4-0.8,0.5-1.1,0.8c-0.5,0.3-1.2,0-1.7-0.2
								c-2.4-1.6-4.9-0.9-7.1-3.3c-0.3-0.3-0.5-0.4-0.8-0.4c0,0.1-0.2,0.4-0.3,0.5c-0.7,0.3-1.5,0.3-2.1,0.7c-1,0.8-2.3-0.1-3.6-1.2
								c-0.7-0.5-1.5-0.8-2.2-1.2c-1.2-0.7-2-3.8-3.1-4.1c-0.9-0.4-1.6,0.1-2.3,0.5c-0.3,0.2-0.7,0.5-1,0.6
								c-0.4,0.1-0.7,0.2-1.3,0.1c-1.2-0.4-2.4-0.6-3.6-1.6c-0.9-1-1.8-1.7-2.3-2.8c-0.2-0.2,0-1.5,0.1-1.7c0.2-0.3,0.4,0,0.6-0.1
								c0.3-0.2,0.4,0.1,0.5,0.6c0.1,0.4,0.3,1,0.5,1.3c0.6,0.7,1.4,0.3,2.1,0.4c0.3,0.2,0.6,0.4,1,0.9c0.5,0.7,1,0,1.4-0.3
								c0.5-0.6,1.4,0.3,2.1,0.1c0.9-0.2,1.3-2,2.2-1.5c-0.8-0.5,2.7-0.8,2.1-0.3c0-0.1,0.4,0.4,0.5,0.8c0,0.3,0.2,0.6,0.1,0.8
								c-0.3,1,0.1,2.6,0.2,3.9c0.1,0.1,1.9-0.1,2.9,0.8c0.7,0.8,1.5,1.7,2.2,1.7c0.2-0.1,0.1-0.8,0.3-0.9c0.2-0.1,1.2-1.7,2.2-3.2
								c1-1.6,2-3.1,2.3-3c0.4,0.2,1.1,1,1.2,1.6c0.4,1.8,1.3,2.4,2,3.8c0.2,0.4,0.2,0.9,0.3,1.3c0.5,1,1.3,2.1,1.8,2.2
								c0.9,0.5,1.9,0.3,2.4-0.2L179.1,125.9z"/>
							<path class="st8" d="M178.5,89.4c0,0,0.1,0.7-0.3,1.3c-0.3,0.6-1.1,0.9-2.6,0c0,0-0.5-0.1-1-0.3c-0.5-0.1-1-0.2-1.1,0
								l-0.7-0.3c0,0-0.5,0.2-0.9,0.6c-0.4,0.4-0.8,1.1-0.6,2.1c0,0-0.2,0.3-0.4,0.6c-0.2,0.3-0.5,0.5-0.6,0.3c0,0-0.9,0.1-0.9,3.5"
								/>
							<path class="st9" d="M164.6,128.8c-0.6-0.2-3.6-1.5-4.5-2.5c-1.4-1.4-2.8-2.8-4.2-4.5c-0.1-0.1-0.3-0.1-0.3,0.1
								c-0.4,1.2-1.4,0.6-1.9,1.3c-0.2,0.2-0.4,0.8-0.7,0.7c-0.9,0-2-0.3-3.1-0.8c-1.1-0.5-2.4-1.4-3.3-2.5c-0.8-1-1.1-2.4-1.2-3.6
								c0-0.3,0.1-0.7,0.3-1c0.1-0.2,0.2,0,0.4,0c0,0.2,0,0.6,0.1,0.9c0.2,0.7,0.7,0.8,1.1,1.5c0.4,0.6,0.8,1.3,1.4,1.8
								c0.4,0.2,0.8,0.4,1.1,0.4c1.4,0.4,2.6,0.4,3.6,0.1c0.2-1,1-0.5,1.5-0.5c0.2,0,0.3,0.2,0.5,0.3c0.5,0,0.8-0.5,1.3,0.1
								c0.9,1.4,1.9,2.7,2.9,3.6c0.8,0.8,3.9,2.6,4.7,2.8c1.1,0.3,1.8-0.5,2.8-0.4C167.1,126.5,167,129,164.6,128.8z"/>
						</g>
					</g>
				</g>
			</g>
		</g>
		<g>
			<g>
				<g>
					<g class="st2">
						<g class="st2">
							<path class="st3" d="M200,130c0.7,2,3.7,1.5,4.2,1.9c1.1,0.6,2.9-0.6,4.5-1.9c1.6-1.3,2.9-2.6,3-2.2c0.3,1.3,3.6,6.8,4.4,6.9
								c1.9,0.2,3.3-1.4,3.9-3.8c0.4-1.1,0.2-1.7,0.6-1.7c0.1,0-0.4-2.4,0-3.9c0.3-1,1.2-1,1.3-2.1c0.5-1.7,3-4.3,3.6-5.6
								c1.2-2.4,2-3.1,3.9-3.4c1.6,0,2.1-1.2,3.3-1.7c1.3-0.7,1.9-1.6,3.1-2.4c1.4-0.5,2.5-1.1,3.5-2.3c0.1-0.2,0.1-0.4,0.1-0.7
								c-0.1-0.3,0.2-0.5,0.3-0.7c1.1-0.6,2.8-0.7,3.3-1.8c0.2-0.3,0-1-0.5-1.3c-2.6-1.2-4.7-1.8-6.7-2.3c-1.8-0.4-2.5,0.3-3.6,0.8
								c-0.7,0.3-1.8,0.1-3.1-0.6c-1.3-0.6-2.7-1.6-4-2.6c-2-1.6-4.8-4.5-5.3-3.9c-0.5,0.9-0.2,3.1-1.8,2.7
								c-1.2-0.4-2.2-0.9-3.1-0.9c-0.2-0.1-0.8-0.3-0.9-0.3c-0.6,0.7-2,0.3-1.6,2.8c-0.6,1.2-1.5,0.5-1.7,2.4
								c-0.2,2.5-0.5,5.4-1.8,6.4c-0.7,0.7-1.5,0.9-2.4,0.8c-0.3,0-2-1.9-2.5-2.6c-0.9-1.2-1.5,0-1.9,1.1c-0.4,2.2-1.1,3.7-2,4.9
								c-0.4,0.2-0.9-0.3-1.4-0.2c-1,0.6-1.5,2.4-2.3,3.4c-3.5,2.2-2.8,3.2-2.9,3.1c-0.4,0.1-0.8-1.2-1.4-1.4
								c-0.7,0-1.1,0.8-1.3,1.7c-0.3,1.2-0.7,2.4-1.3,3.1c-0.6,0.7-1.5,0.8-1.8,0c-0.1,0.3-0.2,0.7-0.1,0.8c0.7,1.2,2,2.4,3.3,3.1
								c0.7,0.4,1.4,0.7,2,0.8c0.7,0.1,1.2,0.2,1.8,0c0.2-0.3,0.4-0.6,0.7-0.7c0.5-0.1,0.9-0.3,1.3-0.6
								C197.3,125.2,199.4,128.3,200,130z"/>
							<path class="st4" d="M232.1,102.1c1.1-0.5,1.7-1.2,3.6-0.8c2,0.5,4.2,1,6.7,2.3c0.5,0.2,0.7,1,0.5,1.3
								c-0.5,1.1-2.3,1.2-3.3,1.8c-0.1,0.2-0.4,0.4-0.3,0.7c0.1,0.3,0,0.5-0.1,0.7c-1,1.1-2.1,1.8-3.5,2.3c-1.2,0.8-1.8,1.7-3.1,2.4
								c-1.3,0.5-1.8,1.7-3.3,1.7c-1.9,0.3-2.6,1-3.9,3.4c-0.6,1.3-3.1,3.9-3.6,5.6c-0.1,1.1-1,1.1-1.3,2.1c0,0-0.8-0.8-2.3-2
								c2.1-4.4,3.7-9,4.6-13.4C226.3,107.7,229.5,105.1,232.1,102.1z"/>
							<path class="st5" d="M219.6,123.2c0,0-0.7,1.6-1.5,2.5c-0.9,0.9-2,1.2-2.6-1.4c0,0-0.2-3.4-0.3-7c-0.1-3.5-0.1-7.2,0.8-7.7
								c0,0,1.4-0.8,2-1.5c0,0,0.6,0.3,1.3,0.4c0.7,0.1,1.5-0.1,1.9-1.1c0,0,1.1-1.5,2.1-3c1-1.4,2.1-2.7,2.8-2.1c0,0,0.2,0,0.4-0.1
								c0.3-0.1,0.6-0.2,1-0.2c0.8-0.2,1.8-0.3,2.5,0c0,0,0.8,0.5,1.8,0.8c0.9,0.3,2,0.5,2.2-0.2c0,0,1.4-0.1,2.7,0
								c1.3,0.1,2.6,0.3,2.1,1.4c0,0-0.2,1.6-0.5,2.2c0,0-1.9,1.6-4.1,2.8c-2.2,1.2-4.6,2.1-5.2,1.7c0,0-0.7,0.1-1.6,0.4
								c-1,0.3-2.2,0.8-3.4,1.6C221.6,114.4,219.3,117.2,219.6,123.2z"/>
							<path class="st6" d="M220,124.6c0,0-0.2,1.7-0.8,3c-0.6,1.3-1.7,2.1-3.2,0.4c0,0-1.6-0.8-3.1-2.1c-1.5-1.3-2.9-3-2.7-4.8
								c0,0,0.4-3.4,1-7.1c0.7-3.7,1.5-7.6,3.1-8.7c0,0,0.4-0.2,0.2-2.3c0,0,0.2-0.7,0.7-1.1c0.5-0.4,1.1-0.6,2.1,0.3
								c0,0,1,0.5,2.1,0.8c1.1,0.3,2.3,0.4,2.5-0.2c0,0,0.5,0.3,1,0.5c0.5,0.2,1,0.2,1-0.4c0,0-0.6,1.8-1.8,3.5
								c-1.1,1.6-2.7,3-3.6,2c0,0-1-0.3-1.9,0.5c-0.9,0.9-1.6,3-1.6,8.1c0,0,0.4,1.8,1.2,3.6C217,122.5,218.2,124.4,220,124.6z"/>
							<path class="st7" d="M220.1,132.4c-0.2,1.1-0.4,2.4-0.8,3.4c-0.2,0.4-0.8,0.5-1.1,0.8c-0.5,0.3-1.2,0-1.7-0.2
								c-2.4-1.6-4.9-0.9-7.1-3.3c-0.3-0.3-0.5-0.4-0.8-0.4c0,0.1-0.2,0.4-0.3,0.5c-0.7,0.3-1.5,0.3-2.1,0.7c-1,0.8-2.3-0.1-3.6-1.2
								c-0.7-0.5-1.5-0.8-2.2-1.2c-1.2-0.7-2-3.8-3.1-4.1c-0.9-0.4-1.6,0.1-2.3,0.5c-0.3,0.2-0.7,0.5-1,0.6
								c-0.4,0.1-0.7,0.2-1.3,0.1c-1.2-0.4-2.4-0.6-3.6-1.6c-0.9-1-1.8-1.7-2.3-2.8c-0.2-0.2,0-1.5,0.1-1.7c0.2-0.3,0.4,0,0.6-0.1
								c0.3-0.2,0.4,0.1,0.5,0.6c0.1,0.4,0.3,1,0.5,1.3c0.6,0.7,1.4,0.3,2.1,0.4c0.3,0.2,0.6,0.4,1,0.9c0.5,0.7,1,0,1.4-0.3
								c0.5-0.6,1.4,0.3,2.1,0.1c0.9-0.2,1.3-2,2.2-1.5c-0.8-0.5,2.7-0.8,2.1-0.3c0-0.1,0.4,0.4,0.5,0.8c0,0.3,0.2,0.6,0.1,0.8
								c-0.3,1,0.1,2.6,0.2,3.9c0.1,0.1,1.9-0.1,2.9,0.8c0.7,0.8,1.5,1.7,2.2,1.7c0.2-0.1,0.1-0.8,0.3-0.9c0.2-0.1,1.2-1.7,2.2-3.2
								c1-1.6,2-3.1,2.3-3c0.4,0.2,1.1,1,1.2,1.6c0.4,1.8,1.3,2.4,2,3.8c0.2,0.4,0.2,0.9,0.3,1.3c0.5,1,1.3,2.1,1.8,2.2
								c0.9,0.5,1.9,0.3,2.4-0.2L220.1,132.4z"/>
							<path class="st8" d="M219.5,95.9c0,0,0.1,0.7-0.3,1.3c-0.3,0.6-1.1,0.9-2.6,0c0,0-0.5-0.1-1-0.3c-0.5-0.1-1-0.2-1.1,0
								l-0.7-0.3c0,0-0.5,0.2-0.9,0.6c-0.4,0.4-0.8,1.1-0.6,2.1c0,0-0.2,0.3-0.4,0.6c-0.2,0.3-0.5,0.5-0.6,0.3c0,0-0.9,0.1-0.9,3.5"
								/>
							<path class="st9" d="M205.6,135.2c-0.6-0.2-3.6-1.5-4.5-2.5c-1.4-1.4-2.8-2.8-4.2-4.5c-0.1-0.1-0.3-0.1-0.3,0.1
								c-0.4,1.2-1.4,0.6-1.9,1.3c-0.2,0.2-0.4,0.8-0.7,0.7c-0.9,0-2-0.3-3.1-0.8c-1.1-0.5-2.4-1.4-3.3-2.5c-0.8-1-1.1-2.4-1.2-3.6
								c0-0.3,0.1-0.7,0.3-1c0.1-0.2,0.2,0,0.4,0c0,0.2,0,0.6,0.1,0.9c0.2,0.7,0.7,0.8,1.1,1.5c0.4,0.6,0.8,1.3,1.4,1.8
								c0.4,0.2,0.8,0.4,1.1,0.4c1.4,0.4,2.6,0.4,3.6,0.1c0.2-1,1-0.5,1.5-0.5c0.2,0,0.3,0.2,0.5,0.3c0.5,0,0.8-0.5,1.3,0.1
								c0.9,1.4,1.9,2.7,2.9,3.6c0.8,0.8,3.9,2.6,4.7,2.8c1.1,0.3,1.8-0.5,2.8-0.4C208.1,133,208,135.5,205.6,135.2z"/>
						</g>
					</g>
				</g>
			</g>
		</g>
		<g>
			<g>
				<g>
					<g class="st2">
						<g class="st2">
							<path class="st10" d="M192.9,106.4c-0.5-0.2-0.7,0.1-0.9,0.1c-0.2,0-0.2,0.3-0.3,0.6c0,0.3,0,0.7-0.1,0.6
								c-0.2-0.2-1.5-1.2-1.5-1.2c-0.3,0-0.2,0.3,0,0.8c0.1,0.2,0.2,0.4,0.1,0.3c0,0,0.1,0.1,0.2,0.3c0.1,0.2,0.2,0.4,0.2,0.5
								c0,0.2-0.1,0.2,0,0.4c0,0.4-0.3,0.9-0.4,1.2c-0.2,0.5-0.4,0.6-0.7,0.5c-0.3-0.1-0.4,0.1-0.6,0.1c-0.2,0-0.4,0.1-0.6,0.1
								c-0.2-0.1-0.4-0.2-0.7-0.1c0,0-0.1,0-0.1,0.1c0,0.1-0.1,0-0.1,0.1c-0.2-0.1-0.3-0.4-0.5-0.4c0,0-0.1,0.2-0.1,0.3
								c0,0.7,0.1,1.2,0.3,1.7c0.2,0.4,0.5,0.4,0.7,0.5c0.4,0.1,0.8,0.9,1.1,1.7c0.3,0.6,0.6,1.6,1,1.4c0.5-0.2,0.8-0.8,1.3-0.7
								c0.4,0.1,0.8,0.2,1.2,0.2c0.1,0,0.3,0,0.4,0c0.4-0.2,0.9-0.3,0.8-1c0.3-0.4,0.6-0.3,0.7-0.9c0-0.7,0-1.5,0.2-1.9
								c0.1-0.2,0.3-0.4,0.6-0.5c0.1,0,0.7,0.1,0.9,0.2c0.4,0.1,0.4-0.3,0.3-0.6c-0.2-0.5-0.3-1-0.3-1.4c0-0.1,0.2-0.1,0.3-0.2
								c0.1-0.3-0.1-0.7-0.2-1.1c0.1-1-0.2-1-0.2-1c0-0.1,0.4,0,0.5-0.1c0.1-0.1,0-0.4-0.2-0.5c-0.4-0.5-0.9-0.9-0.5-1.2
								c-0.1,0-0.2,0-0.2,0c-0.5,0.4-1.3,0.5-1.4,0.9c0,0.1,0.1,0.1,0.1,0.2c0,0.1,0,0.2,0,0.3C194.2,106.8,193.3,106.6,192.9,106.4
								z"/>
							<path class="st11" d="M187.8,112.8c-0.3-0.1-0.5-0.1-0.7-0.5c-0.2-0.5-0.3-1-0.3-1.7c0-0.1,0.1-0.3,0.1-0.3
								c0.2-0.1,0.3,0.3,0.5,0.4c0,0,0.1,0,0.1-0.1c0-0.1,0-0.1,0.1-0.1c0.2,0,0.4,0,0.7,0.1c0.2,0,0.4-0.1,0.6-0.1
								c0.2,0,0.4-0.2,0.6-0.1c0.3,0.1,0.5,0,0.7-0.5c0.1-0.2,0.4-0.8,0.4-1.2c-0.1-0.2,0.1-0.2,0-0.4c0,0,0.2,0.2,0.6,0.4
								c0.1,1-0.1,2.1-0.4,3.2C189.8,112.4,188.8,112.7,187.8,112.8z"/>
							<path class="st12" d="M190.9,108.9c0,0,0-0.4,0-0.6c0-0.2,0.2-0.3,0.6,0.2c0,0,0.4,0.7,0.7,1.5c0.3,0.8,0.5,1.7,0.2,1.9
								c0,0-0.4,0.3-0.5,0.4c0,0-0.2-0.1-0.3-0.1c-0.2,0-0.4,0-0.5,0.3c0,0-0.3,0.4-0.8,0.7c-0.4,0.3-0.9,0.5-1.1,0.3
								c0,0-0.8-0.1-1.1-0.4c0,0-0.4-0.9-0.7-0.8c0,0-0.9-1-0.4-1.1c0,0,0.2-0.2,0.3-0.3c0,0,0.1,0,0.3,0c0.2,0,0.4,0.1,0.6,0.1
								c0.5,0.1,1,0.1,1.1,0.2c0,0,0.1,0,0.4,0c0.2,0,0.5,0,0.8-0.2C191.1,111,191.5,110.2,190.9,108.9z"/>
							<path class="st13" d="M190.7,108.6c0,0-0.6-1.4,0.3-0.8c0,0,0.3,0.1,0.7,0.3c0.4,0.2,0.9,0.4,1.1,0.8c0,0,0.4,0.8,0.6,1.7
								c0.2,0.9,0.2,2-0.4,2.4c0,0-0.1,0.1-0.1,0.6c0,0-0.1,0.2-0.3,0.4c-0.2,0.1-0.4,0.2-0.7,0c0,0-0.3-0.1-0.6-0.2
								c-0.3-0.1-0.7-0.2-0.8,0c0,0-0.5-0.4-0.6-0.1c0,0,0.5-0.4,0.8-0.8c0.4-0.4,0.8-0.7,1.1-0.5c0,0,0.3,0.1,0.5-0.2
								c0.2-0.2,0.4-0.9,0-2c0,0-0.2-0.4-0.5-0.8C191.4,109,191,108.6,190.7,108.6z"/>
							<path class="st14" d="M189.9,106.9c-0.1-0.2-0.2-0.5-0.3-0.7c0-0.1,0-0.1,0-0.1c0-0.1,0.1,0,0.2,0.1c0.5,0.3,0.7,0.1,1.3,0.5
								c0.1,0,0.1,0,0.2,0c0,0,0-0.1-0.1-0.1c0-0.1,0.1-0.1,0.1-0.2c0-0.2,0.3-0.1,0.6,0c0.2,0,0.3,0,0.5,0c0.3,0,1,0.4,1.2,0.2
								c0.4-0.1,0-0.6,0.3-0.8c0.2-0.1,0.4-0.2,0.6-0.3c0.3-0.1,0.4-0.2,0.7-0.2c0.1,0,0.4,0,0.4,0c0.1,0,0,0.1,0.1,0.2
								c0.1,0.2-0.3,0.1-0.5,0.2c-0.2,0.1-0.1,0.2-0.2,0.3c-0.1,0-0.2,0.1-0.3,0.1c-0.2,0-0.1,0.1-0.1,0.3c0.1,0.2-0.2,0.2-0.3,0.3
								c-0.1,0.2,0.2,0.5,0,0.5c0.2,0-0.2,0.5-0.2,0.3c0,0-0.1,0-0.2-0.1c-0.1,0-0.1-0.1-0.2-0.1c-0.2-0.2-0.5-0.4-0.8-0.6
								c0,0-0.2,0.2-0.5,0.1c-0.2-0.1-0.5-0.2-0.6-0.1c0,0,0.1,0.1,0.1,0.2c0,0,0.1,0.4,0.2,0.7c0.1,0.4,0.2,0.7,0.1,0.7
								c-0.1,0-0.3-0.1-0.4-0.3c-0.3-0.3-0.5-0.4-0.8-0.7c-0.1-0.1-0.2-0.2-0.2-0.2c-0.2-0.2-0.5-0.4-0.5-0.4
								c-0.2-0.1-0.3-0.1-0.3,0.1L189.9,106.9z"/>
							<path class="st15" d="M190.3,115.7c0,0,0.1-0.2,0.4-0.3c0.3-0.1,0.6-0.2,1.1,0c0,0,0.2,0,0.4,0.1c0.2,0,0.4,0,0.5-0.1l0.3,0
								c0,0,0.2-0.1,0.5-0.2c0.2-0.2,0.4-0.4,0.4-0.7c0,0,0.3-0.4,0.4-0.4c0,0,0.4-0.2,0.2-1.1"/>
							<path class="st16" d="M191.2,106c0.1,0,0.7,0,1,0.1c0.5,0.1,0.9,0.1,1.4,0.2c0,0,0.1,0,0-0.1c-0.2-0.2,0-0.3-0.1-0.4
								c0-0.1-0.1-0.1-0.1-0.2c0.2-0.2,0.6-0.3,1.1-0.4c0.2-0.1,0.5-0.1,0.8-0.1c0.1,0,0.2,0,0.2,0c0.1,0,0,0.1,0,0.1
								c-0.1,0-0.2,0-0.2,0.1c-0.2,0.1-0.2,0.1-0.4,0.2c-0.2,0-0.3,0.1-0.5,0.1c-0.1,0-0.1,0.1-0.2,0.1c-0.2,0.1-0.3,0.3-0.4,0.5
								c0.2,0.2,0,0.2-0.1,0.3c0,0-0.1,0-0.1,0c-0.1,0.1,0,0.2-0.2,0.2c-0.4-0.1-0.8-0.2-1.1-0.2c-0.3,0-1-0.1-1.1-0.1
								c-0.2,0-0.1,0.2-0.2,0.2C191.4,106.5,190.9,106.1,191.2,106z"/>
						</g>
					</g>
				</g>
			</g>
		</g>
		<g>
			<g>
				<g>
					<g class="st2">
						<g class="st2">
							<path class="st10" d="M146.5,112.1c-0.4,0.3-0.1,1-0.1,1.2c0,0.3,0.4,0.7,0.9,0.9c0.5,0.2,0.9,0.3,0.8,0.4
								c-0.3,0.2-1.1,1.6-1,1.8c0.2,0.5,0.7,0.5,1.3,0.4c0.3-0.1,0.4-0.2,0.4-0.1c0,0,0.4-0.4,0.8-0.5c0.2-0.1,0.3,0.1,0.6,0
								c0.4-0.1,1.2-0.1,1.5-0.1c0.6-0.1,0.8-0.1,1.1,0.2c0.2,0.3,0.5,0.2,0.7,0.3c0.3,0.1,0.5,0.1,0.8,0.2c0.3,0.2,0.5,0.3,0.9,0.3
								c0,0,0.1,0,0.1-0.1c0-0.1,0.1,0,0.2,0c0.2,0.1,0.5,0.4,0.8,0.3c0.1,0,0.2-0.2,0.1-0.3c-0.2-0.7-0.4-1.2-0.6-1.7
								c-0.2-0.4-0.4-0.4-0.6-0.6c-0.3-0.2-0.4-1-0.4-1.9c0-0.6,0.2-1.6,0-1.6c-0.2,0-0.5,0.5-0.5,0.1c0-0.3,0-0.5-0.1-0.7
								c0,0,0-0.2,0-0.2c-0.2,0-0.2-0.3-0.5,0.2c-0.2,0.1-0.2-0.2-0.5,0.1c-0.5,0.4-1,0.7-1.3,0.7c-0.2,0-0.3-0.1-0.3-0.3
								c0-0.1,0.3-0.6,0.4-0.7c0.2-0.3,0-0.2-0.3-0.1c-0.5,0.2-0.8,0.3-1.2,0.3c-0.1,0,0-0.2,0-0.2c-0.2-0.1-0.6,0-0.8-0.1
								c-0.6-0.4-0.8-0.3-0.8-0.3c0-0.1,0.3-0.2,0.3-0.3c0-0.1-0.2-0.2-0.4-0.2c-0.6,0-1.2-0.2-1-0.6c-0.1,0-0.2,0.1-0.2,0.1
								c-0.3,0.5-0.9,1.2-0.6,1.7c0.1,0,0.2,0.1,0.2,0.1c0,0.1,0.1,0.2,0.2,0.3C147.5,111.1,146.9,111.8,146.5,112.1z"/>
							<path class="st11" d="M155.3,114.6c0.2,0.1,0.4,0.1,0.6,0.6c0.2,0.5,0.4,1,0.6,1.7c0,0.1-0.1,0.3-0.1,0.3
								c-0.3,0.1-0.5-0.2-0.8-0.3c0,0-0.1,0-0.2,0c0,0.1-0.1,0.1-0.1,0.1c-0.3,0-0.6-0.1-0.9-0.3c-0.3-0.1-0.5-0.1-0.8-0.2
								c-0.3-0.2-0.5,0-0.7-0.3c-0.3-0.3-0.5-0.3-1.1-0.2c-0.3,0.1-1.1,0-1.5,0.1c-0.2,0.1-0.3,0-0.6,0c0,0,0-0.3,0.1-0.7
								c1.1-0.2,2.2-0.6,3.1-1.1C153.7,114.4,154.5,114.6,155.3,114.6z"/>
							<path class="st12" d="M150,115.5c0,0-0.4,0.1-0.7,0c-0.3-0.1-0.5-0.3,0-0.7c0,0,0.7-0.5,1.4-1c0.7-0.5,1.4-1.1,1.6-1
								c0,0,0.3,0.1,0.5,0.1c0,0,0,0.6,0.4,0.4c0,0,0.4-0.1,0.7-0.1c0.3-0.1,0.7-0.1,0.7,0.2c0,0,0.4,0.3,0.5,0.7c0,0,0.1,1,0.4,0.9
								c0,0,0.9,1,0.4,1.1c0,0-0.3,0.2-0.4,0.3c0,0-0.1,0-0.3-0.1c-0.2-0.1-0.4-0.1-0.7-0.3c-0.5-0.2-0.9-0.5-1-0.7
								c0,0-0.4-0.4-1-0.6C152,114.6,151.2,114.6,150,115.5z"/>
							<path class="st13" d="M149.8,115.8c0,0-0.4,0.2-0.7,0.3c-0.3,0.1-0.7-0.1-0.5-0.6c0,0,0-0.4,0.1-0.9c0.1-0.5,0.4-1,0.7-1.1
								c0,0,0.8-0.3,1.6-0.7c0.8-0.4,1.6-0.9,1.9-0.8c0,0,0.1,0,0.4-0.3c0,0,0.5-0.3,0.4,0.3c0,0,0.1,1,0.3,0.9c0,0,0,0.6,0.2,0.4
								c0,0-0.4,0.2-0.8,0.3c-0.4,0.1-0.8,0-0.7-0.3c0,0,0-0.2-0.3-0.3c-0.3,0-0.7,0.2-1.7,0.9c0,0-0.3,0.3-0.6,0.7
								C149.9,114.9,149.6,115.4,149.8,115.8z"/>
							<path class="st14" d="M148.2,116.9c-0.3,0.1-0.6,0.2-0.8,0.3c-0.1,0-0.2-0.1-0.3-0.2c-0.1-0.1-0.2-0.3-0.2-0.4
								c0.1-0.7-0.4-1.3-0.1-2c0-0.1,0-0.2,0-0.2c0,0-0.1,0-0.2,0c-0.1-0.1-0.2-0.3-0.4-0.4c-0.3-0.2-0.2-0.6-0.1-1
								c0.1-0.2,0.1-0.4,0.1-0.6c0.1-0.4,0.8-0.7,0.8-1c0.1-0.5-0.6-0.6-0.5-1c0.1-0.3,0.1-0.5,0.3-0.7c0.2-0.2,0.3-0.4,0.5-0.6
								c0,0,0.3-0.2,0.4-0.2c0.1,0,0.1,0.1,0.1,0.1c0.2,0.1-0.2,0.2-0.3,0.4c-0.1,0.2,0,0.3,0,0.4c0,0.1-0.1,0.1-0.2,0.2
								c-0.2,0.1,0,0.2,0.1,0.3c0.2,0.1,0,0.3,0,0.5c0.1,0.2,0.5,0.2,0.4,0.4c0.1-0.2,0.3,0.5,0.2,0.4c0,0-0.1,0.1-0.2,0.2
								c-0.1,0-0.1,0.1-0.2,0.1c-0.3,0-0.6,0.2-0.9,0.4c0,0,0.2,0.5,0,0.8c-0.1,0.2-0.3,0.5-0.2,0.7c0,0,0.2,0,0.2,0
								c0,0,0.5,0.1,1,0.2c0.4,0.1,0.9,0.1,0.9,0.2c0,0.1-0.1,0.3-0.2,0.4c-0.3,0.3-0.4,0.6-0.6,0.9c-0.1,0.1-0.2,0.1-0.2,0.2
								c-0.2,0.2-0.3,0.5-0.3,0.7c0,0.3,0.2,0.5,0.4,0.5L148.2,116.9z"/>
							<path class="st15" d="M154.9,111.2c0,0-0.5,0.6-0.4-0.3c0,0,0-0.4-0.1-0.4l0-0.2c0,0-0.1-0.1-0.2,0c-0.1,0-0.2,0-0.4,0.3
								c0,0-0.2,0.1-0.2,0c0,0-0.1-0.1-0.7,0.4"/>
							<path class="st16" d="M145.8,113.9c0-0.2,0-1,0.2-1.3c0.2-0.5,0.5-0.9,0.8-1.3c0,0,0-0.1,0-0.1c-0.3,0-0.2-0.3-0.4-0.4
								c-0.1,0-0.2-0.1-0.2-0.1c0-0.4,0.2-0.9,0.6-1.3c0.2-0.2,0.4-0.3,0.7-0.5c0.1,0,0.1-0.1,0.2-0.1c0.1,0,0,0,0.1,0.1
								c0,0-0.1,0.1-0.2,0.1c-0.1,0.1-0.1,0.2-0.2,0.3c-0.1,0.1-0.3,0.2-0.4,0.4c0,0.1-0.1,0.2-0.1,0.2c-0.1,0.3,0,0.5,0.1,0.8
								c0.3,0,0.2,0.2,0.2,0.3c0,0,0,0.1,0,0.1c0,0.1,0.2,0.2,0,0.3c-0.3,0.3-0.5,0.6-0.7,0.9c-0.1,0.3-0.3,1.2-0.2,1.4
								c0,0.3,0.3,0.4,0.4,0.6C146.6,114.3,146,114.5,145.8,113.9z"/>
						</g>
					</g>
				</g>
			</g>
		</g>
		<g>
			<g>
				<g>
					<g class="st2">
						<g class="st2">
							<path class="st10" d="M101,103.8c-0.5-0.2-0.7,0.1-0.9,0.1c-0.2,0-0.2,0.3-0.3,0.6c0,0.3,0,0.7-0.1,0.6
								c-0.2-0.2-1.5-1.2-1.5-1.2c-0.3,0-0.2,0.3,0,0.8c0.1,0.2,0.2,0.4,0.1,0.3c0,0,0.1,0.1,0.2,0.3c0.1,0.2,0.2,0.4,0.2,0.5
								c0,0.2-0.1,0.2,0,0.4c0,0.4-0.3,0.9-0.4,1.2c-0.2,0.5-0.4,0.6-0.7,0.5c-0.3-0.1-0.4,0.1-0.6,0.1c-0.2,0-0.4,0.1-0.6,0.1
								c-0.2-0.1-0.4-0.2-0.7-0.1c0,0-0.1,0-0.1,0.1c0,0.1-0.1,0-0.1,0.1c-0.2-0.1-0.3-0.4-0.5-0.4c0,0-0.1,0.2-0.1,0.3
								c0,0.7,0.1,1.2,0.3,1.7c0.2,0.4,0.5,0.4,0.7,0.5c0.4,0.1,0.8,0.9,1.1,1.7c0.3,0.6,0.6,1.6,1,1.4c0.5-0.2,0.8-0.8,1.3-0.7
								c0.4,0.1,0.8,0.2,1.2,0.2c0.1,0,0.3,0,0.4,0c0.4-0.2,0.9-0.3,0.8-1c0.3-0.4,0.6-0.3,0.7-0.9c0-0.7,0-1.5,0.2-1.9
								c0.1-0.2,0.3-0.4,0.6-0.5c0.1,0,0.7,0.1,0.9,0.2c0.4,0.1,0.4-0.3,0.3-0.6c-0.2-0.5-0.3-1-0.3-1.4c0-0.1,0.2-0.1,0.3-0.2
								c0.1-0.3-0.1-0.7-0.2-1.1c0.1-1-0.2-1-0.2-1c0-0.1,0.4,0,0.5-0.1c0.1-0.1,0-0.4-0.2-0.5c-0.4-0.5-0.9-0.9-0.5-1.2
								c-0.1,0-0.2,0-0.2,0c-0.5,0.4-1.3,0.5-1.4,0.9c0,0.1,0.1,0.1,0.1,0.2c0,0.1,0,0.2,0,0.3C102.3,104.2,101.4,104,101,103.8z"/>
							<path class="st11" d="M96,110.2c-0.3-0.1-0.5-0.1-0.7-0.5c-0.2-0.5-0.3-1-0.3-1.7c0-0.1,0.1-0.3,0.1-0.3
								c0.2-0.1,0.3,0.3,0.5,0.4c0,0,0.1,0,0.1-0.1c0-0.1,0-0.1,0.1-0.1c0.2,0,0.4,0,0.7,0.1c0.2,0,0.4-0.1,0.6-0.1
								c0.2,0,0.4-0.2,0.6-0.1c0.3,0.1,0.5,0,0.7-0.5c0.1-0.2,0.4-0.8,0.4-1.2c-0.1-0.2,0.1-0.2,0-0.4c0,0,0.2,0.2,0.6,0.4
								c0.1,1-0.1,2.1-0.4,3.2C98,109.8,97,110.1,96,110.2z"/>
							<path class="st12" d="M99.1,106.3c0,0,0-0.4,0-0.6c0-0.2,0.2-0.3,0.6,0.2c0,0,0.4,0.7,0.7,1.5c0.3,0.8,0.5,1.7,0.2,1.9
								c0,0-0.4,0.3-0.5,0.4c0,0-0.2-0.1-0.3-0.1c-0.2,0-0.4,0-0.5,0.3c0,0-0.3,0.4-0.8,0.7c-0.4,0.3-0.9,0.5-1.1,0.3
								c0,0-0.8-0.1-1.1-0.4c0,0-0.4-0.9-0.7-0.8c0,0-0.9-1-0.4-1.1c0,0,0.2-0.2,0.3-0.3c0,0,0.1,0,0.3,0c0.2,0,0.4,0.1,0.6,0.1
								c0.5,0.1,1,0.1,1.1,0.2c0,0,0.1,0,0.4,0c0.2,0,0.5,0,0.8-0.2C99.2,108.3,99.6,107.6,99.1,106.3z"/>
							<path class="st13" d="M98.9,105.9c0,0-0.6-1.4,0.3-0.8c0,0,0.3,0.1,0.7,0.3c0.4,0.2,0.9,0.4,1.1,0.8c0,0,0.4,0.8,0.6,1.7
								c0.2,0.9,0.2,2-0.4,2.4c0,0-0.1,0.1-0.1,0.6c0,0-0.1,0.2-0.3,0.4c-0.2,0.1-0.4,0.2-0.7,0c0,0-0.3-0.1-0.6-0.2
								c-0.3-0.1-0.7-0.2-0.8,0c0,0-0.5-0.4-0.6-0.1c0,0,0.5-0.4,0.8-0.8c0.4-0.4,0.8-0.7,1.1-0.5c0,0,0.3,0.1,0.5-0.2
								c0.2-0.2,0.4-0.9,0-2c0,0-0.2-0.4-0.5-0.8C99.6,106.4,99.2,106,98.9,105.9z"/>
							<path class="st14" d="M98.1,104.3c-0.1-0.2-0.2-0.5-0.3-0.7c0-0.1,0-0.1,0-0.1c0-0.1,0.1,0,0.2,0.1c0.5,0.3,0.7,0.1,1.3,0.5
								c0.1,0,0.1,0,0.2,0c0,0,0-0.1-0.1-0.1c0-0.1,0.1-0.1,0.1-0.2c0-0.2,0.3-0.1,0.6,0c0.2,0,0.3,0,0.5,0c0.3,0,1,0.4,1.2,0.2
								c0.4-0.1,0-0.6,0.3-0.8c0.2-0.1,0.4-0.2,0.6-0.3c0.3-0.1,0.4-0.2,0.7-0.2c0.1,0,0.4,0,0.4,0c0.1,0,0,0.1,0.1,0.2
								c0.1,0.2-0.3,0.1-0.5,0.2c-0.2,0.1-0.1,0.2-0.2,0.3c-0.1,0-0.2,0.1-0.3,0.1c-0.2,0-0.1,0.1-0.1,0.3c0.1,0.2-0.2,0.2-0.3,0.3
								c-0.1,0.2,0.2,0.5,0,0.5c0.2,0-0.2,0.5-0.2,0.3c0,0-0.1,0-0.2-0.1c-0.1,0-0.1-0.1-0.2-0.1c-0.2-0.2-0.5-0.4-0.8-0.6
								c0,0-0.2,0.2-0.5,0.1c-0.2-0.1-0.5-0.2-0.6-0.1c0,0,0.1,0.1,0.1,0.2c0,0,0.1,0.4,0.2,0.7c0.1,0.4,0.2,0.7,0.1,0.7
								c-0.1,0-0.3-0.1-0.4-0.3c-0.3-0.3-0.5-0.4-0.8-0.7c-0.1-0.1-0.2-0.2-0.2-0.2c-0.2-0.2-0.5-0.4-0.5-0.4
								c-0.2-0.1-0.3-0.1-0.3,0.1L98.1,104.3z"/>
							<path class="st15" d="M98.4,113.1c0,0,0.1-0.2,0.4-0.3c0.3-0.1,0.6-0.2,1.1,0c0,0,0.2,0,0.4,0.1c0.2,0,0.4,0,0.5-0.1l0.3,0
								c0,0,0.2-0.1,0.5-0.2c0.2-0.2,0.4-0.4,0.4-0.7c0,0,0.3-0.4,0.4-0.4c0,0,0.4-0.2,0.2-1.1"/>
							<path class="st16" d="M99.4,103.4c0.1,0,0.7,0,1,0.1c0.5,0.1,0.9,0.1,1.4,0.2c0,0,0.1,0,0-0.1c-0.2-0.2,0-0.3-0.1-0.4
								c0-0.1-0.1-0.1-0.1-0.2c0.2-0.2,0.6-0.3,1.1-0.4c0.2-0.1,0.5-0.1,0.8-0.1c0.1,0,0.2,0,0.2,0c0.1,0,0,0.1,0,0.1
								c-0.1,0-0.2,0-0.2,0.1c-0.2,0.1-0.2,0.1-0.4,0.2c-0.2,0-0.3,0.1-0.5,0.1c-0.1,0-0.1,0.1-0.2,0.1c-0.2,0.1-0.3,0.3-0.4,0.5
								c0.2,0.2,0,0.2-0.1,0.3c0,0-0.1,0-0.1,0c-0.1,0.1,0,0.2-0.2,0.2c-0.4-0.1-0.8-0.2-1.1-0.2c-0.3,0-1-0.1-1.1-0.1
								c-0.2,0-0.1,0.2-0.2,0.2C99.5,103.9,99.1,103.5,99.4,103.4z"/>
						</g>
					</g>
				</g>
			</g>
		</g>
		<g>
			<g>
				<g>
					<g class="st2">
						<g class="st2">
							<path class="st10" d="M54.7,109.4c-0.4,0.3-0.1,1-0.1,1.2c0,0.3,0.4,0.7,0.9,0.9c0.5,0.2,0.9,0.3,0.8,0.4
								c-0.3,0.2-1.1,1.6-1,1.8c0.2,0.5,0.7,0.5,1.3,0.4c0.3-0.1,0.4-0.2,0.4-0.1c0,0,0.4-0.4,0.8-0.5c0.2-0.1,0.3,0.1,0.6,0
								c0.4-0.1,1.2-0.1,1.5-0.1c0.6-0.1,0.8-0.1,1.1,0.2c0.2,0.3,0.5,0.2,0.7,0.3c0.3,0.1,0.5,0.1,0.8,0.2c0.3,0.2,0.5,0.3,0.9,0.3
								c0,0,0.1,0,0.1-0.1c0-0.1,0.1,0,0.2,0c0.2,0.1,0.5,0.4,0.8,0.3c0.1,0,0.2-0.2,0.1-0.3c-0.2-0.7-0.4-1.2-0.6-1.7
								c-0.2-0.4-0.4-0.4-0.6-0.6c-0.3-0.2-0.4-1-0.4-1.9c0-0.6,0.2-1.6,0-1.6c-0.2,0-0.5,0.5-0.5,0.1c0-0.3,0-0.5-0.1-0.7
								c0,0,0-0.2,0-0.2c-0.2,0-0.2-0.3-0.5,0.2c-0.2,0.1-0.2-0.2-0.5,0.1c-0.5,0.4-1,0.7-1.3,0.7c-0.2,0-0.3-0.1-0.3-0.3
								c0-0.1,0.3-0.6,0.4-0.7c0.2-0.3,0-0.2-0.3-0.1c-0.5,0.2-0.8,0.3-1.2,0.3c-0.1,0,0-0.2,0-0.2c-0.2-0.1-0.6,0-0.8-0.1
								c-0.6-0.4-0.8-0.3-0.8-0.3c0-0.1,0.3-0.2,0.3-0.3c0-0.1-0.2-0.2-0.4-0.2c-0.6,0-1.2-0.2-1-0.6c-0.1,0-0.2,0.1-0.2,0.1
								c-0.3,0.5-0.9,1.2-0.6,1.7c0.1,0,0.2,0.1,0.2,0.1c0,0.1,0.1,0.2,0.2,0.3C55.6,108.5,55,109.2,54.7,109.4z"/>
							<path class="st11" d="M63.5,112c0.2,0.1,0.4,0.1,0.6,0.6c0.2,0.5,0.4,1,0.6,1.7c0,0.1-0.1,0.3-0.1,0.3
								c-0.3,0.1-0.5-0.2-0.8-0.3c0,0-0.1,0-0.2,0c0,0.1-0.1,0.1-0.1,0.1c-0.3,0-0.6-0.1-0.9-0.3c-0.3-0.1-0.5-0.1-0.8-0.2
								c-0.3-0.2-0.5,0-0.7-0.3c-0.3-0.3-0.5-0.3-1.1-0.2c-0.3,0.1-1.1,0-1.5,0.1c-0.2,0.1-0.3,0-0.6,0c0,0,0-0.3,0.1-0.7
								c1.1-0.2,2.2-0.6,3.1-1.1C61.9,111.8,62.7,112,63.5,112z"/>
							<path class="st12" d="M58.2,112.9c0,0-0.4,0.1-0.7,0c-0.3-0.1-0.5-0.3,0-0.7c0,0,0.7-0.5,1.4-1c0.7-0.5,1.4-1.1,1.6-1
								c0,0,0.3,0.1,0.5,0.1c0,0,0,0.6,0.4,0.4c0,0,0.4-0.1,0.7-0.1c0.3-0.1,0.7-0.1,0.7,0.2c0,0,0.4,0.3,0.5,0.7c0,0,0.1,1,0.4,0.9
								c0,0,0.9,1,0.4,1.1c0,0-0.3,0.2-0.4,0.3c0,0-0.1,0-0.3-0.1c-0.2-0.1-0.4-0.1-0.7-0.3c-0.5-0.2-0.9-0.5-1-0.7
								c0,0-0.4-0.4-1-0.6C60.1,112,59.3,112,58.2,112.9z"/>
							<path class="st13" d="M57.9,113.2c0,0-0.4,0.2-0.7,0.3c-0.3,0.1-0.7-0.1-0.5-0.6c0,0,0-0.4,0.1-0.9c0.1-0.5,0.4-1,0.7-1.1
								c0,0,0.8-0.3,1.6-0.7c0.8-0.4,1.6-0.9,1.9-0.8c0,0,0.1,0,0.4-0.3c0,0,0.5-0.3,0.4,0.3c0,0,0.1,1,0.3,0.9c0,0,0,0.6,0.2,0.4
								c0,0-0.4,0.2-0.8,0.3c-0.4,0.1-0.8,0-0.7-0.3c0,0,0-0.2-0.3-0.3c-0.3,0-0.7,0.2-1.7,0.9c0,0-0.3,0.3-0.6,0.7
								C58,112.3,57.8,112.8,57.9,113.2z"/>
							<path class="st14" d="M56.3,114.3c-0.3,0.1-0.6,0.2-0.8,0.3c-0.1,0-0.2-0.1-0.3-0.2c-0.1-0.1-0.2-0.3-0.2-0.4
								c0.1-0.7-0.4-1.3-0.1-2c0-0.1,0-0.2,0-0.2c0,0-0.1,0-0.2,0c-0.1-0.1-0.2-0.3-0.4-0.4c-0.3-0.2-0.2-0.6-0.1-1
								c0.1-0.2,0.1-0.4,0.1-0.6c0.1-0.4,0.8-0.7,0.8-1c0.1-0.5-0.6-0.6-0.5-1c0.1-0.3,0.1-0.5,0.3-0.7c0.2-0.2,0.3-0.4,0.5-0.6
								c0,0,0.3-0.2,0.4-0.2c0.1,0,0.1,0.1,0.1,0.1c0.2,0.1-0.2,0.2-0.3,0.4c-0.1,0.2,0,0.3,0,0.4c0,0.1-0.1,0.1-0.2,0.2
								c-0.2,0.1,0,0.2,0.1,0.3c0.2,0.1,0,0.3,0,0.5c0.1,0.2,0.5,0.2,0.4,0.4c0.1-0.2,0.3,0.5,0.2,0.4c0,0-0.1,0.1-0.2,0.2
								c-0.1,0-0.1,0.1-0.2,0.1c-0.3,0-0.6,0.2-0.9,0.4c0,0,0.2,0.5,0,0.8c-0.1,0.2-0.3,0.5-0.2,0.7c0,0,0.2,0,0.2,0
								c0,0,0.5,0.1,1,0.2c0.4,0.1,0.9,0.1,0.9,0.2c0,0.1-0.1,0.3-0.2,0.4c-0.3,0.3-0.4,0.6-0.6,0.9c-0.1,0.1-0.2,0.1-0.2,0.2
								c-0.2,0.2-0.3,0.5-0.3,0.7c0,0.3,0.2,0.5,0.4,0.5L56.3,114.3z"/>
							<path class="st15" d="M63,108.6c0,0-0.5,0.6-0.4-0.3c0,0,0-0.4-0.1-0.4l0-0.2c0,0-0.1-0.1-0.2,0c-0.1,0-0.2,0-0.4,0.3
								c0,0-0.2,0.1-0.2,0c0,0-0.1-0.1-0.7,0.4"/>
							<path class="st16" d="M53.9,111.2c0-0.2,0-1,0.2-1.3c0.2-0.5,0.5-0.9,0.8-1.3c0,0,0-0.1,0-0.1c-0.3,0-0.2-0.3-0.4-0.4
								c-0.1,0-0.2-0.1-0.2-0.1c0-0.4,0.2-0.9,0.6-1.3c0.2-0.2,0.4-0.3,0.7-0.5c0.1,0,0.1-0.1,0.2-0.1c0.1,0,0,0,0.1,0.1
								c0,0-0.1,0.1-0.2,0.1c-0.1,0.1-0.1,0.2-0.2,0.3c-0.1,0.1-0.3,0.2-0.4,0.4c0,0.1-0.1,0.2-0.1,0.2c-0.1,0.3,0,0.5,0.1,0.8
								c0.3,0,0.2,0.2,0.2,0.3c0,0,0,0.1,0,0.1c0,0.1,0.2,0.2,0,0.3c-0.3,0.3-0.5,0.6-0.7,0.9c-0.1,0.3-0.3,1.2-0.2,1.4
								c0,0.3,0.3,0.4,0.4,0.6C54.7,111.7,54.1,111.9,53.9,111.2z"/>
						</g>
					</g>
				</g>
			</g>
		</g>
		<g>
			<g>
				<g>
					<g class="st2">
						<g class="st2">
							<path class="st17" d="M106,158.7c-1-1.2-1.9-0.7-2.2-1c-0.5-0.4-0.8,0.3-1.3,1c-0.5,0.7-1.1,1.3-1.2,1c0-0.5-0.2-1.9-0.3-3.2
								c-0.2-1.3-0.7-2.6-0.9-2.7c-1.1-0.6-2.1,0.2-2.9,1.7c-0.4,0.7-0.5,1.1-0.7,1c-0.1,0-0.4,1.8-1,2.7c-0.4,0.6-0.9,0.3-1.3,0.9
								c-0.7,1-2.9,1.6-3.8,2c-1.6,0.7-2.5,0.7-3.3-0.3c-0.6-0.9-1.4-0.7-2.1-1.3c-0.7-0.5-1.4-0.6-2.1-1.2c-0.5-0.8-1-1.4-1.7-1.9
								c-0.1,0-0.3,0-0.4,0.1c-0.2,0.1-0.3-0.1-0.4-0.1c-0.4-0.7-0.2-1.9-0.8-2.2c-0.2-0.1-0.7,0-0.9,0.4c-1.2,1.7-1.9,3.3-2.2,4.8
								c-0.3,1.4,0.5,2.1,1.1,2.9c0.9,1.1,0.4,3.8-0.2,6.3c-0.5,1.9-1.5,4.8-0.1,5.4c1.8,0.6,3.8-0.2,5.2,1.2c1,1.1,1.8,2.1,3,2.7
								c0.1,0.2,0.8,0.7,1.1,0.8c1.6,0.1,3.2,1.1,4.4-0.6c1.6-0.4,2.3,0.4,3.5-0.8c1.5-1.6,2.9-3.5,4.3-3.9c0.4-0.1,0.8-0.2,1.2-0.2
								c0.2,0,0.4,0,0.6,0.1c0.2,0.1,0.5,0.1,0.7,0.2c0.4,0.1,2,1.8,2.5,2.3c1,1,2.3,0.1,3-0.8c1-1.7,1.9-3,2.9-4.3
								c0.4-0.3,1-0.1,1.5-0.4c1.1-1,1.1-2.6,1.6-3.8c0.7-0.9,0.9-1.4,1.1-1.9c0.2-0.5,0.2-0.8,0.3-1c0-0.5-0.2-0.6-0.1-0.6
								c0.2-0.3,1.1,0.4,1.5,0.2c0.5-0.4,0.6-1.3,0.3-2c-0.2-1-0.5-2-0.6-2.8c-0.1-0.8,0-1.5,0.7-2c-0.2,0-0.5-0.1-0.6,0
								c-0.9,0.7-2.1,0.9-3,1c-1,0.2-1.8,0.3-2.3,0.9c0,0.2,0,0.5-0.1,0.7c-0.3,0.2-0.4,0.5-0.6,0.8c-0.2,0.2-1,0-1.7-0.5
								C107.2,159.8,106.5,159.2,106,158.7z"/>
							<path class="st18" d="M77.8,163.1c-0.6-0.9-1.4-1.5-1.1-2.9c0.3-1.5,0.9-3.1,2.2-4.8c0.2-0.3,0.7-0.5,0.9-0.4
								c0.6,0.3,0.4,1.5,0.8,2.2c0.1,0,0.3,0.2,0.4,0.1c0.2-0.1,0.3-0.1,0.4-0.1c0.7,0.5,1.2,1.1,1.7,1.9c0.7,0.6,1.4,0.7,2.1,1.2
								c0.7,0.6,1.5,0.4,2,1.3c0.8,1,1.7,1,3.3,0.3c0.8-0.4,3.1-1,3.8-2c0.4-0.7,0.8-0.4,1.3-0.9c0,0,0.2,0.8,0.7,2.1
								c-2.4,2.4-5,4.7-8.4,6.4C84.5,166.7,81,165.2,77.8,163.1z"/>
							<path class="st19" d="M95.6,160.8c0,0,0.8-0.9,1.5-1.2c0.7-0.4,1.4-0.3,1.2,1.7c0,0-0.7,2.5-1.7,4.9c-1,2.5-2.5,4.9-3.6,4.9
								c0,0-1.6,0-2.4,0c0,0-0.3-0.5-0.8-0.8c-0.5-0.4-1.3-0.7-2.2-0.4c0,0-1.8,0.2-3.7-0.1c-1.9-0.2-3.7-0.9-3.6-1.6
								c0,0-0.6-0.5-1.1-1.2c-0.5-0.7-1-1.5-1-2.1c0,0,0.2-0.7,0.2-1.5c0-0.8,0-1.6-0.6-1.8c0,0-0.2-1.1-0.2-2.1
								c0-1,0.3-1.9,1.1-1.6c0,0,1.1,0.1,1.6,0.2c0,0,1.1,1.2,2.3,2.4c1.2,1.2,2.7,2.4,2.7,2.9c0,0,0.3,0.4,1,0.8
								c0.6,0.5,1.6,1,2.7,1.2C91.3,165.8,94.1,164.9,95.6,160.8z"/>
							<path class="st20" d="M95.8,159.7c0,0,0.6-1.1,1.2-1.8c0.6-0.7,1.4-1,1.9,0.6c0,0,0.8,1,1.5,2.2c0.4,0.6,0.7,1.3,0.8,2
								c0.1,0.7,0.2,1.4,0,2c0,0-0.1,0.1-0.2,0.4c-0.1,0.3-0.3,0.6-0.5,1.1c-0.4,0.9-1.1,2.1-1.9,3.3c-1.6,2.4-3.9,4.9-6.2,4.9
								c0,0-0.5,0-1.6,1.3c0,0-0.7,0.3-1.5,0.3c-0.8,0-1.8-0.3-2.1-1.4c0,0-0.6-0.9-1.4-1.7c-0.8-0.9-1.6-1.7-2.3-1.7
								c0,0-0.1-0.5-0.3-0.9c-0.2-0.4-0.6-0.8-1-0.6c0,0,2,0,4,0c2,0,3.9,0,4.2,1c0,0,0.7,0.7,1.9,0.5c1.2-0.2,2.9-1.3,4.4-4.8
								c0,0,0.3-1.3,0.3-2.8C97,162.1,96.7,160.4,95.8,159.7z"/>
							<path class="st21" d="M97.7,154.3c0.3-0.7,0.7-1.6,1.1-2.2c0.2-0.2,0.5-0.1,0.7-0.3c0.3-0.1,0.7,0.3,0.9,0.6
								c0.1,0.2,0.3,0.4,0.4,0.6c0.1,0.2,0.4,0.3,0.3,0.5c0,0.3,0.1,0.5,0.2,0.8c0.2,0.5,0.4,1,0.8,2.1c0.1,0.2,0.2,0.4,0.2,0.4
								c0-0.1,0-0.2,0-0.3c0.1-0.1,0.3,0,0.4-0.2c0.1-0.5,0.6,0.3,1.4,1c0.4,0.3,0.8,0.5,1.2,0.7c0.4,0.2,0.9,0.7,1.5,1.2
								c0.6,0.5,1.1,0.9,1.5,0.9c1.4-0.1,1-1.9,2-2.2c0.7-0.1,1.2-0.3,2.1-0.3c0.8,0,1.4-0.2,2.2-0.4c0.2,0,1.1-0.1,1.3,0
								c0.3,0.1,0,0.4,0.1,0.6c0.1,0.7-1.1,0.4-1.6,0.5c-0.6,0.1-0.7,0.6-1.1,1c-0.2,0.1-0.5,0-0.9,0c-0.6-0.2-0.5,0.4-0.6,0.8
								c0,0.6-1,0.4-1.3,0.7c-0.5,0.4-0.1,1.8-0.9,1.7c0.7,0.1-1.5,1.4-1.2,0.8c0,0.1-0.3-0.2-0.5-0.4c-0.1-0.2-0.3-0.4-0.3-0.5
								c-0.1-0.8-0.8-1.8-1.3-2.6c-0.1-0.1-0.9,0.3-1.5-0.3c-0.5-0.5-1-1.2-1.2-1.2c0,0.1,0.1,0.6,0.1,0.6c-0.1,0-0.2,1.1-0.6,2.1
								c-0.4,1-1.1,1.9-1.3,1.7c-0.2-0.3-0.4-1-0.4-1.4c0-0.7-0.1-1.2-0.1-1.7c0-0.2-0.1-0.5-0.1-0.7c-0.1-0.2-0.1-0.5-0.2-0.8
								c0-0.3,0.1-0.7,0.1-1c-0.1-0.8-0.4-1.8-0.6-2c-0.5-0.5-1-0.7-1.4-0.4L97.7,154.3z"/>
							<path class="st22" d="M79,175.1c0,0,0.8-0.2,1.8,0c1,0.2,2.1,0.7,3.1,2.2c0,0,0.5,0.4,1,0.9c0.5,0.4,1.2,0.8,1.4,0.8l0.6,0.6
								c0,0,0.9,0.3,1.9,0.3c1,0,2-0.1,2.4-0.9c0,0,0.4-0.1,0.8-0.2c0.4-0.1,0.9-0.1,1,0.1c0,0,0.3,0.1,0.8-0.1
								c0.5-0.2,1.2-0.7,1.9-1.8"/>
							<path class="st23" d="M102.6,155.2c0.1,0.1,0.4,0.4,0.8,0.8c0.4,0.3,0.9,0.7,1.2,1c0.5,0.4,1,0.8,1.6,1.2
								c0.6,0.4,1.4,0.6,2.1,0.9c0.1,0,0.2,0,0.2-0.2c-0.2-0.9,0.5-0.8,0.5-1.4c0-0.2-0.2-0.6,0-0.6c0.8-0.4,2-0.2,3.6-0.2
								c0.7,0,1.7,0,2.5-0.1c0.2,0,0.5-0.1,0.7,0c0.2,0,0,0.2,0.1,0.3c-0.2,0.1-0.5,0.1-0.7,0.2c-0.5,0.1-0.7,0.5-1.2,0.5
								c-0.5,0.1-1,0-1.5,0c-0.3,0-0.4,0.1-0.6,0.2c-0.7,0.3-1.3,0.6-1.7,1.1c0.3,0.7-0.4,0.6-0.7,0.8c-0.1,0-0.3,0-0.4,0
								c-0.3,0.1-0.4,0.6-0.9,0.3c-1.1-0.6-1.9-1.3-2.7-1.8c-0.3-0.2-0.9-0.6-1.4-0.9c-0.5-0.4-0.9-0.7-1-0.8
								c-0.4-0.3-0.4,0.2-0.7,0c0,0,0-0.1-0.1-0.3c0-0.2-0.1-0.4-0.1-0.6C102.3,155.3,102.3,155,102.6,155.2z"/>
						</g>
					</g>
				</g>
			</g>
		</g>
		<g>
			<g>
				<g>
					<g class="st2">
						<g class="st2">
							<path class="st17" d="M185.9,175c-0.2,0.8,0.4,1.6,1.2,2.3c0.8,0.7,1.7,1.1,1.8,1.4c0.4,0.5,1.2,0.7,2.2,0.7
								c1,0,2.2-0.2,3.2-0.6c2.1-0.7,3.6-1.9,3.7-1.5c0,1,2.8,5.2,3.2,5.3c1.3,0.3,2.5-0.8,3.2-2.6c0.4-0.8,0.3-1.3,0.6-1.2
								c0.1,0-0.1-1.8,0.3-2.9c0.3-0.7,1-0.7,1.2-1.5c0.5-1.2,2.8-3.1,3.4-4.1c1.2-1.8,1.7-2.4,3.3-2.6c1.2,0,1.7-1,2.6-1.4
								c1-0.6,1.5-1.3,2.4-1.9c1.1-0.4,1.9-1,2.7-1.9c0.1-0.2,0.1-0.3,0-0.5c-0.1-0.2,0.2-0.4,0.2-0.5c0.8-0.5,2.1-0.6,2.5-1.5
								c0.1-0.2,0-0.8-0.4-1c-2-0.8-3.6-1.2-5.1-1.4c-1.4-0.2-1.9,0.4-2.7,0.8c-1.1,0.6-3.5-0.7-5.4-2.2c-1.5-1.2-3.7-3.3-4-2.8
								c-0.3,0.6,0,2.3-1.2,1.9c-0.8-0.4-1.5-0.8-2-0.9c-0.1-0.1-0.5-0.3-0.6-0.3c-0.4,0.4-1.2,0-1,1.9c-0.5,0.8-1.1,0.2-1.4,1.6
								c-0.4,1.9-0.9,4-2,4.7c-0.3,0.2-0.6,0.4-1,0.5c-0.2,0-0.3,0.1-0.5,0.1c-0.1,0-0.2,0-0.3-0.1c-0.2,0-0.8-1.7-0.9-2.2
								c-0.2-1-0.3-0.3-0.6,0.5c-0.3,1.5-0.9,2.5-1.6,3.1c-0.2,0-0.3-0.5-0.4-0.6c-0.5,0.1-1.3,1-2.1,1.3c-0.5,0-1.2-0.1-1.6,0
								c-0.4,0-0.7,0.1-0.9,0.2c-0.4,0.1-0.4,0.3-0.5,0.3c-0.2-0.1,0.3-1,0.1-1.4c-0.2-0.3-0.9-0.1-1.5,0.2
								c-0.8,0.4-1.7,0.7-2.5,0.6c-0.7-0.1-1.3-0.5-1.2-1.2c-0.2,0.2-0.4,0.4-0.4,0.4c-0.1,1.1-0.2,2.3,0,3.5
								c0.2,1.2,0.7,2.2,1.7,2.8c0.3,0,0.6-0.1,0.8,0c0.4,0.2,0.8,0.3,1.2,0.4c0.3,0.2,0.3,0.9,0.4,1.8
								C186.1,173.3,186,174.4,185.9,175z"/>
							<path class="st18" d="M215.3,158.3c0.8-0.4,1.3-1,2.7-0.8c1.5,0.3,3.2,0.6,5.1,1.4c0.4,0.2,0.5,0.7,0.4,1
								c-0.4,0.9-1.7,1-2.5,1.5c0,0.2-0.3,0.3-0.2,0.5c0.1,0.2,0,0.4,0,0.5c-0.7,0.9-1.6,1.5-2.7,1.9c-0.9,0.7-1.4,1.4-2.4,1.9
								c-1,0.5-1.4,1.4-2.7,1.4c-1.5,0.2-2.1,0.8-3.3,2.6c-0.6,1-2.8,2.9-3.4,4.1c-0.2,0.8-0.9,0.8-1.2,1.5c0,0-0.6-0.6-1.6-1.7
								c2-3.2,3.8-6.5,4.6-9.9C211,162.8,213.4,160.7,215.3,158.3z"/>
							<path class="st19" d="M204.7,174.2c0,0-0.7,1.1-1.4,1.8c-0.8,0.6-1.6,0.7-1.9-1.3c0,0,0.1-2.6,0.4-5.2
								c0.3-2.7,0.6-5.4,1.3-5.7c0,0,1.1-0.5,1.6-1c0,0,0.4,0.3,0.9,0.4c0.5,0.1,1.1,0,1.4-0.8c0,0,0.8-1.1,1.6-2.2
								c0.8-1,1.5-2,2.1-1.6c0,0,0.5-0.2,1.1-0.3c0.6-0.1,1.4-0.3,1.9-0.1c0,0,0.7,0.4,1.4,0.6c0.7,0.2,1.5,0.3,1.7-0.2
								c0,0,1.1-0.1,2.1-0.1c1,0,1.9,0.1,1.6,1c0,0-0.1,1.2-0.3,1.8c0,0-1.5,1.3-3.2,2.3c-1.7,1-3.6,1.8-4,1.5c0,0-0.5,0.1-1.3,0.4
								c-0.8,0.3-1.7,0.6-2.7,1.2C207.1,167.8,205.1,169.8,204.7,174.2z"/>
							<path class="st20" d="M204.9,175.3c0,0-0.3,1.3-0.9,2.2c-0.6,0.9-1.5,1.5-2.5,0c0,0-1.2-0.7-2.2-1.7
								c-0.3-0.3-0.5-0.6-0.8-0.8c-0.3-0.3-0.5-0.6-0.7-0.9c-0.4-0.6-0.5-1.3-0.3-2c0,0,0.2-0.7,0.4-1.6c0.2-1,0.6-2.3,1-3.7
								c0.9-2.7,1.9-5.6,3.1-6.3c0,0,0.3-0.1,0.3-1.7c0,0,0.2-0.5,0.5-0.8c0.3-0.3,0.7-0.4,1.4,0.4c0,0,0.7,0.4,1.4,0.7
								c0.8,0.3,1.6,0.4,1.8,0c0,0,0.4,0.2,0.7,0.4c0.4,0.1,0.7,0.1,0.7-0.3c0,0-0.4,1.4-1.3,2.6c-0.8,1.2-2.1,2.1-2.7,1.4
								c0,0-0.7-0.3-1.4,0.3c-0.7,0.6-1.5,2.1-1.9,6c0,0,0.1,1.4,0.6,2.8C202.8,173.5,203.6,175.1,204.9,175.3z"/>
							<path class="st21" d="M204.3,181.2c-0.3,0.8-0.5,1.8-0.9,2.5c-0.2,0.3-0.6,0.3-0.9,0.5c-0.4,0.2-0.9-0.1-1.2-0.3
								c-0.2-0.2-0.4-0.3-0.6-0.4l-0.2-0.1c-0.1,0-0.2,0-0.3-0.1c-0.2,0-0.4-0.1-0.5-0.1c-0.7-0.1-1.4-0.2-2.1-0.3
								c-1.4-0.2-2.7-0.7-3.5-1.7c-0.3-0.2-0.5-0.4-0.8-0.4c-0.1,0.1-0.4,0.2-0.5,0.3c-0.9,0-1.8-0.2-2.6-0.2
								c-1.4,0.1-2.5-1.2-3.3-2.6c-0.4-0.7-1-1.4-1.5-2.1c-0.4-0.6-0.3-1.5-0.2-2.3c0.1-0.8,0.2-1.6-0.1-1.9c-0.4-0.7-1-0.8-1.7-1
								c-0.7-0.2-1.4-0.4-1.9-1.2c-0.4-1-0.9-1.8-0.8-2.9c0.1-0.9,0.1-1.7,0.3-2.6c0-0.2,0.7-0.9,0.8-1c0.3-0.1,0.2,0.2,0.5,0.3
								c0.5,0.2-0.3,1-0.4,1.6c-0.1,0.7,0.5,0.9,0.8,1.4c0.1,0.3,0,0.6,0,1c-0.1,0.6,0.5,0.6,1,0.7c0.7,0,0.7,1,1.2,1.3
								c0.7,0.4,1.8-0.4,2.1,0.4c-0.2-0.7,2.1,1,1.5,1c0.1-0.1,0.1,0.4,0,0.7c-0.1,0.2-0.2,0.5-0.2,0.5c-0.7,0.4-1.1,1.6-1.7,2.4
								c0,0.1,1.7,1.1,2.2,2.2c0.4,0.9,0.7,1.8,1.5,2.1c0.2,0,0.4-0.5,0.6-0.5c0.2,0,1.9-0.7,3.3-1.8c1.4-1,2.6-2.2,2.9-2.1
								c0.3,0.2,0.9,0.8,0.9,1.3c0.1,1.4,0.9,1.8,1.4,2.9c0.1,0.3,0,0.7,0.1,1c0.4,0.8,0.8,1.7,1.2,1.8c0.6,0.4,1.3,0.4,1.8,0
								L204.3,181.2z"/>
							<path class="st22" d="M205.7,153.9c0,0,0.1,0.5-0.1,0.9c-0.2,0.4-0.8,0.6-1.8-0.1c0,0-0.3-0.1-0.6-0.3
								c-0.3-0.1-0.6-0.2-0.7-0.1L202,154c0,0-0.3,0.1-0.6,0.3c-0.3,0.2-0.5,0.7-0.4,1.5c0,0-0.1,0.2-0.3,0.4
								c-0.2,0.2-0.4,0.3-0.5,0.2c0,0-0.2,0-0.4,0.3c-0.2,0.3-0.4,0.9-0.6,2.2"/>
							<path class="st23" d="M189,181.5c-0.3-0.2-1.2-0.9-1.9-1.8c-0.8-0.9-1.4-1.8-1.6-2.4c-0.3-0.9-0.6-1.7-0.8-2.6
								c-0.1-0.4-0.1-0.8-0.2-1.2c0-0.4-0.1-0.8-0.1-1.2c0-0.1-0.1-0.2-0.3-0.2c-0.9,0.4-1.3-0.5-2-0.5c-0.3,0-0.7,0.1-0.9-0.1
								c-1.1-1.2-1.6-3.3-1.2-5.2c0.2-0.8,0.7-1.7,1.2-2.5c0.2-0.2,0.3-0.4,0.5-0.5c0.2-0.1,0.2,0.1,0.3,0.2
								c-0.1,0.2-0.3,0.4-0.3,0.6c-0.2,0.5,0,0.8-0.2,1.4c-0.1,0.5-0.3,1.1-0.3,1.6c0,0.3,0.1,0.6,0.3,0.8c0.5,1,1.1,1.8,2,2.3
								c0.7-0.4,0.9,0.4,1.2,0.6c0.1,0.1,0.1,0.3,0.2,0.5c0.3,0.3,0.8,0.2,0.8,0.8c-0.1,1.3,0,2.6,0.4,3.8c0.2,0.5,0.7,1.5,1.4,2.4
								c0.7,0.9,1.6,1.7,2,2c1,0.7,2.2,0.4,3.3,0.7c0,0-0.2,0.5-0.8,0.8C191.3,181.9,190.3,182.2,189,181.5z"/>
						</g>
					</g>
				</g>
			</g>
		</g>
	</g>
	<g>
		<path class="st24" d="M68.6,140.4c0,0,29.8-34,62.6,0v107.5c0,0,3.6,14,25.5-4.9"/>
		<g>
			<path class="st25" d="M75.3,164c0,0,16.6,30.7,41.1,3.5"/>
			<path class="st25" d="M80.2,174.2c0,0-4.1,6.1-12,5.2"/>
			<path class="st25" d="M83.3,177.5c0,0-3,6.7-10.9,7.1"/>
			<path class="st25" d="M87.9,179.4c0,0-2.2,7-10.1,8.3"/>
			<path class="st25" d="M109,177c0,0,3.6,6.4-0.8,13"/>
			<path class="st25" d="M92.1,180.7c0,0-0.5,7.3-7.8,10.5"/>
			<path class="st25" d="M98.4,180.6c0,0-0.1,7.3-7.2,10.9"/>
			<path class="st25" d="M104.3,179.7c0,0,1.5,7.1-4.7,12.2"/>
		</g>
		<g>
			<path class="st25" d="M220.2,164c0,0-16.6,30.7-41.1,3.5"/>
			<path class="st25" d="M215.3,174.2c0,0,4.1,6.1,12,5.2"/>
			<path class="st25" d="M212.2,177.5c0,0,3,6.7,10.9,7.1"/>
			<path class="st25" d="M207.6,179.4c0,0,2.2,7,10.1,8.3"/>
			<path class="st25" d="M186.5,177c0,0-3.6,6.4,0.8,13"/>
			<path class="st25" d="M203.4,180.7c0,0,0.5,7.3,7.8,10.5"/>
			<path class="st25" d="M197.1,180.6c0,0,0.1,7.3,7.2,10.9"/>
			<path class="st25" d="M191.2,179.7c0,0-1.5,7.1,4.7,12.2"/>
		</g>
		<path class="st24" d="M167.6,139.8c0,0,32.2-32.2,61.3,0"/>
	</g>
	<g>
		<path class="st25" d="M119,52.6c0,0,6.7,0.6,8.5,6.7v42.5"/>
		<path class="st25" d="M127.5,59.3c0,0,8.5-14.6,16.4,0v42.5"/>
		<path class="st25" d="M143.9,59.3c0,0,8.5-14.6,16.4,0v42.5c0,0,0.2,9.3,11.1,10.3"/>
		<path class="st25" d="M160.3,72.2c0,0,5.1-7.7,11.1-5.7c6.1,2,6.7,7.7,6.7,7.7s1,9.9-4.7,16.8c-5.7,6.9-10.5,11.3-18.2,14.6"/>
	</g>
</g>
</svg>
