<svg id="Calque_1" data-name="Calque 1" xmlns="http://www.w3.org/2000/svg" viewBox="0 0 700.36 95.62"><defs><style>.cls-1,.cls-2{fill:#ea4d5a;}.cls-1,.cls-3{stroke:#3a2e37;}.cls-1,.cls-2,.cls-8,.cls-9{stroke-linecap:round;}.cls-1,.cls-2,.cls-3,.cls-8,.cls-9{stroke-miterlimit:10;}.cls-1{stroke-width:4px;opacity:0.9;}.cls-2{stroke:#f3ad77;}.cls-2,.cls-8{stroke-width:0.5px;}.cls-3{fill:#fff;}.cls-4{fill:#d3521f;}.cls-15,.cls-19,.cls-5{font-size:16.1px;}.cls-5,.cls-6,.cls-7{fill:#04482f;}.cls-11,.cls-12,.cls-15,.cls-16,.cls-19,.cls-20,.cls-5,.cls-6{font-family:Silom;}.cls-12,.cls-16,.cls-20,.cls-6{font-size:6.44px;}.cls-8,.cls-9{fill:none;stroke:#fff;}.cls-9{stroke-width:3px;}.cls-10{fill:#ffd302;}.cls-11{font-size:16.1px;}.cls-11,.cls-12,.cls-13{fill:#2d52a0;}.cls-14{fill:#ccd639;}.cls-15,.cls-16,.cls-17{fill:#0095c3;}.cls-18{fill:#007749;}.cls-19{fill:#593988;}.cls-20,.cls-21{fill:#673a88;}</style></defs><line class="cls-1" x1="2" y1="35.61" x2="698.36" y2="35.61"/><line class="cls-2" x1="2" y1="35.91" x2="698.36" y2="35.91"/><ellipse class="cls-3" cx="137.09" cy="35.09" rx="34.14" ry="34.03"/><g id="QAmXGF"><path class="cls-4" d="M123.75,14.67h2.88l1.32.21c8.25,1.52,13.71,6.28,16.3,14.25a38.76,38.76,0,0,1,.93,4.46v3.06c-.05.23-.12.46-.15.69-1.19,8.38-5.59,14.22-13.62,17.13a36,36,0,0,1-4.78,1.09h-2.88c-.44-.06-.88-.12-1.32-.2-8.25-1.53-13.71-6.28-16.3-14.25a41.53,41.53,0,0,1-.94-4.46V33.59a5.47,5.47,0,0,0,.16-.7c1.18-8.37,5.59-14.22,13.61-17.13A40.1,40.1,0,0,1,123.75,14.67Zm1.24,1.6a16,16,0,0,0-6.6,1.4,18.88,18.88,0,0,0-11.06,20.56,18.44,18.44,0,0,0,15.76,15.63,2.16,2.16,0,0,0,2.47-1A45.3,45.3,0,0,1,135.46,42c2.35-1.76,4.83-3.35,7.27-5a1.42,1.42,0,0,0,.76-1.39,43.38,43.38,0,0,0-.51-4.72A18.34,18.34,0,0,0,125,16.27Zm18.33,21.34c-6.17,5-12.54,9.63-17,16.3C134.1,53.59,142,47.37,143.32,37.61Z"/><path class="cls-4" d="M124.92,17.75c-2.47,3.4-3.16,7.49-4.6,11.27-1.14,3-2.28,6-3.69,8.84a14.38,14.38,0,0,1-3.08,3.81,2.83,2.83,0,0,1-3.63.52,10.47,10.47,0,0,1-1-.86c3.73.39,5.37-2,6.9-4.42a33,33,0,0,0,3.13-7.5c1-2.95,2-5.86,3.21-8.74A5.7,5.7,0,0,1,124.92,17.75Z"/></g><text class="cls-5" transform="translate(121.52 32.01)">club</text><text class="cls-6" transform="translate(130.37 39.37)">des</text><g id="_1NybWX" data-name="1NybWX"><path class="cls-7" d="M151,32a19.77,19.77,0,0,0-2.48-.15c-2.87,9.12-5,12.44-8.11,19.63,0,0,4.33,0,4.31,0,2.87-5.09,8.2-4.15,10.76,0,0-.05,4,.06,4,0-.72-4.17-8.52-18-8.15-19.48.76-3.12-1.33,4-.32,0m.77,13.59s-1.79.08-3.12,0c-2,0-1.73-.79-1.23-2.1.58-1.53,1.32-3.7,2.06-5.68a2.13,2.13,0,0,1,1.25,0c.5,1.13,1.88,4.46,2.47,5.68C154,45.13,153.68,45.51,151.74,45.56Z"/></g><rect class="cls-7" x="148.17" y="16.98" width="3.52" height="15.67" rx="1.76" transform="translate(0.62 -3.49) rotate(1.34)"/><line class="cls-8" x1="151.96" y1="26.6" x2="147.72" y2="28.27"/><line class="cls-8" x1="151.96" y1="29.05" x2="147.43" y2="30.83"/><line class="cls-8" x1="151.96" y1="21.7" x2="147.83" y2="23.32"/><line class="cls-8" x1="152" y1="19.14" x2="147.87" y2="20.76"/><line class="cls-8" x1="151.83" y1="24.26" x2="148.08" y2="25.67"/><line class="cls-9" x1="147.83" y1="32.25" x2="166.01" y2="32.25"/><path class="cls-7" d="M166.8,36.73h-2.13q-.28-2.16-2-2.16a2.39,2.39,0,0,0-1.7.54,2.13,2.13,0,0,0-.56,1.62,2.31,2.31,0,0,0,.61,1.52l4.56,5.1a4.52,4.52,0,0,1,1.26,3v1.06a4.16,4.16,0,0,1-1.26,3,3.87,3.87,0,0,1-3,1l-2.49,0c-1.43,0-2.14-.08-2.86-.79a4.32,4.32,0,0,1-1.09-3.23l.91-1.83s0-.07,0,0c.1,1.07,2.36,4.08,3.4,4a2.45,2.45,0,0,0,1.63-.55,2.3,2.3,0,0,0,.5-1.61,2.2,2.2,0,0,0-.62-1.52l-4.55-5.1a4.41,4.41,0,0,1-1.27-3V36.73a4.35,4.35,0,0,1,4.31-4.3h2.13Q166.55,32.43,166.8,36.73Z"/><path class="cls-7" d="M151.84,18.19h-3.52c-.06-.09-.49-.49-.49-.74h0a.74.74,0,0,1,.74-.73h2.91a.74.74,0,0,1,.74.73h0A2.61,2.61,0,0,1,151.84,18.19Z"/><ellipse class="cls-3" cx="552.37" cy="34.53" rx="34.14" ry="34.03"/><g id="QAmXGF-2" data-name="QAmXGF"><path class="cls-10" d="M539.33,14.8h2.88c.44.07.88.13,1.32.21,8.25,1.52,13.71,6.28,16.31,14.25a43.52,43.52,0,0,1,.93,4.46v3.06a5.73,5.73,0,0,0-.16.69C559.43,45.85,555,51.69,547,54.6a36.56,36.56,0,0,1-4.79,1.09h-2.88c-.44-.06-.88-.12-1.32-.2q-12.37-2.3-16.3-14.25a39.2,39.2,0,0,1-.93-4.46V33.72c.05-.23.12-.46.16-.7,1.18-8.37,5.58-14.22,13.61-17.13A39.5,39.5,0,0,1,539.33,14.8Zm1.24,1.6A16,16,0,0,0,534,17.8a18.88,18.88,0,0,0-11.07,20.56A18.46,18.46,0,0,0,538.68,54a2.14,2.14,0,0,0,2.46-1A45.3,45.3,0,0,1,551,42.11c2.35-1.76,4.83-3.35,7.27-5a1.42,1.42,0,0,0,.76-1.39,43.37,43.37,0,0,0-.5-4.72A18.34,18.34,0,0,0,540.57,16.4ZM558.9,37.74c-6.17,5-12.54,9.63-17,16.3C549.69,53.72,557.55,47.5,558.9,37.74Z"/><path class="cls-10" d="M540.5,17.88c-2.46,3.4-3.15,7.49-4.6,11.27-1.14,3-2.27,6-3.68,8.84a14.79,14.79,0,0,1-3.08,3.81,2.84,2.84,0,0,1-3.63.52,10.3,10.3,0,0,1-1-.86c3.74.39,5.37-2,6.9-4.42a32.53,32.53,0,0,0,3.14-7.5c1-2.95,2.05-5.86,3.21-8.74A5.68,5.68,0,0,1,540.5,17.88Z"/></g><text class="cls-11" transform="translate(537.11 32.14)">club</text><text class="cls-12" transform="translate(545.96 39.5)">des</text><g id="_1NybWX-2" data-name="1NybWX"><path class="cls-13" d="M566.55,32.1a19.6,19.6,0,0,0-2.47-.15c-2.88,9.12-5,12.44-8.12,19.63,0,0,4.33,0,4.32,0,2.87-5.09,8.19-4.15,10.76,0,0,0,4,.06,4,0-.73-4.17-8.52-18-8.16-19.48.76-3.12-1.32,4-.32,0m.77,13.59s-1.78.08-3.12.05c-2,0-1.72-.79-1.22-2.1.58-1.53,1.31-3.7,2.06-5.68a2.13,2.13,0,0,1,1.25,0c.49,1.13,1.87,4.46,2.47,5.68C569.55,45.26,569.26,45.64,567.32,45.69Z"/></g><rect class="cls-13" x="563.75" y="17.11" width="3.52" height="15.67" rx="1.76" transform="translate(0.74 -13.19) rotate(1.34)"/><line class="cls-8" x1="567.54" y1="26.73" x2="563.3" y2="28.4"/><line class="cls-8" x1="567.54" y1="29.18" x2="563.02" y2="30.96"/><line class="cls-8" x1="567.54" y1="21.83" x2="563.41" y2="23.45"/><line class="cls-8" x1="567.58" y1="19.27" x2="563.45" y2="20.89"/><line class="cls-8" x1="567.41" y1="24.39" x2="563.66" y2="25.8"/><line class="cls-9" x1="563.42" y1="32.38" x2="581.6" y2="32.38"/><path class="cls-13" d="M582.39,36.86h-2.14c-.19-1.44-.87-2.16-2-2.16a2.36,2.36,0,0,0-1.7.54,2.13,2.13,0,0,0-.57,1.62,2.32,2.32,0,0,0,.62,1.52l4.56,5.1a4.52,4.52,0,0,1,1.26,3v1.06a4.16,4.16,0,0,1-1.26,3,3.89,3.89,0,0,1-3,1l-2.5,0c-1.42,0-2.14-.08-2.86-.79a4.36,4.36,0,0,1-1.08-3.23l.91-1.83s0-.07,0,0c.1,1.07,2.35,4.08,3.39,4a2.45,2.45,0,0,0,1.64-.55,2.35,2.35,0,0,0,.5-1.61,2.25,2.25,0,0,0-.62-1.52L572.91,41a4.44,4.44,0,0,1-1.26-3V36.86a4.34,4.34,0,0,1,4.3-4.3h2.14C580.78,32.56,582.22,34,582.39,36.86Z"/><path class="cls-13" d="M567.42,18.32H563.9c-.06-.09-.48-.49-.48-.74h0a.73.73,0,0,1,.73-.73h2.92a.74.74,0,0,1,.74.73h0A2.59,2.59,0,0,1,567.42,18.32Z"/><ellipse class="cls-3" cx="409.72" cy="34.54" rx="34.14" ry="34.03"/><g id="QAmXGF-3" data-name="QAmXGF"><path class="cls-14" d="M397.12,14.47H400c.44.06.89.12,1.32.2C409.57,16.2,415,21,417.63,28.92a41.5,41.5,0,0,1,.93,4.46v3.06c-.05.23-.13.46-.16.7-1.18,8.37-5.59,14.22-13.61,17.13A40.1,40.1,0,0,1,400,55.36h-2.88c-.44-.07-.88-.13-1.31-.21Q383.42,52.87,379.5,40.9a38.76,38.76,0,0,1-.93-4.46V33.38c.05-.23.12-.46.16-.69,1.18-8.38,5.58-14.22,13.61-17.13A36.41,36.41,0,0,1,397.12,14.47Zm1.24,1.59a16,16,0,0,0-6.59,1.4A18.89,18.89,0,0,0,380.7,38a18.43,18.43,0,0,0,15.77,15.63,2.14,2.14,0,0,0,2.46-1,45.3,45.3,0,0,1,9.9-10.86c2.35-1.76,4.83-3.34,7.27-5a1.44,1.44,0,0,0,.76-1.4,43.64,43.64,0,0,0-.5-4.72A18.34,18.34,0,0,0,398.36,16.06Zm18.33,21.35c-6.17,5-12.54,9.62-17,16.29C407.48,53.38,415.35,47.16,416.69,37.41Z"/><path class="cls-14" d="M398.29,17.55c-2.46,3.39-3.15,7.48-4.6,11.27-1.14,3-2.27,6-3.68,8.84a14.92,14.92,0,0,1-3.08,3.81,2.85,2.85,0,0,1-3.63.51,9.05,9.05,0,0,1-1-.86c3.74.4,5.37-2,6.9-4.41a32.9,32.9,0,0,0,3.14-7.5c.95-2.95,2.05-5.87,3.21-8.74A5.65,5.65,0,0,1,398.29,17.55Z"/></g><text class="cls-15" transform="translate(394.9 31.8)">club</text><text class="cls-16" transform="translate(403.75 39.16)">des</text><g id="_1NybWX-3" data-name="1NybWX"><path class="cls-17" d="M424.34,31.76a19.76,19.76,0,0,0-2.47-.14c-2.87,9.11-5,12.44-8.12,19.63,0,0,4.33,0,4.32,0,2.87-5.09,8.19-4.16,10.76,0,0,0,4,.06,4,0-.73-4.18-8.52-18-8.16-19.49.76-3.11-1.32,4-.32,0m.77,13.59s-1.78.08-3.12.06c-2,0-1.72-.79-1.22-2.11.58-1.52,1.31-3.7,2.06-5.68a2.13,2.13,0,0,1,1.25,0c.49,1.13,1.87,4.46,2.47,5.68C427.34,44.92,427.06,45.3,425.11,45.35Z"/></g><rect class="cls-17" x="421.54" y="16.77" width="3.52" height="15.67" rx="1.27" transform="translate(0.69 -9.87) rotate(1.34)"/><line class="cls-8" x1="425.33" y1="26.39" x2="421.09" y2="28.06"/><line class="cls-8" x1="425.33" y1="28.84" x2="420.81" y2="30.62"/><line class="cls-8" x1="425.33" y1="21.49" x2="421.2" y2="23.12"/><line class="cls-8" x1="425.37" y1="18.94" x2="421.24" y2="20.56"/><line class="cls-8" x1="425.2" y1="24.05" x2="421.45" y2="25.47"/><line class="cls-9" x1="421.21" y1="32.05" x2="439.39" y2="32.05"/><path class="cls-17" d="M440.18,36.53H438c-.19-1.45-.87-2.17-2-2.17a2.36,2.36,0,0,0-1.7.54,2.14,2.14,0,0,0-.57,1.63,2.3,2.3,0,0,0,.62,1.51l4.56,5.1a4.52,4.52,0,0,1,1.26,3v1.06a4.16,4.16,0,0,1-1.26,3,3.87,3.87,0,0,1-3,.95l-2.5,0c-1.42,0-2.14-.08-2.86-.79a4.36,4.36,0,0,1-1.08-3.23l.91-1.83s0-.07,0,0c.1,1.07,2.35,4.09,3.39,4a2.4,2.4,0,0,0,1.64-.55,2.35,2.35,0,0,0,.5-1.61,2.25,2.25,0,0,0-.62-1.52l-4.56-5.1a4.44,4.44,0,0,1-1.26-3v-1a4.34,4.34,0,0,1,4.3-4.31h2.14C438.57,32.22,440,33.66,440.18,36.53Z"/><path class="cls-17" d="M425.21,18h-3.52c-.06-.09-.48-.48-.48-.73h0a.74.74,0,0,1,.74-.74h2.91a.74.74,0,0,1,.74.74h0A2.51,2.51,0,0,1,425.21,18Z"/><ellipse class="cls-3" cx="271.8" cy="35.74" rx="34.14" ry="34.03"/><g id="QAmXGF-4" data-name="QAmXGF"><path class="cls-18" d="M258.27,15.3h2.88c.44.07.88.12,1.32.2q12.38,2.3,16.3,14.25a39.2,39.2,0,0,1,.93,4.46v3.07c-.05.23-.12.46-.16.69-1.18,8.38-5.58,14.22-13.61,17.13a37.69,37.69,0,0,1-4.78,1.09h-2.88c-.44-.07-.88-.12-1.32-.21-8.25-1.52-13.71-6.27-16.31-14.24a44.66,44.66,0,0,1-.93-4.46V34.21a5.73,5.73,0,0,0,.16-.69c1.18-8.38,5.59-14.22,13.61-17.13A38.24,38.24,0,0,1,258.27,15.3Zm1.24,1.6a15.72,15.72,0,0,0-6.6,1.4,18.86,18.86,0,0,0-11.06,20.55,18.42,18.42,0,0,0,15.76,15.63,2.16,2.16,0,0,0,2.47-1A45.35,45.35,0,0,1,270,42.6c2.35-1.76,4.83-3.34,7.27-5a1.43,1.43,0,0,0,.76-1.4,46.32,46.32,0,0,0-.51-4.72A18.33,18.33,0,0,0,259.51,16.9Zm18.33,21.34c-6.18,5-12.54,9.63-17,16.3C268.62,54.21,276.49,48,277.84,38.24Z"/><path class="cls-18" d="M259.43,18.38c-2.46,3.39-3.15,7.49-4.59,11.27-1.14,3-2.28,6-3.69,8.84a14.71,14.71,0,0,1-3.08,3.81,2.83,2.83,0,0,1-3.63.51,10,10,0,0,1-1-.85c3.73.39,5.36-2,6.9-4.42a33,33,0,0,0,3.13-7.5c1-2.95,2-5.86,3.21-8.74A5.72,5.72,0,0,1,259.43,18.38Z"/></g><text class="cls-19" transform="translate(256.04 32.64)">club</text><text class="cls-20" transform="translate(264.89 39.99)">des</text><g id="_1NybWX-4" data-name="1NybWX"><path class="cls-21" d="M285.48,32.59a21.88,21.88,0,0,0-2.47-.14c-2.87,9.11-5,12.44-8.12,19.63,0,0,4.34,0,4.32,0,2.87-5.09,8.2-4.15,10.76,0,0,0,4,.06,4,0-.73-4.17-8.52-18-8.15-19.49.76-3.11-1.33,4-.33,0m.78,13.6s-1.79.07-3.13.05c-2,0-1.72-.79-1.22-2.1.58-1.53,1.31-3.7,2.06-5.68a2.05,2.05,0,0,1,1.25,0c.49,1.13,1.88,4.46,2.47,5.68C288.48,45.76,288.2,46.14,286.26,46.19Z"/></g><rect class="cls-21" x="282.68" y="17.6" width="3.52" height="15.67" rx="1.76" transform="translate(0.67 -6.63) rotate(1.34)"/><line class="cls-8" x1="286.48" y1="27.23" x2="282.24" y2="28.89"/><line class="cls-8" x1="286.48" y1="29.67" x2="281.95" y2="31.45"/><line class="cls-8" x1="286.48" y1="22.33" x2="282.35" y2="23.95"/><line class="cls-8" x1="286.51" y1="19.77" x2="282.38" y2="21.39"/><line class="cls-8" x1="286.35" y1="24.88" x2="282.59" y2="26.3"/><line class="cls-9" x1="282.35" y1="32.88" x2="300.53" y2="32.88"/><path class="cls-21" d="M301.32,37.36h-2.14c-.18-1.44-.86-2.17-2-2.17a2.33,2.33,0,0,0-1.7.55,2.13,2.13,0,0,0-.57,1.62,2.32,2.32,0,0,0,.62,1.52l4.56,5.1a4.48,4.48,0,0,1,1.26,3v1a4.16,4.16,0,0,1-1.26,3,3.86,3.86,0,0,1-3,.95l-2.49.05c-1.43,0-2.14-.08-2.87-.8a4.36,4.36,0,0,1-1.08-3.23l.91-1.83c0-.05,0-.06,0,0,.1,1.07,2.36,4.09,3.39,4a2.43,2.43,0,0,0,1.64-.56,2.33,2.33,0,0,0,.5-1.61,2.22,2.22,0,0,0-.62-1.52l-4.56-5.1a4.43,4.43,0,0,1-1.26-3v-1a4.32,4.32,0,0,1,4.3-4.3H297Q301.07,33.06,301.32,37.36Z"/><path class="cls-21" d="M286.36,18.82h-3.52c-.06-.1-.49-.49-.49-.74h0a.74.74,0,0,1,.74-.74H286a.74.74,0,0,1,.74.74h0A2.61,2.61,0,0,1,286.36,18.82Z"/><text/></svg>