<svg id="Calque_1" data-name="Calque 1" xmlns="http://www.w3.org/2000/svg" viewBox="0 0 210.66 210.66"><defs><style>.cls-1{fill:#fff;}.cls-2{opacity:0.8;}.cls-3{fill:#c92718;}.cls-4{font-size:50px;}.cls-10,.cls-4,.cls-5,.cls-6,.cls-7{fill:#3a2e37;}.cls-4,.cls-5{font-family:Silom;}.cls-5{font-size:20px;}.cls-10,.cls-6{stroke:#3a2e37;}.cls-6,.cls-8,.cls-9{stroke-linecap:round;}.cls-6{stroke-linejoin:round;}.cls-8,.cls-9{fill:none;stroke:#fff;}.cls-10,.cls-8,.cls-9{stroke-miterlimit:10;}.cls-8{stroke-width:0.5px;}.cls-9{stroke-width:3px;}</style></defs><circle class="cls-1" cx="105.33" cy="105.33" r="105.33"/><g id="QAmXGF" class="cls-2"><path class="cls-3" d="M63.55,40.28h9c1.36.21,2.73.39,4.09.64,25.63,4.73,42.58,19.5,50.64,44.26,1.46,4.46,2,9.22,2.9,13.85v9.51c-.16.72-.38,1.43-.49,2.15-3.67,26-17.35,44.18-42.28,53.21-4.74,1.72-9.9,2.29-14.86,3.39h-9c-1.37-.21-2.74-.39-4.09-.64-25.64-4.73-42.59-19.5-50.65-44.26-1.45-4.46-1.95-9.22-2.89-13.85V99c.16-.72.38-1.43.48-2.15,3.68-26,17.36-44.18,42.29-53.21C53.43,42,58.58,41.38,63.55,40.28Zm3.85,5a49.3,49.3,0,0,0-20.49,4.35,58.64,58.64,0,0,0-34.36,63.85c4.52,26.17,22.89,44.35,49,48.55,3.33.53,5.5,0,7.65-3.16,8.7-12.62,18.4-24.47,30.76-33.74,7.29-5.47,15-10.39,22.57-15.48,1.62-1.09,2.56-2.37,2.36-4.34-.48-4.89-.56-9.87-1.56-14.67A57,57,0,0,0,67.4,45.24Zm56.93,66.29c-19.16,15.59-38.94,29.91-52.89,50.63C95.72,161.16,120.15,141.83,124.33,111.53Z"/><path class="cls-3" d="M67.18,49.84c-7.66,10.55-9.79,23.26-14.29,35-3.54,9.26-7.07,18.57-11.44,27.45-2.19,4.45-5.94,8.31-9.57,11.83-3.06,3-7.11,4.08-11.27,1.6a29.63,29.63,0,0,1-3.16-2.66c11.61,1.22,16.68-6.1,21.44-13.72,4.52-7.22,7.13-15.23,9.74-23.29,3-9.17,6.36-18.22,10-27.16A17.71,17.71,0,0,1,67.18,49.84Z"/></g><text class="cls-4" transform="translate(56.63 94.14)">club</text><text class="cls-5" transform="translate(84.13 116.99)">des</text><g id="_1NybWX" data-name="1NybWX"><path class="cls-6" d="M148.09,94a63.24,63.24,0,0,0-7.68-.44c-8.92,28.31-15.57,38.64-25.21,61,0,.11,13.45-.1,13.4,0,8.93-15.81,25.46-12.9,33.43,0-.09-.16,12.42.19,12.39,0-2.26-13-26.46-55.89-25.33-60.53,2.37-9.66-4.12,12.46-1,0m2.4,42.23s-5.55.24-9.7.16c-6.13-.1-5.35-2.45-3.8-6.53,1.8-4.75,4.08-11.5,6.4-17.64.89-.32,3.14-.47,3.88,0,1.54,3.5,5.83,13.85,7.67,17.64C157.4,134.88,156.52,136.06,150.49,136.22Z"/></g><rect class="cls-7" x="139.39" y="47.43" width="10.93" height="48.68" rx="3.33" transform="translate(1.71 -3.36) rotate(1.34)"/><line class="cls-8" x1="151.18" y1="77.32" x2="138.01" y2="82.5"/><line class="cls-8" x1="151.18" y1="84.92" x2="137.12" y2="90.45"/><line class="cls-8" x1="151.18" y1="62.1" x2="138.35" y2="67.15"/><line class="cls-8" x1="151.29" y1="54.16" x2="138.46" y2="59.2"/><line class="cls-8" x1="150.77" y1="70.05" x2="139.11" y2="74.44"/><line class="cls-9" x1="138.36" y1="94.88" x2="194.83" y2="94.88"/><path class="cls-10" d="M197.29,108.8h-6.64q-.89-6.72-6.32-6.72a7.37,7.37,0,0,0-5.28,1.68,6.63,6.63,0,0,0-1.76,5,7.18,7.18,0,0,0,1.92,4.72l14.16,15.84a14,14,0,0,1,3.92,9.44v3.28a12.93,12.93,0,0,1-3.92,9.4c-2.62,2.64-5.76,3-9.44,3l-7.75.14c-4.43,0-6.65-.25-8.89-2.46s-3.36-5.56-3.36-10l2.81-5.68c.13-.17,0-.21,0,0,.32,3.32,7.32,12.69,10.55,12.4,2.33-.21,4-.58,5.08-1.72a7.22,7.22,0,0,0,1.56-5,7,7,0,0,0-1.92-4.72l-14.16-15.84a13.75,13.75,0,0,1-3.92-9.44V108.8a13.45,13.45,0,0,1,13.36-13.36h6.64Q196.49,95.44,197.29,108.8Z"/><path class="cls-7" d="M150.8,51.2H139.87c-.19-.29-1.51-1.51-1.51-2.29h0a2.3,2.3,0,0,1,2.29-2.29h9A2.3,2.3,0,0,1,152,48.91h0A8,8,0,0,1,150.8,51.2Z"/></svg>