<?xml version="1.0" encoding="utf-8"?>
<!-- Generator: Adobe Illustrator 25.0.1, SVG Export Plug-In . SVG Version: 6.00 Build 0)  -->
<svg version="1.1" id="Calque_1" xmlns="http://www.w3.org/2000/svg" xmlns:xlink="http://www.w3.org/1999/xlink" x="0px" y="0px"
	 viewBox="0 0 10 9.1" style="enable-background:new 0 0 10 9.1;" xml:space="preserve">
<style type="text/css">
	.st0{stroke:#000000;stroke-width:0.25;stroke-linejoin:round;stroke-miterlimit:10;}
	.st1{fill:#878787;stroke:#000000;stroke-width:0.25;stroke-linejoin:round;stroke-miterlimit:10;}
	.st2{fill:none;stroke:#000000;stroke-width:0.25;stroke-linejoin:round;stroke-miterlimit:10;}
</style>
<g>
	<g>
		<polygon class="st0" points="3,8.3 3,8.3 3,8.3 		"/>
	</g>
	<polygon class="st1" points="3,8.3 3,8.3 4.2,8.3 4.2,8.3 3.3,8.3 	"/>
	<g>
		<path class="st0" d="M4.4,0.8C4.4,0.8,4.4,0.8,4.4,0.8L4.4,0.8L4.4,0.8z"/>
	</g>
	<g>
		<path class="st0" d="M5.6,0.8h0.2C5.8,0.8,5.6,0.8,5.6,0.8z"/>
	</g>
	<path class="st1" d="M4.6,0.8L4.6,0.8c-0.1,0-0.2,0-0.3,0l0,0L4.6,0.8z"/>
	<g>
		<path class="st2" d="M2,3.2c0,0.4,0.1,0.7,0.3,0.9c0.2,0.2,0.5,0.3,0.9,0.3c0.2,0,0.3,0,0.5-0.1l0.4-2.2c-0.8,0-1.3,0.1-1.6,0.3
			C2.2,2.6,2,2.8,2,3.2z"/>
		<polygon class="st2" points="4.1,2.1 4.2,1.8 4.2,1.8 4.2,1.9 		"/>
		<polygon class="st2" points="5.8,2 5.9,2.1 5.8,1.7 5.8,1.7 		"/>
		<path class="st2" d="M6.2,4.3C6.3,4.3,6.3,4.3,6.2,4.3C6.3,4.3,6.3,4.3,6.2,4.3L6.2,4.3z"/>
		<path class="st2" d="M6.7,4.4c0.4,0,0.7-0.1,0.9-0.3C7.9,3.9,8,3.6,8,3.2S7.8,2.6,7.5,2.4C7.1,2.2,6.6,2.1,5.9,2.1l0.4,2.3
			C6.4,4.4,6.6,4.4,6.7,4.4z"/>
		<polygon class="st2" points="4.6,5.6 5.4,5.6 5,3.2 		"/>
		<path class="st1" d="M3,8.3c0,0,0.2-0.7,0.3-1.4L3,8.3z"/>
		<path class="st1" d="M6.7,8.3H5.8l0,0H7L6.7,6.8C6.8,7.5,7,8.3,7,8.3H6.7z"/>
		<g>
			<path class="st0" d="M3.3,4.4c-0.4,0-0.7-0.1-0.9-0.3C2.1,3.9,2,3.6,2,3.2s0.2-0.6,0.5-0.8c0.3-0.2,0.9-0.3,1.6-0.3l0-0.1l0-0.2
				v-1c-1.2,0-2,0.2-2.6,0.6c-0.6,0.4-1,1-1,1.8S0.9,4.6,1.3,5s1.1,0.6,1.8,0.6c0.2,0,0.2,0.6,0.1,1.2l0.5-2.5
				C3.6,4.4,3.4,4.4,3.3,4.4z"/>
		</g>
		<g>
			<path class="st0" d="M8.4,1.5C7.8,1,7,0.8,5.8,0.8v0.9l0.1,0.3c0.8,0,1.3,0.1,1.6,0.3C7.8,2.6,8,2.8,8,3.2S7.9,3.9,7.6,4.1
				C7.4,4.3,7.1,4.4,6.7,4.4c-0.2,0-0.3,0-0.5-0.1l0.5,2.5C6.7,6.2,6.6,5.7,6.8,5.7c0.7,0,1.4-0.2,1.8-0.6c0.5-0.4,0.7-1,0.7-1.8
				C9.4,2.5,9,1.9,8.4,1.5z"/>
		</g>
		<path class="st0" d="M6.2,4.3L6.2,4.3C6.3,4.3,6.3,4.3,6.2,4.3L5.9,2.1l0-0.1l0-0.2l0,0V0.8H5.6H5.4L5,1.3L4.6,0.8l-0.3,0H4.3
			l-0.1,0v0v1l0,0L4.1,2.1L3.7,4.3L3.3,6.8C3.2,7.5,3,8.2,3,8.3l0,0h0.3h0.9l0.2-1.2h1.2l0.2,1.2h0.9H7c0,0-0.2-0.8-0.3-1.5L6.2,4.3
			C6.3,4.3,6.3,4.3,6.2,4.3z M4.6,5.6L5,3.2l0.4,2.3H4.6z"/>
	</g>
</g>
</svg>
