<?xml version="1.0" encoding="utf-8"?>
<!-- Generator: Adobe Illustrator 25.2.3, SVG Export Plug-In . SVG Version: 6.00 Build 0)  -->
<svg version="1.1" id="Layer_1" xmlns="http://www.w3.org/2000/svg" xmlns:xlink="http://www.w3.org/1999/xlink" x="0px" y="0px"
	 viewBox="0 0 448.64 448.65" style="enable-background:new 0 0 448.64 448.65;" xml:space="preserve">
<style type="text/css">
	.st0{fill:#D73383;}
	.st1{fill:none;}
	.st2{fill:#FFFFFF;}
</style>
<g id="XMLID_4_">
	<g id="XMLID_5_">
		<path class="st2" d="M448.64,224.32c0,111.97-82.03,204.77-189.27,221.6V289.17h52.27l9.94-64.85h-62.21v-42.07
			c0-17.74,8.69-35.04,36.56-35.04h28.28v-55.2c0,0-25.67-4.38-50.21-4.38c-51.24,0-84.73,31.05-84.73,87.27v49.42h-56.96v64.85
			h56.96v156.75C82.03,429.09,0,336.29,0,224.32C0,100.44,100.43,0,224.32,0S448.64,100.44,448.64,224.32z"/>
		<path class="st0" d="M259.37,182.25v42.07h62.21l-9.94,64.85h-52.27v156.75c-11.42,1.79-23.13,2.73-35.05,2.73
			c-11.92,0-23.63-0.94-35.05-2.73V289.17h-56.96v-64.85h56.96V174.9c0-56.22,33.49-87.27,84.73-87.27
			c24.54,0,50.21,4.38,50.21,4.38v55.2h-28.28C268.06,147.21,259.37,164.51,259.37,182.25z"/>
	</g>
</g>
</svg>
