<?xml version="1.0" encoding="utf-8"?>
<!-- Generator: Adobe Illustrator 25.2.3, SVG Export Plug-In . SVG Version: 6.00 Build 0)  -->
<svg version="1.1" id="Layer_1" xmlns="http://www.w3.org/2000/svg" xmlns:xlink="http://www.w3.org/1999/xlink" x="0px" y="0px"
	 viewBox="0 0 448.64 448.64" style="enable-background:new 0 0 448.64 448.64;" xml:space="preserve">
<style type="text/css">
	.st0{fill:#D73383;}
	.st1{fill:none;}
	.st2{fill:#FFFFFF;}
</style>
<g id="XMLID_6_">
	<g id="XMLID_7_">
		<circle class="st2" cx="225.4" cy="224" r="41.49"/>
		<path class="st2" d="M276.82,117.24H171.81c-29.92,0-54.25,24.34-54.25,54.26v105.01c0,29.92,24.33,54.26,54.25,54.26h105.01
			c29.92,0,54.26-24.34,54.26-54.26V171.5C331.08,141.58,306.74,117.24,276.82,117.24z M225.4,288.78
			c-35.71,0-64.77-29.06-64.77-64.78c0-35.71,29.06-64.77,64.77-64.77c35.72,0,64.77,29.06,64.77,64.77
			C290.17,259.72,261.12,288.78,225.4,288.78z M293.95,170.3c-8.51,0-15.42-6.91-15.42-15.42c0-8.52,6.91-15.42,15.42-15.42
			c8.52,0,15.42,6.9,15.42,15.42C309.37,163.39,302.47,170.3,293.95,170.3z M276.82,117.24H171.81c-29.92,0-54.25,24.34-54.25,54.26
			v105.01c0,29.92,24.33,54.26,54.25,54.26h105.01c29.92,0,54.26-24.34,54.26-54.26V171.5
			C331.08,141.58,306.74,117.24,276.82,117.24z M225.4,288.78c-35.71,0-64.77-29.06-64.77-64.78c0-35.71,29.06-64.77,64.77-64.77
			c35.72,0,64.77,29.06,64.77,64.77C290.17,259.72,261.12,288.78,225.4,288.78z M293.95,170.3c-8.51,0-15.42-6.91-15.42-15.42
			c0-8.52,6.91-15.42,15.42-15.42c8.52,0,15.42,6.9,15.42,15.42C309.37,163.39,302.47,170.3,293.95,170.3z M276.82,117.24H171.81
			c-29.92,0-54.25,24.34-54.25,54.26v105.01c0,29.92,24.33,54.26,54.25,54.26h105.01c29.92,0,54.26-24.34,54.26-54.26V171.5
			C331.08,141.58,306.74,117.24,276.82,117.24z M225.4,288.78c-35.71,0-64.77-29.06-64.77-64.78c0-35.71,29.06-64.77,64.77-64.77
			c35.72,0,64.77,29.06,64.77,64.77C290.17,259.72,261.12,288.78,225.4,288.78z M293.95,170.3c-8.51,0-15.42-6.91-15.42-15.42
			c0-8.52,6.91-15.42,15.42-15.42c8.52,0,15.42,6.9,15.42,15.42C309.37,163.39,302.47,170.3,293.95,170.3z M276.82,117.24H171.81
			c-29.92,0-54.25,24.34-54.25,54.26v105.01c0,29.92,24.33,54.26,54.25,54.26h105.01c29.92,0,54.26-24.34,54.26-54.26V171.5
			C331.08,141.58,306.74,117.24,276.82,117.24z M225.4,288.78c-35.71,0-64.77-29.06-64.77-64.78c0-35.71,29.06-64.77,64.77-64.77
			c35.72,0,64.77,29.06,64.77,64.77C290.17,259.72,261.12,288.78,225.4,288.78z M293.95,170.3c-8.51,0-15.42-6.91-15.42-15.42
			c0-8.52,6.91-15.42,15.42-15.42c8.52,0,15.42,6.9,15.42,15.42C309.37,163.39,302.47,170.3,293.95,170.3z M276.82,117.24H171.81
			c-29.92,0-54.25,24.34-54.25,54.26v105.01c0,29.92,24.33,54.26,54.25,54.26h105.01c29.92,0,54.26-24.34,54.26-54.26V171.5
			C331.08,141.58,306.74,117.24,276.82,117.24z M225.4,288.78c-35.71,0-64.77-29.06-64.77-64.78c0-35.71,29.06-64.77,64.77-64.77
			c35.72,0,64.77,29.06,64.77,64.77C290.17,259.72,261.12,288.78,225.4,288.78z M293.95,170.3c-8.51,0-15.42-6.91-15.42-15.42
			c0-8.52,6.91-15.42,15.42-15.42c8.52,0,15.42,6.9,15.42,15.42C309.37,163.39,302.47,170.3,293.95,170.3z M276.82,117.24H171.81
			c-29.92,0-54.25,24.34-54.25,54.26v105.01c0,29.92,24.33,54.26,54.25,54.26h105.01c29.92,0,54.26-24.34,54.26-54.26V171.5
			C331.08,141.58,306.74,117.24,276.82,117.24z M225.4,288.78c-35.71,0-64.77-29.06-64.77-64.78c0-35.71,29.06-64.77,64.77-64.77
			c35.72,0,64.77,29.06,64.77,64.77C290.17,259.72,261.12,288.78,225.4,288.78z M293.95,170.3c-8.51,0-15.42-6.91-15.42-15.42
			c0-8.52,6.91-15.42,15.42-15.42c8.52,0,15.42,6.9,15.42,15.42C309.37,163.39,302.47,170.3,293.95,170.3z M224.32,0
			C100.43,0,0,100.43,0,224.32s100.43,224.32,224.32,224.32s224.32-100.43,224.32-224.32S348.21,0,224.32,0z M355.83,276.51
			c0,43.56-35.45,79-79.01,79H171.81c-43.56,0-79-35.44-79-79V171.5c0-43.57,35.44-79,79-79h105.01c43.56,0,79.01,35.43,79.01,79
			V276.51z M276.82,117.24H171.81c-29.92,0-54.25,24.34-54.25,54.26v105.01c0,29.92,24.33,54.26,54.25,54.26h105.01
			c29.92,0,54.26-24.34,54.26-54.26V171.5C331.08,141.58,306.74,117.24,276.82,117.24z M225.4,288.78
			c-35.71,0-64.77-29.06-64.77-64.78c0-35.71,29.06-64.77,64.77-64.77c35.72,0,64.77,29.06,64.77,64.77
			C290.17,259.72,261.12,288.78,225.4,288.78z M293.95,170.3c-8.51,0-15.42-6.91-15.42-15.42c0-8.52,6.91-15.42,15.42-15.42
			c8.52,0,15.42,6.9,15.42,15.42C309.37,163.39,302.47,170.3,293.95,170.3z M276.82,117.24H171.81c-29.92,0-54.25,24.34-54.25,54.26
			v105.01c0,29.92,24.33,54.26,54.25,54.26h105.01c29.92,0,54.26-24.34,54.26-54.26V171.5
			C331.08,141.58,306.74,117.24,276.82,117.24z M225.4,288.78c-35.71,0-64.77-29.06-64.77-64.78c0-35.71,29.06-64.77,64.77-64.77
			c35.72,0,64.77,29.06,64.77,64.77C290.17,259.72,261.12,288.78,225.4,288.78z M293.95,170.3c-8.51,0-15.42-6.91-15.42-15.42
			c0-8.52,6.91-15.42,15.42-15.42c8.52,0,15.42,6.9,15.42,15.42C309.37,163.39,302.47,170.3,293.95,170.3z M276.82,117.24H171.81
			c-29.92,0-54.25,24.34-54.25,54.26v105.01c0,29.92,24.33,54.26,54.25,54.26h105.01c29.92,0,54.26-24.34,54.26-54.26V171.5
			C331.08,141.58,306.74,117.24,276.82,117.24z M225.4,288.78c-35.71,0-64.77-29.06-64.77-64.78c0-35.71,29.06-64.77,64.77-64.77
			c35.72,0,64.77,29.06,64.77,64.77C290.17,259.72,261.12,288.78,225.4,288.78z M293.95,170.3c-8.51,0-15.42-6.91-15.42-15.42
			c0-8.52,6.91-15.42,15.42-15.42c8.52,0,15.42,6.9,15.42,15.42C309.37,163.39,302.47,170.3,293.95,170.3z M276.82,117.24H171.81
			c-29.92,0-54.25,24.34-54.25,54.26v105.01c0,29.92,24.33,54.26,54.25,54.26h105.01c29.92,0,54.26-24.34,54.26-54.26V171.5
			C331.08,141.58,306.74,117.24,276.82,117.24z M225.4,288.78c-35.71,0-64.77-29.06-64.77-64.78c0-35.71,29.06-64.77,64.77-64.77
			c35.72,0,64.77,29.06,64.77,64.77C290.17,259.72,261.12,288.78,225.4,288.78z M293.95,170.3c-8.51,0-15.42-6.91-15.42-15.42
			c0-8.52,6.91-15.42,15.42-15.42c8.52,0,15.42,6.9,15.42,15.42C309.37,163.39,302.47,170.3,293.95,170.3z M276.82,117.24H171.81
			c-29.92,0-54.25,24.34-54.25,54.26v105.01c0,29.92,24.33,54.26,54.25,54.26h105.01c29.92,0,54.26-24.34,54.26-54.26V171.5
			C331.08,141.58,306.74,117.24,276.82,117.24z M225.4,288.78c-35.71,0-64.77-29.06-64.77-64.78c0-35.71,29.06-64.77,64.77-64.77
			c35.72,0,64.77,29.06,64.77,64.77C290.17,259.72,261.12,288.78,225.4,288.78z M293.95,170.3c-8.51,0-15.42-6.91-15.42-15.42
			c0-8.52,6.91-15.42,15.42-15.42c8.52,0,15.42,6.9,15.42,15.42C309.37,163.39,302.47,170.3,293.95,170.3z M276.82,117.24H171.81
			c-29.92,0-54.25,24.34-54.25,54.26v105.01c0,29.92,24.33,54.26,54.25,54.26h105.01c29.92,0,54.26-24.34,54.26-54.26V171.5
			C331.08,141.58,306.74,117.24,276.82,117.24z M225.4,288.78c-35.71,0-64.77-29.06-64.77-64.78c0-35.71,29.06-64.77,64.77-64.77
			c35.72,0,64.77,29.06,64.77,64.77C290.17,259.72,261.12,288.78,225.4,288.78z M293.95,170.3c-8.51,0-15.42-6.91-15.42-15.42
			c0-8.52,6.91-15.42,15.42-15.42c8.52,0,15.42,6.9,15.42,15.42C309.37,163.39,302.47,170.3,293.95,170.3z M276.82,117.24H171.81
			c-29.92,0-54.25,24.34-54.25,54.26v105.01c0,29.92,24.33,54.26,54.25,54.26h105.01c29.92,0,54.26-24.34,54.26-54.26V171.5
			C331.08,141.58,306.74,117.24,276.82,117.24z M225.4,288.78c-35.71,0-64.77-29.06-64.77-64.78c0-35.71,29.06-64.77,64.77-64.77
			c35.72,0,64.77,29.06,64.77,64.77C290.17,259.72,261.12,288.78,225.4,288.78z M293.95,170.3c-8.51,0-15.42-6.91-15.42-15.42
			c0-8.52,6.91-15.42,15.42-15.42c8.52,0,15.42,6.9,15.42,15.42C309.37,163.39,302.47,170.3,293.95,170.3z"/>
		<g id="XMLID_8_">
			<g id="XMLID_13_">
				<path class="st0" d="M276.82,92.5H171.81c-43.56,0-79,35.43-79,79v105.01c0,43.56,35.44,79,79,79h105.01
					c43.56,0,79.01-35.44,79.01-79V171.5C355.83,127.93,320.38,92.5,276.82,92.5z M331.08,276.51c0,29.92-24.34,54.26-54.26,54.26
					H171.81c-29.92,0-54.25-24.34-54.25-54.26V171.5c0-29.92,24.33-54.26,54.25-54.26h105.01c29.92,0,54.26,24.34,54.26,54.26
					V276.51z"/>
				<circle class="st0" cx="293.95" cy="154.88" r="15.42"/>
				<path class="st0" d="M225.4,159.23c-35.71,0-64.77,29.06-64.77,64.77c0,35.72,29.06,64.78,64.77,64.78
					c35.72,0,64.77-29.06,64.77-64.78C290.17,188.29,261.12,159.23,225.4,159.23z M225.4,265.49c-22.88,0-41.49-18.61-41.49-41.49
					s18.61-41.49,41.49-41.49s41.49,18.61,41.49,41.49S248.28,265.49,225.4,265.49z"/>
			</g>
		</g>
	</g>
</g>
</svg>
