<?xml version="1.0" encoding="utf-8"?>
<!-- Generator: Adobe Illustrator 25.2.3, SVG Export Plug-In . SVG Version: 6.00 Build 0)  -->
<svg version="1.1" id="Calque_1" xmlns="http://www.w3.org/2000/svg" xmlns:xlink="http://www.w3.org/1999/xlink" x="0px" y="0px"
	 viewBox="0 0 448.64 448.65" style="enable-background:new 0 0 448.64 448.65;" xml:space="preserve">
<style type="text/css">
	.st0{fill:#FFFFFF;}
	.st1{fill:none;}
	.st2{fill:#D73383;}
</style>
<ellipse class="st0" cx="223.81" cy="223.04" rx="219.81" ry="218.96"/>
<g id="Calque_1-2">
	<g id="icon">
		<path class="st1" d="M224.32,0C100.41,0,0,100.45,0,224.32s100.45,224.31,224.32,224.31S448.63,348.2,448.63,224.32
			S348.19,0,224.32,0z M348.8,166.43c-1.09,24.25-18.04,57.46-50.84,99.63c-33.87,44-62.54,66-86,66
			c-14.55,0-26.83-13.41-36.86-40.22c-6.73-24.56-13.43-49.14-20.1-73.73c-7.47-26.79-15.47-40.2-24-40.22
			c-1.87,0-8.4,3.93-19.55,11.72l-11.72-15.1c12.3-10.82,24.43-21.63,36.39-32.42c16.39-14.17,28.7-21.63,36.93-22.38
			c19.39-1.87,31.32,11.39,35.81,39.76c4.83,30.63,8.19,49.67,10.08,57.13c5.6,25.4,11.76,38.1,18.48,38.09
			c5.18,0,13.02-8.24,23.51-24.73c10.49-16.49,16.08-29.02,16.77-37.61c1.44-14.23-4.17-21.35-16.83-21.35
			c-6.36,0.1-12.64,1.49-18.45,4.09c12.23-40.12,35.63-59.61,70.19-58.47C338.2,117.36,350.27,133.96,348.8,166.43z"/>
		<path class="st2" d="M348.8,166.43c-1.09,24.25-18.04,57.46-50.84,99.63c-33.87,44-62.54,66-86,66
			c-14.55,0-26.83-13.41-36.86-40.22c-6.73-24.56-13.43-49.14-20.1-73.73c-7.47-26.79-15.47-40.2-24-40.22
			c-1.87,0-8.4,3.93-19.55,11.72l-11.72-15.1c12.3-10.82,24.43-21.63,36.39-32.42c16.39-14.17,28.7-21.63,36.93-22.38
			c19.39-1.87,31.32,11.39,35.81,39.76c4.83,30.63,8.19,49.67,10.08,57.13c5.6,25.4,11.76,38.1,18.48,38.09
			c5.18,0,13.02-8.24,23.51-24.73c10.49-16.49,16.08-29.02,16.77-37.61c1.44-14.23-4.17-21.35-16.83-21.35
			c-6.36,0.1-12.64,1.49-18.45,4.09c12.23-40.12,35.63-59.61,70.19-58.47C338.2,117.36,350.27,133.96,348.8,166.43z"/>
	</g>
</g>
</svg>
