<svg id="Layer_1" data-name="Layer 1" xmlns="http://www.w3.org/2000/svg" viewBox="0 0 448.64 448.64"><defs><style>.cls-1{fill:#d73383;}.cls-2{fill:#262262;}</style></defs><path class="cls-1" d="M263.41,228.55l-61.76,30.56c-2.42,1.31-10.65-.44-10.65-3.2V193.19c0-2.79,8.29-4.54,10.72-3.16l59.12,32.17C263.32,223.61,265.92,227.19,263.41,228.55Z"/><path class="cls-1" d="M224.32,0C100.43,0,0,100.43,0,224.32S100.43,448.64,224.32,448.64,448.64,348.21,448.64,224.32,348.21,0,224.32,0Zm120.1,255.8a53.86,53.86,0,0,1-53.87,53.86H152.81A53.85,53.85,0,0,1,99,255.8V191.7a53.86,53.86,0,0,1,53.86-53.87H290.55a53.87,53.87,0,0,1,53.87,53.87Z"/><path class="cls-2" d="M290.55,137.83H152.81A53.86,53.86,0,0,0,99,191.7v64.1a53.85,53.85,0,0,0,53.86,53.86H290.55a53.86,53.86,0,0,0,53.87-53.86V191.7A53.87,53.87,0,0,0,290.55,137.83Zm-27.14,90.72-61.76,30.56c-2.42,1.31-10.65-.44-10.65-3.2V193.19c0-2.79,8.29-4.54,10.72-3.16l59.12,32.17C263.32,223.61,265.92,227.19,263.41,228.55Z"/></svg>