<svg xmlns="http://www.w3.org/2000/svg" width="169.91" height="200" viewBox="0 0 169.91 200"><title>icon</title><polygon points="84.34 0 74.66 18.68 94.25 18.68 84.34 0"/><polygon points="24.45 25.32 30.81 45.37 44.66 31.52 24.45 25.32"/><polygon points="0 85.57 18.68 95.26 18.68 75.67 0 85.57"/><polygon points="25.32 145.47 45.37 139.1 31.52 125.25 25.32 145.47"/><path d="M138.66,84.38A53.7,53.7,0,1,0,37.25,109h0c.23.45.47.9.71,1.35L85.5,200l46.64-90c.12-.22.23-.45.35-.68l.18-.34h0A53.44,53.44,0,0,0,138.66,84.38ZM85.57,169.91l-9.9-18.68H95.26ZM85,120.38a36,36,0,1,1,36-36A36,36,0,0,1,85,120.38Z"/><polygon points="145.47 144.59 139.1 124.54 125.25 138.39 145.47 144.59"/><polygon points="169.91 84.34 151.23 74.66 151.23 94.25 169.91 84.34"/><polygon points="144.59 24.45 124.54 30.81 138.39 44.66 144.59 24.45"/></svg>