<svg id="Calque_1" data-name="Calque 1" xmlns="http://www.w3.org/2000/svg" viewBox="0 0 100 100"><defs><style>.cls-1{fill:#fff;}</style></defs><title>Logo MP web</title><path class="cls-1" d="M43.53,60.59a77.63,77.63,0,0,1-2.2-12.51c-.21-2.11-.33-4.22-.43-6.35s-.08-4.24,0-6.37c.23-8.5,1-17,3.9-25.39a19.88,19.88,0,0,1,3.34-6.19,5.33,5.33,0,0,1,.71-.72,5.24,5.24,0,0,1,.83-.69,6.36,6.36,0,0,1,1-.6,6.23,6.23,0,0,1,1.22-.4,5.13,5.13,0,0,1,2.66.18,4.84,4.84,0,0,1,2.19,1.62,8.1,8.1,0,0,1,1.37,3.88,19.2,19.2,0,0,1,.06,3.46A47.69,47.69,0,0,1,57.2,17c-1.83,8.36-4.5,16.31-7.06,24.35l-1.47-.41a115.06,115.06,0,0,1,5.51-17.48,50.45,50.45,0,0,1,4.29-8.28,21.55,21.55,0,0,1,6.91-7,12.92,12.92,0,0,1,5.07-1.67l1.38-.06a5,5,0,0,1,2,.46,4.17,4.17,0,0,1,1,.7,5.58,5.58,0,0,1,.73,1,7.41,7.41,0,0,1,.41,1c.08.3.13.59.18.88a9.94,9.94,0,0,1-.08,2.92,22,22,0,0,1-.56,2.48c-.45,1.57-1,3.06-1.57,4.52a155.42,155.42,0,0,1-8.17,16.51c-6,10.63-12.65,20.74-19.37,30.79l-10.17,15c-1.7,2.5-3.38,5-5,7.53-.8,1.27-1.61,2.54-2.35,3.83-.36.65-.72,1.31-1,2a4,4,0,0,0-.53,1.94l-.45.22a2.37,2.37,0,0,1-.1-1.3A10.68,10.68,0,0,1,27,95.67a22.81,22.81,0,0,1,.76-2.2c.56-1.43,1.19-2.82,1.85-4.2,1.3-2.76,2.73-5.44,4.16-8.12,2.88-5.34,5.91-10.59,9-15.81L61.14,34.2a170.34,170.34,0,0,0,8.39-15.73,41.94,41.94,0,0,0,1.56-4,15.83,15.83,0,0,0,.51-1.93A6.2,6.2,0,0,0,71.76,11a2.08,2.08,0,0,1,0-.23.08.08,0,0,1,0-.08s0,0,0,.05.1,0,.09,0,0,0-.2,0h-.89a9.53,9.53,0,0,0-3.54.92A19.28,19.28,0,0,0,61.05,17a44.91,44.91,0,0,0-4.7,7.43,69.78,69.78,0,0,0-3.58,8.21,73.84,73.84,0,0,0-2.6,8.59l-1.48-.42a115.8,115.8,0,0,0,3.49-12,94.26,94.26,0,0,0,2.16-12.26,46.31,46.31,0,0,0,.28-6.07,18.9,18.9,0,0,0-.3-2.81,4.46,4.46,0,0,0-.79-1.95c-.37-.35-1-.4-2.07.93A18.43,18.43,0,0,0,49,11.52a68.19,68.19,0,0,0-3,11.76c-.76,4-1.22,8.15-1.62,12.28A157.16,157.16,0,0,0,44,60.5Z"/><path class="cls-1" d="M43.53,60.59a77.63,77.63,0,0,1-2.2-12.51c-.21-2.11-.33-4.22-.43-6.35s-.08-4.24,0-6.37c.23-8.5,1-17,3.9-25.39a19.88,19.88,0,0,1,3.34-6.19,5.33,5.33,0,0,1,.71-.72,5.24,5.24,0,0,1,.83-.69,6.36,6.36,0,0,1,1-.6,6.23,6.23,0,0,1,1.22-.4,5.13,5.13,0,0,1,2.66.18,4.84,4.84,0,0,1,2.19,1.62,8.1,8.1,0,0,1,1.37,3.88,19.2,19.2,0,0,1,.06,3.46A47.69,47.69,0,0,1,57.2,17c-1.83,8.36-4.5,16.31-7.06,24.35l-1.47-.41a115.06,115.06,0,0,1,5.51-17.48,50.45,50.45,0,0,1,4.29-8.28,21.55,21.55,0,0,1,6.91-7,12.92,12.92,0,0,1,5.07-1.67l1.38-.06a5,5,0,0,1,2,.46,4.17,4.17,0,0,1,1,.7,5.58,5.58,0,0,1,.73,1,7.41,7.41,0,0,1,.41,1c.08.3.13.59.18.88a9.94,9.94,0,0,1-.08,2.92,22,22,0,0,1-.56,2.48c-.45,1.57-1,3.06-1.57,4.52a155.42,155.42,0,0,1-8.17,16.51c-6,10.63-12.65,20.74-19.37,30.79l-10.17,15c-1.7,2.5-3.38,5-5,7.53-.8,1.27-1.61,2.54-2.35,3.83-.36.65-.72,1.31-1,2a4,4,0,0,0-.53,1.94l-.45.22a2.37,2.37,0,0,1-.1-1.3A10.68,10.68,0,0,1,27,95.67a22.81,22.81,0,0,1,.76-2.2c.56-1.43,1.19-2.82,1.85-4.2,1.3-2.76,2.73-5.44,4.16-8.12,2.88-5.34,5.91-10.59,9-15.81L61.14,34.2a170.34,170.34,0,0,0,8.39-15.73,41.94,41.94,0,0,0,1.56-4,15.83,15.83,0,0,0,.51-1.93A6.2,6.2,0,0,0,71.76,11a2.08,2.08,0,0,1,0-.23.08.08,0,0,1,0-.08s0,0,0,.05.1,0,.09,0,0,0-.2,0h-.89a9.53,9.53,0,0,0-3.54.92A19.28,19.28,0,0,0,61.05,17a44.91,44.91,0,0,0-4.7,7.43,69.78,69.78,0,0,0-3.58,8.21,73.84,73.84,0,0,0-2.6,8.59l-1.48-.42a115.8,115.8,0,0,0,3.49-12,94.26,94.26,0,0,0,2.16-12.26,46.31,46.31,0,0,0,.28-6.07,18.9,18.9,0,0,0-.3-2.81,4.46,4.46,0,0,0-.79-1.95c-.37-.35-1-.4-2.07.93A18.43,18.43,0,0,0,49,11.52a68.19,68.19,0,0,0-3,11.76c-.76,4-1.22,8.15-1.62,12.28A157.16,157.16,0,0,0,44,60.5Z"/></svg>