<?xml version='1.0' encoding='utf-8'?>
<svg xmlns="http://www.w3.org/2000/svg" version="1.1" id="Layer_1" x="0px" y="0px" viewBox="0 0 1641.099 1644.893" enable-background="new 0 0 1641.099 1644.893"> <g> <path d="M818.769,22.447h1.67c3.977,20.669,12.632,40.637,26.63,56.507c17.44,21.269,42.279,34.27,66.639,45.97 c20.42,10.085,39.4,23.336,54.542,40.471c21.472,23.576,38.625,50.731,53.564,78.81c5.619-2.187,11.719-3.451,17.772-2.537 c5.85,1.661,11.285,5.13,14.911,10.076c3.165,4.549,3.423,10.335,3.838,15.695c3.636-2.473,6.967-5.712,11.248-7.05 c9.79-2.464,19.22,4.595,29.02,2.464c39.04-11.506,80.812-16.581,121.135-9.403c26.51,5.158,51.257,17.559,78.321,20.3 c16.757,1.366,34.113,1.403,50.224-4.088c12.457-3.626,23.299-11.036,35.082-16.249c-6.025,10.75-12.595,21.37-16.231,33.236 c-6.561,21.961-7.326,45.629-2.048,67.949c4.854,23.788,16.046,45.887,19.543,69.988c6.764,42.012-3.248,84.281-14.192,124.632 c-0.6,1.91,1.384,2.934,2.519,4.078c4.881,4.614,11.829,8.83,12.254,16.323c3.027,9.227-2.39,17.467-8.489,23.742 c7.225,0.185,14.856,1.596,19.968,7.28c6.228,4.964,3.82,15.428,10.851,19.543c27.377,15.612,53.979,33.246,76.254,55.732 c10.334,10.261,18.851,22.228,25.91,34.934c11.026,20.632,20.115,42.676,35.239,60.807c11.755,14.92,27.026,27.045,44.3,34.99 c9.301,4.568,19.562,6.551,29.463,9.421v1.559c-13.869,3.202-27.709,7.308-40,14.634c-15.705,9.255-29.084,22.238-39.253,37.324 c-14.625,20.678-22.884,45.084-37.822,65.569c-25.199,35.294-61.204,61.056-99.11,81.218c1.744,9.421,0.6,20.909-7.705,26.971 c-4.789,4.983-12.06,4.881-18.399,5.407c8.138,6.192,12.217,17.864,7.945,27.451c-2.252,6.671-8.148,11.054-13.712,14.874 c3.534,16.452,8.904,32.507,11.285,49.218c3.248,22.754,5.573,45.933,2.63,68.863c-2.537,30.191-17.366,57.559-21.665,87.4 c-2.399,16.895-2.851,34.381,2.15,50.888c3.082,14.514,12.106,26.62,17.956,40.018c-9.301-4.798-17.993-10.87-27.839-14.514 c-21.047-7.926-44.254-9.513-66.353-5.758c-26.934,4.291-51.525,17.485-78.561,21.333c-36.715,4.724-73.79-0.904-109.204-10.694 c-8.425-4.494-14.764,5.287-23.123,4.623c-7.668,1.725-13.896-3.746-19.737-7.686c-0.065,7.124-1.301,14.699-7.133,19.589 c-7.419,7.723-19.036,7.253-28.549,4.54c-19.442,36.863-42.796,72.526-74.796,99.737c-18.076,14.468-39.76,23.133-59.931,34.141 c-26.242,14.57-49.356,36.743-60.494,65.043c-3.22,7.926-4.937,16.314-6.856,24.627h-1.67c-3.174-9.052-4.724-18.621-8.563-27.442 c-7.871-18.621-21.269-34.501-36.992-47.004c-18.593-14.487-40.6-23.372-60.826-35.165c-32.914-20.42-59.202-50.298-79.133-83.239 c-3.857-6.081-6.81-12.715-11.063-18.528c-5.592-5.481-13.841-8.36-17.236-15.889c-1.163-4.346-1.716-8.747-1.864-13.204 c-6.911,10.796-22.394,13.684-32.858,6.367c-6.201-3.866-8.517-10.934-10.851-17.403c-44.198,14.542-91.617,23.363-138.067,15.908 c-25.818-4.595-49.772-16.452-75.792-20.189c-18.113-2.556-37.029-2.861-54.542,3.073c-13.084,3.451-24.489,10.962-36.466,16.941 c3.562-7.345,8.295-14.053,11.663-21.49c9.67-21.315,12.3-45.453,9.172-68.531c-3.737-27.774-17.181-53.029-21.749-80.609 c-5.767-35.368,0.185-71.317,8.858-105.679c2.971-9.015,1.043-18.593,1.679-27.829c1.264-4.826,5.02-8.498,7.945-12.392 c-4.189-0.277-8.461-0.314-12.531-1.393c-13.721-4.078-20.125-23.216-11.552-34.685c1.356-2.159,2.851-4.198,4.337-6.247 c-6.727-0.867-12.992-3.82-17.642-8.83c-6.431-7.188-15.373-11.303-23.4-16.341c-24.166-15.022-46.072-33.781-64.369-55.576 c-20.531-24.102-29.638-55.354-48.812-80.36c-12.641-17.135-29.776-31.04-49.486-39.179c-8.535-3.34-17.476-5.389-26.224-8.046 v-1.467c16.295-3.516,32.332-9.116,46.145-18.63c22.856-15.188,38.874-38.422,50.75-62.754 c10.362-21.675,22.062-43.276,39.456-60.198c26.907-26.048,58.86-46.385,92.088-63.382c-1.873-2.962-3.755-5.961-5.204-9.144 c-3.949-9.513-0.074-21.204,7.908-27.396c5.324-3.912,11.995-4.291,18.344-4.429c-2.833-3.682-6.681-7.013-7.594-11.774 c-1.006-6.671,0.738-13.546-1.033-20.134c-9.273-34.805-16.692-70.865-12.826-107.054c2.445-30.561,18.113-58.021,22.561-88.175 c2.943-18.547,1.892-37.776-3.442-55.806c-3.202-12.872-10.593-24.055-16.794-35.608c11.063,4.134,20.604,11.58,31.982,15.031 c17.522,6.754,36.669,6.92,55.123,4.992c29.582-3.746,56.646-18.03,86.238-21.767c45.241-5.453,90.805,3.193,133.564,17.79 c2.934-9.956,11.405-19.239,22.284-19.672c8.581-1.255,15.926,4.208,21.333,10.205c0.646-5.592,0.046-11.949,3.654-16.674 c3.792-4.918,9.799-6.957,14.764-10.344c3.082-2.842,5.038-6.69,7.16-10.251c16.341-29.601,38.155-56.286,64.406-77.638 c14.533-11.802,31.197-20.466,47.917-28.706c23.373-11.765,45.573-27.525,59.94-49.818 C810.206,53.413,814.589,37.773,818.769,22.447 M802.077,68.546c-9.384,14.607-22.441,26.537-36.9,36.005 c-23.299,15.677-50.685,24.729-72.221,43.119c-28.337,23.077-50.187,53.01-67.839,84.77c3.811,0.849,7.779,1.283,11.479,2.639 c4.235,1.652,7.003,5.472,10.076,8.637c0.766-3.691,1.329-7.539,3.211-10.879c4.614-9.615,16.443-15.096,26.759-12.097 c6.939,0.849,11.239,6.948,15.409,11.857c1.504-5.093,2.335-10.962,6.551-14.69c8.065-9.006,23.013-9.975,32.471-2.639 c2.916,2.888,5.324,6.302,7.216,9.956c1.024-3.672,2.159-7.336,3.995-10.694c6.33-10.122,20.9-13.739,31.179-7.502 c4.983,2.519,7.668,7.677,11.313,11.663c1.772-3.017,3.202-6.238,5.167-9.144c5.426-6.459,14.459-9.449,22.69-7.594 c9.642,0.997,16.867,9.513,18.51,18.75c2.408-10.501,12.484-19.146,23.511-18.159c11.645-0.6,20.964,9.052,23.4,19.931 c1.541-3.331,3.183-6.745,5.961-9.246c7.622-7.76,20.807-8.48,29.684-2.482c6.145,3.562,8.821,10.593,10.565,17.126 c3.958-6.681,10.519-12.346,18.501-13.038c13.859-2.178,27.506,10.307,26.63,24.268c5.093-9.615,16.747-15.317,27.442-11.894 c11.516,1.956,17.984,13.988,17.91,24.913c1.753-2.224,3.525-4.411,5.333-6.597c-6.007-12.383-13.038-24.24-20.457-35.82 c-16.784-25.522-35.709-50.51-61.029-68.143c-15.742-11.276-33.993-18.15-50.685-27.774 c-20.678-11.202-39.022-27.045-52.042-46.708c-8.286-12.078-12.752-26.261-16.627-40.24 C815.751,41.51,810.732,56.052,802.077,68.546 M803.424,203.743c-10.371,1.855-19.063,12.374-16.627,23.151 c1.55,11.045,13.001,19.737,24.12,17.522c11.313-1.449,20.724-13.213,18.196-24.655 C826.99,208.458,814.515,200.947,803.424,203.743 M850.473,204.62c-7.031,1.098-13.656,5.647-16.12,12.503 c-5.306,11.174,3.239,25.144,14.828,27.645c11.737,3.728,25.301-5.389,26.501-17.633 C877.998,213.339,863.447,201.815,850.473,204.62 M757.288,206.539c-8.517,1.486-15.234,8.812-16.84,17.19 c-1.08,10.344,5.868,21.01,16.397,23.013c12.143,3.442,25.596-6.339,26.399-18.87C785.292,214.161,770.132,202.885,757.288,206.539 M895.677,209.233c-9.559,1.32-17.67,11.027-16.074,20.789c-0.424,11.589,11.469,21.112,22.616,19.875 c10.519-0.683,20.217-9.901,19.774-20.761C922.409,216.117,908.171,205.57,895.677,209.233 M711.142,212.943 c-11.875,1.642-20.558,16.203-15.188,27.276c4.042,10.381,17.255,16.858,27.654,11.885c10.445-3.912,17.347-17.126,12.143-27.617 C732.125,214.89,720.803,210.174,711.142,212.943 M942.755,216.661c-9.799,1.144-19.211,10.491-17.929,20.734 c-0.48,12.983,14.035,23.419,26.362,19.922c11.285-2.141,18.694-14.754,15.539-25.753 C963.82,221.672,952.739,215.406,942.755,216.661 M666.87,222.198c-11.46,1.781-20.494,13.961-17.116,25.439 c2.242,10.63,14.099,17.606,24.581,15.123c12.66-1.421,21.112-16.517,16.175-28.115C686.995,225.51,676.319,220.232,666.87,222.198 M831.05,228.407c-2.473,6.053-8.102,11.128-6.865,18.224c-0.046,21.592,0.065,43.183,0.12,64.775 c1.356-1.255,2.704-2.51,4.06-3.774c12.383,12.069,23.742,25.126,35.414,37.878c3.931-35.599,6.413-71.336,9.523-107.008 c-6.505,5.85-15.04,11.202-24.185,8.24C839.825,245.192,833.809,236.841,831.05,228.407 M985.172,228.62 c-6.561,1.587-12.448,6.662-14.653,13.084c-4.457,12.051,5.103,26.095,17.541,27.691c13.047,2.344,26.445-9.827,23.982-23.243 C1010.722,233.778,997.011,225.427,985.172,228.62 M784.988,229.33c-1.089,7.05-5.592,12.724-11.23,16.849 c3.174,34.344,5.989,68.715,9.135,103.068c9.236-7.631,17.236-16.609,26.325-24.415c4.337-4.208,9.522-7.723,12.937-12.78 c0.775-23.299-0.028-46.634,0.231-69.942c-7.077,3.46-15.529,6.321-23.068,2.74C792.259,242.267,788.346,235.577,784.988,229.33 M873.541,254.548c-2.242,29.398-5.536,58.722-7.603,88.138c-1.301,6.044,3.7,9.919,7.086,13.905 c8.969,9.836,16.858,20.595,25.707,30.533c8.286-43.063,15.225-86.376,23.206-129.504c1.615-6.967,1.781-14.108,1.236-21.213 c-3.349,5.758-7.686,11.488-14.145,13.878c-7.659,2.953-16.618,1.624-22.948-3.636c-5.702-3.645-7.151-10.805-9.338-16.72 C874.27,237.884,874.556,246.354,873.541,254.548 M739.617,233.925c-1.375,9.153-7.723,16.12-15.548,20.457 c7.742,44.06,15.769,88.065,23.188,132.18c11.174-11.848,23.253-23.003,33.292-35.848c0.341-9.799-1.541-19.58-2.224-29.352 c-1.836-24.609-4.761-49.153-5.998-73.809c-5.832,0.932-11.848,2.768-17.633,0.434 C747.507,246.216,743.207,239.858,739.617,233.925 M625.292,235.125c-12.438,0.36-23.04,13.158-19.903,25.495 c2.353,9.541,12.3,17.172,22.284,15.557c13.813,0.609,24.249-16.286,18.418-28.577 C643.248,239.157,633.938,234.101,625.292,235.125 M693.721,241.953c-0.775,5.149-1.698,10.648-5.25,14.727 c-3.7,3.977-8.729,6.21-13.481,8.637c14.293,52.3,27.608,104.877,42.279,157.066c9.264-11.23,18.316-22.662,28.466-33.126 c-7.409-44.706-15.659-89.264-23.308-133.924c-5.453-0.037-11.257,0.138-16.341-2.15 C701.085,250.534,697.514,245.995,693.721,241.953 M1030.404,243.356c-8.295,1.412-15.576,8.231-16.646,16.729 c-2.316,12.512,9.163,25.218,21.758,24.397c11.968,0.378,22.754-11.469,20.697-23.363 C1054.413,249.482,1041.91,241.021,1030.404,243.356 M945.154,259.512c-8.341,0.535-14.782-5.638-20.051-11.248 c-7.88,47.16-17.163,94.081-24.554,141.306c9.163,12.171,18.427,24.258,27.58,36.438c13.02-46.321,24.849-92.983,37.536-139.396 c1.975-8.037,4.798-15.935,5.73-24.166c-1.476-5.453-3.543-10.796-3.562-16.544C963.008,253.644,954.99,261.09,945.154,259.512 M582.773,251.66c-10.39,0.563-20.3,8.877-21.093,19.534c-1.458,11.303,8.664,21.204,19.46,22.191 c13.942,1.338,27.036-13.499,22.404-27.174C601.274,257.003,591.936,251.272,582.773,251.66 M401.062,259.051 c-25.486,7.594-50.888,17.55-77.85,17.864c-13.075-0.507-26.224-2.15-38.653-6.385c-9.818-3.479-18.962-8.526-28.014-13.601 c14.478,21.841,21.684,48.406,19.46,74.602c-1.043,36.743-21.97,69.213-24.424,105.707c-2.288,35.516,4.909,70.717,13.915,104.886 c3.589-3.7,7.013-7.76,11.599-10.251c5.038-2.722,10.916-1.273,16.36-1.255c-4.623-5.453-8.904-12.18-7.631-19.672 c0.397-8.637,6.478-16.452,14.284-19.811c4.983-2.75,10.805-1.19,16.194-1.126c-10.012-11.626-5.001-31.437,9.024-37.278 c6.302-3.451,13.509-1.993,19.765,0.554c-3.165-5.25-6.828-11.202-5.684-17.606c0.858-12.125,12.512-21.546,24.314-21.813 c3.645,0.83,7.271,1.947,10.768,3.331c-1.975-4.798-4.392-9.79-3.774-15.133c0.406-9.153,6.81-17.366,15.243-20.678 c6.597-3.239,13.942-0.96,20.374,1.495c-0.987-3.285-2.058-6.579-2.611-9.956c-0.378-11.783,8.969-22.191,20.217-24.544 c6.459-1.375,12.42,1.356,17.873,4.383c-2.768-9.218-2.067-20.383,5.684-27.027c8.6-8.48,22.985-8.268,32.028-0.609 c-0.674-4.383-1.135-8.849-0.747-13.269c2.15-12.254,15.428-21.103,27.635-18.537c4.558,0.581,8.397,3.322,12.097,5.859 c-0.166-3.682-0.36-7.4,0.203-11.045c2.316-12.457,16.683-20.798,28.752-17.559c5.444,0.794,9.2,5.029,13.361,8.203 c-0.941-3.091-0.895-7.649-4.881-8.397c-24.305-8.24-49.412-14.459-74.943-17.31C454.33,250.876,426.898,251.466,401.062,259.051 M1160.526,252.795c-22.588,2.141-45.001,6.431-66.657,13.26c2.178,3.654,4.586,7.28,5.859,11.377 c0.498,4.088-0.166,8.258-0.295,12.383c3.977-3.433,7.917-7.446,13.26-8.544c10.574-2.03,22.265,3.931,26.787,13.693 c2.556,5.675,1.901,12.088,0.461,17.956c4.955-3.386,9.993-7.797,16.48-7.059c9.338-0.461,18.002,5.555,21.933,13.896 c3.165,5.453,1.421,11.968,1.283,17.938c2.777-1.366,5.499-2.962,8.489-3.903c12.3-2.897,25.753,5.509,28.761,17.689 c0.969,5.629-0.101,11.433-2.242,16.683c8.406-5.546,20.291-6.072,28.254,0.581c9.79,6.939,11.875,20.955,6.035,31.068 c10.187-5.13,24.378-3.303,30.957,6.616c6.394,7.557,6.099,19.017,1.181,27.276c7.271-1.679,15.733-2.556,22.118,2.058 c6.459,4.964,12.134,12.651,10.999,21.26c0.397,5.444-3.008,9.855-5.546,14.311c5.158-1.264,10.574-1.698,15.843-0.609 c10.344,2.98,17.476,13.868,16.96,24.489c-0.046,5.804-3.46,10.501-6.671,14.985c4.318-0.258,8.618-0.415,12.973,0.065 c10.298,2.731,18.639,13.407,17.19,24.268c0.406,6.431-3.7,11.599-7.16,16.554c3.276-0.231,6.561-0.277,9.855-0.157 c6.035-18.381,10.168-37.333,13.592-56.351c4.088-22.856,5.324-46.404,1.762-69.416c-2.934-18.787-10.251-36.438-15.668-54.561 c-6.367-20.9-9.79-43.147-6.182-64.904c1.919-17.642,9.246-34.113,18.454-49.089c-12.023,7.317-24.673,14.09-38.616,16.812 c-18.131,5.186-37.232,3.525-55.511,0.212c-21.343-4.272-41.366-13.278-62.68-17.67 C1202.427,251.162,1181.26,251.678,1160.526,252.795 M650.215,254.253c-1.836,6.219-3.156,13.278-8.129,17.873 c-4.3,3.737-9.892,5.656-15.4,6.745c18.048,50.953,36.937,101.619,55.188,152.498c1.08,2.399,1.587,5.795,4.531,6.588 c5.084,1.91,10.427,3.017,15.695,4.374c4.161-5.887,8.517-11.645,13.232-17.107c-0.895-7.271-3.211-14.238-5.066-21.296 c-12.226-46.108-24.978-92.078-36.927-138.261C664.333,265.381,655.484,261.838,650.215,254.253 M992.6,271.148 c-7.04,0.526-13.629-2.611-19.174-6.653c-14.099,52.484-27.977,105.043-42.233,157.49c-3.719,6.514,2.251,11.875,5.675,16.683 c9.033-2.215,18.196-4.125,27.036-7.105c5.038-10.528,7.926-21.998,12.401-32.784c13.647-37.702,27.202-75.442,41.218-113.015 c0.794-2.362,1.725-5.13,0.111-7.373c-3.313-5.37-6.422-11.073-6.45-17.578C1006.238,266.027,1000.213,271.268,992.6,271.148 M1071.927,261.828c-10.63,1.264-17.882,12.937-15.677,23.197c1.412,11.497,13.804,19.912,25.015,17.43 c9.689-1.329,18.445-10.584,17.015-20.687C1098.658,268.749,1084.273,258.682,1071.927,261.828 M606.681,269.219 c-0.618,7.326-2.787,14.874-8.305,20.069c-5.472,4.494-12.66,6.358-19.654,5.961c19.562,42.879,39.917,85.398,59.488,128.277 c1.19,3.128,4.743,3.728,7.603,4.438c12.189,2.473,24.249,5.573,36.254,8.821c-18.722-51.147-37.241-102.358-55.889-153.523 c-0.83-2.021-1.679-4.42-4.042-5.02C616.517,276.131,611.211,273.187,606.681,269.219 M539.488,271.914 c-9.273,0.941-17.652,8.332-19.414,17.523c-1.181,8.028,2.353,17.061,9.818,20.9c8.332,5.573,20.734,3.294,27.063-4.328 c5.13-5.287,6.57-13.684,4.281-20.577C558.921,276.214,548.549,270.613,539.488,271.914 M1041.209,285.662 c-7.068,1.762-14.33-0.111-20.42-3.737c-18.371,49.726-36.337,99.608-54.45,149.435c13.038-2.381,26.067-4.844,39.105-7.234 c1.901-0.212,3.082-1.781,3.857-3.396c18.353-39.834,37.13-79.483,55.492-119.317c-7.299-5.804-11.839-14.81-10.325-24.304 C1050.381,280.412,1046.533,284.5,1041.209,285.662 M1114.381,283.088c-5.186,0.71-10.473,3.349-13.296,7.889 c-6.69,8.102-4.586,21.463,3.349,27.986c7.437,7.317,20.125,6.93,28.152,0.766c6.92-6.053,9.282-17.089,4.475-25.098 C1133.066,286.447,1123.267,281.778,1114.381,283.088 M564.402,287.249c0.461,9.652-3.008,20.549-12.318,24.978 c-6.431,4.309-14.33,2.251-21.453,1.366c18.814,31.926,37.13,64.148,55.612,96.268c2.113,2.962,3.46,7.483,7.603,8.055 c14.404,2.639,28.854,5.057,43.22,7.898c-18.584-42.261-39.077-83.663-58.021-125.767 C577.034,293.192,569.32,291.383,564.402,287.249 M498.925,295.056c-10.132,1.55-19.774,10.98-18.824,21.712 c-0.535,11.248,10.971,21.278,22.081,19.368c14.238,0.526,24.831-16.923,18.491-29.499 C517.361,298.341,507.608,293.386,498.925,295.056 M1083.507,303.84c-5.721,2.113-11.599-0.544-17.246-1.495 c-18.159,40.664-38.072,80.544-55.982,121.319c14.782-2.962,30.025-3.128,44.724-6.376c4.558-4.586,6.856-10.962,10.242-16.406 c14.487-25.403,29.324-50.602,43.792-76.014c-5.13-3.562-10.002-7.972-12.365-13.878c-1.836-4.89-0.554-10.233-0.507-15.299 C1092.319,298.94,1088.656,302.797,1083.507,303.84 M1152.194,307.983c-9.624,2.279-17.569,12.115-15.696,22.284 c0.895,10.833,11.543,20.651,22.653,18.777c10.694,0.609,20.374-9.642,19.396-20.226 C1178.741,315.577,1165.002,305.086,1152.194,307.983 M524.088,307.845c-0.231,5.684-0.111,11.488-1.855,16.987 c-3.239,6.773-9.892,11.848-17.283,13.149c-7.4,1.246-14.044-2.021-20.577-4.798c0.867,2.565,1.661,5.213,3.156,7.502 c15.465,23.465,32.581,45.795,48.101,69.232c17.504,2.104,34.934,4.927,52.484,6.653c-18.159-31.419-36.263-62.865-54.422-94.284 C530.824,317.266,528.01,312.126,524.088,307.845 M828.346,310.456c-22.394,18.796-43.709,38.92-63.465,60.484 c-21.758,22.671-42.131,46.68-61.02,71.788c16.111,6.007,32.627,11.008,48.268,18.251c3.146,1.181,7.428,4.134,9.965,0.388 c20.291-23.345,42.842-44.586,66.224-64.794c19.728,18.473,36.715,39.659,54.145,60.254c17.153-6.81,34.694-12.577,52.503-17.439 C903.078,393.584,867.673,350.078,828.346,310.456 M1124.743,325.625c-4.521,0.886-9.19-0.083-13.712-0.138 c-18.039,30.505-35.46,61.379-53.343,91.968c16.526-1.264,33.07-2.408,49.642-3.045c14.957-21.084,29.536-42.427,44.586-63.446 c-6.348-3.073-13.038-7.133-15.456-14.182c-2.916-5.49-1.781-11.571-0.637-17.31 C1132.282,321.759,1128.785,324.324,1124.743,325.625 M458.298,321.833c-11.626,2.648-20.263,16.858-15.188,28.198 c3.313,8.858,13.527,14.127,22.717,12.512c10.399-1.707,19.829-11.663,17.882-22.644 C484.494,327.139,470.017,317.939,458.298,321.833 M1189.121,335.683c-6.856,0.535-12.078,6.238-14.468,12.328 c-1.513,4.854-0.793,10.141,0.037,15.068c3.894,11.728,18.823,17.181,29.721,11.866c6.551-3.58,11.977-10.621,10.999-18.436 C1215.862,343.231,1201.929,332.629,1189.121,335.683 M486.367,342.548c-1.679,7.253-4.586,15.05-11.645,18.713 c-7.935,5.352-18.298,3.294-26.547-0.36c0.969,4.789,1.43,9.633,2.288,14.45c5.426,8.664,12.752,15.926,19.11,23.898 c2.279,1.753,3.506,5.795,6.8,5.933c18.944,1.061,37.85,2.676,56.71,4.789c-3.46-6.57-8.111-12.42-12.383-18.464 C508.919,375.425,498.104,358.659,486.367,342.548 M1153.763,351.462c-14.819,20.835-29.481,41.781-43.802,62.967 c18.168-1.255,36.401-0.572,54.607-0.803c9.486-11.589,19.239-22.948,28.761-34.501c-4.235-1.144-8.674-2.187-12.198-4.927 c-8.877-6.358-12.3-18.657-7.28-28.531C1167.853,349.505,1160.932,351.628,1153.763,351.462 M424.185,350.419 c-12.42,1.642-21.868,15.723-17.476,27.783c3.23,11.811,18.621,17.467,29.103,11.534c9.633-3.995,14.339-16.203,11.008-25.873 C444.328,354.405,433.671,348.251,424.185,350.419 M1224.167,366.114c-13.204,2.242-19.94,18.777-13.25,29.988 c5.656,13.038,25.292,15.262,34.38,4.946c6.321-6.201,6.764-16.803,2.353-24.194 C1242.907,369.03,1233.495,363.503,1224.167,366.114 M1191.576,384.237c-8.046,9.781-16.314,19.396-24.203,29.306 c15.502,1.107,31.05,1.569,46.579,2.537c3.599,0.517,8.443-0.037,8.083,5.546c3.922-4.115,7.917-8.157,11.949-12.18 c-5.241-0.83-11.1-0.074-15.714-3.165c-7.603-3.765-11.156-12.291-11.94-20.263c0.655-4.125,1.938-8.12,3.248-12.088 C1203.507,377.196,1196.042,378.59,1191.576,384.237 M449.108,377.639c-3.719,6.339-8.111,13.343-15.788,15.188 c-6.477,2.334-13.066-0.102-19.442-1.439c0.812,2.537,1.753,5.057,2.122,7.705c0.443,4.457-1.273,8.849-0.923,13.306 c1.845,2.98,4.872,4.955,7.409,7.317c0.452-5.398,0.83-10.796,1.347-16.185c15.834-0.258,31.659,0.461,47.492,0.757 C464.176,395.199,456.609,386.433,449.108,377.639 M390.985,381.884c-8.646,1.347-16.508,8.249-18.021,17.006 c-3.636,11.506,6.108,23.815,17.652,24.794c12.734,1.836,24.877-10.178,23.686-22.856 C414.137,389.45,402.261,379.374,390.985,381.884 M828.282,398.973c-38.072,32.766-72.775,69.546-102.92,109.739 c10.048,3.294,19.857,7.391,30.007,10.335c6.431-1.338,12.189-5.066,18.39-7.317c35.229-13.112,75.368-12.005,110.127,2.067 c3.23,1.504,6.653,0.037,9.781-0.978c7.548-2.611,15.17-5.029,22.874-7.17c-12.078-18.298-25.762-35.451-39.474-52.521 C861.398,434.562,845.841,415.803,828.282,398.973 M1256.462,399.323c-11.765,2.39-18.704,16.203-14.256,27.294 c3.516,8.12,11.958,15.216,21.25,13.952c10.63,0.508,20.355-9.827,19.331-20.401C1283.35,406.88,1269.214,396.075,1256.462,399.323 M424.859,405.358c-3.183,50.381-3.045,101.01,0.83,151.345c5.832,66.196,17.55,132.641,43.534,194.141 c14.108-10.814,28.494-21.287,43.303-31.133c-0.627-3.294-1.347-6.561-2.168-9.79c-10.454-39.797-16.424-80.738-18.574-121.809 c-3.073-37.407-1.716-75.026,0.692-112.434c77.85,1.329,156.032,10.491,230.967,32.221c11.008-14.561,22.819-28.494,34.501-42.519 c-54.016-23.982-112.092-37.269-170.215-46.782C533.841,410.479,479.401,405.173,424.859,405.358 M1242.981,405.109 c-7.76,5.287-14.607,11.875-20.549,19.11c-2.27,2.362-1.006,6.025-1.541,8.812c0.083,18.657-1.91,37.223-2.427,55.862 c10.833-8.572,21.149-17.79,31.834-26.556c8.166-6.856,16.978-13.186,23.511-21.749c-5.702,1.255-11.589,3.709-17.375,1.356 c-7.28-1.836-12.844-8.046-15.815-14.69C1237.924,420.001,1240.157,411.992,1242.981,405.109 M398.838,424.707 c-5.472,1.845-11.165,0.074-16.627-0.812c1.338,5.269,3.617,10.584,2.261,16.129c-0.581,3.516-1.689,6.93-2.916,10.27 c13.241,10.787,26.205,21.905,39.4,32.747c-0.378-18.842,0.591-37.656,0.95-56.489c1.384-6.007-4.807-9.098-7.889-13.121 C409.735,418.054,405.334,423.369,398.838,424.707 M1094.09,417.03c-71.382,4.208-143.299,14.902-210.141,41.273 c11.377,15.677,23.898,30.514,34.538,46.736c76.826-20.42,157.176-23.557,236.171-18.334c-0.166,14.551-0.821,29.093-1.523,43.626 c-4.291,62.145-12.281,124.401-30.044,184.268c13.398,9.523,26.048,20.023,39.225,29.832 c22.561-53.896,35.506-111.271,44.494-168.84c7.483-52.032,12.771-104.544,12.355-157.167 C1177.615,414.484,1135.733,415.046,1094.09,417.03 M356.808,416.883c-11.294,3.719-19.774,17.578-14.127,29.038 c3.728,9.716,16.055,14.708,25.716,11.054c10.418-2.74,16.803-14.856,14.173-25.144 C380.568,420.546,367.733,413.293,356.808,416.883 M1285.998,434.396c-12.365,2.51-18.87,18.095-13.324,29.121 c4.208,10.464,17.449,15.539,27.654,10.962c10.067-3.534,14.985-16.018,11.137-25.772 C1307.784,438.723,1296.683,431.637,1285.998,434.396 M1224.895,485.847c-2.787,2.657-7.077,4.826-7.271,9.163 c-1.522,17.578-3.737,35.11-4.974,52.706c26.27-17.301,51.58-36.032,77.546-53.795c6.948-3.599,7.88-12.115,12.06-18.021 c-8.932,3.552-20.152,2.436-26.648-5.167c-6.302-5.158-6.699-13.758-7.105-21.186 C1253.758,461.395,1239.548,473.879,1224.895,485.847 M380.559,451.771c-4.217,2.897-8.415,6.145-13.37,7.677 c-4.817,0.71-9.707-0.148-14.542-0.351c1.587,5.333,3.792,10.611,3.672,16.277c-0.83,5.25-3.008,10.104-5.536,14.727 c23.945,16.766,47.769,33.725,71.982,50.095c-1.578-18.085-1.901-36.244-1.864-54.394 C407.567,474.322,393.975,463.148,380.559,451.771 M331.913,452.841c-10.98,1.08-19.285,11.857-19.497,22.561 c0.572,6.634,4.023,13.223,9.892,16.655c6.976,4.005,16.397,3.746,23.013-0.923c11.183-6.902,12.457-25.255,2.132-33.43 C343.511,453.533,337.458,452.075,331.913,452.841 M1312.757,472.255c-7.899,1.744-14.099,9.486-14.819,17.458 c-2.39,13.389,10.87,26.464,24.166,24.111c10.205-1.107,19.128-11.183,16.969-21.675 C1339.128,479.259,1325.361,468.407,1312.757,472.255 M494.053,477.284c-4.235,52.724-2.381,105.873,4.032,158.348 c4.401,35.386,11.811,70.459,23.179,104.295c3.774-4.586,6.764-9.744,10.574-14.293c7.594-9.679,17.292-17.439,27.469-24.24 c-2.51-22.524,0.305-45.859,10.058-66.436c20.125-43.479,61.739-77.435,109.379-85.278c13.684-1.089,27.617-0.757,41.07,2.215 c9.107-12.604,20.927-23.068,34.288-30.976c-12.088-5.112-24.674-8.941-37.186-12.853 C644.559,487.36,569.163,478.659,494.053,477.284 M890.243,515.789c6.874,4.512,14.191,8.305,20.9,13.084 c10.916,8.406,20.014,18.934,27.709,30.321c26.196-3.183,53.444,1.864,76.3,15.169c37.527,20.927,66.224,58.362,74.51,100.743 c2.399,14.8,1.421,29.988-1.403,44.669c8.775,6.542,16.203,14.579,23.446,22.736c12.512-32.941,20.438-67.405,26.943-101.979 c8.692-50.196,13.961-101.112,14.099-152.074c-17.227-1.753-34.556-1.735-51.82-2.574 C1029.934,486.502,957.786,492.518,890.243,515.789 M305.145,491.586c-11.552,1.79-20.475,15.031-17.052,26.381 c1.864,11.202,15.17,18.473,25.716,14.57c11.119-2.842,18.381-16.074,14.422-26.916 C325.721,495.914,315.082,489.123,305.145,491.586 M326.22,496.477c2.851,5.472,5.149,11.386,4.383,17.753 c0.314,7.003-5.038,12.134-8.877,17.329c26.491,14.865,52.558,30.478,79.031,45.379c8.923,4.955,17.393,10.731,26.621,15.133 c-1.864-14.837-3.045-29.758-4.364-44.651c1.052-5.149-4.189-6.939-7.123-9.624c-22.496-15.188-44.254-31.437-66.805-46.533 C342.386,495.905,334.293,497.372,326.22,496.477 M1211.987,550.604c-2.408,16.609-4.789,33.227-7.585,49.772 c19.562-9.975,37.961-22.053,57.246-32.544c19.165-11.248,38.579-22.081,57.624-33.532c0.738-7.317,3.322-14.505,8.535-19.857 c-7.29,1.393-15.825,2.187-21.887-2.98c-6.662-4.041-9.19-11.94-10.519-19.137C1267.664,511.849,1239.927,531.383,1211.987,550.604 M816.462,504.597c-36.198,2.316-73.19,17.753-94.754,47.954c11.396,3.728,22.099,9.366,31.677,16.591 c21.85-15.271,48.849-23.17,75.488-21.619c23.114,0.609,46.468,6.874,65.55,20.235c2.916,1.384,5.712,5.841,9.393,3.931 c10.325-5.167,20.983-9.725,32.443-11.737c-4.632-8.757-10.962-16.554-18.371-23.086 C890.418,512.68,852.549,502.364,816.462,504.597 M1337.68,511.941c-7.326,1.218-12.604,7.779-15.188,14.358 c-4.567,13.841,8.96,30.191,23.64,27.285c13.01-0.664,21.389-16.821,16.028-28.235 C1358.229,516.131,1348.014,508.906,1337.68,511.941 M282.077,532.223c-12.89,2.445-21.066,18.196-15.317,30.108 c3.958,10.168,17.218,14.856,26.888,9.975c9.467-3.571,14.93-14.653,12.512-24.434C304.203,537.233,292.78,529.233,282.077,532.223 M302.69,536.034c2.916,6.192,7.234,12.401,5.638,19.636c-0.286,8.646-7.271,14.238-13.527,19.017 c46.837,21.407,93.26,43.728,140.125,65.08c-2.565-12.328-4.549-24.757-6.081-37.25c-0.683-3.313-0.231-7.603-3.746-9.292 c-33.246-19.414-66.824-38.293-99.903-57.984C318.404,530.138,310.035,536.67,302.69,536.034 M299.581,533.773 c-0.406,1.283,0.046,1.726,1.338,1.338C301.315,533.81,300.872,533.367,299.581,533.773 M1203.654,603.752 c-2.27,14.634-5.656,29.047-8.563,43.562c48.747-22.09,97.07-45.112,145.578-67.719c-0.461-8.95,1.578-18.067,8.341-24.36 c-5.509,0.434-11.405,0.591-16.314-2.298c-6.865-2.907-10.279-9.984-12.78-16.554 C1281.08,558.687,1242.049,580.703,1203.654,603.752 M755.018,570.433c10.63,9.393,19.516,20.614,27.1,32.563 c13.333-4.687,27.202-8.129,41.421-8.12c15.289,0.351,30.45,3.322,44.66,9.024c8.701-11.885,19.294-22.404,31.815-30.238 C858.888,542.345,797.334,540.463,755.018,570.433 M646.183,561.353c-36.78,16.655-67.008,48.48-80.055,86.856 c-9.735,28.18-7.603,60.512,7.114,86.588c11.543,22.588,32.701,38.505,55.206,49.163c0.674-2.454,1.329-4.918,1.965-7.373 c-8.083-6.773-15.677-14.274-21.121-23.382c-16.378-25.117-18.916-58.132-7.465-85.758c15.483-38.634,50.547-69.629,91.506-78.33 c21.804-4.448,45.804-0.794,64.221,12.134c11.488,7.751,20.245,18.703,28.143,29.933c2.824-0.286,5.416-0.747,8.341-0.932 c-9.587-22.155-22.413-43.811-41.467-59.1c-14.699-12.217-33.421-19.423-52.475-20.521 C681.606,549.948,663.004,553.621,646.183,561.353 M1359.834,552.587c-9.882,1.532-18.334,11.451-17.006,21.61 c-0.443,12.005,11.479,22.155,23.197,20.66c11.386-0.618,20.531-12.807,17.781-23.889 C1382.293,559.868,1371.184,550.594,1359.834,552.587 M887.124,585.436c-14.431,12.761-25.052,29.324-32.877,46.8 c2.454,0.286,4.77,0.461,7.271,0.738c15.889-22.127,41.836-36.134,68.872-38.265c23.206-0.969,46.33,6.192,65.495,19.174 c30.634,20.724,53.647,54.496,56.84,91.875c0.775,17.172-3.11,34.796-12.54,49.319c-7.797,13.481-20.484,23.013-33.144,31.603 c0.221,2.657,0.637,5.435,0.913,8.12c26.076-11.386,52.051-26.75,67.589-51.396c8.849-14.717,14.551-31.898,13.638-49.227 c0.212-34.953-17.052-68.235-41.338-92.568c-23.068-23.815-54.727-40.166-88.129-41.772 C933.509,559.342,907.101,568.375,887.124,585.436 M261.767,574.65c-10.454,2.251-17.126,13.776-15.649,24.092 c0.507,8.018,6.865,14.634,14.201,17.227c13.361,4.078,28.992-8.194,26.842-22.321C287.41,581.081,273.984,570.608,261.767,574.65 M281.864,576.449c5.859,8.249,10.251,19.073,5.056,28.881c-3.017,8.221-11.737,10.943-19.11,13.684 c58.907,21.121,117.592,42.87,176.471,64.092c-2.639-12.438-5.85-24.738-8.148-37.241c-0.332-2.335-1.523-4.595-3.995-5.241 c-44.881-20.983-89.882-41.735-134.717-62.81C292.605,575.056,287.096,575.535,281.864,576.449 M1323.267,589.782 c-41.975,19.571-83.977,39.077-125.942,58.639c-3.017,1.2-3.755,4.586-4.549,7.373c-2.851,11.331-5.942,22.597-8.821,33.919 c58.621-21.26,117.121-42.86,175.834-63.852c-0.886-5.712-1.781-11.728-0.24-17.375c2.03-4.567,5.841-8.074,8.95-11.912 c-4.254-0.434-8.581-0.175-12.706-1.227c-6.45-2.519-10.713-8.212-14.191-13.905 C1335.373,583.96,1329.329,586.913,1323.267,589.782 M637.417,619.9c-18.805,17.107-33.744,39.483-38.782,64.683 c-4.595,18.113-1.541,37.416,5.278,54.57c6.007,13.546,14.561,26.371,26.962,34.833c2.03-7.087,4.494-14.035,6.764-21.038 c1.689-4.457-1.163-8.95-1.855-13.278c-2.694-11.958-1.735-24.526,1.052-36.374c10.27-35.995,41.033-65.412,77.582-73.707 c14.57-3.506,30.21-1.707,43.922,4.18c8.111,4.586,17.107-1.882,25.412-2.436c-13.629-20.503-34.205-37.675-59.165-41.403 C692.872,585.519,660.762,598.843,637.417,619.9 M1376.434,595.909c-9.67,1.855-17.31,11.755-16.065,21.656 c0.028,11.94,11.848,22.422,23.843,20.291c12.263-0.757,20.134-14.625,16.812-25.836 C1398.865,601.224,1387.258,593.39,1376.434,595.909 M783.354,604.73c4.337,8.148,8.572,16.369,12.392,24.794 c18.888-1.984,37.915-0.618,56.683,1.91c4.254-8.886,9.144-17.439,14.339-25.809C840.573,593.759,809.874,594.036,783.354,604.73 M863.521,633.75c6.92,2.085,13.684,4.798,20.734,6.468c3.562-0.36,6.791-2.131,10.242-2.99 c19.063-5.924,40.083-2.999,57.938,5.389c32.138,15.696,56.867,48.055,59.792,84.161c0.295,13.038-2.777,26.076-8.766,37.656 c-1.421,6.884,1.753,13.684,2.87,20.401c22.035-13.149,40.535-35.137,43.691-61.241c2.842-21.223-2.196-43.128-12.697-61.666 c-17.347-32.609-49.449-57.726-86.044-64.305C918.339,591.951,882.824,606.364,863.521,633.75 M250.602,617.03 c-13.01,0.305-23.123,14.265-19.995,26.713c1.845,8.923,10.344,16.683,19.691,16.212c11.506,0.388,22.072-10.519,21.186-22.025 C271.936,626.7,261.804,616.643,250.602,617.03 M266.15,620.223c6.459,7.483,9.855,18.344,5.204,27.663 c-3.017,8.84-12.457,12.318-20.558,14.764c2.722,3.432,5.878,6.957,10.381,7.88c49.264,13.084,98.464,26.399,147.719,39.539 c4.835,1.246,9.652,2.953,14.653,3.257c8.775-4.632,16.221-11.294,24.526-16.655c-1.458-4.512-0.978-11.359-6.717-12.678 C382.967,662.714,324.577,641.399,266.15,620.223 M1403.682,620.389c-1.984,6.865-5.666,13.398-11.82,17.292 c5.998,0.397,12.337,1.043,17.172,5.066c5.416,5.066,9.273,12.429,8.461,20.042c0.351,8.083-5.167,15.077-11.746,19.146 c5.075,1.513,10.99,2.344,14.727,6.57c8.12,7.317,9.781,20.245,4.448,29.665c-2.122,4.641-6.93,6.93-10.833,9.836 c5.896,1.993,12.918,3.755,16.332,9.569c6.192,8,6.265,19.958,0.646,28.291c-3.091,3.931-7.603,6.256-11.765,8.849 c4.152,1.218,8.554,2.51,11.672,5.721c9.052,7.253,9.901,21.333,4.005,30.81c-2.833,5.029-8.424,7.437-13.38,9.818 c1.707,0.757,3.442,1.513,5.075,2.491c11.995,5.896,15.446,22.902,8.295,33.827c-3.396,5.582-9.689,8.028-15.4,10.501 c11.386,4.254,18.851,17.375,14.588,29.315c-2.362,9.596-11.488,16.028-21.038,16.886c13.25,4.586,19.008,21.961,11.885,33.901 c-3.46,7.317-11.654,10.611-19.091,12.208c4.651,3.811,9.522,8.148,11.063,14.201c2.168,9.559-1.264,20.549-9.578,26.141 c-4.245,3.903-10.334,3.276-15.576,4.032c3.562,2.925,6.625,6.348,9.661,9.818c4.254-1.892,8.415-4.014,12.484-6.293 c36.06-20.798,69.887-47.539,92.244-83.165c12.069-19.829,20.706-41.679,34.575-60.42c12.346-16.6,28.429-30.884,47.511-39.206 c8.305-3.931,17.301-5.952,26.039-8.701c-31.354-5.647-58.63-25.725-76.715-51.488c-12.558-17.033-20.161-36.955-30.57-55.243 c-12.752-23.169-32.378-41.624-53.186-57.541C1437.786,640.726,1421.398,629.367,1403.682,620.389 M133.777,712.357 c-14.874,27.506-26.86,58.021-51.534,78.597c-15.594,14.182-35.017,23.446-55.493,28.032c22.062,4.789,43.433,14.764,59.156,31.299 c19.802,18.565,30.939,43.7,43.525,67.211c8.461,16.249,19.866,30.837,32.941,43.635c19.34,19.977,42.104,36.392,66.418,49.772 c-0.166-5.85-0.554-11.912,1.476-17.495c2.316-4.715,6.745-7.806,10.639-11.091c-10.537,0.544-21.426-6.293-23.76-16.867 c-3.848-11.026,1.818-23.788,12.595-28.226c-9.458-1.218-18.454-7.216-21.444-16.581c-4.438-11.469,2.519-24.424,13.121-29.555 c-6.385-1.929-13.287-5.149-16.304-11.451c-3.811-5.998-3.543-13.675-1.799-20.272c1.652-7.419,8.72-11.377,14.717-14.976 c-8.111-2.648-15.594-9.07-17.292-17.689c-1.993-6.699,0.341-13.85,3.755-19.635c3.294-4.89,8.904-7.114,14.21-9.07 c-5.463-2.934-11.331-6.025-14.238-11.811c-3.451-8.221-3.488-18.565,2.141-25.864c3.322-5.149,9.384-7.373,14.893-9.255 c-3.58-2.288-7.649-4.189-9.91-8c-6.967-8.71-5.739-22.431,2.03-30.228c3.746-4.678,9.892-5.869,15.216-7.815 c-3.405-2.159-6.625-4.752-8.886-8.129c-8.175-11.359-3.128-29.878,10.048-34.999c3.368-1.689,7.188-1.855,10.86-2.113 c-4.743-3.063-9.2-7.004-11.063-12.503c-3.451-7.382-0.424-15.649,2.796-22.542C194.501,646.982,155.95,673.039,133.777,712.357 M1345.855,632.615c-53.924,19.848-107.986,39.317-161.91,59.146c10.455,7.723,21.158,15.151,31.05,23.612 c6.773-0.794,13.269-2.879,19.857-4.614c46.884-12.531,93.73-25.2,140.641-37.656c-1.993-5.601-4.318-11.7-2.261-17.689 c0.83-7.013,6.478-11.635,11.829-15.456c-4.909-0.692-10.288-0.074-14.57-2.999c-4.152-2.095-6.524-6.358-10.298-8.867 C1355.165,628.592,1350.579,631.083,1345.855,632.615 M702.358,635.023c-20.549,7.88-38.579,22.321-50.639,40.729 c-14.275,20.365-20.42,47.382-11.949,71.299c20.844-49.559,62.874-90.362,114.058-107.497c2.196-0.701,4.272-1.735,6.155-3.073 C742.293,626.931,720.766,628.297,702.358,635.023 M801.947,631.194c1.098,16.711,2.851,33.366,4.032,50.067 c3.599-0.36,7.225-0.701,10.842-1.015c0.092-16.628,0.065-33.255,0-49.873C811.839,630.465,806.884,630.714,801.947,631.194 M817.809,630.364c-0.083,16.618-0.074,33.246,0.018,49.873c3.682,0.203,7.428,0.452,11.146,0.747 c1.606-16.554,2.694-33.144,4.355-49.689C828.153,630.834,822.967,630.557,817.809,630.364 M785.366,633.206 c2.602,16.572,5.767,33.043,8.591,49.587c3.34-0.554,6.69-1.033,10.058-1.55c-1.089-16.701-2.907-33.338-3.949-50.03 C795.138,631.711,790.238,632.366,785.366,633.206 M834.575,631.065c-0.757,16.757-2.98,33.403-3.977,50.15 c3.543,0.286,7.123,0.747,10.694,0.812c2.584-16.295,5.583-32.526,8.563-48.757C844.789,632.292,839.724,631.351,834.575,631.065 M768.997,636.777c4.208,16.323,8.923,32.507,12.9,48.895c3.414-0.812,6.791-1.698,10.215-2.547 c-2.851-16.664-6.016-33.264-8.701-49.938C778.584,634.304,773.777,635.503,768.997,636.777 M851.184,633.279 c-2.694,16.351-5.629,32.655-8.443,48.987c3.516,0.803,7.022,1.495,10.611,1.984c3.903-16.046,8.6-31.889,12.512-47.935 C860.965,635.356,856.056,634.276,851.184,633.279 M887.677,641.842c53.564,20.881,96.24,66.98,113.458,121.79 c10.621-16.286,11.276-37.416,5.73-55.612c-7.372-23.982-23.834-44.937-45.158-58.085 C940.227,635.771,911.557,630.816,887.677,641.842 M753.062,641.658c5.61,15.732,11.728,31.289,17.033,47.133 c3.34-0.692,6.644-1.513,9.975-2.27c-3.516-16.72-8.849-32.987-12.909-49.569C762.427,638.401,757.721,639.997,753.062,641.658 M867.654,637.007c-4.328,15.954-8.572,31.917-12.927,47.862c3.331,1.052,6.681,2.021,10.058,2.962 c6.108-15.197,11.294-30.745,16.83-46.154C876.974,640.034,872.342,638.437,867.654,637.007 M1390.256,640.154 c-13.001,2.704-20.438,19.626-13.296,30.948c5.195,10.934,20.89,15.059,30.459,7.419c8.563-5.389,10.03-17.107,6.441-25.864 C1410.575,643.374,1399.89,637.542,1390.256,640.154 M737.504,647.932c7.289,15.289,14.588,30.57,21.389,46.081 c3.1-1.292,6.21-2.565,9.329-3.829c-4.54-16.323-11.22-31.972-16.96-47.889C746.602,643.983,742.035,645.93,737.504,647.932 M883.571,642.359c-5.859,15.271-11.331,30.69-16.923,46.071c3.285,1.329,6.57,2.657,9.882,3.958 c6.634-14.93,13.785-29.619,20.604-44.457C892.66,645.921,888.185,643.983,883.571,642.359 M722.815,655.425 c8.701,14.662,16.877,29.638,25.504,44.337c3.054-1.707,6.155-3.322,9.273-4.9c-6.985-15.428-14.579-30.57-21.361-46.09 C731.636,650.737,727.244,653.127,722.815,655.425 M898.51,648.698c-6.21,15.022-13.822,29.416-20.208,44.364 c3.091,1.559,6.201,3.091,9.31,4.651c8.369-13.988,16.314-28.226,24.388-42.381C907.571,652.961,903.087,650.71,898.51,648.698 M721.357,656.532c-4.226,2.482-8.434,5.02-12.623,7.557c9.624,14.238,19.58,28.254,29.564,42.251 c2.777-1.965,5.573-3.903,8.378-5.822C738.353,685.782,730.03,671.056,721.357,656.532 M913.735,656.329 c-8.12,14.127-16.738,27.986-24.341,42.399c2.814,1.513,5.37,3.82,8.554,4.567c1.689-1.033,2.842-2.722,4.023-4.272 c7.889-11.645,15.982-23.142,24.055-34.657C922.04,661.524,917.86,658.931,913.735,656.329 M234.095,662.308 c-9.753,2.279-17.181,12.595-16.046,22.625c-0.48,10.86,10.224,21.186,21.14,19.377c13.296,0.277,23.64-14.985,19.082-27.294 C255.853,666.728,244.356,659.983,234.095,662.308 M695.631,674.571c10.879,13.038,21.712,26.141,32.775,39.031 c2.731-2.141,5.509-4.254,8.258-6.385c-9.929-13.905-19.608-27.977-29.546-41.864C703.29,668.417,699.424,671.443,695.631,674.571 M927.179,665.436c-8.747,13.518-18.418,26.417-27.442,39.751c2.547,1.882,4.983,3.968,7.723,5.656 c2.325-0.794,3.857-2.87,5.389-4.669c8.48-10.897,17.947-20.983,26.261-32.009C935.216,671.129,931.221,668.241,927.179,665.436 M258.686,671.785c2.501,7.529,3.792,16.36-1.024,23.308c-3.359,6.671-10.519,9.292-16.987,11.894 c4.9,5.795,8.563,14.994,17.495,14.634c41.033,7.179,82.085,14.265,123.063,21.749c1.689,0.277,3.589,0.351,4.937-0.923 c11.691-9.052,23.216-18.325,35.23-26.971c-21.933-6.616-44.281-11.746-66.316-18.002 C322.898,689.086,290.889,680.071,258.686,671.785 M1217.874,717.293c9.569,8.074,19.303,15.963,28.604,24.36 c2.03,1.255,3.691,4.328,6.478,3.774c45.038-8.194,90.141-16.129,135.271-23.852c-3.543-6.966-6.791-14.902-3.912-22.782 c1.356-6.431,6.957-10.501,11.746-14.404c-3.728-0.794-7.529-1.642-11.063-2.925c-3.146-1.726-5.619-4.392-8.295-6.708 C1323.701,688.689,1270.736,702.825,1217.874,717.293 M683.645,685.875c11.774,12.152,23.982,23.88,35.746,36.042 c2.482-2.381,4.872-4.872,7.271-7.336c-10.593-13.278-21.647-26.168-32.6-39.151C690.538,678.862,687.068,682.35,683.645,685.875 M940.642,675.817c-10.344,12.245-20.688,24.498-30.856,36.909c2.574,2.205,5.13,4.392,7.714,6.625 c11.516-11.23,22.865-22.634,34.131-34.122C947.904,682.156,944.24,679.028,940.642,675.817 M812.66,682.673 c-25.79,1.181-51.285,9.476-72.36,24.471c-39.373,26.113-63.243,73.642-60.743,120.812c1.283,36.78,18.159,72.747,45.61,97.264 c30.302,28.005,73.532,41.458,114.362,35.1c38.118-5.02,73.578-26.943,95.372-58.574c19.774-28.291,28.743-64.065,23.64-98.298 c-5.905-49.495-41.384-93.85-87.871-111.409C852.346,684.703,832.37,681.344,812.66,682.673 M1404.928,684.389 c-8.812,0.305-16.591,6.662-19.174,14.985c-3.728,10.159,2.436,22.413,12.401,26.224c10.823,5.601,25.329-2.288,27.552-14.007 C1429.343,698.627,1418.898,683.586,1404.928,684.389 M952.859,686.742c-11.165,11.534-22.727,22.662-33.882,34.187 c2.344,2.528,4.697,5.001,7.059,7.539c12.651-9.735,24.526-20.401,36.817-30.579C959.493,694.179,956.19,690.442,952.859,686.742 M671.834,697.353c12.641,11.414,25.947,22.062,38.966,33.043c2.491-2.288,4.937-4.641,7.419-6.948 c-11.931-12.115-23.917-24.175-36.106-36.023C678.672,690.719,675.258,694.041,671.834,697.353 M1182.579,693.284 c-5.435,17.855-11.857,35.405-19.017,52.641c29.684,25.117,57.319,52.623,82.62,82.15c-23.806,23.898-49.808,45.518-76.245,66.436 c6.016,16.332,11.276,32.941,16.101,49.67c51.183-34.187,98.925-73.403,143.253-116.069 C1286.035,777.547,1236.909,731.771,1182.579,693.284 M310.93,811.291c13.306,15.649,27.248,30.773,42.03,45.066 c29.444,30.302,61.564,57.947,95.428,83.202c4.955-15.917,10.307-31.732,16.877-47.059c0.766-2.214,1.984-4.521,1.522-6.911 c-2.233-2.713-5.01-4.881-7.548-7.271c-22.284-19.958-43.1-41.55-62.256-64.507c22.597-21.693,46.191-42.362,70.865-61.675 c-7.262-17.504-13.712-35.331-19.146-53.481C399.548,731.974,353.292,769.685,310.93,811.291 M661.897,711.222 c14.155,9.486,27.746,19.802,42.076,29.047c1.91-2.722,3.857-5.398,5.804-8.083c-13.01-10.934-25.855-22.062-39.003-32.83 C667.701,703.222,664.776,707.208,661.897,711.222 M927.502,729.547c2.122,2.824,4.235,5.684,6.468,8.461 c13.444-8.406,26.131-17.929,39.022-27.137c-2.98-3.783-5.924-7.631-8.849-11.423C951.521,708.98,939.968,719.822,927.502,729.547 M523.221,741.026c-12.77,23.04-19.562,49.504-18.316,75.894c-0.138,38.505,15.935,78.542,47.779,101.499 c3.562-11.506,9.366-22.071,16.544-31.714c-17.716-25.624-25.218-57.947-20.438-88.757c2.168-21.647,10.86-42.408,24.157-59.571 c-5.924-10.98-10.74-22.662-12.918-34.999C544.656,712.384,532.217,725.745,523.221,741.026 M236.273,706.341 c-0.415,1.301,1.799,1.762,2.233,0.609C238.912,705.63,236.697,705.159,236.273,706.341 M226.741,707.642 c-13.167,1.661-21.684,18.039-16.102,29.924c3.23,9.412,14.441,15.271,23.982,11.995c9.236-2.325,16.332-11.635,15.659-21.204 C250.686,716.324,238.644,705.482,226.741,707.642 M653.02,725.183c14.893,8.212,29.232,17.375,44.254,25.356 c1.679-2.943,3.488-5.822,5.361-8.655c-13.878-9.993-28.051-19.571-42.012-29.426C657.975,716.629,655.364,720.827,653.02,725.183 M935.659,739.651c1.661,3.063,3.377,6.044,5.093,9.117c13.795-7.723,27.488-15.603,41.107-23.631 c-2.491-4.254-5.066-8.48-7.585-12.697C961.403,721.51,948.439,730.451,935.659,739.651 M1115.193,737.861 c-1.098,3.11-2.777,6.874-0.351,9.818c23.825,35.599,27.848,81.836,16.249,122.482c-2.722,10.021-7.705,19.146-11.645,28.687 c-1.024,8.775,3.922,16.803,5.776,25.172c25.117-16.212,48.794-34.547,71.788-53.619c15.825-13.749,32.083-27.1,46.468-42.399 c-15.861-19.506-33.928-37.029-51.829-54.616c-21.998-20.042-44.466-39.723-68.992-56.628 C1120.148,723.78,1117.85,730.885,1115.193,737.861 M251.71,721.971c0.369,7.557,0.544,16.231-5.167,21.988 c-2.824,4.641-9.541,4.927-12.558,9.033c5.481,4.983,10.676,10.334,13.047,17.559c28.697,3.276,57.541,5.066,86.284,7.834 c3.986-0.092,9.181,1.624,12.309-1.762c12.032-10.75,24.526-20.946,36.817-31.391C338.907,737.233,295.244,729.971,251.71,721.971 M480.056,744.929c-28.198,21.398-55.253,44.365-80.572,69.112c6.68,8.175,13.822,15.963,20.937,23.769 c28.687,29.896,59.349,58.058,92.807,82.556c2.74-9.384,6.348-18.464,9.393-27.728c1.2-3.174-1.098-6.053-2.408-8.757 c-11.349-20.337-17.67-43.636-17.163-66.971c-0.369-23.059,3.543-46.607,14.053-67.303c0.978-2.971,3.774-5.924,2.584-9.218 c-1.975-6.284-4.088-12.531-5.933-18.851C501.998,728.55,491.027,736.772,480.056,744.929 M1087.557,721.759 c-4.06,11.193-9.338,22.044-16.784,31.391c6.468,10.27,12.466,21.038,16.092,32.692c11.802,38.699,5.601,83.82-19.811,115.885 c6.228,10.713,10.473,22.441,13.232,34.501c6.09-3.488,11.894-7.492,16.914-12.448c27.848-26.436,40.083-66.381,37.942-104.12 C1134.339,782.41,1118.422,743.932,1087.557,721.759 M1388.485,723.531c-45.204,7.317-90.215,15.945-135.373,23.576 c9.679,9.033,19.349,18.076,28.521,27.654c2.584,2.002,4.9,5.905,8.655,5.481c36.125-3.377,72.277-6.478,108.429-9.522 c-4.863-6.791-10.925-15.206-7.963-23.945c1.126-8.12,8.12-13.296,14.616-17.273 C1399.539,728.098,1394.16,725.109,1388.485,723.531 M651.71,726.391c-2.261,4.512-4.484,9.043-6.607,13.619 c15.612,6.754,30.948,14.164,46.302,21.5c1.569-3.23,3.147-6.45,4.651-9.707C681.043,743.748,666.436,734.963,651.71,726.391 M942.321,750.041c1.421,3.257,3.027,6.413,4.604,9.624c14.219-6.514,28.337-13.26,42.611-19.645 c-2.104-4.531-4.318-9.024-6.542-13.481C969.505,734.484,955.802,742.078,942.321,750.041 M1409.661,730.664 c-10.805,1.467-19.313,13.029-17.43,23.825c1.43,12.401,15.409,22.561,27.497,17.587c8.212-2.916,14.718-11.728,13.453-20.641 C1433.68,739.531,1421.694,727.748,1409.661,730.664 M570.501,885.358c9.2-10.879,20.558-19.719,32.554-27.294 c-10.713-27.414-10.657-59.156,1.329-86.155c-12.429-8.092-22.459-19.322-30.514-31.695 C542.229,781.312,540.863,842.82,570.501,885.358 M644.263,741.33c-1.901,4.512-3.765,9.052-5.61,13.592 c15.898,6.062,31.917,11.811,47.889,17.707c1.329-3.285,2.657-6.561,3.949-9.845C675.008,755.789,659.654,748.518,644.263,741.33 M947.996,761.03c1.273,3.313,2.593,6.634,3.885,9.956c14.883-4.872,29.453-10.667,44.189-15.954 c-1.606-4.475-3.386-8.877-5.158-13.287C976.268,747.374,962.409,754.867,947.996,761.03 M220.273,753.695 c-8.969,1.476-16.157,9.845-16.101,18.962c-2.39,12.106,8.544,25.319,21.204,23.04c11.202,0.249,20.595-11.248,19.368-22.118 C245.122,761.39,232.093,750.89,220.273,753.695 M1036.808,782.114c10.916,25.799,10.99,55.871,0.489,81.809 c-1.19,2.436-0.581,5.176,1.781,6.625c10.694,7.834,19.82,17.698,26.768,28.992c8.489-9.209,13.887-20.761,18.021-32.471 c12.614-36.844,8.415-80.009-14.228-112.166C1060.107,765.542,1048.868,774.511,1036.808,782.114 M638.09,756.878 c-1.606,4.614-3.211,9.209-4.807,13.832c16.461,4.66,32.969,9.218,49.624,13.167c0.978-3.174,2.012-6.275,3.036-9.412 C670.053,768.458,654.155,762.414,638.09,756.878 M953.2,772.703c0.932,3.433,1.928,6.847,2.971,10.251 c15.096-3.802,30.118-7.908,45.093-12.208c-1.476-4.687-2.814-9.366-4.429-13.988C982.349,762.239,967.677,767.222,953.2,772.703 M247.05,772.463c-0.747,5.103-0.766,10.648-4.226,14.847c-3.036,4.964-8.369,7.723-12.992,10.962 c3.783,2.741,7.825,5.278,10.704,9.052c2.943,4.134,4.291,9.144,4.918,14.127c23.852,0.12,47.714,0.175,71.566-0.046 c-2.759-3.654-5.712-7.151-8.554-10.722c10.491-9.947,21.296-19.552,31.585-29.702c-11.691-2.021-23.566-2.325-35.349-3.516 C285.463,776.052,266.289,773.773,247.05,772.463 M633.163,772.592c-1.283,4.771-2.104,9.633-2.916,14.505 c16.535,3.193,33.098,6.274,49.772,8.692c0.757-3.359,1.587-6.69,2.298-10.048C665.883,781.524,649.523,777.076,633.163,772.592 M956.955,784.717c0.692,3.377,1.366,6.754,2.095,10.168c15.419-1.984,30.634-5.324,45.998-7.723 c-1.227-4.863-2.205-9.781-3.469-14.625C986.741,776.744,971.802,780.546,956.955,784.717 M1391.216,773.164 c-34.002,3.349-68.042,6.201-102.09,8.941c12.208,11.783,23.64,24.304,34.851,37.029c2.021,3.386,6.422,2.168,9.578,2.519 c26.196-0.166,52.401-0.138,78.607-0.129c-3.091-1.523-6.192-3.128-9.061-4.983c-7.815-5.426-11.285-16.074-8.203-25.07 c1.569-8.046,9.116-12.614,15.566-16.609C1404.263,772.804,1397.703,772.14,1391.216,773.164 M605.601,773.432 c-5.675,12.817-8.212,26.824-9.117,40.747c0.406,14.468,2.824,29.066,8.314,42.519c7.271-3.875,14.662-7.52,22.007-11.257 c-3.146-19.802-1.772-39.926,1.587-59.589C620.596,782.087,613.057,777.796,605.601,773.432 M1415.078,776.597 c-12.66,0.563-22.025,14.634-18.907,26.584c1.799,9.015,10.473,15.917,19.534,16.424c11.802,1.126,22.062-10.639,21.13-22.044 C1437.306,786.027,1426.686,775.554,1415.078,776.597 M1007.954,796.675c3.414,18.251,1.135,36.817-0.258,55.142 c9.144,4.577,18.095,9.513,26.787,14.911c11.46-26.132,11.451-56.877,0.849-83.266 C1026.335,788.14,1017.366,792.883,1007.954,796.675 M629.638,789.155c-0.71,4.798-1.329,9.606-1.762,14.459 c16.84,1.707,33.707,3.285,50.611,4.245c0.332-3.368,0.637-6.727,0.932-10.085C662.847,794.747,646.321,791.471,629.638,789.155 M959.917,796.813c0.323,3.635,0.664,7.289,0.997,10.934c15.373-1.476,30.745-3.11,46.173-3.922 c-0.609-4.918-1.246-9.827-1.965-14.708C990.007,791.425,975.041,794.608,959.917,796.813 M225.883,797.644 c0.138,0.295,0.397,0.895,0.526,1.19C228.808,799.397,227.193,795.623,225.883,797.644 M219.359,799.886 c-7.456,0.766-13.315,6.745-16.018,13.444c-4.844,10.907,2.085,25.587,13.776,28.438c12.069,3.755,26.325-6.505,25.827-19.359 C244.706,809.473,232.037,797.635,219.359,799.886 M627.553,805.644c-0.332,4.9-0.48,9.79-0.535,14.727 c16.84,0.517,33.698,0.212,50.556,0.148c0.24-3.543,0.489-7.059,0.646-10.602C661.361,808.172,644.485,806.401,627.553,805.644 M960.803,809.667c0.434,3.626,0.867,7.216,1.227,10.87c15.271,0.111,30.551,0.101,45.832,0.046c-0.009-4.973-0.009-9.928,0-14.874 C992.148,806.705,976.471,808.172,960.803,809.667 M626.621,822.493c0.304,4.641,0.646,9.273,1.033,13.924 c16.821-0.849,33.569-2.685,50.334-4.254c-0.268-3.202-0.489-6.487-0.646-9.67C660.429,822.401,643.525,822.391,626.621,822.493 M961.892,822.484c-0.323,3.349-0.646,6.699-0.95,10.076c15.585,1.809,31.216,3.349,46.911,3.922c0-3.506,0-10.51,0.009-14.007 C992.526,822.401,977.209,822.401,961.892,822.484 M1414.266,822.88c-6.099,0.895-11.875,4.448-15.068,9.772 c-8.526,10.879-1.439,29.213,11.931,32.157c12.826,4.208,27.036-7.852,25.707-21.112 C1437.343,832.061,1426.04,820.758,1414.266,822.88 M245.371,823.517c-0.923,3.1-1.864,6.219-3.46,9.052 c-2.316,5.463-7.908,8.046-12.401,11.451c5.047,3.857,11.516,6.496,14.404,12.512c2.547,4.54,2.482,9.818,3.22,14.837 c36.198-3.073,72.378-6.265,108.558-9.43c-12.77-12.457-24.775-25.661-36.937-38.708 C294.293,823.554,269.823,823.139,245.371,823.517 M1328.508,823.203c0.867,1.818,1.873,3.617,2.27,5.629 c-10.916,11.599-23.492,21.564-34.86,32.72c1.089,2.768,5.499-0.083,7.142,1.799c29.712,2.648,59.46,5.001,89.172,7.742 c6.487,0.48,12.641-2.021,18.787-3.737c-4.521-2.584-9.32-4.992-12.586-9.153c-4.724-6.265-5.5-14.828-3.303-22.201 c1.864-5.389,6.431-8.932,10.519-12.595C1379.922,823.249,1354.215,823.545,1328.508,823.203 M627.553,838.89 c0.683,4.687,1.458,9.366,2.187,14.062c16.544-2.621,33.089-5.26,49.532-8.48c-0.424-3.368-0.849-6.819-1.144-10.187 C661.26,835.706,644.402,837.247,627.553,838.89 M961.2,834.599c-0.544,3.58-0.969,7.197-1.412,10.805 c15.142,2.676,30.256,5.592,45.499,7.631c0.701-4.798,1.264-9.633,1.569-14.468C991.659,836.97,976.434,835.642,961.2,834.599 M218.446,846.963c-12.77,3.23-18.224,19.534-12.411,30.828c3.479,6.551,10.639,11.968,18.408,11.063 c11.285,0.323,21.712-10.805,20.318-22.09C245.094,853.819,230.939,843.014,218.446,846.963 M630.201,854.963 c0.83,4.863,1.753,9.735,2.943,14.542c16.249-4.235,32.452-8.637,48.646-13.057c-0.692-3.349-1.356-6.763-1.91-10.113 C663.336,849.289,646.801,852.361,630.201,854.963 M570.713,888.181c-12.604,16.046-20.724,36.374-19.7,56.997 c-0.471,18.916,4.678,37.564,13.056,54.413c19.479,38.358,55.492,68.937,97.901,78.247c31.954,6.81,66.713-2.27,91.414-23.594 c13.472-11.958,23.437-27.34,31.169-43.488c-2.648-0.258-5.379-0.646-7.991-0.84c-20.706,26.519-56.554,40.489-89.679,33.781 c-21.481-3.331-40.821-14.681-57.07-28.669c-16.203-14.745-29.463-33.07-36.669-53.859c-8.148-22.607-8.055-48.849,3.359-70.339 c7.133-14.33,19.156-25.356,31.991-34.556c-0.627-2.971-1.227-5.915-1.855-8.849C605.767,857.418,585.163,869.69,570.713,888.181 M959.262,847.323c-0.683,3.414-1.32,6.902-2.095,10.316c14.828,3.875,29.592,7.972,44.392,11.977 c1.329-4.66,2.39-9.403,3.516-14.108C989.943,852.048,974.589,849.713,959.262,847.323 M1006.773,853.838 c-0.175,2.445-0.747,4.531-0.757,7.105c15.668,10.796,27.552,26.75,33.947,44.632c10.131,27.995,4.78,60.014-10.584,85.093 c-20.531,34.076-57.218,59.682-97.476,62.247c-18.233,0.729-36.494-4.863-51.23-15.603c-10.417-6.948-18.141-17.043-25.181-27.22 c-2.75,0.434-5.592,0.738-8.295,1.236c4.568,13.195,12.457,24.96,20.254,36.438c17.347,24.452,45.915,41.753,76.346,41.799 c42.15,0.101,81.845-23.225,107.303-55.963c19.562-24.572,31.806-56.305,28.226-88.018c-1.467-18.408-8.738-35.894-18.87-51.174 C1046.773,876.195,1027.636,862.668,1006.773,853.838 M681.818,858.7c-16.138,3.755-32.12,8.166-48.074,12.651 c1.218,4.734,2.777,9.375,4.337,14.035c15.797-5.38,31.336-11.497,47.059-17.107C683.802,865.187,684.143,861.275,681.818,858.7 M589.463,934.604c1.781,24.932,13.269,48.508,29.693,67.091c20.18,22.764,48.535,40.277,79.576,41.375 c28.734,2.076,58.261-10.971,75.765-33.901c-7.225-1.975-14.302-4.447-21.463-6.607c-4.272-1.43-8.628,0.784-12.807,1.458 c-11.488,3.396-23.788,2.205-35.294-0.48c-37.499-9.689-68.005-42.325-75.672-80.212c-3.34-13.878-0.074-28.078,4.272-41.283 c-0.526-7.88-2.999-15.539-5.001-23.17C603.387,874.728,586.187,904.486,589.463,934.604 M957.14,859.558 c-1.292,3.285-2.547,6.579-3.783,9.901c14.348,5.582,28.863,10.74,43.377,15.843c1.596-4.623,3.211-9.218,4.614-13.896 C986.676,867.217,971.857,863.572,957.14,859.558 M1005.444,862.742c-1.762,8.12-6.441,15.991-5.001,24.517 c2.464,9.283,6.45,18.556,5.592,28.392c-0.037,26.371-13.453,51.349-32.554,68.946c-16.508,15.622-38.265,26.371-61.167,27.451 c-11.765,0.443-23.4-2.261-34.039-7.16c-7.17-0.092-13.942,3.432-20.909,4.881c5.878,8.424,12.281,16.609,20.438,22.994 c12.586,10.851,28.863,16.812,45.296,18.353c33.283,0.987,65.541-15.022,87.779-39.262c16.535-17.237,28.567-39.317,31.788-63.151 C1047.244,916.112,1032.619,881.529,1005.444,862.742 M246.838,873.501c-1.716,2.87-3.396,5.749-5.389,8.443 c-2.362,2.87-5.859,4.771-7.695,8.083c5.26,3.1,11.525,5.186,14.671,10.879c4.549,6.238,3.165,14.062,2.99,21.26 c46.957-8.941,94.164-16.544,141.167-25.273c-11.82-10.925-23.677-21.795-35.165-33.052 C320.554,867.023,283.701,870.29,246.838,873.501 M1291.479,865.289c-12.475,10.51-24.904,21.093-37.416,31.566 c41.79,8.037,83.792,14.957,125.675,22.533c2.897-0.249,6.358,2.067,9.246,0.692c5.287-2.888,10.565-6.016,16.572-7.216 c-8.71-4.097-15.373-12.189-15.696-22.136c0.6-6.45,3.857-12.143,7.207-17.523c-29.472-3.165-59.082-4.752-88.526-8.12 C1302.893,864.956,1296.831,863.499,1291.479,865.289 M1407.788,869.921c-12.125,2.676-19.552,17.799-14.201,29.093 c4.115,10.759,18.095,16.212,28.328,10.851c7.022-4.281,12.346-12.466,11.266-20.946 C1433.698,876.315,1419.848,865.935,1407.788,869.921 M638.718,887.305c1.753,4.549,3.552,9.07,5.527,13.536 c15.16-6.994,30.376-13.859,45.361-21.223c-1.135-3.11-2.251-6.228-3.276-9.366C670.22,875.245,654.524,881.464,638.718,887.305 M952.803,871.323c-1.319,3.377-2.731,6.727-4.134,10.067c13.942,6.478,27.922,12.872,41.818,19.46 c1.965-4.54,3.903-9.08,5.601-13.721C981.629,881.935,967.198,876.684,952.803,871.323 M645.186,902.281 c2.085,4.503,4.272,8.96,6.496,13.416c14.505-8.388,29.269-16.341,43.497-25.2c-1.55-3.008-3.082-6.016-4.678-8.997 C675.313,888.255,660.374,895.535,645.186,902.281 M947.987,883.226c-1.753,3.193-3.479,6.413-4.937,9.762 c13.647,6.911,26.436,15.345,39.852,22.69c2.344-4.448,4.835-8.821,6.865-13.426C975.705,896.191,961.984,889.409,947.987,883.226 M635.128,883.678c-1.67,4.521-3.285,9.07-4.401,13.785c-2.501,10.279-0.48,21.001,1.513,31.188 c5.093,18.833,15.797,36.005,30.256,49.089c11.866,11.728,26.87,20.023,43.017,24.111c13.296,4.226,27.589,2.473,40.867-0.96 c-7.206-4.466-15.299-7.308-22.625-11.552c-32.554-18.159-59.469-46.108-76.9-79.013 C642.307,901.727,639.013,892.574,635.128,883.678 M922.99,982.096c-13.25,9.135-28.226,15.133-42.814,21.721 c16.554,7.585,36.005,8.36,53.213,2.547c16.434-4.964,31.123-14.883,42.934-27.22c14.865-14.883,25.347-34.611,27.497-55.677 c1.246-12.484-1.2-24.923-5.389-36.632C984.065,925.459,957.629,959.591,922.99,982.096 M469.149,887.637 c-17.707,41.236-29.02,84.955-37.546,128.923c-12.66,64.6-18.445,130.399-19.866,196.161c33.679,4.374,67.7,2.427,101.555,2.796 c38.145-1.412,76.272-4.623,113.993-10.611c41.79-6.856,83.46-16.443,122.593-32.895c-10.122-13.915-20.641-27.552-29.97-42.03 c-57.513,16.277-117.564,21.075-177.098,21.905c-20.318-0.351-40.618-1.467-60.89-2.704c-0.065-9.873-0.166-19.737,0.231-29.582 c3.506-66.519,11.903-133.13,30.321-197.297C497.763,911.074,483.258,899.595,469.149,887.637 M225.809,892.168 c-11.746,1.541-19.589,15.133-16.166,26.27c1.79,10.99,14.293,18.962,24.978,15.659c10.51-2.528,17.587-13.952,15.28-24.517 C248.416,898.58,236.808,889.861,225.809,892.168 M524.688,892.426c-8.36,21.296-14.108,43.506-19.635,65.67 c-14.293,62.007-20.789,125.656-22.145,189.204c26.215,2.196,52.577,3.497,78.865,2.159c61.324-2.012,123.34-8.627,181.647-28.669 c-10.953-7.16-22.136-14.348-30.468-24.627c-4.512-4.512-7.105-10.602-11.589-15.05c-7.926,0.258-15.88,0.83-23.797,0.36 c-16.674-0.544-32.72-6.007-47.695-13.02c-39.732-20.623-70.773-58.999-79.336-103.28c-2.399-14.828-1.725-30.09,1.458-44.743 C541.334,912.726,532.826,902.659,524.688,892.426 M653.112,916.998c2.233,4.337,4.761,8.471,7.206,12.706 c14.099-8.95,27.386-19.091,41.31-28.318c-1.633-3.026-3.368-6.035-5.001-9.015C681.772,899.946,667.645,908.85,653.112,916.998 M941.712,894.216c-1.735,3.017-3.451,6.081-5.112,9.163c12.346,8.997,25.07,17.476,37.444,26.454 c2.796-4.18,5.398-8.489,7.926-12.835C968.277,909.893,955.47,901.201,941.712,894.216 M1125.887,926.022 c10.953,43.728,17.31,88.563,19.193,133.601c0.84,33.513,1.246,67.137-1.707,100.577c-74.491-1.356-149.232-9.753-221.213-29.472 c-10.325,14.478-21.915,27.968-32.932,41.892c11.811,4.78,23.806,9.08,35.931,13.01c90.879,27.968,186.224,38.773,281.006,41.006 c2.224-18.076,2.085-36.309,2.768-54.468c0.581-53.472-2.168-107.091-10.648-159.945c-6.072-39.64-15.613-78.865-30.026-116.328 C1154.298,906.174,1140.273,916.352,1125.887,926.022 M1251.645,898.461c-11.755,9.449-23.963,18.316-35.755,27.709 c52.005,14.533,104.351,27.912,156.411,42.288c3.469,1.467,5.832-2.242,8.314-3.949c4.143-4.097,9.845-5.924,15.483-6.782 c-5.795-3.562-10.777-8.858-12.383-15.622c-1.107-6.81,0.674-13.582,3.128-19.866 C1341.749,914.497,1296.729,906.313,1251.645,898.461 M257.532,922.719c-8.092-0.231-12.3,7.317-17.679,11.885 c9.375,2.971,18.824,9.384,20.706,19.755c2.215,6.339-1.283,12.669-3.534,18.519c57.172-15.4,114.418-30.551,171.543-46.108 c-11.368-9.061-22.764-18.104-33.476-27.931C349.14,906.156,303.438,915.051,257.532,922.719 M662.137,930.848 c2.417,4.208,5.389,8.009,8.268,11.922c13.37-9.938,25.845-21.047,38.505-31.843c-2.076-2.842-4.078-5.638-6.21-8.406 C689.292,912.117,675.737,921.519,662.137,930.848 M1101.786,921.907c-6.062,6.459-13.49,11.359-20.817,16.221 c1.55,19.202,0.729,39.013-6.284,57.172c-14.191,39.317-46.302,71.087-84.687,86.994c-21.822,9.356-46.459,11.211-69.564,5.961 c-8.692,11.691-19.746,21.287-31.779,29.398c27.543,10.104,56.028,17.495,84.734,23.474 c55.428,10.962,111.898,16.627,168.388,17.236c2.62-30.376,3.479-60.955,1.615-91.405c-2.178-55.354-9.486-110.874-26.27-163.811 C1111.844,909.256,1107.59,916.241,1101.786,921.907 M935.022,904.689c-2.215,2.86-4.346,5.786-6.45,8.729 c11.958,9.541,23.4,19.709,35.257,29.389c3.23-3.811,6.376-7.714,9.209-11.82C960.01,922.737,947.857,913.224,935.022,904.689 M709.823,912.726c-12.789,10.353-25.292,21.066-37.85,31.695c3.229,3.617,6.441,7.216,9.606,10.925 c11.977-11.728,23.649-23.779,35.691-35.451C714.879,917.413,712.342,915.051,709.823,912.726 M926.976,914.682 c-2.353,2.482-4.734,4.937-7.077,7.437c10.833,11.266,22.136,22.062,33.024,33.283c3.368-3.543,6.588-7.225,9.772-10.925 C950.801,934.53,939.165,924.26,926.976,914.682 M1404.125,915.217c-12.494,0.877-22.69,14.671-18.547,26.824 c2.085,8.664,10.288,15.326,19.156,16c11.405,0.471,21.177-9.652,21.619-20.761 C1427.387,925.247,1416.572,913.169,1404.125,915.217 M683.359,956.573c3.645,3.396,7.326,6.791,11.128,10.039 c10.058-13.029,21.112-25.246,31.391-38.09c-2.335-2.371-4.734-4.724-7.105-7.031C706.519,932.712,695.05,944.763,683.359,956.573 M910.921,931.069c9.772,11.912,19.543,23.843,29.776,35.386c3.737-3.082,7.409-6.238,11.017-9.458 c-11.008-11.266-22.118-22.422-33.403-33.384C915.774,926.022,913.32,928.514,910.921,931.069 M1211.258,928.947 c-8.166,5.619-16.092,11.589-24.591,16.701c0.646,3.451,0.517,8.563,4.881,9.578c56.102,20.309,112.092,40.941,168.258,61.093 c3.202-4.032,6.108-8.517,10.759-11.054c4.078-2.482,9.006-2.814,13.638-3.266c-4.466-3.414-8.489-7.779-10.482-13.075 c-2.215-5.868-0.24-12.217,0.978-18.058c-51.257-13.749-102.524-27.46-153.753-41.283 C1217.781,929.399,1214.173,926.733,1211.258,928.947 M410.28,933.561c-49.901,13.564-99.903,26.768-149.832,40.258 c-3.949,0.775-7.4,2.851-10.593,5.195c5.296,2.15,11.1,3.543,15.548,7.336c4.9,4.844,8.904,11.589,7.963,18.768 c0.332,7.437-5.01,13.278-9.089,18.888c22.118-6.92,43.672-15.529,65.495-23.308c35.654-12.918,71.225-26.049,106.934-38.819 c2.399-1.089,5.582-1.808,6.588-4.568c1.947-5.158,3.119-10.556,4.577-15.852c-5.675-4.143-10.87-9.116-17.033-12.484 C423.844,928.956,417.043,931.983,410.28,933.561 M726.856,930.165c-10.058,12.752-20.521,25.181-31.243,37.379 c3.7,3.331,7.695,6.311,11.626,9.375c9.559-13.629,19.119-27.276,28.641-40.932C732.891,933.939,730.003,931.891,726.856,930.165 M900.605,938.377c8.95,12.844,17.965,25.652,26.879,38.524c3.922-3.008,7.815-6.044,11.543-9.283 c-9.735-12.032-19.737-23.843-29.767-35.617C906.344,934.105,903.456,936.209,900.605,938.377 M233.181,938.248 c-9.569,1.698-16.766,12.032-15.087,21.647c-0.314,11.663,11.303,22.164,22.874,20.254c13.029-1.052,21.675-16.175,17.163-28.115 C254.93,941.976,243.451,935.619,233.181,938.248 M736.849,937.805c-9.31,13.463-19.036,26.657-27.986,40.378 c4.106,2.537,8.221,5.093,12.263,7.76c8.166-14.422,17.034-28.457,24.803-43.1C742.902,941.173,739.848,939.448,736.849,937.805 M890.224,945.132c7.695,13.656,15.529,27.239,23.345,40.821c4.134-2.713,8.305-5.352,12.438-8.083 c-8.821-12.798-18.002-25.356-26.51-38.357C896.36,941.312,893.251,943.157,890.224,945.132 M747.165,944.255 c-7.336,14.588-16.757,28.014-24.037,42.639c4.208,2.436,8.526,4.697,13.001,6.625c6.8-14.939,13.859-29.767,20.706-44.678 C753.661,947.208,750.404,945.704,747.165,944.255 M878.939,950.973c6.551,14.164,13.232,28.291,19.626,42.537 c4.623-1.947,8.978-4.438,13.379-6.837c-8.092-13.444-15.28-27.432-23.769-40.637C885.14,947.752,882.021,949.339,878.939,950.973 M758.653,949.902c-7.013,14.865-14.514,29.555-20.577,44.844c4.355,1.753,8.701,3.617,13.14,5.213 c5.822-15.262,11.414-30.607,16.877-45.988C764.919,952.689,761.772,951.268,758.653,949.902 M867.396,955.595 c5.149,14.828,10.547,29.583,16.175,44.235c4.604-1.559,9.107-3.396,13.665-5.121c-6.376-14.477-13.518-28.604-19.755-43.137 C874.104,952.883,870.755,954.239,867.396,955.595 M769.855,955.014c-5.822,15.077-11.248,30.311-16.821,45.481 c4.651,1.689,9.338,3.276,14.044,4.881c4.355-15.825,8.71-31.659,12.586-47.612C776.397,956.813,773.149,955.845,769.855,955.014 M865.468,956.278c-3.349,0.895-6.644,1.845-9.938,2.833c3.811,15.409,7.954,30.754,12.152,46.062 c4.651-1.43,9.301-2.75,14.016-4.005C876.734,986.045,871.032,971.18,865.468,956.278 M1188.937,956.103 c3.285,13.075,6.247,26.233,8.378,39.548c48.083,21.998,95.742,44.909,143.852,66.833c3.091-5.269,5.915-11.34,11.737-14.044 c4.715-2.879,10.298-2.556,15.612-2.981c-4.447-3.617-8.277-8.397-9.486-14.108c-0.498-4.383-0.046-8.757,0.101-13.121 C1302.459,997.367,1245.592,977.021,1188.937,956.103 M781.26,958.945c-3.977,15.659-8.268,31.243-12.337,46.893 c4.835,1.015,9.652,2.039,14.514,2.99c2.879-15.954,5.73-31.908,8.489-47.88C788.393,960.191,784.822,959.489,781.26,958.945 M843.571,961.805c1.919,15.797,5.296,31.363,7.677,47.096c4.863-1.024,9.698-2.067,14.579-3.036 c-3.58-15.502-8.323-30.699-12.328-46.099C850.169,960.366,846.856,961.076,843.571,961.805 M1391.179,960.347 c-11.017,2.556-19.479,14.385-16.434,25.735c2.279,9.347,11.442,17.919,21.555,16.341c14.45-0.129,23.437-18.039,17.642-30.533 C1410.787,962.95,1400.083,958.52,1391.179,960.347 M271.502,1023.831c8.351,3.645,16.738,10.381,17.393,20.115 c1.901,8.415-2.851,15.446-7.363,21.887c5.481,0.323,11.433,2.916,16.683,0.129c42.131-19.719,84.309-39.382,126.514-58.934 c3.119-1.91,7.945-2.971,8.489-7.234c2.796-12.761,5.582-25.522,8.987-38.127C385.357,982.53,328.416,1003.134,271.502,1023.831 M793.329,961.99c-2.233,15.64-6.145,31.068-7.742,46.773c4.466,2.094,9.726,1.615,14.514,2.214 c1.338-16.101,3.054-32.166,3.968-48.295C800.508,962.294,796.891,962.027,793.329,961.99 M830.709,963.632 c1.532,15.686,3.331,31.382,3.903,47.151c4.881-0.378,9.762-0.84,14.662-1.19c-1.993-15.982-5.49-31.705-8-47.594 C837.74,962.488,834.206,963.023,830.709,963.632 M805.915,962.839c-1.467,16.231-3.377,32.434-3.885,48.747 c4.927,0,9.855,0.009,14.81,0.018c0.055-15.935,0.065-31.871-0.037-47.806C813.131,963.439,809.532,963.199,805.915,962.839 M817.8,963.614c-0.055,15.991-0.065,31.991,0,47.991c5.204-0.018,10.417-0.028,15.659-0.018 c-2.104-15.926-3.091-31.972-4.512-47.954C825.209,963.605,821.5,963.605,817.8,963.614 M247.032,982.594 c-8.443,1.024-14.644,8.517-16.71,16.397c-1.956,10.777,4.872,22.385,15.539,25.393c12.697,4.152,27.202-7.788,25.596-21.066 C271.742,991.056,259.221,980.02,247.032,982.594 M1197.767,997.847c2.242,11.912,4.272,23.88,5.582,35.94 c0.609,3.008,0.258,7.631,3.94,8.987c37.472,21.702,74.879,43.543,112.6,64.812c1.356-6.385,4.328-12.983,9.993-16.646 c5.232-4.614,12.632-3.903,19.156-3.931c-2.224-2.86-4.42-5.85-6.228-8.941c-2.168-4.198-1.698-9.199-2.38-13.693 C1292.863,1042.239,1245.361,1019.946,1197.767,997.847 M1377.357,1004.684c-10.233,1.79-18.214,12.189-16.95,22.57 c-0.166,10.74,10.279,20.89,21.13,19.414c13.084-0.018,23.003-14.422,19.414-26.777 C1399.401,1009.252,1387.581,1002.23,1377.357,1004.684 M373.122,1032.956c-25.495,12.032-51.174,23.695-76.651,35.783 c6.524,5.066,12.798,12.448,11.857,21.26c0.341,6.45-3.202,11.94-6.533,17.098c6.081,0.009,12.06,1.163,17.873,2.916 c1.938,0.775,3.802-0.452,5.462-1.329c31.852-18.713,64.065-36.826,95.954-55.493c3.885-1.965,3.322-7.216,4.291-10.703 c1.809-12.281,4.115-24.48,6.505-36.651C412.033,1014.299,392.766,1024.034,373.122,1032.956 M785.864,1011.632 c-3.645,7.88-7.972,15.409-12.549,22.773c26.168,11.7,56.895,11.562,83.414,0.96c-4.134-7.723-8.185-15.502-11.691-23.529 C825.384,1014.557,805.546,1013.21,785.864,1011.632 M263.641,1025.971c-11.082,0.526-19.479,12.401-17.606,23.096 c0.803,8.591,7.16,16.351,15.529,18.611c12.531,4.318,27.451-7.779,25.596-20.973 C287.77,1034.479,275.599,1024.108,263.641,1025.971 M772.005,1035.992c-8.175,12.309-19.525,21.887-31.372,30.496 c27.34,21.26,64.221,28.484,97.993,22.247c16.812-2.62,32.877-9.329,46.607-19.377c-10.999-8.923-19.396-20.438-27.174-32.129 c-13.093,3.995-26.362,8.415-40.277,7.613C802.04,1045.422,786.501,1041.925,772.005,1035.992 M1204.402,1043.688 c2.39,15.834,3.174,31.852,4.863,47.779c28.817,19.912,57.356,40.212,86.099,60.226c1.107-7.852,3.1-16.701,10.584-20.973 c6.118-5.214,14.551-3.248,21.887-3.1c-4.005-4.392-6.579-9.864-8.074-15.566c-0.6-2.796-3.423-4.032-5.583-5.379 c-19.248-11.248-38.754-22.035-57.892-33.458C1238.893,1063.545,1222.136,1052.73,1204.402,1043.688 M1358.884,1048.006 c-9.403,2.215-17.347,11.774-16.055,21.703c-0.517,12.217,12.337,23.096,24.295,19.755c12.558-2.74,21.103-18.012,15.41-29.906 C1379.211,1050.165,1368.286,1045.395,1358.884,1048.006 M323.211,1111.702c2.657,4.06,5.426,8.148,7.013,12.78 c1.679,7.437-0.268,15.216-4.355,21.509c4.807-0.351,9.845-0.821,14.487,0.794c3.405,1.458,6.533,3.525,9.735,5.407 c20.918-14.496,41.928-28.89,62.533-43.82c4.494-2.03,5.029-7.234,5.269-11.46c1.227-14.127,3.774-28.097,4.909-42.224 C389.205,1072.984,356.651,1093.118,323.211,1111.702 M703.382,1080.181c6.579,10.519,14.911,19.931,24.6,27.691 c26.298,20.383,60.512,29.509,93.509,27.331c36.927-1.172,74.953-16.932,96.877-47.659c-11.414-3.802-22.053-9.559-31.686-16.757 c-25.458,18.067-57.984,25.347-88.784,20.66c-21.573-2.427-42.316-10.962-59.497-24.194 C727.401,1073.159,715.737,1078.013,703.382,1080.181 M281.163,1068.361c-9.338,1.762-16.923,11.1-16.028,20.715 c-0.221,11.34,10.325,22.828,22.044,21.223c11.091,0.6,20.198-10.51,19.377-21.158 C307.027,1076.269,293.555,1065.602,281.163,1068.361 M1341.306,1088.587c-12.235,0.821-21.924,13.749-19.109,25.735 c1.873,10.934,13.905,19.672,24.867,15.982c12.032-2.98,20.291-17.495,15.096-29.176 C1359.115,1092.721,1350.053,1087.609,1341.306,1088.587 M1357.767,1091.088c3.977,5.619,8.572,11.875,7.17,19.22 c0.323,14.911-16.258,26.408-30.21,21.453c3.036,4.844,6.265,9.864,6.754,15.742c0.129,10.685-6.976,21.389-17.421,24.36 c-5.121,0.821-10.316-0.332-15.373-1.006c3.755,5.407,6.551,11.995,5.426,18.713c-0.683,8.194-6.588,15.068-13.776,18.519 c-5.869,3.46-12.9,1.357-19.22,0.545c1.661,4.272,3.995,8.517,3.469,13.315c0.517,10.907-8.138,20.586-18.482,22.957 c-5.813,0.6-11.682-0.323-17.07-2.5c1.255,3.608,2.445,7.188,3.239,10.98c0.84,10.805-7.087,20.983-17.043,24.406 c-7.077,1.781-14.533-0.101-20.632-3.829c3.589,7.696,3.802,17.264-1.061,24.489c-7.123,11.276-24.074,13.675-34.445,5.619 c0.997,5.13,1.495,10.482,0.388,15.659c-2.694,10.196-13.472,17.55-23.954,16.655c-5.933,0.471-10.63-3.469-15.243-6.524 c1.449,6.505,1.43,13.822-2.058,19.709c-4.651,7.013-12.789,12.281-21.453,11.663c-6.754,0.498-12.374-3.875-17.218-7.945 c0.969,7.548-0.295,14.967-3.986,21.629c38.828,9.864,79.492,18.141,119.529,10.897c25.882-4.881,49.818-17.135,76.005-20.807 c21.398-3.46,43.7-1.439,64.083,5.979c8.323,2.98,15.871,7.649,23.631,11.839c-9.975-16.12-17.163-34.215-19.109-53.158 c-1.264-17.07,0.775-34.233,4.983-50.768c3.774-14.847,9.347-29.167,13.186-43.995c5.776-20.189,7.151-41.44,6.007-62.33 c-1.965-27.497-7.188-54.754-15.742-80.96C1364.669,1091.531,1361.191,1091.291,1357.767,1091.088 M1209.015,1093.542 c1.033,17.522,2.058,35.063,1.984,52.641c19.423,16.508,38.976,32.858,58.574,49.163c-0.028-5.859-1.098-12.069,1.356-17.559 c2.98-5.693,8.24-10.39,14.321-12.521c5.619-2.519,11.396-0.258,16.997,0.978c-3.349-5.333-5.5-11.755-11.137-15.253 C1263.853,1131.697,1236.42,1112.624,1209.015,1093.542 M266.326,1101.847c-9.126,35.783-16.803,72.978-11.525,110.016 c2.362,19.497,10.362,37.592,15.696,56.36c5.112,16.664,8.711,34.048,7.428,51.589c-0.018,22.311-7.253,44.171-19.193,62.92 c16.72-10.362,35.469-18.039,55.234-19.469c16.028-0.849,32.129,0.895,47.677,4.807c24.231,6.339,47.566,16.646,72.775,18.722 c41.116,3.257,82.694-3.479,121.569-16.895c2.676-0.766,3.875-3.423,5.066-5.666c-4.992,3.008-9.753,6.883-15.612,7.972 c-7.815,0.849-16.249-1.661-21.398-7.816c-5.656-5.555-6.524-13.85-5.416-21.296c-3.377,2.122-6.81,4.217-10.528,5.684 c-11.313,3.1-23.612-3.617-28.078-14.192c-2.962-5.296-1.236-11.552-0.258-17.181c-6.302,4.706-14.662,7.345-22.367,4.761 c-7.262-1.356-12.328-7.686-15.751-13.758c-2.667-5.952-0.674-12.66,0.286-18.814c-4.595,1.993-9.126,5.001-14.413,4.235 c-11.912,0.48-22.533-9.79-23.612-21.435c-0.12-4.521,1.2-8.83,2.362-13.121c-10.907,6.099-26.491,3.1-32.341-8.664 c-5.13-7.779-3.866-17.855,0.913-25.412c-2.648,0.877-5.241,2.002-7.982,2.574c-11.645,2.436-23.585-6.09-26.722-17.209 c-2.916-7.087,0.701-14.431,3.968-20.651c-7.262,1.449-15.603,2.584-22.007-1.901c-6.265-5.167-12.042-12.734-10.833-21.352 c-0.508-5.472,2.482-10.122,5.195-14.524c-3.562,0.175-7.133,0.286-10.685,0.277c-10.224-0.692-18.325-9.873-19.857-19.626 c-1.449-7.908,1.882-15.76,7.539-21.167c-4.568,0.231-9.227,0.517-13.739-0.212 C274.353,1109.792,270.496,1105.353,266.326,1101.847 M305.957,1108.74c-7.345,0.95-14.247,5.472-16.978,12.577 c-4.623,10.87,1.753,25.015,13.13,28.577c10.454,4.927,23.077-2.713,26.233-13.177 C333.398,1122.996,320.443,1106.94,305.957,1108.74 M351.253,1153.75c2.39,4.309,4.318,8.895,5.149,13.804 c0.314,5.85-2.418,11.073-4.586,16.305c5.158-1.163,10.547-1.827,15.797-0.803c5.472,1.246,9.347,5.629,13.527,9.08 c10.076-8.637,20.198-17.227,30.441-25.67c1.495-19.386,3.008-38.754,4.854-58.104C394.51,1123.208,372.9,1138.507,351.253,1153.75 M886.755,1118.936c-8.092,3.839-16.111,7.935-24.581,10.897c-37.25,12.429-79.234,9.504-114.648-7.336 c-2.168-1.052-4.632,0.803-6.653,1.107c-6.311,2.196-12.724,4.069-19.11,6.016c27.599,40.581,58.482,79.105,93.176,113.864 c5.684-4.881,11.211-9.938,16.757-14.967c31.926-30.524,62.773-62.487,88.517-98.5 C908.891,1126.853,897.763,1123.014,886.755,1118.936 M1318.192,1128.163c-4.328,0.508-8.517,2.049-12.069,4.558 c-9.043,6.902-11.497,21.287-3.875,30.173c6.819,10.233,23.622,10.261,31.142,0.775c6.127-5.841,7.373-15.151,4.77-22.893 C1335.179,1132.841,1326.469,1127.858,1318.192,1128.163 M330.067,1147.669c-12.383,1.153-21.333,15.696-15.982,27.128 c3.073,10.261,14.717,16.96,25.116,14.311c8.987-2.224,16.166-11.202,15.345-20.614 C354.925,1156.029,342.33,1145.215,330.067,1147.669 M1210.925,1148.989c0.009,15.723,0.055,31.465-1.098,47.17 c0.424,4.189-2.251,9.901,1.652,13.167c10.316,9.356,18.694,21.629,31.677,27.534c-2.251-4.614-4.641-9.504-3.654-14.837 c-0.203-10.593,8.369-19.986,18.537-22.007c5.379-0.434,10.833,0.526,16,2.048 C1253.38,1183.932,1232.102,1166.502,1210.925,1148.989 M1285.998,1167.074c-12.374,3.571-19.571,18.99-12.909,30.57 c6.21,13.25,26.796,14.551,34.704,2.233c8-8.969,5.61-24.397-4.457-30.699C1298.298,1165.681,1291.719,1166.253,1285.998,1167.074 M382.45,1193.427c3.091,8.406,2.74,17.522-1.033,25.615c6.597-1.569,13.684-3.543,20.254-0.794 c5.444,2.15,8.877,7.142,12.743,11.257c4.807-4.254,9.31-8.84,13.555-13.638c-6.035-0.452-12.078-0.775-18.113-1.227 c0.092-15.262,1.347-30.468,1.762-45.712C401.689,1176.846,391.77,1184.8,382.45,1193.427 M699.47,1191.517 c33.107,49.098,71.123,94.773,112.083,137.504c15.742-12.697,29.859-27.202,44.66-40.932c29.739-30.311,58.381-61.85,83.322-96.286 c-17.781-4.817-35.017-11.349-52.226-17.836c-5.398,6.385-10.98,12.614-16.729,18.694c-18.187,18.353-36.198,36.955-56.231,53.343 c-22.062-22.93-43.063-46.939-62.468-72.166C734.459,1179.854,717.14,1186.221,699.47,1191.517 M356.808,1184.56 c-9.975,2.252-17.559,12.715-15.511,22.976c1.947,10.759,12.817,20.06,23.982,18.676c14.108-0.766,22.671-19.34,15.114-30.957 C376.157,1186.756,365.841,1182.862,356.808,1184.56 M687.696,1197.081c-20.281,55.446-40.369,110.976-60.651,166.422 c6.127,1.338,12.715,3.331,16.674,8.572c4.078,4.226,4.761,10.316,6.422,15.723c2.584-2.75,5.38-5.342,8.415-7.575 c4.466-2.879,9.993-3.22,15.123-3.774c13.629-50.565,27.091-101.167,40.747-151.723c0.102-2.491,2.27-5.453,0.526-7.862 c-5.564-8.646-12.217-16.526-17.55-25.319C693.934,1192.772,688.978,1192.91,687.696,1197.081 M941.583,1192.504 c-3.82,4.854-7.779,9.615-11.276,14.708c-2.122,2.759-1.089,6.487-0.507,9.633c14.293,53.933,29.167,107.719,43.229,161.716 c5.832-4.189,12.457-8.646,20.051-7.096c7.585-0.203,14.302,4.734,18.261,10.897c0.037-7.474,2.722-14.468,7.428-20.235 c-20.032-54.957-40.138-109.905-60.014-164.918C953.025,1195.632,947.304,1194.045,941.583,1192.504 M649.274,1203.069 c-4.272,0.6-5.001,5.647-6.865,8.729c-20.641,45.158-42.104,89.947-62.736,135.105c4.263,0.747,8.923,0.498,12.909,2.537 c9.725,4.032,14.8,15.409,13.278,25.559c4.254-5.601,10.556-9.218,17.283-11.054c2.178-0.461,2.879-2.731,3.635-4.521 c15.926-44.54,32.489-88.849,48.388-133.407c3.58-10.353,8.12-20.383,10.925-30.994 C673.846,1197.819,661.555,1200.449,649.274,1203.069 M960.859,1197.911c19.783,54.072,39.336,108.226,59.137,162.298 c5.739-2.076,11.617-5.296,17.947-4.088c6.468,0.498,11.672,4.761,16.277,8.95c0.185-4.143,0.222-8.351,1.375-12.337 c1.993-4.392,5.416-7.88,8.074-11.839c-2.122-6.745-5.73-12.909-8.618-19.331c-17.273-37.186-34.787-74.27-51.848-111.548 c-1.744-4.586-7.705-4.097-11.506-5.223C981.315,1202.959,971.184,1199.988,960.859,1197.911 M1257.375,1202.091 c-9.67,2.39-17.882,12.392-16.092,22.644c-0.028,11.755,12.549,21.887,24.028,18.51c11.635-2.03,19.995-14.865,17.061-26.39 C1280.453,1205.985,1267.876,1199,1257.375,1202.091 M602.252,1210.636c-3.23,0.194-4.364,3.626-5.905,5.915 c-21.103,37.232-42.777,74.141-63.982,111.308c6.588,0.018,13.712-1.541,19.654,2.113c9.153,4.697,13.407,15.622,12.272,25.55 c4.014-2.98,8.517-5.241,12.494-8.24c2.639-3.165,3.839-7.271,5.712-10.87c20.171-44.088,41.163-87.797,61.13-131.968 C629.823,1206.419,616.074,1208.781,602.252,1210.636 M1004.005,1207.452c20.014,44.383,41.329,88.166,61.333,132.549 c6.367-1.347,12.992-3.377,19.451-1.246c4.383,1.412,7.806,4.669,11.303,7.557c-0.277-4.328-0.461-8.738,0.037-13.001 c1.449-6.801,7.04-11.414,11.958-15.797c-18.667-32.166-37.278-64.378-55.686-96.701c-1.689-2.205-2.796-5.527-5.887-5.933 C1032.388,1212.158,1018.067,1210.507,1004.005,1207.452 M1209.255,1209.907c-0.508,6.09-1.024,12.226-1.596,18.334 c-14.468-0.083-28.918-0.803-43.359-1.476c9.624,12.143,19.257,24.397,29.878,35.663c5.195,1.726,10.473,3.34,15.483,5.638 c-4.577-9.144-3.986-21.398,4.106-28.411c4.337-5.666,11.829-5.924,18.233-7.216 C1224.379,1224.956,1216.923,1217.316,1209.255,1209.907 M548.549,1215.775c-13.896,19.912-27.931,39.732-41.633,59.792 c-7.622,11.239-16.221,21.859-22.764,33.808c5.463-2.316,10.879-5.749,17.098-5.167c6.597-0.111,13.739,2.611,17.495,8.268 c5.324,6.09,5.85,14.653,5.066,22.367c4.134-3.663,7.409-8.12,10.03-12.964c20.918-37.112,42.63-73.772,63.631-110.819 C581.232,1213.312,564.872,1214.317,548.549,1215.775 M926.349,1212.38c-9.098,10.999-17.882,22.256-27.368,32.932 c8.129,50.085,17.91,99.894,25.947,149.998c4.586-5.638,9.864-12.005,17.698-12.558c10.74-1.965,20.835,4.974,25.319,14.404 c0.277-8.212,4.457-16.268,1.772-24.452c-8.803-33.006-17.735-65.984-26.491-99.008 C937.514,1253.284,932.835,1232.55,926.349,1212.38 M492.559,1217.667c-13.084,15.594-26.224,31.142-39.299,46.745 c-4.78,4.771-3.802,12.097-5.564,18.196c4.078-2.344,8.452-4.189,13.084-5.14c7.299-0.581,14.339,2.999,19.331,8.138 c3.765,4.383,5.536,10.159,6.302,15.815c7.363-9.993,14.413-20.226,21.453-30.45c12.448-18.639,26.408-36.272,38.118-55.391 C528.203,1217.012,510.395,1217.685,492.559,1217.667 M1051.876,1215.665c18.556,34.085,38.551,67.377,57.836,101.066 c4.909-0.341,9.809-0.554,14.736,0.009c4.401,0.904,7.76,4.143,11.469,6.542c-1.264-5.684-1.91-11.737,0.249-17.292 c2.094-6.856,9.043-10.371,14.524-14.229c-16.138-23.317-32.397-46.542-48.757-69.702 C1085.232,1220.001,1068.512,1218.128,1051.876,1215.665 M429.804,1216.957c-5.057,3.396-9.07,8.212-13.02,12.807 c-2.039,1.919-1.043,4.761-1.117,7.179c0.424,4.881-0.84,9.688-1.799,14.478c7.114-3.063,15.52-4.466,22.634-0.6 c6.69,2.657,10.067,9.153,12.835,15.326c13.555-16.129,27.506-31.954,40.388-48.627 C469.74,1217.962,449.763,1216.181,429.804,1216.957 M390.044,1218.719c-6.182,0.627-11.737,4.688-15.179,9.725 c-6.431,10.842-0.36,25.938,11.054,30.487c6.33,3.377,14.376,1.827,20.069-2.141c7.834-5.121,10.621-16.277,6.699-24.664 C409.301,1223.24,399.594,1217.049,390.044,1218.719 M709.38,1250.073c-10.944,42.51-23.05,84.715-33.781,127.271 c5.121,2.408,10.74,4.863,13.905,9.818c3.58,4.005,3.829,9.559,3.977,14.634c3.359-5.01,6.671-10.648,12.678-12.752 c5.02-2.676,10.897-1.845,16.36-2.288c7.917-41.098,14.422-82.464,22.164-123.599c1.384-3.423,0.701-7.059-1.689-9.707 c-8.757-10.685-17.07-21.712-25.403-32.71C714.399,1230.382,711.991,1240.264,709.38,1250.073 M1104.443,1222.105 c14.976,21.933,30.339,43.599,45.61,65.329c1.43,3.958,5.767,3.654,9.079,4.023c5.389-0.221,9.965,2.703,14.441,5.278 c-1.652-6.044-3.626-12.401-0.471-18.39c2.704-8.378,11.11-12.263,18.676-15.252c-9.984-12.051-19.755-24.378-30.247-35.94 C1142.589,1224.68,1123.433,1224.2,1104.443,1222.105 M1225.099,1235.328c-12.42,2.399-20.549,17.43-15.077,29.057 c3.958,11.405,19.571,16.111,29.453,9.273c9.439-4.863,13.841-17.366,9.541-27.063 C1244.983,1237.699,1234.464,1233.113,1225.099,1235.328 M864.803,1281.353c2.021,35.82,6.256,71.483,8.812,107.266 c0.729,7.908,1.273,15.935,3.276,23.668c1.892-5.878,3.691-12.346,8.877-16.221c7.88-7.649,21.269-6.893,29.546-0.314 c3.073,2.962,5.453,6.579,8.065,10.002c0.535-9.91-1.615-19.654-3.525-29.296c-7.603-42.971-14.967-85.979-22.847-128.895 C886.459,1258.996,876.245,1270.779,864.803,1281.353 M420.513,1251.116c-6.422,1.855-12.318,6.856-14.035,13.499 c-4.531,13.38,8.037,28.549,21.887,27.469c10.667,0.535,20.217-9.698,19.239-20.272 C448.702,1258.045,433.551,1246.825,420.513,1251.116 M746.99,1258.774c-5.758,32.812-11.534,65.624-17.338,98.427 c-1.79,10.334-4.078,20.614-4.89,31.105c7.576,4.078,12.881,11.525,14.902,19.866c2.713-3.811,4.881-8.24,8.987-10.759 c6.588-5.564,15.659-3.423,23.502-2.556c3.073-28.374,4.77-56.877,7.677-85.26c-0.074-4.623,2.307-10.251-1.467-14.025 C767.631,1283.54,757.334,1271.139,746.99,1258.774 M1190.976,1265.852c-5.084,0.526-9.449,3.728-12.651,7.557 c-6.302,6.81-6.108,18.141-1.19,25.624c5.195,7.114,15.29,10.657,23.539,6.865c8.775-2.796,15.843-11.682,14.718-21.14 C1216.157,1272.412,1202.603,1262.908,1190.976,1265.852 M459.239,1279.628c-12.226,1.393-21.555,15.64-15.963,27.146 c3.94,12.715,21.241,18.805,32.157,11.137c8.6-5.389,10.547-17.236,6.791-26.104 C478.109,1283.66,468.485,1277.856,459.239,1279.628 M824.425,1320.126c-0.129,26.012-0.637,52.06,0.092,78.062 c0.138,6.524,5.352,11.285,6.791,17.486c0.904-12.226,12.937-22.21,25.2-20.254c6.644-0.489,11.774,4.281,16.664,8.019 c-4.005-39.696-6.801-79.511-10.657-119.216C849.8,1296.172,837.85,1308.943,824.425,1320.126 M1153.126,1293.469 c-8.914,1.892-16.369,10.021-16.554,19.303c-1.818,11.645,9.144,22.819,20.734,21.721c11.497,0.332,22.109-10.519,21.195-22.044 C1179.267,1299.678,1165.02,1290.101,1153.126,1293.469 M782.136,1300.906c-2.611,25.329-4.06,50.768-6.837,76.088 c-0.471,6.404-1.735,13.047,0.185,19.359c3.414,5.324,8.203,9.975,9.578,16.378c3.506-7.483,9.31-14.976,17.928-16.443 c6.782-2.574,13.352,1.938,19.497,4.337c-0.203-26.048-0.009-52.097-0.129-78.145c-3.7,2.925-7.4,5.841-11.128,8.729 C801.329,1321.307,792.388,1310.456,782.136,1300.906 M496.148,1306.387c-11.469,2.048-19.534,15.105-15.059,26.215 c4.051,11.672,18.233,18.224,29.721,13.297c10.722-4.466,14.957-19.146,8.932-28.854 C515.359,1308.73,505.412,1303.757,496.148,1306.387 M1113.44,1318.364c-9.403,2.215-17.338,11.774-16.065,21.703 c-0.415,10.362,8.941,19.672,19.322,19.405c11.313,0.24,22.459-8.692,22.967-20.374 C1140.642,1325.755,1126.266,1314.516,1113.44,1318.364 M535.816,1329.427c-10.122,2.242-17.864,12.724-15.686,23.188 c1.67,11.848,14.441,19.949,25.956,17.421c9.476-0.96,16.747-10.39,15.926-19.792 C563.202,1336.864,548.439,1326.115,535.816,1329.427 M1074.695,1339.586c-11.866,1.569-21.822,14.459-17.984,26.371 c2.381,12.558,18.685,19.276,29.564,12.844c10.925-4.687,15.742-19.423,9.209-29.453 C1091.082,1342.548,1082.879,1338.073,1074.695,1339.586 M577.357,1349.782c-8.6,1.486-14.819,9.901-15.779,18.279 c-0.628,10.15,7.142,20.161,17.19,21.915c13.555,4.217,28.9-9.504,25.227-23.419 C602.141,1354.747,588.918,1346.267,577.357,1349.782 M1031.336,1358.087c-10.639,1.928-19.359,12.983-17.449,23.899 c0.914,9.928,10.796,17.993,20.697,17.098c12.54,0.36,24.434-12.346,21.389-24.941 C1054.007,1363.3,1041.975,1355.789,1031.336,1358.087 M621.657,1366.419c-8.674,1.126-15.077,8.969-16.867,17.172 c-1.356,11.552,8.24,22.422,19.636,23.4c12.604,2.602,25.015-9.587,23.197-22.09 C646.626,1372.712,633.652,1363.134,621.657,1366.419 M990.625,1372.786c-7.742,0.203-15.299,4.568-18.694,11.645 c-5.186,8.932-2.039,21.868,7.336,26.703c11.903,7.926,30.764-0.009,32.858-14.321 C1014.413,1384.394,1003.322,1371.715,990.625,1372.786 M666.87,1379.254c-13.075,1.319-22.007,16.987-15.815,28.844 c4.66,10.74,18.722,15.493,29.057,10.224c8.074-3.562,14.062-13.204,11.359-21.97 C689.606,1385.252,677.841,1377.298,666.87,1379.254 M941.832,1384.846c-9.679,1.882-18.418,11.396-16.969,21.647 c-0.775,13.555,15.354,22.782,27.359,18.27c8.397-2.713,16.065-10.722,14.976-20.042 C967.733,1392.172,953.984,1381.349,941.832,1384.846 M711.142,1389.432c-6.662,1.421-12.807,5.933-15.197,12.466 c-3.516,7.502-1.31,17.384,5.269,22.487c9.735,9.698,28.761,7.003,34.215-6.062c3.248-5.573,2.279-12.761-0.738-18.224 C730.584,1391.655,720.194,1387.245,711.142,1389.432 M1014.653,1389.939c-0.711,6.33-1.467,13.37-6.145,18.187 c-6.265,7.493-17.319,9.172-26.325,6.524c-5.933-1.716-9.43-6.948-12.854-11.645c0.249,9.033-4.475,18.519-13.112,22.025 c-11.368,6.394-26.473,0.554-31.954-10.879c-1.32,6.505-4.429,12.946-9.892,16.95c-5.841,4.798-14.182,4.521-21.195,3.331 c-7.382-1.688-12.088-8.369-15.206-14.791c-1.753,5.592-3.829,11.617-8.766,15.216c-4.678,3.386-10.408,5.878-16.323,4.835 c-10.648,0.323-19.082-8.526-21.785-18.27c-1.587,12.752-15.188,21.85-27.682,18.833c-9.393-0.978-15.373-8.969-18.722-17.08 c-3.829,6.57-9.347,12.604-17.033,14.422c-7.502,1.209-16-0.018-21.712-5.389c-4.235-3.765-5.998-9.329-7.852-14.477 c-2.445,4.272-5.26,8.664-9.753,11.026c-8.258,5.093-19.349,3.839-27.045-1.716c-5.555-4.134-7.908-10.925-9.264-17.43 c-5.287,8.794-15.668,14.736-26.095,12.152c-10.98-2.021-18.528-12.54-19.303-23.289c-2.131,2.537-4.374,5.01-7.022,7.05 c-4.577,3.349-10.556,2.916-15.908,3.543c18.574,35.885,43.857,68.697,76.189,93.195c18.03,13.776,39.52,21.73,58.75,33.532 c22.717,13.546,42.427,33.319,52.881,57.891c3.58,7.76,5.555,16.092,7.723,24.332c5.795-26.233,19.783-50.75,40.627-67.912 c27.626-25.052,66.279-33.08,93.462-58.75c28.484-26.454,49.984-59.58,67.746-93.942 C1018.916,1394.931,1016.757,1392.421,1014.653,1389.939 M894.801,1393.261c-13.167,2.519-19.82,19.922-12.641,31.013 c4.558,5.841,11.857,10.371,19.552,8.969c10.796,0.388,20.724-9.421,20.281-20.254 C922.427,1399.499,907.488,1389.09,894.801,1393.261 M756.356,1395.918c-10.418,2.104-18.436,14.109-15.317,24.563 c2.759,11.562,16.738,19.479,27.949,14.819c8.563-2.962,15.742-11.506,14.182-21.01 C782.616,1401.409,768.637,1392.061,756.356,1395.918 M852.337,1396.915c-12.789,0.784-23.114,15.262-18.316,27.488 c3.147,8.019,11.636,14.801,20.623,13.435c12.134,0.803,23.566-11.377,20.881-23.529 C873.993,1403.595,863.05,1395.273,852.337,1396.915 M806.072,1397.542c-9.938,1.356-19.239,9.596-19.626,20.042 c-0.71,11.995,11.063,22.957,22.994,21.167c11.802,0.277,21.924-11.765,19.783-23.308 C827.562,1404.823,816.692,1396.638,806.072,1397.542z"/> <path d="M806.201,700.232c13.426-0.96,27.137-1.107,40.323,2.085c20.927,4.641,39.133,16.572,56.784,28.189 c13.601,8.997,18.722,25.126,25.458,39.077c17.292,35.922,15.4,80.36-4.854,114.694c-5.961,9.07-10.122,19.488-18.159,27.054 c-8.618,8.886-20.171,13.942-30.764,20.005c-27.875,14.847-62.007,18.113-91.995,7.926c-12.531-3.543-23.373-11.026-34.99-16.637 c-12.918-6.478-23.539-17.587-28.964-31.013c-7.031-13.915-14.939-27.7-17.458-43.331c-8.747-39.105,3.008-82.242,31.022-111.003 C751.548,716.62,778.316,703.129,806.201,700.232 M752.083,722.691c8.055-2.87,16.6-5.712,25.246-3.857 c13.527,0.867,23.105,11.958,30.607,22.099c9.144-2.768,18.777-2.095,27.949,0.175c5.462-8.065,12.503-15.631,21.795-19.119 c7.963-3.248,16.618-2.722,25.024-2.261C844.033,693.847,789.629,695.397,752.083,722.691 M725.5,752.311 c-3.839,7.317-5.352,15.862-3.885,24.037c0.923,11.857,8.941,21.693,18.067,28.678c4.955-9.384,14.007-18.537,25.458-17.439 c17.615,0.203,31.705,12.125,44.568,22.736c-10.39-13.942-23.216-29.721-20.125-48.388c1.384-9.098,8.674-15.76,16.203-20.254 c-6.293-10.962-16.701-20.051-29.647-21.499C754.713,718.742,734.026,732.979,725.5,752.311 M837.629,741.884 c7.806,4.844,15.502,11.894,15.815,21.785c0.508,14.865-7.889,27.986-16.434,39.437c12.401-7.908,25.596-17.845,41.246-15.197 c10.298,1.458,17.652,10.002,22.099,18.86c11.368-6.976,22.468-17.338,23.382-31.511c1.135-25.615-19.691-49.522-44.614-53.951 C862.681,718.945,845.574,727.222,837.629,741.884 M811.313,742.216c-13.269,2.685-23.428,16.701-20.042,30.265 c3.728,17.956,15.825,32.821,28.254,45.721c10.713-9.227,20.208-20.106,26.805-32.674c5.029-9.569,7.963-21.712,2.205-31.631 C840.526,742.317,824.48,737.805,811.313,742.216 M715.867,881.676c-0.572-7.123-0.203-14.431,2.556-21.13 c4.051-10.722,13.878-17.486,23.179-23.354c-4.337-9.707-4.088-20.484-2.722-30.81c-9.006-6.09-16.157-15.289-18.436-26.039 c-2.86-9.892,0.138-19.802,2.98-29.25C695.908,788.352,693.288,841.418,715.867,881.676 M925.472,766.834 c0.212,7.659-0.591,15.557-4.309,22.404c-4.014,8.517-12.189,13.905-19.783,18.907c0.794,9.993-0.018,20.115-3.128,29.675 c8.581,5.01,16.323,12.171,20.088,21.546c3.746,7.852,3.183,16.775,3.183,25.264C943.004,849.529,944.397,803.309,925.472,766.834 M757.158,790.364c-6.597,1.864-10.971,7.797-14.284,13.426c-4.752,9.135-4.023,20.171-0.711,29.665 c4.844,12.623,19.949,19.848,32.886,15.539c16.138-5.25,29.887-16.102,41.984-27.737c-10.436-12.226-23.188-22.939-38.136-29.158 C772.051,789.358,764.31,788.297,757.158,790.364 M861.472,791.406c-14.883,5.795-27.58,15.935-39.243,26.639 c11.866,12.429,24.877,25.061,41.707,30.247c10.048,4.097,23.114,1.993,29.509-7.382c10.159-13.85,9.024-36.623-5.601-46.967 C880.499,787.872,870.007,788.38,861.472,791.406 M795.378,849.888c-5.333,9.181-9.089,20.152-6.339,30.8 c1.624,4.125,3.949,8.24,7.603,10.907c11.635,8.71,28.853,9.412,41.117,1.55c6.321-4.724,10.611-12.069,11.377-19.958 c-0.194-6.155-1.522-12.3-4.226-17.836c-6.256-12.835-14.939-24.406-25.006-34.482 C810.713,829.607,801.763,838.843,795.378,849.888 M829.878,828.574c7.446,10.814,15.945,21.287,19.645,34.131 c2.408,8.674,1.107,18.593-4.392,25.855c-3.534,4.161-8.231,7.05-12.752,10.012c4.355,10.048,11.11,19.774,21.444,24.332 c15.243,7.945,34.002,1.587,46.459-8.692c12.263-10.39,21.638-26.473,19.313-42.999c-1.07-13.149-9.79-25.292-21.546-31.003 c-3.073,0.554-4.946,4.42-7.686,5.896c-7.243,7.188-18.233,6.662-27.285,3.968C850.335,845.893,839.724,837.385,829.878,828.574 M801.403,837.422c-12.411,7.492-26.371,17.67-41.735,13.536c-7.253-1.144-12.06-7.068-17.089-11.802 c-8.84,4.669-17.495,10.741-21.693,20.189c-7.714,14.579-2.002,32.074,7.142,44.54c10.759,14.21,29.02,24.397,47.216,20.964 c14.136-2.021,25.707-12.89,30.764-25.91c-7.271-3.276-14.653-7.871-17.79-15.566c-2.482-4.457-2.002-9.799-1.578-14.653 C788.07,856.956,795.045,847.037,801.403,837.422 M808.637,899.531c-5.481,9.366-11.866,19.027-22.191,23.529 c-7.963,4.448-17.338,4.558-26.205,4.291c22.007,12.54,47.972,18.454,73.19,14.967c15.677-1.421,30.597-7.086,44.54-14.145 c-8.803,0.443-18.288,0.471-26.067-4.217c-9.984-5.223-16.646-14.801-21.555-24.637 C823.105,899.623,815.862,899.725,808.637,899.531z"/> </g> </svg>